<svg id="writing" xmlns="http://www.w3.org/2000/svg" width="34.957" height="25.961" viewBox="0 0 34.957 25.961">
  <path id="Path_40" data-name="Path 40" d="M251.208-3.9a3.571,3.571,0,0,0-5.051,0l-11.8,11.8a3.575,3.575,0,0,0-.927,1.61l-1.549,5.836a.735.735,0,0,0,.887.9l5.9-1.46a3.575,3.575,0,0,0,1.668-.942L247.682,6.5a.732.732,0,0,0,.516-.515l2.025-2.025a.732.732,0,0,0,.515-.516l1.382-1.382a3.576,3.576,0,0,0,0-5.051ZM247.42,4.683,243.536.8l1.5-1.5,3.885,3.884ZM239.3,12.8a2.1,2.1,0,0,1-.981.554l-4.7,1.162,1.23-4.635a2.107,2.107,0,0,1,.545-.947l7.1-7.1,3.885,3.885ZM251.08,1.024l-1.12,1.12-3.884-3.884,1.12-1.12a2.1,2.1,0,0,1,2.972,0l.913.913a2.1,2.1,0,0,1,0,2.971Zm0,0" transform="translate(-218.209 4.947)" fill="#a3a3a3"/>
  <path id="Path_41" data-name="Path 41" d="M.735,94.033H18.371a.735.735,0,1,0,0-1.47H.735a.735.735,0,0,0,0,1.47Zm0,0" transform="translate(0 -86.822)" fill="#a3a3a3"/>
  <path id="Path_42" data-name="Path 42" d="M.735,200.185H11.322a.735.735,0,0,0,0-1.471H.735a.735.735,0,0,0,0,1.471Zm0,0" transform="translate(0 -186.724)" fill="#a3a3a3"/>
  <path id="Path_43" data-name="Path 43" d="M.735,306.342H11.322a.735.735,0,0,0,0-1.471H.735a.735.735,0,0,0,0,1.471Zm0,0" transform="translate(0 -286.631)" fill="#a3a3a3"/>
  <path id="Path_44" data-name="Path 44" d="M21.167,411.027H.736a.735.735,0,0,0,0,1.47H21.167a.735.735,0,0,0,0-1.47Zm0,0" transform="translate(-0.001 -386.537)" fill="#a3a3a3"/>
</svg>
