<svg xmlns="http://www.w3.org/2000/svg" width="180.204" height="217.266" viewBox="0 0 180.204 217.266">
  <g id="Group_882" data-name="Group 882" transform="translate(-61.904)">
    <g id="Group-2-Copy-4_2_" transform="translate(72.042 33.646) rotate(45)" opacity="0.2">
      <circle id="Oval_1_" cx="4.85" cy="4.85" r="4.85" fill="#fff"/>
      <circle id="Oval-Copy-5_2_" cx="4.85" cy="4.85" r="4.85" transform="translate(18.356 0)" fill="#fff"/>
      <circle id="Oval-Copy-10_2_" cx="4.85" cy="4.85" r="4.85" transform="translate(36.914 0)" fill="#fff"/>
      <circle id="Oval-Copy-15_2_" cx="4.85" cy="4.85" r="4.85" transform="translate(55.472 0)" fill="#fff"/>
      <circle id="Oval-Copy-20_2_" cx="4.85" cy="4.85" r="4.85" transform="translate(74.029 0)" fill="#fff"/>
      <circle id="Oval-Copy-25_1_" cx="4.85" cy="4.85" r="4.85" transform="translate(92.386 0)" fill="#fff"/>
      <circle id="Oval-Copy-6_2_" cx="4.85" cy="4.85" r="4.85" transform="translate(18.457 23.095)" fill="#fff"/>
      <circle id="Oval-Copy-11_2_" cx="4.85" cy="4.85" r="4.85" transform="translate(36.914 23.197)" fill="#fff"/>
      <circle id="Oval-Copy-16_2_" cx="4.85" cy="4.85" r="4.85" transform="translate(55.472 23.197)" fill="#fff"/>
      <circle id="Oval-Copy-21_1_" cx="4.85" cy="4.85" r="4.85" transform="translate(74.029 23.197)" fill="#fff"/>
      <circle id="Oval-Copy-26_1_" cx="4.85" cy="4.85" r="4.85" transform="translate(92.386 23.399)" fill="#fff"/>
      <circle id="Oval-Copy-17_1_" cx="4.85" cy="4.85" r="4.85" transform="translate(55.371 46.294)" fill="#fff"/>
      <circle id="Oval-Copy-22_1_" cx="4.85" cy="4.85" r="4.85" transform="translate(73.929 46.294)" fill="#fff"/>
      <circle id="Oval-Copy-27_1_" cx="4.85" cy="4.85" r="4.85" transform="translate(92.285 46.495)" fill="#fff"/>
      <circle id="Oval-Copy-23_1_" cx="4.85" cy="4.85" r="4.85" transform="translate(74.029 69.188)" fill="#fff"/>
      <circle id="Oval-Copy-28_1_" cx="4.85" cy="4.85" r="4.85" transform="translate(92.386 69.39)" fill="#fff"/>
      <circle id="Oval-Copy-29_1_" cx="4.85" cy="4.85" r="4.85" transform="translate(92.386 92.184)" fill="#fff"/>
    </g>
    <g id="Group_881" data-name="Group 881" transform="translate(126.811 0)" opacity="0.2">
      <g id="Oval-Copy-2_1_" transform="translate(0 182.913)">
        <path id="Path_385" data-name="Path 385" d="M17.176,89.353A17.176,17.176,0,1,1,34.353,72.176,17.195,17.195,0,0,1,17.176,89.353Zm0-30.935A13.758,13.758,0,1,0,30.935,72.176,13.773,13.773,0,0,0,17.176,58.418Z" transform="translate(0 -55)" fill="#fafafa"/>
      </g>
      <g id="Group_180" data-name="Group 180" transform="translate(85.308 0)">
        <path id="Path_387" data-name="Path 387" d="M884.31,763.76l10.579-10.579L884.378,742.67l4.421-4.42,10.509,10.509,10.5-10.5,4.478,4.478-10.5,10.5L914.3,763.75l-4.421,4.42-10.511-10.511-10.579,10.579Z" transform="translate(-884.31 -738.25)" fill="#fafafa"/>
      </g>
    </g>
  </g>
</svg>
