<svg xmlns="http://www.w3.org/2000/svg" width="131.115" height="169.464" viewBox="0 0 131.115 169.464">
  <g id="Group_882" data-name="Group 882" transform="translate(-1355.103 -8.41)">
    <g id="Group-2-Copy-4_2_" transform="translate(1548.122 105.688) rotate(135)" opacity="0.2">
      <circle id="Oval_1_" cx="4.85" cy="4.85" r="4.85" transform="translate(0 92.184)" fill="#fff"/>
      <circle id="Oval-Copy-5_2_" cx="4.85" cy="4.85" r="4.85" transform="translate(18.356 92.184)" fill="#fff"/>
      <circle id="Oval-Copy-10_2_" cx="4.85" cy="4.85" r="4.85" transform="translate(36.914 92.184)" fill="#fff"/>
      <circle id="Oval-Copy-15_2_" cx="4.85" cy="4.85" r="4.85" transform="translate(55.472 92.184)" fill="#fff"/>
      <circle id="Oval-Copy-20_2_" cx="4.85" cy="4.85" r="4.85" transform="translate(74.029 92.184)" fill="#fff"/>
      <circle id="Oval-Copy-25_1_" cx="4.85" cy="4.85" r="4.85" transform="translate(92.386 92.184)" fill="#fff"/>
      <circle id="Oval-Copy-6_2_" cx="4.85" cy="4.85" r="4.85" transform="translate(18.457 69.089)" fill="#fff"/>
      <circle id="Oval-Copy-11_2_" cx="4.85" cy="4.85" r="4.85" transform="translate(36.914 68.987)" fill="#fff"/>
      <circle id="Oval-Copy-16_2_" cx="4.85" cy="4.85" r="4.85" transform="translate(55.472 68.987)" fill="#fff"/>
      <circle id="Oval-Copy-21_1_" cx="4.85" cy="4.85" r="4.85" transform="translate(60.065 55.023)" fill="#fff"/>
      <circle id="Oval-Copy-26_1_" cx="4.85" cy="4.85" r="4.85" transform="translate(92.386 68.785)" fill="#fff"/>
      <circle id="Oval-Copy-17_1_" cx="4.85" cy="4.85" r="4.85" transform="translate(55.371 45.89)" fill="#fff"/>
      <circle id="Oval-Copy-22_1_" cx="4.85" cy="4.85" r="4.85" transform="translate(73.929 45.89)" fill="#fff"/>
      <circle id="Oval-Copy-27_1_" cx="4.85" cy="4.85" r="4.85" transform="translate(92.285 45.689)" fill="#fff"/>
      <circle id="Oval-Copy-23_1_" cx="4.85" cy="4.85" r="4.85" transform="translate(74.029 22.996)" fill="#fff"/>
      <circle id="Oval-Copy-28_1_" cx="4.85" cy="4.85" r="4.85" transform="translate(92.386 22.793)" fill="#fff"/>
      <circle id="Oval-Copy-29_1_" cx="4.85" cy="4.85" r="4.85" transform="translate(92.386 0)" fill="#fff"/>
    </g>
    <g id="Group_881" data-name="Group 881" transform="translate(126.811 0)" opacity="0.2">
      <g id="Oval-Copy-7_1_" transform="translate(1228.292 8.41)">
        <path id="Path_386" data-name="Path 386" d="M696.853,21.705a10.853,10.853,0,1,1,10.853-10.853A10.866,10.866,0,0,1,696.853,21.705Zm0-18.287a7.435,7.435,0,1,0,7.435,7.435A7.442,7.442,0,0,0,696.853,3.418Z" transform="translate(-686)" fill="#fafafa"/>
      </g>
    </g>
  </g>
</svg>
