<svg id="Group_860" data-name="Group 860" xmlns="http://www.w3.org/2000/svg" width="69.816" height="69.816" viewBox="0 0 69.816 69.816">
  <g id="calendar">
    <g id="Group_803" data-name="Group 803">
      <g id="Group_802" data-name="Group 802">
        <path id="Path_1806" data-name="Path 1806" d="M61.635,5.454H58.362V0H52.908V5.454h-36V0H11.454V5.454H8.182A8.191,8.191,0,0,0,0,13.636v48a8.191,8.191,0,0,0,8.182,8.182H61.635a8.191,8.191,0,0,0,8.182-8.182v-48A8.191,8.191,0,0,0,61.635,5.454Zm2.727,56.18a2.73,2.73,0,0,1-2.727,2.727H8.182a2.73,2.73,0,0,1-2.727-2.727v-36H64.362Zm0-41.453H5.454V13.636a2.73,2.73,0,0,1,2.727-2.727h3.273v5.454h5.454V10.909h36v5.454h5.454V10.909h3.273a2.73,2.73,0,0,1,2.727,2.727Z" fill="#aeacac"/>
      </g>
    </g>
    <g id="Group_805" data-name="Group 805" transform="translate(9.752 30.936)">
      <g id="Group_804" data-name="Group 804" transform="translate(0 0)">
        <rect id="Rectangle_179" data-name="Rectangle 179" width="5.851" height="5.851" fill="#aeacac"/>
      </g>
    </g>
    <g id="Group_807" data-name="Group 807" transform="translate(21.454 30.936)">
      <g id="Group_806" data-name="Group 806" transform="translate(0 0)">
        <rect id="Rectangle_180" data-name="Rectangle 180" width="5.851" height="5.851" transform="translate(0)" fill="#aeacac"/>
      </g>
    </g>
    <g id="Group_809" data-name="Group 809" transform="translate(32.182 30.936)">
      <g id="Group_808" data-name="Group 808" transform="translate(0 0)">
        <rect id="Rectangle_181" data-name="Rectangle 181" width="5.851" height="5.851" fill="#aeacac"/>
      </g>
    </g>
    <g id="Group_811" data-name="Group 811" transform="translate(42.909 30.936)">
      <g id="Group_810" data-name="Group 810" transform="translate(0 0)">
        <rect id="Rectangle_182" data-name="Rectangle 182" width="5.851" height="5.851" fill="#aeacac"/>
      </g>
    </g>
    <g id="Group_813" data-name="Group 813" transform="translate(53.636 30.936)">
      <g id="Group_812" data-name="Group 812" transform="translate(0 0)">
        <rect id="Rectangle_183" data-name="Rectangle 183" width="5.851" height="5.851" fill="#aeacac"/>
      </g>
    </g>
    <g id="Group_815" data-name="Group 815" transform="translate(9.752 41.663)">
      <g id="Group_814" data-name="Group 814" transform="translate(0 0)">
        <rect id="Rectangle_184" data-name="Rectangle 184" width="5.851" height="5.851" transform="translate(0 0)" fill="#aeacac"/>
      </g>
    </g>
    <g id="Group_817" data-name="Group 817" transform="translate(21.454 41.663)">
      <g id="Group_816" data-name="Group 816" transform="translate(0 0)">
        <rect id="Rectangle_185" data-name="Rectangle 185" width="5.851" height="5.851" transform="translate(0 0)" fill="#aeacac"/>
      </g>
    </g>
    <g id="Group_819" data-name="Group 819" transform="translate(32.182 41.663)">
      <g id="Group_818" data-name="Group 818" transform="translate(0 0)">
        <rect id="Rectangle_186" data-name="Rectangle 186" width="5.851" height="5.851" transform="translate(0 0)" fill="#aeacac"/>
      </g>
    </g>
    <g id="Group_821" data-name="Group 821" transform="translate(42.909 41.663)">
      <g id="Group_820" data-name="Group 820" transform="translate(0 0)">
        <rect id="Rectangle_187" data-name="Rectangle 187" width="5.851" height="5.851" transform="translate(0 0)" fill="#aeacac"/>
      </g>
    </g>
    <g id="Group_823" data-name="Group 823" transform="translate(9.752 53.365)">
      <g id="Group_822" data-name="Group 822" transform="translate(0 0)">
        <rect id="Rectangle_188" data-name="Rectangle 188" width="5.851" height="5.851" transform="translate(0 0)" fill="#aeacac"/>
      </g>
    </g>
    <g id="Group_825" data-name="Group 825" transform="translate(21.454 53.365)">
      <g id="Group_824" data-name="Group 824" transform="translate(0 0)">
        <rect id="Rectangle_189" data-name="Rectangle 189" width="5.851" height="5.851" transform="translate(0 0)" fill="#aeacac"/>
      </g>
    </g>
    <g id="Group_827" data-name="Group 827" transform="translate(32.182 53.365)">
      <g id="Group_826" data-name="Group 826" transform="translate(0 0)">
        <rect id="Rectangle_190" data-name="Rectangle 190" width="5.851" height="5.851" transform="translate(0 0)" fill="#aeacac"/>
      </g>
    </g>
    <g id="Group_829" data-name="Group 829" transform="translate(42.909 53.365)">
      <g id="Group_828" data-name="Group 828" transform="translate(0 0)">
        <rect id="Rectangle_191" data-name="Rectangle 191" width="5.851" height="5.851" transform="translate(0 0)" fill="#aeacac"/>
      </g>
    </g>
    <g id="Group_831" data-name="Group 831" transform="translate(53.636 41.663)">
      <g id="Group_830" data-name="Group 830" transform="translate(0 0)">
        <rect id="Rectangle_192" data-name="Rectangle 192" width="5.851" height="5.851" transform="translate(0 0)" fill="#aeacac"/>
      </g>
    </g>
  </g>
</svg>
