<svg xmlns="http://www.w3.org/2000/svg" width="108.72" height="129.037" viewBox="0 0 108.72 129.037">
  <g id="Group_13564" data-name="Group 13564" transform="translate(-1702.201 -13205.837)">
    <g id="Group_13414" data-name="Group 13414" transform="translate(1719.46 13235.333)">
      <g id="Group_13391" data-name="Group 13391" transform="translate(23.172)">
        <g id="Group_13390" data-name="Group 13390" style="isolation: isolate">
          <g id="Group_13387" data-name="Group 13387" transform="translate(0.181)">
            <path id="Path_13728" data-name="Path 13728" d="M1842.783,13287.782l-23.006,13.369-23.157-13.369,23.006-13.37Z" transform="translate(-1796.62 -13274.412)" fill="#53b9ff"/>
          </g>
          <g id="Group_13388" data-name="Group 13388" transform="translate(23.157 13.37)">
            <path id="Path_13729" data-name="Path 13729" d="M1873.224,13305.5l-.181,41.15-23.006,13.369.181-41.15Z" transform="translate(-1850.036 -13305.496)" fill="#1da4ff"/>
          </g>
          <g id="Group_13389" data-name="Group 13389" transform="translate(0 13.37)">
            <path id="Path_13730" data-name="Path 13730" d="M1819.537,13318.865l-.181,41.15-23.157-13.369.181-41.151Z" transform="translate(-1796.199 -13305.495)" fill="#0499ff"/>
          </g>
        </g>
      </g>
      <g id="Group_13396" data-name="Group 13396" transform="translate(0 22.744)">
        <g id="Group_13395" data-name="Group 13395" style="isolation: isolate">
          <g id="Group_13392" data-name="Group 13392" transform="translate(0.181)">
            <path id="Path_13731" data-name="Path 13731" d="M1788.91,13340.661l-23.006,13.369-23.157-13.369,23.006-13.37Z" transform="translate(-1742.747 -13327.291)" fill="#ffdc9a"/>
          </g>
          <g id="Group_13393" data-name="Group 13393" transform="translate(23.157 13.37)">
            <path id="Path_13732" data-name="Path 13732" d="M1819.35,13358.375l-.181,31.768-23.006,13.369.181-31.768Z" transform="translate(-1796.163 -13358.375)" fill="#ffcb60"/>
          </g>
          <g id="Group_13394" data-name="Group 13394" transform="translate(0 13.37)">
            <path id="Path_13733" data-name="Path 13733" d="M1765.664,13371.744l-.181,31.768-23.157-13.369.181-31.768Z" transform="translate(-1742.325 -13358.375)" fill="#ffc23f"/>
          </g>
        </g>
      </g>
      <g id="Group_13403" data-name="Group 13403" transform="translate(19.219 13.807)">
        <g id="Group_13402" data-name="Group 13402" style="isolation: isolate">
          <g id="Group_13397" data-name="Group 13397" transform="translate(26.183 8.145)">
            <path id="Path_13734" data-name="Path 13734" d="M1849.311,13340.848l-1.429-.832,7.976-14.564,1.429.83Z" transform="translate(-1847.882 -13325.451)" fill="#ff7fc3"/>
          </g>
          <g id="Group_13398" data-name="Group 13398" transform="translate(31.963)">
            <path id="Path_13735" data-name="Path 13735" d="M1862.748,13314.426l-1.429-.831,7.984-7.08,1.429.829Z" transform="translate(-1861.319 -13306.515)" fill="#ff7fc3"/>
          </g>
          <g id="Group_13399" data-name="Group 13399" transform="translate(0 18.666)">
            <path id="Path_13736" data-name="Path 13736" d="M1788.274,13387.788l-1.029-.6a.474.474,0,0,1-.178-.638l20.021-36.643,1.429.831Z" transform="translate(-1787.008 -13349.909)" fill="#ff7fc3"/>
          </g>
          <g id="Group_13400" data-name="Group 13400" transform="translate(1.265 0.83)">
            <path id="Path_13737" data-name="Path 13737" d="M1822.076,13315.524l7.984-7.081-.814,10.556-2.221-1.076-10.711,19.56-6.1-4.046-17.291,31.658a.475.475,0,0,1-.623.2l-2.347-1.136,20.243-37.048,6.1,4.045,7.976-14.565Z" transform="translate(-1789.95 -13308.443)" fill="#ff51a2"/>
          </g>
          <g id="Group_13401" data-name="Group 13401" transform="translate(1.265 0.83)">
            <path id="Path_13738" data-name="Path 13738" d="M1810.193,13338.312l6.1,4.044,8.151-14.881-.175-.086-7.976,14.563-6.1-4.045-20.243,37.047.176.085Z" transform="translate(-1789.95 -13319.24)" fill="#ff3693"/>
            <path id="Path_13739" data-name="Path 13739" d="M1872.592,13308.879l.034-.436-7.984,7.081.3.144Z" transform="translate(-1832.515 -13308.443)" fill="#ff3693"/>
          </g>
        </g>
        <path id="Path_13740" data-name="Path 13740" d="M1861.473,13313.684l7.888-6.713,1.371.373-1.429-.829-7.984,7.08Z" transform="translate(-1829.356 -13306.515)" fill="#ffc9e6"/>
      </g>
      <g id="Group_13408" data-name="Group 13408" transform="translate(37.44 36.238)">
        <g id="Group_13407" data-name="Group 13407" style="isolation: isolate">
          <g id="Group_13404" data-name="Group 13404" transform="translate(0.181)">
            <path id="Path_13741" data-name="Path 13741" d="M1875.955,13372.032l-23.006,13.371-23.157-13.371,23.006-13.369Z" transform="translate(-1829.792 -13358.663)" fill="#ff7fc3"/>
          </g>
          <g id="Group_13405" data-name="Group 13405" transform="translate(23.157 13.37)">
            <path id="Path_13742" data-name="Path 13742" d="M1906.4,13389.747l-.181,23.141-23.006,13.369.181-23.141Z" transform="translate(-1883.209 -13389.747)" fill="#ff51a2"/>
          </g>
          <g id="Group_13406" data-name="Group 13406" transform="translate(0 13.37)">
            <path id="Path_13743" data-name="Path 13743" d="M1852.709,13403.116l-.181,23.141-23.157-13.369.181-23.141Z" transform="translate(-1829.371 -13389.747)" fill="#ff4198"/>
          </g>
        </g>
      </g>
      <g id="Group_13413" data-name="Group 13413" transform="translate(14.45 58.209)">
        <g id="Group_13412" data-name="Group 13412" style="isolation: isolate">
          <g id="Group_13409" data-name="Group 13409" transform="translate(0.181)">
            <path id="Path_13744" data-name="Path 13744" d="M1822.5,13423.111l-23.006,13.37-23.157-13.37,23.006-13.369Z" transform="translate(-1776.341 -13409.742)" fill="#0fe4ff"/>
          </g>
          <g id="Group_13410" data-name="Group 13410" transform="translate(23.157 13.37)">
            <path id="Path_13745" data-name="Path 13745" d="M1852.944,13440.826l-.181,14.592-23.006,13.371.181-14.594Z" transform="translate(-1829.757 -13440.826)" fill="#0fd3ff"/>
          </g>
          <g id="Group_13411" data-name="Group 13411" transform="translate(0 13.37)">
            <path id="Path_13746" data-name="Path 13746" d="M1799.258,13454.2l-.181,14.594-23.157-13.371.181-14.592Z" transform="translate(-1775.919 -13440.826)" fill="#00d1ff"/>
          </g>
        </g>
      </g>
    </g>
    <g id="Group_13431" data-name="Group 13431" transform="translate(1765.97 13312.789)">
      <g id="Group_13415" data-name="Group 13415" transform="translate(5.82 9.517)">
        <path id="Path_13747" data-name="Path 13747" d="M1864.349,13487.806h0a.359.359,0,0,0,.36-.358v-10.83h-.719v10.83A.359.359,0,0,0,1864.349,13487.806Z" transform="translate(-1863.99 -13476.617)" fill="#2f2f8e"/>
      </g>
      <g id="Group_13416" data-name="Group 13416" transform="translate(5.82 9.517)">
        <path id="Path_13748" data-name="Path 13748" d="M1864.349,13487.806h0a.359.359,0,0,0,.36-.358v-10.83h-.719v10.83A.359.359,0,0,0,1864.349,13487.806Z" transform="translate(-1863.99 -13476.617)" fill="#2f2f8e"/>
      </g>
      <g id="Group_13417" data-name="Group 13417" transform="translate(5.628 9.403)">
        <path id="Path_13749" data-name="Path 13749" d="M1868.786,13485.077h0a.36.36,0,0,0,.132-.491l-4.753-8.234-.622.358,4.752,8.235A.359.359,0,0,0,1868.786,13485.077Z" transform="translate(-1863.543 -13476.352)" fill="#2f2f8e"/>
      </g>
      <g id="Group_13418" data-name="Group 13418" transform="translate(1.474 9.403)">
        <path id="Path_13750" data-name="Path 13750" d="M1854.063,13484.716h0a.359.359,0,0,1-.131-.49l4.572-7.874.622.358-4.572,7.874A.359.359,0,0,1,1854.063,13484.716Z" transform="translate(-1853.884 -13476.352)" fill="#2f2f8e"/>
      </g>
      <g id="Group_13425" data-name="Group 13425" transform="translate(0 0)">
        <path id="Path_13751" data-name="Path 13751" d="M1859.657,13454.785a4.829,4.829,0,0,0-4.314.545c-3.149,1.818-5.305,6-4.816,9.344a4.005,4.005,0,0,0,2.274,3.3l.881.376a4,4,0,0,1-2.274-3.3c-.49-3.342,1.666-7.524,4.816-9.344a4.832,4.832,0,0,1,4.314-.545Z" transform="translate(-1850.458 -13454.491)" fill="#c94667"/>
        <g id="Group_13419" data-name="Group 13419" transform="translate(0.881 0.376)">
          <path id="Path_13752" data-name="Path 13752" d="M1857.391,13456.2c3.149-1.817,6.1-.583,6.589,2.761s-1.666,7.524-4.816,9.343-6.1.582-6.589-2.76S1854.241,13458.023,1857.391,13456.2Z" transform="translate(-1852.506 -13455.365)" fill="#f2f3ff"/>
        </g>
        <g id="Group_13424" data-name="Group 13424" transform="translate(0.881 0.376)">
          <g id="Group_13422" data-name="Group 13422" transform="translate(2.594 3.096)" style="isolation: isolate">
            <g id="Group_13420" data-name="Group 13420" transform="translate(2.421 2.889)">
              <path id="Path_13753" data-name="Path 13753" d="M1864.805,13469.392c.412-.237.8-.076.864.361a1.324,1.324,0,0,1-.631,1.225c-.412.238-.8.076-.864-.362A1.324,1.324,0,0,1,1864.805,13469.392Z" transform="translate(-1864.165 -13469.282)" fill="#f7567e"/>
            </g>
            <g id="Group_13421" data-name="Group 13421">
              <path id="Path_13754" data-name="Path 13754" d="M1861.225,13463.024c1.731-1,3.359-.318,3.628,1.519a5.569,5.569,0,0,1-2.652,5.145c-1.731,1-3.358.317-3.628-1.52A5.566,5.566,0,0,1,1861.225,13463.024Zm.777,5.3a3.3,3.3,0,0,0,1.569-3.045c-.159-1.088-1.122-1.49-2.147-.9a3.294,3.294,0,0,0-1.569,3.045c.159,1.087,1.122,1.49,2.147.9Z" transform="translate(-1858.536 -13462.563)" fill="#f7567e"/>
            </g>
          </g>
          <g id="Group_13423" data-name="Group 13423">
            <path id="Path_13755" data-name="Path 13755" d="M1857.39,13456.2c3.144-1.816,6.1-.578,6.589,2.758s-1.672,7.529-4.816,9.344-6.1.578-6.589-2.758S1854.246,13458.019,1857.39,13456.2Zm1.574,10.742a7.839,7.839,0,0,0,3.734-7.244c-.379-2.587-2.671-3.546-5.108-2.139a7.839,7.839,0,0,0-3.734,7.243c.379,2.587,2.671,3.547,5.108,2.14Z" transform="translate(-1852.506 -13455.366)" fill="#f7567e"/>
          </g>
        </g>
      </g>
      <g id="Group_13426" data-name="Group 13426" transform="translate(0.763 15.329)" opacity="0.2">
        <path id="Path_13756" data-name="Path 13756" d="M1857.759,13495.879a8.72,8.72,0,0,0,3.831-.8,3.676,3.676,0,0,0,1.232-.937,1.784,1.784,0,0,0,.431-1.13c0-.8-.6-1.535-1.688-2.079a9.581,9.581,0,0,0-7.671,0,3.672,3.672,0,0,0-1.232.938,1.781,1.781,0,0,0-.432,1.129c0,.8.6,1.536,1.688,2.08a8.792,8.792,0,0,0,3.84.8Z" transform="translate(-1852.231 -13490.131)"/>
      </g>
      <g id="Group_13430" data-name="Group 13430" transform="translate(6.527 7.344)">
        <path id="Path_13757" data-name="Path 13757" d="M1875.28,13477l-9.375-5.412a.183.183,0,0,0-.09-.023.18.18,0,0,0-.09.336l9.375,5.414a.181.181,0,0,0,.09.023.179.179,0,0,0,.156-.09A.182.182,0,0,0,1875.28,13477Z" transform="translate(-1865.634 -13471.566)" fill="#6b6fd4"/>
        <g id="Group_13429" data-name="Group 13429" transform="translate(9.144 5.015)">
          <g id="Group_13427" data-name="Group 13427" transform="translate(1.452 1.088)">
            <path id="Path_13758" data-name="Path 13758" d="M1891.121,13487.076l.339-.2-.812-1.124-.38.142Z" transform="translate(-1890.269 -13485.755)" fill="#de3c64"/>
          </g>
          <path id="Path_13759" data-name="Path 13759" d="M1887.476,13483.363l.612-.138,1.452.838-.339.2-1.452-.838-.857.194Z" transform="translate(-1886.892 -13483.226)" fill="#ff89a7"/>
          <g id="Group_13428" data-name="Group 13428" transform="translate(0 0.197)">
            <path id="Path_13760" data-name="Path 13760" d="M1887.749,13483.685l-.612.139-.245.056.244.337.609.844,1.452.838-.812-1.125-.04-.056.04-.01.816-.185Z" transform="translate(-1886.892 -13483.685)" fill="#f7567e"/>
          </g>
        </g>
      </g>
    </g>
    <g id="Group_13450" data-name="Group 13450" transform="translate(1780.053 13269.799)">
      <path id="Path_13761" data-name="Path 13761" d="M1886.085,13396.131c2.974.4,9.049,5.475,9.049,5.475l-.167,6.125.167-.133-.04,7.012c-1.877,1.449-3.778-2.205-3.6-4.111,0,0-.109-5.357-.345-6.547-.143-.721-3.9-2.2-6.164-3.861S1883.11,13395.736,1886.085,13396.131Z" transform="translate(-1883.388 -13378.22)" opacity="0.1"/>
      <g id="Group_13449" data-name="Group 13449" transform="translate(0)">
        <g id="Group_13448" data-name="Group 13448">
          <path id="Path_13762" data-name="Path 13762" d="M1907.546,13399.856a3.093,3.093,0,0,1-2.123,4.208c-2.466.611-2.823.6-3.189.479a1.739,1.739,0,0,1-.976-1.284,12.1,12.1,0,0,1,.569-2.923l3.458-1.061Z" transform="translate(-1893.483 -13380.035)" fill="#2b2b57"/>
          <path id="Path_13763" data-name="Path 13763" d="M1908.669,13428.7c-.143.482-.522,1.043-.27,1.325s.7.417,1.068.747a2.438,2.438,0,0,0,1.628.973c.947.092,1.394-.312,1.095-.687s-.866-.471-1.346-1.051-.78-.964-.74-1.3Z" transform="translate(-1897.513 -13396.804)" fill="#2b2b57"/>
          <path id="Path_13764" data-name="Path 13764" d="M1911.314,13430.008a2.317,2.317,0,0,0,.452.417c.284.581-.732.293-1.548-.171s-.855-1.383-1.081-1.554l1.435,0C1910.533,13429.044,1910.834,13429.428,1911.314,13430.008Z" transform="translate(-1897.982 -13396.804)" fill="#ff99a5"/>
          <path id="Path_13765" data-name="Path 13765" d="M1909.01,13405.322a2.082,2.082,0,0,1,0,1.148,23.543,23.543,0,0,0-.481,3.815c-.053,1.307.5,4.26.26,5a1.607,1.607,0,0,0,.893.405.469.469,0,0,0,.542-.4,48.594,48.594,0,0,1,.779-4.822c.436-1.751.949-5.31.949-5.31Z" transform="translate(-1897.633 -13383.385)" fill="#ff99a5"/>
          <path id="Path_13766" data-name="Path 13766" d="M1910.262,13402.2c-.031-.756.19-1.561-.533-2.027l-.907-.2-2.58.539-.681,1.51s1.537.338,1.832.859Z" transform="translate(-1895.943 -13380.434)" fill="#ff99a5"/>
          <g id="Group_13432" data-name="Group 13432" transform="translate(8.343 21.05)">
            <path id="Path_13767" data-name="Path 13767" d="M1902.6,13404.5a6.464,6.464,0,0,1,.4,2.46,11.155,11.155,0,0,0-.115,2.51c.107,1.261,1.431,5.621,1.469,6.374,0,0,.7.618,1.576-.258,0,0-.206-4.1-.145-5.628s-.024-3.343-.024-3.343a5.731,5.731,0,0,0-.129-2.242l-.644-.887Z" transform="translate(-1902.598 -13403.481)" fill="#ffb1d0"/>
          </g>
          <path id="Path_13768" data-name="Path 13768" d="M1904.148,13404.656c-.037-.83.127-1.256-.59-1.848s-2.142.176-2.579.861a4.339,4.339,0,0,0-.563,1.439,1.385,1.385,0,0,1,1.321,1.107Z" transform="translate(-1893.011 -13381.928)" fill="#ffb1d0"/>
          <path id="Path_13769" data-name="Path 13769" d="M1890.667,13387.03a5.179,5.179,0,0,1,1.052,2.567s5,1.568,6.273,3.28c0,0-.481-.226-1.129.393s-.415,1.292-.929,1.322-1.191-.919-2.1-.445-2.02,1.7-1.86,2.362a2.017,2.017,0,0,0,.7,1.056,1.007,1.007,0,0,1-.783-.555c-.323-.548-.429-.624-1.422-.858s-6.61-1.727-5.942-6.229c.119-.8.907-2.645,1.613-2.764S1890.667,13387.03,1890.667,13387.03Z" transform="translate(-1883.928 -13373.057)" fill="#2b2b57"/>
          <g id="Group_13446" data-name="Group 13446" transform="translate(2.824 15.328)">
            <g id="Group_13435" data-name="Group 13435" transform="translate(0.001 1.247)">
              <g id="Group_13434" data-name="Group 13434" style="isolation: isolate">
                <g id="Group_13433" data-name="Group 13433">
                  <path id="Path_13770" data-name="Path 13770" d="M1894.9,13400.491l7.662-4.452-5.13-2.963-7.662,4.453Z" transform="translate(-1889.769 -13393.076)" fill="#c2c8ff"/>
                </g>
              </g>
            </g>
            <g id="Group_13438" data-name="Group 13438" transform="translate(3.39 2.555)">
              <g id="Group_13437" data-name="Group 13437" style="isolation: isolate">
                <g id="Group_13436" data-name="Group 13436">
                  <path id="Path_13771" data-name="Path 13771" d="M1898.941,13398.324l2.491-1.458-1.293-.748-2.491,1.458Z" transform="translate(-1897.648 -13396.118)" fill="#d9ddff"/>
                </g>
              </g>
            </g>
            <g id="Group_13441" data-name="Group 13441" transform="translate(1.741 2.226)">
              <g id="Group_13440" data-name="Group 13440" style="isolation: isolate">
                <g id="Group_13439" data-name="Group 13439">
                  <path id="Path_13772" data-name="Path 13772" d="M1897.2,13401.788l7.662-4.452-3.391-1.982-7.662,4.453Z" transform="translate(-1893.813 -13395.354)" fill="#7a7ea1"/>
                </g>
              </g>
            </g>
            <g id="Group_13442" data-name="Group 13442" transform="translate(0 4.453)">
              <path id="Path_13773" data-name="Path 13773" d="M1896.768,13400.53l-1.871,4.208-5.13-2.961v.442l5.39,3.112,1.969-4.429Z" transform="translate(-1889.766 -13400.53)" fill="#9ca2cf"/>
            </g>
            <g id="Group_13443" data-name="Group 13443" transform="translate(5.39 0.372)">
              <path id="Path_13774" data-name="Path 13774" d="M1902.3,13399.926l7.662-4.453,1.969-4.43-7.662,4.453Z" transform="translate(-1902.297 -13391.043)" fill="#abb2e3"/>
            </g>
            <g id="Group_13444" data-name="Group 13444" transform="translate(9.759 4.117)">
              <path id="Path_13775" data-name="Path 13775" d="M1912.822,13400.871l.871-.506a.239.239,0,0,0,.1-.111l.071-.16a.243.243,0,0,0-.345-.309l-.871.506a.242.242,0,0,0-.1.111l-.071.16A.243.243,0,0,0,1912.822,13400.871Z" transform="translate(-1912.455 -13399.751)" fill="#bac2f7"/>
            </g>
            <g id="Group_13445" data-name="Group 13445" transform="translate(7.002)">
              <path id="Path_13776" data-name="Path 13776" d="M1906.4,13395l7.662-4.453-.357-.372-7.662,4.453Z" transform="translate(-1906.045 -13390.178)" fill="#bac2f7"/>
            </g>
          </g>
          <path id="Path_13777" data-name="Path 13777" d="M1889.24,13364.2s-.11.155-.517-.006-.937-1.2-.589-1.512.531-.065.794.226Z" transform="translate(-1885.948 -13359.097)" fill="#ffb1d0"/>
          <path id="Path_13778" data-name="Path 13778" d="M1888.991,13363.283s-.207-.264-.388-.17-.275.176-.181.488C1888.422,13363.6,1888.553,13362.982,1888.991,13363.283Z" transform="translate(-1886.155 -13359.414)" fill="#ff8996"/>
          <path id="Path_13779" data-name="Path 13779" d="M1915.4,13388.879a8.147,8.147,0,0,1,1.5.676l.062.061a1.264,1.264,0,0,0-.77.066,2.191,2.191,0,0,0-1.03.639s-.164-.217-.279-.211-.109.355-.109.355.193.482.109.674-.174.121-.239.084-.123-.314-.22-.393a1.357,1.357,0,0,1-.194-.76l.006-.283-.011-.373a.845.845,0,0,1,.554-.752C1915.038,13388.574,1915.4,13388.879,1915.4,13388.879Z" transform="translate(-1900.884 -13373.978)" fill="#ff99a5"/>
          <path id="Path_13780" data-name="Path 13780" d="M1918.208,13390.806a6.2,6.2,0,0,1,.408.777,2.107,2.107,0,0,1-.2.692c-.068.094-.178.12-.172.08l.006-.039s0,.214-.131.258-.134-.117-.134-.117.035.264-.122.27-.241-.219-.241-.219.059.207-.077.219a.318.318,0,0,1-.35-.192,4.869,4.869,0,0,0-.466-.8,1.453,1.453,0,0,0-.318-.225,1.137,1.137,0,0,1,.894-.705C1918.038,13390.646,1918.208,13390.806,1918.208,13390.806Z" transform="translate(-1902.125 -13375.168)" fill="#ff99a5"/>
          <path id="Path_13781" data-name="Path 13781" d="M1892.884,13403.559a2.665,2.665,0,0,0,.806.547c.308.074.8.3.874.207l.076-.092s.33.17.418.076l.088-.092a.2.2,0,0,0,.265-.053.54.54,0,0,0,.016-.387s.229-.057.237-.146a13.311,13.311,0,0,0-.769-1.248A3.186,3.186,0,0,0,1892.884,13403.559Z" transform="translate(-1888.719 -13381.799)" fill="#ff8996"/>
          <path id="Path_13782" data-name="Path 13782" d="M1893.915,13399.95a6.631,6.631,0,0,1,.764.1c.274.064.461.478.673.525s.372.417.441.488-.2.227-.476,0a4.487,4.487,0,0,0-.952-.464Z" transform="translate(-1889.307 -13380.419)" fill="#ff8996"/>
          <path id="Path_13783" data-name="Path 13783" d="M1890.363,13399.845l.184.539a10.12,10.12,0,0,0,.9,1.381s.671-.459,1.04-.686.971-.5.971-.5a5.225,5.225,0,0,0-.764-.632,9.967,9.967,0,0,0-.883-.464l-.29-.258a2.157,2.157,0,0,0-.883.159A.542.542,0,0,0,1890.363,13399.845Z" transform="translate(-1887.282 -13380.005)" fill="#ffb1d0"/>
          <path id="Path_13784" data-name="Path 13784" d="M1908.256,13431.612a6.1,6.1,0,0,0,2.06,2.274c.909.6.529,1.093-.162,1.418a1.9,1.9,0,0,1-1.866-.453c-.5-.346-.581-.829-1.017-1.4a2.092,2.092,0,0,1-.59-1.581Z" transform="translate(-1896.581 -13398.462)" fill="#2b2b57"/>
          <path id="Path_13785" data-name="Path 13785" d="M1897.345,13368.668c.985-.4,1.379.08,1.865,1.014s1.667,3.707,1.989,4.348.116,1.33-.48,1.356-.781-.194-1.2-.876S1896.159,13369.153,1897.345,13368.668Z" transform="translate(-1891.101 -13362.511)" fill="#ff99a5"/>
          <path id="Path_13786" data-name="Path 13786" d="M1904.119,13380.057a11.171,11.171,0,0,1,2.478,1.584c.812.652,2.822,2.344,2.822,2.344a.848.848,0,0,1-.966.654s-1.951-1.132-3.034-1.744a6.98,6.98,0,0,1-1.685-1.3Z" transform="translate(-1894.902 -13369.082)" fill="#ff99a5"/>
          <path id="Path_13787" data-name="Path 13787" d="M1887.52,13367.34a21.121,21.121,0,0,1-1.855,1.953c-.576.45-.883,1.776-.34,3.35a16.3,16.3,0,0,1,.825,3.033,1.35,1.35,0,0,0,1.061,1.149,6.8,6.8,0,0,0,2.493.083,2.141,2.141,0,0,0,1.526-1.159,19.7,19.7,0,0,1,.614-2.573c.218-.41,1.251-1.107.945-2.181a9.666,9.666,0,0,0-1.222-2.227c-.223-.47-.123-1.249-.428-1.587s-.935-.429-2.05-.261A5.133,5.133,0,0,0,1887.52,13367.34Z" transform="translate(-1884.25 -13361.55)" fill="#ffdc9a"/>
          <path id="Path_13788" data-name="Path 13788" d="M1887.4,13378.115a21.187,21.187,0,0,0-.443,3.234,2.468,2.468,0,0,0,.745,1.9,1.35,1.35,0,0,1-1.061-1.15,15.143,15.143,0,0,0-.739-2.782Z" transform="translate(-1884.738 -13367.976)" fill="#ffc23f"/>
          <path id="Path_13789" data-name="Path 13789" d="M1897.953,13360.072a7.591,7.591,0,0,1,.166,2.1c-.068,1.178-.2,2.664-.685,3.105-.151.139.055-.307-.289-.857a4.208,4.208,0,0,0-.721-.875l.459-3.572Z" transform="translate(-1890.737 -13357.635)" fill="#7d490f"/>
          <path id="Path_13790" data-name="Path 13790" d="M1885.807,13375.984c.049-1.373-.737-1.777-1.173-1.766s-.894.018-.954,1-.521,3.516-.476,4.548.047,2.512.75,2.471,1.031-.271,1.179-1.63S1885.782,13376.7,1885.807,13375.984Z" transform="translate(-1883.201 -13365.756)" fill="#ffb1d0"/>
          <path id="Path_13791" data-name="Path 13791" d="M1883.817,13388.392c-.482.263-.416,1-.168,1.533s2.646,3.534,3.082,4.065c0,0,.255.284.742-.02s.428-.677.428-.677-1.648-2.659-2.212-3.582S1884.554,13387.989,1883.817,13388.392Z" transform="translate(-1883.348 -13373.771)" fill="#ffb1d0"/>
          <path id="Path_13792" data-name="Path 13792" d="M1891.72,13369.245a2.552,2.552,0,0,1-.056,2.8,7.46,7.46,0,0,1-2.083-.6,2.279,2.279,0,0,1-1.227-1.562Z" transform="translate(-1886.138 -13362.921)" fill="#ff8996"/>
          <path id="Path_13793" data-name="Path 13793" d="M1892.9,13367.54a3.678,3.678,0,0,0-.145.788,1.239,1.239,0,0,0,.073.517,1.628,1.628,0,0,1-1.744.143c-1.018-.488-.611-1.242-.611-1.242s.136-.188.064-1.12Z" transform="translate(-1887.296 -13361.428)" fill="#ff8996"/>
          <circle id="Ellipse_271" data-name="Ellipse 271" cx="2.477" cy="2.477" r="2.477" transform="translate(1.933 0.416)" fill="#ffb1d0"/>
          <path id="Path_13794" data-name="Path 13794" d="M1888.745,13358.164a19.585,19.585,0,0,0-.24,3.178c.068,1.2.361,1.545.24,1.6a4.27,4.27,0,0,1-2.139-1.49c-.506-.846-.32-2.443-.37-3.49s.625-3.082,1.963-3.35a3.433,3.433,0,0,1,2.33.35l-1.783,2.477Z" transform="translate(-1884.929 -13354.541)" fill="#a35f14"/>
          <path id="Path_13795" data-name="Path 13795" d="M1894.025,13361.6a7.309,7.309,0,0,1-.418,2.553c-.237.5-.3.844-.471.934a1.277,1.277,0,0,1-.647.066,6.34,6.34,0,0,1-1.979-1.115,2.6,2.6,0,0,1-.4-1.223Z" transform="translate(-1887.138 -13358.566)" fill="#ffb1d0"/>
          <path id="Path_13796" data-name="Path 13796" d="M1896.342,13363.613s.26,1.006.323,1.1-.148.227-.259.259a1.138,1.138,0,0,1-.461-.023.371.371,0,0,0,.36.222.538.538,0,0,0,.465-.336C1896.78,13364.745,1896.342,13363.613,1896.342,13363.613Z" transform="translate(-1890.464 -13359.712)" fill="#ff8996"/>
          <path id="Path_13797" data-name="Path 13797" d="M1889.187,13364.423s-.11.155-.518,0-.937-1.2-.589-1.512.531-.065.794.226Z" transform="translate(-1885.917 -13359.226)" fill="#ffb1d0"/>
          <path id="Path_13798" data-name="Path 13798" d="M1888.96,13363.387s-.206-.262-.388-.168-.275.175-.182.487C1888.391,13363.706,1888.523,13363.088,1888.96,13363.387Z" transform="translate(-1886.138 -13359.475)" fill="#ff8996"/>
          <path id="Path_13799" data-name="Path 13799" d="M1891.507,13356.043a1.14,1.14,0,0,1,1.323,1.054,1.877,1.877,0,0,1-.986,1.961,3.324,3.324,0,0,0-1.376,1.106c-.267.431-.459-.3-.531-1.231S1889.248,13356.134,1891.507,13356.043Z" transform="translate(-1886.965 -13355.396)" fill="#a35f14"/>
          <path id="Path_13800" data-name="Path 13800" d="M1893.821,13355.664a1.082,1.082,0,0,1,.914-.623,2.061,2.061,0,0,1,2.055,1.65,1.936,1.936,0,0,1-.786,2.408,2.167,2.167,0,0,0-.514-1.754c-.681-.578-.937-.475-.937-.475Z" transform="translate(-1889.253 -13354.824)" fill="#a35f14"/>
          <path id="Path_13801" data-name="Path 13801" d="M1894.03,13355.507a1.066,1.066,0,0,1,.823-.466,2.061,2.061,0,0,1,2.055,1.65s-.507-1.186-1.431-1.388a1.81,1.81,0,0,0-1.447.2Z" transform="translate(-1889.372 -13354.824)" fill="#cc7719"/>
          <path id="Path_13802" data-name="Path 13802" d="M1891.507,13356.043a1.14,1.14,0,0,1,1.323,1.054,1.877,1.877,0,0,1-.986,1.961,3.324,3.324,0,0,0-1.376,1.106c-.267.431-.459-.3-.531-1.231S1889.248,13356.134,1891.507,13356.043Z" transform="translate(-1886.965 -13355.396)" fill="#a35f14"/>
          <path id="Path_13803" data-name="Path 13803" d="M1889.813,13357.838l-.005-.276c.018-.757.33-1.464,1.7-1.519a1.14,1.14,0,0,1,1.323,1.054,1.215,1.215,0,0,0-1.087-.846A1.782,1.782,0,0,0,1889.813,13357.838Z" transform="translate(-1886.966 -13355.396)" fill="#cc7719"/>
          <path id="Path_13804" data-name="Path 13804" d="M1908.908,13432.616h0a7.453,7.453,0,0,0,.582.609c.3.35.488.7.068.87a1.44,1.44,0,0,1-1.655-.2,5.827,5.827,0,0,1-1.222-1.973c0-.019,0-.037,0-.055l1.575-.258A3.793,3.793,0,0,0,1908.908,13432.616Z" transform="translate(-1896.581 -13398.462)" fill="#ffb1d0"/>
          <g id="Group_13447" data-name="Group 13447" transform="translate(4.694 10.442)">
            <path id="Path_13805" data-name="Path 13805" d="M1895.984,13380.531a2.979,2.979,0,0,0,1.89-.785c-.24.332-.526.59-.629.785a19.676,19.676,0,0,0-.614,2.572,1.676,1.676,0,0,1-.129.227c.2-.359-.293-1.42-.606-1.711-.247-.232-1.025-.209-1.376-.187C1895.316,13381.32,1895.48,13380.6,1895.984,13380.531Z" transform="translate(-1894.346 -13379.348)" fill="#ffc23f"/>
            <path id="Path_13806" data-name="Path 13806" d="M1894.289,13383.666c-.056.006-.114.012-.176.014C1894.113,13383.68,1894.181,13383.672,1894.289,13383.666Z" transform="translate(-1894.113 -13381.582)" fill="#e3b63d"/>
            <path id="Path_13807" data-name="Path 13807" d="M1902.865,13378.819Z" transform="translate(-1899.1 -13378.819)" fill="#e3b63d"/>
            <path id="Path_13808" data-name="Path 13808" d="M1899.018,13388.191c-.009.008,0,0,.021-.027Z" transform="translate(-1896.906 -13384.146)" fill="#e3b63d"/>
          </g>
        </g>
      </g>
    </g>
    <path id="Path_13809" data-name="Path 13809" d="M1835.724,13300.6c2.422,1.443,5.268,2.166,5.225,4.588s-1.4,4.119-2.889,3.822-3.653-5.777-5.437-6.244-5.353.51-5.353-1.273,2.039-1.572,4.12-2.125S1835.724,13300.6,1835.724,13300.6Z" transform="translate(-71.274 -53.239)" opacity="0.2"/>
    <g id="Group_13453" data-name="Group 13453" transform="translate(1752.193 13205.837)">
      <path id="Path_13810" data-name="Path 13810" d="M1819.3,13210.413a5.424,5.424,0,0,1-.559-1.618c.084-.3,1.74-.975,1.74-.975a6.581,6.581,0,0,1-.128-1.691c.109-.438.376-.335.472,0s.3,1.5.39,1.911a6.322,6.322,0,0,1,.1,1.061l-.441,1.355-.584.35Z" transform="translate(-1818.603 -13205.837)" fill="#ff8996"/>
      <path id="Path_13811" data-name="Path 13811" d="M1819.256,13211.748c-.161.055-.774-.537-.826-.789s.744-.742,1.058-.953.649-.3.794-.074a1.893,1.893,0,0,1-.011,1.008A2.457,2.457,0,0,1,1819.256,13211.748Z" transform="translate(-1818.427 -13208.095)" fill="#ffa6af"/>
      <path id="Path_13812" data-name="Path 13812" d="M1822.714,13213.086a2.623,2.623,0,0,0,.6-.676,2.56,2.56,0,0,0,.05-1.082.816.816,0,0,0-.639-.707s-.673.377-.839.432.124.52.443.43.468-.123.468-.123l-.052.3s-1.345.48-.993,1.59l.23.275Z" transform="translate(-1820.286 -13208.563)" fill="#ffb1d0"/>
      <path id="Path_13813" data-name="Path 13813" d="M1829.608,13220.23a3.959,3.959,0,0,0-2.784.147,39.928,39.928,0,0,1-4.122.264s-.591-1.095-.811-1.605a6.314,6.314,0,0,1-.223-1.729c-.037-.338-.472-.2-.472-.2s-1.359-.175-1.569.185-.014.442-.065.9-.079,3.033.733,4.186c.244.345.726.563,2.063.893s4.65,1.285,5.58.527S1829.608,13220.23,1829.608,13220.23Z" transform="translate(-1819.054 -13212.236)" fill="#37376e"/>
      <path id="Path_13814" data-name="Path 13814" d="M1821.792,13216.765l-.066-.413a1.758,1.758,0,0,1-1.728.053l-.042.475A1.961,1.961,0,0,0,1821.792,13216.765Z" transform="translate(-1819.298 -13211.829)" fill="#d4dcff"/>
      <g id="Group_13451" data-name="Group 13451" transform="translate(4.953 1.623)">
        <path id="Path_13815" data-name="Path 13815" d="M1852.252,13307.908a10.6,10.6,0,0,0-.239,1.639c.025.41.22.857.239,1.268s-.429,2.088.371,2.654,1.608-.521,1.795-.957-.207-1.19-.176-2.224.078-2.673.078-2.673Z" transform="translate(-1842.519 -13265.461)" fill="#7d3d0b"/>
        <path id="Path_13816" data-name="Path 13816" d="M1833.089,13300.49a18.627,18.627,0,0,1-1.951.6c-.814.178-1.084.33-1.186.734s.576.5,1.3.406,1.845-.145,2.513-.176c.426-.02,1.054-.1,1.453-.156a.369.369,0,0,0,.313-.432l-.113-.639Z" transform="translate(-1829.942 -13261.401)" fill="#7d3d0b"/>
        <path id="Path_13817" data-name="Path 13817" d="M1838.1,13251.326a7.4,7.4,0,0,0-.838,3.834c.007,2.539.243,7.414.243,7.414a9,9,0,0,0-.131,1.75c.078.439.4,1.645.4,1.645l-.194,5.7-.317.8a1.189,1.189,0,0,0,.93.6,6.353,6.353,0,0,0,1.622,0v-2.129a20.784,20.784,0,0,0,.92-4.971c0-2.051.036-2.8.036-2.8l1.041-7.318-.2-3.535Z" transform="translate(-1834.112 -13233.384)" fill="#2b2b57"/>
        <path id="Path_13818" data-name="Path 13818" d="M1843.175,13253.873a17.742,17.742,0,0,0,.244,3.737c.292.45.973,1.525.973,1.525s.479,4.1,1.252,5.446a11.242,11.242,0,0,0,.919,2.723s.456,7.041.412,7.875a13.291,13.291,0,0,0,0,1.452,2.016,2.016,0,0,0,1.011.908c.689.254,1.377-.763,1.813-1.271v-2.424s.932-5.016.318-6.614a5.769,5.769,0,0,1-.408-1.5c-.018-.565-.133-7.971-.133-7.971s.857-3.166-.8-5.123Z" transform="translate(-1837.482 -13234.128)" fill="#2b2b57"/>
        <path id="Path_13819" data-name="Path 13819" d="M1855.371,13275.9s.5-2.615.5-3.3-.948-1.781-1.137-2.047.228-1.137.3-1.774-.3-6.564,0-7.264,1.016-2.164,1.016-2.164l.114.021a8.015,8.015,0,0,1-.214,2.211s.114,7.405.133,7.971a5.769,5.769,0,0,0,.408,1.5c.614,1.6-.318,6.614-.318,6.614v2.424c-.436.509-1.125,1.524-1.813,1.271l1.006-3.059Z" transform="translate(-1843.86 -13237.959)" fill="#444487"/>
        <path id="Path_13820" data-name="Path 13820" d="M1842.324,13224.278c-2.336-.582-3.352-.395-3.706.327a2.86,2.86,0,0,0,.025,2.463,6.2,6.2,0,0,0-.113,2.157c.147,1.2.6,4.385.624,5.079s-.2,1.2-.049,1.551a2.643,2.643,0,0,0,1.47,1.438c.934.378,3.735.909,4.832.008s.359-1.414.444-2.747,2.189-3.095,2.04-5.2S1844.7,13224.872,1842.324,13224.278Z" transform="translate(-1834.735 -13217.774)" fill="#d4dcff"/>
        <path id="Path_13821" data-name="Path 13821" d="M1843.032,13233.584s-.43.232-.61,1.416-.606,6.16-.606,6.16a5.6,5.6,0,0,0,.615,1.174c.121.007.8-.76.8-.76s.076-4,.139-5.211a11.075,11.075,0,0,1,.49-2.5Z" transform="translate(-1836.709 -13223.272)" fill="#f7567e"/>
        <circle id="Ellipse_272" data-name="Ellipse 272" cx="2.734" cy="2.734" r="2.734" transform="translate(5.849 1.084)" fill="#ffb1d0"/>
        <path id="Path_13822" data-name="Path 13822" d="M1845.434,13225.4a3.237,3.237,0,0,1,0,.785,3.734,3.734,0,0,1-.18.64,1.3,1.3,0,0,0,1.266.65c.957-.029,1.957-.653,1.99-1.288a6.456,6.456,0,0,1,.042-1.81l-.12-.276Z" transform="translate(-1838.669 -13217.867)" fill="#ff8996"/>
        <path id="Path_13823" data-name="Path 13823" d="M1839.484,13234.255a26.379,26.379,0,0,1-.113,4.432c-.179.858-.91,1.039-1.264.762a2.283,2.283,0,0,1-.86-1.989c.141-.933.654-2.565.667-3s-.252-2.714-.428-4.491a12.324,12.324,0,0,1,.171-4.906,1.531,1.531,0,0,1,1.7-1.163c.5.028,1.869.215,1.869.215l-.787,1.271-.917,2.235-.41,2.867Z" transform="translate(-1834.094 -13217.749)" fill="#46468c"/>
        <path id="Path_13824" data-name="Path 13824" d="M1838.7,13253a.617.617,0,0,0,.423.2v.486a1.185,1.185,0,0,1-.484-.182Z" transform="translate(-1834.9 -13234.34)" fill="#37376e"/>
        <path id="Path_13825" data-name="Path 13825" d="M1843.516,13218.525a8.067,8.067,0,0,0,.313,2.839c.232.563.285.948.465,1.056a1.906,1.906,0,0,0,.783.324,7.341,7.341,0,0,0,2.181-1.2,2.873,2.873,0,0,0,.512-1.325Z" transform="translate(-1837.672 -13214.691)" fill="#ffb1d0"/>
        <path id="Path_13826" data-name="Path 13826" d="M1845.289,13220.271s-.36,1.38-.436,1.5.146.322.267.372a.975.975,0,0,0,.51,0,.433.433,0,0,1-.412.287.637.637,0,0,1-.488-.5C1844.724,13221.814,1845.289,13220.271,1845.289,13220.271Z" transform="translate(-1838.369 -13215.686)" fill="#ff8996"/>
        <path id="Path_13827" data-name="Path 13827" d="M1846.148,13228.16s2.258-.7,2.827-1.732a2.082,2.082,0,0,1,.037-.717s.133.236.32.54a1.106,1.106,0,0,1,.118,1.022,6.268,6.268,0,0,1-2.521,2.582s.068-1.192-.144-1.351A4.221,4.221,0,0,0,1846.148,13228.16Z" transform="translate(-1839.177 -13218.786)" fill="#ebeeff"/>
        <path id="Path_13828" data-name="Path 13828" d="M1844.511,13229.227a2.1,2.1,0,0,1-.252-.945,1.122,1.122,0,0,0,.078-.344,1.445,1.445,0,0,0,0-.27l-.17-.088a2.037,2.037,0,0,0-.843,1.51l-.045.852s.477-.809.773-.83A.7.7,0,0,1,1844.511,13229.227Z" transform="translate(-1837.541 -13219.852)" fill="#ebeeff"/>
        <path id="Path_13829" data-name="Path 13829" d="M1844.824,13231.141a3.421,3.421,0,0,0-.185,1.05.661.661,0,0,0,.267.206c.142.044.4.154.566.078s.453-.877.453-.877A2.313,2.313,0,0,0,1844.824,13231.141Z" transform="translate(-1838.316 -13221.88)" fill="#f7567e"/>
        <path id="Path_13830" data-name="Path 13830" d="M1847.666,13238.989s.452.517.733.529,1.137.175,1.137.175l-.151.749.056,1.066a3.574,3.574,0,0,1-1.162.3c-.419-.021-.723-.74-.723-.74l.087-1.655Z" transform="translate(-1839.98 -13226.353)" fill="#abc2fe"/>
        <path id="Path_13831" data-name="Path 13831" d="M1853.821,13214.744a.869.869,0,0,1,.766.58,1.459,1.459,0,0,1-.086,1.65,21.358,21.358,0,0,0-1.549,2.01c-.181.422-.2.809-.494.82l.062-.811.28-1.437-.515-1.285Z" transform="translate(-1842.675 -13212.536)" fill="#e3b63d"/>
        <path id="Path_13832" data-name="Path 13832" d="M1852.51,13222.181s.113.177.571.023,1.1-1.269.736-1.632-.581-.1-.888.2Z" transform="translate(-1842.803 -13215.757)" fill="#ffb1d0"/>
        <path id="Path_13833" data-name="Path 13833" d="M1853.848,13221.2s.243-.279.437-.164.293.209.172.547C1854.457,13221.58,1854.348,13220.891,1853.848,13221.2Z" transform="translate(-1843.566 -13216.104)" fill="#ff8996"/>
        <path id="Path_13834" data-name="Path 13834" d="M1842.412,13236.635a21.889,21.889,0,0,0,.115,4.145,3.94,3.94,0,0,0,.6,1.854,4.97,4.97,0,0,0,3.21.347,6.789,6.789,0,0,0,2.879-1.827.984.984,0,0,0,.1-.979,22.761,22.761,0,0,1-.467-3.2c-.048-.717,1.691-3.61,1.3-5.489a6.942,6.942,0,0,0-2.484-3.413l-1.41,2.948-3.357,4.547Z" transform="translate(-1837.022 -13220.13)" fill="#46468c"/>
        <path id="Path_13835" data-name="Path 13835" d="M1847.695,13254.531a3.59,3.59,0,0,0,1.494.26,3.1,3.1,0,0,0,1.3-.605v.617a2.1,2.1,0,0,1-1.3.572,5.6,5.6,0,0,1-1.544-.285Z" transform="translate(-1840.031 -13235.013)" fill="#37376e"/>
        <path id="Path_13836" data-name="Path 13836" d="M1846.983,13226.217a1.5,1.5,0,0,1,.164,1.429c-.269.97-1.617,2.409-2.634,3.987s-1.95,2.971-2.038,3.85a16.012,16.012,0,0,1,2.4-2.75c1.221-1.017,2.571-1.918,2.571-1.918a3.608,3.608,0,0,0-.754-.973s.994.035,1.3.052a4.966,4.966,0,0,0,.321-2.2,3.232,3.232,0,0,0-1.186-1.649Z" transform="translate(-1837.084 -13218.978)" fill="#5b5bb5"/>
        <path id="Path_13837" data-name="Path 13837" d="M1842.457,13226.743a6.171,6.171,0,0,0-1.122,2.655,48.655,48.655,0,0,0-.11,6.122,9.879,9.879,0,0,1-.816-2.919,25.287,25.287,0,0,1-.09-3.9l.882-.129-.7-.857a6.648,6.648,0,0,1,1.652-1.6Z" transform="translate(-1835.834 -13219.016)" fill="#5b5bb5"/>
        <path id="Path_13838" data-name="Path 13838" d="M1842.678,13212.351a1.1,1.1,0,0,1-.224-1.093.623.623,0,0,1,.69-.439.686.686,0,0,1,.446-.665,1.9,1.9,0,0,1,.981-.136s-.126-.184.277-.328a.872.872,0,0,1,.953.15,5.206,5.206,0,0,0,.907.7c.289.118.855.134,1.167.526a1.264,1.264,0,0,1,.3.754s.131,1.263-1.536,1.525Z" transform="translate(-1837.029 -13209.612)" fill="#ffd461"/>
        <path id="Path_13839" data-name="Path 13839" d="M1847.454,13216.882l-.213.716s-.469.043-.5-.617a2.462,2.462,0,0,0-.26-1.05s-1.171-.14-1.787-.295a4.757,4.757,0,0,1-1.267-.6l-.279,1.136a2.049,2.049,0,0,1-.155-.867,6.76,6.76,0,0,0-.089-1.058c0-.19.017-.358.17-.4s.349.358.477.431c0,0-.127-.638.064-.694a.433.433,0,0,1,.526.216,1.943,1.943,0,0,0,.677.452s-.082-.3.053-.35.214,0,.382.239a2.287,2.287,0,0,0,1,.607c.37.123,1,.591.69.848a.568.568,0,0,1,.409.464C1847.4,13216.44,1847.454,13216.882,1847.454,13216.882Z" transform="translate(-1837.328 -13211.862)" fill="#cca437"/>
        <path id="Path_13840" data-name="Path 13840" d="M1841.765,13213.813c.4.072,1,.154,1.226.2a3.2,3.2,0,0,0-.878-.4A.432.432,0,0,0,1841.765,13213.813Z" transform="translate(-1836.68 -13211.889)" fill="#e3b63d"/>
        <path id="Path_13841" data-name="Path 13841" d="M1844.981,13211.9a2.667,2.667,0,0,1,.956.357l.423.281h0a2.63,2.63,0,0,0-.79-.664C1845.2,13211.725,1845.027,13211.771,1844.981,13211.9Z" transform="translate(-1838.512 -13210.848)" fill="#e3b63d"/>
        <path id="Path_13842" data-name="Path 13842" d="M1852.285,13215.416c1.667-.263,1.536-1.526,1.536-1.526a1.035,1.035,0,0,0-.073-.354h0c-.13-.269-.5-.278-.723-.289s.288.5.348.856-.312.694-.312.694a.865.865,0,0,0,.022-.422c-.045-.238-.559-.349-.5-.161s.268.371.2.707S1852.285,13215.416,1852.285,13215.416Z" transform="translate(-1842.675 -13211.684)" fill="#ffc630"/>
        <path id="Path_13843" data-name="Path 13843" d="M1841.937,13281.865s.562-4.51.531-4.723a8.1,8.1,0,0,1,.372-1.393,2.358,2.358,0,0,1-.278-1.047c.064-.381,1.337-3.484,1.337-3.484l-.467,3.285s-.037.748-.036,2.8a20.8,20.8,0,0,1-.92,4.971v2.129Z" transform="translate(-1836.778 -13244.721)" fill="#444487"/>
      </g>
      <g id="Group_13452" data-name="Group 13452" transform="translate(16.275 4.647)">
        <path id="Path_13844" data-name="Path 13844" d="M1868.01,13221.182a9.61,9.61,0,0,0,.294-1.009c.092-.438-.407-1.217-.407-1.217l-.508-.1Z" transform="translate(-1862.605 -13217.905)" fill="#ff8996"/>
        <path id="Path_13845" data-name="Path 13845" d="M1863.526,13217.4c-.1-.456-.648-.577-1.034-.716s-.47.1-.47.1a.6.6,0,0,0-.575-.066.348.348,0,0,0-.219.354.484.484,0,0,0-.335.149.251.251,0,0,0-.053.356s-.413.021-.534.324a1.956,1.956,0,0,0-.067,1.052,1.147,1.147,0,0,0,.5.465,3.138,3.138,0,0,0,.635-.272Z" transform="translate(-1858.505 -13216.643)" fill="#ffb1d0"/>
        <path id="Path_13846" data-name="Path 13846" d="M1857.662,13233.315c1.376.568,3.286,2.372,4.238,3.123s2.28.79,1.361,2.828c-.369.817-.943.852-2.223.363s-4.38-2.3-4.694-3.476S1856.7,13232.918,1857.662,13233.315Z" transform="translate(-1856.266 -13226.116)" fill="#46468c"/>
        <path id="Path_13847" data-name="Path 13847" d="M1866,13225.762s-.4.96-2.052.721c-.459-.065-.32.593-.257.89s.574,3.178.7,4.449-.076,4.681,2.9,3.581c1.366-.506,1.025-2.23.4-4.087s-1.176-4.768-1.352-5.2S1866,13225.762,1866,13225.762Z" transform="translate(-1860.457 -13221.836)" fill="#5b5bb5"/>
        <path id="Path_13848" data-name="Path 13848" d="M1866.065,13225.271l-.08-.377s-.132.42-.829.57a5.208,5.208,0,0,1-1.421.077l.047.478a2.809,2.809,0,0,0,1.572.071C1866.17,13225.871,1866.065,13225.271,1866.065,13225.271Z" transform="translate(-1860.522 -13221.344)" fill="#d4dcff"/>
        <path id="Path_13849" data-name="Path 13849" d="M1862.459,13221.847c-.06-.308-.052-.243-.052-.243a5.416,5.416,0,0,1-.911-1.89l2.772-1.3.383,2.517.058.272a.782.782,0,0,1-.691.77A4.029,4.029,0,0,1,1862.459,13221.847Z" transform="translate(-1859.247 -13217.649)" fill="#ffb1d0"/>
      </g>
    </g>
    <g id="Group_13505" data-name="Group 13505" transform="translate(1715.098 13271.227)">
      <g id="Group_13454" data-name="Group 13454" transform="translate(2.035 39.356)" opacity="0.2">
        <path id="Path_13850" data-name="Path 13850" d="M1741.9,13454.8a14.26,14.26,0,0,1-3.9-2.473,4.018,4.018,0,0,1-.962-1.275,1.076,1.076,0,0,1,.006-1.012c.343-.562,1.323-.785,2.76-.631a15.968,15.968,0,0,1,4.6,1.346,14.257,14.257,0,0,1,3.9,2.473,4.027,4.027,0,0,1,.962,1.275,1.075,1.075,0,0,1-.006,1.012c-.343.563-1.323.785-2.76.629a15.892,15.892,0,0,1-4.594-1.344Z" transform="translate(-1736.916 -13449.36)"/>
      </g>
      <g id="Group_13500" data-name="Group 13500" transform="translate(3.201)">
        <g id="Group_13499" data-name="Group 13499" style="isolation: isolate">
          <g id="Group_13455" data-name="Group 13455" transform="translate(1.121 35.602)">
            <path id="Path_13851" data-name="Path 13851" d="M1742.721,13441.485l1.337-.57-.486-.281-1.337.572Z" transform="translate(-1742.234 -13440.634)" fill="#73ccff"/>
          </g>
          <g id="Group_13456" data-name="Group 13456" transform="translate(0.973 35.883)">
            <path id="Path_13852" data-name="Path 13852" d="M1741.89,13446.188l1.337-.57.634-4.331-1.337.572Z" transform="translate(-1741.89 -13441.286)" fill="#4343b0"/>
          </g>
          <g id="Group_13457" data-name="Group 13457" transform="translate(1.121 34.57)">
            <path id="Path_13853" data-name="Path 13853" d="M1742.234,13439.839l1.337-.571.151-1.033-1.337.572Z" transform="translate(-1742.234 -13438.234)" fill="#73ccff"/>
          </g>
          <g id="Group_13458" data-name="Group 13458" transform="translate(1.272 34.57)">
            <path id="Path_13854" data-name="Path 13854" d="M1743.072,13439.087l1.337-.571-.486-.281-1.337.572Z" transform="translate(-1742.586 -13438.234)" fill="#73ccff"/>
          </g>
          <g id="Group_13459" data-name="Group 13459" transform="translate(1.758 28.393)">
            <path id="Path_13855" data-name="Path 13855" d="M1743.716,13430.9l1.337-.571.946-6.457-1.337.571Z" transform="translate(-1743.716 -13423.874)" fill="#4343b0"/>
          </g>
          <g id="Group_13460" data-name="Group 13460" transform="translate(2.218 28.113)">
            <path id="Path_13856" data-name="Path 13856" d="M1745.272,13424.073l1.337-.571-.486-.28-1.337.57Z" transform="translate(-1744.785 -13423.222)" fill="#73ccff"/>
          </g>
          <g id="Group_13461" data-name="Group 13461" transform="translate(2.218 27.081)">
            <path id="Path_13857" data-name="Path 13857" d="M1744.785,13422.424l1.337-.57.151-1.031-1.337.57Z" transform="translate(-1744.785 -13420.822)" fill="#73ccff"/>
          </g>
          <g id="Group_13462" data-name="Group 13462" transform="translate(2.369 27.081)">
            <path id="Path_13858" data-name="Path 13858" d="M1745.623,13421.672l1.337-.57-.486-.279-1.337.57Z" transform="translate(-1745.137 -13420.822)" fill="#73ccff"/>
          </g>
          <g id="Group_13463" data-name="Group 13463" transform="translate(7.941 39.52)">
            <path id="Path_13859" data-name="Path 13859" d="M1758.576,13450.595l1.337-.571-.486-.281-1.337.571Z" transform="translate(-1758.09 -13449.742)" fill="#73ccff"/>
          </g>
          <g id="Group_13464" data-name="Group 13464" transform="translate(1.758 34.851)">
            <path id="Path_13860" data-name="Path 13860" d="M1750.05,13443.1l1.337-.57-6.334-3.639-1.337.572Z" transform="translate(-1743.716 -13438.887)" fill="#7f7feb"/>
          </g>
          <g id="Group_13465" data-name="Group 13465" transform="translate(8.427 38.769)">
            <path id="Path_13861" data-name="Path 13861" d="M1759.22,13449.6l1.337-.57.151-1.032-1.337.571Z" transform="translate(-1759.22 -13447.996)" fill="#73ccff"/>
          </g>
          <g id="Group_13466" data-name="Group 13466" transform="translate(8.092 38.488)">
            <path id="Path_13862" data-name="Path 13862" d="M1758.928,13448.2l1.337-.571-.486-.28-1.337.571Z" transform="translate(-1758.442 -13447.344)" fill="#73ccff"/>
          </g>
          <g id="Group_13467" data-name="Group 13467" transform="translate(2.856 20.903)">
            <path id="Path_13863" data-name="Path 13863" d="M1746.267,13413.49l1.337-.572.946-6.457-1.337.57Z" transform="translate(-1746.267 -13406.461)" fill="#4343b0"/>
          </g>
          <g id="Group_13468" data-name="Group 13468" transform="translate(3.316 20.623)">
            <path id="Path_13864" data-name="Path 13864" d="M1747.823,13406.658l1.337-.57-.486-.279-1.337.57Z" transform="translate(-1747.336 -13405.809)" fill="#73ccff"/>
          </g>
          <g id="Group_13469" data-name="Group 13469" transform="translate(3.316 19.591)">
            <path id="Path_13865" data-name="Path 13865" d="M1747.336,13405.012l1.337-.57.151-1.033-1.337.572Z" transform="translate(-1747.336 -13403.408)" fill="#73ccff"/>
          </g>
          <g id="Group_13470" data-name="Group 13470" transform="translate(3.467 19.591)">
            <path id="Path_13866" data-name="Path 13866" d="M1748.174,13404.26l1.337-.57-.486-.281-1.337.572Z" transform="translate(-1747.688 -13403.408)" fill="#73ccff"/>
          </g>
          <g id="Group_13471" data-name="Group 13471" transform="translate(9.038 32.03)">
            <path id="Path_13867" data-name="Path 13867" d="M1761.127,13433.182l1.337-.572-.486-.279-1.337.57Z" transform="translate(-1760.641 -13432.33)" fill="#73ccff"/>
          </g>
          <g id="Group_13472" data-name="Group 13472" transform="translate(2.856 27.361)">
            <path id="Path_13868" data-name="Path 13868" d="M1752.6,13425.682l1.337-.57-6.334-3.637-1.337.571Z" transform="translate(-1746.267 -13421.475)" fill="#7f7feb"/>
          </g>
          <g id="Group_13473" data-name="Group 13473" transform="translate(9.189 30.998)">
            <path id="Path_13869" data-name="Path 13869" d="M1761.479,13430.781l1.337-.57-.486-.281-1.337.57Z" transform="translate(-1760.993 -13429.93)" fill="#73ccff"/>
          </g>
          <g id="Group_13474" data-name="Group 13474" transform="translate(9.524 31.279)">
            <path id="Path_13870" data-name="Path 13870" d="M1761.771,13432.187l1.337-.57.151-1.033-1.337.572Z" transform="translate(-1761.771 -13430.583)" fill="#73ccff"/>
          </g>
          <g id="Group_13475" data-name="Group 13475" transform="translate(3.953 13.414)">
            <path id="Path_13871" data-name="Path 13871" d="M1748.818,13396.076l1.337-.572.946-6.457-1.337.571Z" transform="translate(-1748.818 -13389.047)" fill="#4343b0"/>
          </g>
          <g id="Group_13476" data-name="Group 13476" transform="translate(4.413 13.133)">
            <path id="Path_13872" data-name="Path 13872" d="M1750.374,13389.246l1.337-.571-.486-.28-1.337.57Z" transform="translate(-1749.887 -13388.395)" fill="#73ccff"/>
          </g>
          <g id="Group_13477" data-name="Group 13477" transform="translate(4.413 12.101)">
            <path id="Path_13873" data-name="Path 13873" d="M1749.887,13387.6l1.337-.57.151-1.032-1.337.571Z" transform="translate(-1749.887 -13385.995)" fill="#73ccff"/>
          </g>
          <g id="Group_13478" data-name="Group 13478" transform="translate(4.564 12.101)">
            <path id="Path_13874" data-name="Path 13874" d="M1750.725,13386.847l1.337-.571-.486-.28-1.337.571Z" transform="translate(-1750.239 -13385.995)" fill="#73ccff"/>
          </g>
          <g id="Group_13479" data-name="Group 13479" transform="translate(10.135 24.541)">
            <path id="Path_13875" data-name="Path 13875" d="M1763.678,13415.768l1.337-.57-.486-.281-1.337.57Z" transform="translate(-1763.192 -13414.916)" fill="#73ccff"/>
          </g>
          <g id="Group_13480" data-name="Group 13480" transform="translate(3.953 19.871)">
            <path id="Path_13876" data-name="Path 13876" d="M1755.152,13408.27l1.337-.57-6.334-3.639-1.337.572Z" transform="translate(-1748.818 -13404.061)" fill="#7f7feb"/>
          </g>
          <g id="Group_13481" data-name="Group 13481" transform="translate(10.622 23.79)">
            <path id="Path_13877" data-name="Path 13877" d="M1764.323,13414.771l1.337-.57.151-1.031-1.337.57Z" transform="translate(-1764.323 -13413.17)" fill="#73ccff"/>
          </g>
          <g id="Group_13482" data-name="Group 13482" transform="translate(10.287 23.509)">
            <path id="Path_13878" data-name="Path 13878" d="M1764.03,13413.369l1.337-.572-.486-.279-1.337.57Z" transform="translate(-1763.544 -13412.518)" fill="#73ccff"/>
          </g>
          <g id="Group_13483" data-name="Group 13483" transform="translate(5.51 5.643)">
            <path id="Path_13879" data-name="Path 13879" d="M1752.925,13371.833l1.337-.571-.486-.28-1.337.571Z" transform="translate(-1752.438 -13370.981)" fill="#73ccff"/>
          </g>
          <g id="Group_13484" data-name="Group 13484" transform="translate(5.05 5.924)">
            <path id="Path_13880" data-name="Path 13880" d="M1751.369,13378.663l1.337-.571.946-6.458-1.337.571Z" transform="translate(-1751.369 -13371.634)" fill="#4343b0"/>
          </g>
          <g id="Group_13485" data-name="Group 13485" transform="translate(5.51 4.611)">
            <path id="Path_13881" data-name="Path 13881" d="M1752.438,13370.186l1.337-.571.151-1.032-1.337.571Z" transform="translate(-1752.438 -13368.582)" fill="#73ccff"/>
          </g>
          <g id="Group_13486" data-name="Group 13486" transform="translate(5.661 4.611)">
            <path id="Path_13882" data-name="Path 13882" d="M1753.276,13369.435l1.337-.572-.486-.28-1.337.571Z" transform="translate(-1752.79 -13368.582)" fill="#73ccff"/>
          </g>
          <g id="Group_13487" data-name="Group 13487" transform="translate(11.233 17.051)">
            <path id="Path_13883" data-name="Path 13883" d="M1766.229,13398.354l1.337-.571-.486-.28-1.337.571Z" transform="translate(-1765.743 -13397.503)" fill="#73ccff"/>
          </g>
          <g id="Group_13488" data-name="Group 13488" transform="translate(5.05 12.382)">
            <path id="Path_13884" data-name="Path 13884" d="M1757.7,13390.855l1.337-.571-6.334-3.637-1.337.571Z" transform="translate(-1751.369 -13386.647)" fill="#7f7feb"/>
          </g>
          <g id="Group_13489" data-name="Group 13489" transform="translate(11.384 16.019)">
            <path id="Path_13885" data-name="Path 13885" d="M1766.581,13395.956l1.337-.571-.486-.281-1.337.57Z" transform="translate(-1766.095 -13395.104)" fill="#73ccff"/>
          </g>
          <g id="Group_13490" data-name="Group 13490" transform="translate(11.719 16.3)">
            <path id="Path_13886" data-name="Path 13886" d="M1766.874,13397.359l1.337-.57.151-1.031-1.337.57Z" transform="translate(-1766.874 -13395.758)" fill="#73ccff"/>
          </g>
          <g id="Group_13491" data-name="Group 13491" transform="translate(5.809)">
            <path id="Path_13887" data-name="Path 13887" d="M1754.106,13359l1.337-.571-.973-.562-1.337.571Z" transform="translate(-1753.134 -13357.861)" fill="#7f7feb"/>
          </g>
          <g id="Group_13492" data-name="Group 13492" transform="translate(6.147 0.562)">
            <path id="Path_13888" data-name="Path 13888" d="M1753.92,13364.068l1.337-.571.634-4.33-1.337.571Z" transform="translate(-1753.92 -13359.167)" fill="#4343b0"/>
          </g>
          <g id="Group_13493" data-name="Group 13493" transform="translate(12.33 9.561)">
            <path id="Path_13889" data-name="Path 13889" d="M1768.781,13380.942l1.337-.572-.486-.28-1.337.571Z" transform="translate(-1768.294 -13380.09)" fill="#73ccff"/>
          </g>
          <g id="Group_13494" data-name="Group 13494" transform="translate(6.147 4.892)">
            <path id="Path_13890" data-name="Path 13890" d="M1760.254,13373.443l1.337-.571-6.334-3.638-1.337.571Z" transform="translate(-1753.92 -13369.234)" fill="#7f7feb"/>
          </g>
          <g id="Group_13495" data-name="Group 13495" transform="translate(12.816 8.81)">
            <path id="Path_13891" data-name="Path 13891" d="M1769.425,13379.946l1.337-.571.151-1.031-1.337.57Z" transform="translate(-1769.425 -13378.344)" fill="#73ccff"/>
          </g>
          <g id="Group_13496" data-name="Group 13496" transform="translate(12.481 8.529)">
            <path id="Path_13892" data-name="Path 13892" d="M1769.132,13378.543l1.337-.572-.486-.28-1.337.571Z" transform="translate(-1768.646 -13377.69)" fill="#73ccff"/>
          </g>
          <path id="Path_13893" data-name="Path 13893" d="M1739.628,13398.841l.973.562.634-4.33,6.334,3.638-.635,4.33.973.562,5.809-39.652-.972-.561-.635,4.33-6.334-3.637.634-4.331-.973-.562Zm9.19-8.653-6.334-3.637.946-6.458,6.334,3.637Zm1.1-7.489-6.334-3.638.946-6.458,6.333,3.638Zm2.043-13.948-.946,6.458-6.334-3.637.946-6.458Zm-10.572,25.29.946-6.457,6.333,3.637-.946,6.458Z" transform="translate(-1739.628 -13358.618)" fill="#7070cf"/>
          <g id="Group_13497" data-name="Group 13497" transform="translate(13.116 4.199)">
            <path id="Path_13894" data-name="Path 13894" d="M1771.093,13368.755l1.337-.57-.972-.562-1.337.571Z" transform="translate(-1770.121 -13367.623)" fill="#7f7feb"/>
          </g>
          <g id="Group_13498" data-name="Group 13498" transform="translate(8.279 4.76)">
            <path id="Path_13895" data-name="Path 13895" d="M1758.876,13409.151l1.337-.571,5.809-39.652-1.337.571Z" transform="translate(-1758.876 -13368.928)" fill="#4343b0"/>
          </g>
        </g>
      </g>
      <g id="Group_13504" data-name="Group 13504" transform="translate(0 0.629)">
        <g id="Group_13503" data-name="Group 13503" transform="translate(0 0)">
          <path id="Path_13896" data-name="Path 13896" d="M1751.224,13425.934h-.018l.243-1.093,1.033.423.559-.293a6.59,6.59,0,0,0,1.91-.075c.733-.2,1.162.519.677.99a4.247,4.247,0,0,1-2.022.656,7.284,7.284,0,0,0-1.246.385,1.278,1.278,0,0,1-1.061-.315C1751.154,13426.442,1751.213,13426.008,1751.224,13425.934Z" transform="translate(-1743.023 -13396.659)" fill="#002283"/>
          <path id="Path_13897" data-name="Path 13897" d="M1747.009,13438.138a18.831,18.831,0,0,1,1.759-1.047c.534-.234,1.7-.592,1.578.667-.06.62-1.185,1.309-1.764,1.344s-.921.666-1.589.637a.818.818,0,0,1-.668-.425,1.021,1.021,0,0,1-.139-.649l.033-.3Z" transform="translate(-1740.16 -13403.509)" fill="#002283"/>
          <path id="Path_13898" data-name="Path 13898" d="M1733.288,13393.725a11.1,11.1,0,0,0-.789,3.4,9.772,9.772,0,0,0,.789,2.429s3.581,5.584,3.7,6.555a40.754,40.754,0,0,0,.85,5.523l.486,1.153.061.971a7.822,7.822,0,0,0,1.275,0,1.072,1.072,0,0,0,.941-.637l.061-.183s-.213-2.7-.334-3.976a27.962,27.962,0,0,0-.243-3.823c-.243-.486-2.246-5.037-2.246-5.037l-1.76-4.978Z" transform="translate(-1732.358 -13378.928)" fill="#2b2b57"/>
          <path id="Path_13899" data-name="Path 13899" d="M1741.706,13398.252a3.95,3.95,0,0,1,.182,1.092s5.4,1.883,6.13,2.975-.364,2.854-.667,3.4-1.7,3.156-1.7,3.156l-.122.729a2.64,2.64,0,0,1-.91.547,1.707,1.707,0,0,1-1.092-.244.773.773,0,0,1-.364-.424,7.756,7.756,0,0,1,.152-1.244c.121-.486,1.153-3.885,1.153-3.885s-4.977-1.092-6.069-1.518a2.849,2.849,0,0,1-1.518-2.914,4.2,4.2,0,0,1,.425-1.82Z" transform="translate(-1734.859 -13381.421)" fill="#444487"/>
          <path id="Path_13900" data-name="Path 13900" d="M1751.839,13377.037s.988-.79,1.144-.9a1.977,1.977,0,0,1,.939-.136,5.012,5.012,0,0,1,.534.112,2.238,2.238,0,0,1,.341.244c.053.068.152.23.106.3s-.052.084-.2.091a2.916,2.916,0,0,1-.306-.007s-.167.152-.224.207-.282.288-.282.288-.4.5-.657.575-.823.172-.823.172Z" transform="translate(-1743.386 -13368.823)" fill="#ffa1c6"/>
          <path id="Path_13901" data-name="Path 13901" d="M1753.283,13379.387a1.027,1.027,0,0,0,.571.166,2.417,2.417,0,0,0,.886-.4,4.226,4.226,0,0,1,.7-.212c.077,0,.086-.163-.077-.228a.7.7,0,0,0-.452-.021c-.114.037-.177.159-.277.164s-1.318.027-1.318.027Z" transform="translate(-1744.208 -13370.343)" fill="#ffb1d0"/>
          <path id="Path_13902" data-name="Path 13902" d="M1755.6,13377.039h0l.087-.088c.056-.055.224-.207.224-.207a2.919,2.919,0,0,0,.306.007c.152-.007.158-.02.2-.091s-.053-.232-.106-.3a2.25,2.25,0,0,0-.341-.244,5.012,5.012,0,0,0-.534-.112,1.977,1.977,0,0,0-.939.136S1755.4,13376.326,1755.6,13377.039Z" transform="translate(-1744.901 -13368.823)" fill="#ffb1d0"/>
          <path id="Path_13903" data-name="Path 13903" d="M1750.639,13378.415l.473-.142a.838.838,0,0,1,.591.372,1.649,1.649,0,0,1,.14.641.212.212,0,0,1-.131.205l-.326.134Z" transform="translate(-1742.702 -13370.122)" fill="#d4dcff"/>
          <path id="Path_13904" data-name="Path 13904" d="M1747.855,13378.609s.284-.05.483-.081.447-.236.645-.183.532.027.735.347a1.284,1.284,0,0,1,.267,1.038c-.055.127-.382.158-.382.158l-.735.393Z" transform="translate(-1741.115 -13370.159)" fill="#00d1ff"/>
          <path id="Path_13905" data-name="Path 13905" d="M1734.318,13373.585c-.729.11-1.2.642-1.644,1.97s-.792,3.607-.075,4.179,1.345.136,1.65-.615S1734.318,13373.585,1734.318,13373.585Z" transform="translate(-1732.186 -13367.45)" fill="#00d1ff"/>
          <path id="Path_13906" data-name="Path 13906" d="M1743.686,13371.938a.32.32,0,0,0-.4.273c-.035.174-.214,1.106-.214,1.106a1.685,1.685,0,0,1-1.344.175c-.574-.277-.987-.633-.923-1s.341-.538.422-.848a3.945,3.945,0,0,0,.229-1.247c-.058-.312.8-.1,1.255.287s.624.553.624.553Z" transform="translate(-1737.096 -13365.55)" fill="#ffa1c6"/>
          <circle id="Ellipse_273" data-name="Ellipse 273" cx="2.302" cy="2.302" r="2.302" transform="translate(2.768 3.67) rotate(-52.854)" fill="#ffa1c6"/>
          <path id="Path_13907" data-name="Path 13907" d="M1748.5,13367.493a8.416,8.416,0,0,1-.274,1.6c-.219.735-.525,1.039-.525,1.216s-.378.159-.671.1-.684-.087-.719-.438a2.074,2.074,0,0,1-.016-.467Z" transform="translate(-1740.223 -13363.979)" fill="#ffa1c6"/>
          <path id="Path_13908" data-name="Path 13908" d="M1750.678,13368.92a10.419,10.419,0,0,1,.121,1.041c-.012.193-.549.113-.549.113Z" transform="translate(-1742.481 -13364.793)" fill="#ffa1c6"/>
          <path id="Path_13909" data-name="Path 13909" d="M1739.568,13375.242c.83.686,2.159,1.892,2.064,2.91s-1.477,4.034-1.5,4.812.326,1.385-.2,1.792a5.915,5.915,0,0,1-4.3-.141c-1.092-.684-1.982-2.167-1.654-2.756a3.021,3.021,0,0,0,.382-1.831c.01-.975-.572-1.876-.35-3.522s.3-2.777,1.3-2.967a6.469,6.469,0,0,1,2.663.453Z" transform="translate(-1733.161 -13367.404)" fill="#0fe4ff"/>
          <path id="Path_13910" data-name="Path 13910" d="M1742.894,13364.378l-.116.627.336.12.292-.416.481-.186a.486.486,0,0,1-.028-.515,2.024,2.024,0,0,1,.739-.5,1.4,1.4,0,0,0,.506-.5s.583-.187.663-.458-.592-.27-.592-.27,1.09-.678.588-1.141c-.164-.15-.887.056-.887.056s.505-.58-.014-.646a1.274,1.274,0,0,0-.854.173,3.161,3.161,0,0,0-2.007-.059,3.256,3.256,0,0,0-1.133.744s-1.1.12-.908,1.684.993,1.971.978,2.228a2.2,2.2,0,0,1,1.049.461S1742.138,13364.31,1742.894,13364.378Z" transform="translate(-1736.601 -13360)" fill="#00144f"/>
          <path id="Path_13911" data-name="Path 13911" d="M1746.08,13362.549c.08-.271-.592-.27-.592-.27s1.09-.678.588-1.141c-.164-.15-.887.056-.887.056s.505-.58-.014-.646a1.273,1.273,0,0,0-.854.173,3.161,3.161,0,0,0-2.007-.059,3.256,3.256,0,0,0-1.133.744,1.042,1.042,0,0,0-.524.254h0s-.513.676.248.935a8.578,8.578,0,0,0,2.6.411c.763-.017,1.911,0,1.911,0l.476-.233A.47.47,0,0,0,1746.08,13362.549Z" transform="translate(-1736.916 -13360)" fill="#002283"/>
          <path id="Path_13912" data-name="Path 13912" d="M1743.5,13361.113a1.417,1.417,0,0,0-.595.081,1.208,1.208,0,0,1,.487-.493l.105-.05a1.46,1.46,0,0,0-.269.092,3.239,3.239,0,0,0-1.133.744.938.938,0,0,0,.749.483c.493,0,.429-.6.767-.636C1743.614,13361.335,1743.811,13361.146,1743.5,13361.113Z" transform="translate(-1737.835 -13360.081)" fill="#00144f"/>
          <path id="Path_13913" data-name="Path 13913" d="M1745.6,13368.955s0-.454-.395-.41-.677.732-.436,1.137.277.455.61.42Z" transform="translate(-1739.305 -13364.577)" fill="#ffa1c6"/>
          <path id="Path_13914" data-name="Path 13914" d="M1743.432,13374.844l-.121-.741a5.8,5.8,0,0,0-2.07-1.3l-.563.422s-.045.229.667.593S1743.25,13374.676,1743.432,13374.844Z" transform="translate(-1737.025 -13367.007)" fill="#ebeeff"/>
          <g id="Group_13502" data-name="Group 13502" transform="translate(6.168 5.319)">
            <path id="Path_13915" data-name="Path 13915" d="M1762.621,13376.042a3.269,3.269,0,0,1-.3-.416c-.155-.249-.04-.467-.038-.69s.083-.254.16-.466.164-.187.251-.021-.085.348-.085.348l.2.753.009.354Z" transform="translate(-1755.481 -13373.187)" fill="#ff8996"/>
            <path id="Path_13916" data-name="Path 13916" d="M1763.081,13375.9a5.528,5.528,0,0,1-.139-1.337,1.227,1.227,0,0,1,1.047-.424,2.425,2.425,0,0,1,1.22.884s-.41.865-.508.981a2.141,2.141,0,0,1-.254.235Z" transform="translate(-1755.872 -13373.077)" fill="#ffa1c6"/>
            <path id="Path_13917" data-name="Path 13917" d="M1765.229,13373.632a2.531,2.531,0,0,0-.168-1.22c-.124-.137-.2-.01-.2-.01s-.061-.336-.229-.435l-.167-.1s-.239-.253-.4-.158a5.273,5.273,0,0,0-.716.412,7.4,7.4,0,0,0-.39,1.049Z" transform="translate(-1755.892 -13371.688)" fill="#ffa1c6"/>
            <path id="Path_13918" data-name="Path 13918" d="M1762.569,13378.286l.177-.467s.558-.432.958-.279a1.9,1.9,0,0,1,.726.634l-.173.515Z" transform="translate(-1755.669 -13375.005)" fill="#ebeeff"/>
            <g id="Group_13501" data-name="Group 13501" transform="translate(0 2.782)">
              <path id="Path_13919" data-name="Path 13919" d="M1762.4,13378.765s-.289-.747-.944-.587-.952.428-.939.659a17.986,17.986,0,0,1-.313,1.9,22.2,22.2,0,0,0-.993,2.624c0,.614,2.223,1.122,2.223,1.122a11.335,11.335,0,0,0,.886-2.175,13.059,13.059,0,0,0,.117-2.38A3.405,3.405,0,0,0,1762.4,13378.765Z" transform="translate(-1753.753 -13378.155)" fill="#0fd3ff"/>
              <path id="Path_13920" data-name="Path 13920" d="M1747.744,13381.06c.88-.259,4.013,2.3,4.791,2.711s2.27,1.213,1.669,2.359-3.613-.925-4.874-1.345-3.071-1.706-2.771-2.568A1.508,1.508,0,0,1,1747.744,13381.06Z" transform="translate(-1746.526 -13379.8)" fill="#0fe4ff"/>
            </g>
          </g>
        </g>
      </g>
    </g>
    <g id="Group_13509" data-name="Group 13509" transform="translate(1780.253 13220.074)">
      <g id="Group_13508" data-name="Group 13508" style="isolation: isolate">
        <g id="Group_13506" data-name="Group 13506" transform="translate(0 0.469)">
          <path id="Path_13921" data-name="Path 13921" d="M1885.342,13240.031l-.051,26.828a.406.406,0,0,1-.237.331,1.268,1.268,0,0,1-1.149,0,.409.409,0,0,1-.24-.335l.051-26.828a.408.408,0,0,0,.24.335,1.268,1.268,0,0,0,1.149,0A.4.4,0,0,0,1885.342,13240.031Z" transform="translate(-1883.665 -13240.027)" fill="#c4c9ff"/>
        </g>
        <g id="Group_13507" data-name="Group 13507" transform="translate(0.051)">
          <path id="Path_13922" data-name="Path 13922" d="M1885.169,13239.075a.352.352,0,0,1,0,.666,1.262,1.262,0,0,1-1.149,0,.352.352,0,0,1,0-.666A1.275,1.275,0,0,1,1885.169,13239.075Z" transform="translate(-1883.783 -13238.938)" fill="#d9dcff"/>
        </g>
      </g>
    </g>
    <path id="Path_13923" data-name="Path 13923" d="M1887.545,13241.922a3.6,3.6,0,0,0,3.275,2.674c2.605.049,3.49-1.84,6.145-1.338a5.36,5.36,0,0,1,3.687,2.517,4.93,4.93,0,0,0-4.031.345c-1.77,1.181-3.614,3.584-7.177,2.754a12.619,12.619,0,0,1-1.912-.542Z" transform="translate(-105.615 -20.564)" fill="#ff4198"/>
    <g id="Group_13536" data-name="Group 13536" transform="translate(1730.912 13313.246)">
      <path id="Path_13924" data-name="Path 13924" d="M1769.133,13482.848l.968-.62,14.879,2.956q1.07.546,2.035,1.026l-6.917,4.289-8.685-4.825a.545.545,0,0,1-.241-.679l.06-.149-2.1-1.335A.393.393,0,0,1,1769.133,13482.848Z" transform="translate(-1768.951 -13470.754)" opacity="0.2"/>
      <g id="Group_13535" data-name="Group 13535" transform="translate(0.141)">
        <g id="Group_13514" data-name="Group 13514">
          <g id="Group_13510" data-name="Group 13510" transform="translate(0.226 0.071)">
            <path id="Path_13925" data-name="Path 13925" d="M1769.805,13459.051l.025,8.863,5.8-3.344a.389.389,0,0,0,.194-.338v-8.32a.2.2,0,0,0-.291-.168Z" transform="translate(-1769.805 -13455.718)" fill="#f03966"/>
          </g>
          <path id="Path_13926" data-name="Path 13926" d="M1775.529,13456.2a.192.192,0,0,1,.212.011h0l.446.259-.367.642v.033a.194.194,0,0,0-.291-.169l-5.722,3.306,0-.776Z" transform="translate(-1769.579 -13455.903)" fill="#dee0ff"/>
          <g id="Group_13511" data-name="Group 13511" transform="translate(0 3.41)">
            <path id="Path_13927" data-name="Path 13927" d="M1769.28,13463.48v8.742a.192.192,0,0,0,.1.168l.639.369.067.039h.188l.025-8.756-.23-.127Z" transform="translate(-1769.28 -13463.48)" fill="#d42a50"/>
          </g>
          <path id="Path_13928" data-name="Path 13928" d="M1770.934,13464.489l.025,8.846.067.039h.282l-.025-8.885Z" transform="translate(-1770.223 -13460.646)" fill="#f03966"/>
          <g id="Group_13512" data-name="Group 13512">
            <path id="Path_13929" data-name="Path 13929" d="M1785.644,13456.979h0Z" transform="translate(-1778.605 -13456.366)" fill="#c9274c"/>
            <path id="Path_13930" data-name="Path 13930" d="M1769.36,13458.848l5.569-3.218,0,0,.047-.027a.388.388,0,0,1,.46.054.192.192,0,0,0-.2-.015h0l-.009.006h0l-.218.126h0l-5.486,3.169c-.016.01-.016.023,0,.032l.6.348a.068.068,0,0,0,.055,0l5.636-3.257a.385.385,0,0,1,.46.054.192.192,0,0,0-.2-.016h0l-.009,0h0l-5.724,3.306h0a.426.426,0,0,1-.384,0l-.6-.347A.118.118,0,0,1,1769.36,13458.848Z" transform="translate(-1769.28 -13455.553)" fill="#ff7899"/>
            <path id="Path_13931" data-name="Path 13931" d="M1783.706,13455.906v0h0Z" transform="translate(-1777.501 -13455.754)" fill="#c9274c"/>
          </g>
          <g id="Group_13513" data-name="Group 13513" transform="translate(1.059 0.531)">
            <path id="Path_13932" data-name="Path 13932" d="M1771.743,13460.12l.025,8.864,5.8-3.347a.387.387,0,0,0,.194-.336v-8.319a.2.2,0,0,0-.291-.169Z" transform="translate(-1771.743 -13456.787)" fill="#f7567e"/>
          </g>
        </g>
        <g id="Group_13519" data-name="Group 13519" transform="translate(1.068 0.702)">
          <g id="Group_13515" data-name="Group 13515" transform="translate(0.226 0.071)">
            <path id="Path_13933" data-name="Path 13933" d="M1772.288,13460.682l.664,9.23,5.8-3.347c-.519-.435-.445-.562-.445-.7v-8.32a.194.194,0,0,0-.291-.167Z" transform="translate(-1772.288 -13457.351)" fill="#3e4bf6"/>
          </g>
          <path id="Path_13934" data-name="Path 13934" d="M1778.011,13457.828a.191.191,0,0,1,.213.012h0l1.085.623s-.248.191-.659.506l-5.721,3.3-.641-1.141Z" transform="translate(-1772.062 -13457.535)" fill="#dee0ff"/>
          <g id="Group_13516" data-name="Group 13516" transform="translate(0 3.409)">
            <path id="Path_13935" data-name="Path 13935" d="M1771.763,13465.111v8.742a.191.191,0,0,0,.1.168l1.278.734.067.039h.188l.025-8.756-.231-.129Z" transform="translate(-1771.763 -13465.111)" fill="#313cc4"/>
          </g>
          <path id="Path_13936" data-name="Path 13936" d="M1774.9,13466.971l.025,8.846.067.039h.282l-.025-8.885Z" transform="translate(-1773.552 -13462.762)" fill="#3946e6"/>
          <g id="Group_13517" data-name="Group 13517">
            <path id="Path_13937" data-name="Path 13937" d="M1789.613,13459.461v0Z" transform="translate(-1781.935 -13458.48)" fill="#c9274c"/>
            <path id="Path_13938" data-name="Path 13938" d="M1771.843,13460.48l5.569-3.217h0l.047-.027a.388.388,0,0,1,.46.055.19.19,0,0,0-.2-.015h0l-.009.006h0l-.218.126,0,0-5.487,3.171c-.015.009-.015.022,0,.031l1.236.713a.061.061,0,0,0,.055,0l5.635-3.258a.39.39,0,0,1,.46.055.189.189,0,0,0-.2-.015h0l-.009,0h0l-5.724,3.306h0a.423.423,0,0,1-.384,0l-1.236-.711A.118.118,0,0,1,1771.843,13460.48Z" transform="translate(-1771.763 -13457.185)" fill="#7580ff"/>
            <path id="Path_13939" data-name="Path 13939" d="M1786.189,13457.537l0,0h0Z" transform="translate(-1779.984 -13457.385)" fill="#c9274c"/>
          </g>
          <g id="Group_13518" data-name="Group 13518" transform="translate(1.699 0.896)">
            <path id="Path_13940" data-name="Path 13940" d="M1775.712,13462.6l.025,8.865,5.8-3.346a.387.387,0,0,0,.194-.336v-8.32a.194.194,0,0,0-.291-.168Z" transform="translate(-1775.712 -13459.269)" fill="#3e4bf6"/>
          </g>
        </g>
        <g id="Group_13523" data-name="Group 13523" transform="translate(2.598 9.694)">
          <g id="Group_13520" data-name="Group 13520" transform="translate(0.176 1.031)">
            <path id="Path_13941" data-name="Path 13941" d="M1789.941,13485.3l-6.014,3.5-8.2-4.732,6.012-3.494a.621.621,0,0,1,.62,0l7.578,4.375A.2.2,0,0,1,1789.941,13485.3Z" transform="translate(-1775.731 -13480.487)" fill="#b89431"/>
          </g>
          <path id="Path_13942" data-name="Path 13942" d="M1800.13,13489.83l-5.761,3.346v.619l5.987-3.479a.208.208,0,0,0,.1-.168h0v-.5Z" transform="translate(-1786.176 -13484.678)" fill="#bdbfff"/>
          <g id="Group_13521" data-name="Group 13521" transform="translate(0 3.577)">
            <path id="Path_13943" data-name="Path 13943" d="M1783.7,13491.139l-.185.289,0,.786.11.146h0a.42.42,0,0,1-.206-.055l-7.894-4.558a.415.415,0,0,1-.206-.359v-.451a.825.825,0,0,1,.13-.442l.045-.087Z" transform="translate(-1775.321 -13486.407)" fill="#cca437"/>
          </g>
          <path id="Path_13944" data-name="Path 13944" d="M1783.643,13491.352l.136-.213-8.207-4.731-.045.087a.838.838,0,0,0-.075.148Z" transform="translate(-1775.396 -13482.83)" fill="#e3b63d"/>
          <g id="Group_13522" data-name="Group 13522" transform="translate(0.176)">
            <path id="Path_13945" data-name="Path 13945" d="M1789.941,13482.905l-6.014,3.5-8.2-4.732,6.012-3.493a.619.619,0,0,1,.62,0l7.578,4.374A.206.206,0,0,1,1789.941,13482.905Z" transform="translate(-1775.731 -13478.092)" fill="#ffd461"/>
          </g>
          <path id="Path_13946" data-name="Path 13946" d="M1800.663,13489.929a.206.206,0,0,1-.1.154l-.007,0,0,0-.224.13h0l-5.754,3.345c-.016.01-.029,0-.029-.017l0-.732a.064.064,0,0,1,.029-.051l5.862-3.408a.625.625,0,0,0,.2-.19.157.157,0,0,0,.026-.086v-.153a.2.2,0,0,1-.1.153l-.007,0,0,0-5.98,3.476a.452.452,0,0,0-.2.354l0,.733c0,.129.093.182.206.116l5.876-3.414v0a.631.631,0,0,0,.186-.18.16.16,0,0,0,.026-.086v-.155Z" transform="translate(-1786.176 -13484.264)" fill="#cca437"/>
        </g>
        <g id="Group_13534" data-name="Group 13534" transform="translate(3.595 8.387)">
          <g id="Group_13524" data-name="Group 13524" transform="translate(0.002 0.874)">
            <path id="Path_13947" data-name="Path 13947" d="M1777.745,13480.912l7.476,4.346a.619.619,0,0,0,.616,0l5.811-3.355a.135.135,0,0,0,0-.234l-7.887-4.584-6.016,3.473A.206.206,0,0,0,1777.745,13480.912Z" transform="translate(-1777.643 -13477.084)" fill="#a6203f"/>
          </g>
          <path id="Path_13948" data-name="Path 13948" d="M1809.3,13487.158l-.7-.392.747-.458.034.85Z" transform="translate(-1795.28 -13481.467)" fill="#a6203f"/>
          <path id="Path_13949" data-name="Path 13949" d="M1796.647,13489.453l.02-.011,5.2-3,.132.076.3.026v.591l-5.631,3.251-.018.01C1796.672,13490.077,1796.647,13489.769,1796.647,13489.453Z" transform="translate(-1788.471 -13481.542)" fill="#dee0ff"/>
          <path id="Path_13950" data-name="Path 13950" d="M1795.86,13493.432c0,.315.025.624,0,.941a.617.617,0,0,1-.584,0c0-.316-.011-.634-.011-.948A.617.617,0,0,0,1795.86,13493.432Z" transform="translate(-1787.684 -13485.521)" fill="#cfd1ff"/>
          <path id="Path_13951" data-name="Path 13951" d="M1778.245,13483.85l.272.024,7.047,4.091h0c0,.315.009.632.011.948l-.013-.006-7.218-4.19a.2.2,0,0,1-.1-.192h0Z" transform="translate(-1777.984 -13480.065)" fill="#bdbfff"/>
          <path id="Path_13952" data-name="Path 13952" d="M1777.774,13478.4l5.6-3.236a.825.825,0,0,1,.822,0l7.233,4.2a1.239,1.239,0,0,1,.39.357l.022.032.01.015-.179-.025h0l-5.807,3.353a.616.616,0,0,1-.347.081l-.037,0a.624.624,0,0,1-.231-.079l-7.476-4.345a.2.2,0,0,1-.1-.167A.2.2,0,0,1,1777.774,13478.4Z" transform="translate(-1777.657 -13475.052)" fill="#f7567e"/>
          <g id="Group_13533" data-name="Group 13533" transform="translate(1.978 0.684)">
            <g id="Group_13525" data-name="Group 13525" transform="translate(5.689 3.775)">
              <path id="Path_13953" data-name="Path 13953" d="M1795.524,13487.981a.089.089,0,0,0,0,.169.322.322,0,0,0,.292,0l4.377-2.526a.09.09,0,0,0,0-.17.321.321,0,0,0-.292,0Z" transform="translate(-1795.463 -13485.419)" fill="#d42e57"/>
            </g>
            <g id="Group_13526" data-name="Group 13526" transform="translate(0.806 2.43)">
              <path id="Path_13954" data-name="Path 13954" d="M1784.174,13483.025a.088.088,0,0,0,0,.168.322.322,0,0,0,.293,0l1.209-.7a.088.088,0,0,0,0-.168.322.322,0,0,0-.292,0Z" transform="translate(-1784.112 -13482.291)" fill="#d42e57"/>
            </g>
            <g id="Group_13527" data-name="Group 13527" transform="translate(2.454 1.528)">
              <path id="Path_13955" data-name="Path 13955" d="M1788,13480.878a.09.09,0,0,0,0,.17.321.321,0,0,0,.292,0l1.124-.648c.081-.048.081-.123,0-.17a.321.321,0,0,0-.292,0Z" transform="translate(-1787.943 -13480.194)" fill="#d42e57"/>
            </g>
            <g id="Group_13532" data-name="Group 13532" style="isolation: isolate">
              <g id="Group_13528" data-name="Group 13528" transform="translate(2.871)">
                <path id="Path_13956" data-name="Path 13956" d="M1788.973,13477.08a.089.089,0,0,0,0,.168l1.326.771a.316.316,0,0,0,.29,0l.7-.4a.09.09,0,0,0,0-.17l-1.325-.77a.322.322,0,0,0-.29,0Z" transform="translate(-1788.913 -13476.642)" fill="#f78fa9"/>
              </g>
              <g id="Group_13529" data-name="Group 13529" transform="translate(0.354 0.759)">
                <path id="Path_13957" data-name="Path 13957" d="M1783.123,13479.538c-.08.047-.081.122,0,.168l.294.171a.322.322,0,0,0,.29,0l1.9-1.1a.089.089,0,0,0,0-.168l-.294-.171a.317.317,0,0,0-.29,0Z" transform="translate(-1783.062 -13478.404)" fill="#f78fa9"/>
              </g>
              <g id="Group_13530" data-name="Group 13530" transform="translate(0 1.228)">
                <path id="Path_13958" data-name="Path 13958" d="M1782.3,13481.3a.089.089,0,0,0,0,.169.321.321,0,0,0,.292,0l3.063-1.768a.09.09,0,0,0,0-.17.321.321,0,0,0-.292,0Z" transform="translate(-1782.238 -13479.497)" fill="#d42e57"/>
              </g>
              <g id="Group_13531" data-name="Group 13531" transform="translate(1.435 1.303)">
                <path id="Path_13959" data-name="Path 13959" d="M1785.634,13482.234a.089.089,0,0,0,0,.168l3.434,2a.315.315,0,0,0,.289,0l4.38-2.527c.08-.047.08-.123,0-.168l-3.435-2a.316.316,0,0,0-.29,0Z" transform="translate(-1785.573 -13479.67)" fill="#f78fa9"/>
              </g>
            </g>
          </g>
          <path id="Path_13960" data-name="Path 13960" d="M1777.64,13484.248a.2.2,0,0,0,.1.169l.212.123h0l7.28,4.229a.612.612,0,0,0,.616,0l5.809-3.35a.065.065,0,0,0,.029-.05l0-.729c0-.018-.013-.025-.029-.016l-5.806,3.351a.612.612,0,0,1-.616,0l-7.479-4.344-.012-.009a.2.2,0,0,1-.089-.168v-.192h0a.2.2,0,0,0,.1.168l7.476,4.345a.624.624,0,0,0,.231.079l.037,0a.624.624,0,0,0,.35-.081l5.805-3.352,0,0a.127.127,0,0,1,.169.011l.01.015a.179.179,0,0,1,.022.093l0,.728a.454.454,0,0,1-.2.353l-5.809,3.35a.614.614,0,0,1-.616,0l-7.383-4.291h0l-.11-.063-.012-.009a.2.2,0,0,1-.089-.167v-.193Z" transform="translate(-1777.639 -13479.731)" fill="#c9274c"/>
        </g>
      </g>
    </g>
    <g id="Group_13544" data-name="Group 13544" transform="translate(1744.913 13303.308)">
      <path id="Path_13961" data-name="Path 13961" d="M1807.178,13437.888c-.232-.115-5.681-3.263-5.675-3.465s.31-.362.31-.362l5.814,2.956,1.37,1.063a6.749,6.749,0,0,1,2.558-.476,6.332,6.332,0,0,1,3.126.755,2.39,2.39,0,0,1,1.381,2,1.9,1.9,0,0,1-.37,1.1,3.194,3.194,0,0,1-1.032.9,6.373,6.373,0,0,1-3.133.755,6.309,6.309,0,0,1-3.126-.757,2.386,2.386,0,0,1-1.381-1.993,1.906,1.906,0,0,1,.37-1.1,3.171,3.171,0,0,1,1.031-.9h0l-.752-.471A.636.636,0,0,1,1807.178,13437.888Z" transform="translate(-1801.503 -13433.367)" opacity="0.2"/>
      <g id="Group_13543" data-name="Group 13543" transform="translate(0.088)">
        <g id="Group_13539" data-name="Group 13539">
          <g id="Group_13537" data-name="Group 13537" transform="translate(5.746 3.339)">
            <path id="Path_13962" data-name="Path 13962" d="M1815.439,13440.262a.822.822,0,0,0-.373.646c0,.237.168.333.375.214a.824.824,0,0,0,.373-.646C1815.813,13440.238,1815.646,13440.143,1815.439,13440.262Z" transform="translate(-1815.066 -13440.211)" fill="#313cc4"/>
          </g>
          <path id="Path_13963" data-name="Path 13963" d="M1802.08,13432.5a.265.265,0,0,1,.266-.027l5.746,3.34a.264.264,0,0,0-.266.025.823.823,0,0,0-.373.646.26.26,0,0,0,.109.24l-5.746-3.34a.264.264,0,0,1-.109-.24A.819.819,0,0,1,1802.08,13432.5Z" transform="translate(-1801.707 -13432.448)" fill="#4f5cff"/>
          <path id="Path_13964" data-name="Path 13964" d="M1816.031,13441.107a.135.135,0,0,1,.136-.013l1.094.636a.132.132,0,0,0-.135.014.417.417,0,0,0-.19.328.13.13,0,0,0,.055.122l-1.094-.635a.135.135,0,0,1-.055-.123A.42.42,0,0,1,1816.031,13441.107Z" transform="translate(-1809.762 -13437.368)" fill="#6060bf"/>
          <g id="Group_13538" data-name="Group 13538" transform="translate(7.174 4.35)">
            <path id="Path_13965" data-name="Path 13965" d="M1818.575,13442.585a.418.418,0,0,0-.19.329c0,.121.086.17.191.109a.419.419,0,0,0,.19-.329C1818.766,13442.573,1818.681,13442.524,1818.575,13442.585Z" transform="translate(-1818.385 -13442.559)" fill="#f7567e"/>
          </g>
        </g>
        <g id="Group_13542" data-name="Group 13542" transform="translate(5.75 3.638)">
          <g id="Group_13540" data-name="Group 13540" transform="translate(0.007 2.429)">
            <path id="Path_13966" data-name="Path 13966" d="M1815.091,13446.578l0,.693a2.084,2.084,0,0,0,1.219,1.707,6.534,6.534,0,0,0,5.932,0,2.1,2.1,0,0,0,1.238-1.73l0-.7a2.1,2.1,0,0,1-1.238,1.73,6.534,6.534,0,0,1-5.932,0A2.084,2.084,0,0,1,1815.091,13446.578Z" transform="translate(-1815.091 -13446.553)" fill="#c9274c"/>
          </g>
          <g id="Group_13541" data-name="Group 13541" transform="translate(0 0)">
            <ellipse id="Ellipse_274" data-name="Ellipse 274" cx="4.195" cy="2.43" rx="4.195" ry="2.43" transform="matrix(1, -0.003, 0.003, 1, 0, 0.024)" fill="#f7567e"/>
          </g>
          <path id="Path_13967" data-name="Path 13967" d="M1820.118,13445.85a5.464,5.464,0,0,0,2.65-.625c.583-.338.918-.765.919-1.172a1.513,1.513,0,0,0-.9-1.159,5.9,5.9,0,0,0-5.291,0,1.532,1.532,0,0,0-.919,1.171,1.514,1.514,0,0,0,.9,1.159A5.422,5.422,0,0,0,1820.118,13445.85Z" transform="translate(-1815.93 -13441.682)" fill="#d6e3ff"/>
          <path id="Path_13968" data-name="Path 13968" d="M1822.786,13443.065a5.9,5.9,0,0,0-5.291,0,1.625,1.625,0,0,0-.914,1.088.813.813,0,0,1-.005-.087,1.532,1.532,0,0,1,.919-1.171,5.9,5.9,0,0,1,5.291,0,1.513,1.513,0,0,1,.9,1.159.68.68,0,0,1-.005.084A1.6,1.6,0,0,0,1822.786,13443.065Z" transform="translate(-1815.93 -13441.682)" fill="#c9274c"/>
          <path id="Path_13969" data-name="Path 13969" d="M1822.181,13447.743h0a.467.467,0,0,1,.448-.043,2.383,2.383,0,0,0,1,.132,2.163,2.163,0,0,0,1.355-.683.453.453,0,0,1,.45-.044h0c.2.072.3.223.2.323a2.729,2.729,0,0,1-1.738.841,3.615,3.615,0,0,1-1.507-.194C1822.183,13448,1822.08,13447.848,1822.181,13447.743Z" transform="translate(-1819.102 -13444.416)" fill="#f3feff"/>
        </g>
      </g>
    </g>
    <g id="Group_13545" data-name="Group 13545" transform="translate(1796.677 13318.761)">
      <path id="Path_13970" data-name="Path 13970" d="M1922.02,13470.333a.251.251,0,0,0,0,.476l3.2,1.859a.909.909,0,0,0,.822,0l3.22-1.859a.251.251,0,0,0,0-.476l-3.2-1.859a.9.9,0,0,0-.821,0Z" transform="translate(-1921.848 -13468.375)" fill="#e3e5ff"/>
    </g>
    <g id="Group_13546" data-name="Group 13546" transform="translate(1788.943 13319.374)">
      <path id="Path_13971" data-name="Path 13971" d="M1903.992,13471.2a.18.18,0,0,0,0,.34l2.285,1.328a.647.647,0,0,0,.587,0l2.3-1.328a.18.18,0,0,0,0-.34l-2.285-1.326a.646.646,0,0,0-.586,0Z" transform="translate(-1903.869 -13469.803)" fill="#e3e5ff"/>
    </g>
    <g id="Group_13547" data-name="Group 13547" transform="translate(1710.719 13319.658)">
      <path id="Path_13972" data-name="Path 13972" d="M1722.175,13472.419a.251.251,0,0,0,0,.476l3.2,1.859a.909.909,0,0,0,.822,0l3.22-1.859a.251.251,0,0,0,0-.476l-3.2-1.859a.908.908,0,0,0-.821,0Z" transform="translate(-1722.003 -13470.461)" fill="#e3e5ff"/>
    </g>
    <g id="Group_13548" data-name="Group 13548" transform="translate(1702.201 13317.735)">
      <path id="Path_13973" data-name="Path 13973" d="M1702.324,13467.39c-.163.095-.163.246,0,.34l2.285,1.328a.646.646,0,0,0,.586,0l2.3-1.328a.18.18,0,0,0,0-.34l-2.285-1.327a.646.646,0,0,0-.586,0Z" transform="translate(-1702.201 -13465.992)" fill="#e3e5ff"/>
    </g>
    <g id="Group_13549" data-name="Group 13549" transform="translate(1800.917 13311.955)">
      <path id="Path_13974" data-name="Path 13974" d="M1931.8,13453.635a.139.139,0,0,0,0,.263l1.768,1.027a.5.5,0,0,0,.454,0l1.78-1.027a.139.139,0,0,0,0-.263l-1.768-1.027a.5.5,0,0,0-.454,0Z" transform="translate(-1931.706 -13452.553)" fill="#e3e5ff"/>
    </g>
    <g id="Group_13550" data-name="Group 13550" transform="translate(1709.073 13313.714)">
      <path id="Path_13975" data-name="Path 13975" d="M1718.271,13457.724a.139.139,0,0,0,0,.263l1.768,1.026a.5.5,0,0,0,.454,0l1.779-1.026a.139.139,0,0,0,0-.264l-1.768-1.027a.5.5,0,0,0-.454,0Z" transform="translate(-1718.177 -13456.641)" fill="#e3e5ff"/>
    </g>
    <g id="Group_13553" data-name="Group 13553" transform="translate(1727.036 13239.312)">
      <g id="Group_13552" data-name="Group 13552">
        <path id="Path_13976" data-name="Path 13976" d="M1761.143,13293.379c.38.192.777.376,1.155.6a2.936,2.936,0,0,0-1.259,2.178c-.349-.223-.728-.4-1.1-.589A2.935,2.935,0,0,1,1761.143,13293.379Z" transform="translate(-1759.94 -13289.199)" fill="#626df6"/>
        <path id="Path_13977" data-name="Path 13977" d="M1761.038,13299.054c0,.024,0,.049,0,.071l.022,7.812a.927.927,0,0,0,.386.848l-1.1-.637a.927.927,0,0,1-.386-.85l-.022-7.81c0-.007,0-.015,0-.021C1760.31,13298.655,1760.69,13298.832,1761.038,13299.054Z" transform="translate(-1759.939 -13292.099)" fill="#313cc4"/>
        <path id="Path_13978" data-name="Path 13978" d="M1762.852,13287.768l6.8-3.924a.925.925,0,0,1,.942-.092l1.1.637a.93.93,0,0,0-.942.092l-6.8,3.924c-.019.01-.038.023-.057.035-.378-.223-.775-.406-1.155-.6A1.106,1.106,0,0,1,1762.852,13287.768Z" transform="translate(-1761.533 -13283.661)" fill="#828bf6"/>
        <g id="Group_13551" data-name="Group 13551" transform="translate(1.096 0.635)">
          <path id="Path_13979" data-name="Path 13979" d="M1763.8,13289.247a2.906,2.906,0,0,0-1.318,2.285l.026,7.811c0,.839.6,1.178,1.328.755l6.795-3.927a2.906,2.906,0,0,0,1.318-2.286l-.026-7.81c0-.839-.6-1.178-1.328-.756Z" transform="translate(-1762.486 -13285.138)" fill="#4f5cff"/>
        </g>
      </g>
      <path id="Path_13980" data-name="Path 13980" d="M1766.008,13299.29a.448.448,0,0,0,.189.412.332.332,0,0,0,.108.037,1.149,1.149,0,0,0-.081.407.451.451,0,0,0,.189.413.377.377,0,0,0,.285.024,1.082,1.082,0,0,0-.044.3.446.446,0,0,0,.189.411.456.456,0,0,0,.453-.046l2.772-1.6a1.667,1.667,0,0,0,.22-.162,2.7,2.7,0,0,0,.208-.2,5.693,5.693,0,0,0,.377-.447c.019-.024.038-.049.057-.074.058-.077.11-.149.156-.213-.046.063-.1.136-.156.213a.255.255,0,0,0,.116.176.3.3,0,0,0,.3-.031l.64-.369a.881.881,0,0,0,.3-.317.87.87,0,0,0,.124-.418l-.009-3.186a.3.3,0,0,0-.126-.274.3.3,0,0,0-.3.03l-.639.369a.69.69,0,0,0-.141.109l-.037-.076a3.745,3.745,0,0,0-.5-.76,1.489,1.489,0,0,1-.285-.582,3.222,3.222,0,0,1-.1-.578.27.27,0,0,0-.138-.238.318.318,0,0,0-.287.04l-.225.13a1.4,1.4,0,0,0-.638,1.1l.005,1.959-2.132,1.232a1.4,1.4,0,0,0-.638,1.1.55.55,0,0,0,.083.313c.014-.019.028-.036.043-.054-.015.018-.03.035-.043.054a1.565,1.565,0,0,0-.108.162A1.291,1.291,0,0,0,1766.008,13299.29Zm.413-.928,0,0Zm4.571-.3h0Zm.353.352-.009-3.187.64-.368.009,3.185Zm-.114-.08.013-.021Zm-4.822,1.182a1.3,1.3,0,0,1,.45-.476l-.212.122a.155.155,0,0,1-.151.016.151.151,0,0,1-.063-.138.434.434,0,0,1,.062-.21.428.428,0,0,1,.151-.158l.213-.123.64-.369h0l.213-.123a.472.472,0,0,0,.212-.368c0-.136-.1-.189-.214-.122l-.213.124h0l-.64.368h0a.149.149,0,0,1-.151.015.144.144,0,0,1-.063-.137.422.422,0,0,1,.062-.209.414.414,0,0,1,.151-.158l2.345-1.355a.467.467,0,0,0,.213-.368l-.006-2.2a.423.423,0,0,1,.062-.21.429.429,0,0,1,.15-.158l.225-.13a3.649,3.649,0,0,0,.113.651,1.784,1.784,0,0,0,.342.694,3.4,3.4,0,0,1,.46.7,3.469,3.469,0,0,1,.148.33l.007,2.656-.087.124c-.1.145-.241.328-.381.492a2.738,2.738,0,0,1-.267.276.735.735,0,0,1-.117.085l-2.772,1.6a.153.153,0,0,1-.151.017.148.148,0,0,1-.063-.138.466.466,0,0,1,.213-.368l.426-.246a.467.467,0,0,0,.212-.368c0-.136-.1-.191-.214-.121l-.426.245-.427.246a.152.152,0,0,1-.151.016.147.147,0,0,1-.063-.137.424.424,0,0,1,.062-.21.449.449,0,0,1,.151-.159l.853-.492a.468.468,0,0,0,.212-.368c0-.136-.1-.188-.214-.122l-.852.493A1.3,1.3,0,0,0,1766.41,13299.52Zm1.3-1.657c0,.006,0,.011,0,.018S1767.708,13297.868,1767.708,13297.862Zm-.163.289-.021.016Z" transform="translate(-1763.398 -13288.754)" fill="#fff"/>
    </g>
    <g id="Group_13554" data-name="Group 13554" transform="translate(1724.971 13235.476)">
      <path id="Path_13981" data-name="Path 13981" d="M1755.494,13275.852a.781.781,0,0,0-.354.615l.007,2.1c0,.227.161.316.357.2l1.828-1.057a.783.783,0,0,0,.355-.615l-.007-2.1c0-.227-.161-.316-.358-.2Z" transform="translate(-1755.14 -13274.746)" fill="#e3e5ff"/>
    </g>
    <g id="Group_13555" data-name="Group 13555" transform="translate(1741.094 13235.972)">
      <path id="Path_13982" data-name="Path 13982" d="M1793.314,13278.052a1.523,1.523,0,0,0-.69,1.2l.014,4.093c0,.439.313.617.7.4l3.561-2.059a1.523,1.523,0,0,0,.69-1.2l-.014-4.093c0-.44-.313-.617-.7-.4Z" transform="translate(-1792.624 -13275.898)" fill="#e3e5ff"/>
    </g>
    <g id="Group_13561" data-name="Group 13561" transform="translate(1795.101 13254.97)">
      <g id="Group_13557" data-name="Group 13557" transform="translate(0)">
        <path id="Path_13983" data-name="Path 13983" d="M1936.285,13328.761c-.34.173-.695.336-1.033.536a2.631,2.631,0,0,1,1.126,1.948c.312-.2.651-.357.982-.525A2.632,2.632,0,0,0,1936.285,13328.761Z" transform="translate(-1927.911 -13325.021)" fill="#f2cb63"/>
        <path id="Path_13984" data-name="Path 13984" d="M1937.391,13333.84c0,.021,0,.043,0,.064l-.02,6.987a.83.83,0,0,1-.345.76l.98-.569a.831.831,0,0,0,.345-.76l.02-6.988c0-.007,0-.013,0-.02C1938.042,13333.482,1937.7,13333.642,1937.391,13333.84Z" transform="translate(-1928.924 -13327.617)" fill="#e3b63d"/>
        <path id="Path_13985" data-name="Path 13985" d="M1926.94,13323.742l-6.081-3.512a.837.837,0,0,0-.843-.082l-.981.568a.833.833,0,0,1,.843.084l6.081,3.51c.017.01.034.021.051.033.339-.2.693-.363,1.033-.537C1927.01,13323.783,1926.975,13323.762,1926.94,13323.742Z" transform="translate(-1918.67 -13320.068)" fill="#ffe291"/>
        <g id="Group_13556" data-name="Group 13556" transform="translate(0 0.568)">
          <path id="Path_13986" data-name="Path 13986" d="M1925.477,13325.065a2.6,2.6,0,0,1,1.179,2.044l-.024,6.987c0,.752-.535,1.055-1.188.678l-6.079-3.515a2.6,2.6,0,0,1-1.179-2.045l.024-6.988c0-.751.534-1.054,1.188-.677Z" transform="translate(-1918.186 -13321.388)" fill="#ffcd45"/>
        </g>
      </g>
      <g id="Group_13560" data-name="Group 13560" transform="translate(1.56 3.754)">
        <g id="Group_13558" data-name="Group 13558" transform="translate(2.065 2.032)">
          <path id="Path_13987" data-name="Path 13987" d="M1927.4,13333.885a.431.431,0,0,0-.2-.339c-.109-.063-.2-.013-.2.112v1.281c-.229-.037-.394.118-.394.412a1.308,1.308,0,0,0,.393.863v.378a.431.431,0,0,0,.2.34c.108.062.2.012.2-.113v-.378c.229.039.394-.118.394-.411a1.31,1.31,0,0,0-.393-.864Zm-.2,2.031a.429.429,0,0,1-.2-.338c0-.126.088-.176.2-.113a.431.431,0,0,1,.2.339C1927.4,13335.929,1927.312,13335.979,1927.2,13335.916Z" transform="translate(-1926.614 -13333.519)" fill="#fff"/>
        </g>
        <g id="Group_13559" data-name="Group 13559">
          <path id="Path_13988" data-name="Path 13988" d="M1926.678,13332.577l.3-.169a.137.137,0,0,0,.058-.126.4.4,0,0,0-.058-.193l-.556-.958a.409.409,0,0,0-.139-.146.141.141,0,0,0-.14-.014l-.318.183a5.39,5.39,0,0,0-.761-.787v-.3l.2.112c.109.063.2.012.2-.112a.431.431,0,0,0-.2-.34l-.394-.226-.787-.452-.394-.226c-.108-.062-.2-.013-.2.112a.431.431,0,0,0,.2.339l.2.112v.3a1.88,1.88,0,0,0-.762-.089l-.317-.548a.41.41,0,0,0-.139-.146.142.142,0,0,0-.139-.014l-.557.318a.14.14,0,0,0-.058.127.391.391,0,0,0,.058.192l.295.508a2.14,2.14,0,0,0-.448,1.435,5.836,5.836,0,0,0,2.653,4.574c1.465.841,2.657.158,2.658-1.521A4.967,4.967,0,0,0,1926.678,13332.577Zm-.4-1.047.278.479-.122.07c-.088-.164-.183-.321-.285-.476Zm-2-1.919.393.227v.227l-.394-.227Zm-1.613-.16.129.223a1.278,1.278,0,0,0-.286.146l-.122-.209Zm1.8,6.145a4.975,4.975,0,0,1-2.26-3.9,1.762,1.762,0,0,1,.442-1.286.034.034,0,0,0,.014,0,.1.1,0,0,0,.039-.043,1.493,1.493,0,0,1,1.77.036,4.771,4.771,0,0,1,1.768,2,.466.466,0,0,0,.039.089l.013.02a4.315,4.315,0,0,1,.44,1.791C1926.729,13335.729,1925.713,13336.312,1924.465,13335.6Z" transform="translate(-1921.812 -13328.794)" fill="#fff"/>
        </g>
      </g>
    </g>
    <g id="Group_13562" data-name="Group 13562" transform="translate(1798.774 13270.339)">
      <path id="Path_13989" data-name="Path 13989" d="M1928.686,13356.788a.7.7,0,0,1,.317.55l-.006,1.881c0,.2-.144.283-.32.182l-1.636-.946a.7.7,0,0,1-.317-.55l.006-1.88c0-.2.144-.284.32-.182Z" transform="translate(-1926.724 -13355.799)" fill="#e3e5ff"/>
    </g>
    <g id="Group_13563" data-name="Group 13563" transform="translate(1806.483 13268.031)">
      <path id="Path_13990" data-name="Path 13990" d="M1948.468,13352.361a1.364,1.364,0,0,1,.618,1.072l-.012,3.662c0,.393-.281.553-.623.354l-3.186-1.842a1.363,1.363,0,0,1-.618-1.072l.012-3.66c0-.395.28-.553.623-.355Z" transform="translate(-1944.648 -13350.435)" fill="#e3e5ff"/>
    </g>
  </g>
</svg>
