<svg xmlns="http://www.w3.org/2000/svg" width="28.994" height="31.356" viewBox="0 0 28.994 31.356">
  <path id="XMLID_173_" d="M44.507,5.154A6.271,6.271,0,0,0,43,2.089l0-.005a5.824,5.824,0,0,0-1.94-1.46l-.02-.009a6.293,6.293,0,0,0-6.56.7l-.007.006a7.39,7.39,0,0,0-1.661,1.945h0l-.01.018a6.3,6.3,0,0,0-.731,3.664.609.609,0,0,0,.323.476,2.257,2.257,0,0,0,.357.149,5.763,5.763,0,0,0,2.92,3.373,5.684,5.684,0,0,0-1.56,1.173.609.609,0,1,0,.887.834,4.5,4.5,0,0,1,.713-.615,2.62,2.62,0,0,0,2.4,1.809H38.2a2.606,2.606,0,0,0,2.378-1.929,4.5,4.5,0,0,1,2.108,3.778v6.324L37.145,25.91a.609.609,0,1,0,.663,1.021l5.815-3.773a.609.609,0,0,0,.277-.511V15.993a5.644,5.644,0,0,0-3.106-5.053,5.792,5.792,0,0,0,3.2-4.827,2.279,2.279,0,0,0,.441-.545A.607.607,0,0,0,44.507,5.154ZM38.2,12.927h-.091a1.473,1.473,0,0,1-1.344-1.542c0-.01,0-.021,0-.031a5.785,5.785,0,0,0,2.733.05A1.511,1.511,0,0,1,38.2,12.927Zm.036-2.6a4.553,4.553,0,0,1-4.176-2.733,2.28,2.28,0,0,0,1.628-1.84,8.646,8.646,0,0,0,1.1.07,8.286,8.286,0,0,0,3.5-.757,2.277,2.277,0,0,0,2.183,1.638,2.244,2.244,0,0,0,.224-.011A4.57,4.57,0,0,1,38.232,10.326Zm4.235-4.838a1.057,1.057,0,0,1-1.056-1.055V4.094a.609.609,0,0,0-.933-.516,6.928,6.928,0,0,1-3.695,1.028,7.347,7.347,0,0,1-1.554-.165.609.609,0,0,0-.738.595v.369a1.057,1.057,0,0,1-1.055,1.055,1.068,1.068,0,0,1-.118-.007l-.027,0-.041-.006q0-.078,0-.156a5.078,5.078,0,0,1,.613-2.419l0-.008a6.242,6.242,0,0,1,1.35-1.584l0,0a5.075,5.075,0,0,1,5.289-.562l.052.024a4.6,4.6,0,0,1,1.516,1.146l.011.012a5.058,5.058,0,0,1,1.17,2.234A1.058,1.058,0,0,1,42.467,5.488Zm-9.42,15.576A4.664,4.664,0,0,0,34.834,14.9a.617.617,0,0,0-.041-.077,4.666,4.666,0,0,0-8.212,0,.616.616,0,0,0-.04.075,4.664,4.664,0,0,0,1.786,6.166,5.14,5.14,0,0,0-2.788,4.573v2.22a.609.609,0,0,0,.282.514l4.54,2.89a.609.609,0,0,0,.652,0l4.551-2.875a.609.609,0,0,0,.284-.518l-.011-2.236A5.159,5.159,0,0,0,33.047,21.064ZM30.688,13.59a3.443,3.443,0,0,1,2.642,1.234,9.939,9.939,0,0,1-5.285,0A3.443,3.443,0,0,1,30.688,13.59Zm-3.449,3.449a3.434,3.434,0,0,1,.19-1.13,11.08,11.08,0,0,0,6.519,0,3.449,3.449,0,1,1-6.709,1.13Zm4.53,4.541a1.108,1.108,0,0,1-1.038.965h-.074a1.153,1.153,0,0,1-1.091-.976,4.686,4.686,0,0,0,2.2.01Zm-1.079,8.447-3.932-2.5V25.637a3.922,3.922,0,0,1,1.771-3.281,2.389,2.389,0,0,0,2.128,1.407h.074a2.3,2.3,0,0,0,2.082-1.429,3.945,3.945,0,0,1,1.807,3.306l.009,1.9ZM26.316,13.686a.609.609,0,0,0-.2-.838,5.671,5.671,0,0,0-.575-.313,5.748,5.748,0,0,0,1.946-1.625A2.122,2.122,0,0,0,30.307,8.9V7.392a7.391,7.391,0,0,0-7.1-7.386h0C23.044,0,22.889,0,22.737,0a7.391,7.391,0,0,0-7.214,7.39V8.9a2.122,2.122,0,0,0,2.816,2.005,5.742,5.742,0,0,0,2.178,1.736,5.646,5.646,0,0,0-3.04,5.018v4.983a.609.609,0,0,0,.277.511l5.523,3.584a.609.609,0,1,0,.663-1.021l-5.245-3.4V17.664a4.424,4.424,0,0,1,1.755-3.536,2.7,2.7,0,0,0,2.414,1.915h.091a2.781,2.781,0,0,0,2.416-2.227l.108.065A.609.609,0,0,0,26.316,13.686ZM19.15,5.179a4.363,4.363,0,0,0-.6,2.213V8.9a.9.9,0,0,1-.347.711.6.6,0,0,0-.052.038.9.9,0,0,1-1.41-.749V7.392a6.139,6.139,0,0,1,6.026-6.173c.126,0,.256,0,.4,0A6.155,6.155,0,0,1,29.09,7.392V8.9a.9.9,0,0,1-1.41.749.615.615,0,0,0-.052-.038.9.9,0,0,1-.347-.711V7.392a4.389,4.389,0,0,0-3.724-4.319.609.609,0,0,0-.7.555,6.166,6.166,0,0,1-.23,1.252H19.675A.609.609,0,0,0,19.15,5.179Zm3.8,9.646h-.091A1.659,1.659,0,0,1,21.5,13.139a.609.609,0,0,0-.02-.154,5.855,5.855,0,0,0,2.8.018C24.236,13.889,23.566,14.826,22.954,14.826Zm-.039-2.879A4.528,4.528,0,0,1,19.326,10.2a2.111,2.111,0,0,0,.44-1.292V7.392A3.152,3.152,0,0,1,20.044,6.1h3.027a.609.609,0,0,0,.571-.4,7.343,7.343,0,0,0,.343-1.269,3.171,3.171,0,0,1,2.078,2.962V8.9A2.111,2.111,0,0,0,26.5,10.2,4.528,4.528,0,0,1,22.915,11.946Z" transform="translate(-15.523)" fill="#a3a3a3"/>
</svg>
