<svg xmlns="http://www.w3.org/2000/svg" width="107.845" height="127.189" viewBox="0 0 107.845 127.189">
  <g id="Group_13814" data-name="Group 13814" transform="translate(-4469.93 -13322.863)">
    <g id="Group_13714" data-name="Group 13714" transform="translate(4481.27 13371.475)">
      <g id="Group_13698" data-name="Group 13698">
        <g id="Group_13697" data-name="Group 13697" style="isolation: isolate">
          <g id="Group_13694" data-name="Group 13694" transform="translate(0.198)">
            <path id="Path_14220" data-name="Path 14220" d="M4547.576,13452.128l-25.133,14.606-25.3-14.606,25.133-14.606Z" transform="translate(-4497.145 -13437.521)" fill="#ff7fc3"/>
          </g>
          <g id="Group_13695" data-name="Group 13695" transform="translate(25.298 14.606)">
            <path id="Path_14221" data-name="Path 14221" d="M4581.679,13471.974l-.2,9.927-25.133,14.606.2-9.929Z" transform="translate(-4556.348 -13471.974)" fill="#ff51a2"/>
          </g>
          <g id="Group_13696" data-name="Group 13696" transform="translate(0 14.606)">
            <path id="Path_14222" data-name="Path 14222" d="M4522.174,13486.578l-.2,9.928-25.3-14.606.2-9.927Z" transform="translate(-4496.678 -13471.973)" fill="#ff4198"/>
          </g>
        </g>
      </g>
      <g id="Group_13703" data-name="Group 13703" transform="translate(34.645 7.393)">
        <g id="Group_13702" data-name="Group 13702" style="isolation: isolate">
          <g id="Group_13699" data-name="Group 13699" transform="translate(0.198)">
            <path id="Path_14223" data-name="Path 14223" d="M4629.294,13469.564l-25.133,14.606-25.3-14.606,25.133-14.6Z" transform="translate(-4578.863 -13454.96)" fill="#53b9ff"/>
          </g>
          <g id="Group_13700" data-name="Group 13700" transform="translate(25.298 14.606)">
            <path id="Path_14224" data-name="Path 14224" d="M4663.4,13489.41l-.2,15.176-25.133,14.605.2-15.175Z" transform="translate(-4638.066 -13489.41)" fill="#1da4ff"/>
          </g>
          <g id="Group_13701" data-name="Group 13701" transform="translate(0 14.606)">
            <path id="Path_14225" data-name="Path 14225" d="M4603.892,13504.017l-.2,15.175-25.3-14.605.2-15.176Z" transform="translate(-4578.396 -13489.41)" fill="#0499ff"/>
          </g>
        </g>
      </g>
      <g id="Group_13708" data-name="Group 13708" transform="translate(9.331 29.388)">
        <g id="Group_13707" data-name="Group 13707" style="isolation: isolate">
          <g id="Group_13704" data-name="Group 13704" transform="translate(0.198)">
            <path id="Path_14226" data-name="Path 14226" d="M4569.584,13521.446l-25.133,14.605-25.3-14.605,25.133-14.605Z" transform="translate(-4519.153 -13506.841)" fill="#ffdc9a"/>
          </g>
          <g id="Group_13705" data-name="Group 13705" transform="translate(25.298 14.606)">
            <path id="Path_14227" data-name="Path 14227" d="M4603.688,13541.291l-.2,7.777-25.132,14.605.2-7.777Z" transform="translate(-4578.357 -13541.291)" fill="#ffcb60"/>
          </g>
          <g id="Group_13706" data-name="Group 13706" transform="translate(0 14.606)">
            <path id="Path_14228" data-name="Path 14228" d="M4544.182,13555.9l-.2,7.777-25.3-14.605.2-7.777Z" transform="translate(-4518.687 -13541.291)" fill="#ffc23f"/>
          </g>
        </g>
      </g>
      <g id="Group_13713" data-name="Group 13713" transform="translate(46.014 40.175)">
        <g id="Group_13712" data-name="Group 13712" style="isolation: isolate">
          <g id="Group_13709" data-name="Group 13709" transform="translate(0.198)">
            <path id="Path_14229" data-name="Path 14229" d="M4655.972,13546.492l-25.133,14.607-25.16-14.211,25.133-14.605Z" transform="translate(-4605.679 -13532.283)" fill="#0fe4ff"/>
          </g>
          <g id="Group_13710" data-name="Group 13710" transform="translate(25.16 14.21)">
            <path id="Path_14230" data-name="Path 14230" d="M4689.888,13565.8l-.2,4.731-25.133,14.606.2-4.731Z" transform="translate(-4664.557 -13565.8)" fill="#0fd3ff"/>
          </g>
          <g id="Group_13711" data-name="Group 13711" transform="translate(0 14.606)">
            <path id="Path_14231" data-name="Path 14231" d="M4630.569,13580.944l-.2,4.73-25.16-14.21.2-4.731Z" transform="translate(-4605.211 -13566.733)" fill="#00d1ff"/>
          </g>
        </g>
      </g>
    </g>
    <ellipse id="Ellipse_279" data-name="Ellipse 279" cx="5.003" cy="2.341" rx="5.003" ry="2.341" transform="translate(4536.21 13388.791)" opacity="0.15"/>
    <path id="Path_14232" data-name="Path 14232" d="M4664.3,13559.8c-3.7.52-3.1,4.458-.728,5.767s6.71,1.855,7.409,2.584,2.567,2.348,2.567,2.348v4.663s3.422.73,3.92,1.734,3.826,5.559,7.081,3.736-1.2-5.588-7.354-7.759v-4.1a36.722,36.722,0,0,1-3.647-3.209C4672.228,13564.141,4670.586,13558.918,4664.3,13559.8Z" transform="translate(-110.444 -136.426)" opacity="0.1"/>
    <g id="Group_13717" data-name="Group 13717" transform="translate(4552.597 13388.429)">
      <path id="Path_14233" data-name="Path 14233" d="M4666.91,13554.9a1.973,1.973,0,0,0-1.793.653c-.408.447-.082,2.281,0,2.606s1.019,1.1,1.344,1.467.041,1.3.9,2.282,2.647.9,3.1.855.578-1.387.245-1.9c-.74-1.148-1.98-1.849-2.1-2.354s-.261-1.813-.261-1.813Z" transform="translate(-4664.916 -13522.076)" fill="#002283"/>
      <ellipse id="Ellipse_280" data-name="Ellipse 280" cx="3.528" cy="3.279" rx="3.528" ry="3.279" transform="translate(11.055 20.297)" fill="#313cc4"/>
      <path id="Path_14234" data-name="Path 14234" d="M4705.485,13529.267a6.419,6.419,0,0,0,0-2.837l-1.581,1.138Z" transform="translate(-4687.375 -13505.69)" fill="#313cc4"/>
      <path id="Path_14235" data-name="Path 14235" d="M4684.681,13531.977c-.1,2.112-3.762,9.554-4.962,10.034s-1.98-.061-3,0a59.889,59.889,0,0,0-6.121,1.74l-1.2,1.08a8.261,8.261,0,0,1-1.566-1.486c-.24-.48.606-2.475.606-2.475l1.74-.421s2.08-1.991,3.681-2.046a8.343,8.343,0,0,0,2.264-.294l1.623-6.976Z" transform="translate(-4666.57 -13508.4)" fill="#313cc4"/>
      <path id="Path_14236" data-name="Path 14236" d="M4700.854,13594.147s-.4,1.205-.183,1.617a2.794,2.794,0,0,0,1.7.8c.46.048.9,2.134,1.625,2.28a8.769,8.769,0,0,0,3.639.363c1.237-.315.7-1.285-.219-1.916s-1.94-1.067-2.231-1.723a16.057,16.057,0,0,0-.849-1.552Z" transform="translate(-4685.475 -13544.624)" fill="#002283"/>
      <ellipse id="Ellipse_281" data-name="Ellipse 281" cx="3.528" cy="3.279" rx="3.528" ry="3.279" transform="translate(9.079 22.387)" fill="#3e4bf6"/>
      <path id="Path_14237" data-name="Path 14237" d="M4686.032,13533.208c-.566-2.022-.189-4.321.411-4.6l3.083,1.364-2.008,3.8Z" transform="translate(-4676.919 -13506.942)" fill="#3e4bf6"/>
      <path id="Path_14238" data-name="Path 14238" d="M4686.521,13539.7c.57,2.468,3.99,7.809,4.891,9.309s.66,1.953.66,1.953a7.132,7.132,0,0,0,.029,4.815,12.693,12.693,0,0,1,.571,5.28l.068,1.8a4.244,4.244,0,0,0,1.732.779,6.229,6.229,0,0,0,2.04-.84s-.42-3.84-.42-4.561-.24-7.275-.24-7.275a5.812,5.812,0,0,0-.42-3.514c-.84-1.86-2.341-6.924-2.341-6.924Z" transform="translate(-4677.361 -13513.335)" fill="#3e4bf6"/>
      <path id="Path_14239" data-name="Path 14239" d="M4695.744,13532.609l.395-3.79-5.715-.216,1.443,3.432Z" transform="translate(-4679.609 -13506.942)" fill="#3e4bf6"/>
      <path id="Path_14240" data-name="Path 14240" d="M4708.632,13494.3a2.762,2.762,0,0,1,1.85,2.379c.191,1.032,2.952,6.243,2.952,7.414s-1.3,2.1-2.185.984-1.841-3.34-2.8-4.528S4708.632,13494.3,4708.632,13494.3Z" transform="translate(-4689.773 -13487.186)" fill="#abc2fe"/>
      <g id="Group_13715" data-name="Group 13715" transform="translate(8.258)">
        <path id="Path_14241" data-name="Path 14241" d="M4691.6,13493.565c2.745-.289,3.869.087,4.155.961a3.285,3.285,0,0,1-.421,2.795,7.1,7.1,0,0,1-.215,2.466c-.359,1.343-.771,6.482-.906,7.266s.031,1.391-.191,1.768a5.177,5.177,0,0,1-2.512,1.51c-1.121.281-4.385.435-5.487-.762s-.182-1.664-.066-3.19-1.992-5.571-1.487-7.935S4688.806,13493.858,4691.6,13493.565Z" transform="translate(-4684.394 -13486.704)" fill="#d4dcff"/>
        <circle id="Ellipse_282" data-name="Ellipse 282" cx="3.135" cy="3.135" r="3.135" transform="translate(2.975 0.532)" fill="#ffb1d0"/>
        <path id="Path_14242" data-name="Path 14242" d="M4698.3,13494.1a3.722,3.722,0,0,0-.126.891,4.271,4.271,0,0,0,.1.756,1.491,1.491,0,0,1-1.541.535c-1.08-.186-2.117-1.053-2.054-1.779a7.408,7.408,0,0,0,.242-2.061l.179-.3Z" transform="translate(-4690.316 -13485.939)" fill="#ff8996"/>
        <path id="Path_14243" data-name="Path 14243" d="M4699.442,13486.59a9.26,9.26,0,0,1-.529,3.231c-.3.631-.384,1.068-.6,1.181a2.167,2.167,0,0,1-.917.323,8.4,8.4,0,0,1-2.424-1.507,3.3,3.3,0,0,1-.507-1.549Z" transform="translate(-4690.197 -13482.742)" fill="#ffb1d0"/>
        <path id="Path_14244" data-name="Path 14244" d="M4702.5,13488.465s.329,1.6.409,1.748-.187.359-.328.41a1.151,1.151,0,0,1-.583-.036s.116.37.455.354a.732.732,0,0,0,.589-.537C4703.059,13490.267,4702.5,13488.465,4702.5,13488.465Z" transform="translate(-4694.537 -13483.821)" fill="#ff8996"/>
        <path id="Path_14245" data-name="Path 14245" d="M4691.723,13482.462l.179.737c.073.3.526.531.526.531s.193-.323.346-.645a1.556,1.556,0,0,1,.643-.616c-.089-.2-.457-.732,0-1.209s1.674-.517,2.257-.538.654.139.654.139c.308.058.184.5.184.5s.129.1.171.493c0,0,.076-.245.332-.959,0,0,.849-.38.712-.517s-.531-.517-.531-.517,1-.668.842-1.032-.957-.516-1.34-.516h-.383s.422-.5.06-.729-1.729.152-2.276.152a1.871,1.871,0,0,0-1.26-.137c-.79.151-2.188.838-2.262,1.867,0,0-1.032-.113-.85,1.173a20.238,20.238,0,0,0,1.037,3,1.616,1.616,0,0,0,1.242,1.14l-.093-.6-.564-.629Z" transform="translate(-4687.452 -13477.513)" fill="#002283"/>
        <path id="Path_14246" data-name="Path 14246" d="M4697.06,13497.213s-2.453-1.154-2.933-2.42a2.383,2.383,0,0,0,.072-.818s-.188.248-.449.563a1.271,1.271,0,0,0-.3,1.141,7.194,7.194,0,0,0,2.451,3.334s.113-1.363.378-1.51A4.741,4.741,0,0,1,4697.06,13497.213Z" transform="translate(-4689.606 -13486.995)" fill="#ebeeff"/>
        <path id="Path_14247" data-name="Path 14247" d="M4701.975,13499.149a2.4,2.4,0,0,0,.437-1.03,1.291,1.291,0,0,1-.034-.4,1.7,1.7,0,0,1,.048-.307l.206-.072a2.341,2.341,0,0,1,.716,1.849l-.085.974s-.413-.993-.746-1.063A.794.794,0,0,0,4701.975,13499.149Z" transform="translate(-4694.521 -13488.932)" fill="#ebeeff"/>
        <path id="Path_14248" data-name="Path 14248" d="M4701.461,13501.463a3.924,3.924,0,0,1,.043,1.223.772.772,0,0,1-.336.191c-.168.025-.478.109-.655,0s-.374-1.068-.374-1.068A2.653,2.653,0,0,1,4701.461,13501.463Z" transform="translate(-4693.464 -13491.301)" fill="#f7567e"/>
        <path id="Path_14249" data-name="Path 14249" d="M4701.144,13504.365s.451.333.466,1.7-.418,8.871-.418,8.871-.746,1.248-.885,1.234-.793-.99-.793-.99.675-6.334.8-7.719a12.674,12.674,0,0,0-.157-2.91Z" transform="translate(-4693.104 -13492.98)" fill="#f7567e"/>
        <path id="Path_14250" data-name="Path 14250" d="M4695.548,13510.078s-.6.513-.917.483-1.319.017-1.319.017l.052.875-.234,1.2a4.111,4.111,0,0,0,1.271.527c.479.042.938-.726.938-.726l.165-1.895Z" transform="translate(-4689.426 -13496.271)" fill="#abc2fe"/>
        <path id="Path_14251" data-name="Path 14251" d="M4693.3,13490.18s-.14.2-.654-.007-1.187-1.519-.746-1.914.671-.082,1.005.287Z" transform="translate(-4688.637 -13483.598)" fill="#ffb1d0"/>
        <path id="Path_14252" data-name="Path 14252" d="M4692.993,13489.033s-.261-.331-.49-.213-.348.221-.23.616C4692.272,13489.437,4692.438,13488.654,4692.993,13489.033Z" transform="translate(-4688.906 -13484.012)" fill="#ff8996"/>
      </g>
      <path id="Path_14253" data-name="Path 14253" d="M4714.1,13516.084c1.061.294,1.055,2.349-1.223,3.976-.814.582-.621,1.318-.97,1.356s-1.144.588-1.6-.287-.552-1.721,0-1.86,1.613-1.923,1.936-2.31S4713.457,13515.906,4714.1,13516.084Z" transform="translate(-4690.843 -13499.714)" fill="#d4dcff"/>
      <path id="Path_14254" data-name="Path 14254" d="M4710.351,13524.354a.547.547,0,0,1,.533-.3,1.006,1.006,0,0,1,1.107.6,3.276,3.276,0,0,1,.156,1c0,.13-.292.064-.292.064Z" transform="translate(-4691.088 -13504.32)" fill="#abc2fe"/>
      <path id="Path_14255" data-name="Path 14255" d="M4710.985,13524.563a.922.922,0,0,1,1.04.668c.294.824,0,.686,0,.686s-.726.508-1.04.01S4710.71,13524.66,4710.985,13524.563Z" transform="translate(-4691.326 -13504.608)" fill="#ffb1d0"/>
      <path id="Path_14256" data-name="Path 14256" d="M4708.706,13524.579l-1.8.338a2.216,2.216,0,0,1,1.175.7,1.788,1.788,0,0,1,.383,1.068,1.461,1.461,0,0,0,.938-.376C4709.987,13525.66,4708.706,13524.579,4708.706,13524.579Z" transform="translate(-4689.106 -13504.625)" fill="#ffb1d0"/>
      <path id="Path_14257" data-name="Path 14257" d="M4705.888,13525.376c-.317.211-.839,1.165-.739,1.365s.105.719.211.719a2.994,2.994,0,0,0,1.1.346c.508-.021.962-.133.988-.664v-1.471Z" transform="translate(-4688.084 -13505.084)" fill="#ffb1d0"/>
      <path id="Path_14258" data-name="Path 14258" d="M4676.966,13502.133a29.919,29.919,0,0,0-6.265,5.906c-.637,1.029-.356,3.643,1.2,3.006a7.924,7.924,0,0,0,2.846-1.906c.991-.855,3.114-1.977,3.574-2.832s1.8-1.863.754-3.283S4676.966,13502.133,4676.966,13502.133Z" transform="translate(-4668.065 -13491.639)" fill="#ebeeff"/>
      <g id="Group_13716" data-name="Group 13716" transform="translate(1.965 16.754)">
        <path id="Path_14259" data-name="Path 14259" d="M4682.054,13535.27a3.246,3.246,0,0,1,.863.3,2.008,2.008,0,0,1,.408.528s.048.431.073.565,0,.4-.369.174A5.682,5.682,0,0,1,4682.054,13535.27Z" transform="translate(-4676.752 -13527.537)" fill="#ffb1d0"/>
        <path id="Path_14260" data-name="Path 14260" d="M4677.969,13536.217s.244,1.68.657,2.046.565,0,.565,0a.547.547,0,0,0,.51.076c.239-.122.144-.214.144-.214s.516.225.684.011a.616.616,0,0,0,.122-.458s.413-.041.413-.328a1.67,1.67,0,0,0-.459-1.047c-.3-.321-.9-1.033-.9-1.033Z" transform="translate(-4674.399 -13527.537)" fill="#ffb1d0"/>
        <path id="Path_14261" data-name="Path 14261" d="M4676.966,13535.144l.38.541a2.038,2.038,0,0,0,1.341-.271,1.694,1.694,0,0,0,.58-.89l-.28-.5Z" transform="translate(-4673.822 -13526.818)" fill="#abc2fe"/>
        <path id="Path_14262" data-name="Path 14262" d="M4670.057,13517.03c-.848-.021-.619,2.965.578,4.66a8.312,8.312,0,0,1,1.59,3.083c.068.444.376.786.684.786a2.244,2.244,0,0,0,1.778-.718c.411-.649-.035-1.061-.376-1.641a9.876,9.876,0,0,1-1.146-2.982C4673.165,13519.56,4671.462,13517.065,4670.057,13517.03Z" transform="translate(-4669.55 -13517.03)" fill="#ebeeff"/>
      </g>
    </g>
    <path id="Path_14263" data-name="Path 14263" d="M4530.4,13470.859c3.265,2.842,6.109,1.914,8.287-1.9s6.681-4.436,9.522-5.128,4.972-1.939,2.555-3.88-6.019,0-6.539,1.731-5.708,4.682-7.168,4.593S4526.454,13467.42,4530.4,13470.859Z" transform="translate(-34.269 -78.503)" opacity="0.15"/>
    <g id="Group_13720" data-name="Group 13720" transform="translate(4495.485 13338.087)">
      <path id="Path_14264" data-name="Path 14264" d="M4568.308,13460.662a5.692,5.692,0,0,0-.206,1.18,3.681,3.681,0,0,0,.627,1.232c.1.145.82.627,1.81-.363s1.834.074,2.559-.988,1.182-1.955.6-2.293-1.23.217-1.762.361-1.149.367-1.286.111Z" transform="translate(-4552.036 -13416.693)" fill="#7d3d0b"/>
      <circle id="Ellipse_283" data-name="Ellipse 283" cx="3.521" cy="3.521" r="3.521" transform="translate(9.23 21.859)" fill="#2b2b57"/>
      <path id="Path_14265" data-name="Path 14265" d="M4552.54,13413.471c.184-.7-.056-1.42.54-1.584l.858.792Z" transform="translate(-4543.071 -13389.368)" fill="#2b2b57"/>
      <path id="Path_14266" data-name="Path 14266" d="M4557.763,13420.893s3.634,3.738,3.76,5.387a7.8,7.8,0,0,0,0,3.111,50.636,50.636,0,0,1,.829,6.734s2.11.629,2.344-.76a74.851,74.851,0,0,1,0-8.268s.145-.062,0-1.389-1.167-7.48-2.344-8.982Z" transform="translate(-4546.08 -13392.156)" fill="#2b2b57"/>
      <path id="Path_14267" data-name="Path 14267" d="M4532.032,13474.915c-.322.342-1.241.676-1.38,1.122a8.889,8.889,0,0,1-.446,1.059,2.922,2.922,0,0,0,1.17,1.338c.7.278.975,2.034,2.118,2.034s2.953-.028,2.786-.864-.836-.7-1.282-.919a1.68,1.68,0,0,1-1.031-1.2,5.859,5.859,0,0,1,.273-1.909Z" transform="translate(-4530.206 -13425.676)" fill="#7d3d0b"/>
      <circle id="Ellipse_284" data-name="Ellipse 284" cx="3.521" cy="3.521" r="3.521" transform="translate(10.628 24.062) rotate(-9.217)" fill="#2b2b57"/>
      <path id="Path_14268" data-name="Path 14268" d="M4568.538,13416.906a8.476,8.476,0,0,1-.337,2.873l-3.4-.293,1.338-3.516Z" transform="translate(-4550.137 -13391.72)" fill="#2b2b57"/>
      <g id="Group_13719" data-name="Group 13719" transform="translate(3.615)">
        <path id="Path_14269" data-name="Path 14269" d="M4565.347,13376.21a.435.435,0,0,0-.49.438c-.019.241-.1,1.531-.1,1.531a2.292,2.292,0,0,1-1.785.466c-.823-.274-1.441-.685-1.418-1.189s.367-.786.423-1.217a5.35,5.35,0,0,0,.1-1.725c-.132-.41,1.065-.275,1.745.172s.938.641.938.641Z" transform="translate(-4551.878 -13367.698)" fill="#ffb1d0"/>
        <circle id="Ellipse_285" data-name="Ellipse 285" cx="3.135" cy="3.135" r="3.135" transform="translate(8.983 1.205)" fill="#ffb1d0"/>
        <path id="Path_14270" data-name="Path 14270" d="M4559.228,13367.383a.846.846,0,0,0-.458.882c.019.707,1.328,1.947,1.415,2.284a2.222,2.222,0,0,0,.323.658,1.411,1.411,0,0,1,.6-.091,1.322,1.322,0,0,1,.835.3l.953-1.116.477-1.3.248-1.582Z" transform="translate(-4550.275 -13363.732)" fill="#e3b63d"/>
        <path id="Path_14271" data-name="Path 14271" d="M4566.725,13372.049s-.2.824.052,1.12a.292.292,0,0,0,.473.036Z" transform="translate(-4554.814 -13366.42)" fill="#cca437"/>
        <path id="Path_14272" data-name="Path 14272" d="M4563.056,13367.761c-.63.192-1.718.341-1.879.737a1.538,1.538,0,0,0,0,.9s-.5-.355-.432-.821l.069-.465s-.752.51-1.007.188-.056-.92-.056-.92Z" transform="translate(-4550.797 -13363.732)" fill="#cca437"/>
        <path id="Path_14273" data-name="Path 14273" d="M4565.646,13360.787a1.409,1.409,0,0,0-1.121-1.373,6.146,6.146,0,0,1-1.3-.506c-.514-.271-.881-.094-1.019.14a6.144,6.144,0,0,0-1.832-.183c-.505.13-.446.811-.446.811a.579.579,0,0,0-.75.224,1.668,1.668,0,0,0-.208.888.763.763,0,0,0-.581.655c-.062.551.578,1.265,1.985,1.394a5.546,5.546,0,0,0,3.025-.377,4.734,4.734,0,0,1,1.71-.352l.541-.7Z" transform="translate(-4550.052 -13358.771)" fill="#ffd461"/>
        <path id="Path_14274" data-name="Path 14274" d="M4563.9,13363.461a10.341,10.341,0,0,0-1.716-.562c-.671-.116-1.671-.23-1.671-.23l-.132-.122a3.618,3.618,0,0,1,1.991-.163A4.638,4.638,0,0,1,4563.9,13363.461Z" transform="translate(-4551.203 -13360.799)" fill="#e3b63d"/>
        <path id="Path_14275" data-name="Path 14275" d="M4571.668,13365.385s.644-1.209.377-1.859c0,0-.089,1.014-.723,1.213s-1.4.158-1.679.631a7.275,7.275,0,0,0-.118,2.4.281.281,0,0,0,.474.189l.006-.006.4-.936a6.123,6.123,0,0,1-.086-1Z" transform="translate(-4556.45 -13361.51)" fill="#e3b63d"/>
        <path id="Path_14276" data-name="Path 14276" d="M4559.761,13363.018a5.552,5.552,0,0,1,2.065.085,6.192,6.192,0,0,0-1.511-.458A.814.814,0,0,0,4559.761,13363.018Z" transform="translate(-4550.846 -13361.002)" fill="#cca437"/>
        <path id="Path_14277" data-name="Path 14277" d="M4571.133,13369.01a11.483,11.483,0,0,1-.1,2.209c-.169,1.03-.532,1.493-.5,1.732s-.484.279-.889.249-.937,0-1.046-.468a2.823,2.823,0,0,1-.1-.629Z" transform="translate(-4555.88 -13364.67)" fill="#ffb1d0"/>
        <path id="Path_14278" data-name="Path 14278" d="M4570.379,13378.166c-.458.012-1.589-.587-1.761-.416s-.034.923-.069,1.137.28.395.28.395.035-.958.242-1.018a4.268,4.268,0,0,1,.809-.038A4.515,4.515,0,0,0,4570.379,13378.166Z" transform="translate(-4555.897 -13369.688)" fill="#ff8996"/>
        <path id="Path_14279" data-name="Path 14279" d="M4574.194,13371a14.261,14.261,0,0,1,.342,1.387c.017.263-.722.247-.722.247Z" transform="translate(-4558.941 -13365.814)" fill="#ffb1d0"/>
        <path id="Path_14280" data-name="Path 14280" d="M4568.453,13374.724s-.117.377-.687.077l.126-.241Z" transform="translate(-4555.457 -13367.867)" fill="#ff8996"/>
        <path id="Path_14281" data-name="Path 14281" d="M4568.013,13370.516s-.084-.613-.6-.485a1.116,1.116,0,0,0-.395,1.609c.395.5.452.568.9.465Z" transform="translate(-4554.916 -13365.248)" fill="#ffb1d0"/>
        <path id="Path_14282" data-name="Path 14282" d="M4568.05,13370.787a.267.267,0,0,0-.418-.08.8.8,0,0,0-.224.98s.063-.721.274-.777A3.2,3.2,0,0,0,4568.05,13370.787Z" transform="translate(-4555.197 -13365.604)" fill="#ff8996"/>
        <path id="Path_14283" data-name="Path 14283" d="M4574.536,13374.268a1.045,1.045,0,0,1-.722.045l.234.2S4574.535,13374.51,4574.536,13374.268Z" transform="translate(-4558.941 -13367.698)" fill="#ff8996"/>
        <path id="Path_14284" data-name="Path 14284" d="M4584.8,13394.917s-.334-.051-.6-.662,0-.771,0-.771l.412-.133Z" transform="translate(-4564.858 -13378.691)" fill="#ffb1d0"/>
        <path id="Path_14285" data-name="Path 14285" d="M4586.759,13393.6s.1-1.267.085-1.5-.009-.425-.161-.506c-.187-.1-.343-.354-.591-.278l-.247.075a.624.624,0,0,0-.462-.086.443.443,0,0,0-.3.214.409.409,0,0,0-.333.1.781.781,0,0,0-.1.869,2.63,2.63,0,0,1,.226.516s.054.867.2.862S4586.759,13393.6,4586.759,13393.6Z" transform="translate(-4565.136 -13377.503)" fill="#ffb1d0"/>
        <path id="Path_14286" data-name="Path 14286" d="M4587.547,13397.048l-.089-.606s-.189-.319-.857-.3a1,1,0,0,0-.892.568l.074.469Z" transform="translate(-4565.793 -13380.298)" fill="#ebeeff"/>
        <path id="Path_14287" data-name="Path 14287" d="M4587.563,13402.745c1.084-1.479.149-3.56.149-4.737a.915.915,0,0,0-.763-1c-.554-.1-1.386.276-1.213.762a5.557,5.557,0,0,1-.023,1.941c-.046.139.335,2.772.335,2.772Z" transform="translate(-4565.793 -13380.784)" fill="#46468c"/>
        <g id="Group_13718" data-name="Group 13718" transform="translate(0 8.783)">
          <path id="Path_14288" data-name="Path 14288" d="M4538.991,13398.74c1.181,1.352,3.451,1.213,4.758,1.443a12.554,12.554,0,0,0,2.405.185l.289-1.642a41.524,41.524,0,0,1-4.755-1.377c-1.464-.618-1.957-.07-1.957-.07Z" transform="translate(-4538.882 -13389.607)" fill="#37376e"/>
          <path id="Path_14289" data-name="Path 14289" d="M4546.809,13379.736a3.281,3.281,0,0,0-4.279,1.893c-.785,1.982-4.473,5.793-3.687,6.992s3.579.133,3.826-1.2c.237-1.275,3.879-4.541,3.927-5.521S4547.5,13380.072,4546.809,13379.736Z" transform="translate(-4538.733 -13379.487)" fill="#37376e"/>
        </g>
        <path id="Path_14290" data-name="Path 14290" d="M4559.791,13381.181c1.238.784,3.241,2.186,3.287,3.578s-2.312,8.006-2.216,9.062.678,1.814.032,2.455-3.94.736-5.533,0-3.048-2.586-2.707-3.438a25.784,25.784,0,0,0,.456-3.987c.181-1.271-1.148-2.714-1.131-4.977s.436-3.836,1.744-4.262a8.826,8.826,0,0,1,3.675.157Z" transform="translate(-4546.364 -13370.687)" fill="#46468c"/>
        <path id="Path_14291" data-name="Path 14291" d="M4574.25,13390.637c-.464-1.239-3.028-2.262-3.745-1.051a3.634,3.634,0,0,0,.672,4.19c1.151,1.42,5.789,5.506,7.394,4.394S4575.267,13393.354,4574.25,13390.637Z" transform="translate(-4556.801 -13376.209)" fill="#5b5bb5"/>
        <path id="Path_14292" data-name="Path 14292" d="M4563.98,13360.622c.763.253,1.6.59,1.6.59a13.324,13.324,0,0,0-1.528-1.058,2.836,2.836,0,0,0-1.43-.074c-.173.052-.257.313-.257.313A8.264,8.264,0,0,1,4563.98,13360.622Z" transform="translate(-4552.346 -13359.492)" fill="#e3b63d"/>
        <path id="Path_14293" data-name="Path 14293" d="M4567.4,13359.294s1.046.311,1.211.387c0,0-.669-.507-.916-.481S4567.4,13359.294,4567.4,13359.294Z" transform="translate(-4555.243 -13359.018)" fill="#cca437"/>
        <path id="Path_14294" data-name="Path 14294" d="M4562.023,13360.473a5.024,5.024,0,0,1,1.76.227,3.845,3.845,0,0,0-1.358-.543C4562.211,13360.131,4562.023,13360.473,4562.023,13360.473Z" transform="translate(-4552.149 -13359.569)" fill="#cca437"/>
        <path id="Path_14295" data-name="Path 14295" d="M4565.07,13380.31l-.291-.979a7.882,7.882,0,0,0-3.019-1.4l-.689.665s-.021.317,1,.688S4564.794,13380.114,4565.07,13380.31Z" transform="translate(-4551.601 -13369.81)" fill="#ebeeff"/>
        <path id="Path_14296" data-name="Path 14296" d="M4564.708,13381.259a9.149,9.149,0,0,0-1.613-1.364,13.84,13.84,0,0,1-2.8-1.194l-1.159.34s-.231.789.807,1.211S4563.9,13380.933,4564.708,13381.259Z" transform="translate(-4550.475 -13370.252)" fill="#5b5bb5"/>
      </g>
      <path id="Path_14297" data-name="Path 14297" d="M4535.371,13441.194c.358-.742.687-1.441.884-1.9.631-1.451,4.292-5.015,5.112-5.354a85.432,85.432,0,0,0,2.352-9.4l6.312-2.147c-.4,5.512-4.877,12.392-4.877,12.392a2.348,2.348,0,0,1-.947,1.451,37.036,37.036,0,0,0-5.492,5.48h0l-2.049,3.516-.657.615-.42.942a4.17,4.17,0,0,1-1.715-.49,2.671,2.671,0,0,1-.828-1.2Z" transform="translate(-4531.842 -13395.422)" fill="#2b2b57"/>
      <path id="Path_14298" data-name="Path 14298" d="M4542.869,13442.081c.522-.977,4.017-3.365,4.793-4.007a15.7,15.7,0,0,0,1.422-1.35v-1.35s.063-.439,1.076-1.587,4.237-8.831,4.237-8.831h0l-.353,1.669a38.614,38.614,0,0,1-4.4,9.636,2.346,2.346,0,0,1-.947,1.452,37.067,37.067,0,0,0-5.492,5.48l-2.049,3.516-.016.014-.3-.287S4542.347,13443.06,4542.869,13442.081Z" transform="translate(-4536.334 -13396.897)" fill="#46468c"/>
      <path id="Path_14299" data-name="Path 14299" d="M4561.453,13401.341l-.767,3.717a24.236,24.236,0,0,1,.383,3.588c-.154.246.2.591-1.433,1.147s-4.69-.162-5.19-.279-.35-1.594-.35-1.594-.6,1.125-1.125.875a4.422,4.422,0,0,1-1.8-2.525c-.225-1.1,1.346-4.1,1.435-6.238Z" transform="translate(-4542.271 -13382.539)" fill="#46468c"/>
    </g>
    <g id="Group_13724" data-name="Group 13724" transform="translate(4541.712 13322.863)">
      <g id="Group_13722" data-name="Group 13722">
        <path id="Path_14300" data-name="Path 14300" d="M4664.661,13323.511a.627.627,0,0,0-.256-.078l-6.025-.566a1.053,1.053,0,0,0-.615.163l-17.307,9.851a2.678,2.678,0,0,0-1.215,2.1l.023,8.077a.85.85,0,0,0,.355.781l.41.238a.849.849,0,0,1-.355-.781l-.023-8.077a2.672,2.672,0,0,1,1.215-2.1l17.306-9.852a1.062,1.062,0,0,1,.616-.163l6.024.566a.616.616,0,0,1,.257.08Z" transform="translate(-4639.243 -13322.863)" fill="#e0f0ff"/>
        <g id="Group_13721" data-name="Group 13721" transform="translate(0.41 0.238)">
          <path id="Path_14301" data-name="Path 14301" d="M4658.731,13323.592a1.058,1.058,0,0,1,.616-.164l6.024.567c.808.075.812,1.413.007,2.419l-6,7.51a2.275,2.275,0,0,1-.614.547l-17.306,9.851c-.673.389-1.221.076-1.223-.7l-.023-8.076a2.677,2.677,0,0,1,1.215-2.1Z" transform="translate(-4640.211 -13323.425)" fill="#93c2ed"/>
        </g>
      </g>
      <g id="Group_13723" data-name="Group 13723" transform="translate(1.806 1.649)">
        <path id="Path_14302" data-name="Path 14302" d="M4660.783,13326.752l5.991.563-5.968,7.469-17.282,9.836-.022-8.031Z" transform="translate(-4643.502 -13326.752)" fill="#238ae8"/>
      </g>
    </g>
    <g id="Group_13728" data-name="Group 13728" transform="translate(4514.369 13322.864)">
      <g id="Group_13726" data-name="Group 13726" transform="translate(0)">
        <path id="Path_14303" data-name="Path 14303" d="M4600.838,13333.074l-17.473-10.034a1.125,1.125,0,0,0-.652-.174l-6.383.6a.65.65,0,0,0-.271.084l-.434.252a.679.679,0,0,1,.271-.084l6.382-.6a1.115,1.115,0,0,1,.652.172l17.473,10.034a2.838,2.838,0,0,1,1.288,2.229l-.025,8.556a.9.9,0,0,1-.376.829l.434-.254a.9.9,0,0,0,.377-.828l.024-8.556A2.833,2.833,0,0,0,4600.838,13333.074Z" transform="translate(-4575.253 -13322.863)" fill="#e0f0ff"/>
        <g id="Group_13725" data-name="Group 13725" transform="translate(0 0.252)">
          <path id="Path_14304" data-name="Path 14304" d="M4599.9,13333.668a2.841,2.841,0,0,1,1.287,2.23l-.025,8.555c0,.82-.582,1.151-1.295.738l-17.473-10.033a2.369,2.369,0,0,1-.651-.579l-6.358-7.955c-.851-1.065-.847-2.481.008-2.562l6.382-.6a1.122,1.122,0,0,1,.652.173Z" transform="translate(-4574.749 -13323.459)" fill="#b8ddff"/>
        </g>
      </g>
      <g id="Group_13727" data-name="Group 13727" transform="translate(1.597 1.746)">
        <path id="Path_14305" data-name="Path 14305" d="M4602.309,13337l-.024,8.508-17.447-10.019-6.323-7.911,6.347-.6Z" transform="translate(-4578.515 -13326.982)" fill="#42a5ff"/>
      </g>
    </g>
    <g id="Group_13732" data-name="Group 13732" transform="translate(4540.287 13329.601)">
      <g id="Group_13731" data-name="Group 13731" transform="translate(0 0)" style="isolation: isolate">
        <g id="Group_13729" data-name="Group 13729" transform="translate(0 0.512)">
          <path id="Path_14306" data-name="Path 14306" d="M4637.713,13339.965l-.056,60.711a.439.439,0,0,1-.258.359,1.382,1.382,0,0,1-1.256,0,.443.443,0,0,1-.262-.365l.055-60.709a.448.448,0,0,0,.262.367,1.394,1.394,0,0,0,1.256,0A.44.44,0,0,0,4637.713,13339.965Z" transform="translate(-4635.882 -13339.961)" fill="#c4c9ff"/>
        </g>
        <g id="Group_13730" data-name="Group 13730" transform="translate(0.055)">
          <path id="Path_14307" data-name="Path 14307" d="M4637.526,13338.905a.384.384,0,0,1,0,.728,1.381,1.381,0,0,1-1.255,0,.384.384,0,0,1,0-.728A1.388,1.388,0,0,1,4637.526,13338.905Z" transform="translate(-4636.012 -13338.755)" fill="#d9dcff"/>
        </g>
      </g>
    </g>
    <g id="Group_13736" data-name="Group 13736" transform="translate(4541.37 13334.815)">
      <g id="Group_13734" data-name="Group 13734" transform="translate(0 0)">
        <g id="Group_13733" data-name="Group 13733" transform="translate(0 0.253)">
          <path id="Path_14308" data-name="Path 14308" d="M4656.851,13361.594a2.428,2.428,0,0,1,.653.58l6.378,7.982c.855,1.07.851,2.49-.007,2.572l-6.4.6a1.132,1.132,0,0,1-.654-.174l-17.091-9.766a2.842,2.842,0,0,1-1.292-2.236l.024-8.582c0-.822.584-1.154,1.3-.742Z" transform="translate(-4638.436 -13351.653)" fill="#b8ddff"/>
        </g>
        <path id="Path_14309" data-name="Path 14309" d="M4664.865,13369.56l-6.379-7.981a2.4,2.4,0,0,0-.653-.582l-17.09-9.762a.916.916,0,0,0-.922-.092l-.436.255a.912.912,0,0,1,.922.09l17.091,9.763a2.377,2.377,0,0,1,.653.581l6.379,7.981c.752.94.839,2.153.265,2.487l.436-.254C4665.7,13371.712,4665.617,13370.5,4664.865,13369.56Z" transform="translate(-4638.982 -13351.056)" fill="#e0f0ff"/>
      </g>
      <g id="Group_13735" data-name="Group 13735" transform="translate(0.868 1.835)">
        <path id="Path_14310" data-name="Path 14310" d="M4657.572,13365.132l6.343,7.937-6.368.6-17.064-9.749.023-8.536Z" transform="translate(-4640.483 -13355.383)" fill="#42a5ff"/>
      </g>
    </g>
    <g id="Group_13755" data-name="Group 13755" transform="translate(4495.615 13397.341)">
      <path id="Path_14311" data-name="Path 14311" d="M4556.114,13544.629c-3.249.433-9.886,5.98-9.886,5.98l.182,6.69-.182-.146.044,7.661c2.05,1.583,4.126-2.409,3.933-4.492,0,0,.119-5.852.377-7.153.156-.787,4.257-2.4,6.734-4.216S4559.363,13544.2,4556.114,13544.629Z" transform="translate(-4539.565 -13525.062)" opacity="0.1"/>
      <g id="Group_13754" data-name="Group 13754" transform="translate(0)">
        <g id="Group_13753" data-name="Group 13753">
          <path id="Path_14312" data-name="Path 14312" d="M4539.881,13548.75a3.38,3.38,0,0,0,2.319,4.6c2.694.668,3.084.654,3.485.521a1.9,1.9,0,0,0,1.066-1.4,13.229,13.229,0,0,0-.622-3.193l-3.778-1.158Z" transform="translate(-4535.749 -13527.095)" fill="#2b2b57"/>
          <path id="Path_14313" data-name="Path 14313" d="M4542.384,13580.727c.156.525.569,1.139.294,1.447s-.761.455-1.167.816a2.673,2.673,0,0,1-1.779,1.063c-1.034.1-1.522-.342-1.2-.75s.946-.514,1.471-1.148.852-1.053.809-1.424Z" transform="translate(-4535.078 -13545.88)" fill="#2b2b57"/>
          <path id="Path_14314" data-name="Path 14314" d="M4541.4,13582.154a2.548,2.548,0,0,1-.5.457c-.311.633.8.318,1.69-.189s.935-1.51,1.181-1.7l-1.568,0C4542.249,13581.1,4541.921,13581.521,4541.4,13582.154Z" transform="translate(-4536.467 -13545.88)" fill="#ff99a5"/>
          <path id="Path_14315" data-name="Path 14315" d="M4542.812,13554.813a2.282,2.282,0,0,0,0,1.256,25.822,25.822,0,0,1,.525,4.168c.058,1.428-.548,4.652-.284,5.457a1.758,1.758,0,0,1-.976.443.512.512,0,0,1-.592-.437,53.12,53.12,0,0,0-.851-5.27c-.476-1.912-1.037-5.8-1.037-5.8Z" transform="translate(-4535.747 -13530.849)" fill="#ff99a5"/>
          <path id="Path_14316" data-name="Path 14316" d="M4539.585,13551.324c.033-.826-.207-1.705.583-2.217l.99-.216,2.818.588.744,1.65s-1.679.368-2,.938Z" transform="translate(-4535.733 -13527.542)" fill="#ff99a5"/>
          <g id="Group_13737" data-name="Group 13737" transform="translate(6.741 22.997)">
            <path id="Path_14317" data-name="Path 14317" d="M4550.051,13553.884a7.066,7.066,0,0,0-.439,2.688,12.178,12.178,0,0,1,.125,2.741c-.117,1.377-1.563,6.141-1.6,6.963,0,0-.77.676-1.721-.282,0,0,.225-4.478.158-6.148s.026-3.65.026-3.65a6.257,6.257,0,0,1,.141-2.45l.7-.969Z" transform="translate(-4546.412 -13552.776)" fill="#ffb1d0"/>
          </g>
          <path id="Path_14318" data-name="Path 14318" d="M4547.8,13554.043c.041-.9-.138-1.372.644-2.017s2.34.192,2.817.94a4.725,4.725,0,0,1,.615,1.571,1.516,1.516,0,0,0-1.443,1.212Z" transform="translate(-4540.47 -13529.214)" fill="#ffb1d0"/>
          <path id="Path_14319" data-name="Path 14319" d="M4548.259,13534.541a5.672,5.672,0,0,0-1.149,2.807s-5.465,1.713-6.853,3.582c0,0,.525-.246,1.233.432s.453,1.408,1.015,1.441,1.3-1,2.29-.484,2.206,1.855,2.032,2.58a2.2,2.2,0,0,1-.767,1.152,1.1,1.1,0,0,0,.855-.605c.354-.6.468-.682,1.554-.937s7.22-1.885,6.49-6.807c-.13-.875-.99-2.889-1.761-3.02S4548.259,13534.541,4548.259,13534.541Z" transform="translate(-4536.126 -13519.275)" fill="#2b2b57"/>
          <g id="Group_13751" data-name="Group 13751" transform="translate(0 16.745)">
            <g id="Group_13740" data-name="Group 13740" transform="translate(2.434 1.362)">
              <g id="Group_13739" data-name="Group 13739" style="isolation: isolate">
                <g id="Group_13738" data-name="Group 13738">
                  <path id="Path_14320" data-name="Path 14320" d="M4544.624,13549.344l-8.371-4.864,5.6-3.235,8.37,4.864Z" transform="translate(-4536.253 -13541.244)" fill="#c2c8ff"/>
                </g>
              </g>
            </g>
            <g id="Group_13743" data-name="Group 13743" transform="translate(8.572 2.791)">
              <g id="Group_13742" data-name="Group 13742" style="isolation: isolate">
                <g id="Group_13741" data-name="Group 13741">
                  <path id="Path_14321" data-name="Path 14321" d="M4553.453,13547.025l-2.721-1.594,1.413-.816,2.721,1.593Z" transform="translate(-4550.731 -13544.615)" fill="#d9ddff"/>
                </g>
              </g>
            </g>
            <g id="Group_13746" data-name="Group 13746" transform="translate(2.434 2.432)">
              <g id="Group_13745" data-name="Group 13745" style="isolation: isolate">
                <g id="Group_13744" data-name="Group 13744">
                  <path id="Path_14322" data-name="Path 14322" d="M4544.624,13550.8l-8.371-4.864,3.7-2.165,8.371,4.864Z" transform="translate(-4536.253 -13543.769)" fill="#7a7ea1"/>
                </g>
              </g>
            </g>
            <g id="Group_13747" data-name="Group 13747" transform="translate(8.37 4.864)">
              <path id="Path_14323" data-name="Path 14323" d="M4550.646,13549.5l2.044,4.6,5.6-3.236v.485l-5.889,3.4-2.151-4.839Z" transform="translate(-4550.256 -13549.505)" fill="#9ca2cf"/>
            </g>
            <g id="Group_13748" data-name="Group 13748" transform="translate(0 0.407)">
              <path id="Path_14324" data-name="Path 14324" d="M4541.034,13548.7l-8.371-4.865-2.151-4.84,8.371,4.865Z" transform="translate(-4530.513 -13538.99)" fill="#abb2e3"/>
            </g>
            <g id="Group_13749" data-name="Group 13749" transform="translate(4.184 4.498)">
              <path id="Path_14325" data-name="Path 14325" d="M4541.546,13549.865l-.953-.554a.273.273,0,0,1-.109-.122l-.077-.174a.266.266,0,0,1,.376-.339l.952.554a.266.266,0,0,1,.109.122l.078.174A.266.266,0,0,1,4541.546,13549.865Z" transform="translate(-4540.383 -13548.64)" fill="#bac2f7"/>
            </g>
            <g id="Group_13750" data-name="Group 13750">
              <path id="Path_14326" data-name="Path 14326" d="M4538.883,13543.3l-8.371-4.865.39-.406,8.371,4.863Z" transform="translate(-4530.513 -13538.031)" fill="#bac2f7"/>
            </g>
          </g>
          <path id="Path_14327" data-name="Path 14327" d="M4568.01,13509.208s.121.17.565-.006,1.024-1.31.643-1.651-.579-.071-.868.248Z" transform="translate(-4552.112 -13503.637)" fill="#ffb1d0"/>
          <path id="Path_14328" data-name="Path 14328" d="M4569.188,13508.221s.226-.287.423-.185.3.19.2.532C4569.81,13508.568,4569.666,13507.893,4569.188,13508.221Z" transform="translate(-4552.791 -13503.994)" fill="#ff8996"/>
          <path id="Path_14329" data-name="Path 14329" d="M4536.762,13536.587a8.738,8.738,0,0,0-1.644.74l-.067.064a1.386,1.386,0,0,1,.842.072,2.392,2.392,0,0,1,1.125.7s.179-.238.305-.23.12.389.12.389-.21.525-.12.734.19.134.261.093.135-.344.24-.431a1.464,1.464,0,0,0,.212-.829l-.007-.31.011-.405a.927.927,0,0,0-.605-.823C4537.158,13536.255,4536.762,13536.587,4536.762,13536.587Z" transform="translate(-4533.127 -13520.308)" fill="#ff99a5"/>
          <path id="Path_14330" data-name="Path 14330" d="M4534.444,13538.724a6.783,6.783,0,0,0-.445.851,2.319,2.319,0,0,0,.223.757c.074.1.194.131.188.087l-.007-.044s0,.234.144.283.146-.129.146-.129-.038.289.133.295.263-.239.263-.239-.063.226.085.239a.348.348,0,0,0,.381-.21,5.24,5.24,0,0,1,.51-.873,1.581,1.581,0,0,1,.347-.245,1.244,1.244,0,0,0-.977-.771C4534.63,13538.55,4534.444,13538.724,4534.444,13538.724Z" transform="translate(-4532.521 -13521.641)" fill="#ff99a5"/>
          <path id="Path_14331" data-name="Path 14331" d="M4561.637,13552.841a2.914,2.914,0,0,1-.88.6c-.337.08-.873.325-.955.226l-.082-.1s-.36.185-.457.083l-.1-.1a.217.217,0,0,1-.29-.057.6.6,0,0,1-.017-.424s-.25-.062-.259-.16a14.525,14.525,0,0,1,.84-1.363A3.481,3.481,0,0,1,4561.637,13552.841Z" transform="translate(-4546.693 -13529.07)" fill="#ff8996"/>
          <path id="Path_14332" data-name="Path 14332" d="M4561.816,13548.861a7.306,7.306,0,0,0-.836.111c-.3.07-.5.521-.734.573s-.406.455-.482.532.216.249.52,0a4.838,4.838,0,0,1,1.04-.508Z" transform="translate(-4547.355 -13527.524)" fill="#ff8996"/>
          <path id="Path_14333" data-name="Path 14333" d="M4563.963,13548.734l-.2.591a11.04,11.04,0,0,1-.984,1.508s-.733-.5-1.136-.75-1.06-.547-1.06-.547a5.72,5.72,0,0,1,.835-.69c.384-.237.965-.507.965-.507l.317-.28a2.363,2.363,0,0,1,.964.172A.593.593,0,0,1,4563.963,13548.734Z" transform="translate(-4547.834 -13527.063)" fill="#ffb1d0"/>
          <path id="Path_14334" data-name="Path 14334" d="M4542.56,13583.953a6.646,6.646,0,0,1-2.251,2.485c-.993.661-.578,1.194.177,1.549a2.07,2.07,0,0,0,2.039-.494c.548-.378.635-.905,1.111-1.53a2.288,2.288,0,0,0,.645-1.728Z" transform="translate(-4535.818 -13547.738)" fill="#2b2b57"/>
          <path id="Path_14335" data-name="Path 14335" d="M4554.46,13514.189c-1.076-.441-1.506.088-2.037,1.105s-1.821,4.051-2.173,4.752-.127,1.451.524,1.48.854-.211,1.316-.957S4555.756,13514.719,4554.46,13514.189Z" transform="translate(-4541.787 -13507.462)" fill="#ff99a5"/>
          <path id="Path_14336" data-name="Path 14336" d="M4544.877,13526.814a12.1,12.1,0,0,0-2.707,1.732c-.887.711-3.083,2.557-3.083,2.557a.926.926,0,0,0,1.055.717s2.132-1.238,3.314-1.906a7.581,7.581,0,0,0,1.841-1.418Z" transform="translate(-4535.452 -13514.824)" fill="#ff99a5"/>
          <path id="Path_14337" data-name="Path 14337" d="M4560.165,13512.71a23.276,23.276,0,0,0,2.026,2.134c.629.491.964,1.94.372,3.659a17.733,17.733,0,0,0-.9,3.314,1.476,1.476,0,0,1-1.159,1.255,7.431,7.431,0,0,1-2.723.091,2.342,2.342,0,0,1-1.667-1.268,21.5,21.5,0,0,0-.671-2.811c-.237-.449-1.366-1.21-1.032-2.382a10.565,10.565,0,0,1,1.336-2.433c.244-.513.134-1.365.468-1.733s1.022-.468,2.239-.285A5.606,5.606,0,0,1,4560.165,13512.71Z" transform="translate(-4544.242 -13506.385)" fill="#0fe4ff"/>
          <path id="Path_14338" data-name="Path 14338" d="M4569.193,13524.662a23.324,23.324,0,0,1,.484,3.531,2.7,2.7,0,0,1-.814,2.078,1.475,1.475,0,0,0,1.16-1.254,16.513,16.513,0,0,1,.808-3.043Z" transform="translate(-4552.604 -13513.585)" fill="#ffc23f"/>
          <path id="Path_14339" data-name="Path 14339" d="M4557.634,13504.663a8.29,8.29,0,0,0-.182,2.287c.075,1.288.224,2.912.748,3.4.165.151-.06-.336.315-.937a4.633,4.633,0,0,1,.788-.957l-.5-3.9Z" transform="translate(-4546.023 -13501.999)" fill="#7d490f"/>
          <path id="Path_14340" data-name="Path 14340" d="M4569.774,13522.271c-.053-1.5.805-1.943,1.282-1.928s.976.018,1.042,1.094.57,3.84.521,4.967-.052,2.744-.82,2.7-1.126-.3-1.288-1.781S4569.8,13523.053,4569.774,13522.271Z" transform="translate(-4553.127 -13511.098)" fill="#ffb1d0"/>
          <path id="Path_14341" data-name="Path 14341" d="M4569.219,13536.051c.526.287.455,1.094.183,1.674s-2.891,3.861-3.367,4.441c0,0-.279.311-.81-.021s-.467-.738-.467-.738,1.8-2.906,2.417-3.914S4568.415,13535.609,4569.219,13536.051Z" transform="translate(-4550.238 -13520.077)" fill="#ffb1d0"/>
          <path id="Path_14342" data-name="Path 14342" d="M4561.529,13514.83a2.79,2.79,0,0,0,.061,3.059,8.253,8.253,0,0,0,2.276-.654,2.486,2.486,0,0,0,1.341-1.707Z" transform="translate(-4548.133 -13507.921)" fill="#ff8996"/>
          <path id="Path_14343" data-name="Path 14343" d="M4562.065,13512.927a3.988,3.988,0,0,1,.159.86,1.354,1.354,0,0,1-.079.563,1.775,1.775,0,0,0,1.905.156c1.112-.534.667-1.355.667-1.355s-.148-.208-.07-1.226Z" transform="translate(-4548.688 -13506.248)" fill="#ff8996"/>
          <circle id="Ellipse_286" data-name="Ellipse 286" cx="2.706" cy="2.706" r="2.706" transform="translate(11.97 0.455)" fill="#ffb1d0"/>
          <path id="Path_14344" data-name="Path 14344" d="M4564.014,13502.492a21.388,21.388,0,0,1,.263,3.471c-.075,1.313-.395,1.688-.263,1.744a4.644,4.644,0,0,0,2.337-1.629c.553-.922.351-2.668.4-3.812s-.682-3.363-2.144-3.658a3.765,3.765,0,0,0-2.545.381l1.948,2.707Z" transform="translate(-4548.688 -13498.533)" fill="#a35f14"/>
          <path id="Path_14345" data-name="Path 14345" d="M4558.746,13506.361a7.986,7.986,0,0,0,.457,2.789c.259.545.331.922.514,1.02a1.357,1.357,0,0,0,.707.072,6.953,6.953,0,0,0,2.163-1.219,2.841,2.841,0,0,0,.438-1.334Z" transform="translate(-4546.776 -13503.043)" fill="#ffb1d0"/>
          <path id="Path_14346" data-name="Path 14346" d="M4560.711,13508.588s-.284,1.1-.353,1.2.161.246.283.281a1.212,1.212,0,0,0,.5-.025.411.411,0,0,1-.392.244.588.588,0,0,1-.508-.369C4560.233,13509.824,4560.711,13508.588,4560.711,13508.588Z" transform="translate(-4547.64 -13504.325)" fill="#ff8996"/>
          <path id="Path_14347" data-name="Path 14347" d="M4568.069,13509.459s.121.17.565,0,1.024-1.312.644-1.652-.58-.071-.868.247Z" transform="translate(-4552.146 -13503.781)" fill="#ffb1d0"/>
          <path id="Path_14348" data-name="Path 14348" d="M4569.222,13508.334s.225-.286.423-.184.3.19.2.532C4569.843,13508.683,4569.7,13508.007,4569.222,13508.334Z" transform="translate(-4552.811 -13504.061)" fill="#ff8996"/>
          <path id="Path_14349" data-name="Path 14349" d="M4562.782,13500.2a1.246,1.246,0,0,0-1.445,1.15,2.05,2.05,0,0,0,1.077,2.143,3.62,3.62,0,0,1,1.5,1.21c.291.468.5-.324.58-1.348S4565.25,13500.3,4562.782,13500.2Z" transform="translate(-4548.25 -13499.491)" fill="#a35f14"/>
          <path id="Path_14350" data-name="Path 14350" d="M4560.16,13499.768a1.182,1.182,0,0,0-1-.681,2.249,2.249,0,0,0-2.245,1.8,2.112,2.112,0,0,0,.858,2.63,2.364,2.364,0,0,1,.561-1.914c.744-.632,1.024-.521,1.024-.521Z" transform="translate(-4545.655 -13498.851)" fill="#a35f14"/>
          <path id="Path_14351" data-name="Path 14351" d="M4560.22,13499.6a1.168,1.168,0,0,0-.9-.509,2.248,2.248,0,0,0-2.245,1.8s.554-1.295,1.563-1.516a1.976,1.976,0,0,1,1.582.222Z" transform="translate(-4545.814 -13498.851)" fill="#cc7719"/>
          <path id="Path_14352" data-name="Path 14352" d="M4562.782,13500.2a1.246,1.246,0,0,0-1.445,1.15,2.05,2.05,0,0,0,1.077,2.143,3.62,3.62,0,0,1,1.5,1.21c.291.468.5-.324.58-1.348S4565.25,13500.3,4562.782,13500.2Z" transform="translate(-4548.25 -13499.491)" fill="#a35f14"/>
          <path id="Path_14353" data-name="Path 14353" d="M4564.679,13502.16l.005-.3c-.019-.826-.36-1.6-1.857-1.658a1.245,1.245,0,0,0-1.444,1.15,1.327,1.327,0,0,1,1.188-.923A1.948,1.948,0,0,1,4564.679,13502.16Z" transform="translate(-4548.295 -13499.491)" fill="#cc7719"/>
          <path id="Path_14354" data-name="Path 14354" d="M4543.4,13585.051h0a8.244,8.244,0,0,1-.637.665c-.329.383-.533.768-.074.952a1.573,1.573,0,0,0,1.807-.219,6.334,6.334,0,0,0,1.334-2.155c0-.02,0-.039,0-.06l-1.721-.282A4.13,4.13,0,0,1,4543.4,13585.051Z" transform="translate(-4537.375 -13547.738)" fill="#ffb1d0"/>
          <g id="Group_13752" data-name="Group 13752" transform="translate(10.255 11.408)">
            <path id="Path_14355" data-name="Path 14355" d="M4557.373,13527.326a3.248,3.248,0,0,1-2.065-.857c.262.363.574.645.686.857a21.437,21.437,0,0,1,.671,2.811,1.8,1.8,0,0,0,.141.246c-.221-.391.321-1.551.661-1.867.271-.254,1.12-.23,1.5-.205C4558.1,13528.189,4557.923,13527.4,4557.373,13527.326Z" transform="translate(-4555.05 -13526.033)" fill="#00d1ff"/>
            <path id="Path_14356" data-name="Path 14356" d="M4563.948,13530.813a1.666,1.666,0,0,0,.191.015S4564.066,13530.821,4563.948,13530.813Z" transform="translate(-4560.027 -13528.536)" fill="#e3b63d"/>
            <path id="Path_14357" data-name="Path 14357" d="M4554.7,13525.443h0Z" transform="translate(-4554.7 -13525.442)" fill="#e3b63d"/>
            <path id="Path_14358" data-name="Path 14358" d="M4558.928,13535.83c.009.008,0,0-.022-.033C4558.913,13535.809,4558.92,13535.818,4558.928,13535.83Z" transform="translate(-4557.123 -13531.407)" fill="#e3b63d"/>
          </g>
        </g>
      </g>
    </g>
    <g id="Group_13756" data-name="Group 13756" transform="translate(4523.514 13445.255)">
      <path id="Path_14359" data-name="Path 14359" d="M4596.5,13613.688a.275.275,0,0,0,0,.52l3.5,2.031a.993.993,0,0,0,.9,0l3.519-2.031a.274.274,0,0,0,0-.52l-3.5-2.031a.983.983,0,0,0-.9,0Z" transform="translate(-4596.317 -13611.548)" fill="#e3e5ff"/>
    </g>
    <g id="Group_13757" data-name="Group 13757" transform="translate(4513.232 13441.81)">
      <path id="Path_14360" data-name="Path 14360" d="M4572.2,13604.95a.2.2,0,0,0,0,.37l2.5,1.45a.7.7,0,0,0,.641,0l2.512-1.45a.2.2,0,0,0,0-.37l-2.5-1.452a.711.711,0,0,0-.64,0Z" transform="translate(-4572.066 -13603.422)" fill="#e3e5ff"/>
    </g>
    <g id="Group_13758" data-name="Group 13758" transform="translate(4493.327 13407.677)">
      <path id="Path_14361" data-name="Path 14361" d="M4525.219,13524.094a.152.152,0,0,0,0,.287l1.931,1.122a.549.549,0,0,0,.5,0l1.943-1.122a.151.151,0,0,0,0-.287l-1.931-1.122a.547.547,0,0,0-.5,0Z" transform="translate(-4525.116 -13522.912)" fill="#e3e5ff"/>
    </g>
    <g id="Group_13759" data-name="Group 13759" transform="translate(4483.415 13409.763)">
      <path id="Path_14362" data-name="Path 14362" d="M4501.87,13529.358a.2.2,0,0,0,0,.372l2.5,1.45a.706.706,0,0,0,.641,0l2.512-1.45a.2.2,0,0,0,0-.372l-2.5-1.451a.711.711,0,0,0-.64,0Z" transform="translate(-4501.736 -13527.831)" fill="#e3e5ff"/>
    </g>
    <g id="Group_13760" data-name="Group 13760" transform="translate(4482.626 13401.977)">
      <path id="Path_14363" data-name="Path 14363" d="M4499.979,13510.651a.151.151,0,0,0,0,.286l1.932,1.123a.547.547,0,0,0,.5,0l1.944-1.123a.151.151,0,0,0,0-.286l-1.932-1.123a.546.546,0,0,0-.5,0Z" transform="translate(-4499.875 -13509.469)" fill="#e3e5ff"/>
    </g>
    <g id="Group_13787" data-name="Group 13787" transform="translate(4469.93 13391.902)">
      <path id="Path_14364" data-name="Path 14364" d="M4489.465,13515.949l-1.058-.676-16.254,3.229q-1.168.6-2.224,1.121l7.556,4.687,9.488-5.271a.6.6,0,0,0,.264-.741l-.065-.163,2.292-1.459A.43.43,0,0,0,4489.465,13515.949Z" transform="translate(-4469.93 -13502.738)" opacity="0.2"/>
      <g id="Group_13786" data-name="Group 13786" transform="translate(0.114 0)">
        <g id="Group_13765" data-name="Group 13765" transform="translate(11.736)">
          <g id="Group_13761" data-name="Group 13761" transform="translate(0.911 0.078)">
            <path id="Path_14365" data-name="Path 14365" d="M4506.6,13489.53l-.027,9.685-6.331-3.656a.421.421,0,0,1-.212-.366v-9.09a.212.212,0,0,1,.318-.184Z" transform="translate(-4500.032 -13485.891)" fill="#f03966"/>
          </g>
          <path id="Path_14366" data-name="Path 14366" d="M4499.8,13486.418a.213.213,0,0,0-.233.014h0l-.487.283.4.7v.033a.212.212,0,0,1,.318-.182l6.25,3.607,0-.846Z" transform="translate(-4498.576 -13486.101)" fill="#dee0ff"/>
          <g id="Group_13762" data-name="Group 13762" transform="translate(6.619 3.725)">
            <path id="Path_14367" data-name="Path 14367" d="M4514.6,13494.493v9.551a.212.212,0,0,1-.106.184l-.7.4-.073.041h-.206l-.027-9.564.252-.14Z" transform="translate(-4513.495 -13494.493)" fill="#d42a50"/>
          </g>
          <path id="Path_14368" data-name="Path 14368" d="M4513.726,13495.612l-.027,9.663-.073.042h-.308l.027-9.705Z" transform="translate(-4506.774 -13491.413)" fill="#f03966"/>
          <g id="Group_13763" data-name="Group 13763" transform="translate(0.038)">
            <path id="Path_14369" data-name="Path 14369" d="M4497.973,13487.286h0Z" transform="translate(-4497.973 -13486.615)" fill="#c9274c"/>
            <path id="Path_14370" data-name="Path 14370" d="M4505.647,13489.308l-6.084-3.516h0l-.051-.03a.423.423,0,0,0-.5.06.211.211,0,0,1,.215-.017h0l.01.006h0l.238.137h0l5.994,3.463c.016.01.016.025,0,.034l-.652.38a.064.064,0,0,1-.06,0l-6.157-3.558a.423.423,0,0,0-.5.059.21.21,0,0,1,.215-.017h0l.011.007h0l6.253,3.612h0a.46.46,0,0,0,.419,0l.652-.378A.129.129,0,0,0,4505.647,13489.308Z" transform="translate(-4498.044 -13485.706)" fill="#ff7899"/>
            <path id="Path_14371" data-name="Path 14371" d="M4500.121,13486.1h0Z" transform="translate(-4499.209 -13485.932)" fill="#c9274c"/>
          </g>
          <g id="Group_13764" data-name="Group 13764" transform="translate(0 0.58)">
            <path id="Path_14372" data-name="Path 14372" d="M4504.454,13490.717l-.027,9.684-6.332-3.656a.423.423,0,0,1-.212-.367v-9.088a.213.213,0,0,1,.318-.186Z" transform="translate(-4497.883 -13487.075)" fill="#f7567e"/>
          </g>
        </g>
        <g id="Group_13770" data-name="Group 13770" transform="translate(9.871 0.766)">
          <g id="Group_13766" data-name="Group 13766" transform="translate(1.123 0.078)">
            <path id="Path_14373" data-name="Path 14373" d="M4503.19,13491.338l-.726,10.084-6.332-3.655c.567-.475.486-.615.486-.768v-9.089a.212.212,0,0,1,.318-.184Z" transform="translate(-4496.133 -13487.697)" fill="#3e4bf6"/>
          </g>
          <path id="Path_14374" data-name="Path 14374" d="M4496.1,13488.228a.208.208,0,0,0-.232.013h0l-1.186.683.719.551,6.25,3.61.7-1.246Z" transform="translate(-4494.177 -13487.909)" fill="#dee0ff"/>
          <g id="Group_13767" data-name="Group 13767" transform="translate(6.619 3.725)">
            <path id="Path_14375" data-name="Path 14375" d="M4510.9,13496.3v9.551a.212.212,0,0,1-.105.184l-1.4.8-.073.043h-.206l-.027-9.566.252-.141Z" transform="translate(-4509.096 -13496.301)" fill="#313cc4"/>
          </g>
          <path id="Path_14376" data-name="Path 14376" d="M4509.326,13498.361l-.026,9.664-.073.041h-.308l.027-9.705Z" transform="translate(-4502.375 -13493.763)" fill="#3946e6"/>
          <g id="Group_13768" data-name="Group 13768" transform="translate(0.038)">
            <path id="Path_14377" data-name="Path 14377" d="M4493.574,13490.037h0v0Z" transform="translate(-4493.574 -13488.967)" fill="#c9274c"/>
            <path id="Path_14378" data-name="Path 14378" d="M4501.946,13491.115l-6.084-3.517,0,0-.051-.029a.424.424,0,0,0-.5.059.208.208,0,0,1,.215-.016h0l.01,0h0l.238.137,0,0,5.993,3.465c.017.01.017.025,0,.034l-1.351.778a.065.065,0,0,1-.06,0l-6.157-3.559a.424.424,0,0,0-.5.06.207.207,0,0,1,.215-.017h0l.01,0h0l6.253,3.611v0h0a.467.467,0,0,0,.42,0l1.35-.778C4502.064,13491.292,4502.063,13491.183,4501.946,13491.115Z" transform="translate(-4493.646 -13487.515)" fill="#7580ff"/>
            <path id="Path_14379" data-name="Path 14379" d="M4497.369,13487.906v0h0Z" transform="translate(-4495.759 -13487.74)" fill="#c9274c"/>
          </g>
          <g id="Group_13769" data-name="Group 13769" transform="translate(0 0.98)">
            <path id="Path_14380" data-name="Path 14380" d="M4500.055,13493.465l-.027,9.685-6.332-3.655a.424.424,0,0,1-.212-.368v-9.089a.211.211,0,0,1,.318-.183Z" transform="translate(-4493.483 -13489.825)" fill="#3e4bf6"/>
          </g>
        </g>
        <g id="Group_13774" data-name="Group 13774" transform="translate(0.797 10.591)">
          <g id="Group_13771" data-name="Group 13771" transform="translate(0 1.126)">
            <path id="Path_14381" data-name="Path 14381" d="M4472.194,13518.6l6.57,3.818,8.954-5.169-6.568-3.817a.68.68,0,0,0-.678,0l-8.277,4.779A.225.225,0,0,0,4472.194,13518.6Z" transform="translate(-4472.082 -13513.343)" fill="#b89431"/>
          </g>
          <path id="Path_14382" data-name="Path 14382" d="M4472.972,13523.693l6.294,3.656v.676l-6.541-3.8a.22.22,0,0,1-.111-.183h0v-.548Z" transform="translate(-4472.387 -13518.064)" fill="#bdbfff"/>
          <g id="Group_13772" data-name="Group 13772" transform="translate(6.671 3.908)">
            <path id="Path_14383" data-name="Path 14383" d="M4487.815,13525.072l.2.316,0,.859-.12.158h0a.453.453,0,0,0,.225-.061l8.624-4.979a.452.452,0,0,0,.225-.393v-.492a.9.9,0,0,0-.143-.484l-.049-.094Z" transform="translate(-4487.815 -13519.904)" fill="#cca437"/>
          </g>
          <path id="Path_14384" data-name="Path 14384" d="M4487.964,13525.3l-.149-.232,8.965-5.168.049.094a.871.871,0,0,1,.082.162Z" transform="translate(-4481.145 -13515.997)" fill="#e3b63d"/>
          <g id="Group_13773" data-name="Group 13773" transform="translate(0)">
            <path id="Path_14385" data-name="Path 14385" d="M4472.194,13515.946l6.57,3.818,8.954-5.169-6.568-3.817a.675.675,0,0,0-.678,0l-8.277,4.778A.225.225,0,0,0,4472.194,13515.946Z" transform="translate(-4472.082 -13510.688)" fill="#ffd461"/>
          </g>
          <path id="Path_14386" data-name="Path 14386" d="M4472.083,13523.793a.224.224,0,0,0,.111.166l.008.006,0,0,.244.143h0l6.286,3.654a.02.02,0,0,0,.032-.02l0-.8a.071.071,0,0,0-.031-.055l-6.4-3.723a.665.665,0,0,1-.223-.209.173.173,0,0,1-.028-.094v-.168a.224.224,0,0,0,.111.168l.008,0,0,0,6.533,3.8a.5.5,0,0,1,.224.387l0,.8c0,.141-.1.2-.225.127l-6.42-3.73v0a.675.675,0,0,1-.2-.2.168.168,0,0,1-.028-.094v-.166Z" transform="translate(-4472.081 -13517.603)" fill="#cca437"/>
        </g>
        <g id="Group_13785" data-name="Group 13785" transform="translate(0 9.162)">
          <g id="Group_13775" data-name="Group 13775" transform="translate(0.161 0.956)">
            <path id="Path_14387" data-name="Path 14387" d="M4485.843,13513.752l-8.168,4.746a.664.664,0,0,1-.673,0l-6.348-3.664a.149.149,0,0,1,0-.258l8.616-5.006,6.572,3.793A.223.223,0,0,1,4485.843,13513.752Z" transform="translate(-4470.58 -13509.572)" fill="#a6203f"/>
          </g>
          <path id="Path_14388" data-name="Path 14388" d="M4470.609,13520.722l.77-.427-.815-.5-.038.927Z" transform="translate(-4470.387 -13514.505)" fill="#a6203f"/>
          <path id="Path_14389" data-name="Path 14389" d="M4477.392,13523.231l-.022-.013-5.681-3.279-.144.084-.327.029v.645l6.151,3.552.02.01C4477.364,13523.914,4477.391,13523.576,4477.392,13523.231Z" transform="translate(-4470.787 -13514.588)" fill="#dee0ff"/>
          <path id="Path_14390" data-name="Path 14390" d="M4485.762,13527.688c0,.345-.028.683,0,1.028a.67.67,0,0,0,.639,0c0-.346.013-.693.013-1.036A.67.67,0,0,1,4485.762,13527.688Z" transform="translate(-4479.157 -13519.046)" fill="#cfd1ff"/>
          <path id="Path_14391" data-name="Path 14391" d="M4495.292,13517.07l-.3.025-7.7,4.471h0c0,.344-.01.689-.013,1.037l.015-.008,7.884-4.578a.219.219,0,0,0,.11-.211h0Z" transform="translate(-4480.039 -13512.936)" fill="#bdbfff"/>
          <path id="Path_14392" data-name="Path 14392" d="M4485.647,13510.973l-6.123-3.535a.9.9,0,0,0-.9,0l-7.9,4.592a1.363,1.363,0,0,0-.425.392l-.024.034-.011.016.2-.026h0l6.344,3.662a.67.67,0,0,0,.379.089l.042,0a.672.672,0,0,0,.252-.086l8.168-4.747a.224.224,0,0,0,0-.387Z" transform="translate(-4470.237 -13507.317)" fill="#f7567e"/>
          <g id="Group_13784" data-name="Group 13784" transform="translate(1.929 0.747)">
            <g id="Group_13776" data-name="Group 13776" transform="translate(0 4.125)">
              <path id="Path_14393" data-name="Path 14393" d="M4479.916,13521.607a.1.1,0,0,1,0,.186.353.353,0,0,1-.319,0l-4.782-2.76c-.088-.053-.089-.137,0-.186a.353.353,0,0,1,.319,0Z" transform="translate(-4474.749 -13518.81)" fill="#d42e57"/>
            </g>
            <g id="Group_13777" data-name="Group 13777" transform="translate(8.794 2.655)">
              <path id="Path_14394" data-name="Path 14394" d="M4497.2,13516.143a.1.1,0,0,1,0,.186.359.359,0,0,1-.319,0l-1.321-.763c-.088-.052-.089-.135,0-.186a.348.348,0,0,1,.319,0Z" transform="translate(-4495.492 -13515.341)" fill="#d42e57"/>
            </g>
            <g id="Group_13778" data-name="Group 13778" transform="translate(7.087 1.669)">
              <path id="Path_14395" data-name="Path 14395" d="M4493.079,13513.764c.088.053.089.135,0,.186a.341.341,0,0,1-.319,0l-1.229-.707c-.088-.053-.089-.137,0-.186a.342.342,0,0,1,.319,0Z" transform="translate(-4491.465 -13513.018)" fill="#d42e57"/>
            </g>
            <g id="Group_13783" data-name="Group 13783" transform="translate(0.896)" style="isolation: isolate">
              <g id="Group_13779" data-name="Group 13779" transform="translate(4.754)">
                <path id="Path_14396" data-name="Path 14396" d="M4490.671,13509.56a.1.1,0,0,1,0,.184l-1.448.841a.348.348,0,0,1-.316,0l-.765-.441c-.088-.051-.088-.133,0-.183l1.448-.842a.343.343,0,0,1,.317,0Z" transform="translate(-4488.077 -13509.079)" fill="#f78fa9"/>
              </g>
              <g id="Group_13780" data-name="Group 13780" transform="translate(7.316 0.829)">
                <path id="Path_14397" data-name="Path 14397" d="M4496.9,13512.272c.088.052.088.133,0,.184l-.321.188a.354.354,0,0,1-.316,0l-2.078-1.2c-.088-.052-.088-.134,0-.183l.321-.187a.344.344,0,0,1,.316,0Z" transform="translate(-4494.121 -13511.035)" fill="#f78fa9"/>
              </g>
              <g id="Group_13781" data-name="Group 13781" transform="translate(6.754 1.342)">
                <path id="Path_14398" data-name="Path 14398" d="M4496.524,13514.215c.089.051.089.133,0,.186a.353.353,0,0,1-.319,0l-3.345-1.932c-.089-.053-.089-.135,0-.186a.353.353,0,0,1,.319,0Z" transform="translate(-4492.794 -13512.245)" fill="#d42e57"/>
              </g>
              <g id="Group_13782" data-name="Group 13782" transform="translate(0 1.424)">
                <path id="Path_14399" data-name="Path 14399" d="M4485.781,13515.239a.1.1,0,0,1,0,.183l-3.752,2.181a.348.348,0,0,1-.316,0l-4.784-2.763a.1.1,0,0,1,0-.184l3.752-2.18a.349.349,0,0,1,.317,0Z" transform="translate(-4476.864 -13512.438)" fill="#f78fa9"/>
              </g>
            </g>
          </g>
          <path id="Path_14400" data-name="Path 14400" d="M4485.737,13517.5a.222.222,0,0,1-.111.182l-.232.135v0l-7.954,4.621a.673.673,0,0,1-.673,0l-6.345-3.658a.074.074,0,0,1-.032-.057l0-.795c0-.021.015-.027.032-.02l6.343,3.662a.678.678,0,0,0,.673,0l8.17-4.748.013-.01a.221.221,0,0,0,.1-.182v-.209a.221.221,0,0,1-.111.182l-8.167,4.746a.631.631,0,0,1-.252.086l-.042,0a.678.678,0,0,1-.381-.088l-6.343-3.66,0,0a.138.138,0,0,0-.185.01l-.011.018a.188.188,0,0,0-.024.1l0,.8a.487.487,0,0,0,.222.383l6.346,3.662a.673.673,0,0,0,.673,0l8.065-4.687v0l.121-.068.013-.01a.225.225,0,0,0,.1-.182v-.209Z" transform="translate(-4470.2 -13512.561)" fill="#c9274c"/>
        </g>
      </g>
    </g>
    <g id="Group_13813" data-name="Group 13813" transform="translate(4523.087 13435.965)">
      <path id="Path_14401" data-name="Path 14401" d="M4595.874,13591.764a4.723,4.723,0,0,0-.134.512c0,.064.308.252.308.252s-.169.391.053.521l.223.129,1.072.582s-.083.42.125.607l.208.186s-.081.176.169.363,5.114,2.934,5.114,2.934l8.31,4.553a3.328,3.328,0,0,0,1.074,0l.139-.115a7.17,7.17,0,0,0,1.243.264c.356,0,.356-.428.356-.428Z" transform="translate(-4595.559 -13590.862)" opacity="0.2"/>
      <g id="Group_13812" data-name="Group 13812" transform="translate(0 0)">
        <g id="Group_13791" data-name="Group 13791">
          <g id="Group_13788" data-name="Group 13788" transform="translate(0.406)">
            <path id="Path_14402" data-name="Path 14402" d="M4596.558,13589.665l.828.481a.287.287,0,0,0-.29.027l-.827-.481A.288.288,0,0,1,4596.558,13589.665Z" transform="translate(-4596.269 -13589.638)" fill="#6f78f6"/>
          </g>
          <g id="Group_13789" data-name="Group 13789" transform="translate(0.828 0.481)">
            <path id="Path_14403" data-name="Path 14403" d="M4597.669,13590.827c.225-.13.408-.026.409.232a.9.9,0,0,1-.406.7c-.225.13-.407.025-.408-.232A.892.892,0,0,1,4597.669,13590.827Z" transform="translate(-4597.264 -13590.771)" fill="#313cc4"/>
          </g>
          <g id="Group_13790" data-name="Group 13790" transform="translate(0 0.055)">
            <path id="Path_14404" data-name="Path 14404" d="M4596.258,13591.212l-.827-.48a.285.285,0,0,1-.119-.261.9.9,0,0,1,.406-.7l.827.482a.89.89,0,0,0-.405.7A.281.281,0,0,0,4596.258,13591.212Z" transform="translate(-4595.312 -13589.768)" fill="#4f5cff"/>
          </g>
          <path id="Path_14405" data-name="Path 14405" d="M4595.431,13591.547l.827.48a.283.283,0,0,1-.119-.261.9.9,0,0,1,.256-.583h0l-.558.433-.525-.33A.284.284,0,0,0,4595.431,13591.547Z" transform="translate(-4595.312 -13590.528)" fill="#313cc4"/>
        </g>
        <g id="Group_13795" data-name="Group 13795" transform="translate(0.578 0.128)" style="isolation: isolate">
          <g id="Group_13792" data-name="Group 13792" transform="translate(0.688)">
            <path id="Path_14406" data-name="Path 14406" d="M4598.787,13589.984l1.655.961a.487.487,0,0,0-.491.049l-1.655-.962A.485.485,0,0,1,4598.787,13589.984Z" transform="translate(-4598.297 -13589.938)" fill="#ffdb75"/>
          </g>
          <g id="Group_13793" data-name="Group 13793" transform="translate(0 0.094)">
            <path id="Path_14407" data-name="Path 14407" d="M4598.531,13592.756l-1.655-.961a.483.483,0,0,1-.2-.443,1.519,1.519,0,0,1,.688-1.191l1.655.963a1.515,1.515,0,0,0-.687,1.189A.484.484,0,0,0,4598.531,13592.756Z" transform="translate(-4596.675 -13590.16)" fill="#ffc31b"/>
          </g>
          <g id="Group_13794" data-name="Group 13794" transform="translate(1.655 0.962)">
            <path id="Path_14408" data-name="Path 14408" d="M4601.266,13592.3c.381-.22.691-.043.691.395a1.513,1.513,0,0,1-.687,1.19c-.382.221-.691.044-.692-.395A1.515,1.515,0,0,1,4601.266,13592.3Z" transform="translate(-4600.578 -13592.206)" fill="#ffa208"/>
          </g>
          <path id="Path_14409" data-name="Path 14409" d="M4596.876,13593.412l1.655.961a.48.48,0,0,1-.2-.441,1.444,1.444,0,0,1,.241-.744l-.578.508-1.318-.727A.483.483,0,0,0,4596.876,13593.412Z" transform="translate(-4596.675 -13591.684)" fill="#ffa208"/>
        </g>
        <g id="Group_13799" data-name="Group 13799" transform="translate(2.08 0.902)" style="isolation: isolate">
          <g id="Group_13796" data-name="Group 13796" transform="translate(0.972)">
            <path id="Path_14410" data-name="Path 14410" d="M4603.205,13591.83l13.239,7.694a.688.688,0,0,0-.694.067l-13.238-7.693A.69.69,0,0,1,4603.205,13591.83Z" transform="translate(-4602.511 -13591.765)" fill="#6f78f6"/>
          </g>
          <g id="Group_13797" data-name="Group 13797" transform="translate(13.239 7.693)">
            <path id="Path_14411" data-name="Path 14411" d="M4632.416,13610.045c.539-.311.978-.062.979.558a2.14,2.14,0,0,1-.973,1.684c-.539.312-.976.062-.979-.557A2.143,2.143,0,0,1,4632.416,13610.045Z" transform="translate(-4631.443 -13609.911)" fill="#313cc4"/>
          </g>
          <g id="Group_13798" data-name="Group 13798" transform="translate(0 0.134)">
            <path id="Path_14412" data-name="Path 14412" d="M4613.741,13602.083l-13.238-7.693a.682.682,0,0,1-.285-.626,2.142,2.142,0,0,1,.972-1.684l13.238,7.693a2.144,2.144,0,0,0-.972,1.685A.682.682,0,0,0,4613.741,13602.083Z" transform="translate(-4600.218 -13592.08)" fill="#4f5cff"/>
          </g>
          <path id="Path_14413" data-name="Path 14413" d="M4613.456,13603.18a1.661,1.661,0,0,1,.066-.446l-12.332-6.9-.915-.768a1.594,1.594,0,0,0-.057.416.684.684,0,0,0,.285.627l13.238,7.693A.682.682,0,0,1,4613.456,13603.18Z" transform="translate(-4600.218 -13593.668)" fill="#313cc4"/>
        </g>
        <g id="Group_13804" data-name="Group 13804" transform="translate(2.92 2.65)">
          <g id="Group_13803" data-name="Group 13803" style="isolation: isolate">
            <g id="Group_13800" data-name="Group 13800" transform="translate(0 0.192)">
              <path id="Path_14414" data-name="Path 14414" d="M4603.682,13597.2v.681l-1.48-.855v-.681Z" transform="translate(-4602.2 -13596.34)" fill="#4f5cff"/>
            </g>
            <g id="Group_13801" data-name="Group 13801" transform="translate(1.48 0.855)">
              <path id="Path_14415" data-name="Path 14415" d="M4605.694,13598.095l.331-.192v.682l-.332.192Z" transform="translate(-4605.691 -13597.902)" fill="#313cc4"/>
            </g>
            <g id="Group_13802" data-name="Group 13802" transform="translate(0.002)">
              <path id="Path_14416" data-name="Path 14416" d="M4602.2,13596.079l.332-.191,1.48.854-.331.192Z" transform="translate(-4602.204 -13595.888)" fill="#313cc4"/>
            </g>
          </g>
        </g>
        <g id="Group_13809" data-name="Group 13809" transform="translate(2.308 2.706)">
          <g id="Group_13808" data-name="Group 13808" style="isolation: isolate">
            <g id="Group_13805" data-name="Group 13805" transform="translate(0.002)">
              <path id="Path_14417" data-name="Path 14417" d="M4600.761,13596.213l.331-.193,4.811,2.777-.331.193Z" transform="translate(-4600.761 -13596.02)" fill="#ffdb75"/>
            </g>
            <g id="Group_13806" data-name="Group 13806" transform="translate(0 0.192)">
              <path id="Path_14418" data-name="Path 14418" d="M4605.568,13599.251a.652.652,0,0,1,.3.512c0,.188-.134.263-.3.169l-4.811-2.777,0-.682Z" transform="translate(-4600.756 -13596.473)" fill="#ffc31b"/>
            </g>
            <g id="Group_13807" data-name="Group 13807" transform="translate(4.813 2.778)">
              <path id="Path_14419" data-name="Path 14419" d="M4612.647,13603.273l-.331.191a.208.208,0,0,0,.087-.189.652.652,0,0,0-.3-.512l.331-.191a.648.648,0,0,1,.3.512A.208.208,0,0,1,4612.647,13603.273Z" transform="translate(-4612.107 -13602.572)" fill="#ffdb75"/>
            </g>
          </g>
        </g>
        <path id="Path_14420" data-name="Path 14420" d="M4635.253,13613.284l.24-.364-2.188-2.32v0a.508.508,0,0,0-.635,0,1.724,1.724,0,0,0-.782,1.355.513.513,0,0,0,.294.533h0a.539.539,0,0,0,.06.016Z" transform="translate(-4616.38 -13601.648)" fill="#ffc31b"/>
        <g id="Group_13810" data-name="Group 13810" transform="translate(18.821 11.238)">
          <path id="Path_14421" data-name="Path 14421" d="M4639.861,13616.168c.086-.051.158-.012.158.088a.342.342,0,0,1-.156.271c-.087.051-.158.01-.158-.09A.339.339,0,0,1,4639.861,13616.168Z" transform="translate(-4639.705 -13616.146)" fill="#e0a500"/>
        </g>
        <g id="Group_13811" data-name="Group 13811" transform="translate(18.933 11.394)">
          <path id="Path_14422" data-name="Path 14422" d="M4640.3,13616.807a.066.066,0,0,1-.035-.01l-.264-.152a.071.071,0,0,1,.071-.123l.263.153a.07.07,0,0,1,.025.1A.073.073,0,0,1,4640.3,13616.807Z" transform="translate(-4639.97 -13616.513)" fill="#4f5cff"/>
        </g>
        <path id="Path_14423" data-name="Path 14423" d="M4636.546,13612.909l-2.178-2.31,0,0a.508.508,0,0,0-.635,0l2.689,2.313Z" transform="translate(-4617.443 -13601.648)" fill="#ffdb75"/>
        <path id="Path_14424" data-name="Path 14424" d="M4632.181,13614.473h0a.539.539,0,0,0,.06.017l3.012.782.021-.031-.073-.072-3.029-.924-.286-.3A.513.513,0,0,0,4632.181,13614.473Z" transform="translate(-4616.38 -13603.636)" fill="#e0a500"/>
      </g>
    </g>
  </g>
</svg>
