<svg xmlns="http://www.w3.org/2000/svg" xmlns:xlink="http://www.w3.org/1999/xlink" width="585.434" height="368.402" viewBox="0 0 585.434 368.402">
  <defs>
    <clipPath id="clip-path">
      <circle id="Ellipse_236" data-name="Ellipse 236" cx="55.291" cy="55.291" r="55.291" fill="none"/>
    </clipPath>
  </defs>
  <g id="Group_6451" data-name="Group 6451" transform="translate(-206.216 -68.902)">
    <g id="Group_6432" data-name="Group 6432" transform="translate(206.216 68.902)">
      <g id="Group_6404" data-name="Group 6404" transform="translate(21.901 0)">
        <path id="Path_13211" data-name="Path 13211" d="M326.06,568.51a65.442,65.442,0,0,1,13.388,2.948l0-.007c.06.022.117.04.177.061.161.055.32.111.48.167,24.3,8.669,35.455,7.042,45.008,4.109,25.8-7.923,41.094-42.033,82.876-35.431,17.722,2.8,31.981,6.607,43.093,14.355l-.015-.034c.078.066.156.12.233.185,1.594,1.118,3.148,2.255,4.616,3.427,21.732,14.185,43.38-4.306,49.6-8.494.457-.331.932-2.962,1.4-3.29.249-.185.387-.293.387-.293l0,.022c27.229-19.191,70.539-38.631,112.292-33.858,71.739,8.2,100.61,89.561,100.61,89.561H244.117C252.49,582.7,285.985,563.929,326.06,568.51Z" transform="translate(-243.55 -249.186)" fill="#1ca2d5" opacity="0.3"/>
        <g id="Group_6403" data-name="Group 6403" opacity="0.3">
          <g id="Group_6400" data-name="Group 6400" transform="translate(26.328 97.122)">
            <g id="Group_6399" data-name="Group 6399" transform="translate(0)">
              <path id="Rectangle_2916" data-name="Rectangle 2916" d="M1.936,0H43.893a1.935,1.935,0,0,1,1.935,1.935V13.377a1.935,1.935,0,0,1-1.935,1.935H1.935A1.935,1.935,0,0,1,0,13.377V1.936A1.936,1.936,0,0,1,1.936,0Z" transform="translate(45.829 15.312) rotate(180)" fill="#1ca2d5"/>
              <g id="Group_6398" data-name="Group 6398" transform="translate(8.975 5.946)">
                <line id="Line_282" data-name="Line 282" x2="30.02" fill="#1ca2d5"/>
                <line id="Line_283" data-name="Line 283" x2="8.836" transform="translate(0 3.42)" fill="#1ca2d5"/>
              </g>
            </g>
            <path id="Path_13212" data-name="Path 13212" d="M349.614,255.129v6.925l-8.827-6.925Z" transform="translate(-309.241 -241.855)" fill="#1ca2d5"/>
          </g>
          <g id="Group_6401" data-name="Group 6401" transform="translate(0 54.838)">
            <ellipse id="Ellipse_227" data-name="Ellipse 227" cx="5.134" cy="5.206" rx="5.134" ry="5.206" transform="translate(518.657 119.757)" fill="#1ca2d5"/>
            <ellipse id="Ellipse_228" data-name="Ellipse 228" cx="7.334" cy="7.437" rx="7.334" ry="7.437" transform="translate(0 150.35)" fill="#1ca2d5"/>
            <path id="Path_13213" data-name="Path 13213" d="M722.552,164.241a2.794,2.794,0,1,1-2.794-2.833A2.814,2.814,0,0,1,722.552,164.241Z" transform="translate(-436.092 -161.408)" fill="#1ca2d5"/>
          </g>
          <g id="Group_6402" data-name="Group 6402" transform="translate(45.957)">
            <path id="Path_13214" data-name="Path 13214" d="M320.685,127.03h119.7s-.579-4.754-13.878-8.557-22.84,5.942-37.874,0S365.62,104,346.249,108.759,320.685,127.03,320.685,127.03Z" transform="translate(-320.685 -84.567)" fill="#1ca2d5"/>
            <path id="Path_13215" data-name="Path 13215" d="M960.732,202.843h61.9s-.3-2.99-7.177-5.383-11.811,3.738-19.586,0-11.9-9.1-21.915-6.111A20.881,20.881,0,0,0,960.732,202.843Z" transform="translate(-581.31 -118.408)" fill="#1ca2d5"/>
            <circle id="Ellipse_229" data-name="Ellipse 229" cx="20.289" cy="20.289" r="20.289" transform="matrix(0.159, -0.987, 0.987, 0.159, 303.328, 40.061)" fill="#1ca2d5"/>
          </g>
        </g>
      </g>
      <g id="Group_6431" data-name="Group 6431" transform="translate(172.546 82.534)">
        <g id="Group_6415" data-name="Group 6415">
          <g id="Group_6409" data-name="Group 6409">
            <rect id="Rectangle_2917" data-name="Rectangle 2917" width="210.627" height="211.299" transform="translate(0 57.842)" fill="#b7ded0" opacity="0.2"/>
            <path id="Path_13216" data-name="Path 13216" d="M707.91,241.422V274.66H497.283V241.422a11.956,11.956,0,0,1,11.956-11.956H695.954A11.956,11.956,0,0,1,707.91,241.422Z" transform="translate(-497.283 -216.817)" fill="#1ca2d5"/>
            <g id="Group_6408" data-name="Group 6408" transform="translate(28.214)">
              <g id="Group_6405" data-name="Group 6405" transform="translate(139.861)">
                <circle id="Ellipse_230" data-name="Ellipse 230" cx="9.908" cy="9.908" r="9.908" transform="translate(0 23.379)" fill="#26c3cf"/>
                <path id="Path_13217" data-name="Path 13217" d="M793.621,245.137h0a5.679,5.679,0,0,0,5.678-5.678V213.807a5.678,5.678,0,0,0-5.678-5.678h0a5.678,5.678,0,0,0-5.678,5.678v25.651A5.678,5.678,0,0,0,793.621,245.137Z" transform="translate(-783.714 -208.129)" fill="#6cb1a6"/>
              </g>
              <g id="Group_6406" data-name="Group 6406" transform="translate(69.93)">
                <circle id="Ellipse_231" data-name="Ellipse 231" cx="9.908" cy="9.908" r="9.908" transform="translate(0 23.379)" fill="#26c3cf"/>
                <path id="Path_13218" data-name="Path 13218" d="M675.655,245.137h0a5.678,5.678,0,0,0,5.679-5.678V213.807a5.678,5.678,0,0,0-5.679-5.678h0a5.678,5.678,0,0,0-5.678,5.678v25.651A5.679,5.679,0,0,0,675.655,245.137Z" transform="translate(-665.748 -208.129)" fill="#6cb1a6"/>
              </g>
              <g id="Group_6407" data-name="Group 6407">
                <circle id="Ellipse_232" data-name="Ellipse 232" cx="9.908" cy="9.908" r="9.908" transform="translate(0 23.379)" fill="#26c3cf"/>
                <path id="Path_13219" data-name="Path 13219" d="M557.69,245.137h0a5.679,5.679,0,0,0,5.678-5.678V213.807a5.678,5.678,0,0,0-5.678-5.678h0a5.678,5.678,0,0,0-5.679,5.678v25.651A5.679,5.679,0,0,0,557.69,245.137Z" transform="translate(-547.783 -208.129)" fill="#6cb1a6"/>
              </g>
            </g>
          </g>
          <g id="Group_6414" data-name="Group 6414" transform="translate(32.888 91.798)">
            <g id="Group_6410" data-name="Group 6410" transform="translate(0)">
              <rect id="Rectangle_2918" data-name="Rectangle 2918" width="40.048" height="40.048" transform="translate(146.613 40.048) rotate(180)" fill="none" stroke="#d4ece3" stroke-miterlimit="10" stroke-width="2.213"/>
              <rect id="Rectangle_2919" data-name="Rectangle 2919" width="40.048" height="40.048" transform="translate(93.331 40.048) rotate(180)" fill="none" stroke="#d4ece3" stroke-miterlimit="10" stroke-width="2.213"/>
              <rect id="Rectangle_2920" data-name="Rectangle 2920" width="40.048" height="40.048" transform="translate(40.048 40.048) rotate(180)" fill="none" stroke="#d4ece3" stroke-miterlimit="10" stroke-width="2.213"/>
            </g>
            <g id="Group_6412" data-name="Group 6412" transform="translate(0 50.836)">
              <rect id="Rectangle_2921" data-name="Rectangle 2921" width="40.048" height="40.048" transform="translate(146.613 40.048) rotate(180)" fill="none" stroke="#d4ece3" stroke-miterlimit="10" stroke-width="2.213"/>
              <rect id="Rectangle_2922" data-name="Rectangle 2922" width="40.048" height="40.048" transform="translate(93.331 40.048) rotate(180)" fill="none" stroke="#d4ece3" stroke-miterlimit="10" stroke-width="2.213"/>
              <rect id="Rectangle_2923" data-name="Rectangle 2923" width="40.048" height="40.048" transform="translate(40.048 40.048) rotate(180)" fill="#0071bb"/>
              <g id="Group_6411" data-name="Group 6411" transform="translate(14.473 14.302)">
                <line id="Line_284" data-name="Line 284" x2="11.103" y2="11.444" fill="none" stroke="#fff" stroke-miterlimit="10" stroke-width="2.017"/>
                <line id="Line_285" data-name="Line 285" x1="11.103" y2="11.444" fill="none" stroke="#fff" stroke-miterlimit="10" stroke-width="2.017"/>
              </g>
            </g>
            <g id="Group_6413" data-name="Group 6413" transform="translate(0 101.672)">
              <rect id="Rectangle_2924" data-name="Rectangle 2924" width="40.048" height="40.048" transform="translate(146.613 40.048) rotate(180)" fill="none" stroke="#d4ece3" stroke-miterlimit="10" stroke-width="2.213"/>
              <rect id="Rectangle_2925" data-name="Rectangle 2925" width="40.048" height="40.048" transform="translate(93.331 40.048) rotate(180)" fill="none" stroke="#d4ece3" stroke-miterlimit="10" stroke-width="2.213"/>
              <rect id="Rectangle_2926" data-name="Rectangle 2926" width="40.048" height="40.048" transform="translate(40.048 40.048) rotate(180)" fill="none" stroke="#d4ece3" stroke-miterlimit="10" stroke-width="2.213"/>
            </g>
          </g>
        </g>
        <g id="Group_6430" data-name="Group 6430" transform="translate(131.165 122.725)">
          <g id="Group_6418" data-name="Group 6418" transform="translate(0.199)">
            <g id="Group_6416" data-name="Group 6416" transform="translate(47.901)">
              <rect id="Rectangle_2927" data-name="Rectangle 2927" width="19.49" height="12.835" transform="translate(8.258 7.184)" fill="#71c68b"/>
              <path id="Path_13220" data-name="Path 13220" d="M830.434,425.665H804.941a5.256,5.256,0,0,1-5.256-5.256h0a5.256,5.256,0,0,1,5.256-5.256h25.493a5.256,5.256,0,0,1,5.256,5.256h0A5.256,5.256,0,0,1,830.434,425.665Z" transform="translate(-799.685 -415.153)" fill="#6cb1a6"/>
            </g>
            <g id="Group_6417" data-name="Group 6417" transform="translate(0 19.44)">
              <rect id="Rectangle_2928" data-name="Rectangle 2928" width="15.539" height="10.961" transform="translate(7.659 18.205) rotate(-45)" fill="#71c68b"/>
              <path id="Path_13221" data-name="Path 13221" d="M740.994,454.709l-15.35,15.35a3.961,3.961,0,0,1-5.6,0h0a3.961,3.961,0,0,1,0-5.6l15.35-15.35a3.961,3.961,0,0,1,5.6,0h0A3.96,3.96,0,0,1,740.994,454.709Z" transform="translate(-718.881 -447.946)" fill="#6cb1a6"/>
            </g>
          </g>
          <g id="Group_6429" data-name="Group 6429" transform="translate(0 14.488)">
            <g id="Group_6419" data-name="Group 6419">
              <circle id="Ellipse_233" data-name="Ellipse 233" cx="65.873" cy="65.873" r="65.873" fill="#65b99a"/>
              <circle id="Ellipse_234" data-name="Ellipse 234" cx="62.329" cy="62.329" r="62.329" transform="translate(3.544 3.544)" fill="#78c1a7"/>
              <circle id="Ellipse_235" data-name="Ellipse 235" cx="55.291" cy="55.291" r="55.291" transform="translate(10.582 10.582)" fill="#f5f9fc"/>
            </g>
            <g id="Group_6421" data-name="Group 6421" transform="translate(10.582 10.582)" opacity="0.71">
              <g id="Group_6420" data-name="Group 6420" clip-path="url(#clip-path)">
                <path id="Path_13222" data-name="Path 13222" d="M727.625,463.92l83.805,129.863,37.861-32.56L766.376,444.99Z" transform="translate(-732.825 -452.373)" fill="#fff"/>
                <path id="Path_13223" data-name="Path 13223" d="M802.964,422.332,886.77,552.195l4.871-16.28L808.725,419.682Z" transform="translate(-763.503 -442.067)" fill="#fff"/>
              </g>
            </g>
            <g id="Group_6428" data-name="Group 6428" transform="translate(16.935 16.994)">
              <g id="Group_6426" data-name="Group 6426">
                <g id="Group_6422" data-name="Group 6422" transform="translate(47.823)">
                  <path id="Path_13224" data-name="Path 13224" d="M829.176,474.308a1.391,1.391,0,0,1-1.391-1.392v-3.265a1.391,1.391,0,0,1,2.782,0v3.265A1.392,1.392,0,0,1,829.176,474.308Z" transform="translate(-827.785 -468.261)" fill="#1aa1d5"/>
                  <path id="Path_13225" data-name="Path 13225" d="M829.176,630.143a1.391,1.391,0,0,1-1.391-1.391v-3.266a1.391,1.391,0,0,1,2.782,0v3.266A1.391,1.391,0,0,1,829.176,630.143Z" transform="translate(-827.785 -531.716)" fill="#1aa1d5"/>
                </g>
                <g id="Group_6423" data-name="Group 6423" transform="translate(14.007 14.006)">
                  <path id="Path_13226" data-name="Path 13226" d="M774.441,496.979a1.384,1.384,0,0,1-.983-.407l-2.31-2.309a1.391,1.391,0,0,1,1.967-1.968l2.309,2.31a1.391,1.391,0,0,1-.984,2.374Z" transform="translate(-770.741 -491.887)" fill="#1aa1d5"/>
                  <path id="Path_13227" data-name="Path 13227" d="M884.634,607.172a1.386,1.386,0,0,1-.984-.407l-2.309-2.309a1.391,1.391,0,0,1,1.967-1.968l2.31,2.31a1.391,1.391,0,0,1-.983,2.374Z" transform="translate(-815.611 -536.757)" fill="#1aa1d5"/>
                </g>
                <g id="Group_6424" data-name="Group 6424" transform="translate(14.007 14.006)">
                  <path id="Path_13228" data-name="Path 13228" d="M772.132,607.172a1.391,1.391,0,0,1-.983-2.374l2.31-2.31a1.391,1.391,0,0,1,1.967,1.968l-2.309,2.309A1.386,1.386,0,0,1,772.132,607.172Z" transform="translate(-770.741 -536.757)" fill="#1aa1d5"/>
                  <path id="Path_13229" data-name="Path 13229" d="M882.325,496.979a1.391,1.391,0,0,1-.983-2.374l2.309-2.31a1.391,1.391,0,0,1,1.968,1.968l-2.31,2.309A1.384,1.384,0,0,1,882.325,496.979Z" transform="translate(-815.611 -491.887)" fill="#1aa1d5"/>
                </g>
                <g id="Group_6425" data-name="Group 6425" transform="translate(0 47.823)">
                  <path id="Path_13230" data-name="Path 13230" d="M751.769,551.714H748.5a1.391,1.391,0,1,1,0-2.781h3.265a1.391,1.391,0,1,1,0,2.781Z" transform="translate(-747.113 -548.933)" fill="#1aa1d5"/>
                  <path id="Path_13231" data-name="Path 13231" d="M907.6,551.714H904.34a1.391,1.391,0,1,1,0-2.781H907.6a1.391,1.391,0,1,1,0,2.781Z" transform="translate(-810.569 -548.933)" fill="#1aa1d5"/>
                </g>
              </g>
              <g id="Group_6427" data-name="Group 6427" transform="translate(41.591 16.552)">
                <path id="Path_13232" data-name="Path 13232" d="M831.172,528.318h-6.647V499.505a3.323,3.323,0,0,1,3.323-3.323h0a3.324,3.324,0,0,1,3.324,3.323Z" transform="translate(-820.225 -496.182)" fill="#1aa1d5"/>
                <circle id="Ellipse_237" data-name="Ellipse 237" cx="7.623" cy="7.623" r="7.623" transform="translate(0 24.513)" fill="#26c3cf"/>
              </g>
            </g>
          </g>
        </g>
      </g>
      <line id="Line_286" data-name="Line 286" x1="585.434" transform="translate(0 353.295)" fill="none" stroke="#0071bb" stroke-miterlimit="10" stroke-width="0.757"/>
    </g>
    <g id="Group_6435" data-name="Group 6435" transform="translate(330.934 319.817)">
      <g id="Group_6433" data-name="Group 6433" transform="translate(1.61 41.501)">
        <path id="Path_13233" data-name="Path 13233" d="M455.324,642.7,458.6,645.4l-.639,1.657-6.329-2.108.812-2.406Z" transform="translate(-432.478 -594.902)" fill="#3b455a"/>
        <path id="Path_13234" data-name="Path 13234" d="M435.148,565.52l1.427,6.429,8.556,18.928.225,18.761,3.884.278,2.893-25.766-1.164-7.326-4.7-14.645Z" transform="translate(-425.764 -562.179)" fill="#4f4c4c"/>
        <path id="Path_13235" data-name="Path 13235" d="M434.264,565.866l-.883,48.363-2.768.351-4.627-22.5-6.667-22.246Z" transform="translate(-419.319 -563.68)" fill="#4f4c4c"/>
        <path id="Path_13236" data-name="Path 13236" d="M441.373,646.61l3.848,1.789-.2,1.764-6.655-.46.185-2.533Z" transform="translate(-427.073 -596.559)" fill="#393737"/>
      </g>
      <path id="Path_13237" data-name="Path 13237" d="M444.932,514.751l-4.435-5.515s-10.052.63-17.289,11.865c-7.181,11.149-6.594,31.914-6.594,31.914s22.347-2.084,26.472-1.118l-.963-3.585a40.663,40.663,0,0,1,3.34-29.584l.477-.9A4.587,4.587,0,0,0,444.932,514.751Z" transform="translate(-416.602 -499.119)" fill="#ededed"/>
      <g id="Group_6434" data-name="Group 6434" transform="translate(24.029)">
        <path id="Path_13238" data-name="Path 13238" d="M470.355,506.144c-2.218-1.111-3.164-4.042-5.514-4.856a4.714,4.714,0,0,0-4.547,1.148,3.964,3.964,0,0,0-1.238,1.911c-.246.979.561,2.125.377,2.895-.167.7-.043.2-.556.663-.321.289-.915.121-1.292.539-.532.589-.472,2.143-.4,2.868.29,2.917,3.761-.626,4.757-1.408a5.227,5.227,0,0,0,.956.389,5.91,5.91,0,0,0,5.821-1.642A11.487,11.487,0,0,0,470.355,506.144Z" transform="translate(-457.137 -495.801)" fill="#e69689"/>
        <path id="Path_13239" data-name="Path 13239" d="M470.087,502.834l-6.105-4.7-4.269,4.259-.977-2.579,5.855-7.643,9.392,5.332,2.61,4.751-1.578,2.259-5.032.275Z" transform="translate(-457.788 -492.17)" fill="#3b455a"/>
      </g>
    </g>
    <g id="Group_6450" data-name="Group 6450" transform="translate(279.167 330.435)">
      <g id="Group_6442" data-name="Group 6442" transform="translate(0 0)">
        <g id="Group_6437" data-name="Group 6437" transform="translate(0)">
          <g id="Group_6436" data-name="Group 6436">
            <circle id="Ellipse_238" data-name="Ellipse 238" cx="37.784" cy="37.784" r="37.784" transform="translate(0 53.434) rotate(-45)" fill="#ebb044"/>
          </g>
        </g>
        <g id="Group_6439" data-name="Group 6439" transform="translate(21.595 21.186)">
          <g id="Group_6438" data-name="Group 6438">
            <path id="Path_13240" data-name="Path 13240" d="M417.313,545.821A37.79,37.79,0,0,1,365.7,598.377a37.787,37.787,0,1,0,51.608-52.556Z" transform="translate(-365.705 -545.821)" fill="#dda243"/>
          </g>
        </g>
        <g id="Group_6441" data-name="Group 6441" transform="translate(18.175 18.44)">
          <g id="Group_6440" data-name="Group 6440">
            <path id="Path_13241" data-name="Path 13241" d="M362.547,580.17a35.079,35.079,0,0,1,62.888-21.385,35.082,35.082,0,1,0-58.226,38.869A34.923,34.923,0,0,1,362.547,580.17Z" transform="translate(-359.936 -541.19)" fill="#ffc85a"/>
          </g>
        </g>
      </g>
      <g id="Group_6443" data-name="Group 6443" transform="translate(35.821 56.963)">
        <path id="Path_13242" data-name="Path 13242" d="M391.829,619.437a1.247,1.247,0,0,1-2.029-1.36,18.939,18.939,0,0,1,35.025-.347,1.246,1.246,0,0,1-2.013,1.375C417.283,613.743,405.544,606.115,391.829,619.437Z" transform="translate(-389.703 -606.174)" fill="#3b455a"/>
      </g>
      <g id="Group_6449" data-name="Group 6449" transform="translate(36.73 39.296)">
        <g id="Group_6448" data-name="Group 6448">
          <g id="Group_6445" data-name="Group 6445" transform="translate(0 0)">
            <g id="Group_6444" data-name="Group 6444">
              <ellipse id="Ellipse_239" data-name="Ellipse 239" cx="2.784" cy="4.693" rx="2.784" ry="4.693" fill="#3b455a"/>
            </g>
          </g>
          <g id="Group_6447" data-name="Group 6447" transform="translate(27.84)">
            <g id="Group_6446" data-name="Group 6446">
              <path id="Path_13243" data-name="Path 13243" d="M443.768,581.065c0,2.592-1.247,4.693-2.784,4.693s-2.784-2.1-2.784-4.693,1.247-4.693,2.784-4.693S443.768,578.473,443.768,581.065Z" transform="translate(-438.2 -576.372)" fill="#3b455a"/>
            </g>
          </g>
        </g>
      </g>
    </g>
  </g>
</svg>
