<svg id="Group_6377" data-name="Group 6377" xmlns="http://www.w3.org/2000/svg" xmlns:xlink="http://www.w3.org/1999/xlink" width="174.249" height="56.999" viewBox="0 0 174.249 56.999">
  <defs>
    <clipPath id="clip-path">
      <path id="Path_13238" data-name="Path 13238" d="M159.692,343.56l-7.855-4.535-15.152-8.749c-.841-.486-1.679-.192-1.679.824v35.643c0,.761.6,1.089,1.33.667l15.5-8.951,7.855-4.535,7.551-4.359c.886-.512.8-1.214.053-1.616S159.692,343.56,159.692,343.56Z" transform="translate(-135.006 -330.047)" fill="none"/>
    </clipPath>
    <linearGradient id="linear-gradient" x1="0.5" x2="0.5" y2="1" gradientUnits="objectBoundingBox">
      <stop offset="0" stop-color="#006aa2"/>
      <stop offset="0.345" stop-color="#2f8da6"/>
      <stop offset="0.786" stop-color="#66b6ac"/>
      <stop offset="1" stop-color="#7cc6af"/>
    </linearGradient>
    <linearGradient id="linear-gradient-2" y1="0.5" x2="1" y2="0.5" gradientUnits="objectBoundingBox">
      <stop offset="0" stop-color="#4ab59d"/>
      <stop offset="1" stop-color="#dfe385"/>
    </linearGradient>
    <linearGradient id="linear-gradient-3" x1="0.5" x2="0.5" y2="1" gradientUnits="objectBoundingBox">
      <stop offset="0" stop-color="#e4282d"/>
      <stop offset="0.316" stop-color="#ba2d4e"/>
      <stop offset="0.777" stop-color="#83357b"/>
      <stop offset="1" stop-color="#6e388d"/>
    </linearGradient>
    <linearGradient id="linear-gradient-4" x1="0.5" x2="0.5" y2="1" gradientUnits="objectBoundingBox">
      <stop offset="0" stop-color="#f07165"/>
      <stop offset="0.659" stop-color="#faa460"/>
      <stop offset="1" stop-color="#ffba5e"/>
    </linearGradient>
  </defs>
  <path id="Path_13233" data-name="Path 13233" d="M270.89,345.369a7.7,7.7,0,0,1-7.7,7.7H104.344a7.7,7.7,0,0,1-7.7-7.7V303.777a7.7,7.7,0,0,1,7.7-7.7H263.189a7.7,7.7,0,0,1,7.7,7.7Z" transform="translate(-96.641 -296.074)" fill="#1a1818"/>
  <g id="PLAY" transform="translate(13.067 11.585)">
    <g id="Group_6358" data-name="Group 6358" clip-path="url(#clip-path)">
      <path id="Path_13234" data-name="Path 13234" d="M135.006,328.285v38.59l19.459-19.295Z" transform="translate(-135.006 -328.885)" fill="url(#linear-gradient)"/>
      <path id="Path_13235" data-name="Path 13235" d="M159.692,342.126l-7.855-4.535-16.831-9.718v.14l19.459,19.3Z" transform="translate(-135.006 -328.614)" fill="url(#linear-gradient-2)"/>
      <path id="Path_13236" data-name="Path 13236" d="M135.006,404.232v.14l16.831-9.718,7.855-4.535-5.226-5.182Z" transform="translate(-135.006 -366.242)" fill="url(#linear-gradient-3)"/>
      <path id="Path_13237" data-name="Path 13237" d="M197.366,369.721,192.14,374.9l5.226,5.182,8.977-5.182Z" transform="translate(-172.68 -356.208)" fill="url(#linear-gradient-4)"/>
    </g>
  </g>
  <g id="Group_6359" data-name="Group 6359" transform="translate(130.396 21.68)">
    <path id="Path_13239" data-name="Path 13239" d="M484.59,384.564a4.852,4.852,0,0,1-2-.4,3.772,3.772,0,0,1-1.521-1.244h-.123a15.081,15.081,0,0,1,.123,1.863V389.4h-1.7V373.137h1.382l.235,1.536h.082a3.951,3.951,0,0,1,1.527-1.331,4.635,4.635,0,0,1,2-.41,4.148,4.148,0,0,1,3.446,1.526,8.127,8.127,0,0,1-.019,8.577A4.158,4.158,0,0,1,484.59,384.564Zm-.246-10.189a3.012,3.012,0,0,0-2.488.952,4.9,4.9,0,0,0-.789,3.031v.379a5.615,5.615,0,0,0,.789,3.384,3,3,0,0,0,2.529,1.018,2.631,2.631,0,0,0,2.279-1.177,5.587,5.587,0,0,0,.824-3.247,5.378,5.378,0,0,0-.824-3.22A2.713,2.713,0,0,0,484.344,374.376Z" transform="translate(-479.368 -368.426)" fill="#f9f9f9"/>
    <path id="Path_13240" data-name="Path 13240" d="M516.644,375.636h-1.7V359.7h1.7Z" transform="translate(-502.827 -359.703)" fill="#f9f9f9"/>
    <path id="Path_13241" data-name="Path 13241" d="M533.639,384.4l-.338-1.6h-.082a4.709,4.709,0,0,1-1.675,1.428,5.085,5.085,0,0,1-2.083.374,3.75,3.75,0,0,1-2.616-.86,3.136,3.136,0,0,1-.947-2.447q0-3.4,5.437-3.564l1.905-.062v-.7a2.842,2.842,0,0,0-.569-1.951,2.336,2.336,0,0,0-1.817-.63,7.4,7.4,0,0,0-3.174.86l-.523-1.3a7.988,7.988,0,0,1,1.818-.706,7.868,7.868,0,0,1,1.981-.256,4.276,4.276,0,0,1,2.975.891,3.722,3.722,0,0,1,.967,2.857V384.4Zm-3.84-1.2a3.452,3.452,0,0,0,2.493-.87,3.222,3.222,0,0,0,.906-2.438V378.88l-1.7.071a6.184,6.184,0,0,0-2.923.631,1.9,1.9,0,0,0-.9,1.735,1.749,1.749,0,0,0,.558,1.4A2.314,2.314,0,0,0,529.8,383.2Z" transform="translate(-510.05 -368.466)" fill="#f9f9f9"/>
    <path id="Path_13242" data-name="Path 13242" d="M555.222,373.533h1.822l2.458,6.4a24.446,24.446,0,0,1,1,3.164h.082q.133-.523.557-1.788t2.78-7.777h1.823l-4.823,12.779A6.375,6.375,0,0,1,559.251,389a3.561,3.561,0,0,1-2.349.793,6.875,6.875,0,0,1-1.536-.173v-1.362a5.936,5.936,0,0,0,1.26.123,2.6,2.6,0,0,0,2.5-1.967l.624-1.6Z" transform="translate(-529.387 -368.823)" fill="#f9f9f9"/>
  </g>
  <g id="Group_6361" data-name="Group 6361" transform="translate(52.887 20.425)">
    <path id="Path_13243" data-name="Path 13243" d="M385.3,374.958a3.823,3.823,0,0,1-.306,6.5,1.652,1.652,0,0,0-.657,1.152,1.287,1.287,0,0,0,.611,1.009l.845.656c1.033.869,1.971,1.668,1.971,3.288,0,2.206-2.136,4.436-6.173,4.436-3.4,0-5.047-1.619-5.047-3.358a3.377,3.377,0,0,1,1.808-2.864,10.119,10.119,0,0,1,4.483-1.08,2.456,2.456,0,0,1-.7-1.594,2.119,2.119,0,0,1,.235-.917c-.259.024-.517.047-.752.047a3.711,3.711,0,0,1-3.9-3.685,4.223,4.223,0,0,1,1.5-3.146,6.4,6.4,0,0,1,4.2-1.292h4.835l-1.5.845Zm-1.667,10.423a3.647,3.647,0,0,0-.539-.024,9.391,9.391,0,0,0-2.465.377,2.637,2.637,0,0,0-2.019,2.417c0,1.666,1.621,2.865,4.132,2.865,2.252,0,3.451-1.082,3.451-2.536C386.191,387.28,385.416,386.649,383.631,385.381Zm.681-4.46a2.375,2.375,0,0,0,.585-1.714c0-1.69-1.009-4.318-2.956-4.318a2.193,2.193,0,0,0-1.644.775,2.712,2.712,0,0,0-.517,1.737c0,1.573.916,4.178,2.935,4.178A2.4,2.4,0,0,0,384.313,380.921Z" transform="translate(-334.075 -367.95)" fill="#f9f9f9"/>
    <path id="Path_13244" data-name="Path 13244" d="M347.791,384.361a5.531,5.531,0,0,1-5.718-5.532,5.807,5.807,0,0,1,6.071-5.694,5.479,5.479,0,0,1,5.6,5.531A5.726,5.726,0,0,1,347.791,384.361Zm2.929-1.9a4.24,4.24,0,0,0,.7-2.6c0-2.063-.984-6-3.891-6a3.265,3.265,0,0,0-2.109.8,3.546,3.546,0,0,0-1.079,2.86c0,2.318,1.148,6.137,3.985,6.137A2.993,2.993,0,0,0,350.72,382.463Z" transform="translate(-311.346 -367.305)" fill="#f9f9f9"/>
    <path id="Path_13245" data-name="Path 13245" d="M310.495,384.361a5.531,5.531,0,0,1-5.719-5.532,5.808,5.808,0,0,1,6.071-5.694,5.479,5.479,0,0,1,5.6,5.531A5.727,5.727,0,0,1,310.495,384.361Zm2.93-1.9a4.246,4.246,0,0,0,.7-2.6c0-2.063-.985-6-3.891-6a3.266,3.266,0,0,0-2.109.8,3.547,3.547,0,0,0-1.078,2.86c0,2.318,1.148,6.137,3.985,6.137A3,3,0,0,0,313.424,382.463Z" transform="translate(-286.752 -367.305)" fill="#f9f9f9"/>
    <path id="Path_13246" data-name="Path 13246" d="M268.09,373.723l-3.37.778a24.97,24.97,0,0,1-3.887.4c-6.5,0-8.977-4.783-8.977-8.53,0-4.57,3.51-8.811,9.519-8.811a13.561,13.561,0,0,1,3.6.495,9.186,9.186,0,0,1,3.11,1.461l-1.956,1.861-.824.187.589-.942a6.734,6.734,0,0,0-5.042-2.214c-3.723,0-6.528,2.829-6.528,6.952a8.333,8.333,0,0,0,8.34,8.6,7.018,7.018,0,0,0,2.993-.589v-3.793l-3.557.188,1.884-1.014h5l-.612.589a.55.55,0,0,0-.236.376c-.025.213-.047.9-.047,1.132Z" transform="translate(-251.856 -357.035)" fill="#f9f9f9"/>
    <path id="Path_13247" data-name="Path 13247" d="M414.426,372.028c-.778-.071-.941-.212-.941-1.131V357.561c0-.051.008-.1.013-.152.1-.824.33-.966,1.062-1.39h-3.371l-1.768.848h1.8v14.548c0,.47-.093.542-.636,1.248h4.171l.872-.517C415.228,372.1,414.827,372.075,414.426,372.028Z" transform="translate(-355.755 -356.019)" fill="#f9f9f9"/>
    <path id="Path_13248" data-name="Path 13248" d="M435.73,383.545c-.257.141-.514.306-.77.421a5.45,5.45,0,0,1-2.272.445,5,5,0,0,1-3.112-.913,6.056,6.056,0,0,1-2.385-4.938,5.3,5.3,0,0,1,5.359-5.4,4.548,4.548,0,0,1,2.411.656,3.874,3.874,0,0,1,1.636,2.315l-5.5,2.224-1.8.14c.584,2.972,2.6,4.7,4.82,4.7a6.047,6.047,0,0,0,2.855-.817Zm-2.2-6.974c.443-.163.678-.3.678-.631a2.322,2.322,0,0,0-2.317-2.012c-.937,0-2.691.726-2.691,3.252,0,.4.047.819.071,1.241Z" transform="translate(-367.472 -367.319)" fill="#f9f9f9"/>
    <g id="Group_6360" data-name="Group 6360" transform="translate(69.818 5.837)">
      <path id="Path_13249" data-name="Path 13249" d="M457.544,373.316v1.544h-.187v-1.544h-.511v-.16h1.209v.16Z" transform="translate(-456.846 -373.156)" fill="#f9f9f9"/>
      <path id="Path_13250" data-name="Path 13250" d="M462.585,374.86V373.3h-.009l-.476,1.558h-.146l-.48-1.558h-.006v1.558h-.17v-1.7h.292l.434,1.377h.006l.427-1.377h.3v1.7Z" transform="translate(-459.782 -373.156)" fill="#f9f9f9"/>
    </g>
  </g>
  <g id="Group_6362" data-name="Group 6362" transform="translate(52.925 11.483)">
    <path id="Path_13251" data-name="Path 13251" d="M256.613,334.867h-1.171a7.766,7.766,0,0,0-.333-1.368h-1.69a7.073,7.073,0,0,0-.344,1.368h-1.1q0-.143.854-2.342a18.413,18.413,0,0,0,.855-2.422h1.383a20.224,20.224,0,0,0,.774,2.387A20.9,20.9,0,0,1,256.613,334.867Zm-1.69-2.067a20.7,20.7,0,0,1-.626-2.042h-.059a21.418,21.418,0,0,1-.647,2.042Z" transform="translate(-251.974 -329.993)" fill="#f7f8f8"/>
    <path id="Path_13252" data-name="Path 13252" d="M271.846,334.867h-.9a8.909,8.909,0,0,0-1.006-1.584,8.728,8.728,0,0,1-1.2-2.067h-.059a12.89,12.89,0,0,1,.092,1.449q0,.9.051,2.2h-.9q.055-1.134.055-2.492,0-1.335-.055-2.272h1.087a6.883,6.883,0,0,0,.9,1.547,9.113,9.113,0,0,1,1.1,1.95h.055a13.886,13.886,0,0,1-.088-1.464q0-.991-.051-2.034h.915q-.052.907-.051,2.272T271.846,334.867Z" transform="translate(-262.489 -329.993)" fill="#f7f8f8"/>
    <path id="Path_13253" data-name="Path 13253" d="M287.225,332.277a2.7,2.7,0,0,1-.666,1.815,2.325,2.325,0,0,1-1.866.776q-.541,0-1.493-.044.048-1.105.048-2.492,0-1.331-.048-2.272h.64q.157,0,.468-.011t.406-.011a2.467,2.467,0,0,1,1.916.659A2.277,2.277,0,0,1,287.225,332.277Zm-1,.157a1.762,1.762,0,0,0-.41-1.184,1.553,1.553,0,0,0-1.251-.481,3.882,3.882,0,0,0-.432.033q.037.732.037,1.529,0,.875.036,1.734a2.422,2.422,0,0,0,.476.048,1.382,1.382,0,0,0,1.165-.489A1.885,1.885,0,0,0,286.226,332.434Z" transform="translate(-272.565 -329.95)" fill="#f7f8f8"/>
    <path id="Path_13254" data-name="Path 13254" d="M301.907,334.824h-1.083a7.183,7.183,0,0,0-.651-1.6.853.853,0,0,0-.732-.3q-.212,0-.406,0,0,.941.033,1.9h-1.017q.048-1.105.047-2.492,0-1.331-.047-2.272h.633q.11,0,.459-.011t.646-.011q1.679,0,1.679,1.149a1.289,1.289,0,0,1-.959,1.27v.055a1.143,1.143,0,0,1,.648.576A12.732,12.732,0,0,1,301.907,334.824Zm-1.372-3.366q0-.728-.937-.728a3.188,3.188,0,0,0-.608.051q.04.567.041,1.478.2.007.34.007Q300.535,332.266,300.535,331.458Z" transform="translate(-282.357 -329.95)" fill="#f7f8f8"/>
    <path id="Path_13255" data-name="Path 13255" d="M315.754,332.184a2.628,2.628,0,0,1-.688,1.862,2.232,2.232,0,0,1-1.7.739,2.15,2.15,0,0,1-1.617-.679,2.389,2.389,0,0,1-.651-1.725,2.626,2.626,0,0,1,.688-1.862,2.232,2.232,0,0,1,1.7-.739,2.152,2.152,0,0,1,1.617.677A2.388,2.388,0,0,1,315.754,332.184Zm-1.01.106a1.888,1.888,0,0,0-.392-1.24,1.205,1.205,0,0,0-.966-.476,1.116,1.116,0,0,0-.907.48,1.913,1.913,0,0,0-.373,1.211,1.884,1.884,0,0,0,.393,1.238,1.205,1.205,0,0,0,.964.478,1.114,1.114,0,0,0,.907-.481A1.914,1.914,0,0,0,314.745,332.29Z" transform="translate(-290.96 -329.78)" fill="#f7f8f8"/>
    <path id="Path_13256" data-name="Path 13256" d="M328.84,334.867H327.8q.048-1.134.048-2.492,0-1.335-.048-2.272h1.035q-.048.922-.047,2.272Q328.793,333.755,328.84,334.867Z" transform="translate(-301.977 -329.993)" fill="#f7f8f8"/>
    <path id="Path_13257" data-name="Path 13257" d="M338.623,332.277a2.7,2.7,0,0,1-.666,1.815,2.325,2.325,0,0,1-1.866.776q-.542,0-1.493-.044.048-1.105.048-2.492,0-1.331-.048-2.272h.64q.157,0,.468-.011t.406-.011a2.466,2.466,0,0,1,1.916.659A2.278,2.278,0,0,1,338.623,332.277Zm-1,.157a1.764,1.764,0,0,0-.41-1.184,1.553,1.553,0,0,0-1.251-.481,3.875,3.875,0,0,0-.432.033q.037.732.037,1.529,0,.875.036,1.734a2.422,2.422,0,0,0,.476.048,1.382,1.382,0,0,0,1.165-.489A1.885,1.885,0,0,0,337.625,332.434Z" transform="translate(-306.457 -329.95)" fill="#f7f8f8"/>
    <path id="Path_13258" data-name="Path 13258" d="M358.089,334.867h-1.171a7.716,7.716,0,0,0-.333-1.368h-1.69a7.061,7.061,0,0,0-.344,1.368h-1.1q0-.143.854-2.342a18.378,18.378,0,0,0,.854-2.422h1.383a20.192,20.192,0,0,0,.774,2.387A20.992,20.992,0,0,1,358.089,334.867ZM356.4,332.8a20.769,20.769,0,0,1-.626-2.042h-.058a21.415,21.415,0,0,1-.647,2.042Z" transform="translate(-318.888 -329.993)" fill="#f7f8f8"/>
    <path id="Path_13259" data-name="Path 13259" d="M372.872,331.308a1.426,1.426,0,0,1-.65,1.292,2.888,2.888,0,0,1-1.593.417q-.172,0-.245-.007,0,.688.04,1.815H369.4q.048-1.057.048-2.492,0-1.317-.048-2.272h.637q.135,0,.519-.011t.666-.011a2.094,2.094,0,0,1,1.174.315A1.064,1.064,0,0,1,372.872,331.308Zm-.944.2q0-.783-1.039-.783a2.924,2.924,0,0,0-.549.055q.04.691.04,1.566.091.008.212.007Q371.928,332.354,371.928,331.509Z" transform="translate(-329.403 -329.95)" fill="#f7f8f8"/>
    <path id="Path_13260" data-name="Path 13260" d="M385.756,331.308a1.427,1.427,0,0,1-.649,1.292,2.89,2.89,0,0,1-1.594.417c-.115,0-.2,0-.245-.007q0,.688.04,1.815H382.28q.047-1.057.048-2.492,0-1.317-.048-2.272h.637q.135,0,.52-.011t.666-.011a2.094,2.094,0,0,1,1.174.315A1.064,1.064,0,0,1,385.756,331.308Zm-.944.2q0-.783-1.039-.783a2.923,2.923,0,0,0-.549.055q.04.691.04,1.566c.061.005.132.007.212.007Q384.812,332.354,384.812,331.509Z" transform="translate(-337.899 -329.95)" fill="#f7f8f8"/>
    <path id="Path_13261" data-name="Path 13261" d="M404.533,332.184a2.627,2.627,0,0,1-.688,1.862,2.231,2.231,0,0,1-1.7.739,2.15,2.15,0,0,1-1.617-.679,2.39,2.39,0,0,1-.651-1.725,2.627,2.627,0,0,1,.688-1.862,2.233,2.233,0,0,1,1.7-.739,2.153,2.153,0,0,1,1.617.677A2.389,2.389,0,0,1,404.533,332.184Zm-1.01.106a1.886,1.886,0,0,0-.392-1.24,1.2,1.2,0,0,0-.966-.476,1.116,1.116,0,0,0-.908.48,1.912,1.912,0,0,0-.373,1.211,1.884,1.884,0,0,0,.393,1.238,1.2,1.2,0,0,0,.964.478,1.113,1.113,0,0,0,.907-.481A1.912,1.912,0,0,0,403.523,332.29Z" transform="translate(-349.501 -329.78)" fill="#f7f8f8"/>
    <path id="Path_13262" data-name="Path 13262" d="M420.51,334.867h-.9a8.907,8.907,0,0,0-1.006-1.584,8.731,8.731,0,0,1-1.2-2.067h-.058a12.963,12.963,0,0,1,.091,1.449q0,.9.051,2.2h-.9q.055-1.134.055-2.492,0-1.335-.055-2.272h1.086a6.893,6.893,0,0,0,.9,1.547,9.115,9.115,0,0,1,1.1,1.95h.055a13.811,13.811,0,0,1-.088-1.464q0-.991-.051-2.034h.914q-.051.907-.051,2.272T420.51,334.867Z" transform="translate(-360.519 -329.993)" fill="#f7f8f8"/>
  </g>
</svg>
