<svg xmlns="http://www.w3.org/2000/svg" width="26.76" height="24" viewBox="0 0 26.76 24">
  <g id="Group_2223" data-name="Group 2223" transform="translate(-216.572 -217.952)" opacity="0.4">
    <g id="Group_2221" data-name="Group 2221">
      <path id="Path_1095" data-name="Path 1095" d="M223.756,226.364h2.708V234.4a1.476,1.476,0,0,0,1.475,1.476h4.027a1.475,1.475,0,0,0,1.475-1.476v-8.033h2.707a1.107,1.107,0,0,0,.783-1.891l-6.2-6.2a1.109,1.109,0,0,0-1.567,0l-6.195,6.2a1.108,1.108,0,0,0,.783,1.891Z"/>
    </g>
    <g id="Group_2222" data-name="Group 2222">
      <path id="Path_1096" data-name="Path 1096" d="M242,229.375a1.329,1.329,0,0,0-1.329,1.33v5.564a3.027,3.027,0,0,1-3.024,3.022H222.256a3.026,3.026,0,0,1-3.023-3.022v-5.564a1.33,1.33,0,0,0-2.661,0v5.564a5.69,5.69,0,0,0,5.684,5.683h15.392a5.69,5.69,0,0,0,5.684-5.683v-5.564A1.33,1.33,0,0,0,242,229.375Z"/>
    </g>
  </g>
</svg>
