<svg id="_007---Hyderabad-Charminar" data-name="007---Hyderabad-Charminar" xmlns="http://www.w3.org/2000/svg" width="124.537" height="124.367" viewBox="0 0 124.537 124.367">
  <path id="Shape" d="M6.076,45.3a2.076,2.076,0,0,0,2.076-2.076V39.076a2.076,2.076,0,0,0-4.151,0v4.151A2.076,2.076,0,0,0,6.076,45.3Z" transform="translate(4.303 39.627)" fill="#aeacac"/>
  <path id="Shape-2" data-name="Shape" d="M10.076,45.3a2.076,2.076,0,0,0,2.076-2.076V39.076a2.076,2.076,0,0,0-4.151,0v4.151A2.076,2.076,0,0,0,10.076,45.3Z" transform="translate(8.605 39.627)" fill="#aeacac"/>
  <path id="Shape-3" data-name="Shape" d="M19.076,47A2.076,2.076,0,0,0,17,49.076V63.6a2.076,2.076,0,0,0,4.151,0V49.076A2.076,2.076,0,0,0,19.076,47Z" transform="translate(18.286 50.384)" fill="#aeacac"/>
  <path id="Shape-4" data-name="Shape" d="M43.076,47A2.076,2.076,0,0,0,41,49.076V63.6a2.076,2.076,0,1,0,4.151,0V49.076A2.076,2.076,0,0,0,43.076,47Z" transform="translate(44.1 50.384)" fill="#aeacac"/>
  <path id="Shape-5" data-name="Shape" d="M19.076,36A2.076,2.076,0,0,0,17,38.076V44.3a2.076,2.076,0,1,0,4.151,0V38.076A2.076,2.076,0,0,0,19.076,36Z" transform="translate(18.286 38.552)" fill="#aeacac"/>
  <path id="Shape-6" data-name="Shape" d="M43.076,36A2.076,2.076,0,0,0,41,38.076V44.3a2.076,2.076,0,1,0,4.151,0V38.076A2.076,2.076,0,0,0,43.076,36Z" transform="translate(44.1 38.552)" fill="#aeacac"/>
  <path id="Shape-7" data-name="Shape" d="M52.076,45.3a2.076,2.076,0,0,0,2.076-2.076V39.076a2.076,2.076,0,1,0-4.151,0v4.151A2.076,2.076,0,0,0,52.076,45.3Z" transform="translate(53.781 39.627)" fill="#aeacac"/>
  <path id="Shape-8" data-name="Shape" d="M56.076,45.3a2.076,2.076,0,0,0,2.076-2.076V39.076a2.076,2.076,0,0,0-4.151,0v4.151A2.076,2.076,0,0,0,56.076,45.3Z" transform="translate(58.083 39.627)" fill="#aeacac"/>
  <path id="Shape-9" data-name="Shape" d="M119.037,10.29a23.475,23.475,0,0,1-5.314-7.867,4.151,4.151,0,0,0-7.431,0,35.016,35.016,0,0,1-2.2,4.151c-2.719,4.234-8.614,7.119-8.614,15.069A11.333,11.333,0,0,0,98.343,29.2a4.151,4.151,0,0,0-2.864,3.923v4.151a4.151,4.151,0,0,0,4.151,4.151v8.3H24.907v-8.3a4.151,4.151,0,0,0,4.151-4.151V33.122a4.151,4.151,0,0,0-2.864-3.964,11.333,11.333,0,0,0,2.864-7.514c0-5.583-2.927-8.676-5.5-11.354a23.475,23.475,0,0,1-5.314-7.908,4.151,4.151,0,0,0-7.431,0,35.015,35.015,0,0,1-2.2,4.151C5.895,10.809,0,13.694,0,21.643A11.333,11.333,0,0,0,2.864,29.2,4.151,4.151,0,0,0,0,33.122v4.151a4.151,4.151,0,0,0,4.151,4.151v16.6H2.076A2.076,2.076,0,0,0,0,60.1v62.268a2.076,2.076,0,0,0,2.076,2.076H122.461a2.076,2.076,0,0,0,2.076-2.076V60.1a2.076,2.076,0,0,0-2.076-2.076h-2.076v-16.6a4.151,4.151,0,0,0,4.151-4.151V33.122a4.151,4.151,0,0,0-2.864-3.964,11.333,11.333,0,0,0,2.864-7.514c0-5.583-2.927-8.676-5.5-11.354Zm-9.029-6.227a27.522,27.522,0,0,0,6.019,9.029c2.428,2.574,4.359,4.608,4.359,8.552a7.327,7.327,0,0,1-7.327,7.327h-6.1a7.327,7.327,0,0,1-7.327-7.327c0-7.2,6.787-8.219,10.378-17.58ZM120.386,62.18v4.151H99.63V62.18Zm0,35.285H99.63V93.314h20.756ZM43.588,62.18v4.151H29.059V62.18Zm33.21,0v4.151H47.739V62.18Zm18.681,0v4.151H80.949V62.18Zm24.907,26.983H99.63V70.483h20.756Zm-95.478,0H4.151V70.483H24.907ZM4.151,93.314H24.907v4.151H4.151ZM29.059,70.483H43.588V89.163H29.059Zm18.681,0H76.8v6.227H47.739Zm33.21,0H95.478V89.163H80.949Zm18.681-16.6v4.151H24.907V53.878ZM4.151,37.273V33.122H24.907v4.151ZM14.529,4.063a27.523,27.523,0,0,0,6.019,9.029c2.428,2.574,4.359,4.608,4.359,8.552A7.327,7.327,0,0,1,17.58,28.97h-6.1a7.327,7.327,0,0,1-7.327-7.327c0-7.2,6.787-8.219,10.378-17.58ZM8.3,41.424H20.756v16.6H8.3ZM4.151,62.18H24.907v4.151H4.151Zm0,39.437H24.907V120.3H4.151Zm24.907-8.3H43.588V120.3H29.059ZM47.739,80.861H76.8V120.3H72.647V100.766c0-5.376-1.93-8.884-7.618-13.865a4.151,4.151,0,0,0-5.521,0c-5.687,4.981-7.618,8.489-7.618,13.865V120.3H47.739Zm8.3,39.437V100.766c0-3.612.934-6.227,6.227-10.752,5.272,4.629,6.227,7.14,6.227,10.752V120.3ZM80.949,93.314H95.478V120.3H80.949ZM99.63,120.3V101.617h20.756V120.3Zm16.6-62.269H103.781v-16.6h12.454ZM99.63,37.273V33.122h20.756v4.151Z" transform="translate(0 -0.082)" fill="#aeacac"/>
</svg>
