<svg id="Group_2812" data-name="Group 2812" xmlns="http://www.w3.org/2000/svg" width="431.927" height="206.879" viewBox="0 0 431.927 206.879">
  <path id="Rectangle_2_" d="M45.043,5.623,57.3,17.882a19.2,19.2,0,0,1,0,27.161L45.043,57.3a19.2,19.2,0,0,1-27.161,0L5.623,45.043a19.2,19.2,0,0,1,0-27.161L17.882,5.623A19.2,19.2,0,0,1,45.043,5.623ZM37.9,12.762a9.1,9.1,0,0,0-12.872,0L12.762,25.026a9.1,9.1,0,0,0,0,12.872L25.026,50.161a9.1,9.1,0,0,0,12.872,0L50.161,37.9a9.1,9.1,0,0,0,0-12.872Z" transform="translate(57.537 143.952)" fill="#5eafd9"/>
  <circle id="Oval-Copy-38_1_" cx="8.498" cy="8.498" r="8.498" transform="translate(337.032 166.856)" fill="#5eafd9"/>
  <path id="Rectangle-Copy-2_2_" d="M2086.106,723.714,2074.9,712.5a2.41,2.41,0,0,1,0-3.408l11.21-11.21a2.41,2.41,0,0,1,3.408,0l11.21,11.21a2.41,2.41,0,0,1,0,3.408l-11.21,11.21A2.41,2.41,0,0,1,2086.106,723.714Z" transform="translate(-1669.502 -692.494)" fill="#5eafd9"/>
  <path id="Oval-Copy_2_" d="M44.489,0A44.489,44.489,0,1,0,88.978,44.489,44.489,44.489,0,0,0,44.489,0Zm.033,14.073A30.383,30.383,0,1,1,14.139,44.456,30.382,30.382,0,0,1,44.522,14.073Z" fill="#5eafd9"/>
</svg>
