<?xml version="1.0" encoding="utf-8"?>
<!-- Generator: Adobe Illustrator 23.0.0, SVG Export Plug-In . SVG Version: 6.00 Build 0)  -->
<svg version="1.1" id="Layer_1" xmlns="http://www.w3.org/2000/svg" xmlns:xlink="http://www.w3.org/1999/xlink" x="0px" y="0px"
	 viewBox="0 0 22 13.6" style="enable-background:new 0 0 22 13.6;" xml:space="preserve">
<style type="text/css">
	.st0{fill:#2E669D;}
</style>
<g id="left-arrow" transform="translate(-54.954 5)">
	<path id="Path_1817" class="st0" d="M55.9,0.9h17.8l-4.2-4.2c-0.4-0.4-0.4-1,0-1.3c0.4-0.4,1-0.4,1.3,0l0,0l5.9,5.9
		c0.4,0.4,0.4,1,0,1.3c0,0,0,0,0,0l-5.9,5.9c-0.4,0.4-1,0.4-1.3,0c-0.4-0.4-0.4-1,0-1.3l0,0l4.2-4.2H55.9c-0.5,0-1-0.4-1-0.9
		C55,1.3,55.4,0.9,55.9,0.9L55.9,0.9z"/>
</g>
</svg>
