<svg xmlns="http://www.w3.org/2000/svg" width="209.095" height="183.294" viewBox="0 0 209.095 183.294">
  <path id="Icon_map-food" data-name="Icon map-food" d="M209.354,51.749l-17.141,134.37h-57.9L117.243,51.078h70.683L201.9,2.825l7.919,2.387-13.4,46.437,12.942.1Zm-100.3,77.74s2.165-17.425-27.858-17.425H33.387c-29.979,0-27.858,17.425-27.858,17.425ZM5.529,168.694s-2.121,17.425,27.858,17.425H81.2c30.023,0,27.858-17.425,27.858-17.425H5.529Zm99.037-8.712c4.914,0,8.882-4.853,8.882-10.886,0-6.068-3.968-10.895-8.882-10.895H9.607C4.715,138.2.72,143.027.72,149.1c0,6.033,3.995,10.886,8.887,10.886h94.96Z" transform="translate(-0.72 -2.825)" fill="#e7e7e7"/>
</svg>
