<svg xmlns="http://www.w3.org/2000/svg" width="198" height="198.298" viewBox="0 0 198 198.298">
  <g id="Group_17463" data-name="Group 17463" transform="translate(-397 -381)">
    <path id="Path_14765" data-name="Path 14765" d="M99,0A99,99,0,1,1,0,99,99,99,0,0,1,99,0Z" transform="translate(397 381)" fill="#7ed7f6" opacity="0.69"/>
    <g id="check-list" transform="translate(428.625 419.113)">
      <path id="Path_14749" data-name="Path 14749" d="M155.977,132.328V15.843A15.843,15.843,0,0,0,140.133,0H36.473A15.843,15.843,0,0,0,20.63,15.843V133.312S46,160.23,89.5,160.185,155.977,132.328,155.977,132.328Z" transform="translate(-20.63)" fill="#fbf1cf"/>
      <g id="Group_17462" data-name="Group 17462" transform="translate(30.811 57.703)">
        <g id="Group_17461" data-name="Group 17461" transform="translate(0)">
          <path id="Path_14757" data-name="Path 14757" d="M82.905,346.78a9.915,9.915,0,1,1,9.915-9.915A9.927,9.927,0,0,1,82.905,346.78Zm0-15.408a5.492,5.492,0,1,0,5.492,5.492A5.5,5.5,0,0,0,82.905,331.372Z" transform="translate(-72.99 -269.256)" fill="#59636f"/>
          <path id="Path_14758" data-name="Path 14758" d="M221.164,357.5H184.148a2.211,2.211,0,0,1,0-4.423h37.016a2.211,2.211,0,1,1,0,4.423Z" transform="translate(-149.812 -287.679)" fill="#59636f"/>
          <path id="Path_14759" data-name="Path 14759" d="M82.905,249.121a9.915,9.915,0,1,1,9.915-9.915A9.927,9.927,0,0,1,82.905,249.121Zm0-15.408a5.492,5.492,0,1,0,5.492,5.492A5.5,5.5,0,0,0,82.905,233.713Z" transform="translate(-72.99 -200.393)" fill="#59636f"/>
          <path id="Path_14764" data-name="Path 14764" d="M82.905,249.121a9.915,9.915,0,1,1,9.915-9.915A9.927,9.927,0,0,1,82.905,249.121Zm0-15.408a5.492,5.492,0,1,0,5.492,5.492A5.5,5.5,0,0,0,82.905,233.713Z" transform="translate(-72.99 -229.29)" fill="#59636f"/>
          <path id="Path_14760" data-name="Path 14760" d="M221.164,259.84H184.148a2.211,2.211,0,1,1,0-4.423h37.016a2.211,2.211,0,1,1,0,4.423Z" transform="translate(-149.812 -218.816)" fill="#59636f"/>
          <path id="Path_14761" data-name="Path 14761" d="M221.164,162.181H184.148a2.211,2.211,0,0,1,0-4.423h37.016a2.211,2.211,0,1,1,0,4.423Z" transform="translate(-149.812 -149.954)" fill="#59636f"/>
        </g>
      </g>
      <path id="Path_14763" data-name="Path 14763" d="M168.812,57.9H110.04a7.68,7.68,0,0,1-7.68-7.68V43.538a7.68,7.68,0,0,1,7.68-7.68h58.771a7.68,7.68,0,0,1,7.68,7.68v6.685A7.681,7.681,0,0,1,168.812,57.9Z" transform="translate(-71.753 -22.429)" fill="#a2ddfd"/>
    </g>
  </g>
</svg>
