<svg xmlns="http://www.w3.org/2000/svg" width="576.882" height="446.873" viewBox="0 0 576.882 446.873">
  <g id="News" transform="translate(-37.18 -85.331)">
    <g id="Group_17603" data-name="Group 17603" transform="translate(37.18 85.331)">
      <g id="Group_17551" data-name="Group 17551" transform="translate(7.406 411.269)">
        <ellipse id="Ellipse_1456" data-name="Ellipse 1456" cx="284.738" cy="17.802" rx="284.738" ry="17.802" fill="#e6f5ff"/>
        <ellipse id="Ellipse_1457" data-name="Ellipse 1457" cx="50.165" cy="3.573" rx="50.165" ry="3.573" transform="translate(129.061 22.464)" fill="#d4ecff"/>
        <ellipse id="Ellipse_1458" data-name="Ellipse 1458" cx="70.77" cy="5.137" rx="70.77" ry="5.137" transform="translate(322.577 17.7)" fill="#d4ecff"/>
      </g>
      <g id="Group_17559" data-name="Group 17559" transform="translate(0 40.257)">
        <g id="Group_17553" data-name="Group 17553">
          <path id="Path_14956" data-name="Path 14956" d="M81.841,280.63C146.522,237.621,121.1,115.137,234.8,115.137s49.894,63.005,164.405,37.8S466.77,291.388,533.343,315.473c80.2,29.018,104.7,107.969,44.169,181.9H75.3S-14.676,344.812,81.841,280.63Z" transform="translate(-37.18 -114.997)" fill="#15bbd2" opacity="0.36"/>
          <g id="Group_17552" data-name="Group 17552" transform="translate(169.198)">
            <path id="Path_14957" data-name="Path 14957" d="M162.207,117.162l-.188.16s.122-.073.351-.2Z" transform="translate(-162.019 -114.29)" fill="#d4ecff"/>
            <path id="Path_14958" data-name="Path 14958" d="M525.758,497.266c60.528-73.926,36.034-152.879-44.169-181.9-66.574-24.086-19.63-187.734-134.142-162.533s-50.712-37.8-164.405-37.8c-.672,0-1.316.026-1.979.034,12.565,2.547,28.581,11.162,45.439,34.012,37.72,51.132,63.7,69.573,123.219,55.323s-22.633,159.263,77.954,170.16c72.579,7.864,33.437,75.948-5.64,122.7Z" transform="translate(-155.252 -115.034)" fill="#07afc6" opacity="0.18" style="mix-blend-mode: multiply;isolation: isolate"/>
          </g>
        </g>
        <g id="Group_17558" data-name="Group 17558" transform="translate(13.531 0.299)">
          <g id="Group_17554" data-name="Group 17554" transform="translate(448.675 143.863)">
            <path id="Path_14959" data-name="Path 14959" d="M445.632,237.88v34.477a16.523,16.523,0,0,1-16.479,16.467H394.675a16.52,16.52,0,0,1-16.466-16.467V237.88A16.522,16.522,0,0,1,394.675,221.4h34.478A16.525,16.525,0,0,1,445.632,237.88Z" transform="translate(-378.209 -221.401)" fill="#15bbd2"/>
            <path id="Path_14960" data-name="Path 14960" d="M407.555,231.948a18.888,18.888,0,0,0-14.469,30.2,5.747,5.747,0,0,1,1.01,4.744l-1.2,5.19,6.354-2.8a5.753,5.753,0,0,1,3.867-.267,18.891,18.891,0,1,0,4.443-37.071ZM399.834,251.9a1.135,1.135,0,1,1,1.136-1.134A1.135,1.135,0,0,1,399.834,251.9Zm8.072,0a1.135,1.135,0,1,1,1.136-1.134A1.135,1.135,0,0,1,407.906,251.9Zm8.517,0a1.135,1.135,0,1,1,1.136-1.134A1.135,1.135,0,0,1,416.423,251.9Z" transform="translate(-374.263 -217.657)" fill="#fff"/>
          </g>
          <g id="Group_17555" data-name="Group 17555" transform="translate(0 161.163)">
            <rect id="Rectangle_4173" data-name="Rectangle 4173" width="64.886" height="64.886" rx="11.701" fill="#15bbd2"/>
            <path id="Path_14961" data-name="Path 14961" d="M85.552,243.9H65.86a9.437,9.437,0,0,0-9.41,9.41V273a9.438,9.438,0,0,0,9.41,9.41H85.552a9.438,9.438,0,0,0,9.41-9.41V253.306A9.437,9.437,0,0,0,85.552,243.9Zm-2.576,20.879-11.733,7.084a1.871,1.871,0,0,1-2.838-1.6V256.089a1.871,1.871,0,0,1,2.838-1.6l11.733,7.084A1.871,1.871,0,0,1,82.975,264.775Z" transform="translate(-43.864 -230.707)" fill="#fff"/>
          </g>
          <g id="Group_17557" data-name="Group 17557" transform="translate(228.29)">
            <rect id="Rectangle_4174" data-name="Rectangle 4174" width="68.688" height="68.688" rx="34" fill="#15bbd2"/>
            <g id="Group_17556" data-name="Group 17556" transform="translate(10.941 12.294)" opacity="0.96">
              <path id="Path_14962" data-name="Path 14962" d="M224.785,143.067a1.64,1.64,0,0,0-1.01,2.113l1.01,2.871a1.677,1.677,0,0,0,2.113,1.01l1.45-.52-2.128-5.977Z" transform="translate(-223.675 -117.845)" fill="#fff"/>
              <path id="Path_14963" data-name="Path 14963" d="M239.211,148.6,233,150.807c-.033,0-.047.015-.08.031l2.918,8.249a.635.635,0,0,0,.52.426l5.993.647a.642.642,0,0,0,.663-.853Z" transform="translate(-220.391 -115.7)" fill="#fff"/>
              <path id="Path_14964" data-name="Path 14964" d="M260.994,151.785l-2.983-8.421a5.122,5.122,0,0,0,2-4.038,5.181,5.181,0,0,0-5.186-5.184c-.026,0-.053,0-.079,0l-2.963-8.361a2.193,2.193,0,0,0-4.134,1.465l9.213,26a2.192,2.192,0,1,0,4.132-1.464Z" transform="translate(-215.202 -124.325)" fill="#fff"/>
              <path id="Path_14965" data-name="Path 14965" d="M236.686,139.232l-7.381,2.616a4,4,0,0,0-2.436,5.108l2.457,6.932a4,4,0,0,0,5.009,2.459l0,.008a.214.214,0,0,0,.091-.031h.005l7.373-2.612.014.015s15.646-3.857,20.243-.935L253,127.213C251.269,132.378,236.686,139.232,236.686,139.232Z" transform="translate(-222.622 -123.299)" fill="#fff"/>
            </g>
          </g>
        </g>
      </g>
      <g id="Group_17577" data-name="Group 17577" transform="translate(2.946 89.391)">
        <g id="Group_17562" data-name="Group 17562" transform="translate(0 198.833)">
          <g id="Group_17560" data-name="Group 17560" transform="translate(47.61)">
            <path id="Path_14966" data-name="Path 14966" d="M127.669,401.433c-.11-.039,9.161-7.311,14.974-17.7,5.981-10.073,8.506-23.259-1.217-27.9-13.8-6.029-1.227-27.779-11.606-29.282-10.036-.759-8.441,4.475-13.922-8.856-6.083-13.271-16.2-10.52-28.072-17.985-12.571-7.078-19.152,9.182-6.613,21.069,12.206,12.767-3.528,1.719-3.162,11,.192,7.74,29.713,21.417,22.221,23.485-7.33,1.32-9.746,8.141-4.58,14.072C108.055,382.69,127.743,400.949,127.669,401.433Z" transform="translate(-74.481 -297.992)" fill="#7bc0aa"/>
            <path id="Path_14967" data-name="Path 14967" d="M123.248,407.3a.233.233,0,0,0,.112-.19c1.494-13.953.782-33.364-5.776-51.988l-.051-.146.061-.133a66.933,66.933,0,0,0,4.569-16.458c.32-1.876.61-3.769.9-5.668a.184.184,0,0,0-.1-.22.251.251,0,0,0-.411.168c-.281,1.857-.562,3.708-.873,5.542a69.863,69.863,0,0,1-4.052,15.284c-.111.263-.222.527-.333.789-.1-.283-.2-.565-.308-.848A116.327,116.327,0,0,0,105.358,330.2c-.043-.069-.088-.137-.133-.206l.118-.194a.189.189,0,0,0,.03-.111,65.373,65.373,0,0,0-3.18-18.8.235.235,0,0,0-.19-.184.266.266,0,0,0-.289.131.236.236,0,0,0,0,.169,65.158,65.158,0,0,1,3.117,17.256q.024.6.043,1.187-.335-.508-.675-1.016a130.822,130.822,0,0,0-17.77-21.193c-.085-.083-.138-.073-.159-.069a.272.272,0,0,0-.183.18.268.268,0,0,0,.079.3,127.69,127.69,0,0,1,22.666,29.244c.118.211.236.422.352.633q-.337-.057-.674-.11a93.954,93.954,0,0,1-21.569-6.172c-.079-.034-.136-.035-.184.058a.359.359,0,0,0-.02.272.26.26,0,0,0,.153.159,93.905,93.905,0,0,0,22.378,6.327l.21.018.1.186a113.517,113.517,0,0,1,7.391,16.559l.034.1-.018.1a.231.231,0,0,0,.084.222l.076.069.034.1a113.537,113.537,0,0,1,4.178,15.733c.06.313.119.628.178.941q-.36-.309-.722-.615a90.045,90.045,0,0,0-21.786-13.712.22.22,0,0,0-.281.069.287.287,0,0,0-.069.225.169.169,0,0,0,.112.115,90.226,90.226,0,0,1,22.779,14.577l.1.089.024.134a125.282,125.282,0,0,1,1.172,34.176c-.011.119.037.152.06.167a.315.315,0,0,0,.313,0Z" transform="translate(-70.361 -294.732)" fill="#7bc0aa" opacity="0.39" style="mix-blend-mode: multiply;isolation: isolate"/>
          </g>
          <g id="Group_17561" data-name="Group 17561" transform="translate(0 61.292)">
            <path id="Path_14968" data-name="Path 14968" d="M167.53,408.3c-.272,1.034-9.144-22.981-33.054-40.573-22.23-18.319-59.5-30.216-77.785-21.7-35.527,16.116-8.429,33.4,10.244,27.575,19.369-4.412,4.035,23,25.251,17.316,21.056-3.945,20.575,3.291,32.592,2.417C137.832,391.664,168.379,407.464,167.53,408.3Z" transform="translate(-39.353 -343.215)" fill="#7bc0aa"/>
          </g>
        </g>
        <g id="Group_17566" data-name="Group 17566" transform="translate(441.73 175.896)">
          <g id="Group_17563" data-name="Group 17563">
            <path id="Path_14969" data-name="Path 14969" d="M411.023,393.469c.069-.094-11.688-.848-22.357-6.126-10.63-4.924-20.17-14.371-14.774-23.7,7.972-12.778-14.7-23.6-6.992-30.712,7.849-6.3,9.494-1.083,6.474-15.177-2.49-14.385,7.41-17.839,12.979-30.709,6.363-12.946,20.986-3.26,17.369,13.635-2.845,17.432,3.882-.577,8.83,7.285,4.218,6.492-12.392,34.467-5.042,31.934,6.79-3.056,12.642,1.2,11.736,9.017C416.6,366.92,410.689,393.111,411.023,393.469Z" transform="translate(-365.275 -281.068)" fill="#7bc0aa"/>
            <path id="Path_14970" data-name="Path 14970" d="M414.057,396.564a.229.229,0,0,1-.2-.094c-9.124-10.661-19.515-27.073-24.64-46.141l-.041-.148-.125-.077a66.861,66.861,0,0,1-13.076-10.988c-1.324-1.366-2.635-2.764-3.947-4.168a.185.185,0,0,1-.043-.236.284.284,0,0,1,.343-.161.279.279,0,0,1,.092.069c1.281,1.372,2.56,2.738,3.853,4.075a69.847,69.847,0,0,0,11.987,10.313l.721.462c-.076-.291-.152-.581-.226-.873a116.4,116.4,0,0,1-3.554-25.74c0-.081-.005-.164-.007-.245l-.206-.094a.194.194,0,0,1-.088-.073,65.373,65.373,0,0,1-8.009-17.3.233.233,0,0,1,.051-.259.269.269,0,0,1,.313-.056.249.249,0,0,1,.092.144,65.168,65.168,0,0,0,7.189,15.994q.317.5.636,1c-.007-.407-.014-.813-.018-1.22a130.806,130.806,0,0,1,2.667-27.529c.024-.115.073-.138.091-.145a.281.281,0,0,1,.356.333,127.7,127.7,0,0,0-2.152,36.938c.022.24.043.48.066.72l.495-.472a93.95,93.95,0,0,0,14.3-17.289c.046-.073.091-.1.184-.056a.351.351,0,0,1,.171.214.257.257,0,0,1-.037.216,93.789,93.789,0,0,1-14.876,17.874l-.164.134.022.21a113.445,113.445,0,0,0,3.272,17.837l.027.1.069.07a.23.23,0,0,1,.057.232l-.024.1.027.1a113.571,113.571,0,0,0,5.453,15.337q.191.439.385.877l.248-.916A90.075,90.075,0,0,1,406,342a.221.221,0,0,1,.271-.1.289.289,0,0,1,.184.148.167.167,0,0,1-.028.159,90.191,90.191,0,0,0-10.542,24.9l-.034.13.057.125a125.229,125.229,0,0,0,18.363,28.849c.076.091.054.145.045.171a.315.315,0,0,1-.259.176Z" transform="translate(-362.899 -276.806)" fill="#092b96" opacity="0.39" style="mix-blend-mode: multiply;isolation: isolate"/>
          </g>
          <g id="Group_17564" data-name="Group 17564" transform="translate(18.979 35.462)">
            <path id="Path_14971" data-name="Path 14971" d="M391.186,396.569c.117-.01-7.083-9.337-10.166-20.833-3.322-11.234-2.529-24.637,8.036-26.745,14.861-2.452,8.015-26.625,18.445-25.533,9.914,1.732,7.083,6.413,15.672-5.161,9.158-11.37,18.29-6.218,31.631-10.536,13.923-3.772,16.309,13.606,1.232,22.047-14.968,9.376,3,2.533.363,11.442-2.09,7.454-34.066,13.458-27.311,17.3,6.781,3.081,7.448,10.288.981,14.768C414.805,383.222,391.233,396.083,391.186,396.569Z" transform="translate(-379.278 -307.233)" fill="#7bc0aa"/>
            <path id="Path_14972" data-name="Path 14972" d="M386.641,402.911a.232.232,0,0,1-.061-.211c1.98-13.892,7.439-32.533,18.374-48.975l.084-.129-.024-.144a66.857,66.857,0,0,1-.385-17.076c.15-1.9.335-3.8.523-5.715a.183.183,0,0,1,.148-.188.283.283,0,0,1,.347.15.259.259,0,0,1,.009.114c-.184,1.869-.366,3.731-.515,5.585a69.812,69.812,0,0,0,.172,15.811c.043.283.085.565.13.847l.505-.747a116.365,116.365,0,0,1,16.981-19.667l.179-.167-.065-.217a.186.186,0,0,1,0-.115,65.361,65.361,0,0,1,7.7-17.439.233.233,0,0,1,.229-.133.266.266,0,0,1,.247.2.232.232,0,0,1-.046.164,65.193,65.193,0,0,0-7.262,15.962c-.112.38-.224.76-.333,1.14q.451-.411.9-.82a130.795,130.795,0,0,1,22.433-16.177c.1-.058.152-.037.169-.028a.268.268,0,0,1,.133.221.265.265,0,0,1-.148.268A127.633,127.633,0,0,0,417.911,338.2c-.165.175-.332.35-.5.526l.682.06a93.981,93.981,0,0,0,22.422-.683c.085-.014.14,0,.165.1a.365.365,0,0,1-.049.27.257.257,0,0,1-.186.115,93.859,93.859,0,0,1-23.247.634l-.209-.034-.144.154a113.457,113.457,0,0,0-11.233,14.235l-.057.087-.007.1a.233.233,0,0,1-.137.2l-.091.047-.056.085a113.375,113.375,0,0,0-7.916,14.223c-.136.29-.27.579-.4.869.283-.14.568-.281.851-.419a90.085,90.085,0,0,1,24.488-7.938.218.218,0,0,1,.255.136.284.284,0,0,1,.011.236.167.167,0,0,1-.137.084,90.166,90.166,0,0,0-25.663,8.532l-.119.061-.057.125a125.246,125.246,0,0,0-9.535,32.841c-.018.118-.073.137-.1.146a.313.313,0,0,1-.3-.077Z" transform="translate(-376.685 -304.653)" fill="#7bc0aa" opacity="0.39" style="mix-blend-mode: multiply;isolation: isolate"/>
          </g>
          <g id="Group_17565" data-name="Group 17565" transform="translate(2.079 84.468)">
            <path id="Path_14973" data-name="Path 14973" d="M366.809,400.968S448.787,338.3,474.59,343.723s9.524,32.624-7.061,31.64-1.911,26.079-21.7,22.836-20.1,3.81-31.922,1.517S366.809,400.968,366.809,400.968Z" transform="translate(-366.809 -343.391)" fill="#7bc0aa"/>
          </g>
        </g>
        <g id="Group_17567" data-name="Group 17567" transform="translate(100.182 91.655)">
          <rect id="Rectangle_4175" data-name="Rectangle 4175" width="341.075" height="242.373" rx="7.962" fill="#07afc6"/>
          <rect id="Rectangle_4176" data-name="Rectangle 4176" width="211.009" height="269.191" rx="1.482" transform="translate(295.536 15.682) rotate(90)" fill="#d4ecff"/>
          <path id="Path_14974" data-name="Path 14974" d="M399.89,230.484H134.718a2.011,2.011,0,0,0-2.01,2.009v5.747H390.583a2.011,2.011,0,0,1,2.01,2.009V441.492h7.3a2.011,2.011,0,0,0,2.01-2.009V232.493A2.011,2.011,0,0,0,399.89,230.484Z" transform="translate(-106.364 -214.802)" fill="#b3d9ff"/>
          <path id="Path_14975" data-name="Path 14975" d="M361.813,311.206a10.977,10.977,0,1,0-10.977,10.977A10.977,10.977,0,0,0,361.813,311.206Z" transform="translate(-32.758 -190.019)" fill="#fff"/>
          <path id="Path_14976" data-name="Path 14976" d="M141.628,445.6H286.5a196.1,196.1,0,0,1-25.263,15.687H124.063a10.8,10.8,0,0,1-10.792-10.794V229.7a10.792,10.792,0,0,1,10.792-10.784H355.01q2.848,7.695,5.042,15.676H141.628a2.013,2.013,0,0,0-2.017,2.017V443.594A2.011,2.011,0,0,0,141.628,445.6Z" transform="translate(-113.27 -218.912)" fill="#15bbd2"/>
        </g>
        <path id="Path_14977" data-name="Path 14977" d="M190.537,280.274" transform="translate(14.366 -105.455)" fill="#1d88f2"/>
        <path id="Path_14978" data-name="Path 14978" d="M123.286,292.53h0a2.06,2.06,0,0,0-2.053,2.053V342.5a2.059,2.059,0,0,0,2.053,2.053h0a2.059,2.059,0,0,0,2.055-2.053V294.583A2.06,2.06,0,0,0,123.286,292.53Z" transform="translate(-10.26 -101.1)" fill="#fff"/>
        <path id="Path_14979" data-name="Path 14979" d="M168.374,342.261a8.54,8.54,0,0,1-.516-2.177C167.931,340.476,168.1,341.259,168.374,342.261Z" transform="translate(6.308 -84.203)" fill="#0d5dbc"/>
        <g id="Group_17576" data-name="Group 17576" transform="translate(372.923)">
          <g id="Group_17568" data-name="Group 17568" transform="translate(0 37.948)">
            <path id="Path_14980" data-name="Path 14980" d="M345.04,212.122l1.1-.767c-.347-2.018-2.113-5.03-8.163-8.6-11.2-6.6-22.221-17.619-21.729-23.469,0,0-5.286,14.886,2.576,21.024C326.2,206.071,340.944,203.037,345.04,212.122Z" transform="translate(-314.507 -179.286)" fill="#15bbd2"/>
            <path id="Path_14981" data-name="Path 14981" d="M345.064,211.81l.652-.455c-.347-2.018-2.114-5.03-8.165-8.6-11.2-6.6-22.221-17.619-21.729-23.469,0,0-1.546,12.6,6.276,18.165C329.82,202.943,340.515,201.135,345.064,211.81Z" transform="translate(-314.084 -179.286)" fill="#07afc6"/>
          </g>
          <g id="Group_17570" data-name="Group 17570" transform="translate(5.888 16.218)">
            <path id="Path_14982" data-name="Path 14982" d="M341.532,210.226a29.772,29.772,0,0,1,2.15,5.873l.592-.32a47.6,47.6,0,0,0-6.77-23.435c-8.064-12.874-18.031-29.091-18.031-29.091s-4.227,19.486,9.375,31.209C335.63,200.308,339.416,205.845,341.532,210.226Z" transform="translate(-318.852 -163.253)" fill="#15bbd2"/>
            <g id="Group_17569" data-name="Group 17569" transform="translate(0.621)">
              <path id="Path_14983" data-name="Path 14983" d="M328.647,185.311c7.133,10.425,13.839,22.791,14.823,29.026.14-.549.291-1.128.449-1.719a46.593,46.593,0,0,0-6.577-20.274c-8.064-12.874-18.031-29.091-18.031-29.091S319.364,171.743,328.647,185.311Z" transform="translate(-319.31 -163.253)" fill="#07afc6"/>
            </g>
          </g>
          <g id="Group_17572" data-name="Group 17572" transform="translate(28.62 41.029)">
            <path id="Path_14984" data-name="Path 14984" d="M340.408,207.683a26.22,26.22,0,0,1-4.784,2.738l.366.466a41.959,41.959,0,0,0,19.358-9.349c9.991-8.91,22.6-19.969,22.6-19.969s-17.554-.789-25.725,12.763A43.71,43.71,0,0,1,340.408,207.683Z" transform="translate(-335.624 -181.56)" fill="#15bbd2"/>
            <g id="Group_17571" data-name="Group 17571" transform="translate(1.525 0.009)">
              <path id="Path_14985" data-name="Path 14985" d="M359.772,192.943c-8,7.739-17.753,15.394-23.023,17.172.5.039,1.022.085,1.559.135a41.042,41.042,0,0,0,16.641-8.715c9.991-8.91,22.6-19.969,22.6-19.969S370.186,182.87,359.772,192.943Z" transform="translate(-336.749 -181.566)" fill="#07afc6"/>
            </g>
          </g>
          <g id="Group_17573" data-name="Group 17573" transform="translate(28.061)">
            <path id="Path_14986" data-name="Path 14986" d="M338.93,222.9c.289,2.861.527,4.836.622,6.186l.562.008c.252-4.841.684-13.2.539-18.794-.213-8.235,2.314-11.595,3.89-25.457s-2.1-33.558-2.1-33.558-9.676,17.507-6.636,37.171S337.661,210.294,338.93,222.9Z" transform="translate(-335.212 -151.287)" fill="#15bbd2"/>
            <path id="Path_14987" data-name="Path 14987" d="M338.541,229.09h.106l.518-1.878c.251-4.925.569-11.989.442-16.91-.213-8.235,2.314-11.595,3.89-25.457s-2.1-33.558-2.1-33.558-3.949,27.33-3.117,39.9C339.043,202.808,338.61,225.727,338.541,229.09Z" transform="translate(-334.165 -151.287)" fill="#07afc6"/>
          </g>
          <g id="Group_17574" data-name="Group 17574" transform="translate(34.269 14.304)">
            <path id="Path_14988" data-name="Path 14988" d="M358.123,162.5c-.465,3.17-9.548,21.662-15.143,34.024a37.17,37.17,0,0,0-2.488,22.25l1.122-.024c-.763-4.216-1.022-3.563-.191-10.181.911-7.26,11.131-12.511,17.326-26.6S358.588,159.331,358.123,162.5Z" transform="translate(-339.792 -161.841)" fill="#15bbd2"/>
            <path id="Path_14989" data-name="Path 14989" d="M358.321,161.876c.188,4.485.187,19.758-7.847,28.051-9.307,9.608-12.121,20.057-9.1,28.824l.087,0c-.763-4.216-1.022-3.563-.191-10.181.911-7.26,11.131-12.511,17.326-26.6C364.11,169.441,359.694,161.3,358.321,161.876Z" transform="translate(-339.642 -161.839)" fill="#07afc6"/>
          </g>
          <g id="Group_17575" data-name="Group 17575" transform="translate(15.169 66.605)">
            <path id="Path_14990" data-name="Path 14990" d="M325.74,203.714l3.209,18.995a3.681,3.681,0,0,0,3.63,3.067h18.557a3.68,3.68,0,0,0,3.628-3.067l3.209-18.995a2.814,2.814,0,0,0-2.774-3.284H328.514A2.814,2.814,0,0,0,325.74,203.714Z" transform="translate(-325.699 -200.43)" fill="#b3d9ff"/>
            <path id="Path_14991" data-name="Path 14991" d="M357.95,202.753v-.005a2.794,2.794,0,0,0-.145-.518l-.015-.037a2.8,2.8,0,0,0-.224-.44c-.018-.027-.037-.053-.054-.079a2.673,2.673,0,0,0-.271-.346c-.038-.042-.081-.077-.122-.117a2.864,2.864,0,0,0-.283-.245c-.068-.05-.144-.089-.215-.133-.088-.051-.173-.107-.267-.15a2.849,2.849,0,0,0-.333-.117c-.073-.022-.142-.053-.218-.069a2.775,2.775,0,0,0-.606-.068H328.509a2.8,2.8,0,0,0-2.8,2.891h23.829a2.966,2.966,0,0,1-.022.393l-3.211,18.995a3.679,3.679,0,0,1-3.628,3.067h8.449a3.679,3.679,0,0,0,3.628-3.067l3.209-18.995A2.781,2.781,0,0,0,357.95,202.753Z" transform="translate(-325.695 -200.43)" fill="#53a4f4" opacity="0.56"/>
          </g>
        </g>
        <path id="Path_14992" data-name="Path 14992" d="M297.865,397.256" transform="translate(52.502 -63.888)" fill="#f4d1ae"/>
      </g>
      <g id="Group_17589" data-name="Group 17589" transform="translate(170.037 125.016)">
        <g id="Group_17578" data-name="Group 17578">
          <path id="Path_14993" data-name="Path 14993" d="M361.663,200.725v255.7H162.643V188.4a12.316,12.316,0,0,0,12.327,12.327Z" transform="translate(-162.636 -173.725)" fill="#fff"/>
          <path id="Path_14994" data-name="Path 14994" d="M339.073,179.094v22.881H174.424a10.279,10.279,0,0,1-10.264-10.265v-2.362a10.276,10.276,0,0,1,10.264-10.253Z" transform="translate(-162.097 -177.031)" fill="#b3d9ff"/>
          <path id="Path_14995" data-name="Path 14995" d="M175.026,185.229H345.533v-2.063H175.026a5.316,5.316,0,0,0-5.3,5.313V189.7a5.317,5.317,0,0,0,5.3,5.313H354.887v-2.064H175.026a3.253,3.253,0,0,1-3.239-3.249v-1.217A3.248,3.248,0,0,1,175.026,185.229Z" transform="translate(-160.12 -175.584)" fill="#fff"/>
          <path id="Path_14996" data-name="Path 14996" d="M174.965,179.635H339.614v-2.063H174.965a12.317,12.317,0,0,0-12.327,12.316v2.362a12.327,12.327,0,0,0,12.327,12.328H361.684v-2.063H174.965A10.279,10.279,0,0,1,164.7,192.25v-2.362A10.276,10.276,0,0,1,174.965,179.635Z" transform="translate(-162.638 -177.572)" fill="#fff"/>
          <path id="Path_14997" data-name="Path 14997" d="M306.343,191.9" transform="translate(-111.576 -172.479)" fill="#fff"/>
          <path id="Path_14998" data-name="Path 14998" d="M354.891,193.3v5.519H172.447a9.953,9.953,0,0,1-2.723-.371v-10.46a5.317,5.317,0,0,0,5.3,5.313Z" transform="translate(-160.12 -173.872)" fill="#15bbd2" opacity="0.45"/>
        </g>
        <g id="Group_17588" data-name="Group 17588" transform="translate(24.676 41.059)">
          <g id="Group_17579" data-name="Group 17579" transform="translate(0 71.861)">
            <rect id="Rectangle_4177" data-name="Rectangle 4177" width="24.55" height="2.39" transform="translate(45.967)" fill="#c3e2fc"/>
            <rect id="Rectangle_4178" data-name="Rectangle 4178" width="24.55" height="2.39" transform="translate(45.967 6.459)" fill="#c3e2fc"/>
            <rect id="Rectangle_4179" data-name="Rectangle 4179" width="24.55" height="2.39" transform="translate(45.967 12.919)" fill="#c3e2fc"/>
            <rect id="Rectangle_4180" data-name="Rectangle 4180" width="24.55" height="2.389" transform="translate(45.967 19.378)" fill="#c3e2fc"/>
            <rect id="Rectangle_4181" data-name="Rectangle 4181" width="24.55" height="2.39" transform="translate(45.967 25.838)" fill="#c3e2fc"/>
            <rect id="Rectangle_4182" data-name="Rectangle 4182" width="24.55" height="2.39" transform="translate(45.967 32.297)" fill="#c3e2fc"/>
            <rect id="Rectangle_4183" data-name="Rectangle 4183" width="70.516" height="2.39" transform="translate(0 38.756)" fill="#c3e2fc"/>
            <rect id="Rectangle_4184" data-name="Rectangle 4184" width="70.516" height="2.39" transform="translate(0 45.215)" fill="#c3e2fc"/>
            <rect id="Rectangle_4185" data-name="Rectangle 4185" width="70.516" height="2.39" transform="translate(0 51.675)" fill="#c3e2fc"/>
            <rect id="Rectangle_4186" data-name="Rectangle 4186" width="70.516" height="2.39" transform="translate(0 58.134)" fill="#c3e2fc"/>
            <rect id="Rectangle_4187" data-name="Rectangle 4187" width="70.516" height="2.39" transform="translate(0 64.593)" fill="#c3e2fc"/>
          </g>
          <g id="Group_17580" data-name="Group 17580" transform="translate(117.391 189.092)">
            <rect id="Rectangle_4188" data-name="Rectangle 4188" width="34.25" height="2.316" fill="#c3e2fc"/>
            <rect id="Rectangle_4189" data-name="Rectangle 4189" width="34.25" height="2.316" transform="translate(0 6.261)" fill="#c3e2fc"/>
            <rect id="Rectangle_4190" data-name="Rectangle 4190" width="34.25" height="2.316" transform="translate(0 12.522)" fill="#c3e2fc"/>
            <rect id="Rectangle_4191" data-name="Rectangle 4191" width="34.25" height="2.316" transform="translate(0 18.783)" fill="#c3e2fc"/>
            <rect id="Rectangle_4192" data-name="Rectangle 4192" width="34.25" height="2.316" transform="translate(0 25.044)" fill="#c3e2fc"/>
          </g>
          <g id="Group_17581" data-name="Group 17581" transform="translate(117.391 220.195)">
            <rect id="Rectangle_4193" data-name="Rectangle 4193" width="34.25" height="2.39" fill="#c3e2fc"/>
            <rect id="Rectangle_4194" data-name="Rectangle 4194" width="34.25" height="2.39" transform="translate(0 6.459)" fill="#c3e2fc"/>
          </g>
          <g id="Group_17582" data-name="Group 17582" transform="translate(74.018 189.092)">
            <rect id="Rectangle_4195" data-name="Rectangle 4195" width="36.423" height="2.316" fill="#c3e2fc"/>
            <rect id="Rectangle_4196" data-name="Rectangle 4196" width="36.423" height="2.316" transform="translate(0 6.261)" fill="#c3e2fc"/>
            <rect id="Rectangle_4197" data-name="Rectangle 4197" width="36.423" height="2.316" transform="translate(0 12.522)" fill="#c3e2fc"/>
            <rect id="Rectangle_4198" data-name="Rectangle 4198" width="36.423" height="2.316" transform="translate(0 18.783)" fill="#c3e2fc"/>
            <rect id="Rectangle_4199" data-name="Rectangle 4199" width="36.423" height="2.316" transform="translate(0 25.044)" fill="#c3e2fc"/>
          </g>
          <g id="Group_17583" data-name="Group 17583" transform="translate(74.018 220.195)">
            <rect id="Rectangle_4200" data-name="Rectangle 4200" width="36.423" height="2.39" fill="#c3e2fc"/>
            <rect id="Rectangle_4201" data-name="Rectangle 4201" width="36.423" height="2.39" transform="translate(0 6.459)" fill="#c3e2fc"/>
          </g>
          <g id="Group_17584" data-name="Group 17584" transform="translate(0 71.491)">
            <rect id="Rectangle_4202" data-name="Rectangle 4202" width="34.563" height="2.39" transform="translate(117.078 39.126)" fill="#c3e2fc"/>
            <rect id="Rectangle_4203" data-name="Rectangle 4203" width="70.968" height="34.853" transform="translate(80.673)" fill="#b3d9ff"/>
            <rect id="Rectangle_4204" data-name="Rectangle 4204" width="151.642" height="34.853" transform="translate(0 74.138)" fill="#7bc0aa"/>
            <rect id="Rectangle_4205" data-name="Rectangle 4205" width="34.563" height="2.39" transform="translate(117.078 45.586)" fill="#c3e2fc"/>
            <rect id="Rectangle_4206" data-name="Rectangle 4206" width="29.613" height="28.256" transform="translate(81.229 39.097)" fill="#b3d9ff"/>
            <rect id="Rectangle_4207" data-name="Rectangle 4207" width="34.563" height="2.39" transform="translate(117.078 52.045)" fill="#c3e2fc"/>
            <rect id="Rectangle_4208" data-name="Rectangle 4208" width="34.563" height="2.39" transform="translate(117.078 58.504)" fill="#c3e2fc"/>
            <rect id="Rectangle_4209" data-name="Rectangle 4209" width="34.563" height="2.39" transform="translate(117.078 64.964)" fill="#c3e2fc"/>
          </g>
          <g id="Group_17585" data-name="Group 17585" transform="translate(0 71.861)">
            <rect id="Rectangle_4210" data-name="Rectangle 4210" width="41.523" height="34.364" fill="#7bc0aa"/>
          </g>
          <path id="Path_14999" data-name="Path 14999" d="M180.845,346.343l65.278.486v41.041l-65.278-.486Z" transform="translate(-180.845 -158.662)" fill="#b3d9ff"/>
          <g id="Group_17587" data-name="Group 17587">
            <rect id="Rectangle_4211" data-name="Rectangle 4211" width="151.642" height="58.975" fill="#7bc0aa"/>
            <g id="Group_17586" data-name="Group 17586" transform="translate(18.654 11.09)">
              <path id="Path_15000" data-name="Path 15000" d="M198.637,256.635h-4.029V216.347h5.7l9.325,29.122V216.347H213.6v40.288h-4.662l-10.3-32.577Z" transform="translate(-194.608 -215.943)" fill="#fff"/>
              <path id="Path_15001" data-name="Path 15001" d="M230.6,234.189v4.029h-9.842v14.331h12.087v4.086H216.266V216.347h16.576v4.086H220.755v13.755Z" transform="translate(-186.912 -215.943)" fill="#fff"/>
              <path id="Path_15002" data-name="Path 15002" d="M246.761,256.635H240.6l-5.526-40.288h4.375l4.719,34.3L248.66,216.4h4.432l4.432,34.3,4.547-34.36h3.914l-5.469,40.288h-5.928l-3.856-27.34Z" transform="translate(-180.228 -215.943)" fill="#fff"/>
              <path id="Path_15003" data-name="Path 15003" d="M282.409,226.122v1.094h-4.26v-1.324c0-3.625-1.381-5.755-4.6-5.755s-4.6,2.129-4.6,5.7c0,9.036,13.525,9.9,13.525,21.238,0,6.1-2.934,10.071-9.093,10.071s-9.036-3.971-9.036-10.071v-2.3h4.2V247.3c0,3.625,1.5,5.755,4.719,5.755s4.719-2.129,4.719-5.755c0-8.979-13.468-9.842-13.468-21.181,0-6.216,2.877-10.073,8.921-10.073C279.532,216.049,282.409,220.021,282.409,226.122Z" transform="translate(-169.831 -216.049)" fill="#fff"/>
            </g>
          </g>
        </g>
        <path id="Path_15004" data-name="Path 15004" d="M344.993,184.688v7.469l-30.174.247H174.485a3.253,3.253,0,0,1-3.239-3.249v-1.217a3.248,3.248,0,0,1,3.239-3.25Z" transform="translate(-159.579 -175.044)" fill="#15bbd2" opacity="0.45"/>
      </g>
      <g id="Group_17593" data-name="Group 17593" transform="translate(395.949 323.138)">
        <g id="Group_17592" data-name="Group 17592">
          <path id="Rectangle_4212" data-name="Rectangle 4212" d="M0,0H99.633a0,0,0,0,1,0,0V72.589A19.633,19.633,0,0,1,80,92.222H19.633A19.633,19.633,0,0,1,0,72.589V0A0,0,0,0,1,0,0Z" transform="translate(0 8.062)" fill="#d4ecff"/>
          <path id="Path_15022" data-name="Path 15022" d="M335.361,395.313V329.7h-6.038v65.613a26.609,26.609,0,0,0,26.609,26.609h6.039A26.609,26.609,0,0,1,335.361,395.313Z" transform="translate(-329.323 -321.639)" fill="#fff"/>
          <path id="Path_15023" data-name="Path 15023" d="M388.243,329.7v65.613a26.609,26.609,0,0,1-26.609,26.609h29.232a26.609,26.609,0,0,0,26.609-26.609V329.7Z" transform="translate(-317.842 -321.639)" fill="#15bbd2" opacity="0.48"/>
          <path id="Path_15024" data-name="Path 15024" d="M428.919,331.78c0-4.433-22.3-8.028-49.8-8.028s-49.8,3.594-49.8,8.028,22.3,8.028,49.8,8.028S428.919,336.214,428.919,331.78Z" transform="translate(-329.323 -323.752)" fill="#b3d9ff"/>
          <path id="Path_15025" data-name="Path 15025" d="M378.609,337.458c-30.3,0-45.975-3.977-47.846-6.167,1.87-2.19,17.543-6.167,47.846-6.167s45.977,3.977,47.847,6.167C424.585,333.482,408.911,337.458,378.609,337.458Z" transform="translate(-328.811 -323.264)" fill="#15bbd2"/>
          <path id="Path_15026" data-name="Path 15026" d="M371.381,327.128c18.668,0,34.306,3.649,38.46,8.556,10.063-1.339,15.555-3.152,16.615-4.393-1.87-2.19-17.545-6.167-47.847-6.167s-45.975,3.977-47.846,6.167c.531.622,2.178,1.388,4.952,2.164C342.1,329.713,355.668,327.128,371.381,327.128Z" transform="translate(-328.811 -323.264)" fill="#07afc6"/>
        </g>
        <path id="Path_15027" data-name="Path 15027" d="M395.172,345.418h0a4.606,4.606,0,0,0,3.874,4.376,20.363,20.363,0,0,1,10.784,5.757,23.11,23.11,0,0,1-.153,30.724,20.369,20.369,0,0,1-10.84,5.649,4.608,4.608,0,0,0-3.918,4.337h0c-.014,2.86,2.993,5,6.2,4.425,15.455-2.789,24.324-15,24.4-29.7s-8.675-26.994-24.1-29.935C398.214,340.447,395.186,342.558,395.172,345.418Z" transform="translate(-306.015 -317.641)" fill="#d4ecff"/>
        <path id="Path_15028" data-name="Path 15028" d="M395.437,396.533h0a4.675,4.675,0,0,1,3.918-4.437,20.232,20.232,0,0,0,10.841-5.782,24.057,24.057,0,0,0,.156-31.433,20.222,20.222,0,0,0-10.783-5.889,4.678,4.678,0,0,1-3.873-4.477,4.186,4.186,0,0,1,.878-2.5,4.15,4.15,0,0,0-1.4,3.026,4.606,4.606,0,0,0,3.874,4.376,20.363,20.363,0,0,1,10.784,5.757,23.11,23.11,0,0,1-.153,30.724,20.369,20.369,0,0,1-10.84,5.649,4.609,4.609,0,0,0-3.918,4.337h0a4.122,4.122,0,0,0,1.149,2.845A4.17,4.17,0,0,1,395.437,396.533Z" transform="translate(-306.015 -317.263)" fill="#fff"/>
        <path id="Path_15029" data-name="Path 15029" d="M401.042,341.057a5.566,5.566,0,0,0-5.084,1.546,6.062,6.062,0,0,1,2.723-.122c15.426,2.816,24.178,14.583,24.107,28.638s-8.937,25.734-24.391,28.4a6.089,6.089,0,0,1-2.323-.045,5.633,5.633,0,0,0,4.67,1.216c15.455-2.789,24.324-15,24.4-29.7S416.467,344,401.042,341.057Z" transform="translate(-305.646 -317.641)" fill="#b3d9ff"/>
      </g>
      <g id="Group_17595" data-name="Group 17595" transform="translate(27.786)">
        <path id="Path_15030" data-name="Path 15030" d="M133.285,199.619c8.139,0,8.57-12.115.449-12.633l-.232-.014c0-.05,0-.1,0-.152a15.682,15.682,0,0,0-23.211-13.754,16.283,16.283,0,0,0-30.632,7.7c0,.482.026.96.066,1.431a18.953,18.953,0,0,0-20.989,7.654,6.312,6.312,0,0,0,5.3,9.772Z" transform="translate(-57.681 -57.208)" fill="#15bbd2"/>
        <path id="Path_15031" data-name="Path 15031" d="M207.679,140.823c8.017,0,8.442-11.936.441-12.446l-.228-.014c0-.05,0-.1,0-.149a15.45,15.45,0,0,0-22.868-13.551,16.042,16.042,0,0,0-30.179,7.582c0,.476.026.945.066,1.41a18.682,18.682,0,0,0-20.68,7.54,6.219,6.219,0,0,0,5.223,9.628Z" transform="translate(-30.85 -77.915)" fill="#15bbd2"/>
        <path id="Path_15032" data-name="Path 15032" d="M403.555,199.607c-7.216,0-7.6-10.742-.4-11.2.068-.005.137-.009.2-.012,0-.045,0-.089,0-.134a13.905,13.905,0,0,1,20.579-12.2,14.437,14.437,0,0,1,27.159,6.823c0,.428-.023.851-.06,1.269a16.813,16.813,0,0,1,18.61,6.786,5.6,5.6,0,0,1-4.7,8.665Z" transform="translate(63.225 -55.797)" fill="#15bbd2"/>
        <path id="Path_15033" data-name="Path 15033" d="M350.416,135.256c-8.566,0-9.02-12.754-.47-13.3l.243-.014c0-.053,0-.106,0-.16a16.507,16.507,0,0,1,24.434-14.478,17.139,17.139,0,0,1,32.243,8.1c0,.508-.027,1.01-.07,1.507a19.959,19.959,0,0,1,22.094,8.056,6.645,6.645,0,0,1-5.581,10.287Z" transform="translate(43.97 -80.735)" fill="#15bbd2"/>
        <g id="Group_17594" data-name="Group 17594" transform="translate(437.678)">
          <circle id="Ellipse_1459" data-name="Ellipse 1459" cx="41.76" cy="41.76" r="41.76" fill="#15bbd2"/>
          <path id="Path_15034" data-name="Path 15034" d="M425.57,85.465a35.569,35.569,0,1,1-43.231,55.365A41.76,41.76,0,1,0,425.57,85.465Z" transform="translate(-379.999 -85.284)" fill="#07afc6"/>
        </g>
      </g>
    </g>
  </g>
</svg>
