<?xml version="1.0" encoding="utf-8"?>
<!-- Generator: Adobe Illustrator 23.0.0, SVG Export Plug-In . SVG Version: 6.00 Build 0)  -->
<svg version="1.1" id="Layer_1" xmlns="http://www.w3.org/2000/svg" xmlns:xlink="http://www.w3.org/1999/xlink" x="0px" y="0px"
	 viewBox="0 0 13.8 13.8" style="enable-background:new 0 0 13.8 13.8;" xml:space="preserve">
<style type="text/css">
	.st0{opacity:0.4;}
	.st1{clip-path:url(#SVGID_2_);fill:#010101;}
</style>
<g class="st0">
	<g>
		<defs>
			<rect id="SVGID_1_" x="0" width="13.8" height="13.8"/>
		</defs>
		<clipPath id="SVGID_2_">
			<use xlink:href="#SVGID_1_"  style="overflow:visible;"/>
		</clipPath>
		<path class="st1" d="M13.5,12l-2.9-2.8c0.7-1,1-2.1,1-3.3c0-0.8-0.2-1.5-0.5-2.3c-0.3-0.7-0.7-1.3-1.2-1.9
			C9.5,1.2,8.8,0.8,8.1,0.5C7.4,0.2,6.6,0,5.8,0C5.1,0,4.3,0.2,3.6,0.5C2.9,0.8,2.2,1.2,1.7,1.7C1.2,2.2,0.8,2.9,0.5,3.6
			C0.2,4.3,0,5.1,0,5.8c0,0.8,0.2,1.5,0.5,2.3C0.8,8.8,1.2,9.5,1.7,10c0.5,0.5,1.1,0.9,1.9,1.2c0.7,0.3,1.5,0.5,2.3,0.5
			c1.2,0,2.3-0.3,3.3-1l2.8,2.8c0.2,0.2,0.4,0.3,0.7,0.3c0.3,0,0.5-0.1,0.7-0.3c0.2-0.2,0.3-0.5,0.3-0.7
			C13.8,12.5,13.7,12.2,13.5,12 M8.5,8.5C7.7,9.2,6.9,9.6,5.8,9.6c-1,0-1.9-0.4-2.6-1.1C2.5,7.7,2.1,6.9,2.1,5.8
			c0-1,0.4-1.9,1.1-2.6c0.7-0.7,1.6-1.1,2.6-1.1c1,0,1.9,0.4,2.6,1.1c0.7,0.7,1.1,1.6,1.1,2.6C9.6,6.9,9.2,7.7,8.5,8.5"/>
	</g>
</g>
</svg>
