<svg id="merlion" xmlns="http://www.w3.org/2000/svg" width="155.91" height="155.909" viewBox="0 0 155.91 155.909">
  <path id="Path_2385" data-name="Path 2385" d="M204.443,68.469a2.565,2.565,0,0,0,.754-1.845,3.056,3.056,0,0,0-.052-.494,1.535,1.535,0,0,0-.156-.494,2.036,2.036,0,0,0-.233-.471,4.334,4.334,0,0,0-.312-.387,2.67,2.67,0,0,0-.858-.546,2.642,2.642,0,0,0-2.832.546,4.834,4.834,0,0,0-.312.387,2.036,2.036,0,0,0-.233.471,1.568,1.568,0,0,0-.156.494,3.206,3.206,0,0,0-.052.494,2.575,2.575,0,0,0,.754,1.845,3,3,0,0,0,.858.546,2.442,2.442,0,0,0,1.974,0A2.979,2.979,0,0,0,204.443,68.469Zm0,0" transform="translate(-135.037 -43.238)" fill="#aeacac"/>
  <path id="Path_2386" data-name="Path 2386" d="M282.6,351.8a2.6,2.6,0,0,0,2.6-2.6v-2.6a2.6,2.6,0,1,0-5.2,0v2.6A2.6,2.6,0,0,0,282.6,351.8Zm0,0" transform="translate(-189.052 -232.265)" fill="#aeacac"/>
  <path id="Path_2387" data-name="Path 2387" d="M296,381.2a2.6,2.6,0,1,0,5.2,0v-2.6a2.6,2.6,0,1,0-5.2,0Zm0,0" transform="translate(-199.855 -253.871)" fill="#aeacac"/>
  <path id="Path_2388" data-name="Path 2388" d="M266.6,391.8a2.6,2.6,0,0,0,2.6-2.6v-2.6a2.6,2.6,0,0,0-5.2,0v2.6A2.6,2.6,0,0,0,266.6,391.8Zm0,0" transform="translate(-178.249 -259.273)" fill="#aeacac"/>
  <path id="Path_2389" data-name="Path 2389" d="M2.6,155.909H153.313a2.6,2.6,0,0,0,1.1-4.952l-25.005-11.678a48.72,48.72,0,0,0-19.895-4.512,22.961,22.961,0,0,0,2.224-9.884v-33.4l4.143,1.84a2.6,2.6,0,0,0,3.591-2.938l-9.69-43.611h4.555a2.6,2.6,0,0,0,2.521-3.228L111.385,21.65A28.546,28.546,0,0,0,83.653,0h-3.1A28.724,28.724,0,0,0,57.832,11.261l-.036.044c-.034.044-.074.08-.107.124a2.713,2.713,0,0,0-.367.707.245.245,0,0,0-.02.039l-.133.379a8.23,8.23,0,0,1-7.8,5.633,7.835,7.835,0,0,0-7.8,7.8v2.157A10.015,10.015,0,0,0,44.5,35.176l5.639,5.639a2.6,2.6,0,0,0,1.837.761H63.666a1.3,1.3,0,1,1,0,2.6h-6.5a7.8,7.8,0,0,0-7.8,7.8,2.6,2.6,0,0,0,.761,1.837l7.406,7.406a59.6,59.6,0,0,0-3.186,18.552A32.719,32.719,0,0,0,38.03,75.356,2.6,2.6,0,0,0,35.87,79.4l18.7,27.915v17.41A23.3,23.3,0,0,0,57.05,135.17a48.8,48.8,0,0,0-20.367,2.809L1.7,150.873a2.6,2.6,0,0,0,.9,5.036Zm110.68-69.432-4.192-1.86-.969-21.363Zm-6.94-63.569,4.667,18.668h-3.935A48.369,48.369,0,0,0,96.94,15.4L89.571,5.953A23.351,23.351,0,0,1,106.342,22.908ZM76.658,124.727A9.055,9.055,0,0,0,83.37,109.55l10.893-3.119a2.6,2.6,0,0,0,1.542-3.789l-.325-.568A19.612,19.612,0,0,0,68.344,95L66.09,91.249a32.368,32.368,0,0,0-3.424-4.6l18.708-6.237a2.6,2.6,0,0,0,1.78-2.46V69.167l2.8-1.4,5,1.666V80.553a2.632,2.632,0,0,0,.114.756c.027.086.079.159.112.241a2.572,2.572,0,0,0,.211.438,2.939,2.939,0,0,0,.2.233,2.644,2.644,0,0,0,.3.322,2.749,2.749,0,0,0,.28.176,2.508,2.508,0,0,0,.327.208l14.047,6.244v35.711a17.66,17.66,0,0,1-3.243,10.2c-1.535.178-3.068.4-4.583.731l-9.771,2.078a43.533,43.533,0,0,1-21.534-.865c-1.19-.355-2.4-.66-3.606-.922a18.188,18.188,0,0,1-4.036-11.376V109.136h1.986a6.755,6.755,0,0,1,6.083,3.759c.037.074.094.126.136.193a8.969,8.969,0,0,0-.409,2.544,9.094,9.094,0,0,0,9.095,9.095Zm-3.9-9.095a3.878,3.878,0,0,1,1.477-3.03l1.476-.738a3.833,3.833,0,0,1,.945-.129,3.9,3.9,0,1,1-3.9,3.9ZM96.147,67.538V54.768l.907-11.779a65.193,65.193,0,0,0-1.835-21.048,43.19,43.19,0,0,1,6.8,21.451l1.748,38.457-7.624-3.055Zm-6.01-44.372a59.915,59.915,0,0,1,1.728,19.424L90.95,54.568v9.388L86.574,62.5a2.557,2.557,0,0,0-1.982.137l-1.413.707a43.533,43.533,0,0,1,3.338-16.329,50.046,50.046,0,0,0,3.62-23.848ZM79.1,5.259a44.791,44.791,0,0,1,5.291,14.292,15.473,15.473,0,0,0-14.1-9.157H65.875A23.542,23.542,0,0,1,79.1,5.259ZM63.666,36.379H53.049L48.171,31.5a4.788,4.788,0,0,1-1.4-3.36V25.985a2.544,2.544,0,0,1,.8-1.852,2.508,2.508,0,0,1,1.8-.746,13.391,13.391,0,0,0,12.14-7.8h8.779A10.276,10.276,0,0,1,80.556,25.855a10.132,10.132,0,0,1-2.9,7.159l-3.433,3.074a60.558,60.558,0,0,0-4.5,4.488,6.5,6.5,0,0,0-6.055-4.2ZM77.7,39.959l3.54-3.172a15.379,15.379,0,0,0,3.841-6.367,44.713,44.713,0,0,1-3.345,14.594,48.651,48.651,0,0,0-3.776,18.82V76.08l-18.4,6.136A54.229,54.229,0,0,1,77.7,39.959Zm-22.952,11.1a2.6,2.6,0,0,1,2.425-1.686h5.953a59.162,59.162,0,0,0-3.487,6.588Zm-11.51,30A27.719,27.719,0,0,1,61.642,93.925l3.695,6.156A2.6,2.6,0,0,0,67.13,101.3a2.642,2.642,0,0,0,2.1-.563,14.417,14.417,0,0,1,20.166,1.684l-14.748,4.212a2.934,2.934,0,0,0-.447.174l-.57.285a9.019,9.019,0,0,0-2.135,1.068l-.419.208a11.934,11.934,0,0,0-9.321-4.433h-3.2Zm-4.753,61.808a43.59,43.59,0,0,1,27.435-.845,48.606,48.606,0,0,0,24.116.967l9.771-2.091a43.581,43.581,0,0,1,27.408,3.117l14.388,6.7H17.168Zm0,0" transform="translate(-0.002 0)" fill="#aeacac"/>
  <path id="Path_2390" data-name="Path 2390" d="M36.377,112A38.62,38.62,0,0,0,1.118,134.913l-.9,2.017a2.6,2.6,0,0,0,4.75,2.11l.9-2.015A33.407,33.407,0,0,1,36.377,117.2a2.6,2.6,0,1,0,0-5.2Zm0,0" transform="translate(0.003 -75.621)" fill="#aeacac"/>
  <path id="Path_2391" data-name="Path 2391" d="M59.729,144a2.682,2.682,0,0,0-.628.075,28.886,28.886,0,0,0-24.266,17.06,2.6,2.6,0,1,0,4.748,2.11A23.677,23.677,0,0,1,61.2,149.2a2.6,2.6,0,0,0,0-5.2Zm0,0" transform="translate(-23.349 -97.227)" fill="#aeacac"/>
</svg>
