<svg id="picture" xmlns="http://www.w3.org/2000/svg" width="29.273" height="23.109" viewBox="0 0 29.273 23.109">
  <g id="Group_16" data-name="Group 16">
    <g id="Group_15" data-name="Group 15">
      <path id="Path_26" data-name="Path 26" d="M28.124,40.559H26.387v-1.77a1.175,1.175,0,0,0-1.18-1.18H1.18A1.175,1.175,0,0,0,0,38.789v17.8a1.175,1.175,0,0,0,1.18,1.18H2.917v1.77a1.175,1.175,0,0,0,1.18,1.18H28.091a1.175,1.175,0,0,0,1.18-1.18V41.772A1.156,1.156,0,0,0,28.124,40.559Zm-26.911-1.8,23.994.033V50.95l-5.376-3.737a.6.6,0,0,0-.656,0l-4.753,3.245L9.047,45.181a.6.6,0,0,0-.787-.033L1.18,51.016ZM1.147,56.588V52.523l7.441-6.162,5.343,5.245a.6.6,0,0,0,.754.066L19.5,48.393l5.7,3.966v4.228a.032.032,0,0,1-.033.033ZM28.124,59.6,4.1,59.571V57.8h21.11a1.175,1.175,0,0,0,1.18-1.18V41.739l1.77.033Z" transform="translate(0 -37.609)" fill="#a3a3a3"/>
    </g>
  </g>
  <g id="Group_18" data-name="Group 18" transform="translate(15.537 2.983)">
    <g id="Group_17" data-name="Group 17">
      <path id="Path_27" data-name="Path 27" d="M192.189,74.009a2.59,2.59,0,1,0,2.59,2.59A2.6,2.6,0,0,0,192.189,74.009Zm0,4.032a1.442,1.442,0,1,1,1.442-1.442A1.455,1.455,0,0,1,192.189,78.041Z" transform="translate(-189.6 -74.009)" fill="#a3a3a3"/>
    </g>
  </g>
</svg>
