<svg id="capitol" xmlns="http://www.w3.org/2000/svg" width="150.393" height="146.745" viewBox="0 0 150.393 146.745">
  <g id="Group_941" data-name="Group 941" transform="translate(60.138 101.607)">
    <g id="Group_940" data-name="Group 940" transform="translate(0 0)">
      <rect id="Rectangle_315" data-name="Rectangle 315" width="6.014" height="21.187" fill="#aeacac"/>
    </g>
  </g>
  <g id="Group_943" data-name="Group 943" transform="translate(72.166 101.607)">
    <g id="Group_942" data-name="Group 942" transform="translate(0 0)">
      <rect id="Rectangle_316" data-name="Rectangle 316" width="6.014" height="21.187" fill="#aeacac"/>
    </g>
  </g>
  <g id="Group_945" data-name="Group 945" transform="translate(84.193 101.607)">
    <g id="Group_944" data-name="Group 944" transform="translate(0 0)">
      <rect id="Rectangle_317" data-name="Rectangle 317" width="6.014" height="21.187" fill="#aeacac"/>
    </g>
  </g>
  <g id="Group_947" data-name="Group 947" transform="translate(18.041 116.806)">
    <g id="Group_946" data-name="Group 946" transform="translate(0 0)">
      <rect id="Rectangle_318" data-name="Rectangle 318" width="6.014" height="5.988" fill="#aeacac"/>
    </g>
  </g>
  <g id="Group_949" data-name="Group 949" transform="translate(36.083 116.806)">
    <g id="Group_948" data-name="Group 948" transform="translate(0 0)">
      <rect id="Rectangle_319" data-name="Rectangle 319" width="6.014" height="5.988" fill="#aeacac"/>
    </g>
  </g>
  <g id="Group_951" data-name="Group 951" transform="translate(108.249 116.806)">
    <g id="Group_950" data-name="Group 950" transform="translate(0 0)">
      <rect id="Rectangle_320" data-name="Rectangle 320" width="6.014" height="5.988" fill="#aeacac"/>
    </g>
  </g>
  <g id="Group_953" data-name="Group 953" transform="translate(126.29 116.806)">
    <g id="Group_952" data-name="Group 952" transform="translate(0 0)">
      <rect id="Rectangle_321" data-name="Rectangle 321" width="6.014" height="5.988" fill="#aeacac"/>
    </g>
  </g>
  <g id="Group_955" data-name="Group 955" transform="translate(0 0)">
    <g id="Group_954" data-name="Group 954">
      <path id="Path_2392" data-name="Path 2392" d="M144.378,132.776V93.844H114.3V63.9h-6.016V48.922H102.09A27.018,27.018,0,0,0,84.22,26.536V12.984H78.2V4H72.189v8.984H66.173V26.536A27.018,27.018,0,0,0,48.3,48.922H42.11V63.9H36.094V93.844H6.016v38.932H0v17.969H150.393V132.776ZM27.071,144.755H6.016v-5.99H27.071Zm0-11.979H12.031V99.833H27.071Zm45.118-113.8H78.2v5.99H72.189ZM75.2,30.953A21.058,21.058,0,0,1,96.038,48.922H54.355A21.058,21.058,0,0,1,75.2,30.953ZM48.126,54.911h54.142V63.9H48.126Zm60.157,14.974V81.865h-6.016V69.885Zm-12.031,0V81.865H90.236V69.885Zm-12.031,0V81.865H78.2V69.885Zm-12.031,0V81.865H66.173V69.885Zm-12.031,0V81.865H54.142V69.885Zm-18.047,0h6.016V81.865H42.11Zm6.016,74.87H33.087v-5.99H48.126Zm0-11.979H33.087V99.833H48.126Zm48.126,11.979H54.142v-5.99h42.11Zm0-11.979H54.142V99.833h42.11Zm0-38.932H42.11v-5.99h66.173v5.99H96.252Zm21.055,50.911H102.268v-5.99h15.039Zm0-11.979H102.268V99.833h15.039Zm6.016-32.943h15.039v32.943H123.323Zm21.055,44.922H123.323v-5.99h21.055Z" transform="translate(0 -4)" fill="#aeacac"/>
    </g>
  </g>
</svg>
