<svg xmlns="http://www.w3.org/2000/svg" width="118.746" height="126.76" viewBox="0 0 118.746 126.76">
  <g id="Group_13693" data-name="Group 13693" transform="translate(-4072.776 -13281.101)">
    <g id="Group_13585" data-name="Group 13585" transform="translate(4072.776 13296.555)">
      <g id="Group_13569" data-name="Group 13569" transform="translate(71.179)">
        <g id="Group_13568" data-name="Group 13568" style="isolation: isolate">
          <g id="Group_13565" data-name="Group 13565" transform="translate(0.186)">
            <path id="Path_13991" data-name="Path 13991" d="M4289.058,13331.4l-23.613,13.723-23.768-13.723,23.613-13.723Z" transform="translate(-4241.677 -13317.675)" fill="#0fe4ff"/>
          </g>
          <g id="Group_13566" data-name="Group 13566" transform="translate(23.768 13.722)">
            <path id="Path_13992" data-name="Path 13992" d="M4321.286,13350.15l-.186,42.236-23.613,13.723.187-42.236Z" transform="translate(-4297.487 -13350.15)" fill="#0fd3ff"/>
          </g>
          <g id="Group_13567" data-name="Group 13567" transform="translate(0 13.722)">
            <path id="Path_13993" data-name="Path 13993" d="M4265.19,13363.873l-.187,42.236-23.768-13.723.186-42.236Z" transform="translate(-4241.236 -13350.15)" fill="#00d1ff"/>
          </g>
        </g>
      </g>
      <g id="Group_13574" data-name="Group 13574" transform="translate(47.396 23.344)">
        <g id="Group_13573" data-name="Group 13573" style="isolation: isolate">
          <g id="Group_13570" data-name="Group 13570" transform="translate(0.186)">
            <path id="Path_13994" data-name="Path 13994" d="M4232.769,13386.646l-23.613,13.722-23.768-13.722,23.613-13.722Z" transform="translate(-4185.389 -13372.925)" fill="#ffdc9a"/>
          </g>
          <g id="Group_13571" data-name="Group 13571" transform="translate(23.768 13.722)">
            <path id="Path_13995" data-name="Path 13995" d="M4265,13405.4l-.186,32.606-23.612,13.723.186-32.606Z" transform="translate(-4241.2 -13405.4)" fill="#ffcb60"/>
          </g>
          <g id="Group_13572" data-name="Group 13572" transform="translate(0 13.722)">
            <path id="Path_13996" data-name="Path 13996" d="M4208.9,13419.123l-.186,32.606-23.768-13.724.186-32.605Z" transform="translate(-4184.948 -13405.4)" fill="#ffc23f"/>
          </g>
        </g>
      </g>
      <g id="Group_13579" data-name="Group 13579" transform="translate(23.597 46.333)">
        <g id="Group_13578" data-name="Group 13578" style="isolation: isolate">
          <g id="Group_13575" data-name="Group 13575" transform="translate(0.186)">
            <path id="Path_13997" data-name="Path 13997" d="M4176.445,13441.053l-23.613,13.723-23.768-13.723,23.613-13.723Z" transform="translate(-4129.064 -13427.33)" fill="#ff7fc3"/>
          </g>
          <g id="Group_13576" data-name="Group 13576" transform="translate(23.768 13.722)">
            <path id="Path_13998" data-name="Path 13998" d="M4208.674,13459.808l-.186,23.751-23.613,13.722.186-23.751Z" transform="translate(-4184.875 -13459.808)" fill="#ff51a2"/>
          </g>
          <g id="Group_13577" data-name="Group 13577" transform="translate(0 13.722)">
            <path id="Path_13999" data-name="Path 13999" d="M4152.577,13473.529l-.186,23.751-23.769-13.722.187-23.751Z" transform="translate(-4128.623 -13459.808)" fill="#ff4198"/>
          </g>
        </g>
      </g>
      <g id="Group_13584" data-name="Group 13584" transform="translate(0 68.882)">
        <g id="Group_13583" data-name="Group 13583" style="isolation: isolate">
          <g id="Group_13580" data-name="Group 13580" transform="translate(0.186)">
            <path id="Path_14000" data-name="Path 14000" d="M4120.6,13494.421l-23.613,13.723-23.768-13.723,23.613-13.723Z" transform="translate(-4073.216 -13480.698)" fill="#53b9ff"/>
          </g>
          <g id="Group_13581" data-name="Group 13581" transform="translate(23.768 13.722)">
            <path id="Path_14001" data-name="Path 14001" d="M4152.826,13513.174l-.186,14.979-23.613,13.723.186-14.979Z" transform="translate(-4129.027 -13513.174)" fill="#1da4ff"/>
          </g>
          <g id="Group_13582" data-name="Group 13582" transform="translate(0 13.722)">
            <path id="Path_14002" data-name="Path 14002" d="M4096.729,13526.9l-.186,14.979-23.768-13.723.186-14.979Z" transform="translate(-4072.776 -13513.174)" fill="#0499ff"/>
          </g>
        </g>
      </g>
    </g>
    <path id="Path_14003" data-name="Path 14003" d="M4102.085,13511c3.068,2.671,5.74,1.8,7.785-1.782s6.278-4.166,8.947-4.816,4.67-1.823,2.4-3.646-5.655,0-6.144,1.627-5.362,4.4-6.734,4.314S4098.375,13507.764,4102.085,13511Z" transform="translate(-16.393 -126.402)" opacity="0.15"/>
    <ellipse id="Ellipse_275" data-name="Ellipse 275" cx="4.701" cy="2.199" rx="4.701" ry="2.199" transform="translate(4162.508 13307.211)" opacity="0.15"/>
    <g id="Group_13589" data-name="Group 13589" transform="translate(4166.339 13281.101)">
      <g id="Group_13588" data-name="Group 13588" transform="translate(0)" style="isolation: isolate">
        <g id="Group_13586" data-name="Group 13586" transform="translate(0 0.481)">
          <path id="Path_14004" data-name="Path 14004" d="M4295.932,13282.243l-.052,27.535a.417.417,0,0,1-.243.34,1.3,1.3,0,0,1-1.18,0,.418.418,0,0,1-.246-.344l.052-27.536a.417.417,0,0,0,.247.344,1.294,1.294,0,0,0,1.179,0A.413.413,0,0,0,4295.932,13282.243Z" transform="translate(-4294.211 -13282.238)" fill="#c4c9ff"/>
        </g>
        <g id="Group_13587" data-name="Group 13587" transform="translate(0.052)">
          <path id="Path_14005" data-name="Path 14005" d="M4295.757,13281.241a.362.362,0,0,1,0,.685,1.3,1.3,0,0,1-1.179,0,.361.361,0,0,1,0-.684A1.311,1.311,0,0,1,4295.757,13281.241Z" transform="translate(-4294.334 -13281.102)" fill="#d9dcff"/>
        </g>
      </g>
    </g>
    <path id="Path_14006" data-name="Path 14006" d="M4298.264,13284.217a3.693,3.693,0,0,0,3.361,2.746c2.674.05,3.582-1.888,6.307-1.373a5.5,5.5,0,0,1,3.784,2.584,5.062,5.062,0,0,0-4.137.353c-1.816,1.211-3.71,3.679-7.366,2.825a13.086,13.086,0,0,1-1.962-.555Z" transform="translate(-130.204 -1.799)" fill="#ff4198"/>
    <g id="Group_13592" data-name="Group 13592" transform="translate(4084.854 13334.989)">
      <path id="Path_14007" data-name="Path 14007" d="M4136.179,13501.039a5.169,5.169,0,0,0-.188,1.076,3.38,3.38,0,0,0,.571,1.121c.088.131.747.57,1.648-.332s1.671.068,2.33-.9,1.077-1.781.55-2.09-1.121.2-1.6.33-1.047.334-1.172.1Z" transform="translate(-4121.358 -13461.293)" fill="#002283"/>
      <circle id="Ellipse_276" data-name="Ellipse 276" cx="3.207" cy="3.207" r="3.207" transform="translate(8.406 19.61)" fill="#2b2b57"/>
      <path id="Path_14008" data-name="Path 14008" d="M4121.771,13457.913c.167-.636-.052-1.293.491-1.443l.782.722Z" transform="translate(-4113.146 -13436.26)" fill="#2b2b57"/>
      <path id="Path_14009" data-name="Path 14009" d="M4126.543,13464.688s3.31,3.4,3.425,4.906a7.1,7.1,0,0,0,0,2.833,46.2,46.2,0,0,1,.755,6.134s1.921.572,2.135-.692a68.116,68.116,0,0,1,0-7.529s.131-.058,0-1.265-1.063-6.813-2.135-8.182Z" transform="translate(-4115.902 -13438.813)" fill="#2b2b57"/>
      <path id="Path_14010" data-name="Path 14010" d="M4103.023,13514.068c-.293.311-1.13.616-1.257,1.022a8.123,8.123,0,0,1-.406.964,2.657,2.657,0,0,0,1.066,1.218c.634.253.888,1.853,1.929,1.853s2.69-.026,2.538-.787-.761-.634-1.167-.837a1.53,1.53,0,0,1-.939-1.092,5.339,5.339,0,0,1,.249-1.738Z" transform="translate(-4101.36 -13469.521)" fill="#002283"/>
      <circle id="Ellipse_277" data-name="Ellipse 277" cx="3.207" cy="3.207" r="3.207" transform="translate(10.152 21.061)" fill="#444487"/>
      <path id="Path_14011" data-name="Path 14011" d="M4136.377,13461.054a7.741,7.741,0,0,1-.307,2.618l-3.092-.267,1.219-3.2Z" transform="translate(-4119.619 -13438.416)" fill="#444487"/>
      <path id="Path_14012" data-name="Path 14012" d="M4120.2,13466.075c-.362,5.019-4.443,11.284-4.443,11.284a2.14,2.14,0,0,1-.862,1.323,108.2,108.2,0,0,0-7.587,8.273s-1.609.6-2.012-.6c0,0,1.782-3.563,2.356-4.886s3.692-4.954,4.44-5.266a55.593,55.593,0,0,0,2.358-8.172Z" transform="translate(-4103.633 -13441.807)" fill="#444487"/>
      <g id="Group_13591" data-name="Group 13591" transform="translate(3.293 0)">
        <path id="Path_14013" data-name="Path 14013" d="M4151.251,13440.958s-.3-.047-.546-.6,0-.7,0-.7l.375-.122Z" transform="translate(-4133.086 -13426.479)" fill="#ffb1d0"/>
        <path id="Path_14014" data-name="Path 14014" d="M4153.036,13439.755s.087-1.154.078-1.37-.009-.385-.147-.458c-.171-.093-.312-.323-.538-.255l-.225.068a.58.58,0,0,0-.421-.078.4.4,0,0,0-.273.2.371.371,0,0,0-.3.088.714.714,0,0,0-.087.792,2.381,2.381,0,0,1,.205.47s.049.789.186.786S4153.036,13439.755,4153.036,13439.755Z" transform="translate(-4133.341 -13425.39)" fill="#ffb1d0"/>
        <path id="Path_14015" data-name="Path 14015" d="M4153.756,13442.908l-.082-.553s-.172-.291-.78-.272a.907.907,0,0,0-.812.518l.068.426Z" transform="translate(-4133.943 -13427.951)" fill="#ebeeff"/>
        <path id="Path_14016" data-name="Path 14016" d="M4153.771,13448.1c.988-1.348.136-3.242.136-4.314a.835.835,0,0,0-.695-.916c-.5-.094-1.262.252-1.1.7a5.068,5.068,0,0,1-.021,1.768c-.042.125.305,2.525.305,2.525Z" transform="translate(-4133.943 -13428.396)" fill="#0fd3ff"/>
        <g id="Group_13590" data-name="Group 13590" transform="translate(0 7.7)">
          <path id="Path_14017" data-name="Path 14017" d="M4109.389,13444.45c1.075,1.231,3.144,1.105,4.333,1.315a11.387,11.387,0,0,0,2.19.169l.264-1.5a37.919,37.919,0,0,1-4.331-1.254c-1.333-.562-1.782-.064-1.782-.064Z" transform="translate(-4109.29 -13436.134)" fill="#00d1ff"/>
          <path id="Path_14018" data-name="Path 14018" d="M4116.508,13427.09a2.987,2.987,0,0,0-3.9,1.725c-.716,1.8-4.074,5.274-3.358,6.365s3.26.122,3.485-1.089c.216-1.161,3.533-4.136,3.577-5.029S4117.141,13427.395,4116.508,13427.09Z" transform="translate(-4109.153 -13426.863)" fill="#00d1ff"/>
        </g>
        <path id="Path_14019" data-name="Path 14019" d="M4133.373,13423.844a.4.4,0,0,0-.447.4c-.017.221-.092,1.4-.092,1.4a2.087,2.087,0,0,1-1.625.422c-.75-.25-1.313-.623-1.292-1.08s.335-.717.387-1.111a4.868,4.868,0,0,0,.087-1.568c-.12-.375.971-.252,1.59.156s.854.582.854.582Z" transform="translate(-4121.143 -13416.397)" fill="#ffb1d0"/>
        <circle id="Ellipse_278" data-name="Ellipse 278" cx="2.855" cy="2.855" r="2.855" transform="translate(8.144 0.791)" fill="#ffb1d0"/>
        <path id="Path_14020" data-name="Path 14020" d="M4138.664,13417.27a10.424,10.424,0,0,1-.087,2.012c-.154.938-.484,1.359-.456,1.578s-.441.254-.81.227-.854,0-.953-.426a2.609,2.609,0,0,1-.092-.572Z" transform="translate(-4124.81 -13413.623)" fill="#ffb1d0"/>
        <path id="Path_14021" data-name="Path 14021" d="M4141.468,13419.084a12.852,12.852,0,0,1,.312,1.263c.015.24-.658.227-.658.227Z" transform="translate(-4127.614 -13414.671)" fill="#ffb1d0"/>
        <path id="Path_14022" data-name="Path 14022" d="M4128.373,13428.4c1.127.715,2.952,1.99,2.993,3.259s-2.1,7.292-2.018,8.253.617,1.653.029,2.236-3.589.669-5.04,0-2.776-2.355-2.465-3.132a23.536,23.536,0,0,0,.415-3.633c.164-1.157-1.046-2.47-1.03-4.532s.4-3.492,1.588-3.881a8.058,8.058,0,0,1,3.348.144Z" transform="translate(-4116.144 -13419.146)" fill="#0fe4ff"/>
        <path id="Path_14023" data-name="Path 14023" d="M4131.127,13413.658l-.046.789.433.094.295-.556.563-.3a.6.6,0,0,1-.115-.629c.155-.343.831-.729.831-.729a1.726,1.726,0,0,0,.544-.7s.688-.319.744-.666-.771-.24-.771-.24,1.236-1,.545-1.493c-.226-.16-1.084.2-1.084.2s.532-.791-.118-.791a1.579,1.579,0,0,0-1.023.348,3.924,3.924,0,0,0-2.479.239,4.037,4.037,0,0,0-1.278,1.094s-1.335.319-.855,2.212,1.53,2.271,1.551,2.588a2.753,2.753,0,0,1,1.364.4S4130.187,13413.691,4131.127,13413.658Z" transform="translate(-4119.579 -13408.639)" fill="#002283"/>
        <path id="Path_14024" data-name="Path 14024" d="M4135.008,13419.891s-.076-.557-.549-.441a1.016,1.016,0,0,0-.359,1.465c.359.459.411.52.816.424Z" transform="translate(-4123.46 -13414.872)" fill="#ffb1d0"/>
        <path id="Path_14025" data-name="Path 14025" d="M4133.12,13427.589l-.266-.895a7.191,7.191,0,0,0-2.749-1.272l-.627.606s-.02.289.914.627S4132.868,13427.409,4133.12,13427.589Z" transform="translate(-4120.89 -13418.33)" fill="#ebeeff"/>
        <path id="Path_14026" data-name="Path 14026" d="M4141.6,13437.047c-.423-1.129-2.759-2.061-3.411-.959a3.307,3.307,0,0,0,.612,3.816c1.048,1.294,5.272,5.015,6.734,4S4142.523,13439.52,4141.6,13437.047Z" transform="translate(-4125.706 -13424.205)" fill="#0fe4ff"/>
      </g>
      <path id="Path_14027" data-name="Path 14027" d="M4109.119,13507.07l-1.867,3.2-.6.561-.383.857a3.793,3.793,0,0,1-1.562-.447,2.424,2.424,0,0,1-.755-1.094l2.118-3.559Z" transform="translate(-4102.858 -13465.203)" fill="#444487"/>
    </g>
    <g id="Group_13599" data-name="Group 13599" transform="translate(4145.105 13313.984)">
      <g id="Group_13598" data-name="Group 13598" transform="translate(0)" style="isolation: isolate">
        <g id="Group_13593" data-name="Group 13593" transform="translate(29.373 9.138)">
          <path id="Path_14028" data-name="Path 14028" d="M4315.078,13397.824l-1.6-.933,8.948-16.339,1.6.932Z" transform="translate(-4313.475 -13380.553)" fill="#ff7fc3"/>
        </g>
        <g id="Group_13594" data-name="Group 13594" transform="translate(35.857)">
          <path id="Path_14029" data-name="Path 14029" d="M4330.422,13367.8l-1.6-.93,8.957-7.945,1.6.932Z" transform="translate(-4328.819 -13358.927)" fill="#ff7fc3"/>
        </g>
        <g id="Group_13595" data-name="Group 13595" transform="translate(0 20.94)">
          <path id="Path_14030" data-name="Path 14030" d="M4245.376,13450.978l-1.155-.671a.531.531,0,0,1-.2-.715l22.46-41.107,1.6.933Z" transform="translate(-4243.957 -13408.484)" fill="#ff7fc3"/>
        </g>
        <g id="Group_13596" data-name="Group 13596" transform="translate(1.419 0.931)">
          <path id="Path_14031" data-name="Path 14031" d="M4283.356,13369.074l8.958-7.943-.914,11.842-2.491-1.207-12.016,21.942-6.848-4.538-19.4,35.514a.532.532,0,0,1-.7.224l-2.633-1.274,22.709-41.562,6.848,4.538,8.947-16.341Z" transform="translate(-4247.316 -13361.131)" fill="#ff51a2"/>
        </g>
        <g id="Group_13597" data-name="Group 13597" transform="translate(1.419 0.931)">
          <path id="Path_14032" data-name="Path 14032" d="M4270.025,13395.02l6.848,4.538,9.145-16.7-.2-.1-8.947,16.337-6.848-4.538-22.709,41.562.2.095Z" transform="translate(-4247.316 -13373.624)" fill="#ff3693"/>
          <path id="Path_14033" data-name="Path 14033" d="M4341.533,13361.619l.038-.488-8.957,7.943.331.161Z" transform="translate(-4296.572 -13361.131)" fill="#ff3693"/>
        </g>
      </g>
      <path id="Path_14034" data-name="Path 14034" d="M4328.992,13366.972l8.849-7.531,1.539.418-1.6-.932-8.957,7.945Z" transform="translate(-4292.962 -13358.927)" fill="#ffc9e6"/>
    </g>
    <g id="Group_13602" data-name="Group 13602" transform="translate(4112.049 13312.824)">
      <g id="Group_13601" data-name="Group 13601" transform="translate(0 0)">
        <path id="Path_14035" data-name="Path 14035" d="M4166.96,13366.332c.391.2.8.386,1.186.615a3.012,3.012,0,0,0-1.292,2.233c-.357-.229-.747-.409-1.126-.6A3.013,3.013,0,0,1,4166.96,13366.332Z" transform="translate(-4165.726 -13362.042)" fill="#abf6ff"/>
        <path id="Path_14036" data-name="Path 14036" d="M4166.852,13372.252c0,.024,0,.05,0,.072l.022,8.017a.95.95,0,0,0,.4.871l-1.125-.653a.954.954,0,0,1-.4-.872l-.022-8.015c0-.009,0-.016,0-.023C4166.1,13371.843,4166.495,13372.023,4166.852,13372.252Z" transform="translate(-4165.724 -13365.112)" fill="#abf6ff"/>
        <path id="Path_14037" data-name="Path 14037" d="M4168.766,13360.394l6.976-4.027a.957.957,0,0,1,.966-.094l1.125.653a.959.959,0,0,0-.967.095l-6.976,4.027c-.02.012-.039.025-.058.037-.389-.229-.795-.417-1.186-.615C4168.685,13360.443,4168.725,13360.417,4168.766,13360.394Z" transform="translate(-4167.412 -13356.181)" fill="#abf6ff"/>
        <g id="Group_13600" data-name="Group 13600" transform="translate(1.124 0.651)">
          <path id="Path_14038" data-name="Path 14038" d="M4169.737,13361.939a2.982,2.982,0,0,0-1.353,2.344l.027,8.018c0,.861.613,1.209,1.363.775l6.974-4.031a2.985,2.985,0,0,0,1.353-2.346l-.027-8.016c0-.861-.613-1.209-1.363-.775Z" transform="translate(-4168.385 -13357.722)" fill="#0fe4ff"/>
        </g>
      </g>
      <path id="Path_14039" data-name="Path 14039" d="M4172.065,13372.386a.459.459,0,0,0,.193.423.352.352,0,0,0,.112.038,1.2,1.2,0,0,0-.083.419.46.46,0,0,0,.194.423.386.386,0,0,0,.292.026,1.123,1.123,0,0,0-.045.3.462.462,0,0,0,.194.423.467.467,0,0,0,.465-.047l2.845-1.644a1.392,1.392,0,0,0,.226-.164c.073-.064.145-.134.214-.207a5.911,5.911,0,0,0,.387-.459l.059-.075c.059-.08.113-.155.16-.221-.047.065-.1.141-.16.221a.26.26,0,0,0,.118.179.311.311,0,0,0,.311-.031l.656-.378a.9.9,0,0,0,.309-.327.889.889,0,0,0,.127-.429l-.01-3.271a.307.307,0,0,0-.128-.281.315.315,0,0,0-.311.031l-.657.379a.7.7,0,0,0-.145.113c-.012-.025-.024-.052-.038-.078a3.812,3.812,0,0,0-.513-.78,1.53,1.53,0,0,1-.293-.6,3.326,3.326,0,0,1-.1-.594.278.278,0,0,0-.143-.244.324.324,0,0,0-.294.041l-.231.133a1.341,1.341,0,0,0-.463.489,1.321,1.321,0,0,0-.191.645l.006,2.012-2.189,1.264a1.444,1.444,0,0,0-.654,1.134.567.567,0,0,0,.085.32l.044-.055-.044.055a1.809,1.809,0,0,0-.11.168A1.328,1.328,0,0,0,4172.065,13372.386Zm.424-.952,0,0Zm4.691-.3Zm.363.36-.009-3.27.656-.379.009,3.27Zm-.117-.082.014-.021Zm-4.949,1.212a1.345,1.345,0,0,1,.462-.487l-.217.125a.16.16,0,0,1-.155.017.152.152,0,0,1-.065-.142.448.448,0,0,1,.063-.215.453.453,0,0,1,.155-.163l.219-.126.656-.379h0l.219-.126a.482.482,0,0,0,.218-.379c0-.139-.1-.194-.22-.125l-.219.127h0l-.656.379h0a.134.134,0,0,1-.22-.125.436.436,0,0,1,.064-.215.447.447,0,0,1,.154-.164l2.407-1.389a.48.48,0,0,0,.218-.379l-.006-2.264a.432.432,0,0,1,.063-.213.447.447,0,0,1,.154-.164l.231-.133a3.79,3.79,0,0,0,.116.67,1.823,1.823,0,0,0,.351.712,3.448,3.448,0,0,1,.472.716c.08.158.13.283.151.338l.008,2.727c-.025.036-.055.081-.09.129-.1.146-.247.337-.391.5a2.69,2.69,0,0,1-.273.282.849.849,0,0,1-.12.09l-2.845,1.643a.16.16,0,0,1-.155.016.152.152,0,0,1-.064-.142.442.442,0,0,1,.063-.215.452.452,0,0,1,.154-.163l.438-.252a.48.48,0,0,0,.218-.378c0-.14-.1-.2-.22-.125l-.437.252-.438.253a.133.133,0,0,1-.219-.125.431.431,0,0,1,.063-.215.448.448,0,0,1,.154-.163l.875-.5a.486.486,0,0,0,.218-.378c0-.139-.1-.2-.22-.125l-.875.5A1.344,1.344,0,0,0,4172.477,13372.62Zm1.333-1.7c0,.006,0,.011,0,.017S4173.81,13370.927,4173.811,13370.921Zm-.168.3-.022.016Z" transform="translate(-4169.386 -13361.572)" fill="#fff"/>
    </g>
    <g id="Group_13603" data-name="Group 13603" transform="translate(4109.931 13308.888)">
      <path id="Path_14040" data-name="Path 14040" d="M4161.074,13348a.8.8,0,0,0-.364.632l.007,2.156c0,.232.166.325.367.209l1.876-1.085a.8.8,0,0,0,.364-.632l-.007-2.156c0-.232-.165-.325-.367-.209Z" transform="translate(-4160.71 -13346.865)" fill="#e3e5ff"/>
    </g>
    <g id="Group_13604" data-name="Group 13604" transform="translate(4126.479 13309.396)">
      <path id="Path_14041" data-name="Path 14041" d="M4200.583,13350.278a1.563,1.563,0,0,0-.708,1.229l.014,4.2c0,.451.321.633.714.406l3.654-2.112a1.562,1.562,0,0,0,.709-1.229l-.014-4.2c0-.451-.322-.633-.714-.406Z" transform="translate(-4199.874 -13348.068)" fill="#e3e5ff"/>
    </g>
    <g id="Group_13610" data-name="Group 13610" transform="translate(4135.563 13285.404)">
      <g id="Group_13606" data-name="Group 13606" transform="translate(0)">
        <path id="Path_14042" data-name="Path 14042" d="M4222.478,13300.369c.349.178.713.346,1.061.551a2.7,2.7,0,0,0-1.156,2c-.32-.2-.668-.366-1.009-.54A2.7,2.7,0,0,1,4222.478,13300.369Z" transform="translate(-4221.374 -13296.53)" fill="#ffe5b0"/>
        <path id="Path_14043" data-name="Path 14043" d="M4222.382,13305.666c0,.021,0,.044,0,.065l.021,7.172a.847.847,0,0,0,.354.779l-1.006-.585a.85.85,0,0,1-.355-.778l-.02-7.173c0-.007,0-.015,0-.021C4221.714,13305.3,4222.062,13305.462,4222.382,13305.666Z" transform="translate(-4221.373 -13299.277)" fill="#ffe5b0"/>
        <path id="Path_14044" data-name="Path 14044" d="M4224.093,13295.057l6.242-3.6a.856.856,0,0,1,.865-.084l1.006.584a.855.855,0,0,0-.864.086l-6.242,3.6c-.018.01-.035.021-.052.032-.348-.205-.711-.373-1.062-.551C4224.022,13295.1,4224.057,13295.077,4224.093,13295.057Z" transform="translate(-4222.882 -13291.286)" fill="#ffe5b0"/>
        <g id="Group_13605" data-name="Group 13605" transform="translate(1.006 0.583)">
          <path id="Path_14045" data-name="Path 14045" d="M4224.963,13296.438a2.672,2.672,0,0,0-1.21,2.1l.025,7.172c0,.771.548,1.082,1.219.693l6.239-3.606a2.669,2.669,0,0,0,1.21-2.1l-.024-7.172c0-.771-.549-1.082-1.22-.694Z" transform="translate(-4223.753 -13292.665)" fill="#ffcb60"/>
        </g>
      </g>
      <g id="Group_13609" data-name="Group 13609" transform="translate(2.647 3.852)">
        <g id="Group_13607" data-name="Group 13607" transform="translate(2.12 2.086)">
          <path id="Path_14046" data-name="Path 14046" d="M4233.059,13307.03a1.348,1.348,0,0,0-.4.888c0,.3.17.461.4.423v.388c0,.128.091.18.2.115a.442.442,0,0,0,.2-.348v-.388a1.347,1.347,0,0,0,.4-.888c0-.3-.169-.462-.4-.422v-1.315c0-.128-.091-.18-.2-.116a.445.445,0,0,0-.2.348Zm0,.655a.446.446,0,0,1,.2-.348c.112-.064.2-.014.2.116a.446.446,0,0,1-.2.348C4233.15,13307.865,4233.059,13307.813,4233.059,13307.686Z" transform="translate(-4232.655 -13305.34)" fill="#fff"/>
        </g>
        <g id="Group_13608" data-name="Group 13608">
          <path id="Path_14047" data-name="Path 14047" d="M4227.638,13306.285c0,1.726,1.226,2.425,2.729,1.562a5.988,5.988,0,0,0,2.723-4.694,2.2,2.2,0,0,0-.46-1.472l.3-.521a.4.4,0,0,0,.06-.2.141.141,0,0,0-.06-.13l-.571-.327a.144.144,0,0,0-.143.014.394.394,0,0,0-.143.151l-.325.561a1.932,1.932,0,0,0-.783.091v-.311l.2-.116a.443.443,0,0,0,.2-.349c0-.127-.091-.179-.2-.115l-.4.232-.808.464-.4.232a.442.442,0,0,0-.2.348c0,.128.09.18.2.115l.2-.115v.311a5.554,5.554,0,0,0-.781.808l-.326-.187a.141.141,0,0,0-.143.015.4.4,0,0,0-.142.149l-.571.983a.4.4,0,0,0-.059.2.141.141,0,0,0,.06.13l.3.173A5.091,5.091,0,0,0,4227.638,13306.285Zm1-3c-.1.157-.2.321-.292.488l-.125-.073.285-.491Zm1.925-1.812-.4.232v-.232l.4-.232Zm1.94-.233-.124.216a1.263,1.263,0,0,0-.294-.149l.133-.229Zm-4.461,4.813a4.424,4.424,0,0,1,.451-1.838.161.161,0,0,0,.014-.021.426.426,0,0,0,.04-.09,4.9,4.9,0,0,1,1.815-2.051,1.529,1.529,0,0,1,1.816-.036.124.124,0,0,0,.04.044l.014,0a1.8,1.8,0,0,1,.453,1.319,5.1,5.1,0,0,1-2.32,4C4229.085,13308.12,4228.043,13307.522,4228.042,13306.054Z" transform="translate(-4227.638 -13300.403)" fill="#fff"/>
        </g>
      </g>
    </g>
    <g id="Group_13611" data-name="Group 13611" transform="translate(4139.153 13301.179)">
      <path id="Path_14048" data-name="Path 14048" d="M4230.2,13329.634a.719.719,0,0,0-.326.565l.007,1.93c0,.207.147.291.328.187l1.679-.971a.718.718,0,0,0,.326-.564l-.006-1.931c0-.207-.147-.291-.328-.186Z" transform="translate(-4229.87 -13328.618)" fill="#e3e5ff"/>
    </g>
    <g id="Group_13612" data-name="Group 13612" transform="translate(4129.024 13298.811)">
      <path id="Path_14049" data-name="Path 14049" d="M4206.533,13324.992a1.4,1.4,0,0,0-.634,1.1l.013,3.759c0,.4.287.566.639.363l3.27-1.89a1.4,1.4,0,0,0,.634-1.1l-.013-3.758c0-.4-.287-.567-.639-.364Z" transform="translate(-4205.899 -13323.016)" fill="#e3e5ff"/>
    </g>
    <g id="Group_13613" data-name="Group 13613" transform="translate(4175.863 13375.259)">
      <path id="Path_14050" data-name="Path 14050" d="M4316.929,13505.954a.258.258,0,0,0,0,.488l3.283,1.908a.923.923,0,0,0,.843,0l3.305-1.908a.258.258,0,0,0,0-.488l-3.283-1.908a.929.929,0,0,0-.843,0Z" transform="translate(-4316.752 -13503.945)" fill="#e3e5ff"/>
    </g>
    <g id="Group_13614" data-name="Group 13614" transform="translate(4163.561 13373.256)">
      <path id="Path_14051" data-name="Path 14051" d="M4287.761,13500.64a.184.184,0,0,0,0,.349l2.345,1.363a.667.667,0,0,0,.6,0l2.361-1.363a.184.184,0,0,0,0-.349l-2.346-1.362a.66.66,0,0,0-.6,0Z" transform="translate(-4287.635 -13499.205)" fill="#e3e5ff"/>
    </g>
    <g id="Group_13615" data-name="Group 13615" transform="translate(4177.604 13367.738)">
      <path id="Path_14052" data-name="Path 14052" d="M4320.969,13487.258a.142.142,0,0,0,0,.27l1.814,1.054a.508.508,0,0,0,.465,0l1.827-1.054c.129-.075.13-.2,0-.27l-1.814-1.056a.514.514,0,0,0-.465,0Z" transform="translate(-4320.872 -13486.146)" fill="#e3e5ff"/>
    </g>
    <path id="Path_14053" data-name="Path 14053" d="M4204,13533.174l5.891,3.493,14.605-8.006-.562-.7Z" transform="translate(-75.777 -142.553)" opacity="0.2"/>
    <g id="Group_13623" data-name="Group 13623" transform="translate(4127.999 13379.684)">
      <g id="Group_13622" data-name="Group 13622" transform="translate(0)">
        <g id="Group_13616" data-name="Group 13616">
          <path id="Path_14054" data-name="Path 14054" d="M4203.471,13522.363l6.419,3.73,13.762-7.945-6.419-3.73Z" transform="translate(-4203.471 -13514.418)" fill="#42a5ff"/>
        </g>
        <path id="Path_14055" data-name="Path 14055" d="M4209.891,13530.738l13.53-7.811.232.135-13.762,7.945-6.419-3.73.232-.135Z" transform="translate(-4203.471 -13519.332)" fill="#48b5ff"/>
        <g id="Group_13617" data-name="Group 13617" transform="translate(0 7.946)">
          <path id="Path_14056" data-name="Path 14056" d="M4203.471,13533.223l.005,1.992,6.419,3.73-.005-1.992Z" transform="translate(-4203.471 -13533.223)" fill="#3b93e5"/>
        </g>
        <g id="Group_13618" data-name="Group 13618" transform="translate(6.419 3.731)">
          <path id="Path_14057" data-name="Path 14057" d="M4218.664,13531.192l.006,1.992,13.762-7.945-.006-1.993Z" transform="translate(-4218.664 -13523.246)" fill="#3582cc"/>
        </g>
        <g id="Group_13620" data-name="Group 13620" transform="translate(2.403 1.344)">
          <g id="Group_13619" data-name="Group 13619">
            <path id="Path_14058" data-name="Path 14058" d="M4219.145,13517.6a3.012,3.012,0,0,0,2.734,0l2.66,1.545a.838.838,0,0,0-.009,1.586l-9.979,5.76a3.012,3.012,0,0,0-2.734,0l-2.66-1.545a.837.837,0,0,0,.009-1.584Zm-.208,5.66a1.282,1.282,0,0,0,.014-2.428,4.622,4.622,0,0,0-4.191,0,1.284,1.284,0,0,0-.014,2.43,4.623,4.623,0,0,0,4.192,0Zm2.127-3.113a.284.284,0,0,0,0-.537,1.023,1.023,0,0,0-.928,0,.284.284,0,0,0,0,.537,1.022,1.022,0,0,0,.928,0Zm-7.508,4.336a.285.285,0,0,0,0-.539,1.023,1.023,0,0,0-.928,0,.285.285,0,0,0,0,.539,1.035,1.035,0,0,0,.928,0Z" transform="translate(-4209.157 -13517.598)" fill="#2552b2"/>
          </g>
        </g>
        <path id="Path_14059" data-name="Path 14059" d="M4229.476,13517.705l-5.725-2.864-8.875,4.74,8.943-5.163Z" transform="translate(-4210.057 -13514.418)" fill="#4dc2ff"/>
        <g id="Group_13621" data-name="Group 13621" transform="translate(8.322 4.692)">
          <path id="Path_14060" data-name="Path 14060" d="M4224.868,13527.384a.211.211,0,0,1,.093-.093.549.549,0,0,1,.293-.063,1.074,1.074,0,0,0,.375-.049l-.673-.392a1.907,1.907,0,0,1-1.465-.065c-.439-.255-.383-.583-.08-.833l-.172-.1c-.1-.055-.094-.144,0-.2a.379.379,0,0,1,.343,0l.168.1a1.949,1.949,0,0,1,.838-.165c.233,0,.4.134.338.265a.229.229,0,0,1-.1.1.521.521,0,0,1-.264.061.847.847,0,0,0-.3.044l.637.37a2.012,2.012,0,0,1,1.581.022c.46.268.41.619.02.907l.176.1a.1.1,0,0,1,0,.2.373.373,0,0,1-.343,0l-.181-.105a2.158,2.158,0,0,1-.991.179c-.22-.013-.364-.14-.307-.263Zm1.116-.4c.133-.122.1-.229-.022-.3a.728.728,0,0,0-.525-.022l.548.319Zm-2.043-.79c-.054.084-.024.163.079.224a.565.565,0,0,0,.38.043l-.459-.267Z" transform="translate(-4223.168 -13525.523)" fill="#2552b2"/>
        </g>
      </g>
    </g>
    <path id="Path_14061" data-name="Path 14061" d="M4192.667,13552.9c0-1.439-2.358-2.607-5.267-2.607s-5.267,1.168-5.267,2.607a1.269,1.269,0,0,0,.009.15,9.044,9.044,0,0,0-3.31-.58c-2.909,0-5.267,1.166-5.267,2.607s2.358,2.607,5.267,2.607c.364,0,.719-.02,1.063-.053.428,1.227,2.587,2.158,5.187,2.158,2.909,0,5.267-1.166,5.267-2.607,0-.691-.545-1.318-1.432-1.785C4191.086,13555.072,4192.667,13554.076,4192.667,13552.9Z" transform="translate(-58.204 -155.448)" opacity="0.2"/>
    <g id="Group_13692" data-name="Group 13692" transform="translate(4116.313 13382.87)">
      <g id="Group_13657" data-name="Group 13657" transform="translate(5.294 0)">
        <g id="Group_13627" data-name="Group 13627" transform="translate(0 9.257)">
          <g id="Group_13624" data-name="Group 13624" transform="translate(0 2.218)">
            <path id="Path_14062" data-name="Path 14062" d="M4189.484,13550.7a1.927,1.927,0,0,1-1.137-1.588l0,.9a1.923,1.923,0,0,0,1.136,1.587l.044.024v-.9Z" transform="translate(-4188.345 -13549.115)" fill="#fca629"/>
            <path id="Path_14063" data-name="Path 14063" d="M4191.694,13553.187a4.27,4.27,0,0,1-.554-.259v.9a3.954,3.954,0,0,0,.545.255C4191.682,13553.783,4191.692,13553.485,4191.694,13553.187Z" transform="translate(-4189.959 -13551.316)" fill="#ffb131"/>
            <path id="Path_14064" data-name="Path 14064" d="M4192.438,13553.539c0,.3-.011.6-.008.895a6.323,6.323,0,0,0,4.054.076v-.895A6.324,6.324,0,0,1,4192.438,13553.539Z" transform="translate(-4190.704 -13551.67)" fill="#ffbc4d"/>
            <path id="Path_14065" data-name="Path 14065" d="M4202.858,13552.827l-.033.019a4.288,4.288,0,0,1-.8.357v.9a4.326,4.326,0,0,0,.8-.356l.053-.031C4202.857,13553.415,4202.856,13553.123,4202.858,13552.827Z" transform="translate(-4196.244 -13551.259)" fill="#ffb131"/>
            <path id="Path_14066" data-name="Path 14066" d="M4204,13550.713c0,.3,0,.59.018.885a1.884,1.884,0,0,0,1.065-1.533l0-.9A1.9,1.9,0,0,1,4204,13550.713Z" transform="translate(-4197.384 -13549.144)" fill="#fca629"/>
          </g>
          <g id="Group_13625" data-name="Group 13625" transform="translate(0.001)">
            <path id="Path_14067" data-name="Path 14067" d="M4194.909,13544.519c1.508.87,1.516,2.281.018,3.152a6,6,0,0,1-5.443,0c-1.508-.871-1.516-2.282-.017-3.152A5.988,5.988,0,0,1,4194.909,13544.519Z" transform="translate(-4188.348 -13543.864)" fill="#ffd244"/>
          </g>
          <path id="Path_14068" data-name="Path 14068" d="M4189.467,13544.738a5.994,5.994,0,0,1,5.442,0,2,2,0,0,1,1.131,1.473,1.866,1.866,0,0,0-1.131-1.692,5.988,5.988,0,0,0-5.442,0,1.848,1.848,0,0,0-1.114,1.679A1.972,1.972,0,0,1,4189.467,13544.738Z" transform="translate(-4188.346 -13543.864)" fill="#fff6cf"/>
          <path id="Path_14069" data-name="Path 14069" d="M4194.927,13550.372a6,6,0,0,1-5.443,0,1.987,1.987,0,0,1-1.132-1.486,1.872,1.872,0,0,0,1.132,1.685,6,6,0,0,0,5.443,0,1.856,1.856,0,0,0,1.115-1.667A1.967,1.967,0,0,1,4194.927,13550.372Z" transform="translate(-4188.347 -13546.765)" fill="#ffae29"/>
          <g id="Group_13626" data-name="Group 13626" transform="translate(0.886 0.452)">
            <path id="Path_14070" data-name="Path 14070" d="M4195.5,13545.437a1.283,1.283,0,0,1,.013,2.429,4.622,4.622,0,0,1-4.191,0,1.284,1.284,0,0,1-.014-2.429A4.621,4.621,0,0,1,4195.5,13545.437Z" transform="translate(-4190.442 -13544.934)" fill="#ffbc4d"/>
          </g>
          <path id="Path_14071" data-name="Path 14071" d="M4191.3,13545.657a4.616,4.616,0,0,1,4.191,0,1.554,1.554,0,0,1,.869,1.109,1.426,1.426,0,0,0-.869-1.33,4.619,4.619,0,0,0-4.191,0,1.411,1.411,0,0,0-.854,1.318A1.536,1.536,0,0,1,4191.3,13545.657Z" transform="translate(-4189.557 -13544.481)" fill="#ffae29"/>
        </g>
        <g id="Group_13631" data-name="Group 13631" transform="translate(0 7.917)">
          <g id="Group_13628" data-name="Group 13628" transform="translate(0 2.218)">
            <path id="Path_14072" data-name="Path 14072" d="M4189.484,13547.532a1.927,1.927,0,0,1-1.137-1.588l0,.9a1.928,1.928,0,0,0,1.136,1.589l.044.024v-.9Z" transform="translate(-4188.345 -13545.944)" fill="#fca629"/>
            <path id="Path_14073" data-name="Path 14073" d="M4191.694,13550.015a4.027,4.027,0,0,1-.554-.259v.9a4.329,4.329,0,0,0,.545.255C4191.682,13550.612,4191.692,13550.314,4191.694,13550.015Z" transform="translate(-4189.959 -13548.145)" fill="#ffb131"/>
            <path id="Path_14074" data-name="Path 14074" d="M4192.438,13550.367c0,.3-.011.6-.008.9a6.323,6.323,0,0,0,4.054.076v-.9A6.317,6.317,0,0,1,4192.438,13550.367Z" transform="translate(-4190.704 -13548.498)" fill="#ffbc4d"/>
            <path id="Path_14075" data-name="Path 14075" d="M4202.858,13549.654a.289.289,0,0,1-.033.02,4.288,4.288,0,0,1-.8.357v.9a4.389,4.389,0,0,0,.8-.355l.053-.033C4202.857,13550.244,4202.856,13549.951,4202.858,13549.654Z" transform="translate(-4196.244 -13548.086)" fill="#ffb131"/>
            <path id="Path_14076" data-name="Path 14076" d="M4204,13547.541c0,.3,0,.592.018.887a1.885,1.885,0,0,0,1.065-1.535l0-.9A1.892,1.892,0,0,1,4204,13547.541Z" transform="translate(-4197.384 -13545.974)" fill="#fca629"/>
          </g>
          <g id="Group_13629" data-name="Group 13629" transform="translate(0.001)">
            <path id="Path_14077" data-name="Path 14077" d="M4194.909,13541.348c1.508.87,1.516,2.282.018,3.151a5.99,5.99,0,0,1-5.443,0c-1.508-.869-1.516-2.281-.017-3.151A5.994,5.994,0,0,1,4194.909,13541.348Z" transform="translate(-4188.348 -13540.694)" fill="#ffd244"/>
          </g>
          <path id="Path_14078" data-name="Path 14078" d="M4189.467,13541.566a6.006,6.006,0,0,1,5.442,0,2,2,0,0,1,1.131,1.474,1.866,1.866,0,0,0-1.131-1.692,5.994,5.994,0,0,0-5.442,0,1.847,1.847,0,0,0-1.114,1.679A1.974,1.974,0,0,1,4189.467,13541.566Z" transform="translate(-4188.346 -13540.694)" fill="#fff6cf"/>
          <path id="Path_14079" data-name="Path 14079" d="M4194.927,13547.2a6,6,0,0,1-5.443,0,1.987,1.987,0,0,1-1.132-1.486,1.871,1.871,0,0,0,1.132,1.684,6,6,0,0,0,5.443,0,1.853,1.853,0,0,0,1.115-1.666A1.968,1.968,0,0,1,4194.927,13547.2Z" transform="translate(-4188.347 -13543.594)" fill="#ffae29"/>
          <g id="Group_13630" data-name="Group 13630" transform="translate(0.886 0.452)">
            <path id="Path_14080" data-name="Path 14080" d="M4195.5,13542.268a1.283,1.283,0,0,1,.013,2.428,4.622,4.622,0,0,1-4.191,0,1.283,1.283,0,0,1-.014-2.428A4.612,4.612,0,0,1,4195.5,13542.268Z" transform="translate(-4190.442 -13541.764)" fill="#ffbc4d"/>
          </g>
          <path id="Path_14081" data-name="Path 14081" d="M4191.3,13542.488a4.61,4.61,0,0,1,4.191,0,1.547,1.547,0,0,1,.869,1.109,1.424,1.424,0,0,0-.869-1.33,4.61,4.61,0,0,0-4.191,0,1.409,1.409,0,0,0-.854,1.316A1.531,1.531,0,0,1,4191.3,13542.488Z" transform="translate(-4189.557 -13541.312)" fill="#ffae29"/>
        </g>
        <g id="Group_13635" data-name="Group 13635" transform="translate(0 6.556)">
          <g id="Group_13632" data-name="Group 13632" transform="translate(0 2.218)">
            <path id="Path_14082" data-name="Path 14082" d="M4189.484,13544.312a1.925,1.925,0,0,1-1.137-1.588l0,.9a1.927,1.927,0,0,0,1.136,1.588l.044.024v-.9Z" transform="translate(-4188.345 -13542.724)" fill="#fca629"/>
            <path id="Path_14083" data-name="Path 14083" d="M4191.694,13546.795a4.4,4.4,0,0,1-.554-.258v.9a4.2,4.2,0,0,0,.545.255C4191.682,13547.394,4191.692,13547.095,4191.694,13546.795Z" transform="translate(-4189.959 -13544.926)" fill="#ffb131"/>
            <path id="Path_14084" data-name="Path 14084" d="M4192.438,13547.148c0,.3-.011.6-.008.895a6.323,6.323,0,0,0,4.054.076v-.9A6.324,6.324,0,0,1,4192.438,13547.148Z" transform="translate(-4190.704 -13545.278)" fill="#ffbc4d"/>
            <path id="Path_14085" data-name="Path 14085" d="M4202.858,13546.436l-.033.02a4.285,4.285,0,0,1-.8.356v.9a4.392,4.392,0,0,0,.8-.356l.053-.031C4202.857,13547.024,4202.856,13546.731,4202.858,13546.436Z" transform="translate(-4196.244 -13544.867)" fill="#ffb131"/>
            <path id="Path_14086" data-name="Path 14086" d="M4204,13544.322c0,.295,0,.59.018.885a1.884,1.884,0,0,0,1.065-1.533l0-.9A1.9,1.9,0,0,1,4204,13544.322Z" transform="translate(-4197.384 -13542.753)" fill="#fca629"/>
          </g>
          <g id="Group_13633" data-name="Group 13633" transform="translate(0.001)">
            <path id="Path_14087" data-name="Path 14087" d="M4194.909,13538.127c1.508.87,1.516,2.282.018,3.152a6,6,0,0,1-5.443,0c-1.508-.87-1.516-2.282-.017-3.152A5.994,5.994,0,0,1,4194.909,13538.127Z" transform="translate(-4188.348 -13537.474)" fill="#ffd244"/>
          </g>
          <path id="Path_14088" data-name="Path 14088" d="M4189.467,13538.347a6,6,0,0,1,5.442,0,2,2,0,0,1,1.131,1.473,1.867,1.867,0,0,0-1.131-1.692,5.994,5.994,0,0,0-5.442,0,1.849,1.849,0,0,0-1.114,1.679A1.972,1.972,0,0,1,4189.467,13538.347Z" transform="translate(-4188.346 -13537.474)" fill="#fff6cf"/>
          <path id="Path_14089" data-name="Path 14089" d="M4194.927,13543.98a6,6,0,0,1-5.443,0,1.984,1.984,0,0,1-1.132-1.485,1.873,1.873,0,0,0,1.132,1.685,6.007,6.007,0,0,0,5.443,0,1.857,1.857,0,0,0,1.115-1.667A1.966,1.966,0,0,1,4194.927,13543.98Z" transform="translate(-4188.347 -13540.374)" fill="#ffae29"/>
          <g id="Group_13634" data-name="Group 13634" transform="translate(0.886 0.452)">
            <path id="Path_14090" data-name="Path 14090" d="M4195.5,13539.047a1.283,1.283,0,0,1,.013,2.428,4.616,4.616,0,0,1-4.191,0,1.283,1.283,0,0,1-.014-2.428A4.624,4.624,0,0,1,4195.5,13539.047Z" transform="translate(-4190.442 -13538.545)" fill="#ffbc4d"/>
          </g>
          <path id="Path_14091" data-name="Path 14091" d="M4191.3,13539.268a4.616,4.616,0,0,1,4.191,0,1.551,1.551,0,0,1,.869,1.109,1.426,1.426,0,0,0-.869-1.33,4.622,4.622,0,0,0-4.191,0,1.411,1.411,0,0,0-.854,1.318A1.536,1.536,0,0,1,4191.3,13539.268Z" transform="translate(-4189.557 -13538.093)" fill="#ffae29"/>
        </g>
        <g id="Group_13639" data-name="Group 13639" transform="translate(0 5.216)">
          <g id="Group_13636" data-name="Group 13636" transform="translate(0 2.218)">
            <path id="Path_14092" data-name="Path 14092" d="M4189.484,13541.141a1.927,1.927,0,0,1-1.137-1.588l0,.9a1.923,1.923,0,0,0,1.136,1.587l.044.026v-.9Z" transform="translate(-4188.345 -13539.553)" fill="#fca629"/>
            <path id="Path_14093" data-name="Path 14093" d="M4191.694,13543.624a4.145,4.145,0,0,1-.554-.259v.9a4.192,4.192,0,0,0,.545.254C4191.682,13544.222,4191.692,13543.923,4191.694,13543.624Z" transform="translate(-4189.959 -13541.754)" fill="#ffb131"/>
            <path id="Path_14094" data-name="Path 14094" d="M4192.438,13543.977c0,.3-.011.6-.008.895a6.316,6.316,0,0,0,4.054.077v-.9A6.324,6.324,0,0,1,4192.438,13543.977Z" transform="translate(-4190.704 -13542.107)" fill="#ffbc4d"/>
            <path id="Path_14095" data-name="Path 14095" d="M4202.858,13543.265l-.033.019a4.225,4.225,0,0,1-.8.357v.9a4.328,4.328,0,0,0,.8-.357l.053-.031C4202.857,13543.854,4202.856,13543.561,4202.858,13543.265Z" transform="translate(-4196.244 -13541.696)" fill="#ffb131"/>
            <path id="Path_14096" data-name="Path 14096" d="M4204,13541.151c0,.3,0,.59.018.885a1.883,1.883,0,0,0,1.065-1.534l0-.9A1.894,1.894,0,0,1,4204,13541.151Z" transform="translate(-4197.384 -13539.584)" fill="#fca629"/>
          </g>
          <g id="Group_13637" data-name="Group 13637" transform="translate(0.001)">
            <path id="Path_14097" data-name="Path 14097" d="M4194.909,13534.956c1.508.871,1.516,2.282.018,3.152a5.99,5.99,0,0,1-5.443,0c-1.508-.87-1.516-2.281-.017-3.152A5.994,5.994,0,0,1,4194.909,13534.956Z" transform="translate(-4188.348 -13534.303)" fill="#ffd244"/>
          </g>
          <path id="Path_14098" data-name="Path 14098" d="M4189.467,13535.176a5.994,5.994,0,0,1,5.442,0,2,2,0,0,1,1.131,1.473,1.868,1.868,0,0,0-1.131-1.692,5.994,5.994,0,0,0-5.442,0,1.848,1.848,0,0,0-1.114,1.68A1.974,1.974,0,0,1,4189.467,13535.176Z" transform="translate(-4188.346 -13534.303)" fill="#fff6cf"/>
          <path id="Path_14099" data-name="Path 14099" d="M4194.927,13540.811a6,6,0,0,1-5.443,0,1.987,1.987,0,0,1-1.132-1.486,1.871,1.871,0,0,0,1.132,1.684,6,6,0,0,0,5.443,0,1.852,1.852,0,0,0,1.115-1.665A1.967,1.967,0,0,1,4194.927,13540.811Z" transform="translate(-4188.347 -13537.203)" fill="#ffae29"/>
          <g id="Group_13638" data-name="Group 13638" transform="translate(0.886 0.452)">
            <path id="Path_14100" data-name="Path 14100" d="M4195.5,13535.877a1.282,1.282,0,0,1,.013,2.427,4.61,4.61,0,0,1-4.191,0,1.282,1.282,0,0,1-.014-2.427A4.618,4.618,0,0,1,4195.5,13535.877Z" transform="translate(-4190.442 -13535.374)" fill="#ffbc4d"/>
          </g>
          <path id="Path_14101" data-name="Path 14101" d="M4191.3,13536.1a4.622,4.622,0,0,1,4.191,0,1.552,1.552,0,0,1,.869,1.11,1.424,1.424,0,0,0-.869-1.33,4.616,4.616,0,0,0-4.191,0,1.409,1.409,0,0,0-.854,1.316A1.536,1.536,0,0,1,4191.3,13536.1Z" transform="translate(-4189.557 -13534.922)" fill="#ffae29"/>
        </g>
        <g id="Group_13643" data-name="Group 13643" transform="translate(0 3.965)">
          <g id="Group_13640" data-name="Group 13640" transform="translate(0 2.218)">
            <path id="Path_14102" data-name="Path 14102" d="M4189.484,13538.179a1.926,1.926,0,0,1-1.137-1.588l0,.9a1.927,1.927,0,0,0,1.136,1.588l.044.024v-.9Z" transform="translate(-4188.345 -13536.591)" fill="#fca629"/>
            <path id="Path_14103" data-name="Path 14103" d="M4191.694,13540.662a4.267,4.267,0,0,1-.554-.258v.9a4.072,4.072,0,0,0,.545.255C4191.682,13541.26,4191.692,13540.962,4191.694,13540.662Z" transform="translate(-4189.959 -13538.793)" fill="#ffb131"/>
            <path id="Path_14104" data-name="Path 14104" d="M4192.438,13541.015c0,.3-.011.6-.008.895a6.323,6.323,0,0,0,4.054.077v-.9A6.317,6.317,0,0,1,4192.438,13541.015Z" transform="translate(-4190.704 -13539.146)" fill="#ffbc4d"/>
            <path id="Path_14105" data-name="Path 14105" d="M4202.858,13540.3l-.033.018a4.165,4.165,0,0,1-.8.357v.9a4.532,4.532,0,0,0,.8-.357l.053-.031C4202.857,13540.891,4202.856,13540.6,4202.858,13540.3Z" transform="translate(-4196.244 -13538.734)" fill="#ffb131"/>
            <path id="Path_14106" data-name="Path 14106" d="M4204,13538.188c0,.3,0,.592.018.887a1.885,1.885,0,0,0,1.065-1.535l0-.9A1.889,1.889,0,0,1,4204,13538.188Z" transform="translate(-4197.384 -13536.62)" fill="#fca629"/>
          </g>
          <g id="Group_13641" data-name="Group 13641" transform="translate(0.001)">
            <path id="Path_14107" data-name="Path 14107" d="M4194.909,13531.994c1.508.87,1.516,2.282.018,3.152a6,6,0,0,1-5.443,0c-1.508-.87-1.516-2.282-.017-3.152A5.994,5.994,0,0,1,4194.909,13531.994Z" transform="translate(-4188.348 -13531.341)" fill="#ffd244"/>
          </g>
          <path id="Path_14108" data-name="Path 14108" d="M4189.467,13532.214a6,6,0,0,1,5.442,0,2,2,0,0,1,1.131,1.473,1.867,1.867,0,0,0-1.131-1.692,5.994,5.994,0,0,0-5.442,0,1.848,1.848,0,0,0-1.114,1.68A1.972,1.972,0,0,1,4189.467,13532.214Z" transform="translate(-4188.346 -13531.341)" fill="#fff6cf"/>
          <path id="Path_14109" data-name="Path 14109" d="M4194.927,13537.848a5.989,5.989,0,0,1-5.443,0,1.984,1.984,0,0,1-1.132-1.485,1.873,1.873,0,0,0,1.132,1.685,6,6,0,0,0,5.443,0,1.857,1.857,0,0,0,1.115-1.667A1.966,1.966,0,0,1,4194.927,13537.848Z" transform="translate(-4188.347 -13534.241)" fill="#ffae29"/>
          <g id="Group_13642" data-name="Group 13642" transform="translate(0.886 0.452)">
            <path id="Path_14110" data-name="Path 14110" d="M4195.5,13532.914a1.283,1.283,0,0,1,.013,2.428,4.622,4.622,0,0,1-4.191,0,1.283,1.283,0,0,1-.014-2.428A4.612,4.612,0,0,1,4195.5,13532.914Z" transform="translate(-4190.442 -13532.41)" fill="#ffbc4d"/>
          </g>
          <path id="Path_14111" data-name="Path 14111" d="M4191.3,13533.135a4.61,4.61,0,0,1,4.191,0,1.547,1.547,0,0,1,.869,1.109,1.426,1.426,0,0,0-.869-1.33,4.61,4.61,0,0,0-4.191,0,1.409,1.409,0,0,0-.854,1.316A1.531,1.531,0,0,1,4191.3,13533.135Z" transform="translate(-4189.557 -13531.958)" fill="#ffae29"/>
        </g>
        <g id="Group_13647" data-name="Group 13647" transform="translate(0 2.625)">
          <g id="Group_13644" data-name="Group 13644" transform="translate(0 2.219)">
            <path id="Path_14112" data-name="Path 14112" d="M4189.484,13535.008a1.925,1.925,0,0,1-1.137-1.587l0,.9a1.926,1.926,0,0,0,1.136,1.588l.044.025v-.9Z" transform="translate(-4188.345 -13533.421)" fill="#fca629"/>
            <path id="Path_14113" data-name="Path 14113" d="M4191.694,13537.492a4.4,4.4,0,0,1-.554-.258v.9a4.329,4.329,0,0,0,.545.255C4191.682,13538.089,4191.692,13537.792,4191.694,13537.492Z" transform="translate(-4189.959 -13535.623)" fill="#ffb131"/>
            <path id="Path_14114" data-name="Path 14114" d="M4192.438,13537.845c0,.3-.011.6-.008.895a6.323,6.323,0,0,0,4.054.076v-.9A6.324,6.324,0,0,1,4192.438,13537.845Z" transform="translate(-4190.704 -13535.976)" fill="#ffbc4d"/>
            <path id="Path_14115" data-name="Path 14115" d="M4202.858,13537.131a.289.289,0,0,1-.033.02,4.288,4.288,0,0,1-.8.357v.9a4.265,4.265,0,0,0,.8-.357c.018-.01.035-.02.053-.031C4202.857,13537.721,4202.856,13537.428,4202.858,13537.131Z" transform="translate(-4196.244 -13535.563)" fill="#ffb131"/>
            <path id="Path_14116" data-name="Path 14116" d="M4204,13535.018c0,.3,0,.592.018.885a1.879,1.879,0,0,0,1.065-1.533l0-.9A1.892,1.892,0,0,1,4204,13535.018Z" transform="translate(-4197.384 -13533.45)" fill="#fca629"/>
          </g>
          <g id="Group_13645" data-name="Group 13645" transform="translate(0.001)">
            <path id="Path_14117" data-name="Path 14117" d="M4194.909,13528.823c1.508.871,1.516,2.282.018,3.152a6,6,0,0,1-5.443,0c-1.508-.87-1.516-2.281-.017-3.152A5.994,5.994,0,0,1,4194.909,13528.823Z" transform="translate(-4188.348 -13528.17)" fill="#ffd244"/>
          </g>
          <path id="Path_14118" data-name="Path 14118" d="M4189.467,13529.043a5.994,5.994,0,0,1,5.442,0,2,2,0,0,1,1.131,1.474,1.868,1.868,0,0,0-1.131-1.693,5.994,5.994,0,0,0-5.442,0,1.849,1.849,0,0,0-1.114,1.68A1.974,1.974,0,0,1,4189.467,13529.043Z" transform="translate(-4188.346 -13528.17)" fill="#fff6cf"/>
          <path id="Path_14119" data-name="Path 14119" d="M4194.927,13534.678a6,6,0,0,1-5.443,0,1.986,1.986,0,0,1-1.132-1.485,1.874,1.874,0,0,0,1.132,1.685,6.007,6.007,0,0,0,5.443,0,1.857,1.857,0,0,0,1.115-1.667A1.966,1.966,0,0,1,4194.927,13534.678Z" transform="translate(-4188.347 -13531.07)" fill="#ffae29"/>
          <g id="Group_13646" data-name="Group 13646" transform="translate(0.886 0.452)">
            <path id="Path_14120" data-name="Path 14120" d="M4195.5,13529.742a1.283,1.283,0,0,1,.013,2.428,4.622,4.622,0,0,1-4.191,0,1.283,1.283,0,0,1-.014-2.428A4.624,4.624,0,0,1,4195.5,13529.742Z" transform="translate(-4190.442 -13529.24)" fill="#ffbc4d"/>
          </g>
          <path id="Path_14121" data-name="Path 14121" d="M4191.3,13529.963a4.622,4.622,0,0,1,4.191,0,1.551,1.551,0,0,1,.869,1.109,1.426,1.426,0,0,0-.869-1.33,4.622,4.622,0,0,0-4.191,0,1.411,1.411,0,0,0-.854,1.318A1.534,1.534,0,0,1,4191.3,13529.963Z" transform="translate(-4189.557 -13528.788)" fill="#ffae29"/>
        </g>
        <g id="Group_13651" data-name="Group 13651" transform="translate(0 1.333)">
          <g id="Group_13648" data-name="Group 13648" transform="translate(0 2.218)">
            <path id="Path_14122" data-name="Path 14122" d="M4189.484,13531.948a1.925,1.925,0,0,1-1.137-1.587l0,.9a1.926,1.926,0,0,0,1.136,1.588l.044.025v-.9Z" transform="translate(-4188.345 -13530.361)" fill="#fca629"/>
            <path id="Path_14123" data-name="Path 14123" d="M4191.694,13534.432a4.024,4.024,0,0,1-.554-.258v.9a4.466,4.466,0,0,0,.545.254C4191.682,13535.03,4191.692,13534.731,4191.694,13534.432Z" transform="translate(-4189.959 -13532.563)" fill="#ffb131"/>
            <path id="Path_14124" data-name="Path 14124" d="M4192.438,13534.785c0,.3-.011.6-.008.9a6.323,6.323,0,0,0,4.054.076v-.9A6.317,6.317,0,0,1,4192.438,13534.785Z" transform="translate(-4190.704 -13532.915)" fill="#ffbc4d"/>
            <path id="Path_14125" data-name="Path 14125" d="M4202.858,13534.073a.289.289,0,0,0-.033.02,4.35,4.35,0,0,1-.8.356v.9a4.2,4.2,0,0,0,.8-.357l.053-.031C4202.857,13534.661,4202.856,13534.369,4202.858,13534.073Z" transform="translate(-4196.244 -13532.505)" fill="#ffb131"/>
            <path id="Path_14126" data-name="Path 14126" d="M4204,13531.959c0,.3,0,.59.018.885a1.882,1.882,0,0,0,1.065-1.533l0-.9A1.9,1.9,0,0,1,4204,13531.959Z" transform="translate(-4197.384 -13530.39)" fill="#fca629"/>
          </g>
          <g id="Group_13649" data-name="Group 13649" transform="translate(0.001)">
            <path id="Path_14127" data-name="Path 14127" d="M4194.909,13525.764c1.508.872,1.516,2.282.018,3.153a6,6,0,0,1-5.443,0c-1.508-.871-1.516-2.281-.017-3.153A6,6,0,0,1,4194.909,13525.764Z" transform="translate(-4188.348 -13525.111)" fill="#ffd244"/>
          </g>
          <path id="Path_14128" data-name="Path 14128" d="M4189.467,13525.984a6,6,0,0,1,5.442,0,1.994,1.994,0,0,1,1.131,1.473,1.869,1.869,0,0,0-1.131-1.693,6,6,0,0,0-5.442,0,1.849,1.849,0,0,0-1.114,1.681A1.972,1.972,0,0,1,4189.467,13525.984Z" transform="translate(-4188.346 -13525.111)" fill="#fff6cf"/>
          <path id="Path_14129" data-name="Path 14129" d="M4194.927,13531.619a6.007,6.007,0,0,1-5.443,0,1.99,1.99,0,0,1-1.132-1.488,1.873,1.873,0,0,0,1.132,1.686,6,6,0,0,0,5.443,0,1.857,1.857,0,0,0,1.115-1.667A1.971,1.971,0,0,1,4194.927,13531.619Z" transform="translate(-4188.347 -13528.01)" fill="#ffae29"/>
          <g id="Group_13650" data-name="Group 13650" transform="translate(0.886 0.452)">
            <path id="Path_14130" data-name="Path 14130" d="M4195.5,13526.684a1.283,1.283,0,0,1,.013,2.428,4.622,4.622,0,0,1-4.191,0,1.283,1.283,0,0,1-.014-2.428A4.624,4.624,0,0,1,4195.5,13526.684Z" transform="translate(-4190.442 -13526.182)" fill="#ffbc4d"/>
          </g>
          <path id="Path_14131" data-name="Path 14131" d="M4191.3,13526.9a4.61,4.61,0,0,1,4.191,0,1.551,1.551,0,0,1,.869,1.109,1.426,1.426,0,0,0-.869-1.33,4.622,4.622,0,0,0-4.191,0,1.41,1.41,0,0,0-.854,1.318A1.534,1.534,0,0,1,4191.3,13526.9Z" transform="translate(-4189.557 -13525.729)" fill="#ffae29"/>
        </g>
        <g id="Group_13656" data-name="Group 13656">
          <g id="Group_13652" data-name="Group 13652" transform="translate(0 2.218)">
            <path id="Path_14132" data-name="Path 14132" d="M4189.484,13528.795a1.927,1.927,0,0,1-1.137-1.588l0,.9a1.924,1.924,0,0,0,1.136,1.588l.044.025v-.9Z" transform="translate(-4188.345 -13527.207)" fill="#fca629"/>
            <path id="Path_14133" data-name="Path 14133" d="M4191.694,13531.278a4.27,4.27,0,0,1-.554-.259v.9a4.192,4.192,0,0,0,.545.254C4191.682,13531.875,4191.692,13531.577,4191.694,13531.278Z" transform="translate(-4189.959 -13529.408)" fill="#ffb131"/>
            <path id="Path_14134" data-name="Path 14134" d="M4192.438,13531.631c0,.3-.011.6-.008.895a6.316,6.316,0,0,0,4.054.076v-.9A6.311,6.311,0,0,1,4192.438,13531.631Z" transform="translate(-4190.704 -13529.762)" fill="#ffbc4d"/>
            <path id="Path_14135" data-name="Path 14135" d="M4202.858,13530.917l-.033.02a4.285,4.285,0,0,1-.8.356v.9a4.389,4.389,0,0,0,.8-.355l.053-.032C4202.857,13531.507,4202.856,13531.213,4202.858,13530.917Z" transform="translate(-4196.244 -13529.35)" fill="#ffb131"/>
            <path id="Path_14136" data-name="Path 14136" d="M4204,13528.8c0,.3,0,.59.018.885a1.882,1.882,0,0,0,1.065-1.534l0-.9A1.893,1.893,0,0,1,4204,13528.8Z" transform="translate(-4197.384 -13527.236)" fill="#fca629"/>
          </g>
          <g id="Group_13653" data-name="Group 13653" transform="translate(0.001)">
            <path id="Path_14137" data-name="Path 14137" d="M4194.909,13522.61c1.508.869,1.516,2.281.018,3.152a6,6,0,0,1-5.443,0c-1.508-.871-1.516-2.283-.017-3.152A5.988,5.988,0,0,1,4194.909,13522.61Z" transform="translate(-4188.348 -13521.956)" fill="#ffd244"/>
          </g>
          <path id="Path_14138" data-name="Path 14138" d="M4189.467,13522.83a5.994,5.994,0,0,1,5.442,0,2,2,0,0,1,1.131,1.474,1.866,1.866,0,0,0-1.131-1.693,5.988,5.988,0,0,0-5.442,0,1.848,1.848,0,0,0-1.114,1.679A1.971,1.971,0,0,1,4189.467,13522.83Z" transform="translate(-4188.346 -13521.956)" fill="#fff6cf"/>
          <path id="Path_14139" data-name="Path 14139" d="M4194.927,13528.464a6,6,0,0,1-5.443,0,1.985,1.985,0,0,1-1.132-1.486,1.874,1.874,0,0,0,1.132,1.685,6,6,0,0,0,5.443,0,1.855,1.855,0,0,0,1.115-1.667A1.968,1.968,0,0,1,4194.927,13528.464Z" transform="translate(-4188.347 -13524.856)" fill="#ffae29"/>
          <g id="Group_13654" data-name="Group 13654" transform="translate(0.886 0.451)">
            <path id="Path_14140" data-name="Path 14140" d="M4195.5,13523.528a1.283,1.283,0,0,1,.013,2.429,4.622,4.622,0,0,1-4.191,0,1.284,1.284,0,0,1-.014-2.429A4.618,4.618,0,0,1,4195.5,13523.528Z" transform="translate(-4190.442 -13523.025)" fill="#ffbc4d"/>
          </g>
          <path id="Path_14141" data-name="Path 14141" d="M4191.3,13523.749a4.616,4.616,0,0,1,4.191,0,1.551,1.551,0,0,1,.869,1.109,1.425,1.425,0,0,0-.869-1.33,4.616,4.616,0,0,0-4.191,0,1.411,1.411,0,0,0-.854,1.318A1.534,1.534,0,0,1,4191.3,13523.749Z" transform="translate(-4189.557 -13522.574)" fill="#ffae29"/>
          <g id="Group_13655" data-name="Group 13655" transform="translate(1.996 1.119)">
            <path id="Path_14142" data-name="Path 14142" d="M4195.332,13525.616c.213.281.5.606-.034.917a1.751,1.751,0,0,1-1.568.014l-.177.1a.38.38,0,0,1-.343,0c-.1-.056-.1-.145,0-.2l.182-.106a.617.617,0,0,1-.313-.574c.022-.128.241-.213.456-.18l.029,0a.432.432,0,0,1,.161.055.18.18,0,0,1,.109.17.272.272,0,0,0,.086.218l.675-.393c-.2-.272-.364-.576.109-.852a1.688,1.688,0,0,1,1.439-.048l.172-.1a.381.381,0,0,1,.344,0,.105.105,0,0,1,0,.2l-.169.1a.582.582,0,0,1,.288.485c-.007.135-.23.23-.456.2a.479.479,0,0,1-.168-.057.174.174,0,0,1-.106-.151.222.222,0,0,0-.077-.173Zm-1.079.627a.608.608,0,0,0,.511-.015c.133-.077.122-.171.037-.3l-.548.319Zm.9-.921.46-.268a.54.54,0,0,0-.386.047.153.153,0,0,0-.075.221Z" transform="translate(-4193.07 -13524.604)" fill="#e39729"/>
          </g>
        </g>
      </g>
      <g id="Group_13662" data-name="Group 13662" transform="translate(11.126 7.93)">
        <path id="Path_14143" data-name="Path 14143" d="M4202.148,13545.572c.21.052.421.127.632.2a4.716,4.716,0,0,1,2.774-4.484,3.009,3.009,0,0,0-.664-.21A4.733,4.733,0,0,0,4202.148,13545.572Z" transform="translate(-4202.147 -13540.927)" fill="#ffeba6"/>
        <path id="Path_14144" data-name="Path 14144" d="M4209.727,13541.026a3.838,3.838,0,0,0-.662-.216,2.191,2.191,0,0,0-.274.063c-.052.014-.1.03-.152.049a2.948,2.948,0,0,1,.664.209c.041-.014.081-.025.121-.037A2.49,2.49,0,0,1,4209.727,13541.026Z" transform="translate(-4205.896 -13540.774)" fill="#fff6cf"/>
        <path id="Path_14145" data-name="Path 14145" d="M4210.766,13540.844a2.228,2.228,0,0,0-1.118-.083,3.817,3.817,0,0,1,.662.218,2.193,2.193,0,0,1,1.089.086Z" transform="translate(-4206.478 -13540.726)" fill="#fff"/>
        <path id="Path_14146" data-name="Path 14146" d="M4202.783,13551.967c0-.016,0-.034,0-.051-.211-.069-.421-.146-.633-.2v.028a4.266,4.266,0,0,0,.074.683,3.92,3.92,0,0,0,.634.225A4.314,4.314,0,0,1,4202.783,13551.967Z" transform="translate(-4202.148 -13547.074)" fill="#ffd244"/>
        <path id="Path_14147" data-name="Path 14147" d="M4202.96,13553.626a4.015,4.015,0,0,1-.634-.225,2.689,2.689,0,0,0,1.644,2.15l.633.22A2.683,2.683,0,0,1,4202.96,13553.626Z" transform="translate(-4202.25 -13548.045)" fill="#ffbc4d"/>
        <path id="Path_14148" data-name="Path 14148" d="M4209.231,13546.343l.015-.036a5.1,5.1,0,0,0,.406-2.1c0,.056,0,.109,0,.165,0-.015,0-.028,0-.042,0-.044,0-.088,0-.133-.06-2.052-1.452-3.327-3.109-2.853a4.676,4.676,0,0,0-2.894,4.574c0,.039,0,.079.006.119v.03a2.9,2.9,0,0,0,1.59,2.636l.012,0,.041.016.033.014.018.006a2.266,2.266,0,0,0,1.412.026,4.14,4.14,0,0,0,2.472-2.42Z" transform="translate(-4203.012 -13541.027)" fill="#ffd244"/>
        <g id="Group_13658" data-name="Group 13658" transform="translate(2.019 0.22)">
          <path id="Path_14149" data-name="Path 14149" d="M4217.865,13548.258c0,.035,0,.07,0,.105C4217.866,13548.328,4217.866,13548.293,4217.865,13548.258Z" transform="translate(-4213.242 -13545.295)" fill="#fff6cf"/>
          <path id="Path_14150" data-name="Path 14150" d="M4211.549,13544.314c0,.02,0,.039,0,.06,0-.015,0-.028,0-.042,0-.044,0-.088,0-.133-.061-2.052-1.452-3.327-3.11-2.853a3.458,3.458,0,0,0-1.509.951,3.376,3.376,0,0,1,1.392-.834c1.658-.476,3.05.8,3.11,2.853,0,.044,0,.089,0,.133,0,.015,0,.028,0,.041v-.059c0-.034,0-.069,0-.1,0,.035,0,.07,0,.1a5.125,5.125,0,0,1-.406,1.992l-.016.037,0,.009a4.958,4.958,0,0,1-.958,1.465,4.891,4.891,0,0,0,1.076-1.582l0-.01.016-.036A5.142,5.142,0,0,0,4211.549,13544.314Z" transform="translate(-4206.925 -13541.248)" fill="#fff6cf"/>
        </g>
        <path id="Path_14151" data-name="Path 14151" d="M4206.9,13549.589a2.269,2.269,0,0,1-1.41-.025l-.019-.007-.033-.014-.041-.016-.011,0a2.9,2.9,0,0,1-1.591-2.637v-.03c0-.04,0-.08-.005-.119a5.1,5.1,0,0,1,1.645-3.872,5.065,5.065,0,0,0-1.786,3.988c0,.041,0,.081.006.12v.031a2.9,2.9,0,0,0,1.59,2.636l.012,0,.041.017.033.011.018.007a2.266,2.266,0,0,0,1.412.026,3.287,3.287,0,0,0,1.245-.7A3.241,3.241,0,0,1,4206.9,13549.589Z" transform="translate(-4203.012 -13541.961)" fill="#ffae29"/>
        <path id="Path_14152" data-name="Path 14152" d="M4207.742,13543.4c1.277-.367,2.349.616,2.4,2.2a3.6,3.6,0,0,1-2.229,3.521c-1.276.366-2.348-.617-2.394-2.2A3.6,3.6,0,0,1,4207.742,13543.4Z" transform="translate(-4204.091 -13542.225)" fill="#ffbc4d"/>
        <path id="Path_14153" data-name="Path 14153" d="M4211.577,13545.595c-.046-1.58-1.118-2.563-2.395-2.2a2.661,2.661,0,0,0-1.176.746,2.607,2.607,0,0,1,1.059-.63c1.277-.365,2.349.618,2.4,2.2a3.967,3.967,0,0,1-1.052,2.775A3.946,3.946,0,0,0,4211.577,13545.595Z" transform="translate(-4205.53 -13542.225)" fill="#ffae29"/>
        <g id="Group_13659" data-name="Group 13659" transform="translate(0.639 5.036)">
          <path id="Path_14154" data-name="Path 14154" d="M4203.659,13552.651v0Z" transform="translate(-4203.659 -13552.643)" fill="#ffd244"/>
        </g>
        <g id="Group_13660" data-name="Group 13660" transform="translate(0.632 4.882)">
          <path id="Path_14155" data-name="Path 14155" d="M4203.649,13552.435c0-.052,0-.1-.007-.154C4203.645,13552.332,4203.646,13552.383,4203.649,13552.435Z" transform="translate(-4203.643 -13552.28)" fill="#ffd244"/>
        </g>
        <g id="Group_13661" data-name="Group 13661" transform="translate(2.839 1.676)">
          <path id="Path_14156" data-name="Path 14156" d="M4210.006,13546.7c.39.079.863.135.881.867a1.376,1.376,0,0,1-.825,1.327l.006.242a.294.294,0,0,1-.183.287c-.105.03-.192-.051-.2-.18l-.007-.249a.785.785,0,0,1-.729-.262.439.439,0,0,1,.068-.546l.02-.021a.321.321,0,0,1,.139-.086.216.216,0,0,1,.225.063.376.376,0,0,0,.259.126l-.023-.924a.81.81,0,0,1-.776-.866,1.339,1.339,0,0,1,.722-1.252l-.006-.237a.294.294,0,0,1,.183-.288c.105-.029.192.051.2.181l.006.232a.72.72,0,0,1,.629.2.43.43,0,0,1-.051.562.332.332,0,0,1-.144.091.206.206,0,0,1-.207-.051.305.305,0,0,0-.209-.093Zm.038,1.478a.486.486,0,0,0,.259-.441c0-.183-.1-.258-.278-.31l.019.751Zm-.422-1.592-.016-.631a.458.458,0,0,0-.161.365.274.274,0,0,0,.177.266Z" transform="translate(-4208.865 -13544.692)" fill="#e39729"/>
        </g>
      </g>
      <g id="Group_13680" data-name="Group 13680" transform="translate(0 8.71)">
        <g id="Group_13666" data-name="Group 13666" transform="translate(0 3.965)">
          <g id="Group_13663" data-name="Group 13663" transform="translate(0 2.218)">
            <path id="Path_14157" data-name="Path 14157" d="M4176.955,13558.793a1.927,1.927,0,0,1-1.137-1.588l0,.9a1.927,1.927,0,0,0,1.137,1.588c.014.01.03.016.044.025v-.9Z" transform="translate(-4175.815 -13557.205)" fill="#fca629"/>
            <path id="Path_14158" data-name="Path 14158" d="M4179.164,13561.275a4.142,4.142,0,0,1-.554-.258v.9a4.325,4.325,0,0,0,.545.254C4179.153,13561.873,4179.163,13561.576,4179.164,13561.275Z" transform="translate(-4177.43 -13559.406)" fill="#ffb131"/>
            <path id="Path_14159" data-name="Path 14159" d="M4179.909,13561.629c0,.3-.011.6-.009.895a6.319,6.319,0,0,0,4.055.076v-.895A6.317,6.317,0,0,1,4179.909,13561.629Z" transform="translate(-4178.174 -13559.76)" fill="#ffbc4d"/>
            <path id="Path_14160" data-name="Path 14160" d="M4190.33,13560.915l-.033.02a4.3,4.3,0,0,1-.8.357v.9a4.329,4.329,0,0,0,.8-.355l.054-.032C4190.328,13561.5,4190.328,13561.212,4190.33,13560.915Z" transform="translate(-4183.715 -13559.348)" fill="#ffb131"/>
            <path id="Path_14161" data-name="Path 14161" d="M4191.47,13558.8c0,.3,0,.589.017.885a1.883,1.883,0,0,0,1.065-1.533l0-.9A1.892,1.892,0,0,1,4191.47,13558.8Z" transform="translate(-4184.855 -13557.234)" fill="#fca629"/>
          </g>
          <g id="Group_13664" data-name="Group 13664" transform="translate(0.001)">
            <path id="Path_14162" data-name="Path 14162" d="M4182.38,13552.607c1.508.871,1.516,2.283.018,3.154a6.006,6.006,0,0,1-5.442,0c-1.508-.871-1.516-2.283-.018-3.154A6.007,6.007,0,0,1,4182.38,13552.607Z" transform="translate(-4175.819 -13551.955)" fill="#ffd244"/>
          </g>
          <path id="Path_14163" data-name="Path 14163" d="M4176.937,13552.828a6,6,0,0,1,5.443,0,2,2,0,0,1,1.131,1.473,1.867,1.867,0,0,0-1.131-1.693,6.007,6.007,0,0,0-5.443,0,1.85,1.85,0,0,0-1.114,1.68A1.978,1.978,0,0,1,4176.937,13552.828Z" transform="translate(-4175.817 -13551.955)" fill="#fff6cf"/>
          <path id="Path_14164" data-name="Path 14164" d="M4182.4,13558.462a6,6,0,0,1-5.442,0,1.986,1.986,0,0,1-1.132-1.486,1.873,1.873,0,0,0,1.132,1.685,5.994,5.994,0,0,0,5.442,0,1.856,1.856,0,0,0,1.115-1.667A1.968,1.968,0,0,1,4182.4,13558.462Z" transform="translate(-4175.817 -13554.854)" fill="#ffae29"/>
          <g id="Group_13665" data-name="Group 13665" transform="translate(0.886 0.451)">
            <path id="Path_14165" data-name="Path 14165" d="M4182.966,13553.527a1.283,1.283,0,0,1,.014,2.428,4.617,4.617,0,0,1-4.192,0,1.283,1.283,0,0,1-.013-2.428A4.616,4.616,0,0,1,4182.966,13553.527Z" transform="translate(-4177.913 -13553.024)" fill="#ffbc4d"/>
          </g>
          <path id="Path_14166" data-name="Path 14166" d="M4178.774,13553.747a4.622,4.622,0,0,1,4.191,0,1.554,1.554,0,0,1,.869,1.11,1.425,1.425,0,0,0-.869-1.33,4.616,4.616,0,0,0-4.191,0,1.412,1.412,0,0,0-.855,1.317A1.537,1.537,0,0,1,4178.774,13553.747Z" transform="translate(-4177.027 -13552.573)" fill="#ffae29"/>
        </g>
        <g id="Group_13670" data-name="Group 13670" transform="translate(0 2.626)">
          <g id="Group_13667" data-name="Group 13667" transform="translate(0 2.218)">
            <path id="Path_14167" data-name="Path 14167" d="M4176.955,13555.621a1.927,1.927,0,0,1-1.137-1.586l0,.9a1.93,1.93,0,0,0,1.137,1.588c.014.008.03.016.044.025v-.9A.223.223,0,0,1,4176.955,13555.621Z" transform="translate(-4175.815 -13554.035)" fill="#fca629"/>
            <path id="Path_14168" data-name="Path 14168" d="M4179.164,13558.1a4.027,4.027,0,0,1-.554-.259v.9a4.329,4.329,0,0,0,.545.255C4179.153,13558.7,4179.163,13558.4,4179.164,13558.1Z" transform="translate(-4177.43 -13556.234)" fill="#ffb131"/>
            <path id="Path_14169" data-name="Path 14169" d="M4179.909,13558.457c0,.3-.011.6-.009.9a6.332,6.332,0,0,0,4.055.076v-.9A6.317,6.317,0,0,1,4179.909,13558.457Z" transform="translate(-4178.174 -13556.588)" fill="#ffbc4d"/>
            <path id="Path_14170" data-name="Path 14170" d="M4190.33,13557.745l-.033.02a4.3,4.3,0,0,1-.8.356v.9a4.262,4.262,0,0,0,.8-.354l.054-.032C4190.328,13558.334,4190.328,13558.041,4190.33,13557.745Z" transform="translate(-4183.715 -13556.177)" fill="#ffb131"/>
            <path id="Path_14171" data-name="Path 14171" d="M4191.47,13555.632c0,.3,0,.589.017.885a1.882,1.882,0,0,0,1.065-1.533l0-.9A1.892,1.892,0,0,1,4191.47,13555.632Z" transform="translate(-4184.855 -13554.063)" fill="#fca629"/>
          </g>
          <g id="Group_13668" data-name="Group 13668" transform="translate(0.001)">
            <path id="Path_14172" data-name="Path 14172" d="M4182.38,13549.438c1.508.871,1.516,2.283.018,3.152a5.994,5.994,0,0,1-5.442,0c-1.508-.869-1.516-2.281-.018-3.152A6,6,0,0,1,4182.38,13549.438Z" transform="translate(-4175.819 -13548.784)" fill="#ffd244"/>
          </g>
          <path id="Path_14173" data-name="Path 14173" d="M4176.937,13549.656a6.007,6.007,0,0,1,5.443,0,2,2,0,0,1,1.131,1.473,1.865,1.865,0,0,0-1.131-1.691,6,6,0,0,0-5.443,0,1.848,1.848,0,0,0-1.114,1.68A1.978,1.978,0,0,1,4176.937,13549.656Z" transform="translate(-4175.817 -13548.784)" fill="#fff6cf"/>
          <path id="Path_14174" data-name="Path 14174" d="M4182.4,13555.291a6,6,0,0,1-5.442,0,1.987,1.987,0,0,1-1.132-1.486,1.871,1.871,0,0,0,1.132,1.684,5.994,5.994,0,0,0,5.442,0,1.855,1.855,0,0,0,1.115-1.667A1.968,1.968,0,0,1,4182.4,13555.291Z" transform="translate(-4175.817 -13551.684)" fill="#ffae29"/>
          <g id="Group_13669" data-name="Group 13669" transform="translate(0.886 0.452)">
            <path id="Path_14175" data-name="Path 14175" d="M4182.966,13550.357a1.283,1.283,0,0,1,.014,2.428,4.617,4.617,0,0,1-4.192,0,1.283,1.283,0,0,1-.013-2.428A4.616,4.616,0,0,1,4182.966,13550.357Z" transform="translate(-4177.913 -13549.854)" fill="#ffbc4d"/>
          </g>
          <path id="Path_14176" data-name="Path 14176" d="M4178.774,13550.577a4.616,4.616,0,0,1,4.191,0,1.551,1.551,0,0,1,.869,1.11,1.424,1.424,0,0,0-.869-1.33,4.616,4.616,0,0,0-4.191,0,1.412,1.412,0,0,0-.855,1.317A1.535,1.535,0,0,1,4178.774,13550.577Z" transform="translate(-4177.027 -13549.402)" fill="#ffae29"/>
        </g>
        <g id="Group_13674" data-name="Group 13674" transform="translate(0 1.333)">
          <g id="Group_13671" data-name="Group 13671" transform="translate(0 2.218)">
            <path id="Path_14177" data-name="Path 14177" d="M4176.955,13552.563a1.927,1.927,0,0,1-1.137-1.588l0,.9a1.927,1.927,0,0,0,1.137,1.588c.014.008.03.016.044.025v-.9Z" transform="translate(-4175.815 -13550.975)" fill="#fca629"/>
            <path id="Path_14178" data-name="Path 14178" d="M4179.164,13555.045a4.142,4.142,0,0,1-.554-.258v.9a4.609,4.609,0,0,0,.545.252C4179.153,13555.645,4179.163,13555.346,4179.164,13555.045Z" transform="translate(-4177.43 -13553.176)" fill="#ffb131"/>
            <path id="Path_14179" data-name="Path 14179" d="M4179.909,13555.4c0,.3-.011.6-.009.895a6.306,6.306,0,0,0,4.055.078v-.9A6.317,6.317,0,0,1,4179.909,13555.4Z" transform="translate(-4178.174 -13553.528)" fill="#ffbc4d"/>
            <path id="Path_14180" data-name="Path 14180" d="M4190.33,13554.686l-.033.02a4.362,4.362,0,0,1-.8.357v.9a4.264,4.264,0,0,0,.8-.355l.054-.032C4190.328,13555.274,4190.328,13554.981,4190.33,13554.686Z" transform="translate(-4183.715 -13553.117)" fill="#ffb131"/>
            <path id="Path_14181" data-name="Path 14181" d="M4191.47,13552.573c0,.3,0,.589.017.885a1.882,1.882,0,0,0,1.065-1.533l0-.9A1.893,1.893,0,0,1,4191.47,13552.573Z" transform="translate(-4184.855 -13551.005)" fill="#fca629"/>
          </g>
          <g id="Group_13672" data-name="Group 13672" transform="translate(0.001)">
            <path id="Path_14182" data-name="Path 14182" d="M4182.38,13546.377c1.508.871,1.516,2.283.018,3.154a6.006,6.006,0,0,1-5.442,0c-1.508-.871-1.516-2.283-.018-3.154A6.007,6.007,0,0,1,4182.38,13546.377Z" transform="translate(-4175.819 -13545.725)" fill="#ffd244"/>
          </g>
          <path id="Path_14183" data-name="Path 14183" d="M4176.937,13546.6a6,6,0,0,1,5.443,0,1.994,1.994,0,0,1,1.131,1.473,1.867,1.867,0,0,0-1.131-1.693,6.007,6.007,0,0,0-5.443,0,1.852,1.852,0,0,0-1.114,1.68A1.978,1.978,0,0,1,4176.937,13546.6Z" transform="translate(-4175.817 -13545.725)" fill="#fff6cf"/>
          <path id="Path_14184" data-name="Path 14184" d="M4182.4,13552.232a5.994,5.994,0,0,1-5.442,0,1.983,1.983,0,0,1-1.132-1.486,1.875,1.875,0,0,0,1.132,1.686,6.006,6.006,0,0,0,5.442,0,1.858,1.858,0,0,0,1.115-1.668A1.97,1.97,0,0,1,4182.4,13552.232Z" transform="translate(-4175.817 -13548.625)" fill="#ffae29"/>
          <g id="Group_13673" data-name="Group 13673" transform="translate(0.886 0.452)">
            <path id="Path_14185" data-name="Path 14185" d="M4182.966,13547.3a1.283,1.283,0,0,1,.014,2.429,4.626,4.626,0,0,1-4.192,0,1.283,1.283,0,0,1-.013-2.429A4.622,4.622,0,0,1,4182.966,13547.3Z" transform="translate(-4177.913 -13546.795)" fill="#ffbc4d"/>
          </g>
          <path id="Path_14186" data-name="Path 14186" d="M4178.774,13547.517a4.622,4.622,0,0,1,4.191,0,1.556,1.556,0,0,1,.869,1.11,1.422,1.422,0,0,0-.869-1.329,4.622,4.622,0,0,0-4.191,0,1.412,1.412,0,0,0-.855,1.317A1.538,1.538,0,0,1,4178.774,13547.517Z" transform="translate(-4177.027 -13546.343)" fill="#ffae29"/>
        </g>
        <g id="Group_13679" data-name="Group 13679">
          <g id="Group_13675" data-name="Group 13675" transform="translate(0 2.218)">
            <path id="Path_14187" data-name="Path 14187" d="M4176.955,13549.407a1.926,1.926,0,0,1-1.137-1.587l0,.9a1.927,1.927,0,0,0,1.137,1.588l.044.024v-.9C4176.983,13549.423,4176.968,13549.415,4176.955,13549.407Z" transform="translate(-4175.815 -13547.82)" fill="#fca629"/>
            <path id="Path_14188" data-name="Path 14188" d="M4179.164,13551.891a4.267,4.267,0,0,1-.554-.258v.9a4.072,4.072,0,0,0,.545.255C4179.153,13552.488,4179.163,13552.19,4179.164,13551.891Z" transform="translate(-4177.43 -13550.021)" fill="#ffb131"/>
            <path id="Path_14189" data-name="Path 14189" d="M4179.909,13552.244c0,.3-.011.6-.009.895a6.326,6.326,0,0,0,4.055.077v-.9A6.324,6.324,0,0,1,4179.909,13552.244Z" transform="translate(-4178.174 -13550.375)" fill="#ffbc4d"/>
            <path id="Path_14190" data-name="Path 14190" d="M4190.33,13551.532l-.033.02a4.359,4.359,0,0,1-.8.356v.9a4.267,4.267,0,0,0,.8-.356l.054-.032C4190.328,13552.12,4190.328,13551.828,4190.33,13551.532Z" transform="translate(-4183.715 -13549.964)" fill="#ffb131"/>
            <path id="Path_14191" data-name="Path 14191" d="M4191.47,13549.419c0,.3,0,.589.017.885a1.885,1.885,0,0,0,1.065-1.534l0-.9A1.894,1.894,0,0,1,4191.47,13549.419Z" transform="translate(-4184.855 -13547.851)" fill="#fca629"/>
          </g>
          <g id="Group_13676" data-name="Group 13676" transform="translate(0.001)">
            <path id="Path_14192" data-name="Path 14192" d="M4182.38,13543.223c1.508.871,1.516,2.282.018,3.153a6,6,0,0,1-5.442,0c-1.508-.871-1.516-2.282-.018-3.153A6,6,0,0,1,4182.38,13543.223Z" transform="translate(-4175.819 -13542.569)" fill="#ffd244"/>
          </g>
          <path id="Path_14193" data-name="Path 14193" d="M4176.937,13543.443a6,6,0,0,1,5.443,0,1.992,1.992,0,0,1,1.131,1.473,1.867,1.867,0,0,0-1.131-1.693,6,6,0,0,0-5.443,0,1.851,1.851,0,0,0-1.114,1.681A1.972,1.972,0,0,1,4176.937,13543.443Z" transform="translate(-4175.817 -13542.569)" fill="#fff6cf"/>
          <path id="Path_14194" data-name="Path 14194" d="M4182.4,13549.077a6,6,0,0,1-5.442,0,1.984,1.984,0,0,1-1.132-1.486,1.873,1.873,0,0,0,1.132,1.685,6,6,0,0,0,5.442,0,1.857,1.857,0,0,0,1.115-1.667A1.968,1.968,0,0,1,4182.4,13549.077Z" transform="translate(-4175.817 -13545.47)" fill="#ffae29"/>
          <g id="Group_13677" data-name="Group 13677" transform="translate(0.886 0.452)">
            <path id="Path_14195" data-name="Path 14195" d="M4182.966,13544.143a1.283,1.283,0,0,1,.014,2.428,4.623,4.623,0,0,1-4.192,0,1.283,1.283,0,0,1-.013-2.428A4.622,4.622,0,0,1,4182.966,13544.143Z" transform="translate(-4177.913 -13543.641)" fill="#ffbc4d"/>
          </g>
          <path id="Path_14196" data-name="Path 14196" d="M4178.774,13544.363a4.61,4.61,0,0,1,4.191,0,1.551,1.551,0,0,1,.869,1.109,1.425,1.425,0,0,0-.869-1.33,4.622,4.622,0,0,0-4.191,0,1.411,1.411,0,0,0-.855,1.318A1.534,1.534,0,0,1,4178.774,13544.363Z" transform="translate(-4177.027 -13543.188)" fill="#ffae29"/>
          <g id="Group_13678" data-name="Group 13678" transform="translate(1.997 1.119)">
            <path id="Path_14197" data-name="Path 14197" d="M4182.8,13546.23c.212.281.5.605-.034.916a1.752,1.752,0,0,1-1.569.016l-.177.1a.38.38,0,0,1-.343,0,.105.105,0,0,1,0-.2l.182-.1a.619.619,0,0,1-.312-.574c.021-.129.241-.215.455-.18l.029,0a.5.5,0,0,1,.161.053.183.183,0,0,1,.11.172.268.268,0,0,0,.086.217l.675-.393c-.2-.271-.365-.576.108-.85a1.686,1.686,0,0,1,1.44-.049l.173-.1a.381.381,0,0,1,.344,0,.105.105,0,0,1,0,.2l-.169.1a.588.588,0,0,1,.288.486c-.007.135-.23.23-.457.2a.458.458,0,0,1-.167-.057.176.176,0,0,1-.106-.152.222.222,0,0,0-.077-.172Zm-1.08.627a.611.611,0,0,0,.511-.014c.134-.078.122-.174.038-.3l-.548.318Zm.9-.92.461-.268a.552.552,0,0,0-.386.045.156.156,0,0,0-.075.223Z" transform="translate(-4180.542 -13545.219)" fill="#e39729"/>
          </g>
        </g>
      </g>
      <g id="Group_13691" data-name="Group 13691" transform="translate(6.18 13.515)">
        <g id="Group_13685" data-name="Group 13685" transform="translate(0 1.345)">
          <g id="Group_13681" data-name="Group 13681" transform="translate(0 2.28)">
            <path id="Path_14198" data-name="Path 14198" d="M4206.339,13564.152a1.978,1.978,0,0,0,1.167-1.631l0,.923a1.98,1.98,0,0,1-1.167,1.63c-.015.009-.031.017-.046.026v-.924Z" transform="translate(-4199.597 -13562.521)" fill="#fca629"/>
            <path id="Path_14199" data-name="Path 14199" d="M4204.949,13566.706a4.341,4.341,0,0,0,.569-.267v.923a4.366,4.366,0,0,1-.56.263C4204.961,13567.319,4204.951,13567.013,4204.949,13566.706Z" transform="translate(-4198.819 -13564.784)" fill="#ffb131"/>
            <path id="Path_14200" data-name="Path 14200" d="M4199.268,13567.068c0,.307.011.613.009.919a6.493,6.493,0,0,1-4.166.078v-.921A6.492,6.492,0,0,0,4199.268,13567.068Z" transform="translate(-4193.138 -13565.147)" fill="#ffbc4d"/>
            <path id="Path_14201" data-name="Path 14201" d="M4193.058,13566.334l.033.02a4.455,4.455,0,0,0,.824.367v.92a4.356,4.356,0,0,1-.821-.364l-.055-.033C4193.059,13566.939,4193.059,13566.639,4193.058,13566.334Z" transform="translate(-4191.942 -13564.724)" fill="#ffb131"/>
            <path id="Path_14202" data-name="Path 14202" d="M4191.558,13564.164c0,.3,0,.605-.019.909a1.933,1.933,0,0,1-1.094-1.576l0-.922A1.946,1.946,0,0,0,4191.558,13564.164Z" transform="translate(-4190.442 -13562.553)" fill="#fca629"/>
          </g>
          <g id="Group_13682" data-name="Group 13682" transform="translate(0.001)">
            <path id="Path_14203" data-name="Path 14203" d="M4191.612,13557.8c-1.549.895-1.558,2.346-.018,3.24a6.163,6.163,0,0,0,5.593,0c1.549-.895,1.557-2.346.018-3.24A6.169,6.169,0,0,0,4191.612,13557.8Z" transform="translate(-4190.445 -13557.128)" fill="#ffd244"/>
          </g>
          <path id="Path_14204" data-name="Path 14204" d="M4197.206,13558.024a6.164,6.164,0,0,0-5.593,0,2.049,2.049,0,0,0-1.163,1.513,1.922,1.922,0,0,1,1.163-1.739,6.17,6.17,0,0,1,5.593,0,1.9,1.9,0,0,1,1.144,1.727A2.027,2.027,0,0,0,4197.206,13558.024Z" transform="translate(-4190.444 -13557.128)" fill="#fff6cf"/>
          <path id="Path_14205" data-name="Path 14205" d="M4191.6,13563.813a6.159,6.159,0,0,0,5.592,0,2.038,2.038,0,0,0,1.164-1.526,1.924,1.924,0,0,1-1.164,1.73,6.162,6.162,0,0,1-5.592,0,1.9,1.9,0,0,1-1.145-1.712A2.02,2.02,0,0,0,4191.6,13563.813Z" transform="translate(-4190.444 -13560.106)" fill="#ffae29"/>
          <g id="Group_13683" data-name="Group 13683" transform="translate(0.911 0.465)">
            <path id="Path_14206" data-name="Path 14206" d="M4193.5,13558.743a1.318,1.318,0,0,0-.014,2.494,4.736,4.736,0,0,0,4.307,0,1.318,1.318,0,0,0,.015-2.494A4.749,4.749,0,0,0,4193.5,13558.743Z" transform="translate(-4192.597 -13558.227)" fill="#ffbc4d"/>
          </g>
          <path id="Path_14207" data-name="Path 14207" d="M4197.8,13558.969a4.743,4.743,0,0,0-4.307,0,1.6,1.6,0,0,0-.893,1.141,1.464,1.464,0,0,1,.893-1.366,4.749,4.749,0,0,1,4.307,0,1.451,1.451,0,0,1,.878,1.354A1.58,1.58,0,0,0,4197.8,13558.969Z" transform="translate(-4191.687 -13557.762)" fill="#ffae29"/>
          <g id="Group_13684" data-name="Group 13684" transform="translate(2.079 1.176)">
            <path id="Path_14208" data-name="Path 14208" d="M4197.111,13561.824a.228.228,0,0,1,.1-.1.58.58,0,0,1,.3-.063,1.115,1.115,0,0,0,.386-.052l-.694-.4a1.967,1.967,0,0,1-1.508-.067c-.452-.263-.394-.6-.082-.858l-.178-.1a.109.109,0,0,1,0-.205.4.4,0,0,1,.354,0l.173.1a2.029,2.029,0,0,1,.863-.169c.24,0,.409.138.348.271a.233.233,0,0,1-.1.1.531.531,0,0,1-.271.063.9.9,0,0,0-.306.045l.655.381a2.079,2.079,0,0,1,1.626.023c.475.275.422.638.021.934l.182.105a.109.109,0,0,1,0,.205.391.391,0,0,1-.353,0l-.187-.108a2.214,2.214,0,0,1-1.02.184c-.227-.013-.375-.144-.316-.271Zm1.149-.409c.136-.125.1-.233-.024-.3a.752.752,0,0,0-.54-.022l.564.327Zm-2.1-.812c-.056.086-.025.168.082.229a.594.594,0,0,0,.391.046l-.473-.275Z" transform="translate(-4195.361 -13559.91)" fill="#e39729"/>
          </g>
        </g>
        <g id="Group_13690" data-name="Group 13690">
          <g id="Group_13686" data-name="Group 13686" transform="translate(0 2.279)">
            <path id="Path_14209" data-name="Path 14209" d="M4206.339,13560.969a1.979,1.979,0,0,0,1.167-1.631l0,.921a1.982,1.982,0,0,1-1.167,1.632l-.046.025v-.923Z" transform="translate(-4199.597 -13559.338)" fill="#fca629"/>
            <path id="Path_14210" data-name="Path 14210" d="M4204.949,13563.521a4.334,4.334,0,0,0,.569-.265v.922a4.114,4.114,0,0,1-.56.262C4204.961,13564.136,4204.951,13563.828,4204.949,13563.521Z" transform="translate(-4198.819 -13561.601)" fill="#ffb131"/>
            <path id="Path_14211" data-name="Path 14211" d="M4199.268,13563.883c0,.308.011.614.009.92a6.5,6.5,0,0,1-4.166.078v-.92A6.492,6.492,0,0,0,4199.268,13563.883Z" transform="translate(-4193.138 -13561.963)" fill="#ffbc4d"/>
            <path id="Path_14212" data-name="Path 14212" d="M4193.058,13563.15l.033.02a4.455,4.455,0,0,0,.824.367v.921a4.489,4.489,0,0,1-.821-.366l-.055-.032C4193.059,13563.756,4193.059,13563.455,4193.058,13563.15Z" transform="translate(-4191.942 -13561.539)" fill="#ffb131"/>
            <path id="Path_14213" data-name="Path 14213" d="M4191.558,13560.979c0,.3,0,.605-.019.909a1.933,1.933,0,0,1-1.094-1.575l0-.922A1.944,1.944,0,0,0,4191.558,13560.979Z" transform="translate(-4190.442 -13559.369)" fill="#fca629"/>
          </g>
          <g id="Group_13687" data-name="Group 13687" transform="translate(0.001)">
            <path id="Path_14214" data-name="Path 14214" d="M4191.612,13554.614c-1.549.895-1.558,2.346-.018,3.24a6.163,6.163,0,0,0,5.593,0c1.549-.895,1.557-2.346.018-3.24A6.169,6.169,0,0,0,4191.612,13554.614Z" transform="translate(-4190.445 -13553.944)" fill="#ffd244"/>
          </g>
          <path id="Path_14215" data-name="Path 14215" d="M4197.206,13554.841a6.164,6.164,0,0,0-5.593,0,2.049,2.049,0,0,0-1.163,1.513,1.922,1.922,0,0,1,1.163-1.739,6.17,6.17,0,0,1,5.593,0,1.9,1.9,0,0,1,1.144,1.727A2.027,2.027,0,0,0,4197.206,13554.841Z" transform="translate(-4190.444 -13553.944)" fill="#fff6cf"/>
          <path id="Path_14216" data-name="Path 14216" d="M4191.6,13560.629a6.162,6.162,0,0,0,5.592,0,2.041,2.041,0,0,0,1.164-1.527,1.924,1.924,0,0,1-1.164,1.731,6.162,6.162,0,0,1-5.592,0,1.908,1.908,0,0,1-1.145-1.713A2.02,2.02,0,0,0,4191.6,13560.629Z" transform="translate(-4190.444 -13556.922)" fill="#ffae29"/>
          <g id="Group_13688" data-name="Group 13688" transform="translate(0.911 0.464)">
            <path id="Path_14217" data-name="Path 14217" d="M4193.5,13555.558a1.319,1.319,0,0,0-.014,2.5,4.748,4.748,0,0,0,4.307,0,1.319,1.319,0,0,0,.015-2.5A4.749,4.749,0,0,0,4193.5,13555.558Z" transform="translate(-4192.597 -13555.041)" fill="#ffbc4d"/>
          </g>
          <path id="Path_14218" data-name="Path 14218" d="M4197.8,13555.785a4.737,4.737,0,0,0-4.307,0,1.591,1.591,0,0,0-.893,1.14,1.466,1.466,0,0,1,.893-1.367,4.749,4.749,0,0,1,4.307,0,1.452,1.452,0,0,1,.878,1.354A1.579,1.579,0,0,0,4197.8,13555.785Z" transform="translate(-4191.687 -13554.577)" fill="#ffae29"/>
          <g id="Group_13689" data-name="Group 13689" transform="translate(2.079 1.175)">
            <path id="Path_14219" data-name="Path 14219" d="M4197.111,13558.641a.232.232,0,0,1,.1-.1.621.621,0,0,1,.3-.064,1.113,1.113,0,0,0,.386-.049l-.694-.4a1.967,1.967,0,0,1-1.508-.068c-.452-.262-.394-.6-.082-.855l-.178-.1c-.1-.057-.1-.146,0-.205a.4.4,0,0,1,.354,0l.173.1a2.015,2.015,0,0,1,.863-.17c.24.006.409.139.348.273a.237.237,0,0,1-.1.1.552.552,0,0,1-.271.063.922.922,0,0,0-.306.045l.655.381a2.074,2.074,0,0,1,1.626.023c.475.275.422.639.021.934l.182.105a.109.109,0,0,1,0,.205.388.388,0,0,1-.353,0l-.187-.109a2.215,2.215,0,0,1-1.02.186c-.227-.014-.375-.145-.316-.273Zm1.149-.41c.136-.125.1-.232-.024-.3a.756.756,0,0,0-.54-.023l.564.328Zm-2.1-.812c-.056.086-.025.168.082.23a.577.577,0,0,0,.391.045l-.473-.275Z" transform="translate(-4195.361 -13556.725)" fill="#e39729"/>
          </g>
        </g>
      </g>
    </g>
  </g>
</svg>
