<?xml version="1.0" standalone="no"?>
<!DOCTYPE svg PUBLIC "-//W3C//DTD SVG 1.1//EN" "http://www.w3.org/Graphics/SVG/1.1/DTD/svg11.dtd" >
<svg xmlns="http://www.w3.org/2000/svg">
<metadata>Generated by IcoMoon</metadata>
<defs>
<font id="icomoon" horiz-adv-x="1024">
<font-face units-per-em="1024" ascent="960" descent="-64" />
<missing-glyph horiz-adv-x="1024" />
<glyph unicode="&#x20;" horiz-adv-x="512" d="" />
<glyph unicode="&#xe900;" glyph-name="basic-information-left-menu" horiz-adv-x="838" d="M781.673 844.047h-30.118v-735.533c-0.034-48.955-39.711-88.632-88.663-88.666h-544.35v-27.287c0-31.238 25.323-56.561 56.561-56.561v0h606.509c31.238 0 56.561 25.323 56.561 56.561v0 795.106c-0.069 31.153-25.338 56.38-56.501 56.38 0 0 0 0 0 0v0zM359.725 51.953h303.224c31.238 0 56.561 25.323 56.561 56.561v0 794.925c0 31.238-25.323 56.561-56.561 56.561v0h-403.938v-18.733c0.192-1.724 0.302-3.723 0.302-5.748 0-0.097 0-0.194-0.001-0.291v0.015-154.865c-0.205-43.89-35.832-79.39-79.751-79.39-0.021 0-0.043 0-0.064 0h-154.922c-1.626 0-3.313 0-4.939 0h-19.637v-592.354c0-31.238 25.323-56.561 56.561-56.561v0h303.164zM371.17 244.224h-197.752c-14.771 0-26.744 11.974-26.744 26.744s11.974 26.744 26.744 26.744h197.813c14.771 0 26.744-11.974 26.744-26.744s-11.974-26.744-26.744-26.744v0zM568.983 380.657h-395.565c-14.771 0-26.744 11.974-26.744 26.744s11.974 26.744 26.744 26.744h395.505c14.771 0 26.744-11.974 26.744-26.744s-11.974-26.744-26.744-26.744v0zM173.417 579.012h395.505c14.771 0 26.744-11.974 26.744-26.744s-11.974-26.744-26.744-26.744h-395.505c-14.771 0-26.744 11.974-26.744 26.744s11.974 26.744 26.744 26.744v0zM24.576 732.672h155.467c25.886 0.236 46.807 21.158 47.044 47.021v155.37c0 13.307-10.787 24.094-24.094 24.094v0c-0.011 0-0.023 0-0.036 0-6.53 0-12.429-2.699-16.644-7.042l-178.664-178.784c-4.089-4.309-6.604-10.146-6.604-16.571 0-13.108 10.468-23.772 23.5-24.087l0.029-0.001z" />
<glyph unicode="&#xe901;" glyph-name="calendor" horiz-adv-x="1007" d="M358.518 396.839c0.146 0.965 0.229 2.078 0.229 3.211 0 12.487-10.123 22.609-22.609 22.609-1.133 0-2.246-0.083-3.334-0.244l0.123 0.015h-85.344c-0.965 0.146-2.078 0.229-3.211 0.229-12.487 0-22.609-10.123-22.609-22.609 0-1.133 0.083-2.246 0.244-3.334l-0.015 0.123v-85.344c-0.146-0.965-0.229-2.078-0.229-3.211 0-12.487 10.123-22.609 22.609-22.609 1.133 0 2.246 0.083 3.334 0.244l-0.123-0.015h85.344c0.965-0.146 2.078-0.229 3.211-0.229 12.487 0 22.609 10.123 22.609 22.609 0 1.133-0.083 2.246-0.244 3.334l0.015-0.123v85.344zM563.326 396.839c0.146 0.965 0.229 2.078 0.229 3.211 0 12.487-10.123 22.609-22.609 22.609-1.133 0-2.246-0.083-3.334-0.244l0.123 0.015h-85.344c-0.965 0.146-2.078 0.229-3.211 0.229-12.487 0-22.609-10.123-22.609-22.609 0-1.133 0.083-2.246 0.244-3.334l-0.015 0.123v-85.344c-0.146-0.965-0.229-2.078-0.229-3.211 0-12.487 10.123-22.609 22.609-22.609 1.133 0 2.246 0.083 3.334 0.244l-0.123-0.015h85.344c0.965-0.146 2.078-0.229 3.211-0.229 12.487 0 22.609 10.123 22.609 22.609 0 1.133-0.083 2.246-0.244 3.334l0.015-0.123zM759.563 396.839c0.146 0.965 0.229 2.078 0.229 3.211 0 12.487-10.123 22.609-22.609 22.609-1.133 0-2.246-0.083-3.334-0.244l0.123 0.015h-85.344c-0.965 0.146-2.078 0.229-3.211 0.229-12.487 0-22.609-10.123-22.609-22.609 0-1.133 0.083-2.246 0.244-3.334l-0.015 0.123v-85.344c-0.146-0.965-0.229-2.078-0.229-3.211 0-12.487 10.123-22.609 22.609-22.609 1.133 0 2.246 0.083 3.334 0.244l-0.123-0.015h85.344c0.965-0.146 2.078-0.229 3.211-0.229 12.487 0 22.609 10.123 22.609 22.609 0 1.133-0.083 2.246-0.244 3.334l0.015-0.123zM358.518 192.031c0.146 0.965 0.229 2.078 0.229 3.211 0 12.487-10.123 22.609-22.609 22.609-1.133 0-2.246-0.083-3.334-0.244l0.123 0.015h-85.344c-0.965 0.146-2.078 0.229-3.211 0.229-12.487 0-22.609-10.123-22.609-22.609 0-1.133 0.083-2.246 0.244-3.334l-0.015 0.123v-85.344c-0.146-0.965-0.229-2.078-0.229-3.211 0-12.487 10.123-22.609 22.609-22.609 1.133 0 2.246 0.083 3.334 0.244l-0.123-0.015h85.344c0.965-0.146 2.078-0.229 3.211-0.229 12.487 0 22.609 10.123 22.609 22.609 0 1.133-0.083 2.246-0.244 3.334l0.015-0.123v85.344zM563.326 192.031c0.146 0.965 0.229 2.078 0.229 3.211 0 12.487-10.123 22.609-22.609 22.609-1.133 0-2.246-0.083-3.334-0.244l0.123 0.015h-85.344c-0.965 0.146-2.078 0.229-3.211 0.229-12.487 0-22.609-10.123-22.609-22.609 0-1.133 0.083-2.246 0.244-3.334l-0.015 0.123v-85.344c-0.146-0.965-0.229-2.078-0.229-3.211 0-12.487 10.123-22.609 22.609-22.609 1.133 0 2.246 0.083 3.334 0.244l-0.123-0.015h85.344c0.965-0.146 2.078-0.229 3.211-0.229 12.487 0 22.609 10.123 22.609 22.609 0 1.133-0.083 2.246-0.244 3.334l0.015-0.123zM759.563 192.031c0.146 0.965 0.229 2.078 0.229 3.211 0 12.487-10.123 22.609-22.609 22.609-1.133 0-2.246-0.083-3.334-0.244l0.123 0.015h-85.344c-0.965 0.146-2.078 0.229-3.211 0.229-12.487 0-22.609-10.123-22.609-22.609 0-1.133 0.083-2.246 0.244-3.334l-0.015 0.123v-85.344c-0.146-0.965-0.229-2.078-0.229-3.211 0-12.487 10.123-22.609 22.609-22.609 1.133 0 2.246 0.083 3.334 0.244l-0.123-0.015h85.344c0.965-0.146 2.078-0.229 3.211-0.229 12.487 0 22.609 10.123 22.609 22.609 0 1.133-0.083 2.246-0.244 3.334l0.015-0.123v85.344zM904.535 849.066v-127.995c0.049-1.159 0.077-2.519 0.077-3.886 0-54.452-44.142-98.595-98.595-98.595-1.367 0-2.727 0.028-4.080 0.083l0.194-0.006h-59.753c-1.159-0.049-2.519-0.077-3.886-0.077-54.452 0-98.595 44.142-98.595 98.595 0 1.367 0.028 2.727 0.083 4.080l-0.006-0.194v127.995h-290.111v-127.995c0.049-1.159 0.077-2.519 0.077-3.886 0-54.452-44.142-98.595-98.595-98.595-1.367 0-2.727 0.028-4.080 0.083l0.194-0.006h-59.753c-1.159-0.049-2.519-0.077-3.886-0.077-54.452 0-98.595 44.142-98.595 98.595 0 1.367 0.028 2.727 0.083 4.080l-0.006-0.194v127.995c-47.508-1.197-85.563-39.993-85.563-87.678 0-2.18 0.080-4.342 0.236-6.482l-0.017 0.286v-725.318c0.464-51.657 42.217-93.41 93.83-93.874h819.236c51.657 0.464 93.41 42.217 93.874 93.83v725.362c-10.336 49.954-51.18 87.924-101.812 93.822l-0.55 0.052zM878.945 72.525c0.047-0.728 0.074-1.578 0.074-2.434 0-22.252-18.039-40.291-40.291-40.291-0.856 0-1.706 0.027-2.549 0.079l0.115-0.006h-682.708c-0.728-0.047-1.578-0.074-2.434-0.074-22.252 0-40.291 18.039-40.291 40.291 0 0.856 0.027 1.706 0.079 2.549l-0.006-0.115v375.454c-0.047 0.728-0.074 1.578-0.074 2.434 0 22.252 18.039 40.291 40.291 40.291 0.856 0 1.706-0.027 2.549-0.079l-0.115 0.006h682.874c0.728 0.047 1.578 0.074 2.434 0.074 22.252 0 40.291-18.039 40.291-40.291 0-0.856-0.027-1.706-0.079-2.549l0.006 0.115v-375.454zM187.748 686.95h59.753c18.307 1.28 32.841 15.814 34.114 34.005l0.006 0.116v204.808c-1.28 18.307-15.814 32.841-34.005 34.114l-0.116 0.006h-59.753c-18.299-1.298-32.823-15.822-34.114-34.004l-0.007-0.117v-204.808c-0.092-0.9-0.144-1.945-0.144-3.002 0-17.266 13.997-31.264 31.264-31.264 1.057 0 2.102 0.052 3.132 0.155l-0.13-0.010zM742.378 686.95h59.753c18.307 1.28 32.841 15.814 34.114 34.005l0.006 0.116v204.808c-1.28 18.307-15.814 32.841-34.005 34.114l-0.116 0.006h-59.753c-18.299-1.298-32.823-15.822-34.114-34.004l-0.007-0.117v-204.808c1.298-18.299 15.822-32.823 34.004-34.114l0.117-0.007z" />
<glyph unicode="&#xe902;" glyph-name="cancel" d="M624.807 448l382.959 382.959c10.615 10.615 16.442 24.559 16.442 39.545s-5.828 29.138-16.442 39.545l-33.717 33.509c-10.407 10.615-24.559 16.442-39.545 16.442s-29.138-5.828-39.545-16.442l-382.959-382.751-382.959 382.751c-10.407 10.615-24.559 16.442-39.545 16.442s-29.138-5.828-39.545-16.442l-33.509-33.509c-21.854-21.854-21.854-57.444 0-79.089l382.959-382.959-382.959-382.959c-10.615-10.407-16.442-24.559-16.442-39.545s5.828-29.138 16.442-39.545l33.509-33.509c10.615-10.615 24.559-16.442 39.545-16.442s29.138 5.828 39.545 16.442l382.959 382.959 382.959-382.959c10.615-10.615 24.559-16.442 39.545-16.442v0c14.985 0 29.138 5.828 39.545 16.442l33.509 33.509c10.615 10.615 16.442 24.559 16.442 39.545s-5.828 29.138-16.442 39.545l-382.751 382.959z" />
<glyph unicode="&#xe903;" glyph-name="delete" d="M170.667 49.778c0-62.466 51.088-113.778 113.778-113.778h455.111c62.466 0 113.778 51.312 113.778 113.778v682.667h-682.667v-682.667zM910.222 903.111h-199.223l-56.666 56.889h-284.444l-56.889-56.889h-199.223v-113.778h796.444v113.778z" />
<glyph unicode="&#xe904;" glyph-name="delete-blue" d="M512 960c-282.158 0-512-229.842-512-512s229.842-512 512-512 512 229.842 512 512-229.254 512-512 512zM512 23.587c-233.956 0-424.413 190.457-424.413 424.413s190.457 424.413 424.413 424.413 424.413-190.457 424.413-424.413-190.457-424.413-424.413-424.413zM710.099 646.099c-17.047 17.047-44.675 17.047-62.31 0l-135.789-136.377-135.789 136.377c-17.047 17.047-44.675 17.047-62.31 0s-17.047-44.675 0-62.31l136.377-136.377-136.377-136.377c-17.047-17.047-17.047-44.675 0-62.31 8.817-8.817 19.986-12.932 31.155-12.932s22.338 4.115 31.155 12.932l136.377 136.377 136.377-136.377c8.817-8.817 19.986-12.932 31.155-12.932s22.338 4.115 31.155 12.932c17.047 17.047 17.047 44.675 0 62.31l-136.964 136.964 135.789 135.789c17.047 17.047 17.047 45.263 0 62.31z" />
<glyph unicode="&#xe905;" glyph-name="directory" horiz-adv-x="952" d="M89.825 732.444h-77.848v-65.871h77.848v-185.637h-89.825v-65.871h89.825v-185.637h-89.825v-65.871h89.825v-221.567h155.696v1018.012h-155.696v-227.556zM317.38 954.012v-1018.012h634.76v1018.012h-634.76zM634.76 654.596c53.895 0 95.813-41.918 95.813-95.813s-41.918-95.813-95.813-95.813-95.813 41.918-95.813 95.813c0 53.895 41.918 95.813 95.813 95.813 0 0 0 0 0 0zM455.111 241.404c0 101.801 77.848 179.649 179.649 179.649s179.649-77.848 179.649-179.649h-359.298z" />
<glyph unicode="&#xe906;" glyph-name="donate-sponsor" d="M951.718 122.729h-162.635c-102.4 0-186.729 84.329-186.729 186.729s84.329 186.729 186.729 186.729h162.635c12.047 0 24.094 12.047 24.094 24.094v66.259c0 48.188-36.141 90.353-84.329 90.353l-132.518 234.918c-24.094 42.165-84.329 60.235-126.494 36.141 0 0 0 0 0 0l-457.788-265.035h-84.329c-48.188 0-90.353-42.165-90.353-96.376v-560.188c0-48.188 42.165-90.353 90.353-90.353h789.082c54.212 0 90.353 42.165 90.353 90.353v72.282c6.024 12.047 0 24.094-18.071 24.094 0 0 0 0 0 0zM789.082 767.247l48.188-90.353h-204.8l156.612 90.353zM265.035 682.918l391.529 228.894c12.047 6.024 24.094 6.024 36.141 6.024 12.047-6.024 24.094-12.047 30.118-24.094v0l-361.412-210.824h-96.376zM951.718 448h-162.635c-78.306 0-138.541-60.235-138.541-138.541s60.235-138.541 138.541-138.541h162.635c36.141 0 72.282 30.118 72.282 72.282v132.518c0 42.165-30.118 72.282-72.282 72.282zM789.082 261.271c-24.094 0-48.188 18.071-48.188 48.188s18.071 48.188 48.188 48.188c24.094 0 48.188-18.071 48.188-48.188 0-24.094-18.071-48.188-48.188-48.188 0 0 0 0 0 0v0z" />
<glyph unicode="&#xe907;" glyph-name="donors" d="M512 128c0.017 0 0.037 0 0.057 0 229.766 0 416.028 186.262 416.028 416.028s-186.262 416.028-416.028 416.028c-229.766 0-416.028-186.262-416.028-416.028 0-0.020 0-0.040 0-0.061v0.004c0-0.017 0-0.037 0-0.057 0-229.703 186.211-415.915 415.915-415.915 0.020 0 0.040 0 0.060 0h-0.004zM467.627 765.156v33.621c0 0.034 0 0.074 0 0.114 0 18.246 14.759 33.045 32.99 33.109h22.193c0.034 0 0.074 0 0.114 0 18.286 0 33.109-14.824 33.109-33.109 0-0.040 0-0.080 0-0.12v0.006-34.133c32.558-1.668 62.186-12.966 86.431-31.073l-0.415 0.296c5.583-4.126 9.163-10.684 9.163-18.078 0-6.293-2.593-11.98-6.769-16.051l-0.005-0.005-32.597-31.004c-4.020-3.648-9.382-5.881-15.266-5.881-4.747 0-9.155 1.454-12.802 3.94l0.079-0.051c-9.965 6.389-22.125 10.185-35.171 10.185-0.155 0-0.31-0.001-0.466-0.002h-77.629c-18.267-1.145-32.648-16.241-32.648-34.695 0-0.663 0.019-1.322 0.055-1.975l-0.004 0.091c-0.011-0.333-0.017-0.724-0.017-1.116 0-15.676 9.985-29.021 23.943-34.019l0.252-0.079 124.587-37.376c51.088-16.535 87.384-63.689 87.384-119.32 0-0.312-0.001-0.623-0.003-0.934v0.048c0.006-0.438 0.009-0.956 0.009-1.474 0-66.299-52.311-120.379-117.911-123.218l-0.256-0.009v-33.621c0-0.034 0-0.074 0-0.114 0-18.286-14.824-33.109-33.109-33.109-0.040 0-0.080 0-0.12 0h-22.124c-0.034 0-0.074 0-0.114 0-18.286 0-33.109 14.824-33.109 33.109 0 0.040 0 0.080 0 0.12v-0.006 34.133c-32.627 1.585-62.343 12.851-86.662 30.961l0.419-0.298c-5.583 4.126-9.163 10.684-9.163 18.078 0 6.293 2.593 11.98 6.769 16.051l0.005 0.005 32.597 31.004c4.020 3.648 9.382 5.881 15.266 5.881 4.747 0 9.155-1.454 12.802-3.94l-0.079 0.051c9.965-6.389 22.125-10.185 35.171-10.185 0.155 0 0.31 0.001 0.466 0.002h78.028c18.267 1.145 32.648 16.241 32.648 34.695 0 0.663-0.019 1.322-0.055 1.975l0.004-0.091c0.011 0.333 0.017 0.724 0.017 1.116 0 15.676-9.985 29.021-23.943 34.019l-0.252 0.079-124.587 37.376c-51.118 16.518-87.442 63.686-87.442 119.338 0 0.325 0.001 0.65 0.004 0.975v-0.050c-0.006 0.439-0.009 0.957-0.009 1.476 0 66.341 52.331 120.46 117.965 123.329l0.259 0.009zM960 255.943h-65.024c-39.62-51.839-88.154-94.64-143.645-126.755l-2.331-1.245h127.602c0.42 0.035 0.908 0.055 1.402 0.055 9.224 0 16.815-6.991 17.763-15.963l0.007-0.078v-32.028c-0.955-9.050-8.546-16.041-17.77-16.041-0.493 0-0.982 0.020-1.465 0.059l0.064-0.004h-729.372c-0.437-0.038-0.945-0.060-1.458-0.060-9.225 0-16.817 6.993-17.764 15.968l-0.007 0.078v31.972c0.953 9.052 8.545 16.045 17.77 16.045 0.513 0 1.021-0.022 1.524-0.064l-0.066 0.004h127.545c-57.788 33.416-106.312 76.207-145.121 126.837l-0.856 1.163h-64.796c-0.017 0-0.037 0-0.057 0-35.295 0-63.911-28.596-63.943-63.883v-192.003c0-0.017 0-0.037 0-0.057 0-35.315 28.628-63.943 63.943-63.943 0.020 0 0.040 0 0.060 0h895.997c0.017 0 0.037 0 0.057 0 35.315 0 63.943 28.628 63.943 63.943 0 0.020 0 0.040 0 0.060v-0.003 192c0 0.017 0 0.037 0 0.057 0 35.315-28.628 63.943-63.943 63.943-0.020 0-0.040 0-0.060 0h0.003z" />
<glyph unicode="&#xe908;" glyph-name="dots-menu" d="M122.717 950.731c-65.993 0-119.38-53.758-119.38-119.751s53.758-119.751 119.751-119.751 119.751 53.758 119.751 119.751-53.758 119.751-120.122 119.751zM510.517 950.731c-65.993 0-119.751-53.758-119.751-119.751s53.758-119.751 119.751-119.751 119.751 53.758 119.751 119.751-53.758 119.751-119.751 119.751zM904.249 711.23c65.993 0 119.751 53.758 119.751 119.751s-53.758 119.751-119.751 119.751-119.751-53.758-119.751-119.751 53.758-119.751 119.751-119.751zM119.751 327.878c65.993 0 119.751 53.758 119.751 119.751s-53.758 119.751-119.751 119.751-119.751-53.758-119.751-119.751 53.758-119.751 119.751-119.751zM507.18 327.878c65.993 0 119.751 53.758 119.751 119.751s-53.758 119.751-119.751 119.751-119.751-53.758-119.751-119.751c0-66.364 53.758-119.751 119.751-119.751zM900.912 327.878c65.993 0 119.751 53.758 119.751 119.751s-53.758 119.751-119.751 119.751-119.751-53.758-119.751-119.751c0-66.364 53.758-119.751 119.751-119.751zM122.346 184.77c-65.993 0-119.751-53.758-119.751-119.751s53.758-119.751 119.751-119.751 119.751 53.758 119.751 119.751-53.758 119.751-119.751 119.751zM510.146 184.77c-65.993 0-119.751-53.758-119.751-119.751s53.758-119.751 119.751-119.751 119.751 53.758 119.751 119.751-53.758 119.751-119.751 119.751zM903.878 184.77c-65.993 0-119.751-53.758-119.751-119.751s53.758-119.751 119.751-119.751 119.751 53.758 119.751 119.751-53.758 119.751-119.751 119.751z" />
<glyph unicode="&#xe909;" glyph-name="edit-member" d="M641.113 790.817l213.704-213.704-525.357-525.357-222.609 213.704 534.261 525.357zM1006.191 835.339l-97.948 97.948c-35.617 35.617-89.043 35.617-124.661 8.904 0 0 0 0-8.904-8.904l-89.043-89.043 213.704-213.704 97.948 97.948c35.617 35.617 35.617 80.139 8.904 106.852v0zM0-37.287c0-17.809 8.904-26.713 26.713-35.617 0 0 0 0 8.904 0l231.513 62.33-213.704 213.704-53.426-240.417z" />
<glyph unicode="&#xe90a;" glyph-name="expired-membershipsb" horiz-adv-x="1087" d="M686.137-16.384c-28.444 28.444-28.444 73.956 0 102.4l62.578 62.578-62.578 62.578c-28.444 28.444-28.444 73.956 0 102.4l45.511 45.511c-34.133 17.067-73.956 22.756-108.089 22.756v0h-34.133c-91.022-39.822-199.111-39.822-290.133 0h-34.133c-147.911 0-267.378-119.467-267.378-267.378v-85.333c0-51.2 45.511-96.711 96.711-96.711h648.533c0 0-5.689 0-5.689 5.689l-51.2 45.511zM703.204 706.105c0-141.385-114.615-256-256-256s-256 114.615-256 256c0 141.385 114.615 256 256 256s256-114.615 256-256zM987.648-33.451c11.378-11.378 34.133-11.378 45.511 0l45.511 45.511c11.378 11.378 11.378 34.133 0 45.511v0l-91.022 91.022 91.022 91.022c11.378 11.378 11.378 34.133 0 45.511l-45.511 45.511c-11.378 11.378-34.133 11.378-45.511 0l-91.022-91.022-91.022 91.022c-5.689 5.689-17.067 11.378-22.756 11.378h-5.689c73.956-51.2 119.467-130.844 119.467-221.867v-56.889l91.022-96.711zM777.159 336.327c-5.689 0-11.378-5.689-17.067-5.689l-45.511-45.511c-11.378-11.378-11.378-34.133 0-45.511l91.022-91.022-91.022-91.022c-11.378-11.378-11.378-34.133 0-45.511l45.511-45.511c11.378-11.378 34.133-11.378 45.511 0l91.022 91.022v56.889c0 91.022-45.511 176.356-119.467 221.867z" />
<glyph unicode="&#xe90b;" glyph-name="family-member" horiz-adv-x="962" d="M223.825 641.049c83.934 5.596 151.082 72.743 151.082 162.273 5.596 83.934-55.956 156.678-139.891 162.273-83.934 0-156.678-61.552-162.273-145.486 0-5.596 0-11.191 0-22.383 0-83.934 67.148-156.678 151.082-156.678zM738.623 540.328c44.765 0 78.339 39.169 72.743 78.339v55.956c-50.361 0-106.317 11.191-156.678 22.383v-72.743c0-44.765 39.169-78.339 83.934-83.934zM481.224 215.781c-100.721-5.596-179.060-89.53-179.060-190.251v-55.956c0-16.787 11.191-27.978 27.978-27.978h302.164c16.787 0 27.978 16.787 27.978 27.978v55.956c0 100.721-78.339 184.656-179.060 190.251v0zM246.208 25.53c0 95.126 50.361 179.060 128.699 223.825-55.956 39.169-83.934 100.721-83.934 167.869 0 50.361 11.191 95.126 44.765 134.295-33.574 16.787-72.743 27.978-111.913 27.978-128.699-5.596-229.421-111.913-223.825-240.612v-374.907c0-16.787 11.191-27.978 27.978-27.978h223.825c-5.596 11.191-5.596 22.383-5.596 27.978v61.552zM481.224 277.333c78.339-5.596 145.486 55.956 151.082 134.295s-55.956 145.486-134.295 151.082c-78.339 5.596-145.486-55.956-151.082-134.295 0-5.596 0-5.596 0-11.191-5.596-72.743 55.956-139.891 134.295-139.891zM738.623 484.372c-22.383 0-50.361-5.596-72.743-11.191 5.596-22.383 5.596-39.169 5.596-55.956 0-67.148-33.574-128.699-83.934-167.869 83.934-44.765 128.699-128.699 128.699-223.825v-55.956c0-11.191 0-22.383-5.596-27.978h223.825c16.787 0 27.978 16.787 27.978 27.978v279.781c0 123.104-100.721 229.421-223.825 235.016zM738.623 960c-128.699-5.596-229.421-111.913-223.825-240.612v-100.721c39.169-5.596 78.339-27.978 106.317-61.552-11.191 22.383-16.787 44.765-16.787 67.148v111.913c0 11.191 5.596 16.787 11.191 22.383s16.787 5.596 22.383 5.596l33.574-5.596c55.956-16.787 111.913-22.383 167.869-22.383 16.787 0 27.978-16.787 27.978-27.978v-83.934c0-33.574-11.191-72.743-39.169-95.126 27.978-11.191 50.361-22.383 72.743-44.765h27.978c16.787 0 27.978 16.787 27.978 27.978v207.038c5.596 128.699-95.126 235.016-218.23 240.612v0z" />
<glyph unicode="&#xe90c;" glyph-name="image-description-left-menu" horiz-adv-x="1092" d="M968.885 960h-845.342c-68.182-0.069-123.44-55.305-123.543-123.472v-777.045c0.069-68.191 55.347-123.448 123.539-123.482h845.345c68.184 0.034 123.448 55.299 123.482 123.479v777.038c-0.069 68.17-55.313 123.414-123.476 123.482h-0.007zM706.379 776.282c65.902 0 119.326-53.424 119.326-119.326s-53.424-119.326-119.326-119.326c-65.902 0-119.326 53.424-119.326 119.326v0c0 65.902 53.424 119.326 119.326 119.326v0zM930.153 50.327h-750.833c-1.681-0.297-3.617-0.467-5.592-0.467-18.63 0-33.732 15.102-33.732 33.732 0 7.52 2.461 14.465 6.621 20.074l-0.064-0.091 204.8 405.624c4.556 14.058 17.534 24.044 32.844 24.044 13.005 0 24.328-7.206 30.193-17.842l0.090-0.178 205.944-269.372c9.262-12.925 24.236-21.247 41.152-21.247 14.681 0 27.898 6.267 37.122 16.272l0.032 0.035 50.357 51.019c8.843 9.664 21.512 15.702 35.591 15.702 16.941 0 31.84-8.742 40.432-21.961l0.114-0.187 130.47-186.368c18.793-26.985 7.409-48.911-25.54-48.911z" />
<glyph unicode="&#xe90d;" glyph-name="info" d="M512 947.512c-275.873 0-499.512-223.639-499.512-499.512s223.639-499.512 499.512-499.512c275.873 0 499.512 223.639 499.512 499.512v0c0 275.873-223.639 499.512-499.512 499.512v0zM512 15.048c-239.113 0-432.952 193.839-432.952 432.952s193.839 432.952 432.952 432.952c239.113 0 432.952-193.839 432.952-432.952v0c-0.284-238.999-193.954-432.668-432.925-432.952h-0.027zM512 478.845c-13.38 0-24.226-10.847-24.226-24.226v0-204.675c0-13.414 10.874-24.289 24.289-24.289s24.289 10.874 24.289 24.289v0 204.675c0 0 0 0 0 0 0 13.38-10.847 24.226-24.226 24.226-0.044 0-0.088 0-0.132 0h0.007zM512 695.259c-0.037 0-0.081 0-0.125 0-26.829 0-48.578-21.749-48.578-48.578s21.749-48.578 48.578-48.578c26.829 0 48.577 21.749 48.578 48.577v0c0 0 0 0 0 0 0 26.785-21.678 48.506-48.446 48.577h-0.007z" />
<glyph unicode="&#xe90e;" glyph-name="invoice-config" d="M682.6 834.2c-123.6 0-224-100.4-224-224s100.4-224 224-224 224 100.4 224 224-100.4 224-224 224zM677.6 629.6l20.4-6.4c21.4-6.8 36-26.4 36-48.8v-7c0-24.6-17.4-45.2-40.6-50v-5.4c0-9.4-7.6-17-17-17s-17 7.6-17 17v10c-16.4 8.6-27.8 25.8-27.8 45.4 0 9.4 7.6 17 17 17s17-7.6 17-17 7.6-17 17-17 17 7.6 17 17v7c0 7.6-4.8 14-12 16.2l-20.4 6.4c-21.4 6.8-36 26.4-36 48.8v7c0 22.2 14.2 41.2 34.2 48.2v7.2c0 9.4 7.6 17 17 17s17-7.6 17-17v-7.2c19.8-7 34.2-26 34.2-48.2 0-9.4-7.6-17-17-17s-17 7.6-17 17-7.6 17-17 17-17-7.6-17-17v-7c0-7.4 4.8-14 12-16.2zM840-29.8c-46.8 0.4-84.8 38.4-84.8 85.4v285c0 10.8-10 19-20.4 16.8-158.4-33-310.2 88.8-310.2 252.8s151.8 286 310.2 252.8c10.6-2.2 20.4 6 20.4 16.8v12c0 37.8-30.6 68.2-68.2 68.2h-554.8c-37.6 0-68.2-30.6-68.2-68.2v-836.2c0-66 53.4-119.4 119.4-119.4h657c9.8 0 17.8 8.4 17 18.4-0.6 8.8-8.4 15.4-17.4 15.6v0zM230.4 710.4h145c9.4 0 17-7.6 17-17s-7.6-17-17-17h-145c-9.4 0-17 7.6-17 17s7.6 17 17 17zM230.4 518.4h145c9.4 0 17-7.6 17-17s-7.6-17-17-17h-145c-9.4 0-17 7.6-17 17s7.6 17 17 17zM588.8 113h-358.4c-9.4 0-17 7.6-17 17s7.6 17 17 17h358.4c9.4 0 17-7.6 17-17 0-9.2-7.6-17-17-17zM588.8 292.2h-358.4c-9.4 0-17 7.6-17 17s7.6 17 17 17h358.4c9.4 0 17-7.6 17-17s-7.6-17-17-17zM960 81.2c0-47.2-38.2-85.4-85.2-85.4s-85.2 38.2-85.2 85.2c0 157.6-0.2 219 0 243.4 0 9.4 7.6 17 17 17h85.2c35.4 0 64.6-27 68-61.4l0.2-198.8z" />
<glyph unicode="&#xe90f;" glyph-name="laptop" d="M99.097 35.097h33.032v-33.032h-33.032v33.032zM165.161 35.097h33.032v-33.032h-33.032v33.032zM231.226 35.097h33.032v-33.032h-33.032v33.032zM792.774 35.097h132.129v-33.032h-132.129v33.032zM990.968 101.161v545.032c0 45.626-36.955 82.581-82.581 82.581h-49.548c0 127.587-103.639 231.226-231.226 231.226s-231.226-103.639-231.226-231.226h-280.774c-45.626 0-82.581-36.955-82.581-82.581v-545.032h-33.032v-82.581c0-45.626 36.955-82.581 82.581-82.581h858.839c45.626 0 82.581 36.955 82.581 82.581v82.581h-33.032zM908.387 695.742c27.252 0 49.548-22.297 49.548-49.548v-545.032h-33.032v528.516c0 18.168-14.865 33.032-33.032 33.032h-42.735c3.097 10.735 5.574 21.677 7.019 33.032h52.232zM438.916 789.471l175.277-73.084 60.077-180.026c-15.071-3.716-30.555-5.781-46.658-5.781-109.213 0-198.194 88.981-198.194 198.194 0 21.265 3.51 41.497 9.497 60.697zM705.652 546.684l-59.252 177.548 132.335 132.335c29.316-34.477 47.071-79.071 47.071-127.794 0-81.548-49.548-151.742-120.155-182.090zM627.613 926.968c48.723 0 93.316-17.755 127.794-47.071l-131.716-131.716-171.974 71.639c33.239 63.587 99.51 107.148 175.897 107.148zM66.065 646.194c0 27.252 22.297 49.548 49.548 49.548h283.458c1.652-11.355 3.923-22.297 7.019-33.032h-273.961c-18.168 0-33.032-14.865-33.032-33.032v-528.516h-33.032v545.032zM990.968 18.581c0-27.252-22.297-49.548-49.548-49.548h-858.839c-27.252 0-49.548 22.297-49.548 49.548v49.548h340.232c23.742-21.265 54.090-33.032 86.297-33.032h104.671c32.206 0 62.555 11.768 86.297 33.032h208.31v33.032h-221.523l-4.748-4.748c-18.168-18.168-42.323-28.284-68.129-28.284h-104.671c-25.806 0-49.961 9.91-68.129 28.284l-4.748 4.748h-254.761v528.516h286.968c37.161-78.039 116.645-132.129 208.516-132.129s171.355 54.090 208.516 132.129h55.742v-561.548h99.097v-49.548zM809.29 266.323c-10.116 0-19.613-3.097-27.458-8.258l-57.6 43.148c1.445 4.748 2.477 9.497 2.477 14.658 0 27.252-22.297 49.548-49.548 49.548s-49.548-22.297-49.548-49.548c0-5.781 1.239-11.148 2.89-16.103l-92.49-73.91c-7.639 4.748-16.516 7.639-26.013 7.639-11.148 0-21.265-3.716-29.523-9.91l-71.226 47.484c1.032 3.923 1.652 7.845 1.652 11.974 0 27.252-22.297 49.548-49.548 49.548s-49.548-22.297-49.548-49.548c0-4.129 0.619-8.258 1.652-11.974l-71.226-47.484c-8.258 6.194-18.374 9.91-29.523 9.91-27.252 0-49.548-22.297-49.548-49.548s22.297-49.548 49.548-49.548 49.548 22.297 49.548 49.548c0 4.129-0.619 8.258-1.652 11.974l71.226 47.484c8.258-6.194 18.374-9.91 29.523-9.91s21.265 3.716 29.523 9.91l71.226-47.484c-1.032-3.923-1.652-7.845-1.652-11.974 0-27.252 22.297-49.548 49.548-49.548s49.548 22.297 49.548 49.548c0 5.781-1.239 11.148-2.89 16.103l92.49 73.91c7.639-4.748 16.516-7.639 26.013-7.639 10.116 0 19.613 3.097 27.458 8.258l57.6-43.148c-1.445-4.748-2.477-9.497-2.477-14.658 0-27.252 22.297-49.548 49.548-49.548s49.548 22.297 49.548 49.548-22.297 49.548-49.548 49.548zM214.71 167.226c-9.084 0-16.516 7.432-16.516 16.516s7.432 16.516 16.516 16.516 16.516-7.432 16.516-16.516-7.432-16.516-16.516-16.516zM363.355 266.323c-9.084 0-16.516 7.432-16.516 16.516s7.432 16.516 16.516 16.516 16.516-7.432 16.516-16.516-7.432-16.516-16.516-16.516zM512 167.226c-9.084 0-16.516 7.432-16.516 16.516s7.432 16.516 16.516 16.516 16.516-7.432 16.516-16.516-7.432-16.516-16.516-16.516zM677.161 299.355c-9.084 0-16.516 7.432-16.516 16.516s7.432 16.516 16.516 16.516 16.516-7.432 16.516-16.516-7.432-16.516-16.516-16.516zM809.29 200.258c-9.084 0-16.516 7.432-16.516 16.516s7.432 16.516 16.516 16.516 16.516-7.432 16.516-16.516-7.432-16.516-16.516-16.516zM429.419 596.645h-264.258v-231.226h264.258v231.226zM396.387 398.452h-198.194v165.161h198.194v-165.161zM231.226 530.581h132.129v-33.032h-132.129v33.032zM231.226 464.516h132.129v-33.032h-132.129v33.032zM462.452 431.484h33.032v-33.032h-33.032v33.032zM528.516 431.484h330.323v-33.032h-330.323v33.032z" />
<glyph unicode="&#xe910;" glyph-name="left-arrow" horiz-adv-x="1656" d="M71.228 515.765h1340.235l-316.235 316.235c-30.118 30.118-30.118 75.294 0 97.882 30.118 30.118 75.294 30.118 97.882 0v0l444.235-444.235c30.118-30.118 30.118-75.294 0-97.882 0 0 0 0 0 0l-444.235-444.235c-30.118-30.118-75.294-30.118-97.882 0-30.118 30.118-30.118 75.294 0 97.882v0l316.235 316.235h-1340.235c-37.647 0-75.294 30.118-75.294 67.765 7.529 60.235 37.647 90.353 75.294 90.353v0z" />
<glyph unicode="&#xe911;" glyph-name="logout" d="M640 405.4c-23.6 0-42.6-19.2-42.6-42.6v-170.8c0-23.6-19.2-42.6-42.6-42.6h-128v640c0 36.4-23.2 69-58.2 81.2l-12.6 4.2h198.8c23.6 0 42.6-19.2 42.6-42.6v-128c0-23.6 19-42.6 42.6-42.6s42.6 19.2 42.6 42.6v127.8c0 70.6-57.4 128-128 128h-458.6c-1.6 0-3-0.8-4.6-1-2 0.2-4 1-6.2 1-47 0-85.2-38.2-85.2-85.4v-768c0-36.4 23.2-69 58.2-81.2l256.6-85.4c8.8-2.6 17.4-4 26.4-4 47 0 85.4 38.2 85.4 85.4v42.6h128c70.6 0 128 57.4 128 128v170.6c0 23.6-19 42.8-42.6 42.8zM1011.4 563.4l-170.6 170.6c-12.2 12.2-30.6 15.8-46.4 9.2-16-6.6-26.4-22.2-26.4-39.4v-128h-170.6c-23.6 0-42.6-19.2-42.6-42.6s19.2-42.6 42.6-42.6h170.6v-128c0-17.2 10.4-32.8 26.4-39.4s34.4-3 46.4 9.2l170.6 170.6c16.8 16.8 16.8 43.8 0 60.4z" />
<glyph unicode="&#xe912;" glyph-name="members" horiz-adv-x="1399" d="M500.622 418.873c-136.533 102.4-329.956 79.644-438.044-56.889-39.822-56.889-62.578-125.156-62.578-193.422v-193.422c0-22.756 17.067-39.822 39.822-39.822 0 0 0 0 0 0h329.956v199.111c0 108.089 51.2 210.489 130.844 284.444zM309.703 533.333c119.467 0 210.489 96.711 210.489 210.489 5.689 119.467-91.022 216.178-210.489 216.178-113.778 0-210.489-96.711-210.489-210.489s96.711-216.178 210.489-216.178v0zM748.146 414.436c-159.289 0-284.444-125.156-284.444-284.444v-153.6c0-22.756 17.067-39.822 39.822-39.822h324.267v164.978c0 91.022 39.822 176.356 102.4 238.933-51.2 51.2-113.778 73.956-182.044 73.956zM638.521 493.511c91.022-56.889 210.489-34.133 267.378 56.889s34.133 210.489-56.889 267.378-210.489 28.444-267.378-56.889c-17.067-34.133-28.444-68.267-28.444-108.089 0-62.578 34.133-125.156 85.333-159.289zM1160.42 342.812c-130.844 0-238.933-108.089-238.933-238.933v-125.156c0-22.756 17.067-39.822 39.822-39.822h398.222c22.756 0 39.822 17.067 39.822 39.822v125.156c0 130.844-108.089 238.933-238.933 238.933zM1060.181 419.84c68.267-56.889 170.667-45.511 227.556 28.444 56.889 68.267 45.511 170.667-28.444 227.556s-170.667 45.511-227.556-28.444c-22.756-28.444-34.133-62.578-34.133-102.4 0-45.511 22.756-96.711 62.578-125.156z" />
<glyph unicode="&#xe913;" glyph-name="membershipicon" horiz-adv-x="991" d="M495.484 134.194c94.378 0 174.599 75.502 174.599 174.599s-75.502 174.599-174.599 174.599-174.599-75.502-174.599-174.599c4.719-94.378 80.221-174.599 174.599-174.599zM391.668 337.106c14.157 9.438 28.313 9.438 37.751 0l37.751-37.751 84.94 84.94c9.438 9.438 28.313 9.438 37.751 0s9.438-28.313 0-37.751l-103.816-103.816c-14.157-9.438-33.032-9.438-47.189 0l-61.346 61.346c9.438 4.719 9.438 28.313 14.157 33.032zM9.438 30.378c0-51.908 37.751-94.378 84.94-94.378 4.719 0 4.719 0 9.438 0h783.336c51.908 0 94.378 37.751 94.378 84.94 0 4.719 0 4.719 0 9.438v599.3h-981.53v-599.3h9.438zM495.484 549.456c132.129 0 235.945-103.816 235.945-235.945s-103.816-235.945-235.945-235.945-235.945 103.816-235.945 235.945c0 132.129 103.816 235.945 235.945 235.945v0zM990.968 691.023v94.378c0 51.908-37.751 94.378-84.94 94.378-4.719 0-4.719 0-9.438 0h-56.627v-56.627c0-18.876-14.157-33.032-28.313-33.032-18.876 0-33.032 14.157-33.032 28.313 0 0 0 0 0 4.719v56.627h-56.627v-56.627c0-18.876-14.157-33.032-28.313-33.032-18.876 0-33.032 14.157-33.032 28.313 0 0 0 0 0 4.719v56.627h-330.323v-56.627c0-18.876-14.157-33.032-33.032-28.313-14.157 0-28.313 14.157-28.313 28.313v56.627h-47.189v-56.627c0-18.876-14.157-33.032-28.313-33.032-18.876 0-33.032 14.157-33.032 28.313 0 0 0 0 0 4.719v56.627h-56.627c-51.908 0-94.378-37.751-94.378-84.94 0-4.719 0-4.719 0-9.438v-94.378h981.53zM839.963 926.968c0 18.876-14.157 33.032-33.032 28.313-14.157 0-28.313-14.157-28.313-28.313v-56.627h61.346v56.627zM721.991 926.968c0 18.876-14.157 33.032-33.032 28.313-14.157 0-28.313-14.157-28.313-28.313v-56.627h61.346v56.627zM339.76 926.968c0 18.876-14.157 33.032-33.032 28.313-14.157 0-28.313-14.157-28.313-28.313v-56.627h61.346v56.627zM221.788 926.968c0 18.876-14.157 33.032-33.032 28.313-14.157 0-28.313-14.157-28.313-28.313v-56.627h61.346v56.627z" />
<glyph unicode="&#xe914;" glyph-name="menu-w" horiz-adv-x="1344" d="M1226.129 960h-792.932c-65.258 0-118.161-52.902-118.161-118.161s52.902-118.161 118.161-118.161h792.932c65.258 0 118.161 52.902 118.161 118.161s-52.902 118.161-118.161 118.161v0zM1226.129 566.161h-792.932c-65.258 0-118.161-52.902-118.161-118.161s52.902-118.161 118.161-118.161h792.932c65.258 0 118.161 52.902 118.161 118.161s-52.902 118.161-118.161 118.161v0zM1226.129 172.321h-792.932c-65.258 0-118.161-52.902-118.161-118.161s52.902-118.161 118.161-118.161h792.932c65.258 0 118.161 52.902 118.161 118.161s-52.902 118.161-118.161 118.161v0zM118.161 960c-65.258 0-118.161-52.902-118.161-118.161s52.902-118.161 118.161-118.161c65.258 0 118.161 52.902 118.161 118.161v0c-0.051 65.238-52.923 118.11-118.156 118.161h-0.005zM118.161 566.161c-65.258 0-118.161-52.902-118.161-118.161s52.902-118.161 118.161-118.161c65.258 0 118.161 52.902 118.161 118.161v0c-0.051 65.238-52.923 118.11-118.156 118.161h-0.005zM118.161 172.321c-65.258 0-118.161-52.902-118.161-118.161s52.902-118.161 118.161-118.161c65.258 0 118.161 52.902 118.161 118.161v0c-0.051 65.238-52.923 118.11-118.156 118.161h-0.005z" />
<glyph unicode="&#xe915;" glyph-name="metro-user" horiz-adv-x="1103" d="M630.158 247.979v64.853c95.333 63.812 157.311 170.991 157.525 292.66v0.033c0 195.755 0 354.475-236.316 354.475s-236.316-158.72-236.316-354.475c0.214-121.701 62.192-228.881 156.254-291.891l1.272-0.802v-64.853c-267.378-21.845-472.633-153.145-472.633-311.865h1102.791c0 158.72-205.426 290.133-472.633 311.865z" />
<glyph unicode="&#xe916;" glyph-name="newmembers" horiz-adv-x="1280" d="M1245.867 544.711h-125.156v125.156c0 17.067-17.067 34.133-34.133 34.133h-62.578c-17.067 0-34.133-17.067-34.133-34.133v-125.156h-125.156c-17.067 0-34.133-17.067-34.133-34.133v-62.578c0-17.067 17.067-34.133 34.133-34.133h125.156v-125.156c0-17.067 17.067-34.133 34.133-34.133h62.578c17.067 0 34.133 17.067 34.133 34.133v125.156h125.156c17.067 0 34.133 11.378 34.133 34.133v62.578c0 17.067-17.067 34.133-34.133 34.133zM449.422 448c142.222 0 256 113.778 256 256s-113.778 256-256 256-256-113.778-256-256 113.778-256 256-256zM625.778 385.422h-34.133c-91.022-39.822-199.111-39.822-290.133 0h-34.133c-147.911 0-267.378-119.467-267.378-267.378v-85.333c0-51.2 45.511-96.711 96.711-96.711 0 0 0 0 0 0h705.422c51.2 0 96.711 45.511 96.711 96.711v0 85.333c-5.689 147.911-125.156 267.378-273.067 267.378v0z" />
<glyph unicode="&#xe917;" glyph-name="payment-config" d="M992 320c-17.6 0-32-14.4-32-32v-224h-896v384h352c17.6 0 32 14.4 32 32s-14.4 32-32 32h-352v128h352c17.6 0 32 14.4 32 32s-14.4 32-32 32h-352c-35.4 0-64-28.6-64-64v-576c0-35.4 28.6-64 64-64h896c35.4 0 64 28.6 64 64v224c0 17.6-14.4 32-32 32zM288 320h-128c-17.6 0-32-14.4-32-32s14.4-32 32-32h128c17.6 0 32 14.4 32 32s-14.4 32-32 32zM1004.6 797.4l-224 96c-8.2 3.4-17.2 3.4-25.2 0l-224-96c-11.8-5-19.4-16.6-19.4-29.4v-128c0-176 65-279 240-379.8 5-2.8 10.4-4.2 16-4.2s11 1.4 16 4.2c175 100.6 240 203.4 240 379.8v128c0 12.8-7.6 24.4-19.4 29.4zM960 640c0-147.8-48.8-229.2-192-314.8-143.2 86-192 167.2-192 314.8v106.8l192 82.4 192-82.4v-106.8zM884 697c-13.8 10.8-33.8 8.8-45-5l-100.6-125.8-39.8 59.6c-10 14.8-29.8 18.6-44.4 8.8s-18.6-29.6-8.8-44.4l64-96c5.6-8.6 15-13.8 25.2-14.2 0.4 0 1 0 1.4 0 9.6 0 18.8 4.4 25 12l128 160c11 13.8 8.8 34-5 45z" />
<glyph unicode="&#xe918;" glyph-name="percentage-b" d="M418.833 534.872c0-23.641-19.165-42.807-42.807-42.807s-42.807 19.165-42.807 42.807c0 23.641 19.165 42.807 42.807 42.807s42.807-19.165 42.807-42.807zM690.78 361.128c0-23.641-19.165-42.807-42.807-42.807s-42.807 19.165-42.807 42.807c0 23.641 19.165 42.807 42.807 42.807s42.807-19.165 42.807-42.807zM1000.918 391.344l-15.528 21.193c-16.787 23.082-17.207 54.348-0.63 77.849l15.108 21.403c23.082 32.734 12.38 78.269-23.082 97.364l-23.082 12.38c-25.18 13.43-39.030 41.548-34.203 69.875l4.407 25.81c6.715 39.449-22.872 75.961-62.951 77.639l-26.23 1.049c-28.538 1.259-53.298 20.564-61.272 48.052l-7.344 25.18c-11.121 38.61-53.508 58.544-90.439 42.597l-24.131-10.282c-26.23-11.331-56.866-4.616-75.961 16.787l-17.416 19.515c-26.649 29.797-73.443 29.587-99.882-0.839l-17.207-19.725c-18.885-21.613-49.311-28.748-75.751-17.836l-24.341 10.072c-37.141 15.318-79.108-5.456-89.81-44.066l-6.925-25.39c-7.554-27.698-31.895-47.423-60.433-48.892l-26.23-1.469c-40.079-2.308-69.036-39.239-61.692-78.689l4.826-25.81c5.246-28.118-8.184-56.446-33.154-70.295l-22.872-12.8c-35.043-19.515-45.115-65.259-21.403-97.574l15.528-21.193c16.787-23.082 17.207-54.348 0.63-77.849l-15.108-21.403c-23.082-32.734-12.38-78.269 23.082-97.364l23.082-12.38c25.18-13.43 39.030-41.548 34.203-69.875l-4.407-25.81c-6.715-39.449 22.872-75.961 62.951-77.639l26.23-1.049c28.538-1.259 53.298-20.564 61.272-48.052l7.344-25.18c11.121-38.61 53.508-58.544 90.439-42.597l24.131 10.282c26.23 11.331 56.866 4.616 75.961-16.787l17.416-19.515c26.859-29.797 73.652-29.587 99.882 0.839l17.207 19.725c18.885 21.613 49.311 28.748 75.751 17.836l24.341-10.072c37.141-15.318 79.108 5.456 89.81 44.066l6.925 25.39c7.554 27.698 31.895 47.423 60.433 48.892l26.23 1.469c40.079 2.308 69.036 39.239 61.692 78.689l-4.826 25.81c-5.246 28.118 8.184 56.446 33.154 70.295l22.872 12.8c35.043 19.305 45.115 65.049 21.403 97.574zM272.577 534.872c0 57.075 46.164 103.239 103.239 103.239s103.239-46.164 103.239-103.239-46.164-103.239-103.239-103.239-103.239 46.374-103.239 103.239zM395.751 268.59c-8.813-10.702-24.761-12.17-35.462-3.357v0c-10.702 8.813-12.17 24.761-3.357 35.462l270.898 326.295c8.813 10.702 24.761 12.17 35.462 3.357s12.17-24.761 3.357-35.462l-270.898-326.295zM647.974 257.889c-57.075 0-103.239 46.164-103.239 103.239s46.164 103.239 103.239 103.239 103.239-46.164 103.239-103.239-46.164-103.239-103.239-103.239z" />
<glyph unicode="&#xe919;" glyph-name="performances" horiz-adv-x="727" d="M389.047 864.947c12.419-52.539-20.104-105.198-72.643-117.618s-105.198 20.104-117.618 72.643c-12.419 52.539 20.104 105.198 72.643 117.618s105.198-20.104 117.618-72.643zM687.841 66.54h-113.185c7.923 7.622 12.845 18.315 12.845 30.157 0 7.974-2.231 15.427-6.104 21.768l0.104-0.184-181.473 300.425v124.881c45.155-50.122 81.19-109.492 104.841-174.793l1.176-3.715c5.566-16.903 21.211-28.889 39.656-28.889 0.023 0 0.047 0 0.070 0h-0.004c0.013 0 0.029 0 0.044 0 23.040 0 41.717 18.677 41.717 41.717 0 4.604-0.746 9.034-2.124 13.176l0.085-0.295c-36.431 106.365-100.869 195.254-184.56 260.643l-1.225 0.922c-3.469 47.111-42.449 84.046-90.097 84.242h-33.329c-21.078-0.023-40.449-7.309-55.751-19.49l0.183 0.14c-62.343 55.315-110.293 125.486-138.423 205.023l-1.064 3.452c-5.606 16.902-21.27 28.878-39.731 28.878-16.12 0-30.107-9.131-37.071-22.503l-0.11-0.231c-2.895-5.506-4.594-12.032-4.594-18.954 0-4.612 0.754-9.048 2.146-13.191l-0.085 0.292c36.049-105.824 99.89-194.326 182.872-259.586l1.188-0.901v-252.187l-61.659-108.172c-3.416-5.931-5.431-13.042-5.431-20.624 0-6.195 1.345-12.075 3.759-17.366l-0.107 0.262 72.977-161.693c2.309-5.055 5.432-9.35 9.247-12.914l0.023-0.022h-118.575c-21.559 0-39.184-29.266-39.184-65.27s17.517-65.27 39.184-65.27h601.766c21.559 0 39.184 29.212 39.184 65.27s-17.517 65-39.184 65zM320.96 66.54h-58.371c7.932 7.598 12.862 18.276 12.862 30.105 0 6.22-1.363 12.121-3.806 17.422l0.107-0.259-64.246 142.397 56.916 99.818h76.157l169.723-280.968c2.039-3.249 4.393-6.049 7.081-8.486l0.033-0.030h-196.457z" />
<glyph unicode="&#xe91a;" glyph-name="print" horiz-adv-x="991" d="M891.871 888.254c-0.038 39.609-32.137 71.708-71.742 71.746h-649.286c-39.609-0.038-71.708-32.137-71.746-71.742v-176h792.774zM952.254 646.194h-913.54c-21.373-0.019-38.695-17.34-38.714-38.712v-385.026c0.019-21.373 17.34-38.695 38.712-38.714h142.965v126.447c0.056 57.845 46.934 104.722 104.773 104.778h418.062c57.845-0.056 104.722-46.934 104.778-104.773v-126.452h142.964c21.373 0.019 38.695 17.34 38.714 38.712v385.026c-0.019 21.373-17.34 38.695-38.712 38.714h-0.002zM858.839 497.548h-49.548c-18.243 0-33.032 14.789-33.032 33.032s14.789 33.032 33.032 33.032v0h49.548c18.243 0 33.032-14.789 33.032-33.032s-14.789-33.032-33.032-33.032v0zM704.512 348.903h-418.056c-21.373-0.019-38.695-17.34-38.714-38.712v-335.478c0.019-21.373 17.34-38.695 38.712-38.714h418.058c21.373 0.019 38.695 17.34 38.714 38.712v335.478c-0.019 21.373-17.34 38.695-38.712 38.714h-0.002zM594.581 35.097h-198.194c-18.243 0-33.032 14.789-33.032 33.032s14.789 33.032 33.032 33.032v0h198.194c18.243 0 33.032-14.789 33.032-33.032s-14.789-33.032-33.032-33.032v0zM594.581 183.742h-198.194c-18.243 0-33.032 14.789-33.032 33.032s14.789 33.032 33.032 33.032v0h198.194c18.243 0 33.032-14.789 33.032-33.032s-14.789-33.032-33.032-33.032v0z" />
<glyph unicode="&#xe91b;" glyph-name="session-icon" horiz-adv-x="653" d="M230.229 851.001c0 61.015 49.463 110.478 110.478 110.478s110.478-49.463 110.478-110.478v0c0-61.015-49.463-110.478-110.478-110.478s-110.478 49.463-110.478 110.478v0zM462.393 690.859c-9.642 7.566-20.484 14.59-31.939 20.603l-1.17 0.559c-5.951 3.051-13.049 5.982-20.398 8.354l-1.049 0.293c-15.704 5.153-33.914 8.703-52.758 9.921l-0.661 0.034 28.444-295.026-41.188-47.559-47.047 47.559 35.726 295.424c-13.373-0.328-26.19-1.762-38.641-4.218l1.436 0.236c-18.756-2.838-35.649-8.557-51.030-16.742l0.854 0.415c-29.574-18.058-53.691-42.285-71.098-71.029l-0.526-0.935c-3.129-4.437-6.144-8.818-10.581-14.791-10.98-15.076-21.163-27.136-27.25-26.453-26.627 8.666-49.577 22.089-68.963 39.416l0.185-0.162c-6.832 5.813-15.758 9.348-25.51 9.348-11.835 0-22.454-5.208-29.69-13.456l-0.039-0.045c-5.883-6.69-9.474-15.521-9.474-25.191 0-11.742 5.294-22.248 13.625-29.261l0.058-0.048c29.818-25.962 65.845-45.618 105.514-56.449l1.892-0.44c4.338-0.724 9.337-1.138 14.432-1.138 0.026 0 0.052 0 0.078 0h-0.004c39.066 4.247 71.943 27.337 89.695 59.866l0.303 0.607c3.356 4.608 6.713 9.444 10.183 14.279s6.94 9.899 10.524 14.791c-2.617-51.2-8.078-160.427-11.378-253.838-1.024-27.762 19.172-43.179 49.209-45.113 18.489-1.138 42.325 14.336 58.197 14.336 26.283 0 50.46-12.572 68.551-10.24 17.523 0.92 32.144 12.396 37.684 28.149l0.091 0.296c0.010 2.691 0.016 5.873 0.016 9.058 0 90.083-4.779 179.050-14.098 266.661l0.94-10.901c28.868-47.061 45.965-104.044 45.965-165.021 0-5.988-0.165-11.938-0.49-17.845l0.036 0.822c0.602-21.021 17.786-37.832 38.897-37.832 0.085 0 0.17 0 0.256 0.001h0.84c21.24 0.286 38.347 17.571 38.347 38.852 0 0.201-0.002 0.402-0.005 0.602v-0.030c-2.788 127.659-35.385 216.235-96.996 263.282zM546.020 404.252h18.148c36.352 0 65.764 21.618 65.764 48.356s-29.355 48.412-65.764 48.412h-457.899c-36.238 0-65.707-21.675-65.707-48.412s29.468-48.356 65.707-48.356h34.133v-358.969h-116.167v-109.284h628.508v109.284h-106.496v358.969z" />
<glyph unicode="&#xe91c;" glyph-name="settings" horiz-adv-x="952" d="M535.882 900.005c0-33.135-26.861-59.995-59.995-59.995s-59.995 26.861-59.995 59.995c0 33.135 26.861 59.995 59.995 59.995s59.995-26.861 59.995-59.995zM535.882-4.005c0-33.135-26.861-59.995-59.995-59.995s-59.995 26.861-59.995 59.995c0 33.135 26.861 59.995 59.995 59.995s59.995-26.861 59.995-59.995zM130.564 712.36c21.232-25.438 17.822-63.272-7.616-84.504s-63.272-17.822-84.504 7.616c-21.232 25.438-17.822 63.272 7.616 84.504s63.272 17.822 84.504-7.616zM923.922 241.82c11.033-31.244-5.35-65.516-36.594-76.549s-65.516 5.35-76.549 36.594c-11.033 31.244 5.35 65.516 36.594 76.549s65.516-5.35 76.549-36.594zM902.991 722.126c26.803-19.481 32.738-57.002 13.257-83.804s-57.002-32.738-83.804-13.257c-26.803 19.481-32.738 57.002-13.257 83.804s57.002 32.738 83.804 13.257zM123.159 268.038c25.438-21.232 28.848-59.066 7.616-84.504s-59.066-28.848-84.504-7.616c-25.438 21.232-28.848 59.066-7.616 84.504s59.066 28.848 84.504 7.616zM763.422 614.016c-4.723 8.008-8.725 17.26-11.529 27.019l-0.21 0.852-57.078-32.897-15.008 25.973c-5.279 9.028-14.926 14.996-25.967 14.996-5.529 0-10.708-1.497-15.155-4.107l0.141 0.076-43.652-25.2c-8.369 5.858-17.942 11.465-27.96 16.293l-1.247 0.542v50.436c0 16.577-13.438 30.015-30.015 30.015v0h-30.015v65.654c-9.002-2.419-19.338-3.808-29.998-3.808s-20.995 1.389-30.835 3.997l0.838-0.189v-65.795h-30.015c-16.577 0-30.015-13.438-30.015-30.015v0-50.436c-11.265-5.371-20.838-10.977-29.887-17.284l0.68 0.449-43.652 25.2c-4.306 2.534-9.485 4.030-15.014 4.030-11.041 0-20.688-5.968-25.89-14.855l-0.077-0.142-15.008-25.973-56.973 32.897c-3.013-10.611-7.016-19.864-12.047-28.439l0.308 0.568c-5.339-9.134-11.415-17.022-18.359-24.052l0.012 0.012 57.008-32.932-15.008-25.973c-2.534-4.306-4.030-9.485-4.030-15.014 0-11.041 5.968-20.688 14.855-25.89l0.142-0.077 43.582-25.165c-0.492-5.694-0.738-11.282-0.738-16.906s0.246-11.212 0.738-16.906l-43.582-25.165c-9.028-5.279-14.996-14.926-14.996-25.967 0-5.529 1.497-10.708 4.107-15.155l-0.076 0.141 15.008-25.973-57.008-32.932c6.933-7.027 13.010-14.927 18.042-23.514l0.304-0.562c4.723-8.008 8.726-17.26 11.53-27.020l0.209-0.852 56.973 32.897 15.008-25.973c5.279-9.028 14.926-14.996 25.967-14.996 5.529 0 10.708 1.497 15.155 4.107l-0.141-0.076 43.652 25.2c8.37-5.86 17.943-11.466 27.961-16.294l1.245-0.541v-50.436c0-16.577 13.438-30.015 30.015-30.015v0h30.015v-65.478c9.002 2.419 19.338 3.808 29.998 3.808s20.995-1.389 30.835-3.997l-0.838 0.189v65.795h30.015c16.577 0 30.015 13.438 30.015 30.015v0 50.436c11.265 5.369 20.837 10.976 29.886 17.283l-0.679-0.448 43.652-25.2c4.304-2.526 9.478-4.018 15.001-4.018 11.041 0 20.69 5.962 25.903 14.842l0.077 0.141 15.008 25.973 56.973-32.897c3.013 10.611 7.016 19.864 12.047 28.439l-0.308-0.568c5.338 9.148 11.414 17.048 18.36 24.089l-0.013-0.014-57.008 32.932 15.008 25.973c2.534 4.306 4.030 9.485 4.030 15.014 0 11.041-5.968 20.688-14.855 25.89l-0.142 0.077-43.582 25.165c0.492 5.694 0.738 11.282 0.738 16.906s-0.246 11.212-0.738 16.906l43.582 25.165c9.028 5.279 14.996 14.926 14.996 25.967 0 5.529-1.497 10.708-4.107 15.155l0.076-0.141-15.008 25.973 57.008 32.932c-6.881 6.972-12.921 14.802-17.937 23.307l-0.304 0.558zM475.887 358.007c-49.712 0-90.011 40.299-90.011 90.011s40.299 90.011 90.011 90.011c49.712 0 90.011-40.299 90.011-90.011v0c-0.060-49.687-40.323-89.951-90.005-90.011h-0.006zM170.18 137.918l190.214-109.798c5.793 20.379 16.203 37.875 30.066 51.963l-0.016-0.016-190.284 109.869c-5.729-20.399-16.124-37.915-29.995-51.997l0.015 0.015zM390.34 815.969c-13.848 14.072-24.258 31.568-29.843 51.1l-0.207 0.847-190.109-109.798c13.855-14.068 24.249-31.584 29.777-51.142l0.203-0.84zM781.698 758.117l-190.214 109.798c-5.793-20.379-16.203-37.875-30.066-51.963l0.016 0.016 190.284-109.869c5.725 20.411 16.12 37.94 29.995 52.032l-0.015-0.015zM561.434 80.031c13.849-14.071 24.259-31.567 29.844-51.101l0.207-0.846 190.214 109.798c-13.854 14.069-24.248 31.584-29.777 51.142l-0.203 0.84zM84.387 342.015c10.685-0.009 21.036-1.419 30.886-4.056l-0.835 0.19v219.702c-9.001-2.441-19.336-3.844-29.998-3.844s-20.997 1.403-30.829 4.033l0.832-0.189v-219.632c8.967 2.411 19.261 3.796 29.88 3.796 0.023 0 0.046 0 0.069 0h-0.004zM867.386 553.985c-10.685 0.009-21.036 1.419-30.886 4.056l0.835-0.19v-219.702c9.001 2.442 19.336 3.845 29.998 3.845s20.997-1.403 30.829-4.034l-0.831 0.189v219.632c-8.984-2.425-19.299-3.822-29.94-3.831h-0.005z" />
<glyph unicode="&#xe91d;" glyph-name="share-spcs" d="M460.8 960.155h-255.742c-113.108 0-204.8-91.692-204.8-204.8v0-614.4c0-113.108 91.692-204.8 204.8-204.8v0h614.4c113.108 0 204.8 91.692 204.8 204.8v0 256.052c0 28.277-22.923 51.2-51.2 51.2s-51.2-22.923-51.2-51.2v-256c-0.029-56.542-45.858-102.371-102.397-102.4h-614.403c-56.554 0-102.4 45.846-102.4 102.4v0 614.193c0 0.015 0 0.034 0 0.052 0 56.525 45.823 102.348 102.348 102.348 0.018 0 0.036 0 0.055 0h255.997c28.277 0 51.2 22.923 51.2 51.2s-22.923 51.2-51.2 51.2v0zM849.217 857.755h-183.617c-28.277 0-51.2 22.923-51.2 51.2s22.923 51.2 51.2 51.2h307.2c28.277 0 51.2-22.923 51.2-51.2v0-307.355c0-28.277-22.923-51.2-51.2-51.2s-51.2 22.923-51.2 51.2v0 183.617l-373.383-373.383c-9.066-8.29-21.189-13.368-34.499-13.368-28.277 0-51.2 22.923-51.2 51.2 0 13.31 5.078 25.433 13.403 34.538l-0.035-0.039z" />
<glyph unicode="&#xe91e;" glyph-name="sponsors" horiz-adv-x="1707" d="M1621.333 960h-1536c-47.128 0-85.333-38.205-85.333-85.333v0-853.333c0-47.128 38.205-85.333 85.333-85.333v0h1536c47.128 0 85.333 38.205 85.333 85.333v0 853.333c0 47.128-38.205 85.333-85.333 85.333v0zM128 64v170.667c94.257 0 170.667-76.41 170.667-170.667v0zM128 661.333v170.667h170.667c0-94.257-76.41-170.667-170.667-170.667v0zM853.333 192c-117.817 0-213.333 114.631-213.333 256s95.516 256 213.333 256 213.333-114.631 213.333-256-95.573-256-213.333-256zM1578.667 64h-170.667c0 94.257 76.41 170.667 170.667 170.667v0zM1578.667 661.333c-94.257 0-170.667 76.41-170.667 170.667v0h170.667z" />
<glyph unicode="&#xe91f;" glyph-name="squares-b" d="M382.959 960h-291.382c-49.951 0-91.577-41.626-91.577-91.577v-291.382c0-49.951 41.626-91.577 91.577-91.577h291.382c49.951 0 91.577 41.626 91.577 91.577v291.382c0 49.951-41.626 91.577-91.577 91.577zM399.61 577.041c0-8.325-8.325-24.976-24.976-24.976h-283.057c-8.325 8.325-16.65 16.65-16.65 24.976v291.382c0 8.325 8.325 16.65 16.65 16.65h291.382c8.325 0 24.976-8.325 24.976-24.976l-8.325-283.057zM932.423 960h-291.382c-49.951 0-91.577-41.626-91.577-91.577v-291.382c0-49.951 41.626-91.577 91.577-91.577h291.382c49.951 0 91.577 41.626 91.577 91.577v291.382c0 49.951-41.626 91.577-91.577 91.577 0 0 0 0 0 0zM957.398 577.041c0-8.325-8.325-24.976-24.976-24.976h-291.382c-8.325 0-24.976 8.325-24.976 24.976v291.382c0 8.325 8.325 24.976 24.976 24.976h291.382c8.325 0 24.976-8.325 24.976-24.976v-291.382zM382.959 410.537h-291.382c-49.951 0-91.577-41.626-91.577-91.577 0 0 0 0 0 0v-291.382c0-49.951 41.626-91.577 91.577-91.577h291.382c49.951 0 91.577 41.626 91.577 91.577v291.382c0 49.951-41.626 91.577-91.577 91.577 0 0 0 0 0 0zM399.61 27.577c0-8.325-8.325-24.976-24.976-24.976h-283.057c-8.325 0-24.976 8.325-24.976 24.976v291.382c0 8.325 8.325 24.976 24.976 24.976h291.382c8.325 0 24.976-8.325 24.976-24.976l-8.325-291.382zM932.423 410.537h-291.382c-49.951 0-91.577-41.626-91.577-91.577v-291.382c0-49.951 41.626-91.577 91.577-91.577h291.382c49.951 0 91.577 41.626 91.577 91.577v291.382c0 49.951-41.626 91.577-91.577 91.577 0 0 0 0 0 0zM957.398 27.577c0-8.325-8.325-24.976-24.976-24.976h-291.382c-8.325 0-24.976 8.325-24.976 24.976v291.382c0 8.325 8.325 24.976 24.976 24.976h291.382c8.325 0 24.976-8.325 24.976-24.976v-291.382z" />
<glyph unicode="&#xe920;" glyph-name="statistics" d="M151.984 480.206c24.232 0.011 46.213 9.644 62.329 25.286l-0.022-0.022 88.823-44.383c-0.545-3.172-0.933-6.937-1.076-10.764l-0.005-0.161c0-49.716 40.303-90.018 90.018-90.018s90.018 40.303 90.018 90.018v0c-0.088 14.039-3.418 27.279-9.28 39.037l0.232-0.515 120.404 120.517c11.26-5.633 24.521-8.965 38.552-9.047h0.027c49.683 0.032 89.953 40.283 90.018 89.955v0.006c-0.139 9.566-1.774 18.703-4.679 27.254l0.184-0.624 104.699 78.24c13.984-9.403 31.203-15.008 49.732-15.008 49.653 0 89.904 40.252 89.904 89.904s-40.252 89.904-89.904 89.904c-49.653 0-89.904-40.252-89.904-89.904 0-0.025 0-0.050 0-0.075v0.004c0.139-9.566 1.774-18.703 4.679-27.254l-0.184 0.624-104.699-78.467c-14.113 9.721-31.578 15.526-50.399 15.526-49.464 0-89.563-40.099-89.563-89.563 0-14.309 3.355-27.834 9.322-39.831l-0.234 0.521-120.404-120.176c-11.365 5.695-24.763 9.029-38.939 9.029-24.127 0-45.999-9.657-61.961-25.316l0.014 0.014-88.823 44.383c0.546 3.172 0.933 6.937 1.076 10.765l0.005 0.16c0 0.017 0 0.037 0 0.057 0 49.716-40.303 90.018-90.018 90.018s-90.018-40.303-90.018-90.018c0-49.716 40.303-90.018 90.018-90.018v0zM994.013-4.026h-31.979v634.168c0 16.561-13.426 29.987-29.987 29.987v0h-120.062c-16.561 0-29.987-13.426-29.987-29.987v0-634.111h-59.974v454.074c0 16.561-13.426 29.987-29.987 29.987h-120.062c-16.561 0-29.987-13.426-29.987-29.987v0-454.074h-59.974v214.007c0 16.561-13.426 29.987-29.987 29.987v0h-120.005c-16.561 0-29.987-13.426-29.987-29.987v0-214.064h-60.031v334.126c0 16.561-13.426 29.987-29.987 29.987v0h-120.005c-16.561 0-29.987-13.426-29.987-29.987v0-334.069h-32.036c-16.577 0-30.016-13.438-30.016-30.016s13.438-30.016 30.016-30.016v0h964.026c16.577 0 30.016 13.438 30.016 30.016s-13.438 30.016-30.016 30.016v0z" />
<glyph unicode="&#xe921;" glyph-name="tab7-b" horiz-adv-x="1166" d="M1166.222 686.933l-96.711-750.933h-324.267l-96.711 756.622h392.533l85.333 267.378 45.511-11.378-73.956-261.689h68.267zM603.022 254.578c0 0 11.378 96.711-153.6 96.711h-267.378c-164.978 0-153.6-96.711-153.6-96.711h574.578zM28.444 32.711c0 0-11.378-96.711 153.6-96.711h267.378c164.978 0 153.6 96.711 153.6 96.711h-574.578zM580.267 83.911c28.444 5.689 51.2 28.444 51.2 62.578 5.689 28.444-17.067 56.889-51.2 62.578h-529.067c-28.444-5.689-51.2-28.444-51.2-62.578 0-28.444 17.067-56.889 51.2-62.578h529.067z" />
<glyph unicode="&#xe922;" glyph-name="tab8-b" horiz-adv-x="1394" d="M415.289 61.156h-51.2c-5.689 0-5.689 0-5.689 5.689v409.6c0 22.756 5.689 51.2 28.444 51.2s28.444-17.067 28.444-39.822v-227.556h585.956v130.844c0 56.889 62.578 56.889 62.578 0v-329.956c0-5.689 0-5.689-5.689-5.689-62.578 0-56.889-5.689-56.889 11.378v85.333c0 5.689 0 11.378-5.689 11.378h-574.578c-5.689 0-5.689-5.689-5.689-11.378v-85.333c5.689 0 5.689-5.689 0-5.689zM682.667 294.4v142.222c0 5.689 0 5.689 5.689 5.689h216.178c39.822 0 73.956-5.689 73.956-45.511v-102.4c0-5.689 0-5.689-5.689-5.689l-290.133 5.689c0-5.689 0-5.689 0 0zM608.711 288.711h-130.844c-17.067 0-34.133 11.378-34.133 28.444 0 11.378 0 22.756 11.378 28.444 5.689 5.689 17.067 5.689 28.444 5.689h108.089v68.267c0 11.378 0 17.067 5.689 28.444 11.378 11.378 28.444 11.378 39.822 0 5.689-5.689 11.378-17.067 11.378-28.444v-73.956c0-22.756-17.067-56.889-39.822-56.889zM438.044 442.311c0 34.133 28.444 68.267 68.267 68.267 17.067 0 34.133-5.689 45.511-17.067 5.689-11.378 11.378-17.067 17.067-22.756 17.067-34.133 0-73.956-34.133-85.333-22.756-11.378-56.889-11.378-73.956 11.378-11.378 11.378-22.756 28.444-22.756 45.511zM62.578 374.044c17.067 0 34.133 5.689 51.2 11.378 17.067 11.378 39.822 28.444 56.889 45.511 11.378 5.689 22.756 11.378 34.133 17.067v-415.289c0-22.756 0-45.511 0-68.267 5.689-5.689 17.067-28.444 39.822-28.444h904.533c17.067 0 34.133 11.378 45.511 28.444 17.067 17.067 11.378 34.133 11.378 62.578v420.978c11.378-5.689 17.067-17.067 28.444-22.756 22.756-17.067 39.822-34.133 56.889-45.511 28.444-22.756 68.267-17.067 91.022 11.378 5.689 11.378 11.378 22.756 11.378 34.133 0 22.756-5.689 45.511-28.444 56.889l-176.356 130.844c-45.511 28.444-91.022 68.267-130.844 96.711-102.4 73.956-204.8 147.911-307.2 227.556-5.689 5.689-17.067 11.378-22.756 17.067-22.756 11.378-45.511 11.378-68.267 0-5.689-5.689-28.444-17.067-34.133-28.444-199.111-142.222-398.222-284.444-591.644-432.356-28.444-22.756-34.133-68.267-11.378-96.711 5.689-5.689 11.378-11.378 17.067-11.378 0-5.689 11.378-11.378 22.756-11.378v0z" />
<glyph unicode="&#xe923;" glyph-name="tab20" horiz-adv-x="653" d="M230.229 851.001c0 61.015 49.463 110.478 110.478 110.478s110.478-49.463 110.478-110.478v0c0-61.015-49.463-110.478-110.478-110.478s-110.478 49.463-110.478 110.478v0zM462.393 690.859c-9.642 7.566-20.484 14.59-31.939 20.603l-1.17 0.559c-5.951 3.051-13.049 5.982-20.398 8.354l-1.049 0.293c-15.704 5.153-33.914 8.703-52.758 9.921l-0.661 0.034 28.444-295.026-41.188-47.559-47.047 47.559 35.726 295.424c-13.373-0.328-26.19-1.762-38.641-4.218l1.436 0.236c-18.756-2.838-35.649-8.557-51.030-16.742l0.854 0.415c-29.574-18.058-53.691-42.285-71.098-71.029l-0.526-0.935c-3.129-4.437-6.144-8.818-10.581-14.791-10.98-15.076-21.163-27.136-27.25-26.453-26.627 8.666-49.577 22.089-68.963 39.416l0.185-0.162c-6.832 5.813-15.758 9.348-25.51 9.348-11.835 0-22.454-5.208-29.69-13.456l-0.039-0.045c-5.883-6.69-9.474-15.521-9.474-25.191 0-11.742 5.294-22.248 13.625-29.261l0.058-0.048c29.818-25.962 65.845-45.618 105.514-56.449l1.892-0.44c4.338-0.724 9.337-1.138 14.432-1.138 0.026 0 0.052 0 0.078 0h-0.004c39.066 4.247 71.943 27.337 89.695 59.866l0.303 0.607c3.356 4.608 6.713 9.444 10.183 14.279s6.94 9.899 10.524 14.791c-2.617-51.2-8.078-160.427-11.378-253.838-1.024-27.762 19.172-43.179 49.209-45.113 18.489-1.138 42.325 14.336 58.197 14.336 26.283 0 50.46-12.572 68.551-10.24 17.523 0.92 32.144 12.396 37.684 28.149l0.091 0.296c0.010 2.691 0.016 5.873 0.016 9.058 0 90.083-4.779 179.050-14.098 266.661l0.94-10.901c28.868-47.061 45.965-104.044 45.965-165.021 0-5.988-0.165-11.938-0.49-17.845l0.036 0.822c0.602-21.021 17.786-37.832 38.897-37.832 0.085 0 0.17 0 0.256 0.001h0.84c21.24 0.286 38.347 17.571 38.347 38.852 0 0.201-0.002 0.402-0.005 0.602v-0.030c-2.788 127.659-35.385 216.235-96.996 263.282zM546.020 404.252h18.148c36.352 0 65.764 21.618 65.764 48.356s-29.355 48.412-65.764 48.412h-457.899c-36.238 0-65.707-21.675-65.707-48.412s29.468-48.356 65.707-48.356h34.133v-358.969h-116.167v-109.284h628.508v109.284h-106.496v358.969z" />
<glyph unicode="&#xe924;" horiz-adv-x="1092" d="M996.284 960h-900.315c-0.042 0-0.093 0-0.143 0-52.898 0-95.785-42.862-95.825-95.75v-640.201c0-0.042 0-0.093 0-0.143 0-52.898 42.862-95.785 95.75-95.825h98.408v-160.282c-0.002-0.129-0.003-0.281-0.003-0.434 0-17.483 14.173-31.655 31.655-31.655 8.939 0 17.013 3.705 22.769 9.664l0.009 0.009 182.985 182.412h564.711c0.042 0 0.093 0 0.143 0 52.898 0 95.785 42.862 95.825 95.75v640.487c0 0.021 0 0.046 0 0.072 0 52.912-42.853 95.815-95.746 95.897h-0.008z" />
<glyph unicode="&#xe925;" horiz-adv-x="1092" d="M800.765 618.882c-3.931 11.477-13.919 19.885-26.052 21.468l-0.161 0.017-138.224 19.838-61.449 122.253c-6.121 9.518-16.658 15.734-28.647 15.734s-22.527-6.215-28.566-15.599l-0.081-0.134-61.449-122.253-138.224-19.838c-12.3-1.584-22.296-9.998-26.146-21.262l-0.066-0.224c-0.839-2.823-1.322-6.066-1.322-9.421 0-9.434 3.816-17.977 9.989-24.169l-0.001 0.001 99.191-94.751-23.706-133.067c-0.254-1.53-0.398-3.294-0.398-5.091 0-10.726 5.16-20.247 13.133-26.217l0.085-0.061c5.185-4.017 11.781-6.439 18.943-6.439 5.505 0 10.676 1.431 15.161 3.942l-0.157-0.081 123.542 63.311 123.542-63.311c4.328-2.43 9.499-3.861 15.004-3.861 7.162 0 13.758 2.422 19.014 6.493l-0.071-0.053c8.061 6.016 13.224 15.528 13.224 26.246 0 1.809-0.147 3.583-0.43 5.311l0.025-0.189-23.706 133.067 99.191 94.751c6.238 6.202 10.099 14.79 10.099 24.279 0 3.315-0.471 6.52-1.35 9.552l0.060-0.242z" />
<glyph unicode="&#xe926;" glyph-name="tab22" horiz-adv-x="1026" d="M157.888 272.681v441.456h-67.639c-49.882-0.179-90.249-40.658-90.249-90.564 0-0.089 0-0.178 0-0.267v0.014-596.881c0-0.075 0-0.164 0-0.253 0-49.808 40.378-90.186 90.186-90.186 0.022 0 0.045 0 0.067 0h596.877c0.038 0 0.083 0 0.127 0 50.037 0 90.628 40.437 90.879 90.415v65.2h-439.245c-99.771 0.535-180.504 81.289-181.003 181.018v0.048zM935.709 960h-596.818c-0.019 0-0.041 0-0.064 0-49.998 0-90.547-40.46-90.691-90.425v-596.895c0.107-50.092 40.668-90.674 90.74-90.817h596.832c49.979 0.144 90.438 40.692 90.438 90.691 0 0.045 0 0.089 0 0.134v-0.007 596.818c0 0.019 0 0.041 0 0.063 0 49.948-40.491 90.438-90.438 90.438v0zM923.457 322.763c-4.88-8.8-14.114-14.657-24.716-14.657-0.192 0-0.384 0.002-0.575 0.006h-511.529c-0.122-0.002-0.265-0.003-0.409-0.003-15.487 0-28.041 12.554-28.041 28.041 0 2.931 0.45 5.756 1.284 8.412l-0.054-0.199 73.197 242.011c5.614 18.065 22.18 30.955 41.756 30.955 14.606 0 27.536-7.175 35.457-18.194l0.089-0.13 102.312-143.741c7.996-11.166 20.926-18.355 35.536-18.355 9.158 0 17.657 2.825 24.671 7.652l-0.147-0.096 94.607 63.976c6.86 4.704 15.342 7.512 24.479 7.512 15.219 0 28.619-7.791 36.428-19.601l0.101-0.163 94.733-144.499c2.814-4.31 4.488-9.586 4.488-15.254 0-5.019-1.313-9.731-3.613-13.812l0.073 0.141z" />
<glyph unicode="&#xe927;" glyph-name="tab23" horiz-adv-x="1073" d="M779.023 717.493c0-133.933-108.574-242.507-242.507-242.507s-242.507 108.574-242.507 242.507c0 133.933 108.574 242.507 242.507 242.507s242.507-108.574 242.507-242.507zM1040.685 658.101c-18 15.26-41.492 24.539-67.151 24.539-30.371 0-57.706-13-76.743-33.739l-0.069-0.076-110.411-116.555c-61.763-68.409-150.762-111.216-249.76-111.216-99.225 0-188.407 43.005-249.922 111.392l-0.271 0.306-110.472 116.555c-19.042 20.572-46.188 33.407-76.331 33.407-25.67 0-49.167-9.309-67.297-24.735l0.147 0.122c-20.011-20.167-32.378-47.944-32.378-78.609 0-28.627 10.777-54.736 28.495-74.493l-0.092 0.105 238.712-282.624v-259.614c0-14.87 12.055-26.925 26.925-26.925v0h485.075c14.87 0 26.925 12.055 26.925 26.925v0 259.674l238.411 282.323c17.732 19.688 28.579 45.881 28.579 74.608 0 30.671-12.365 58.455-32.381 78.638l0.008-0.008z" />
<glyph unicode="&#xe928;" glyph-name="upcoming-expirationb" horiz-adv-x="1121" d="M703.26 701.838c0-141.385-114.615-256-256-256s-256 114.615-256 256c0 141.385 114.615 256 256 256s256-114.615 256-256zM646.372 189.838c0 68.267 28.444 130.844 73.956 176.356-28.444 11.378-62.578 17.067-96.711 17.067v0h-34.133c-91.022-45.511-199.111-45.511-290.133 0h-34.133c-147.911 0-267.378-119.467-267.378-267.378v-85.333c0-51.2 45.511-96.711 96.711-96.711v0h705.422c11.378 0 28.444 0 39.822 5.689-113.778 34.133-193.422 130.844-193.422 250.311zM896.683 411.705c-125.156 0-221.867-102.4-221.867-221.867s102.4-221.867 221.867-221.867 221.867 102.4 221.867 221.867v0c5.689 119.467-96.711 221.867-221.867 221.867zM993.394 93.127l-119.467 73.956v136.533h34.133v-113.778l102.4-62.578-17.067-34.133z" />
<glyph unicode="&#xe929;" glyph-name="vendor" horiz-adv-x="1020" d="M780.004 530.83v75.093c0 16.558-13.423 29.98-29.98 29.98s-29.98-13.423-29.98-29.98v-75.093c-35.191-12.759-59.892-45.868-59.961-84.756v-89.949h179.883v89.941c-0.068 38.896-24.77 72.006-59.334 84.565l-0.627 0.199zM539.989 530.83v75.093c0 16.558-13.423 29.98-29.98 29.98s-29.98-13.423-29.98-29.98v0-75.093c-35.191-12.759-59.892-45.868-59.961-84.756v-89.949h179.883v89.941c-0.068 38.896-24.77 72.006-59.334 84.565l-0.627 0.199zM299.975 530.83v75.093c0 16.558-13.423 29.98-29.98 29.98s-29.98-13.423-29.98-29.98v0-75.093c-35.208-12.765-59.918-45.902-59.961-84.816v-89.946h179.883v89.941c-0.043 38.919-24.752 72.056-59.334 84.622l-0.627 0.199zM648.078 295.765h155.876v-359.765h-155.876zM216.007 295.765h155.876v-359.765h-155.876zM432.071 295.765h155.876v-359.765h-155.876zM1020.018 830.009v100.011c0 0 0 0 0 0 0 16.558-13.423 29.98-29.98 29.98-0.060 0-0.12 0-0.18-0.001h-959.877c-16.558 0-29.98-13.423-29.98-29.98v0-100.011c0.045-38.949 24.778-72.111 59.39-84.679l0.627-0.199v-449.422h-30.037c0 0-0.001 0-0.001 0-16.478 0-29.851-13.293-29.98-29.741v-299.987c0-16.558 13.423-29.98 29.98-29.98h126.009v359.993h-36.011v449.422c11.588 4.181 21.558 10.232 30.063 17.879l-0.082-0.073c15.833-14.251 36.893-22.967 59.989-22.967s44.157 8.717 60.071 23.040l-0.081-0.072c15.833-14.251 36.893-22.967 59.989-22.967s44.157 8.717 60.071 23.040l-0.081-0.072c15.833-14.251 36.893-22.967 59.989-22.967s44.157 8.717 60.071 23.040l-0.081-0.072c15.833-14.251 36.893-22.967 59.989-22.967s44.157 8.717 60.071 23.040l-0.081-0.072c15.833-14.251 36.893-22.967 59.989-22.967s44.157 8.717 60.071 23.040l-0.081-0.072c15.833-14.251 36.893-22.967 59.989-22.967s44.157 8.717 60.071 23.040l-0.081-0.072c8.424-7.572 18.393-13.622 29.353-17.607l0.627-0.199v-449.422h-36.011v-359.993h126.066c16.558 0 29.98 13.423 29.98 29.98v0 299.975c0 16.558-13.423 29.98-29.98 29.98v0h-29.98v449.422c35.216 12.705 59.968 45.766 60.131 84.631v0.020z" />
<glyph unicode="&#xe92a;" glyph-name="village" horiz-adv-x="1505" d="M104.49 656.98l-104.49-83.592v-637.388h449.306v700.082l198.531 167.184-177.633 156.735-240.327-198.531v177.633h-125.388v-282.122zM292.571 113.633h-125.388v198.531h125.388v-198.531zM940.408 176.327h198.531v-240.327h-198.531v240.327zM1504.653 573.388l-459.755 386.612-470.204-386.612v-637.388h240.327v365.714h438.857v-365.714h240.327v637.388z" />
</font>
</defs>
</svg>
