 <svg xmlns="http://www.w3.org/2000/svg" width="15.012" height="20.999" viewBox="0 0 41.012 63.999">
                <g id="Group_53887" data-name="Group 53887" transform="translate(-11.494)">
                  <path id="Path_44241" data-name="Path 44241" d="M52.505,7.135V62.006A1.993,1.993,0,0,1,50.511,64H13.488a1.994,1.994,0,0,1-1.994-1.993V7.135a1.994,1.994,0,0,1,1.994-1.994H50.512A1.994,1.994,0,0,1,52.505,7.135Z"/>
                  <rect id="Rectangle_19364" data-name="Rectangle 19364" width="19.781" height="1.895" transform="translate(22.109 46.706)" fill="#e5e5e5"/>
                  <rect id="Rectangle_19365" data-name="Rectangle 19365" width="19.781" height="1.895" transform="translate(22.109 51.211)" fill="#e5e5e5"/>
                  <rect id="Rectangle_19366" data-name="Rectangle 19366" width="29.981" height="1.895" transform="translate(17.009 55.717)" fill="#e5e5e5"/>
                  <rect id="Rectangle_19367" data-name="Rectangle 19367" width="19.126" height="1.937" transform="translate(22.437 7.835)" fill="#fff"/>
                  <path id="Path_44242" data-name="Path 44242" d="M36.9,8.364h-9.42L25.629,0H38.746Z"/>
                  <rect id="Rectangle_19368" data-name="Rectangle 19368" width="23.16" height="25.626" transform="translate(20.42 14.495)" fill="#fff"/>
                  <path id="Path_44243" data-name="Path 44243" d="M39.816,40.121H24.184V36.5A7.816,7.816,0,0,1,32,28.68h0A7.816,7.816,0,0,1,39.816,36.5Z"/>
                  <circle id="Ellipse_2800" data-name="Ellipse 2800" cx="4.305" cy="4.305" r="4.305" transform="translate(27.695 18.485)"/>
                </g>
              </svg>