<?xml version="1.0" encoding="utf-8"?>
<!-- Generator: Adobe Illustrator 23.0.0, SVG Export Plug-In . SVG Version: 6.00 Build 0)  -->
<svg version="1.1" id="Layer_1" xmlns="http://www.w3.org/2000/svg" xmlns:xlink="http://www.w3.org/1999/xlink" x="0px" y="0px"
	 viewBox="0 0 21.3 21.3" style="enable-background:new 0 0 21.3 21.3;" xml:space="preserve">
<style type="text/css">
	.st0{fill:#283279;}
</style>
<g id="park-tickets-couple" transform="translate(-0.205 0.001)">
	<path id="Path_3967" class="st0" d="M18.9,10.6c-0.1,0.5-0.5,0.8-1,0.8c-0.2,0-0.3,0.2-0.3,0.4c0,0.1,0.1,0.2,0.2,0.3
		c0.5,0.2,0.7,0.7,0.6,1.2l-0.1,0.5c-0.1,0.6-0.8,1-1.4,0.8c-0.2,0-0.3-0.1-0.5-0.1l-0.7-0.1l-1-0.2l-1.1-0.2l-1.3-0.3
		c-0.5-0.1-0.9-0.2-1.4-0.3l-1.4-0.3l-1.4-0.3l-1.3-0.3l-1.2-0.2l-1-0.2L3.8,12l-0.6-0.1L3,11.8h0c0,0.2,0,0.5-0.1,0.7
		c-0.2,0.5-0.7,0.7-1.2,0.6c-0.1,0-0.3,0-0.4,0.2l-0.2,0.4c-0.1,0.1,0,0.3,0.1,0.4c0,0,15.6,7.2,15.6,7.2c0.1,0,0.3,0,0.4-0.2
		l0.2-0.4c0.1-0.1,0-0.3-0.1-0.4c-0.5-0.4-0.6-1.1-0.2-1.5c0.3-0.3,0.7-0.5,1.1-0.4c0.1,0,0.3,0,0.4-0.2l0.2-0.4
		c0.1-0.1,0-0.3-0.1-0.4c-0.5-0.4-0.6-1.1-0.2-1.5c0.3-0.3,0.7-0.5,1.1-0.4c0.1,0,0.3,0,0.4-0.2l0.2-0.4c0.1-0.1,0-0.3-0.1-0.4
		c-0.5-0.4-0.6-1.1-0.2-1.5c0.3-0.3,0.7-0.5,1.1-0.4c0.1,0,0.3,0,0.4-0.2l0.2-0.5c0.1-0.1,0-0.3-0.1-0.4c0,0,0,0,0,0L19,10.5
		L18.9,10.6z"/>
	<path id="Path_3968" class="st0" d="M0.4,10.5c0,0,16.8,3.4,16.9,3.4c0.1,0,0.3-0.1,0.3-0.2l0.1-0.5c0-0.1-0.1-0.3-0.2-0.3
		c-0.6-0.3-0.8-0.9-0.5-1.5c0.2-0.4,0.5-0.6,0.9-0.6c0.1,0,0.3-0.1,0.3-0.2l0.1-0.3l0-0.1c0-0.1-0.1-0.3-0.2-0.3
		c-0.6-0.3-0.8-0.9-0.5-1.5c0.2-0.4,0.5-0.6,0.9-0.6c0.1,0,0.3-0.1,0.3-0.2l0.1-0.5c0-0.1-0.1-0.3-0.2-0.3c-0.6-0.3-0.8-0.9-0.5-1.5
		c0.2-0.4,0.5-0.6,0.9-0.6c0.1,0,0.3-0.1,0.3-0.2l0.1-0.5c0-0.1-0.1-0.3-0.2-0.3c0,0,0,0,0,0C19.4,3.4,2.5,0,2.5,0
		C2.3,0,2.2,0.1,2.2,0.2L2.1,0.7c0,0.1,0.1,0.3,0.2,0.3C2.9,1.3,3.1,2,2.8,2.5C2.6,2.9,2.3,3.1,1.9,3.2c-0.1,0-0.3,0.1-0.3,0.2
		L1.5,3.9c0,0.1,0.1,0.3,0.2,0.3c0.6,0.3,0.8,0.9,0.5,1.5C2,6,1.7,6.3,1.2,6.3C1.1,6.3,1,6.4,0.9,6.5L0.8,7c0,0.1,0.1,0.3,0.2,0.3
		c0.5,0.3,0.8,0.9,0.5,1.5C1.4,9.2,1,9.4,0.6,9.4c-0.1,0-0.3,0.1-0.3,0.2l-0.1,0.5C0.2,10.3,0.3,10.4,0.4,10.5z M14.8,5
		c0.1-0.3,0.3-0.5,0.6-0.4c0.3,0.1,0.5,0.3,0.4,0.6l0,0l-0.7,3.5l-0.4,2.2c-0.1,0.3-0.3,0.4-0.5,0.4c0,0-0.1,0-0.1,0
		c-0.3-0.1-0.5-0.3-0.4-0.6l0.5-2.4L14.8,5z M5.1,3c0.1-0.3,0.3-0.5,0.6-0.4C6,2.6,6.2,2.9,6.1,3.2L5.9,4.4L5.6,5.8L5.4,6.9L5,8.9
		C4.9,9.2,4.7,9.4,4.4,9.4c0,0-0.1,0-0.1,0c0,0,0,0,0,0C4,9.3,3.9,9,3.9,8.7L4,8.3l0.2-1L5.1,3z"/>
</g>
</svg>
