<svg xmlns="http://www.w3.org/2000/svg" width="21.261" height="21.27" viewBox="0 0 21.261 21.27">
  <g id="park-tickets-couple" transform="translate(-0.205 0.001)">
    <path id="Path_3967" data-name="Path 3967" d="M58.684,485.66a1.075,1.075,0,0,1-1.025.846.35.35,0,0,0-.134.665,1.074,1.074,0,0,1,.62,1.176l-.091.453a1.131,1.131,0,0,1-1.358.829c-.162-.039-.328-.069-.492-.1l-.725-.145-.958-.192-1.142-.229-1.276-.257c-.453-.091-.909-.181-1.362-.274l-1.4-.281-1.384-.278-1.321-.266-1.209-.242-1.047-.209-.838-.168-.576-.117-.265-.054-.013,0a1.094,1.094,0,0,1-.078.689,1.106,1.106,0,0,1-1.213.622.325.325,0,0,0-.365.16l-.194.421a.326.326,0,0,0,.114.382c.022.017,15.581,7.19,15.607,7.2a.326.326,0,0,0,.365-.16l.194-.421a.326.326,0,0,0-.114-.382,1.1,1.1,0,0,1,.9-1.947.326.326,0,0,0,.365-.16l.194-.421a.326.326,0,0,0-.114-.382,1.1,1.1,0,0,1,.9-1.947.326.326,0,0,0,.365-.16l.194-.421a.326.326,0,0,0-.114-.382,1.1,1.1,0,0,1,.9-1.947.326.326,0,0,0,.365-.16l.214-.466a.266.266,0,0,0-.13-.354L58.72,485.5Z" transform="translate(-39.735 -475.024)" fill="#757575"/>
    <path id="Path_3968" data-name="Path 3968" d="M.409,10.488c.026.013,16.822,3.383,16.85,3.383a.326.326,0,0,0,.317-.24l.091-.453a.327.327,0,0,0-.2-.345,1.105,1.105,0,0,1,.423-2.1.326.326,0,0,0,.317-.24l.067-.332.024-.123a.327.327,0,0,0-.2-.345,1.105,1.105,0,0,1,.423-2.1.326.326,0,0,0,.317-.24l.091-.453a.327.327,0,0,0-.2-.345,1.105,1.105,0,0,1,.423-2.1.326.326,0,0,0,.317-.24l.1-.5a.266.266,0,0,0-.209-.313S2.481,0,2.464,0A.268.268,0,0,0,2.2.213l-.1.5a.327.327,0,0,0,.2.345,1.105,1.105,0,0,1-.423,2.1.326.326,0,0,0-.317.24l-.091.453a.327.327,0,0,0,.2.345,1.105,1.105,0,0,1-.423,2.1.326.326,0,0,0-.317.24L.841,7a.327.327,0,0,0,.2.345,1.106,1.106,0,0,1-.423,2.1.326.326,0,0,0-.317.24l-.091.453A.32.32,0,0,0,.409,10.488ZM14.8,4.955a.539.539,0,1,1,1.058.212l-.712,3.544L14.7,10.9a.54.54,0,0,1-.529.434.586.586,0,0,1-.106-.011.54.54,0,0,1-.423-.635l.49-2.437ZM5.065,3a.539.539,0,0,1,1.058.212L5.877,4.437,5.6,5.825,5.374,6.943l-.4,2a.54.54,0,0,1-.529.434.586.586,0,0,1-.106-.011A.257.257,0,0,1,4.3,9.354a.538.538,0,0,1-.378-.624l.08-.4.209-1.045Z" transform="translate(0 0)" fill="#757575"/>
  </g>
</svg>
