<svg xmlns="http://www.w3.org/2000/svg" width="19.667" height="18.743" viewBox="0 0 19.667 18.743">
  <g id="Group_16063" data-name="Group 16063" transform="translate(-2095.833 -20421.84) rotate(180)">
    <g id="next" transform="translate(-2106.011 -20440)">
      <path id="Chevron_Right_1_" d="M63.534,8.161l-7.9-7.9a.888.888,0,1,0-1.256,1.254L61.65,8.788l-7.276,7.274a.888.888,0,1,0,1.256,1.255l7.9-7.9A.9.9,0,0,0,63.534,8.161Z" transform="translate(-54.113 0)" fill="#a2a2a2" stroke="#a2a2a2" stroke-width="1"/>
    </g>
    <g id="next-2" data-name="next" transform="translate(-2115 -20440)">
      <path id="Chevron_Right_1_2" data-name="Chevron_Right_1_" d="M63.534,8.161l-7.9-7.9a.888.888,0,1,0-1.256,1.254L61.65,8.788l-7.276,7.274a.888.888,0,1,0,1.256,1.255l7.9-7.9A.9.9,0,0,0,63.534,8.161Z" transform="translate(-54.113 0)" fill="#a2a2a2" stroke="#a2a2a2" stroke-width="1"/>
    </g>
  </g>
</svg>
