<svg xmlns="http://www.w3.org/2000/svg" width="8.254" height="4.877" viewBox="0 0 8.254 4.877">
  <g id="Group_86" data-name="Group 86" transform="translate(8.254) rotate(90)">
    <g id="Group_85" data-name="Group 85" transform="translate(0)">
      <path id="Path_25" data-name="Path 25" d="M1106.227,787.027l-3.077,3.076a.569.569,0,0,0-.15.3.39.39,0,0,0,.15.3l.3.3a.569.569,0,0,0,.3.15.39.39,0,0,0,.3-.15l3.677-3.677a.569.569,0,0,0,.15-.3.39.39,0,0,0-.15-.3l-3.677-3.677a.569.569,0,0,0-.3-.15.389.389,0,0,0-.3.15l-.3.3a.561.561,0,0,0,0,.675Z" transform="translate(-1103 -782.9)" fill="#fff"/>
    </g>
  </g>
</svg>
