<?xml version="1.0" encoding="utf-8"?>
<!-- Generator: Adobe Illustrator 23.0.0, SVG Export Plug-In . SVG Version: 6.00 Build 0)  -->
<svg version="1.1" id="Layer_1" xmlns="http://www.w3.org/2000/svg" xmlns:xlink="http://www.w3.org/1999/xlink" x="0px" y="0px"
	 viewBox="0 0 13 11.2" style="enable-background:new 0 0 13 11.2;" xml:space="preserve">
<style type="text/css">
	.st0{fill:#283279;}
</style>
<g id="art" transform="translate(0 -26.403)">
	<g id="Group_3594" transform="translate(0 26.403)">
		<g id="Group_3593" transform="translate(0 0)">
			<path id="Path_9148" class="st0" d="M7,9.3c-0.4,0-0.8-0.1-1.1-0.4l-2-1.7C3.6,6.9,3.2,6.9,2.8,7.1L0,9.2v1.3
				c0,0.4,0.3,0.7,0.6,0.7h10c0.4,0,0.8-0.3,0.8-0.7V7L7.9,9.1C7.6,9.2,7.3,9.3,7,9.3z"/>
			<circle id="Ellipse_260" class="st0" cx="6.6" cy="5.2" r="0.8"/>
			<path id="Path_9149" class="st0" d="M12.8,1.4c-0.1-0.2-0.3-0.2-0.5-0.3L2.9,0C2.5-0.1,2.2,0.2,2.1,0.6c0,0,0,0,0,0L2,1.9h8.3
				c0.8,0,1.4,0.7,1.5,1.4v6.1c0,0,0.2-0.1,0.2-0.1c0.1-0.1,0.2-0.3,0.2-0.5L13,1.9C13,1.7,13,1.5,12.8,1.4z"/>
			<path id="Path_9150" class="st0" d="M10.6,2.8h-10C0.3,2.8,0,3.1,0,3.5c0,0,0,0,0,0v4.8l2.4-1.6c0.6-0.4,1.4-0.4,2,0.1l2,1.6
				c0.3,0.2,0.7,0.3,1.1,0.1l4-2.1V3.5C11.4,3.1,11.1,2.8,10.6,2.8z M6.8,6.7C6.1,6.7,5.4,6.1,5.3,5.4s0.5-1.5,1.3-1.5
				c0.1,0,0.1,0,0.2,0c0.8-0.1,1.5,0.5,1.5,1.3S7.8,6.6,7,6.7C7,6.7,6.9,6.7,6.8,6.7z"/>
		</g>
	</g>
</g>
</svg>
