<svg xmlns="http://www.w3.org/2000/svg" width="13" height="11.232" viewBox="0 0 13 11.232">
  <g id="art" transform="translate(0 -26.403)">
    <g id="Group_3594" data-name="Group 3594" transform="translate(0 26.403)">
      <g id="Group_3593" data-name="Group 3593" transform="translate(0 0)">
        <path id="Path_9148" data-name="Path 9148" d="M6.993,241.017a1.708,1.708,0,0,1-1.072-.4l-1.98-1.744a.872.872,0,0,0-1.126-.054L0,240.89v1.344a.654.654,0,0,0,.616.689H10.644a.765.765,0,0,0,.8-.69v-3.523l-3.578,2.07A1.653,1.653,0,0,1,6.993,241.017Z" transform="translate(0 -231.692)" fill="#757575"/>
        <circle id="Ellipse_260" data-name="Ellipse 260" cx="0.799" cy="0.799" r="0.799" transform="translate(5.795 4.436)" fill="#757575"/>
        <path id="Path_9149" data-name="Path 9149" d="M67.333,27.761a.643.643,0,0,0-.469-.261l-9.47-1.095a.692.692,0,0,0-.782.591l-.156,1.355h8.306a1.494,1.494,0,0,1,1.46,1.442v6.134c0-.035.156-.07.226-.139a.591.591,0,0,0,.226-.469l.817-7.055A.678.678,0,0,0,67.333,27.761Z" transform="translate(-54.492 -26.403)" fill="#757575"/>
        <path id="Path_9150" data-name="Path 9150" d="M10.673,105.9H.7a.7.7,0,0,0-.672.727v4.82l2.4-1.624a1.69,1.69,0,0,1,2.016.085l2,1.624a.981.981,0,0,0,1.072.085l3.959-2.148v-2.841A.81.81,0,0,0,10.673,105.9Zm-3.8,3.907a1.424,1.424,0,1,1,0-2.841,1.424,1.424,0,1,1,0,2.841Z" transform="translate(-0.029 -103.135)" fill="#757575"/>
      </g>
    </g>
  </g>
</svg>
