<svg xmlns="http://www.w3.org/2000/svg" width="6.854" height="15.046" viewBox="0 0 6.854 15.046">
  <g id="Assign" transform="translate(-14.534 -6.56)">
    <path id="Path_5342" data-name="Path 5342" d="M0,0H1.2V.6H0Z" transform="translate(19.753 8.062) rotate(-45)" fill="#fff"/>
    <path id="Path_5343" data-name="Path 5343" d="M0,0H.6V1.2H0Z" transform="translate(14.838 7.637) rotate(-45)" fill="#fff"/>
    <path id="Path_5344" data-name="Path 5344" d="M51,19h.6v1.2H51Z" transform="translate(-33.34 -12.44)" fill="#fff"/>
    <path id="Path_5345" data-name="Path 5345" d="M49.234,29.759a1.181,1.181,0,0,0-.973-.573,1.964,1.964,0,1,0-3.114,0,1.182,1.182,0,0,0-.973.574l-.728,1.228a1.2,1.2,0,0,0-.043,1.147L44.74,34.84v5.075a.4.4,0,0,0,.393.4h3.143a.4.4,0,0,0,.393-.4V34.84l1.337-2.707a1.2,1.2,0,0,0-.043-1.147ZM46.7,26.8a1.193,1.193,0,1,1-1.179,1.193A1.187,1.187,0,0,1,46.7,26.8Zm2.6,4.984-.634,1.284V31.168h-.786v8.349H47.1V34.747h-.786v4.771h-.786V31.168H44.74v1.894l-.634-1.283a.4.4,0,0,1,.014-.383l.728-1.227a.394.394,0,0,1,.337-.193h3.039a.4.4,0,0,1,.337.193l.728,1.228A.4.4,0,0,1,49.3,31.779Z" transform="translate(-28.743 -18.706)" fill="#fff"/>
  </g>
</svg>
