<svg xmlns="http://www.w3.org/2000/svg" width="36.463" height="36.463" viewBox="0 0 36.463 36.463">
  <path id="Icon_awesome-donate" data-name="Icon awesome-donate" d="M18.232,29.627A14.813,14.813,0,1,0,3.418,14.813,14.811,14.811,0,0,0,18.232,29.627ZM16.651,6.937V5.74a1.179,1.179,0,0,1,1.182-1.182h.791A1.179,1.179,0,0,1,19.806,5.74V6.951a5.615,5.615,0,0,1,3.062,1.1.8.8,0,0,1,.085,1.218l-1.161,1.1a.8.8,0,0,1-1,.071,2.344,2.344,0,0,0-1.268-.363h-2.77a1.239,1.239,0,0,0-1.161,1.3,1.287,1.287,0,0,0,.862,1.253L20.9,13.966a4.462,4.462,0,0,1,3.112,4.28A4.391,4.391,0,0,1,19.8,22.69v1.2a1.179,1.179,0,0,1-1.182,1.182h-.791a1.179,1.179,0,0,1-1.182-1.182V22.676a5.615,5.615,0,0,1-3.062-1.1.8.8,0,0,1-.085-1.218l1.161-1.1a.8.8,0,0,1,1-.071,2.344,2.344,0,0,0,1.268.363h2.77a1.239,1.239,0,0,0,1.161-1.3,1.287,1.287,0,0,0-.862-1.253l-4.437-1.332a4.462,4.462,0,0,1-3.112-4.28,4.4,4.4,0,0,1,4.209-4.444ZM34.184,25.069H31.87a17.261,17.261,0,0,1-5.2,4.558h4.544a.636.636,0,0,1,.684.57v1.139a.636.636,0,0,1-.684.57H5.242a.636.636,0,0,1-.684-.57V30.2a.636.636,0,0,1,.684-.57H9.785a17.346,17.346,0,0,1-5.2-4.558H2.279A2.277,2.277,0,0,0,0,27.348v6.837a2.277,2.277,0,0,0,2.279,2.279H34.184a2.277,2.277,0,0,0,2.279-2.279V27.348A2.277,2.277,0,0,0,34.184,25.069Z" transform="translate(0 0)" fill="#fff"/>
</svg>
