<svg xmlns="http://www.w3.org/2000/svg" width="19.458" height="19.458" viewBox="0 0 19.458 19.458">
  <path id="Icon_awesome-donate" data-name="Icon awesome-donate" d="M9.729,15.81a7.9,7.9,0,1,0-7.9-7.9A7.9,7.9,0,0,0,9.729,15.81ZM8.885,3.7V3.063a.629.629,0,0,1,.631-.631h.422a.629.629,0,0,1,.631.631v.646a3,3,0,0,1,1.634.585.426.426,0,0,1,.046.65l-.619.589a.428.428,0,0,1-.532.038,1.251,1.251,0,0,0-.676-.194H8.942a.661.661,0,0,0-.619.7.687.687,0,0,0,.46.669l2.368.711a2.381,2.381,0,0,1,1.661,2.284,2.343,2.343,0,0,1-2.246,2.371v.638a.629.629,0,0,1-.631.631H9.512a.629.629,0,0,1-.631-.631V12.1a3,3,0,0,1-1.634-.585.426.426,0,0,1-.046-.65l.619-.589a.428.428,0,0,1,.532-.038,1.251,1.251,0,0,0,.676.194h1.478a.661.661,0,0,0,.619-.7.687.687,0,0,0-.46-.669L8.3,8.357A2.381,2.381,0,0,1,6.639,6.073,2.346,2.346,0,0,1,8.885,3.7Zm9.357,9.676H17.007a9.211,9.211,0,0,1-2.774,2.432h2.425a.339.339,0,0,1,.365.3v.608a.339.339,0,0,1-.365.3H2.8a.339.339,0,0,1-.365-.3v-.608a.339.339,0,0,1,.365-.3H5.222a9.257,9.257,0,0,1-2.774-2.432H1.216A1.215,1.215,0,0,0,0,14.594v3.648a1.215,1.215,0,0,0,1.216,1.216H18.242a1.215,1.215,0,0,0,1.216-1.216V14.594A1.215,1.215,0,0,0,18.242,13.377Z" fill="#fff"/>
</svg>
