<?xml version="1.0" encoding="utf-8"?>
<!-- Generator: Adobe Illustrator 23.0.0, SVG Export Plug-In . SVG Version: 6.00 Build 0)  -->
<svg version="1.1" id="Layer_1" xmlns="http://www.w3.org/2000/svg" xmlns:xlink="http://www.w3.org/1999/xlink" x="0px" y="0px"
	 viewBox="0 0 11 5.6" style="enable-background:new 0 0 11 5.6;" xml:space="preserve">
<style type="text/css">
	.st0{fill:#0071BC;}
</style>
<path id="Path_14701" class="st0" d="M5.5,3.5c-0.1,0.1-0.2,0.1-0.3,0L1.6,0.3C1.4,0.2,1.2,0.1,1,0.1c-0.3,0-0.5,0.1-0.7,0.3
	c0,0,0,0-0.1,0.1c-0.3,0.3-0.3,0.9,0.1,1.2l4.2,3.7c0.4,0.4,1.1,0.4,1.5,0l4.6-3.7c0,0,0,0,0.1-0.1c0.3-0.3,0.3-0.9,0-1.2
	c-0.4-0.4-0.9-0.4-1.3-0.1L5.5,3.5z"/>
</svg>
