<svg id="Group_1655" data-name="Group 1655" xmlns="http://www.w3.org/2000/svg" width="19.02" height="19.02" viewBox="0 0 19.02 19.02">
  <g id="Group_1191" data-name="Group 1191" transform="translate(0 0)">
    <g id="calendar" transform="translate(0)">
      <g id="Group_803" data-name="Group 803">
        <g id="Group_802" data-name="Group 802">
          <path id="Path_1806" data-name="Path 1806" d="M16.791,1.486H15.9V0H14.414V1.486H4.606V0H3.12V1.486H2.229A2.231,2.231,0,0,0,0,3.715V16.791A2.231,2.231,0,0,0,2.229,19.02H16.791a2.231,2.231,0,0,0,2.229-2.229V3.715A2.231,2.231,0,0,0,16.791,1.486Zm.743,15.305a.744.744,0,0,1-.743.743H2.229a.744.744,0,0,1-.743-.743V6.984H17.534Zm0-11.293H1.486V3.715a.744.744,0,0,1,.743-.743H3.12V4.458H4.606V2.972h9.807V4.458H15.9V2.972h.892a.744.744,0,0,1,.743.743Z" fill="#a2a2a2"/>
        </g>
      </g>
      <g id="Group_805" data-name="Group 805" transform="translate(2.799 8.386)">
        <g id="Group_804" data-name="Group 804" transform="translate(0 0)">
          <rect id="Rectangle_179" data-name="Rectangle 179" width="1.68" height="1.68" fill="#a2a2a2"/>
        </g>
      </g>
      <g id="Group_807" data-name="Group 807" transform="translate(5.816 8.386)">
        <g id="Group_806" data-name="Group 806" transform="translate(0 0)">
          <rect id="Rectangle_180" data-name="Rectangle 180" width="1.68" height="1.68" transform="translate(0)" fill="#a2a2a2"/>
        </g>
      </g>
      <g id="Group_809" data-name="Group 809" transform="translate(8.724 8.386)">
        <g id="Group_808" data-name="Group 808" transform="translate(0 0)">
          <rect id="Rectangle_181" data-name="Rectangle 181" width="1.68" height="1.68" fill="#a2a2a2"/>
        </g>
      </g>
      <g id="Group_811" data-name="Group 811" transform="translate(11.632 8.386)">
        <g id="Group_810" data-name="Group 810" transform="translate(0 0)">
          <rect id="Rectangle_182" data-name="Rectangle 182" width="1.68" height="1.68" fill="#a2a2a2"/>
        </g>
      </g>
      <g id="Group_813" data-name="Group 813" transform="translate(14.378 8.386)">
        <g id="Group_812" data-name="Group 812" transform="translate(0 0)">
          <rect id="Rectangle_183" data-name="Rectangle 183" width="1.68" height="1.68" fill="#a2a2a2"/>
        </g>
      </g>
      <g id="Group_815" data-name="Group 815" transform="translate(2.799 11.294)">
        <g id="Group_814" data-name="Group 814" transform="translate(0 0)">
          <rect id="Rectangle_184" data-name="Rectangle 184" width="1.68" height="1.68" transform="translate(0 0)" fill="#a2a2a2"/>
        </g>
      </g>
      <g id="Group_817" data-name="Group 817" transform="translate(5.816 11.294)">
        <g id="Group_816" data-name="Group 816" transform="translate(0 0)">
          <rect id="Rectangle_185" data-name="Rectangle 185" width="1.68" height="1.68" transform="translate(0 0)" fill="#a2a2a2"/>
        </g>
      </g>
      <g id="Group_819" data-name="Group 819" transform="translate(8.724 11.294)">
        <g id="Group_818" data-name="Group 818" transform="translate(0 0)">
          <rect id="Rectangle_186" data-name="Rectangle 186" width="1.68" height="1.68" transform="translate(0 0)" fill="#a2a2a2"/>
        </g>
      </g>
      <g id="Group_821" data-name="Group 821" transform="translate(11.632 11.294)">
        <g id="Group_820" data-name="Group 820" transform="translate(0 0)">
          <rect id="Rectangle_187" data-name="Rectangle 187" width="1.68" height="1.68" transform="translate(0 0)" fill="#a2a2a2"/>
        </g>
      </g>
      <g id="Group_823" data-name="Group 823" transform="translate(2.799 14.467)">
        <g id="Group_822" data-name="Group 822" transform="translate(0 0)">
          <rect id="Rectangle_188" data-name="Rectangle 188" width="1.68" height="1.68" transform="translate(0 0)" fill="#a2a2a2"/>
        </g>
      </g>
      <g id="Group_825" data-name="Group 825" transform="translate(5.816 14.467)">
        <g id="Group_824" data-name="Group 824" transform="translate(0 0)">
          <rect id="Rectangle_189" data-name="Rectangle 189" width="1.68" height="1.68" transform="translate(0 0)" fill="#a2a2a2"/>
        </g>
      </g>
      <g id="Group_827" data-name="Group 827" transform="translate(8.724 14.467)">
        <g id="Group_826" data-name="Group 826" transform="translate(0 0)">
          <rect id="Rectangle_190" data-name="Rectangle 190" width="1.68" height="1.68" transform="translate(0 0)" fill="#a2a2a2"/>
        </g>
      </g>
      <g id="Group_829" data-name="Group 829" transform="translate(11.632 14.467)">
        <g id="Group_828" data-name="Group 828" transform="translate(0 0)">
          <rect id="Rectangle_191" data-name="Rectangle 191" width="1.68" height="1.68" transform="translate(0 0)" fill="#a2a2a2"/>
        </g>
      </g>
      <g id="Group_831" data-name="Group 831" transform="translate(14.378 11.294)">
        <g id="Group_830" data-name="Group 830" transform="translate(0 0)">
          <rect id="Rectangle_192" data-name="Rectangle 192" width="1.68" height="1.68" transform="translate(0 0)" fill="#a2a2a2"/>
        </g>
      </g>
    </g>
  </g>
</svg>
