<svg xmlns="http://www.w3.org/2000/svg" width="11.8" height="12" viewBox="0 0 11.8 12">
  <g id="Group_1469" data-name="Group 1469" transform="translate(-773.5 -440.5)" opacity="0.7">
    <g id="Group_1468" data-name="Group 1468">
      <g id="Group_1467" data-name="Group 1467">
        <path id="Path_879" data-name="Path 879" d="M777.7,447.1a.265.265,0,0,0-.3-.3h-1a.265.265,0,0,0-.3.3v1a.265.265,0,0,0,.3.3h1a.265.265,0,0,0,.3-.3v-1Z" fill="#2866a0"/>
        <path id="Path_880" data-name="Path 880" d="M780.1,447.1a.265.265,0,0,0-.3-.3h-1a.265.265,0,0,0-.3.3v1a.265.265,0,0,0,.3.3h1a.265.265,0,0,0,.3-.3Z" fill="#2866a0"/>
        <path id="Path_881" data-name="Path 881" d="M782.4,447.1a.265.265,0,0,0-.3-.3h-1a.265.265,0,0,0-.3.3v1a.265.265,0,0,0,.3.3h1a.265.265,0,0,0,.3-.3Z" fill="#2866a0"/>
        <path id="Path_882" data-name="Path 882" d="M777.7,449.5a.265.265,0,0,0-.3-.3h-1a.265.265,0,0,0-.3.3v1a.265.265,0,0,0,.3.3h1a.265.265,0,0,0,.3-.3v-1Z" fill="#2866a0"/>
        <path id="Path_883" data-name="Path 883" d="M780.1,449.5a.265.265,0,0,0-.3-.3h-1a.265.265,0,0,0-.3.3v1a.265.265,0,0,0,.3.3h1a.265.265,0,0,0,.3-.3Z" fill="#2866a0"/>
        <path id="Path_884" data-name="Path 884" d="M782.4,449.5a.265.265,0,0,0-.3-.3h-1a.265.265,0,0,0-.3.3v1a.265.265,0,0,0,.3.3h1a.265.265,0,0,0,.3-.3v-1Z" fill="#2866a0"/>
        <path id="Path_885" data-name="Path 885" d="M784.1,441.8v1.5a1.155,1.155,0,0,1-1.2,1.2h-.7a1.155,1.155,0,0,1-1.2-1.2v-1.5h-3.4v1.5a1.155,1.155,0,0,1-1.2,1.2h-.7a1.155,1.155,0,0,1-1.2-1.2v-1.5a1.028,1.028,0,0,0-1,1.1v8.5a1.11,1.11,0,0,0,1.1,1.1h9.6a1.11,1.11,0,0,0,1.1-1.1v-8.5A1.382,1.382,0,0,0,784.1,441.8Zm-.3,9.1a.472.472,0,0,1-.5.5h-8a.472.472,0,0,1-.5-.5v-4.4a.472.472,0,0,1,.5-.5h8a.472.472,0,0,1,.5.5v4.4Z" fill="#2866a0"/>
        <path id="Path_886" data-name="Path 886" d="M775.7,443.7h.7a.43.43,0,0,0,.4-.4v-2.4a.43.43,0,0,0-.4-.4h-.7a.43.43,0,0,0-.4.4v2.4A.366.366,0,0,0,775.7,443.7Z" fill="#2866a0"/>
        <path id="Path_887" data-name="Path 887" d="M782.2,443.7h.7a.43.43,0,0,0,.4-.4v-2.4a.43.43,0,0,0-.4-.4h-.7a.43.43,0,0,0-.4.4v2.4A.43.43,0,0,0,782.2,443.7Z" fill="#2866a0"/>
      </g>
    </g>
  </g>
</svg>
