<svg id="calendar" xmlns="http://www.w3.org/2000/svg" width="30" height="30" viewBox="0 0 30 30">
  <path id="Path_4" data-name="Path 4" d="M216.7,192a8.7,8.7,0,1,0,8.7,8.7A8.7,8.7,0,0,0,216.7,192Zm0,16.383a7.679,7.679,0,1,1,7.679-7.679A7.679,7.679,0,0,1,216.7,208.383Zm0,0" transform="translate(-195.407 -179.407)" fill="#a3a3a3"/>
  <path id="Path_5" data-name="Path 5" d="M292.1,259.166V256h-1.024v3.166a1.535,1.535,0,0,0-.93.93H288v1.024h2.142a1.532,1.532,0,1,0,1.954-1.954Zm-.512,1.954a.512.512,0,1,1,.512-.512A.512.512,0,0,1,291.584,261.12Zm0,0" transform="translate(-270.086 -239.404)" fill="#a3a3a3"/>
  <path id="Path_6" data-name="Path 6" d="M240,320h1.024v1.024H240Zm0,0" transform="translate(-225.012 -299.303)" fill="#a3a3a3"/>
  <path id="Path_7" data-name="Path 7" d="M336,416h1.024v1.024H336Zm0,0" transform="translate(-315.017 -389.072)" fill="#a3a3a3"/>
  <path id="Path_8" data-name="Path 8" d="M432,320h1.024v1.024H432Zm0,0" transform="translate(-405.072 -299.303)" fill="#a3a3a3"/>
  <path id="Path_9" data-name="Path 9" d="M336,224h1.024v1.024H336Zm0,0" transform="translate(-315.017 -209.512)" fill="#a3a3a3"/>
  <path id="Path_10" data-name="Path 10" d="M1.024,22.014V7.167h23.55v4.608H25.6V4.608a2.563,2.563,0,0,0-2.56-2.56H19.455V1.536a1.536,1.536,0,0,0-3.072,0v.512H9.215V1.536a1.536,1.536,0,0,0-3.072,0v.512H2.56A2.563,2.563,0,0,0,0,4.608V22.014a2.563,2.563,0,0,0,2.56,2.56H12.8V23.55H2.56A1.536,1.536,0,0,1,1.024,22.014ZM17.407,1.536a.512.512,0,1,1,1.024,0V3.584a.512.512,0,0,1-1.024,0Zm-10.239,0a.512.512,0,1,1,1.024,0V3.584a.512.512,0,1,1-1.024,0ZM2.56,3.072H6.144v.512a1.536,1.536,0,0,0,3.072,0V3.072h7.167v.512a1.536,1.536,0,0,0,3.072,0V3.072h3.584a1.536,1.536,0,0,1,1.536,1.536V6.144H1.024V4.608A1.536,1.536,0,0,1,2.56,3.072Zm0,0" fill="#a3a3a3"/>
  <path id="Path_11" data-name="Path 11" d="M52.1,161.024A1.024,1.024,0,0,0,51.072,160H49.024A1.024,1.024,0,0,0,48,161.024v2.048a1.024,1.024,0,0,0,1.024,1.024h2.048a1.024,1.024,0,0,0,1.024-1.024Zm-3.072,2.048v-2.048h2.048v2.048Zm0,0" transform="translate(-44.928 -149.638)" fill="#a3a3a3"/>
  <path id="Path_12" data-name="Path 12" d="M132.1,161.024A1.024,1.024,0,0,0,131.072,160h-2.048A1.024,1.024,0,0,0,128,161.024v2.048a1.024,1.024,0,0,0,1.024,1.024h2.048a1.024,1.024,0,0,0,1.024-1.024Zm-3.072,2.048v-2.048h2.048v2.048Zm0,0" transform="translate(-120.029 -149.638)" fill="#a3a3a3"/>
  <path id="Path_13" data-name="Path 13" d="M212.1,162.56v-1.536A1.024,1.024,0,0,0,211.072,160h-2.048A1.024,1.024,0,0,0,208,161.024v2.048a1.024,1.024,0,0,0,1.024,1.024h1.024v-1.024h-1.024v-2.048h2.048v1.536Zm0,0" transform="translate(-195.048 -149.638)" fill="#a3a3a3"/>
  <path id="Path_14" data-name="Path 14" d="M51.072,256H49.024A1.024,1.024,0,0,0,48,257.024v2.048a1.024,1.024,0,0,0,1.024,1.024h2.048a1.024,1.024,0,0,0,1.024-1.024v-2.048A1.024,1.024,0,0,0,51.072,256Zm-2.048,3.072v-2.048h2.048v2.048Zm0,0" transform="translate(-44.928 -239.421)" fill="#a3a3a3"/>
  <path id="Path_15" data-name="Path 15" d="M131.072,256h-2.048A1.024,1.024,0,0,0,128,257.024v2.048a1.024,1.024,0,0,0,1.024,1.024h2.048a1.024,1.024,0,0,0,1.024-1.024v-2.048A1.024,1.024,0,0,0,131.072,256Zm-2.048,3.072v-2.048h2.048v2.048Zm0,0" transform="translate(-120.029 -239.421)" fill="#a3a3a3"/>
  <path id="Path_16" data-name="Path 16" d="M292.1,161.536v-.512A1.024,1.024,0,0,0,291.072,160h-2.048A1.024,1.024,0,0,0,288,161.024v.512h1.024v-.512h2.048v.512Zm0,0" transform="translate(-270.066 -149.649)" fill="#a3a3a3"/>
</svg>
