<svg xmlns="http://www.w3.org/2000/svg" width="13.882" height="13.105" viewBox="0 0 13.882 13.105">
  <g id="calendar" transform="translate(0 -25)">
    <path id="Path_14956" data-name="Path 14956" d="M13.882,29.085V27.411a1.251,1.251,0,0,0-1.22-1.276H12.5v1.56a.407.407,0,1,1-.813,0V25.425a.407.407,0,1,0-.813,0v.709H8.161v1.56a.407.407,0,1,1-.813,0V25.425a.407.407,0,1,0-.813,0v.709H3.823v1.56a.407.407,0,1,1-.813,0V25.425a.407.407,0,1,0-.813,0v.709H1.22A1.251,1.251,0,0,0,0,27.411v1.674Z" fill="#0071bc"/>
    <path id="Path_14957" data-name="Path 14957" d="M0,199v6.893a1.251,1.251,0,0,0,1.22,1.276H12.662a1.251,1.251,0,0,0,1.22-1.276V199Zm3.9,5.9H3.037a.426.426,0,0,1,0-.851H3.9a.426.426,0,0,1,0,.851Zm0-1.815H3.037a.426.426,0,0,1,0-.851H3.9a.426.426,0,0,1,0,.851Zm0-1.815H3.037a.426.426,0,0,1,0-.851H3.9a.426.426,0,0,1,0,.851Zm3.47,3.631H6.507a.426.426,0,0,1,0-.851h.868a.426.426,0,0,1,0,.851Zm0-1.815H6.507a.426.426,0,0,1,0-.851h.868a.426.426,0,0,1,0,.851Zm0-1.815H6.507a.426.426,0,0,1,0-.851h.868a.426.426,0,0,1,0,.851Zm3.47,3.631H9.978a.426.426,0,0,1,0-.851h.868a.426.426,0,0,1,0,.851Zm0-1.815H9.978a.426.426,0,0,1,0-.851h.868a.426.426,0,0,1,0,.851Zm0-1.815H9.978a.426.426,0,0,1,0-.851h.868a.426.426,0,0,1,0,.851Z" transform="translate(0 -169.064)" fill="#0071bc"/>
  </g>
</svg>
