<svg xmlns="http://www.w3.org/2000/svg" width="24.316" height="24.729" viewBox="0 0 24.316 24.729">
  <g id="Group_1469" data-name="Group 1469" transform="translate(-773.5 -440.5)" opacity="0.7">
    <g id="Group_1468" data-name="Group 1468" transform="translate(773.5 440.5)">
      <g id="Group_1467" data-name="Group 1467">
        <path id="Path_879" data-name="Path 879" d="M779.4,447.418a.546.546,0,0,0-.618-.618h-2.061a.546.546,0,0,0-.618.618v2.061a.546.546,0,0,0,.618.618h2.061a.546.546,0,0,0,.618-.618v-2.061Z" transform="translate(-770.742 -433.818)" fill="#2866a0"/>
        <path id="Path_880" data-name="Path 880" d="M781.8,447.418a.546.546,0,0,0-.618-.618h-2.061a.546.546,0,0,0-.618.618v2.061a.546.546,0,0,0,.618.618h2.061a.546.546,0,0,0,.618-.618Z" transform="translate(-768.196 -433.818)" fill="#2866a0"/>
        <path id="Path_881" data-name="Path 881" d="M784.1,447.418a.546.546,0,0,0-.618-.618h-2.061a.546.546,0,0,0-.618.618v2.061a.546.546,0,0,0,.618.618h2.061a.546.546,0,0,0,.618-.618Z" transform="translate(-765.757 -433.818)" fill="#2866a0"/>
        <path id="Path_882" data-name="Path 882" d="M779.4,449.818a.546.546,0,0,0-.618-.618h-2.061a.546.546,0,0,0-.618.618v2.061a.546.546,0,0,0,.618.618h2.061a.546.546,0,0,0,.618-.618v-2.061Z" transform="translate(-770.742 -431.272)" fill="#2866a0"/>
        <path id="Path_883" data-name="Path 883" d="M781.8,449.818a.546.546,0,0,0-.618-.618h-2.061a.546.546,0,0,0-.618.618v2.061a.546.546,0,0,0,.618.618h2.061a.546.546,0,0,0,.618-.618Z" transform="translate(-768.196 -431.272)" fill="#2866a0"/>
        <path id="Path_884" data-name="Path 884" d="M784.1,449.818a.546.546,0,0,0-.618-.618h-2.061a.546.546,0,0,0-.618.618v2.061a.546.546,0,0,0,.618.618h2.061a.546.546,0,0,0,.618-.618v-2.061Z" transform="translate(-765.757 -431.272)" fill="#2866a0"/>
        <path id="Path_885" data-name="Path 885" d="M795.344,441.8v3.091a2.381,2.381,0,0,1-2.473,2.473h-1.443a2.381,2.381,0,0,1-2.473-2.473V441.8h-7.006v3.091a2.381,2.381,0,0,1-2.473,2.473h-1.443a2.381,2.381,0,0,1-2.473-2.473V441.8a2.118,2.118,0,0,0-2.061,2.267v17.516a2.287,2.287,0,0,0,2.267,2.267h19.783a2.287,2.287,0,0,0,2.267-2.267V444.067A2.848,2.848,0,0,0,795.344,441.8Zm-.618,18.753a.973.973,0,0,1-1.03,1.03H777.209a.973.973,0,0,1-1.03-1.03v-9.067a.973.973,0,0,1,1.03-1.03H793.7a.973.973,0,0,1,1.03,1.03v9.067Z" transform="translate(-773.5 -439.121)" fill="#2866a0"/>
        <path id="Path_886" data-name="Path 886" d="M776.124,447.094h1.443a.886.886,0,0,0,.824-.824v-4.946a.886.886,0,0,0-.824-.824h-1.443a.887.887,0,0,0-.824.824v4.946A.755.755,0,0,0,776.124,447.094Z" transform="translate(-771.59 -440.5)" fill="#2866a0"/>
        <path id="Path_887" data-name="Path 887" d="M782.624,447.094h1.443a.886.886,0,0,0,.824-.824v-4.946a.886.886,0,0,0-.824-.824h-1.443a.887.887,0,0,0-.824.824v4.946A.887.887,0,0,0,782.624,447.094Z" transform="translate(-764.696 -440.5)" fill="#2866a0"/>
      </g>
    </g>
  </g>
</svg>
