<svg xmlns="http://www.w3.org/2000/svg" width="27.377" height="27.377" viewBox="0 0 27.377 27.377">
  <path id="check-mark" d="M19.739,9.346a1.069,1.069,0,0,1,0,1.512l-7.174,7.174a1.07,1.07,0,0,1-1.512,0L7.638,14.617A1.069,1.069,0,0,1,9.15,13.1l2.659,2.659,6.418-6.418a1.07,1.07,0,0,1,1.512,0Zm7.638,4.343A13.688,13.688,0,1,1,13.688,0,13.681,13.681,0,0,1,27.377,13.689Zm-2.139,0a11.55,11.55,0,1,0-11.55,11.55A11.543,11.543,0,0,0,25.238,13.689Zm0,0" transform="translate(0 0)" fill="#22b573"/>
</svg>
