<svg xmlns="http://www.w3.org/2000/svg" width="12.629" height="9.264" viewBox="0 0 12.629 9.264">
  <path id="Path_14984" data-name="Path 14984" d="M142.645,189.306a.859.859,0,0,1-.612-.253l-3.3-3.3a.865.865,0,1,1,1.223-1.223l2.693,2.693,6.623-6.623a.865.865,0,1,1,1.223,1.223l-7.234,7.234A.859.859,0,0,1,142.645,189.306Zm-3.3-4.994a.825.825,0,0,0-.584,1.409l3.3,3.3a.825.825,0,0,0,1.167,0l7.234-7.234a.825.825,0,0,0-1.167-1.167l-6.651,6.651-2.72-2.72A.82.82,0,0,0,139.341,184.312Z" transform="translate(-138.265 -180.192)" fill="#22b573" stroke="#22b573" stroke-width="0.3"/>
</svg>
