<?xml version="1.0" encoding="utf-8"?>
<!-- Generator: Adobe Illustrator 23.0.0, SVG Export Plug-In . SVG Version: 6.00 Build 0)  -->
<svg version="1.1" id="Icon_ionic-ios-checkmark-circle-outline"
	 xmlns="http://www.w3.org/2000/svg" xmlns:xlink="http://www.w3.org/1999/xlink" x="0px" y="0px" viewBox="0 0 13.6 13.6"
	 style="enable-background:new 0 0 13.6 13.6;" xml:space="preserve">
<style type="text/css">
	.st0{fill:#22B573;}
</style>
<path id="Path_37" class="st0" d="M10.3,4.7L9.7,4.1c0,0-0.1,0-0.1,0l0,0c0,0-0.1,0-0.1,0l-4,4L4.1,6.7c0-0.1-0.1-0.1-0.2,0
	c0,0,0,0,0,0L3.3,7.3c-0.1,0.1-0.1,0.1,0,0.2c0,0,0,0,0,0l1.8,1.8c0.1,0.1,0.2,0.2,0.4,0.2c0.1,0,0.3-0.1,0.4-0.2l0,0l4.4-4.4
	C10.3,4.9,10.3,4.8,10.3,4.7z"/>
<path id="Path_38" class="st0" d="M6.8,0.9c3.2,0,5.9,2.6,5.9,5.9s-2.6,5.9-5.9,5.9S0.9,10,0.9,6.8c0-1.6,0.6-3,1.7-4.1
	C3.7,1.5,5.2,0.9,6.8,0.9 M6.8,0C3,0,0,3,0,6.8s3,6.8,6.8,6.8s6.8-3,6.8-6.8c0,0,0,0,0,0C13.6,3,10.5,0,6.8,0C6.8,0,6.8,0,6.8,0z"/>
</svg>
