<svg id="Icon_ionic-ios-checkmark-circle-outline" data-name="Icon ionic-ios-checkmark-circle-outline" xmlns="http://www.w3.org/2000/svg" width="10.392" height="10.392" viewBox="0 0 10.392 10.392">
  <path id="Path_37" data-name="Path 37" d="M15.785,12.688l-.44-.452a.1.1,0,0,0-.07-.03h0a.091.091,0,0,0-.07.03l-3.048,3.07L11.049,14.2a.1.1,0,0,0-.14,0l-.445.445a.1.1,0,0,0,0,.142l1.4,1.4a.442.442,0,0,0,.292.142.464.464,0,0,0,.29-.137h0l3.34-3.358A.107.107,0,0,0,15.785,12.688Z" transform="translate(-7.926 -9.069)" fill="#404040"/>
  <path id="Path_38" data-name="Path 38" d="M8.571,4.074a4.495,4.495,0,1,1-3.18,1.317,4.467,4.467,0,0,1,3.18-1.317m0-.7a5.2,5.2,0,1,0,5.2,5.2,5.2,5.2,0,0,0-5.2-5.2Z" transform="translate(-3.375 -3.375)" fill="#404040"/>
</svg>
