<svg id="Community" xmlns="http://www.w3.org/2000/svg" width="34" height="34" viewBox="0 0 34 34">
  <path id="Path_3953" data-name="Path 3953" d="M31.344,14.344a2.629,2.629,0,0,0-1.594.545v-4.8a.531.531,0,0,0-.531-.531H27.094a.531.531,0,0,0-.531.531v3.719H20.188V7.438h3.719a.531.531,0,0,0,.531-.531V4.781a.531.531,0,0,0-.531-.531h-4.8a2.629,2.629,0,0,0,.545-1.594,2.656,2.656,0,0,0-5.312,0,2.629,2.629,0,0,0,.545,1.594h-4.8a.531.531,0,0,0-.531.531V6.906a.531.531,0,0,0,.531.531h3.719v6.375H7.438V10.094a.531.531,0,0,0-.531-.531H4.781a.531.531,0,0,0-.531.531v4.8a2.629,2.629,0,0,0-1.594-.545,2.656,2.656,0,0,0,0,5.313,2.629,2.629,0,0,0,1.594-.545v4.8a.531.531,0,0,0,.531.531H6.906a.531.531,0,0,0,.531-.531V20.188h6.375v6.375H10.094a.531.531,0,0,0-.531.531v2.125a.531.531,0,0,0,.531.531h4.8a2.629,2.629,0,0,0-.545,1.594,2.656,2.656,0,0,0,5.313,0,2.629,2.629,0,0,0-.545-1.594h4.8a.531.531,0,0,0,.531-.531V27.094a.531.531,0,0,0-.531-.531H20.188V20.188h6.375v3.719a.531.531,0,0,0,.531.531h2.125a.531.531,0,0,0,.531-.531v-4.8a2.629,2.629,0,0,0,1.594.545,2.656,2.656,0,0,0,0-5.312ZM2.656,18.594A1.594,1.594,0,1,1,4.25,17,1.6,1.6,0,0,1,2.656,18.594ZM17,1.063a1.594,1.594,0,1,1-1.594,1.594A1.6,1.6,0,0,1,17,1.063ZM6.906,19.125a.531.531,0,0,0-.531.531v3.719H5.313V10.625H6.375v3.719a.531.531,0,0,0,.531.531h6.906v1.594H10.094v1.063h3.719v1.594ZM17,32.938a1.594,1.594,0,1,1,1.594-1.594A1.6,1.6,0,0,1,17,32.938Zm6.375-5.312v1.063H10.625V27.625h3.719a.531.531,0,0,0,.531-.531V20.188h1.594v3.719h1.063V20.188h1.594v6.906a.531.531,0,0,0,.531.531Zm-8.5-8.5v-4.25h4.25v4.25Zm4.781-12.75a.531.531,0,0,0-.531.531v6.906H17.531V10.094H16.469v3.719H14.875V6.906a.531.531,0,0,0-.531-.531H10.625V5.313h12.75V6.375Zm9.031,17H27.625V19.656a.531.531,0,0,0-.531-.531H20.188V17.531h3.719V16.469H20.188V14.875h6.906a.531.531,0,0,0,.531-.531V10.625h1.063Zm2.656-4.781A1.594,1.594,0,1,1,32.938,17,1.6,1.6,0,0,1,31.344,18.594Z" fill="#a3a3a3"/>
  <rect id="Rectangle_1225" data-name="Rectangle 1225" width="1" height="1" transform="translate(7.555 26.763)" fill="#a3a3a3"/>
  <rect id="Rectangle_1226" data-name="Rectangle 1226" width="1" height="1" transform="translate(6.171 26.763)" fill="#a3a3a3"/>
  <rect id="Rectangle_1227" data-name="Rectangle 1227" width="1" height="1" transform="translate(6.171 25.386)" fill="#a3a3a3"/>
  <rect id="Rectangle_1228" data-name="Rectangle 1228" width="1" height="1" transform="translate(25.875 4.942)" fill="#a3a3a3"/>
  <rect id="Rectangle_1229" data-name="Rectangle 1229" width="1" height="1" transform="translate(28 4.942)" fill="#a3a3a3"/>
  <rect id="Rectangle_1230" data-name="Rectangle 1230" width="1" height="1" transform="translate(28 7.065)" fill="#a3a3a3"/>
  <rect id="Rectangle_1231" data-name="Rectangle 1231" width="1" height="1" transform="translate(6.171 7.065)" fill="#a3a3a3"/>
  <rect id="Rectangle_1232" data-name="Rectangle 1232" width="1" height="1" transform="translate(6.171 4.942)" fill="#a3a3a3"/>
  <rect id="Rectangle_1233" data-name="Rectangle 1233" width="1" height="1" transform="translate(7.555 4.942)" fill="#a3a3a3"/>
  <rect id="Rectangle_1234" data-name="Rectangle 1234" width="1" height="1" transform="translate(25.875 26.763)" fill="#a3a3a3"/>
  <rect id="Rectangle_1235" data-name="Rectangle 1235" width="1" height="1" transform="translate(28 26.763)" fill="#a3a3a3"/>
  <rect id="Rectangle_1236" data-name="Rectangle 1236" width="1" height="1" transform="translate(28 25.386)" fill="#a3a3a3"/>
</svg>
