<svg id="industry" xmlns="http://www.w3.org/2000/svg" width="28" height="28" viewBox="0 0 28 28">
  <g id="Group_2586" data-name="Group 2586">
    <g id="Group_2585" data-name="Group 2585">
      <path id="Path_3875" data-name="Path 3875" d="M14.374,17.351a.442.442,0,0,0-.589-.21,7.041,7.041,0,0,1-1.118.418.442.442,0,0,0-.314.339l-.468,2.339a.5.5,0,0,1-.486.4H10.122a.5.5,0,0,1-.486-.4L9.168,17.9a.442.442,0,0,0-.314-.339A7.026,7.026,0,0,1,7.3,16.916a.442.442,0,0,0-.462.017L4.854,18.256a.5.5,0,0,1-.626-.062l-.9-.9a.5.5,0,0,1-.062-.626l1.323-1.985a.442.442,0,0,0,.017-.462,7.024,7.024,0,0,1-.643-1.553.442.442,0,0,0-.339-.314l-2.339-.468a.5.5,0,0,1-.4-.486V10.122a.5.5,0,0,1,.4-.486l2.339-.468a.442.442,0,0,0,.339-.314A7.026,7.026,0,0,1,4.6,7.3a.442.442,0,0,0-.017-.462L3.264,4.854a.5.5,0,0,1,.062-.626l.9-.9a.5.5,0,0,1,.626-.062L6.838,4.587A.442.442,0,0,0,7.3,4.6a7.026,7.026,0,0,1,1.553-.643.442.442,0,0,0,.314-.339l.468-2.339a.5.5,0,0,1,.486-.4H11.4a.5.5,0,0,1,.486.4l.468,2.339a.442.442,0,0,0,.314.339,7.026,7.026,0,0,1,1.553.643.442.442,0,0,0,.462-.017l1.985-1.323a.5.5,0,0,1,.626.062l.9.9a.5.5,0,0,1,.062.626L16.933,6.838a.442.442,0,0,0-.017.462,7.026,7.026,0,0,1,.643,1.553.442.442,0,0,0,.339.314l2.339.468a.5.5,0,0,1,.4.486V11.4a.5.5,0,0,1-.4.486l-2.339.468a.442.442,0,0,0-.339.315,7.038,7.038,0,0,1-.431,1.145.442.442,0,0,0,.8.383,7.931,7.931,0,0,0,.407-1.027l2.078-.416A1.384,1.384,0,0,0,21.52,11.4V10.122A1.384,1.384,0,0,0,20.41,8.768l-2.078-.416a7.912,7.912,0,0,0-.516-1.245l1.176-1.763A1.384,1.384,0,0,0,18.82,3.6l-.9-.9a1.384,1.384,0,0,0-1.742-.172L14.412,3.7a7.918,7.918,0,0,0-1.245-.516l-.416-2.078A1.384,1.384,0,0,0,11.4,0H10.122A1.384,1.384,0,0,0,8.769,1.109L8.353,3.187A7.913,7.913,0,0,0,7.108,3.7L5.344,2.528A1.384,1.384,0,0,0,3.6,2.7l-.9.9a1.384,1.384,0,0,0-.172,1.742L3.7,7.108a7.916,7.916,0,0,0-.516,1.245l-2.078.416A1.384,1.384,0,0,0,0,10.122V11.4a1.384,1.384,0,0,0,1.109,1.353l2.078.416A7.912,7.912,0,0,0,3.7,14.412L2.528,16.176A1.384,1.384,0,0,0,2.7,17.917l.9.9a1.384,1.384,0,0,0,1.742.172l1.763-1.176a7.915,7.915,0,0,0,1.245.516l.416,2.078a1.384,1.384,0,0,0,1.353,1.109H11.4a1.384,1.384,0,0,0,1.353-1.109l.416-2.078a7.922,7.922,0,0,0,1-.393A.442.442,0,0,0,14.374,17.351Z" fill="#a3a3a3"/>
      <path id="Path_3876" data-name="Path 3876" d="M138.277,113.272a.442.442,0,0,0,.6-.192,4.971,4.971,0,0,0-7.895-5.825.442.442,0,1,0,.617.633,4.087,4.087,0,0,1,6.491,4.788A.442.442,0,0,0,138.277,113.272Z" transform="translate(-123.689 -100.056)" fill="#a3a3a3"/>
      <path id="Path_3877" data-name="Path 3877" d="M106.676,161.707a.442.442,0,0,0-.562.274,4.972,4.972,0,0,0,7.614,5.646.442.442,0,0,0-.519-.716,4.088,4.088,0,0,1-6.259-4.642A.442.442,0,0,0,106.676,161.707Z" transform="translate(-100.057 -152.841)" fill="#a3a3a3"/>
      <path id="Path_3878" data-name="Path 3878" d="M261.509,253.682l-1.279-.256a5.345,5.345,0,0,0-.28-.677l.723-1.085a1.061,1.061,0,0,0-.132-1.336l-.593-.593a1.061,1.061,0,0,0-1.336-.132l-1.085.723a5.341,5.341,0,0,0-.677-.28l-.256-1.279a1.061,1.061,0,0,0-1.038-.851h-.839a1.061,1.061,0,0,0-1.038.851l-.256,1.279a5.355,5.355,0,0,0-.677.28l-1.085-.723a1.061,1.061,0,0,0-1.336.132l-.593.593a1.061,1.061,0,0,0-.132,1.336l.723,1.085a5.343,5.343,0,0,0-.361.94.442.442,0,1,0,.852.238,4.462,4.462,0,0,1,.409-.987.442.442,0,0,0-.017-.462l-.87-1.3a.175.175,0,0,1,.022-.22l.593-.593a.175.175,0,0,1,.22-.022l1.3.87a.442.442,0,0,0,.462.017,4.463,4.463,0,0,1,.987-.409.442.442,0,0,0,.314-.339l.307-1.537a.175.175,0,0,1,.171-.14h.839a.175.175,0,0,1,.171.14l.307,1.537a.442.442,0,0,0,.314.339,4.46,4.46,0,0,1,.987.409.442.442,0,0,0,.462-.017l1.3-.87a.175.175,0,0,1,.22.022l.593.593a.175.175,0,0,1,.022.22l-.87,1.3a.442.442,0,0,0-.017.462,4.463,4.463,0,0,1,.409.987.442.442,0,0,0,.339.314l1.537.307a.175.175,0,0,1,.14.171v.839a.175.175,0,0,1-.14.171l-1.537.307a.442.442,0,0,0-.339.314,4.463,4.463,0,0,1-.409.987.442.442,0,0,0,.017.462l.87,1.3a.175.175,0,0,1-.022.22l-.593.593a.175.175,0,0,1-.22.022l-1.3-.87a.442.442,0,0,0-.462-.017,4.464,4.464,0,0,1-.987.409.442.442,0,0,0-.314.339l-.307,1.537a.175.175,0,0,1-.171.14h-.839a.175.175,0,0,1-.171-.14l-.307-1.537a.442.442,0,0,0-.314-.339,4.465,4.465,0,0,1-.987-.409.442.442,0,0,0-.462.017l-1.3.87a.175.175,0,0,1-.22-.022l-.593-.593a.175.175,0,0,1-.022-.22l.87-1.3a.442.442,0,0,0,.017-.462,4.461,4.461,0,0,1-.409-.987.442.442,0,0,0-.339-.314l-1.537-.307a.175.175,0,0,1-.14-.171v-.839a.175.175,0,0,1,.14-.171l.094-.019a.442.442,0,1,0-.174-.867l-.094.019a1.061,1.061,0,0,0-.851,1.038v.839a1.061,1.061,0,0,0,.851,1.038l1.279.256a5.346,5.346,0,0,0,.28.677l-.723,1.085a1.061,1.061,0,0,0,.132,1.336l.593.593a1.061,1.061,0,0,0,1.336.132l1.085-.723a5.342,5.342,0,0,0,.677.28l.256,1.279a1.062,1.062,0,0,0,1.038.851h.839a1.061,1.061,0,0,0,1.038-.851l.256-1.279a5.35,5.35,0,0,0,.677-.28l1.085.723a1.061,1.061,0,0,0,1.336-.132l.593-.593a1.061,1.061,0,0,0,.132-1.336l-.723-1.085a5.336,5.336,0,0,0,.28-.677l1.279-.256a1.061,1.061,0,0,0,.851-1.038v-.839A1.061,1.061,0,0,0,261.509,253.682Z" transform="translate(-234.36 -234.362)" fill="#a3a3a3"/>
      <path id="Path_3879" data-name="Path 3879" d="M337.161,335.57a1.594,1.594,0,0,1,1.592,1.592.442.442,0,0,0,.884,0,2.476,2.476,0,1,0-2.476,2.476,2.453,2.453,0,0,0,1.513-.516.442.442,0,1,0-.541-.7,1.577,1.577,0,0,1-.972.331,1.592,1.592,0,1,1,0-3.184Z" transform="translate(-316.383 -316.384)" fill="#a3a3a3"/>
      <path id="Path_3880" data-name="Path 3880" d="M152.851,150.157a2.694,2.694,0,1,0-2.694,2.694A2.7,2.7,0,0,0,152.851,150.157Zm-4.5,0a1.81,1.81,0,1,1,1.81,1.81A1.812,1.812,0,0,1,148.347,150.157Z" transform="translate(-139.399 -139.399)" fill="#a3a3a3"/>
    </g>
  </g>
</svg>
