<?xml version="1.0" encoding="utf-8"?>
<!-- Generator: Adobe Illustrator 23.0.0, SVG Export Plug-In . SVG Version: 6.00 Build 0)  -->
<svg version="1.1" id="Capa_1" xmlns="http://www.w3.org/2000/svg" xmlns:xlink="http://www.w3.org/1999/xlink" x="0px" y="0px"
	 viewBox="0 0 512 512" style="enable-background:new 0 0 512 512;" xml:space="preserve">
<style type="text/css">
	.st0{fill:#283279;}
</style>
<g>
	<g>
		<path class="st0" d="M496,320c-8.8,0-16,7.2-16,16v112H32V256h176c8.8,0,16-7.2,16-16s-7.2-16-16-16H32v-64h176
			c8.8,0,16-7.2,16-16s-7.2-16-16-16H32c-17.7,0-32,14.3-32,32v288c0,17.7,14.3,32,32,32h448c17.7,0,32-14.3,32-32V336
			C512,327.2,504.8,320,496,320z"/>
	</g>
</g>
<g>
	<g>
		<path class="st0" d="M144,320H80c-8.8,0-16,7.2-16,16s7.2,16,16,16h64c8.8,0,16-7.2,16-16S152.8,320,144,320z"/>
	</g>
</g>
<g>
	<g>
		<path class="st0" d="M502.3,81.3l-112-48c-4.1-1.7-8.6-1.7-12.6,0l-112,48c-5.9,2.5-9.7,8.3-9.7,14.7v64
			c0,88,32.5,139.5,120,189.9c2.5,1.4,5.2,2.1,8,2.1s5.5-0.7,8-2.1c87.5-50.3,120-101.7,120-189.9V96
			C512,89.6,508.2,83.8,502.3,81.3z M480,160c0,73.9-24.4,114.6-96,157.4c-71.6-43-96-83.6-96-157.4v-53.4l96-41.2l96,41.2V160z"/>
	</g>
</g>
<g>
	<g>
		<path class="st0" d="M442,131.5c-6.9-5.4-16.9-4.4-22.5,2.5l-50.3,62.9l-19.9-29.8c-5-7.4-14.9-9.3-22.2-4.4
			c-7.3,4.9-9.3,14.8-4.4,22.2l32,48c2.8,4.3,7.5,6.9,12.6,7.1c0.2,0,0.5,0,0.7,0c4.8,0,9.4-2.2,12.5-6l64-80
			C450,147.1,448.9,137,442,131.5z"/>
	</g>
</g>
</svg>
