<svg xmlns="http://www.w3.org/2000/svg" width="20.4" height="16.439" viewBox="0 0 20.4 16.439">
  <g id="crown" transform="translate(0 -49.709)">
    <path id="Path_3969" data-name="Path 3969" d="M147.294,140.393a.6.6,0,0,0-.7.478l-.081.437-1.837,1.316-.981-2.1V140a.6.6,0,0,0-1.2,0v.526l-.981,2.1-1.836-1.316-.085-.457a.6.6,0,1,0-1.175.219l.129.693.644,3.461a.6.6,0,0,0,.3,1.111H146.7a.6.6,0,0,0,.3-1.111l.637-3.427,0-.015.129-.693A.6.6,0,0,0,147.294,140.393Z" transform="translate(-132.9 -86.122)" fill="#757575"/>
    <g id="Group_2990" data-name="Group 2990" transform="translate(0 49.709)">
      <path id="Path_3970" data-name="Path 3970" d="M0,55.156a.292.292,0,0,1,.227-.265,4.2,4.2,0,0,1,.846-.082h.081a2.643,2.643,0,0,1,1.69.55c.028.024.056.049.083.075a7.306,7.306,0,0,1,.587-1.75A2.591,2.591,0,0,1,2.324,52.5a2.644,2.644,0,0,1-.032-1.777,4.311,4.311,0,0,1,.348-.862.29.29,0,0,1,.32-.139,4.307,4.307,0,0,1,.868.333,2.644,2.644,0,0,1,1.278,1.235,2.644,2.644,0,0,1,.032,1.777,4.325,4.325,0,0,1-.347.859l-.011.022a6.035,6.035,0,0,0,4.194,8.832.622.622,0,0,1,.5.725v0a4.47,4.47,0,0,1-.157.786,2.644,2.644,0,0,1-.98,1.483,2.466,2.466,0,0,1-1.387.374c-.115,0-.234-.006-.354-.017a4.241,4.241,0,0,1-.911-.184.292.292,0,0,1-.2-.289,4.247,4.247,0,0,1,.168-.915,2.644,2.644,0,0,1,.98-1.483h0a7.27,7.27,0,0,1-1.48-1.05,4.5,4.5,0,0,1-.421.246,2.939,2.939,0,0,1-1.332.358,1.99,1.99,0,0,1-.356-.031h0l-.061-.012a2.644,2.644,0,0,1-1.46-1.014,4.3,4.3,0,0,1-.5-.787.292.292,0,0,1,.074-.341,4.245,4.245,0,0,1,.778-.509,2.939,2.939,0,0,1,1.332-.358c.066,0,.132,0,.2.01L3.4,59.745a7.349,7.349,0,0,1-.477-1.536c-.086.005-.178.009-.276.009H2.565a2.644,2.644,0,0,1-1.69-.55,2.643,2.643,0,0,1-.807-1.584A4.313,4.313,0,0,1,0,55.156Z" transform="translate(0 -49.709)" fill="#757575"/>
      <path id="Path_3971" data-name="Path 3971" d="M283.471,55.156a.292.292,0,0,0-.227-.265,4.2,4.2,0,0,0-.846-.082h-.081a2.643,2.643,0,0,0-1.69.55c-.028.024-.056.049-.083.075a7.3,7.3,0,0,0-.587-1.75,2.591,2.591,0,0,0,1.193-1.19,2.644,2.644,0,0,0,.032-1.777,4.312,4.312,0,0,0-.348-.862.29.29,0,0,0-.32-.139,4.307,4.307,0,0,0-.868.333,2.324,2.324,0,0,0-1.31,3.012,4.323,4.323,0,0,0,.347.859c0,.007.007.015.011.022a6.035,6.035,0,0,1-4.194,8.832.622.622,0,0,0-.5.725v0a4.471,4.471,0,0,0,.157.786,2.644,2.644,0,0,0,.98,1.483,2.466,2.466,0,0,0,1.387.374c.115,0,.234-.006.354-.017a4.24,4.24,0,0,0,.911-.184.292.292,0,0,0,.2-.289,4.246,4.246,0,0,0-.168-.915,2.644,2.644,0,0,0-.98-1.483h0a7.271,7.271,0,0,0,1.48-1.05,4.5,4.5,0,0,0,.421.246,2.939,2.939,0,0,0,1.332.358,1.99,1.99,0,0,0,.356-.031h0l.061-.012a2.644,2.644,0,0,0,1.46-1.014,4.3,4.3,0,0,0,.5-.787.292.292,0,0,0-.074-.341,4.246,4.246,0,0,0-.778-.509,2.939,2.939,0,0,0-1.332-.358c-.066,0-.132,0-.2.01l.011-.025a7.351,7.351,0,0,0,.477-1.536c.086.005.178.009.276.009h.081a2.324,2.324,0,0,0,2.5-2.134A4.317,4.317,0,0,0,283.471,55.156Z" transform="translate(-263.074 -49.709)" fill="#757575"/>
    </g>
  </g>
</svg>
