<?xml version="1.0" encoding="utf-8"?>
<!-- Generator: Adobe Illustrator 23.0.0, SVG Export Plug-In . SVG Version: 6.00 Build 0)  -->
<svg version="1.1" id="Layer_1" xmlns="http://www.w3.org/2000/svg" xmlns:xlink="http://www.w3.org/1999/xlink" x="0px" y="0px"
	 viewBox="0 0 20.4 16.4" style="enable-background:new 0 0 20.4 16.4;" xml:space="preserve">
<style type="text/css">
	.st0{fill:#283279;}
</style>
<g id="crown" transform="translate(0 -49.709)">
	<path id="Path_3969" class="st0" d="M14.4,54.3c-0.3-0.1-0.6,0.2-0.7,0.5l-0.1,0.4l-1.8,1.3l-1-2.1v-0.5c0-0.3-0.3-0.6-0.6-0.6
		c-0.3,0-0.6,0.3-0.6,0.6v0.5l-1,2.1l-1.8-1.3l-0.1-0.5c0-0.3-0.3-0.6-0.7-0.5c-0.3,0-0.6,0.3-0.5,0.7c0,0,0,0.1,0,0.1l0.1,0.7
		l0.6,3.5c-0.3,0.2-0.4,0.5-0.2,0.8c0.1,0.2,0.3,0.3,0.5,0.3h7.2c0.3,0,0.6-0.3,0.6-0.6c0-0.2-0.1-0.4-0.3-0.5l0.6-3.4v0l0.1-0.7
		C14.9,54.6,14.7,54.3,14.4,54.3z"/>
	<g id="Group_2990" transform="translate(0 49.709)">
		<path id="Path_3970" class="st0" d="M0,5.4c0-0.1,0.1-0.2,0.2-0.3c0.3-0.1,0.6-0.1,0.8-0.1h0.1c0.6,0,1.2,0.2,1.7,0.5
			c0,0,0.1,0,0.1,0.1C3,5.1,3.2,4.5,3.5,4C3,3.7,2.6,3.3,2.3,2.8C2.1,2.2,2.1,1.6,2.3,1c0.1-0.3,0.2-0.6,0.3-0.9C2.7,0,2.8,0,3,0
			c0.3,0.1,0.6,0.2,0.9,0.3c0.6,0.3,1,0.7,1.3,1.2c0.2,0.6,0.2,1.2,0,1.8C5.1,3.7,4.9,3.9,4.8,4.2l0,0c-1.6,2.9-0.5,6.6,2.4,8.2
			C7.7,12.7,8.3,13,9,13.1c0.3,0.1,0.6,0.4,0.5,0.7c0,0,0,0,0,0l0,0c0,0.3-0.1,0.5-0.2,0.8c-0.1,0.6-0.5,1.1-1,1.5
			c-0.4,0.3-0.9,0.4-1.4,0.4c-0.1,0-0.2,0-0.4,0c-0.3,0-0.6-0.1-0.9-0.2c-0.1,0-0.2-0.2-0.2-0.3c0-0.3,0.1-0.6,0.2-0.9
			c0.1-0.6,0.5-1.1,1-1.5l0,0c-0.5-0.3-1-0.6-1.5-1c-0.1,0.1-0.3,0.2-0.4,0.2c-0.4,0.2-0.9,0.3-1.3,0.4c-0.1,0-0.2,0-0.4,0l0,0
			l-0.1,0c-0.6-0.2-1.1-0.5-1.5-1c-0.2-0.2-0.4-0.5-0.5-0.8C1,11.1,1,11,1.1,10.9c0.2-0.2,0.5-0.4,0.8-0.5c0.4-0.2,0.9-0.3,1.3-0.4
			c0.1,0,0.1,0,0.2,0l0,0C3.2,9.5,3,9,2.9,8.5c-0.1,0-0.2,0-0.3,0H2.6C2,8.5,1.4,8.3,0.9,8C0.4,7.5,0.1,7,0.1,6.4C0,6.1,0,5.8,0,5.4
			z"/>
		<path id="Path_3971" class="st0" d="M20.4,5.4c0-0.1-0.1-0.2-0.2-0.3c-0.3-0.1-0.6-0.1-0.8-0.1h-0.1c-0.6,0-1.2,0.2-1.7,0.5
			c0,0-0.1,0-0.1,0.1c-0.1-0.6-0.3-1.2-0.6-1.7c0.5-0.3,0.9-0.7,1.2-1.2c0.2-0.6,0.2-1.2,0-1.8c-0.1-0.3-0.2-0.6-0.3-0.9
			C17.7,0,17.6,0,17.4,0c-0.3,0.1-0.6,0.2-0.9,0.3c-1.2,0.5-1.8,1.8-1.3,3c0.1,0.3,0.2,0.6,0.3,0.9c0,0,0,0,0,0
			c1.6,2.9,0.5,6.6-2.4,8.2c-0.6,0.3-1.2,0.5-1.8,0.6c-0.3,0.1-0.6,0.4-0.5,0.7c0,0,0,0,0,0l0,0c0,0.3,0.1,0.5,0.2,0.8
			c0.1,0.6,0.5,1.1,1,1.5c0.4,0.3,0.9,0.4,1.4,0.4c0.1,0,0.2,0,0.4,0c0.3,0,0.6-0.1,0.9-0.2c0.1,0,0.2-0.2,0.2-0.3
			c0-0.3-0.1-0.6-0.2-0.9c-0.1-0.6-0.5-1.1-1-1.5l0,0c0.5-0.3,1-0.6,1.5-1c0.1,0.1,0.3,0.2,0.4,0.2c0.4,0.2,0.9,0.3,1.3,0.4
			c0.1,0,0.2,0,0.4,0l0,0l0.1,0c0.6-0.2,1.1-0.5,1.5-1c0.2-0.2,0.4-0.5,0.5-0.8c0.1-0.1,0-0.3-0.1-0.3c-0.2-0.2-0.5-0.4-0.8-0.5
			c-0.4-0.2-0.9-0.3-1.3-0.4c-0.1,0-0.1,0-0.2,0l0,0c0.2-0.5,0.4-1,0.5-1.5c0.1,0,0.2,0,0.3,0h0.1c1.3,0.1,2.4-0.9,2.5-2.1
			c0,0,0,0,0,0C20.4,6.1,20.4,5.8,20.4,5.4z"/>
	</g>
</g>
</svg>
