<svg xmlns="http://www.w3.org/2000/svg" width="16.005" height="16.005" viewBox="0 0 16.005 16.005">
  <g id="Group_2636" data-name="Group 2636" transform="translate(-344 -296)">
    <path id="Path_3890" data-name="Path 3890" d="M212.643,192a4.643,4.643,0,1,0,4.643,4.643A4.643,4.643,0,0,0,212.643,192Zm0,8.74a4.1,4.1,0,1,1,4.1-4.1A4.1,4.1,0,0,1,212.643,200.74Zm0,0" transform="translate(142.718 110.718)" fill="#2866a0"/>
    <path id="Path_3891" data-name="Path 3891" d="M290.185,257.689V256h-.546v1.689a.819.819,0,0,0-.5.5H288v.546h1.143a.817.817,0,1,0,1.042-1.042Zm-.273,1.042a.273.273,0,1,1,.273-.273A.273.273,0,0,1,289.912,258.732Zm0,0" transform="translate(65.557 48.853)" fill="#2866a0"/>
    <path id="Path_3892" data-name="Path 3892" d="M240,320h.546v.546H240Zm0,0" transform="translate(111.996 -12.958)" fill="#2866a0"/>
    <path id="Path_3893" data-name="Path 3893" d="M336,416h.546v.546H336Zm0,0" transform="translate(19.194 -105.634)" fill="#2866a0"/>
    <path id="Path_3894" data-name="Path 3894" d="M432,320h.546v.546H432Zm0,0" transform="translate(-73.634 -12.958)" fill="#2866a0"/>
    <path id="Path_3895" data-name="Path 3895" d="M336,224h.546v.546H336Zm0,0" transform="translate(19.194 79.729)" fill="#2866a0"/>
    <path id="Path_3896" data-name="Path 3896" d="M.546,11.744V3.824H13.11V6.282h.546V2.458a1.367,1.367,0,0,0-1.366-1.366H10.379V.819a.819.819,0,0,0-1.639,0v.273H4.916V.819a.819.819,0,0,0-1.639,0v.273H1.366A1.367,1.367,0,0,0,0,2.458v9.286A1.367,1.367,0,0,0,1.366,13.11H6.828v-.546H1.366A.819.819,0,0,1,.546,11.744ZM9.286.819a.273.273,0,1,1,.546,0V1.912a.273.273,0,0,1-.546,0Zm-5.463,0a.273.273,0,1,1,.546,0V1.912a.273.273,0,1,1-.546,0Zm-2.458.819H3.278v.273a.819.819,0,0,0,1.639,0V1.639H8.74v.273a.819.819,0,0,0,1.639,0V1.639h1.912a.819.819,0,0,1,.819.819v.819H.546V2.458A.819.819,0,0,1,1.366,1.639Zm0,0" transform="translate(344 296)" fill="#2866a0"/>
    <path id="Path_3897" data-name="Path 3897" d="M50.185,160.546a.546.546,0,0,0-.546-.546H48.546a.546.546,0,0,0-.546.546v1.092a.546.546,0,0,0,.546.546h1.092a.546.546,0,0,0,.546-.546Zm-1.639,1.092v-1.092h1.092v1.092Zm0,0" transform="translate(297.639 141.528)" fill="#2866a0"/>
    <path id="Path_3898" data-name="Path 3898" d="M130.185,160.546a.546.546,0,0,0-.546-.546h-1.092a.546.546,0,0,0-.546.546v1.092a.546.546,0,0,0,.546.546h1.092a.546.546,0,0,0,.546-.546Zm-1.639,1.092v-1.092h1.092v1.092Zm0,0" transform="translate(220.252 141.528)" fill="#2866a0"/>
    <path id="Path_3899" data-name="Path 3899" d="M210.185,161.366v-.819a.546.546,0,0,0-.546-.546h-1.092a.546.546,0,0,0-.546.546v1.092a.546.546,0,0,0,.546.546h.546v-.546h-.546v-1.092h1.092v.819Zm0,0" transform="translate(142.91 141.528)" fill="#2866a0"/>
    <path id="Path_3900" data-name="Path 3900" d="M49.639,256H48.546a.546.546,0,0,0-.546.546v1.093a.546.546,0,0,0,.546.546h1.092a.546.546,0,0,0,.546-.546v-1.093A.546.546,0,0,0,49.639,256Zm-1.092,1.639v-1.093h1.092v1.093Zm0,0" transform="translate(297.639 48.845)" fill="#2866a0"/>
    <path id="Path_3901" data-name="Path 3901" d="M129.639,256h-1.092a.546.546,0,0,0-.546.546v1.093a.546.546,0,0,0,.546.546h1.092a.546.546,0,0,0,.546-.546v-1.093A.546.546,0,0,0,129.639,256Zm-1.092,1.639v-1.093h1.092v1.093Zm0,0" transform="translate(220.252 48.845)" fill="#2866a0"/>
    <path id="Path_3902" data-name="Path 3902" d="M290.185,160.819v-.273a.546.546,0,0,0-.546-.546h-1.092a.546.546,0,0,0-.546.546v.273h.546v-.273h1.092v.273Zm0,0" transform="translate(65.567 141.522)" fill="#2866a0"/>
  </g>
</svg>
