<svg xmlns="http://www.w3.org/2000/svg" xmlns:xlink="http://www.w3.org/1999/xlink" width="201.286" height="171" viewBox="0 0 201.286 171">
  <defs>
    <linearGradient id="linear-gradient" x1="0.5" x2="0.5" y2="1" gradientUnits="objectBoundingBox">
      <stop offset="0" stop-color="#4a80fc"/>
      <stop offset="1" stop-color="#22d3bd"/>
    </linearGradient>
  </defs>
  <g id="Group_14093" data-name="Group 14093" transform="translate(-78.662 -26)">
    <g id="Group_14071" data-name="Group 14071" transform="translate(87.459 26)">
      <path id="Path_14710" data-name="Path 14710" d="M134.095,196.682l115.547-.011s29.179-.669,40.373-29.74c8.209-21.318-2.093-54.892-25.5-54.7-7.57.063-20.792-10.468-17.48-21C273.191,8.088,161.109,11.067,123.621,62.9c-35.811,49.515,4.489,79.721-3.357,93.693-1.867,3.326-15.641-1.5-19.628,12.017s30.6,21.2,33.458,27.681Z" transform="translate(-100.317 -26)" fill="#e0f6f8" fill-rule="evenodd"/>
    </g>
    <g id="Group_14072" data-name="Group 14072" transform="translate(150.979 46.408)">
      <path id="Path_14711" data-name="Path 14711" d="M257.4,90.241s-.711,7.952-.711,13.068c0,34.185.173,26.635.173,29.944,0,.319,2.556-1.254,2.944-1.357,2.423-.647,4.989-.955,7.417-1.561,1.988-.5,3.105-2.82,5.055-3.308.382-.1,11.5,3.792,11.755,3.479,1.015-1.269,15.2,1.5,15.087-.09-.438-6.141,3.821-35.36.517-40.648-.273-.438-5.138-12.338-8.225-13.4-5.115-1.767-27.983,16.154-29.837,11.145C260.825,85.488,257.4,90.241,257.4,90.241Z" transform="translate(-256.688 -76.239)" fill-rule="evenodd" fill="url(#linear-gradient)"/>
    </g>
    <g id="Group_14073" data-name="Group 14073" transform="translate(147.928 99.463)">
      <path id="Path_14712" data-name="Path 14712" d="M255.779,209.283c-5.919,0-4.918,11.335-5.791,15.7-1.462,7.311-.626,13.163,0,21.232.364,4.69,2.546,9.385,3.346,14.026,1.079,6.261,1.315,11.794,1.93,18.658a40.094,40.094,0,0,1-.386,7.464c-.611,6.118-1.567,12.267-4.087,17.85-.018.04,55.9.125,55.9.112-.64-1.92-1.1-6.055-1.882-7.926-.942-2.262-1.554-4.657-2.445-6.949-1.02-2.621-1.94-5.264-3.088-7.849a35.046,35.046,0,0,1-3.089-12.1c-.631-10.1,1.418-19.619,3.732-29.339,1.975-8.3,5.171-18.418-2.316-24.836-3.179-2.725-6.743-5.379-10.037-7.849-1.377-1.032-4.335-.524-5.791-.386-4.867.464-9.882.032-14.67,1.029-3.2.667-6.48,1.039-9.651,1.673-.293.059-1.184.1-1.415-.128-.142-.142-.886-1.211-1.159-1.029-.494.329-.4,2.776-.258,3.217Z" transform="translate(-249.177 -206.848)" fill="#fff" fill-rule="evenodd"/>
    </g>
    <g id="Group_14077" data-name="Group 14077" transform="translate(153.873 56.584)">
      <path id="Path_14713" data-name="Path 14713" d="M263.811,104.265l.287-.384Z" transform="translate(-263.811 -102.828)" fill="#502e30" fill-rule="evenodd"/>
      <path id="Path_14714" data-name="Path 14714" d="M270.883,101.289h0Z" transform="translate(-268.01 -101.289)" fill="#502e30" fill-rule="evenodd"/>
      <g id="Group_14074" data-name="Group 14074" transform="translate(6.579 101.16)">
        <path id="Path_14715" data-name="Path 14715" d="M297.324,366.8a.458.458,0,0,1-.4-.242,26.063,26.063,0,0,0-4.034-5.265,57.382,57.382,0,0,0-7.654-6.925,43.151,43.151,0,0,0-4.015-2.666c-.023-.013-.065-.041-.121-.079a2.7,2.7,0,0,0-.679-.388.458.458,0,1,1,.1-.912,2.745,2.745,0,0,1,1.1.54l.078.052a43.814,43.814,0,0,1,4.1,2.722,58.188,58.188,0,0,1,7.776,7.034,26.829,26.829,0,0,1,4.167,5.453.459.459,0,0,1-.4.676Z" transform="translate(-280.007 -350.319)" fill="#dbecff"/>
      </g>
      <g id="Group_14075" data-name="Group 14075" transform="translate(5.659 120.701)">
        <path id="Path_14716" data-name="Path 14716" d="M296.462,402.091a74.738,74.738,0,0,1-9.925-.743,51.621,51.621,0,0,1-5.732-1.048c-.691-.171-1.35-.4-1.989-.619l-.105-.036a1.084,1.084,0,0,0-.161-.032c-.223-.037-.812-.134-.807-.7a.5.5,0,0,1,.153-.348.655.655,0,0,1,.5-.141.462.462,0,0,1,.4.3,1.626,1.626,0,0,1,.211.052l.1.036c.648.223,1.26.434,1.912.6a50.577,50.577,0,0,0,5.633,1.029,64.314,64.314,0,0,0,13.2.615,17.406,17.406,0,0,0,2-.305c.481-.092.957-.183,1.425-.245a.452.452,0,0,1,.515.394.458.458,0,0,1-.394.515c-.451.06-.91.148-1.373.237a18.355,18.355,0,0,1-2.1.319Q298.266,402.09,296.462,402.091Z" transform="translate(-277.743 -398.424)" fill="#dbecff"/>
      </g>
      <g id="Group_14076" data-name="Group 14076" transform="translate(9.453 125.411)">
        <path id="Path_14717" data-name="Path 14717" d="M295.487,421.762c-.642,0-1.293-.007-1.949-.024a29.253,29.253,0,0,1-2.923-.187q-.508-.063-1.016-.132l-.272-.037c-.232-.03-.462-.061-.691-.1a2.51,2.51,0,0,1-.4-.121l-.147-.052c-.666-.217-1-.544-1.009-.972,0-.232-.007-.934,2.392-1.759.193-.065.386-.128.58-.191.209-.067.419-.135.626-.207.28-.1.555-.212.831-.326l.321-.13c.31-.126.621-.252.928-.388l1.352-.592a79.679,79.679,0,0,0,12.646-6.441.458.458,0,1,1,.512.76,80.384,80.384,0,0,1-12.791,6.522l-1.35.591c-.316.139-.634.268-.952.4l-.316.128c-.291.12-.582.24-.878.344-.215.075-.431.145-.647.214-.188.06-.376.121-.563.185a5.283,5.283,0,0,0-1.721.855,1.616,1.616,0,0,0,.323.137c.061.019.121.042.182.064a1.649,1.649,0,0,0,.256.081c.21.041.422.068.635.1l.28.037q.5.068,1.006.131c.961.123,1.965.158,2.831.18,1.937.051,3.834.012,5.6-.037A66.708,66.708,0,0,0,307.03,420a.459.459,0,0,1,.131.908,67.551,67.551,0,0,1-7.978.8C298,421.734,296.763,421.762,295.487,421.762Z" transform="translate(-287.081 -410.02)" fill="#dbecff"/>
      </g>
    </g>
    <g id="Group_14078" data-name="Group 14078" transform="translate(78.662 48.053)">
      <path id="Path_14718" data-name="Path 14718" d="M264.294,99.207c-2.582-6.162-4.3-1.888-4.741-.2a5.3,5.3,0,0,0,1.229,4.271,10.55,10.55,0,0,0,1.355,1.694A9.544,9.544,0,0,1,264.509,107c.357.534.723,3.5,2.235,6.952a47.7,47.7,0,0,0,4.845,7.68l.243,3.849s.164,4.078.084,4.8c-.15,1.35-9.322,2.876-10.067,2.958s.359,7.065,6.726,15.373c2.118,2.763,8.316,8.8,13.669,9.687,1.72.285,8.945-6.151,9.631-7.065.569-.758,1.8-15.258,1.646-17.057a5.643,5.643,0,0,0-.135-1.9c-.29-.581-1.821-1.041-2.219-1.358-.381-.305-.357-5-.226-6.437.094-1.041,5.238-4.342,5.292-14.287A134.722,134.722,0,0,0,293.856,92.3c-1.116-3.72-4.128-6.95-6.98-9.624-2.313-2.168-5.492-2.454-8.54-2.372a21.821,21.821,0,0,0-6.575,1.017c-5.633,2.034-8.393,8.255-8.2,13.826.048,1.4-.063,3.669.542,4.879Z" transform="translate(-186.013 -80.288)" fill="#c6e8d1" fill-rule="evenodd"/>
      <path id="Path_14719" data-name="Path 14719" d="M119.088,313.173c.025.182.043.141-.167-.223s-.414-.745-.63-1.113c-.6-1.014-1.272-1.994-1.855-3.005-.508-.878-.506-.933-1.04-1.78a27.46,27.46,0,0,0-1.557-2.411c-.206-.262-.412-.743-.706-.89a2.812,2.812,0,0,0-1.373,0,13.562,13.562,0,0,1-3.153-.222,24.4,24.4,0,0,0-5.49-.186,8.3,8.3,0,0,1-2.263.148c-1.761-.353-3.356-1.079-5.156-1.335-3.463-.5-6.9.809-10.276-.112a19.126,19.126,0,0,0-5.008-.742c-.435,0-1.625.071-1.743-.519-.092-.459.594-.819.89-1a4.977,4.977,0,0,1,2.571-.681c.2,0,1.435.041,1.435-.135,0-.316-1.375-1.2-2.6-1.929-.248-.148-1-.417-.854-.853.214-.643,1.115-.6,1.633-.63a7.889,7.889,0,0,1,5.082,1.929c.462.357.852.778,1.335,1.113.031.021.05-.108-.089-1.663s-.388-3.366-.615-5.088c-.062-.473-.639-2.931.388-2.931.556,0,1.525,1.93,1.712,2.218,1.869,2.9,2.188,5.929,2.685,6.647.146.211,1.164-.186,1.41-.222.194-.029,1.028.193,1.113.037.369-.676-.033-1.591-.186-2.263-.3-1.3-.466-2.786-.668-4.118a3.1,3.1,0,0,1,.148-2c.1-.151.323.167.446.3,2.575,2.751,1.735,3.7,2.732,5.1.091.128.569,1.01.643,1.06.17.113.835.546,1.055.395a23.763,23.763,0,0,1,1.792-1.739,4.852,4.852,0,0,0,1.048-1.068,3.625,3.625,0,0,1-.37-.186c-.463-.255-.963-.533-1.41-.816a8.446,8.446,0,0,1-2.485-2.262c-.22-.338-.427-1.139.074-1.373.477-.223,1.626.189,2.04.26,1.364.232,2.747.363,4.118.482,1.406.122,2.857.074,4.266.074a7.262,7.262,0,0,1,2.225.112,10.159,10.159,0,0,1,2.253,1.567c.729.729,2.083,2.6,2.846,3.293a18.942,18.942,0,0,1,3.118,3.324,5.4,5.4,0,0,1,1.206,2.8,51.14,51.14,0,0,1,.593,6.789c0,1.5.038,2.99-.037,4.489a4.553,4.553,0,0,1-.446,2.078C119.393,314.449,119.078,313.108,119.088,313.173Z" transform="translate(-78.662 -203.95)" fill="#c6e8d1" fill-rule="evenodd"/>
      <path id="Path_14720" data-name="Path 14720" d="M448.365,309.362c.513-.875.513-.929,1.053-1.773a27.225,27.225,0,0,1,1.579-2.4c.209-.262.417-.741.714-.888a2.9,2.9,0,0,1,1.391,0,13.974,13.974,0,0,0,3.2-.221,25.175,25.175,0,0,1,5.564-.184,8.548,8.548,0,0,0,2.294.147c1.785-.351,3.4-1.074,5.225-1.33,3.511-.493,6.994.806,10.415-.111a19.676,19.676,0,0,1,5.075-.739c.441,0,1.647.07,1.767-.518.092-.457-.6-.816-.9-1a5.121,5.121,0,0,0-2.606-.678c-.206,0-1.455.04-1.455-.134,0-.316,1.394-1.193,2.632-1.921.251-.147,1.012-.415.864-.85-.217-.64-1.129-.592-1.654-.628a8.085,8.085,0,0,0-5.151,1.921c-.468.356-.863.775-1.354,1.108-.031.021-.051-.108.091-1.656s.392-3.352.623-5.068c.063-.471.648-2.919-.393-2.919-.563,0-1.547,1.922-1.736,2.21-1.894,2.889-2.217,5.905-2.721,6.62-.148.21-1.179-.185-1.429-.222-.2-.029-1.042.192-1.128.037-.374-.674.034-1.585.188-2.254.3-1.3.472-2.774.677-4.1a3.029,3.029,0,0,0-.15-2c-.1-.15-.328.166-.451.3-2.611,2.74-1.758,3.686-2.769,5.078-.092.127-.577,1.005-.652,1.055-.171.112-.845.545-1.069.394a23.779,23.779,0,0,0-1.817-1.731,4.906,4.906,0,0,1-1.062-1.064,3.791,3.791,0,0,0,.376-.185c.469-.254.975-.531,1.428-.812a8.513,8.513,0,0,0,2.519-2.254c.223-.336.432-1.135-.075-1.367-.484-.221-1.648.189-2.068.258-1.382.231-2.783.362-4.173.481-1.425.121-2.9.073-4.323.073a7.516,7.516,0,0,0-2.256.111,10.331,10.331,0,0,0-2.283,1.561c-.739.726-2.112,2.592-2.884,3.28a18.962,18.962,0,0,0-3.159,3.311,5.314,5.314,0,0,0-1.222,2.785,50.009,50.009,0,0,0-.6,6.762c0,1.494-.039,2.978.037,4.471.031.614-.267,2.235.093,2.766C445.01,315.652,447.774,310.369,448.365,309.362Z" transform="translate(-295.858 -204.314)" fill="#c6e8d1" fill-rule="evenodd"/>
    </g>
    <g id="Group_14079" data-name="Group 14079" transform="translate(114.84 100.86)">
      <path id="Path_14721" data-name="Path 14721" d="M207.86,210.4a27.175,27.175,0,0,0-.212,10.21c1.7,13.184,5.017,15.6,5.3,17a15.7,15.7,0,0,1-.08,4.461c-.479,3.832-.492,57.622-.74,64.308,0,0-19.223.085-19.192.013,1.468-3.351,2.691-6.153,2.833-6.722,1.489-5.954,2.174-9.948,2.869-12.5.3-1.11,4.185-13.687,3.654-14.749a38.453,38.453,0,0,0-1.62-3.545c-.121-.21-2.4,5.6-3.28,7.281-2.374,4.553-3.013,5.739-5.544,10.168-.568.994-2.867,3.745-3.351,3.794-3.269.327-6.414-4.729-8.9-7.716s-3.246-4.1-5.377-6.569a20.605,20.605,0,0,1-3.924-5.626A24.249,24.249,0,0,1,169.278,265a15.518,15.518,0,0,1-.4-1.673c.072-.288.234-1.043.4-.8.833,1.249,1.525,2.647,2.39,3.9.142.207.161.717.4.637.323-.108.459-1.378.478-1.513.2-1.376.312-2.833.4-4.222a19.776,19.776,0,0,0-2.23-10.276c-.712-1.186-1.592-2.306-2.31-3.5-.2-.329-.85-.637-.637-.956.158-.238.547.179.8.318a24.549,24.549,0,0,1,3.976,3.607c3.457,3.457,10.866,11.724,11.558,12.564.18.218.363.626.637.557.362-.09.044-.744.079-1.115.089-.929.151-1.859.239-2.788.484-5.083.782-10.122,1.195-15.215a142.44,142.44,0,0,1,2.31-15.613,53.414,53.414,0,0,1,3.07-10.1c2.375-4.749,11.068-7.821,14.537-8.355C207.08,210.326,207.886,210.174,207.86,210.4Z" transform="translate(-167.723 -210.285)" fill="#7ccb94" fill-rule="evenodd"/>
      <path id="Path_14722" data-name="Path 14722" d="M215.943,350.883h0Z" transform="translate(-196.355 -293.77)" fill="#7ccb94" fill-rule="evenodd"/>
      <path id="Path_14723" data-name="Path 14723" d="M350.238,211.873c.119,1.08.149,3.293-.662,9.768-1.626,12.982-7.077,15.02-7.614,16.767-1.04,3.38.313,42.127.071,47.618-.268,6.09.264,14.543.547,21.013,0,.064,22.057.186,21.947-.026-5.042-9.816-10.364-33.484-9.856-34.53a34.056,34.056,0,0,1,1.443-3.556c.115-.206,2.433,5.758,3.272,7.413,2.271,4.484,2.88,5.651,5.3,10.012.543.979,2.741,3.688,3.2,3.736,3.126.322,6.133-4.656,8.508-7.6s3.1-4.039,5.141-6.469c.807-.962,2.328-3.017,3.634-4.932a26.476,26.476,0,0,0,2.258-3.733,23.744,23.744,0,0,0,1.147-6.484c-.8,1.23-4.063,6.772-4.889,8.011a24.133,24.133,0,0,1-.7-4.642c-.187-3.089,1.352-10.044,2.947-12.783.68-1.168,2.4-3.145,1.417-2.556-1.671,1-4.967,4.682-5.943,5.687-3.305,3.4-8.4,9.318-9.058,10.144-.171.215-.6-.645-.866-.714-.346-.089-.043-.732-.076-1.1-.085-.914-.144-1.831-.229-2.746-.463-5.005-.747-9.967-1.142-14.982a144.007,144.007,0,0,0-2.209-15.374,53.816,53.816,0,0,0-2.935-9.941C362.025,213.964,350.119,210.793,350.238,211.873Z" transform="translate(-270.947 -211.104)" fill="#7ccb94" fill-rule="evenodd"/>
    </g>
    <g id="Group_14083" data-name="Group 14083" transform="translate(163.414 98.755)">
      <g id="Group_14080" data-name="Group 14080" transform="translate(0 0)">
        <path id="Path_14724" data-name="Path 14724" d="M296.833,220.418a.192.192,0,0,1-.111-.036c-3.079-2.209-9.038-9.91-9.423-15.071a.191.191,0,0,1,.176-.2.188.188,0,0,1,.2.176c.379,5.057,6.236,12.617,9.265,14.788a.191.191,0,0,1-.111.346Z" transform="translate(-287.299 -205.105)" fill="#1aa1d5"/>
      </g>
      <g id="Group_14081" data-name="Group 14081" transform="translate(11.772 0.387)">
        <path id="Path_14725" data-name="Path 14725" d="M316.471,221.14a.191.191,0,0,1-.078-.366c5.7-2.549,8.853-13.523,8.853-14.525a.191.191,0,1,1,.382,0c0,1.025-3.233,12.26-9.08,14.874A.2.2,0,0,1,316.471,221.14Z" transform="translate(-316.279 -206.058)" fill="#1aa1d5"/>
      </g>
      <g id="Group_14082" data-name="Group 14082" transform="translate(8.883 14.526)">
        <path id="Path_14726" data-name="Path 14726" d="M311.024,245.68a2.49,2.49,0,1,1,1.858-2.408A2.189,2.189,0,0,1,311.024,245.68Zm0-4.434c-.813,0-1.475.909-1.475,2.026s.661,2.026,1.475,2.026,1.476-.908,1.476-2.026S311.837,241.246,311.024,241.246Z" transform="translate(-309.167 -240.864)" fill="#1aa1d5"/>
      </g>
    </g>
    <g id="Group_14086" data-name="Group 14086" transform="translate(151.007 39.115)">
      <path id="Path_14727" data-name="Path 14727" d="M256.76,89.928c.055,6.326.6-6.694,2.7-7.8s2.47,2.462,2.47,2.462a22.349,22.349,0,0,1,6.9-5.363c6.22-2.889,14.823-4.763,17.025-6.1,1.224-.745,2.79-1.358,3.96-.627,4.491,2.807,4.777,10.675,4.6,10.33a112.149,112.149,0,0,1,0,31.633,261.35,261.35,0,0,0-2.65,29.337s2.5,1.1,4.626,2.027c2.106.918,3.036.758,3.062.573.164-1.178.342-4.093.5-6.665a29.813,29.813,0,0,1,.349-4.5c.15,2.122-.2,11.407-.2,11.407a5.71,5.71,0,0,0,1.518,1.208.852.852,0,0,0,.988-.277s.455-14.039.445-13.491c-.056,2.782.337,13.346.337,13.346a7.919,7.919,0,0,0,1.634,1.046,2.867,2.867,0,0,0,1.4.219s-1.176-24.284-1.176-28.742c0-4.058-1.633-29.758-2.3-34.852-.85-6.52-4.372-21.038-13.988-25.087-9.358-3.94-20.97-.413-25.127,3.531S256.635,75.8,256.76,89.928Z" transform="translate(-256.756 -58.286)" fill="#61bee2" fill-rule="evenodd"/>
      <g id="Group_14084" data-name="Group 14084" transform="translate(7.067 3.219)">
        <path id="Path_14728" data-name="Path 14728" d="M274.611,85.4a.459.459,0,0,1-.4-.68c3.365-6.082,10.238-9.658,15.762-12.532.791-.411,1.451-.79,2.142-1.226,2.562-1.618,3.835-3.054,3.786-4.272a.458.458,0,0,1,.44-.477h.019a.459.459,0,0,1,.458.44c.1,2.365-3.147,4.412-4.213,5.085-.714.451-1.394.841-2.208,1.265-5.414,2.817-12.152,6.322-15.383,12.162A.459.459,0,0,1,274.611,85.4Z" transform="translate(-274.153 -66.211)" fill="#63d4dd"/>
      </g>
      <g id="Group_14085" data-name="Group 14085" transform="translate(5.482 8.48)">
        <path id="Path_14729" data-name="Path 14729" d="M270.709,92.128a.46.46,0,0,1-.456-.511c.7-6.143,6.536-10.7,9.011-12.377a.458.458,0,1,1,.513.76c-2.37,1.6-7.955,5.957-8.614,11.721A.458.458,0,0,1,270.709,92.128Z" transform="translate(-270.25 -79.162)" fill="#63d4dd"/>
      </g>
    </g>
    <g id="Group_14092" data-name="Group 14092" transform="translate(152.786 43.36)">
      <g id="Group_14087" data-name="Group 14087" transform="translate(3.28 1.712)">
        <path id="Path_14730" data-name="Path 14730" d="M269.67,93.481a.459.459,0,0,1-.349-.757c4.865-5.681,11.4-7.326,16.645-8.647,6.609-1.664,11.384-2.866,10.24-10.6a.459.459,0,1,1,.907-.134c1.265,8.555-4.383,9.977-10.923,11.623-5.388,1.357-11.5,2.895-16.171,8.354A.458.458,0,0,1,269.67,93.481Z" transform="translate(-269.212 -72.951)" fill="#63d4dd"/>
      </g>
      <g id="Group_14088" data-name="Group 14088" transform="translate(1.845)">
        <path id="Path_14731" data-name="Path 14731" d="M266.138,88.458l-.04,0a.459.459,0,0,1-.417-.5c.034-.393.063-.8.093-1.209.335-4.7.752-10.552,9.484-17.906a.459.459,0,1,1,.591.7c-8.436,7.1-8.838,12.741-9.161,17.269-.03.418-.059.826-.093,1.224A.459.459,0,0,1,266.138,88.458Z" transform="translate(-265.679 -68.737)" fill="#63d4dd"/>
      </g>
      <g id="Group_14089" data-name="Group 14089" transform="translate(0 29.632)">
        <path id="Path_14732" data-name="Path 14732" d="M261.6,169.24a.467.467,0,0,1-.074-.006.458.458,0,0,1-.379-.526,119.214,119.214,0,0,0,.83-26.529.458.458,0,1,1,.914-.075,117.568,117.568,0,0,1-.839,26.751A.458.458,0,0,1,261.6,169.24Z" transform="translate(-261.137 -141.684)" fill="#63d4dd"/>
      </g>
      <g id="Group_14090" data-name="Group 14090" transform="translate(33.271 8.336)">
        <path id="Path_14733" data-name="Path 14733" d="M349.393,149.891h-.027a.458.458,0,0,1-.431-.483,246.172,246.172,0,0,0-.648-37.124c-.122-1.286-.219-2.594-.316-3.911-.331-4.493-.674-9.138-2.129-13.311a14.492,14.492,0,0,0-1.534-2.987,21.183,21.183,0,0,1-1.222-2.163.459.459,0,0,1,.83-.392,20.43,20.43,0,0,0,1.171,2.071,15.382,15.382,0,0,1,1.62,3.168c1.5,4.287,1.843,8.994,2.179,13.545.1,1.31.193,2.612.315,3.891a247.151,247.151,0,0,1,.65,37.263A.458.458,0,0,1,349.393,149.891Z" transform="translate(-343.042 -89.257)" fill="#63d4dd"/>
      </g>
      <g id="Group_14091" data-name="Group 14091" transform="translate(29.272 9.103)">
        <path id="Path_14734" data-name="Path 14734" d="M337.143,163.4l-.045,0a.46.46,0,0,1-.413-.5l.325-3.329c2.495-25.458,5.6-57.141-3.7-67.664A.458.458,0,1,1,334,91.3c9.56,10.822,6.435,42.726,3.923,68.36l-.325,3.329A.458.458,0,0,1,337.143,163.4Z" transform="translate(-333.198 -91.147)" fill="#63d4dd"/>
      </g>
    </g>
  </g>
</svg>
