<svg xmlns="http://www.w3.org/2000/svg" fill="#AFAFAF" width="10.977" height="12.247" viewBox="0 0 10.977 12.247">
  <g id="Delete" transform="translate(-0.22 -0.889)">
    <path id="Shape" d="M9.148,12.247h-7.6A.845.845,0,0,1,.7,11.4V2.677H.422a.422.422,0,1,1,0-.844H2.837a2.834,2.834,0,0,1,5.3,0h2.415a.422.422,0,0,1,0,.844H9.992V11.4A.845.845,0,0,1,9.148,12.247ZM7.6,6.2a.423.423,0,0,1,.422.422V11.4H9.148V2.677h-7.6V11.4H2.674V6.618a.422.422,0,1,1,.844,0V11.4H4.926V4.929a.422.422,0,0,1,.845,0V11.4H7.177V6.618A.423.423,0,0,1,7.6,6.2ZM5.489.847a1.786,1.786,0,0,0-1.765.985h3.53A1.815,1.815,0,0,0,5.489.847Z" transform="translate(0.22 0.889)"/>
  </g>
</svg>
