<?xml version="1.0" encoding="utf-8"?>
<!-- Generator: Adobe Illustrator 23.0.0, SVG Export Plug-In . SVG Version: 6.00 Build 0)  -->
<svg version="1.1" id="Layer_1" xmlns="http://www.w3.org/2000/svg" xmlns:xlink="http://www.w3.org/1999/xlink" x="0px" y="0px"
	 viewBox="0 0 15.9 17.1" style="enable-background:new 0 0 15.9 17.1;" xml:space="preserve">
<style type="text/css">
	.st0{fill:#A2A2A2;}
</style>
<g id="Group_857" transform="translate(-47.6 -260.8)">
	<path id="Path_550" class="st0" d="M49.1,264.6h-1.3v1.1h1.3v3.1h-1.5v1.1h1.5v3.1h-1.5v1.1h1.5v3.7h2.6v-17h-2.6V264.6z"/>
	<path id="Path_551" class="st0" d="M52.9,260.9v17h10.6v-17H52.9z M58.2,265.9c0.9,0,1.6,0.7,1.6,1.6c0,0.9-0.7,1.6-1.6,1.6
		s-1.6-0.7-1.6-1.6C56.6,266.6,57.3,265.9,58.2,265.9C58.2,265.9,58.2,265.9,58.2,265.9z M55.2,272.8c0-1.7,1.3-3,3-3s3,1.3,3,3
		H55.2z"/>
</g>
</svg>
