<svg xmlns="http://www.w3.org/2000/svg" width="9.163" height="15.98" viewBox="0 0 9.163 15.98">
  <path id="Path_8263" data-name="Path 8263" d="M9.86-3.247c0-2.329-2.04-2.89-3.944-3.366v-3.961a6.127,6.127,0,0,1,2.89.952l.561-1.36a6.822,6.822,0,0,0-3.451-1.037V-13.94H4.828V-12C2.193-11.781.986-10.319.986-8.636c0,2.312,1.972,2.907,3.842,3.366v3.944a5.93,5.93,0,0,1-3.5-1.36L.7-1.36A6.876,6.876,0,0,0,4.828.119V2.04H5.916V.119C8.6-.1,9.86-1.564,9.86-3.247ZM2.652-8.7c0-.9.663-1.666,2.176-1.853v3.672C3.6-7.208,2.652-7.65,2.652-8.7ZM5.916-1.343V-5c1.258.34,2.278.765,2.278,1.853C8.194-2.227,7.5-1.5,5.916-1.343Z" transform="translate(-0.697 13.94)" fill="#6d6d6d"/>
</svg>
