<svg xmlns="http://www.w3.org/2000/svg" width="14.228" height="14.228" viewBox="0 0 14.228 14.228">
  <path id="Icon_awesome-donate" data-name="Icon awesome-donate" d="M7.114,11.56a5.78,5.78,0,1,0-5.78-5.78A5.779,5.779,0,0,0,7.114,11.56ZM6.5,2.707V2.24a.46.46,0,0,1,.461-.461h.308a.46.46,0,0,1,.461.461v.472a2.191,2.191,0,0,1,1.195.428.312.312,0,0,1,.033.475L8.5,4.046a.313.313,0,0,1-.389.028.915.915,0,0,0-.495-.142H6.539a.483.483,0,0,0-.453.509.5.5,0,0,0,.336.489l1.731.52a1.741,1.741,0,0,1,1.214,1.67A1.713,1.713,0,0,1,7.725,8.853V9.32a.46.46,0,0,1-.461.461H6.955a.46.46,0,0,1-.461-.461V8.848A2.191,2.191,0,0,1,5.3,8.42a.312.312,0,0,1-.033-.475l.453-.431a.313.313,0,0,1,.389-.028.915.915,0,0,0,.495.142H7.683a.483.483,0,0,0,.453-.509A.5.5,0,0,0,7.8,6.63l-1.731-.52a1.741,1.741,0,0,1-1.214-1.67A1.715,1.715,0,0,1,6.5,2.707Zm6.841,7.075h-.9a6.735,6.735,0,0,1-2.029,1.778H12.18a.248.248,0,0,1,.267.222v.445a.248.248,0,0,1-.267.222H2.045a.248.248,0,0,1-.267-.222v-.445a.248.248,0,0,1,.267-.222H3.818A6.768,6.768,0,0,1,1.79,9.781h-.9A.888.888,0,0,0,0,10.671v2.668a.888.888,0,0,0,.889.889H13.338a.888.888,0,0,0,.889-.889V10.671A.888.888,0,0,0,13.338,9.781Z" fill="#fff"/>
</svg>
