<svg id="Group_15956" data-name="Group 15956" xmlns="http://www.w3.org/2000/svg" width="235.122" height="265.546" viewBox="0 0 235.122 265.546">
  <g id="Group_15955" data-name="Group 15955" transform="translate(0 47.021)">
    <g id="Group_15951" data-name="Group 15951" transform="translate(0 0)">
      <g id="Group_15949" data-name="Group 15949">
        <path id="Path_14477" data-name="Path 14477" d="M447.5,136.713c-1.576,8.848-.318,65.665,12.916,89.972,15.734,28.9,33.527,26.95,40.954,47.685a128.882,128.882,0,0,1,7.609,46.045h43.817s3.239-51.26-1.593-79.259c-2.95-17.092-44.562-55.693-50.563-62.739s-17.722-.187-13.286,7.381,24.751,32.42,25.012,37.378-14.809-5.4-24.726-17.922-12.656-41.79-17.591-61.443C465.646,126.29,450.889,117.663,447.5,136.713Z" transform="translate(-446.963 -125.936)" fill="#fff"/>
      </g>
      <g id="Group_15950" data-name="Group 15950" transform="translate(50.374 183.148)">
        <rect id="Rectangle_3960" data-name="Rectangle 3960" width="55.225" height="25.472" transform="translate(4.952 4.952)" fill="#fff"/>
        <path id="Path_14478" data-name="Path 14478" d="M588.38,438.677H523.25V403.3h65.13Zm-55.225-9.9h45.32V413.2h-45.32Z" transform="translate(-523.25 -403.3)" fill="#22347c"/>
      </g>
    </g>
    <g id="Group_15954" data-name="Group 15954" transform="translate(119.619 0)">
      <g id="Group_15952" data-name="Group 15952" transform="translate(8.611)">
        <path id="Path_14479" data-name="Path 14479" d="M747.516,136.713c1.576,8.848.318,65.665-12.916,89.972-15.734,28.9-33.527,26.95-40.954,47.685a128.884,128.884,0,0,0-7.609,46.045H642.219s-3.24-51.26,1.593-79.259c2.95-17.092,44.561-55.693,50.563-62.739s17.722-.187,13.286,7.381-24.75,32.42-25.011,37.378,14.809-5.4,24.726-17.922,12.656-41.79,17.591-61.443C729.366,126.29,744.123,117.663,747.516,136.713Z" transform="translate(-641.157 -125.936)" fill="#fff"/>
      </g>
      <g id="Group_15953" data-name="Group 15953" transform="translate(0 183.148)">
        <rect id="Rectangle_3961" data-name="Rectangle 3961" width="55.225" height="25.472" transform="translate(4.953 4.952)" fill="#fff"/>
        <path id="Path_14480" data-name="Path 14480" d="M693.246,438.677h-65.13V403.3h65.13Zm-55.225-9.9h45.32V413.2h-45.32Z" transform="translate(-628.116 -403.3)" fill="#22347c"/>
      </g>
    </g>
  </g>
  <path id="Path_14481" data-name="Path 14481" d="M593.61,185.476h-1.049a9.9,9.9,0,0,1-6.638-2.554c-20.389-18.411-35.393-36.065-44.6-52.473-7.678-13.686-9.688-23.6-10.015-29.535-.082-1.165-.124-2.332-.124-3.471a45.753,45.753,0,0,1,10.465-29.6c7.153-8.461,16.8-13.121,27.178-13.121a35.054,35.054,0,0,1,24.3,10.051,35.055,35.055,0,0,1,24.3-10.051c10.373,0,20.025,4.66,27.177,13.121a45.754,45.754,0,0,1,10.465,29.6,47.893,47.893,0,0,1-2.361,14.947c-7.805,26.178-32.83,52.8-52.47,70.532A9.9,9.9,0,0,1,593.61,185.476ZM568.831,74.536c-4.445,0-8.725,2.166-12.05,6.1A25.945,25.945,0,0,0,551,97.443c0,.693.026,1.41.079,2.132.005.068.01.136.013.2.131,2.514,1.126,9.59,7.515,20.98,7.235,12.9,18.816,26.936,34.474,41.8,14.7-14.012,34.777-35.934,40.689-55.935.031-.1.063-.209.1-.312a28.092,28.092,0,0,0,1.405-8.866,25.945,25.945,0,0,0-5.784-16.807c-3.325-3.934-7.6-6.1-12.049-6.1-6.212,0-12.086,4.318-15.327,11.269a9.905,9.905,0,0,1-17.954,0C580.916,78.853,575.043,74.536,568.831,74.536Z" transform="translate(-475.573 -54.726)" fill="#22347c"/>
</svg>
