<?xml version="1.0" encoding="utf-8"?>
<!-- Generator: Adobe Illustrator 23.0.0, SVG Export Plug-In . SVG Version: 6.00 Build 0)  -->
<svg version="1.1" id="Layer_1" xmlns="http://www.w3.org/2000/svg" xmlns:xlink="http://www.w3.org/1999/xlink" x="0px" y="0px"
	 viewBox="0 0 14.2 14.2" style="enable-background:new 0 0 14.2 14.2;" xml:space="preserve">
<style type="text/css">
	.st0{fill:#FFFFFF;}
</style>
<path id="Icon_awesome-donate" class="st0" d="M7.1,11.6c3.2,0,5.8-2.6,5.8-5.8S10.3,0,7.1,0S1.3,2.6,1.3,5.8
	C1.3,9,3.9,11.6,7.1,11.6C7.1,11.6,7.1,11.6,7.1,11.6z M6.5,2.7V2.2C6.5,2,6.7,1.8,7,1.8c0,0,0,0,0,0h0.3c0.3,0,0.5,0.2,0.5,0.5
	c0,0,0,0,0,0v0.5c0.4,0,0.8,0.2,1.2,0.4C9.1,3.2,9.1,3.4,9,3.6c0,0,0,0,0,0L8.5,4c-0.1,0.1-0.3,0.1-0.4,0C8,4,7.8,3.9,7.6,3.9H6.5
	c-0.3,0-0.5,0.2-0.5,0.5c0,0.2,0.1,0.4,0.3,0.5l1.7,0.5c0.7,0.2,1.2,0.9,1.2,1.7c0,0.9-0.7,1.7-1.6,1.7v0.5c0,0.3-0.2,0.5-0.5,0.5
	c0,0,0,0,0,0H7c-0.3,0-0.5-0.2-0.5-0.5c0,0,0,0,0,0V8.8c-0.4,0-0.8-0.2-1.2-0.4C5.2,8.3,5.1,8.1,5.2,8c0,0,0,0,0,0l0.5-0.4
	c0.1-0.1,0.3-0.1,0.4,0c0.1,0.1,0.3,0.1,0.5,0.1h1.1c0.3,0,0.5-0.2,0.5-0.5c0-0.2-0.1-0.4-0.3-0.5L6.1,6.1C5.3,5.9,4.9,5.2,4.9,4.4
	C4.8,3.5,5.6,2.7,6.5,2.7z M13.3,9.8h-0.9c-0.5,0.7-1.2,1.3-2,1.8h1.8c0.1,0,0.3,0.1,0.3,0.2v0.4c0,0.1-0.1,0.2-0.3,0.2H2
	c-0.1,0-0.3-0.1-0.3-0.2v-0.4c0-0.1,0.1-0.2,0.3-0.2h1.8c-0.8-0.5-1.5-1.1-2-1.8H0.9C0.4,9.8,0,10.2,0,10.7c0,0,0,0,0,0v2.7
	c0,0.5,0.4,0.9,0.9,0.9c0,0,0,0,0,0h12.4c0.5,0,0.9-0.4,0.9-0.9c0,0,0,0,0,0v-2.7C14.2,10.2,13.8,9.8,13.3,9.8
	C13.3,9.8,13.3,9.8,13.3,9.8L13.3,9.8z"/>
</svg>
