<svg xmlns="http://www.w3.org/2000/svg" width="28" height="28" viewBox="0 0 28 28">
  <g id="wallet_1_" data-name="wallet (1)" transform="translate(0)">
    <g id="Group_2626" data-name="Group 2626" transform="translate(0 0)">
      <g id="Group_2625" data-name="Group 2625" transform="translate(0 0)">
        <path id="Path_3887" data-name="Path 3887" d="M26.73,14.118V10.182a2.54,2.54,0,0,0-2.343-2.525L20.732,1.274A2.518,2.518,0,0,0,17.277.343L4.749,7.637h-2.2A2.548,2.548,0,0,0,0,10.182V25.455A2.548,2.548,0,0,0,2.548,28H24.184a2.548,2.548,0,0,0,2.545-2.545V21.519A1.906,1.906,0,0,0,28,19.727V15.909A1.906,1.906,0,0,0,26.73,14.118ZM22.908,7.637H17.362l4.16-2.422ZM20.889,4.11,14.832,7.637H12.32l7.941-4.624ZM17.918,1.443a1.231,1.231,0,0,1,.945-.127,1.248,1.248,0,0,1,.764.591v0L9.791,7.637H7.278Zm7.539,24.012a1.274,1.274,0,0,1-1.273,1.273H2.548a1.274,1.274,0,0,1-1.273-1.273V10.182A1.274,1.274,0,0,1,2.548,8.909H24.184a1.274,1.274,0,0,1,1.273,1.273V14H21.639a3.818,3.818,0,0,0,0,7.636h3.818v3.818Zm1.273-5.727a.637.637,0,0,1-.636.636H21.639a2.545,2.545,0,0,1,0-5.091h4.454a.637.637,0,0,1,.636.636Z" transform="translate(-0.003 0)" fill="#a3a3a3"/>
        <path id="Path_3888" data-name="Path 3888" d="M342.609,277.341a1.272,1.272,0,1,0,1.272,1.272A1.274,1.274,0,0,0,342.609,277.341Z" transform="translate(-320.973 -260.795)" fill="#a3a3a3"/>
      </g>
    </g>
  </g>
</svg>
