<svg xmlns="http://www.w3.org/2000/svg" width="10" height="10" viewBox="0 0 10 10">
  <path id="Fill_1009" data-name="Fill 1009" d="M2.332,10H.451A.452.452,0,0,1,0,9.549V7.667a1.342,1.342,0,0,1,.4-.957L6.711.4A1.353,1.353,0,0,1,8.625.4l.98.979a1.355,1.355,0,0,1,0,1.914L3.29,9.6A1.347,1.347,0,0,1,2.332,10ZM5.864,2.519h0L1.034,7.348A.448.448,0,0,0,.9,7.667V9.1h1.43a.449.449,0,0,0,.32-.132L7.481,4.137,5.864,2.519ZM7.668.9a.449.449,0,0,0-.319.132L6.5,1.882,8.119,3.5l.848-.848a.452.452,0,0,0,0-.637l-.98-.98A.448.448,0,0,0,7.668.9Z" transform="translate(0)" fill="#fff"/>
</svg>
