<svg xmlns="http://www.w3.org/2000/svg" fill="#ffffff" width="13.376" height="13.38" viewBox="0 0 13.376 13.38"><g transform="translate(-0.002 -0.004)"><g transform="translate(0.002 0.004)"><g transform="translate(0)"><path d="M.568,13.384a.576.576,0,0,1-.4-.166.569.569,0,0,1-.147-.542l.7-2.749A.576.576,0,0,1,.87,9.666l9.5-9.5a.572.572,0,0,1,.8,0L13.212,2.21a.569.569,0,0,1,0,.8l-9.493,9.5a.576.576,0,0,1-.261.147l-2.749.7A.6.6,0,0,1,.568,13.384Zm2.749-1.27ZM1.782,10.358l-.42,1.665L3.033,11.6l8.988-8.981L10.769,1.364Z" transform="translate(-0.002 -0.004)"/><path d="M39.873,10.909a.574.574,0,0,1-.4-.172L37.433,8.7a.568.568,0,1,1,.8-.8l2.041,2.041a.567.567,0,0,1-.4.968Z" transform="translate(-28.815 -5.975)"/></g></g></g></svg>