<?xml version="1.0" encoding="utf-8"?>
<!-- Generator: Adobe Illustrator 23.0.0, SVG Export Plug-In . SVG Version: 6.00 Build 0)  -->
<svg version="1.1" id="Layer_1" xmlns="http://www.w3.org/2000/svg" xmlns:xlink="http://www.w3.org/1999/xlink" x="0px" y="0px"
	 viewBox="0 0 11.5 11.5" style="enable-background:new 0 0 11.5 11.5;" xml:space="preserve">
<style type="text/css">
	.st0{fill:#283279;}
</style>
<g id="Group_4175" transform="translate(0 0)">
	<g id="Group_1831">
		<path id="Path_1000" class="st0" d="M7.2,1.9l2.4,2.4l-5.9,5.9L1.2,7.8L7.2,1.9z M11.3,1.4l-1.1-1.1c-0.4-0.4-1-0.4-1.4-0.1
			c0,0,0,0-0.1,0.1l-1,1l2.4,2.4l1.1-1.1C11.6,2.2,11.6,1.7,11.3,1.4L11.3,1.4z M0,11.2c0,0.2,0.1,0.3,0.3,0.4c0,0,0,0,0.1,0L3,10.9
			L0.6,8.5L0,11.2z"/>
	</g>
</g>
</svg>
