<svg xmlns="http://www.w3.org/2000/svg" width="16.818" height="17.352" viewBox="0 0 16.818 17.352">
  <g id="Group_13194" data-name="Group 13194" transform="translate(0 0)">
    <path id="Path_258" data-name="Path 258" d="M113.237,168.573a2.937,2.937,0,1,0-2.937-2.936A2.963,2.963,0,0,0,113.237,168.573ZM111.5,165.1a.606.606,0,0,1,.667,0l.667.667L114.3,164.3a.472.472,0,0,1,.667.667l-1.735,1.735a.667.667,0,0,1-.8,0l-1.068-1.068S111.368,165.236,111.5,165.1Z" transform="translate(-104.827 -154.558)" fill="#fff"/>
    <path id="Path_259" data-name="Path 259" d="M106.333,170.944a1.542,1.542,0,0,0,1.6,1.6h13.348a1.542,1.542,0,0,0,1.6-1.6V160.8H106.2v10.144Zm8.276-8.81a4.016,4.016,0,0,1,4,4,4,4,0,0,1-8.009,0A4.016,4.016,0,0,1,114.609,162.135Z" transform="translate(-106.2 -155.194)" fill="#fff"/>
    <path id="Path_260" data-name="Path 260" d="M122.985,160.8v-1.6a1.542,1.542,0,0,0-1.6-1.6h-.934v.934a.534.534,0,1,1-1.068,0V157.6h-.934v.934a.534.534,0,1,1-1.068,0V157.6h-5.606v.934a.534.534,0,0,1-1.068,0V157.6h-.8v.934a.534.534,0,1,1-1.068,0V157.6H107.9a1.542,1.542,0,0,0-1.6,1.6v1.6Z" transform="translate(-106.167 -156.265)" fill="#fff"/>
    <path id="Path_261" data-name="Path 261" d="M117.168,157.134a.534.534,0,0,0-1.068,0v.934h1.068Z" transform="translate(-102.886 -156.6)" fill="#fff"/>
    <path id="Path_262" data-name="Path 262" d="M115.668,157.134a.534.534,0,1,0-1.068,0v.934h1.068Z" transform="translate(-103.388 -156.6)" fill="#fff"/>
    <path id="Path_263" data-name="Path 263" d="M110.768,157.134a.534.534,0,1,0-1.068,0v.934h1.068Z" transform="translate(-105.028 -156.6)" fill="#fff"/>
    <path id="Path_264" data-name="Path 264" d="M109.268,157.134a.534.534,0,1,0-1.068,0v.934h1.068Z" transform="translate(-105.53 -156.6)" fill="#fff"/>
  </g>
</svg>
