<svg xmlns="http://www.w3.org/2000/svg" width="36.23" height="37.38" viewBox="0 0 36.23 37.38">
  <g id="Group_17096" data-name="Group 17096" transform="translate(0)">
    <path id="Path_258" data-name="Path 258" d="M116.626,175.352a6.326,6.326,0,1,0-6.326-6.326A6.382,6.382,0,0,0,116.626,175.352Zm-3.738-7.476a1.305,1.305,0,0,1,1.438,0l1.438,1.438,3.163-3.163a1.017,1.017,0,0,1,1.438,1.438l-3.738,3.738a1.438,1.438,0,0,1-1.725,0l-2.3-2.3S112.6,168.163,112.888,167.876Z" transform="translate(-98.511 -145.16)" fill="#fff"/>
    <path id="Path_259" data-name="Path 259" d="M106.488,182.653a3.322,3.322,0,0,0,3.45,3.45h28.754a3.322,3.322,0,0,0,3.451-3.45V160.8H106.2v21.853Zm17.828-18.978a8.651,8.651,0,0,1,8.626,8.626,8.626,8.626,0,1,1-17.252,0A8.651,8.651,0,0,1,124.315,163.675Z" transform="translate(-106.2 -148.723)" fill="#fff"/>
    <path id="Path_260" data-name="Path 260" d="M142.243,164.5V161.05a3.322,3.322,0,0,0-3.45-3.45h-2.013v2.013a1.15,1.15,0,1,1-2.3,0V157.6h-2.013v2.013a1.15,1.15,0,1,1-2.3,0V157.6H118.089v2.013a1.15,1.15,0,1,1-2.3,0V157.6h-1.725v2.013a1.15,1.15,0,1,1-2.3,0V157.6H109.75a3.322,3.322,0,0,0-3.45,3.45V164.5Z" transform="translate(-106.012 -154.725)" fill="#fff"/>
    <path id="Path_261" data-name="Path 261" d="M118.4,157.75a1.15,1.15,0,1,0-2.3,0v2.013h2.3Z" transform="translate(-87.633 -156.6)" fill="#fff"/>
    <path id="Path_262" data-name="Path 262" d="M116.9,157.75a1.15,1.15,0,1,0-2.3,0v2.013h2.3Z" transform="translate(-90.447 -156.6)" fill="#fff"/>
    <path id="Path_263" data-name="Path 263" d="M112,157.75a1.15,1.15,0,1,0-2.3,0v2.013H112Z" transform="translate(-99.636 -156.6)" fill="#fff"/>
    <path id="Path_264" data-name="Path 264" d="M110.5,157.75a1.15,1.15,0,1,0-2.3,0v2.013h2.3Z" transform="translate(-102.449 -156.6)" fill="#fff"/>
  </g>
</svg>
