<?xml version="1.0" encoding="utf-8"?>
<!-- Generator: Adobe Illustrator 23.0.0, SVG Export Plug-In . SVG Version: 6.00 Build 0)  -->
<svg version="1.1" id="Layer_1" xmlns="http://www.w3.org/2000/svg" xmlns:xlink="http://www.w3.org/1999/xlink" x="0px" y="0px"
	 viewBox="0 0 19.1 18" style="enable-background:new 0 0 19.1 18;" xml:space="preserve">
<style type="text/css">
	.st0{fill:#283279;}
</style>
<g id="Group_4782" transform="translate(-27.939 -51.437)">
	<path id="Path_10898" class="st0" d="M40,68.6c-0.5-0.5-0.5-1.3,0-1.8l1.1-1.1L40,64.6c-0.5-0.5-0.5-1.3,0-1.8l0.8-0.8l0,0
		c-0.6-0.3-1.3-0.4-1.9-0.4l0,0h-0.6c-1.6,0.7-3.5,0.7-5.1,0h-0.6c-2.6,0-4.7,2.1-4.7,4.7v1.5c0,0.9,0.8,1.7,1.7,1.7H41
		c0,0-0.1,0-0.1-0.1L40,68.6z"/>
	<circle id="Ellipse_219" class="st0" cx="35.8" cy="55.9" r="4.5"/>
	<path id="Path_10899" class="st0" d="M45.3,68.9c0.2,0.2,0.6,0.2,0.8,0l0.8-0.8c0.2-0.2,0.2-0.6,0-0.8l0,0l-1.6-1.6l1.6-1.6
		c0.2-0.2,0.2-0.6,0-0.8l-0.8-0.8c-0.2-0.2-0.6-0.2-0.8,0l-1.6,1.6l-1.6-1.6c-0.1-0.1-0.3-0.2-0.4-0.2h-0.1c1.3,0.9,2.1,2.3,2.1,3.9
		v1l0,0L45.3,68.9z"/>
	<path id="Path_10900" class="st0" d="M41.6,62.4c-0.1,0-0.2,0.1-0.3,0.1l-0.8,0.8c-0.2,0.2-0.2,0.6,0,0.8l1.6,1.6l-1.6,1.6
		c-0.2,0.2-0.2,0.6,0,0.8l0.8,0.8c0.2,0.2,0.6,0.2,0.8,0l1.6-1.6v-1C43.7,64.7,42.9,63.2,41.6,62.4z"/>
</g>
</svg>
