<svg xmlns="http://www.w3.org/2000/svg" width="19.121" height="17.994" viewBox="0 0 19.121 17.994">
  <g id="Group_4782" data-name="Group 4782" transform="translate(-27.939 -51.437)">
    <path id="Path_10898" data-name="Path 10898" d="M40.037,68.554a1.267,1.267,0,0,1,0-1.783l1.095-1.1-1.1-1.1a1.267,1.267,0,0,1,0-1.783l.8-.8c.011-.012.028-.016.04-.027a4.7,4.7,0,0,0-1.916-.413v0h-.587a6.116,6.116,0,0,1-5.124,0h-.587a4.725,4.725,0,0,0-4.723,4.72v1.462a1.687,1.687,0,0,0,1.687,1.687H40.952a1.3,1.3,0,0,1-.116-.077Z" fill="#a3a3a3"/>
    <circle id="Ellipse_219" data-name="Ellipse 219" cx="4.5" cy="4.5" r="4.5" transform="translate(31.311 51.437)" fill="#a3a3a3"/>
    <path id="Path_10899" data-name="Path 10899" d="M45.307,68.859a.566.566,0,0,0,.8,0l.795-.8a.565.565,0,0,0,0-.8l-1.592-1.592,1.59-1.59a.566.566,0,0,0,0-.794l-.8-.8a.564.564,0,0,0-.795,0l-1.591,1.591-1.59-1.591a.563.563,0,0,0-.4-.163.6.6,0,0,0-.139.026,4.719,4.719,0,0,1,2.1,3.924V67.3l.032-.032Z" fill="#a3a3a3"/>
    <path id="Path_10900" data-name="Path 10900" d="M41.588,62.358a.562.562,0,0,0-.259.137l-.795.8a.563.563,0,0,0,0,.795l1.59,1.59-1.59,1.59a.563.563,0,0,0,0,.795l.8.8a.566.566,0,0,0,.795,0L43.684,67.3V66.282A4.719,4.719,0,0,0,41.588,62.358Z" fill="#a3a3a3"/>
  </g>
</svg>
