<svg xmlns="http://www.w3.org/2000/svg" width="14.964" height="8.92" viewBox="0 0 14.964 8.92">
  <g id="eye" transform="translate(0 -98.725)">
    <path id="Path_14992" data-name="Path 14992" d="M7.482,98.725a9.335,9.335,0,0,0-7.365,4.1.592.592,0,0,0,0,.707,9.33,9.33,0,0,0,7.365,4.108,9.335,9.335,0,0,0,7.365-4.1.592.592,0,0,0,0-.707A9.33,9.33,0,0,0,7.482,98.725Zm.205,7.6a3.147,3.147,0,1,1,2.936-2.936A3.149,3.149,0,0,1,7.687,106.326Zm-.095-1.451a1.695,1.695,0,1,1,1.583-1.583A1.692,1.692,0,0,1,7.592,104.875Z" transform="translate(0 0)"/>
  </g>
</svg>
