<svg xmlns="http://www.w3.org/2000/svg" width="25.449" height="18.609" viewBox="0 0 25.449 18.609">
  <g id="family" transform="translate(0 0)">
    <g id="Group_2839" data-name="Group 2839" transform="translate(0 8.695)">
      <path id="Path_3928" data-name="Path 3928" d="M9.112,235.224A5.665,5.665,0,0,0,0,239.728v3.5a.742.742,0,0,0,.742.742H6.729v-3.578A6.8,6.8,0,0,1,9.112,235.224Z" transform="translate(0 -234.055)" fill="#fff"/>
    </g>
    <g id="Group_2840" data-name="Group 2840" transform="translate(1.803 0)">
      <path id="Path_3929" data-name="Path 3929" d="M38.7,73.809a3.87,3.87,0,1,0-3.87-3.87A3.87,3.87,0,0,0,38.7,73.809Z" transform="translate(-34.827 -66.068)" fill="#fff"/>
    </g>
    <g id="Group_2841" data-name="Group 2841" transform="translate(8.425 9.913)">
      <path id="Path_3930" data-name="Path 3930" d="M167.894,257.581a5.119,5.119,0,0,0-5.118,5.118v2.836a.742.742,0,0,0,.742.742h5.88v-3.042a6.028,6.028,0,0,1,1.878-4.371A5.092,5.092,0,0,0,167.894,257.581Z" transform="translate(-162.776 -257.581)" fill="#fff"/>
    </g>
    <g id="Group_2842" data-name="Group 2842" transform="translate(10.052 2.068)">
      <path id="Path_3931" data-name="Path 3931" d="M195.8,112.438a3.488,3.488,0,1,0-1.6-2.929A3.468,3.468,0,0,0,195.8,112.438Z" transform="translate(-194.202 -106.017)" fill="#fff"/>
    </g>
    <g id="Group_2843" data-name="Group 2843" transform="translate(16.744 11.214)">
      <path id="Path_3932" data-name="Path 3932" d="M327.842,282.733a4.352,4.352,0,0,0-4.352,4.352v2.3a.742.742,0,0,0,.742.742h7.22a.742.742,0,0,0,.742-.742v-2.3A4.353,4.353,0,0,0,327.842,282.733Z" transform="translate(-323.49 -282.733)" fill="#fff"/>
    </g>
    <g id="Group_2844" data-name="Group 2844" transform="translate(18.127 4.543)">
      <path id="Path_3933" data-name="Path 3933" d="M351.323,159.108a2.958,2.958,0,1,0-1.113-2.3A2.942,2.942,0,0,0,351.323,159.108Z" transform="translate(-350.21 -153.839)" fill="#fff"/>
    </g>
  </g>
</svg>
