<?xml version="1.0" encoding="utf-8"?>
<!-- Generator: Adobe Illustrator 23.0.0, SVG Export Plug-In . SVG Version: 6.00 Build 0)  -->
<svg version="1.1" id="family_2_" xmlns="http://www.w3.org/2000/svg" xmlns:xlink="http://www.w3.org/1999/xlink" x="0px" y="0px"
	 viewBox="0 0 17.2 18.3" style="enable-background:new 0 0 17.2 18.3;" xml:space="preserve">
<style type="text/css">
	.st0{fill:#FFFFFF;}
</style>
<path id="Path_3938" class="st0" d="M4,5.7c1.5-0.1,2.7-1.3,2.7-2.9c0.1-1.5-1-2.8-2.5-2.9C2.7-0.1,1.4,1,1.3,2.5c0,0.1,0,0.2,0,0.4
	C1.3,4.4,2.5,5.7,4,5.7z"/>
<path id="Path_3939" class="st0" d="M13.2,7.5c0.8,0,1.4-0.7,1.3-1.4v-1c-0.9,0-1.9-0.2-2.8-0.4V6C11.7,6.8,12.4,7.4,13.2,7.5z"/>
<path id="Path_3940" class="st0" d="M8.6,13.3c-1.8,0.1-3.2,1.6-3.2,3.4v1c0,0.3,0.2,0.5,0.5,0.5h5.4c0.3,0,0.5-0.3,0.5-0.5v-1
	C11.8,14.9,10.4,13.4,8.6,13.3L8.6,13.3z"/>
<path id="Path_3941" class="st0" d="M4.4,16.7c0-1.7,0.9-3.2,2.3-4c-1-0.7-1.5-1.8-1.5-3C5.2,8.8,5.4,8,6,7.3C5.4,7,4.7,6.8,4,6.8
	c-2.3,0.1-4.1,2-4,4.3v6.7c0,0.3,0.2,0.5,0.5,0.5h4c-0.1-0.2-0.1-0.4-0.1-0.5V16.7z"/>
<path id="Path_3942" class="st0" d="M8.6,12.2c1.4,0.1,2.6-1,2.7-2.4s-1-2.6-2.4-2.7C7.5,7,6.3,8.1,6.2,9.5c0,0.1,0,0.1,0,0.2
	C6.1,11,7.2,12.2,8.6,12.2z"/>
<path id="Path_3943" class="st0" d="M13.2,8.5c-0.4,0-0.9,0.1-1.3,0.2C12,9.1,12,9.4,12,9.7c0,1.2-0.6,2.3-1.5,3
	c1.5,0.8,2.3,2.3,2.3,4v1c0,0.2,0,0.4-0.1,0.5h4c0.3,0,0.5-0.3,0.5-0.5v-5C17.2,10.5,15.4,8.6,13.2,8.5z"/>
<path id="Path_3944" class="st0" d="M13.2,0c-2.3,0.1-4.1,2-4,4.3v1.8c0.7,0.1,1.4,0.5,1.9,1.1c-0.2-0.4-0.3-0.8-0.3-1.2V4
	c0-0.2,0.1-0.3,0.2-0.4c0.1-0.1,0.3-0.1,0.4-0.1L12,3.6C13,3.9,14,4,15,4c0.3,0,0.5,0.3,0.5,0.5V6c0,0.6-0.2,1.3-0.7,1.7
	c0.5,0.2,0.9,0.4,1.3,0.8h0.5c0.3,0,0.5-0.3,0.5-0.5V4.3C17.2,2,15.4,0.1,13.2,0L13.2,0z"/>
</svg>
