<svg id="family_2_" data-name="family (2)" xmlns="http://www.w3.org/2000/svg" width="248.927" height="265.673" viewBox="0 0 248.927 265.673">
  <path id="Path_3938" data-name="Path 3938" d="M78.431,82.816c21.394,0,38.8-18.577,38.8-41.408S99.823,0,78.431,0s-38.8,18.575-38.8,41.408S57.037,82.816,78.431,82.816Zm0,0" transform="translate(-20.364 0)" fill="#fff"/>
  <path id="Path_3939" data-name="Path 3939" d="M372.042,171.221c10.69,0,19.383-9.277,19.383-20.679V136.621a186.208,186.208,0,0,1-40.093-6.008v18.5C351.33,161.327,360.588,171.221,372.042,171.221Zm0,0" transform="translate(-180.52 -62.839)" fill="#fff"/>
  <path id="Path_3940" data-name="Path 3940" d="M207.009,372.4c-25.553,0-46.341,22.188-46.341,49.46v15.193a7.549,7.549,0,0,0,7.292,7.784h78.112a7.55,7.55,0,0,0,7.293-7.784V421.866c0-27.276-20.792-49.468-46.357-49.468Zm0,0" transform="translate(-82.554 -179.164)" fill="#e5334f"/>
  <path id="Path_3941" data-name="Path 3941" d="M63.529,333.913c0-25.432,13.752-47.5,33.735-58.179-13.412-9.458-22.277-25.687-22.277-44.088a54.722,54.722,0,0,1,11.657-34.006A54.911,54.911,0,0,0,58.067,189.6C26.049,189.6,0,217.4,0,251.571v97.536a7.549,7.549,0,0,0,7.293,7.783H64.782a24.665,24.665,0,0,1-1.253-7.783Zm0,0" transform="translate(0 -91.217)" fill="#e5334f"/>
  <path id="Path_3942" data-name="Path 3942" d="M219.126,273.344c19.241,0,34.892-16.706,34.892-37.239s-15.651-37.239-34.892-37.239-34.891,16.706-34.891,37.239S199.885,273.344,219.126,273.344Zm0,0" transform="translate(-94.663 -95.676)" fill="#fff"/>
  <path id="Path_3943" data-name="Path 3943" d="M351.137,238.871a54.55,54.55,0,0,0-18.5,3.225,56.061,56.061,0,0,1,1.58,13.256c0,18.4-8.867,34.634-22.281,44.089,19.986,10.686,33.739,32.751,33.739,58.185v15.186a24.67,24.67,0,0,1-1.254,7.783h57.489a7.549,7.549,0,0,0,7.293-7.783V300.844C409.2,266.672,383.156,238.871,351.137,238.871Zm0,0" transform="translate(-160.278 -114.923)" fill="#e5334f"/>
  <path id="Path_3944" data-name="Path 3944" d="M331.2,0c-32.02,0-58.071,27.8-58.071,61.977v26.4a48.6,48.6,0,0,1,27.738,15.942,39.442,39.442,0,0,1-4.3-18.042V57.8a7.982,7.982,0,0,1,2.807-6.133,6.935,6.935,0,0,1,6.255-1.415l8.515,2.272a172.256,172.256,0,0,0,44.4,5.831,7.554,7.554,0,0,1,7.293,7.783V87.7a37.44,37.44,0,0,1-9.729,25.369,71.507,71.507,0,0,1,18.714,10.876h7.157a7.553,7.553,0,0,0,7.292-7.783V61.977C389.264,27.8,363.215,0,331.2,0Zm0,0" transform="translate(-140.337 0)" fill="#fff"/>
</svg>
