<?xml version="1.0" encoding="utf-8"?>
<!-- Generator: Adobe Illustrator 24.0.1, SVG Export Plug-In . SVG Version: 6.00 Build 0)  -->
<svg version="1.1" id="Layer_1" xmlns="http://www.w3.org/2000/svg" xmlns:xlink="http://www.w3.org/1999/xlink" x="0px" y="0px"
	 viewBox="0 0 32 32" style="enable-background:new 0 0 32 32;" xml:space="preserve">
<style type="text/css">
	.st0{fill:#0071BB;}
	.st1{fill:#00A89C;}
</style>
<g>
	<path class="st0" d="M9.3,16.6c0-0.5-0.1-1.1-0.2-1.6c-0.3-1.1-1-2-2.1-2.5c-0.8-0.4-1.6-0.5-2.3-0.5c-0.8,0-1.6,0.2-2.3,0.5
		C1.2,13,0.5,13.8,0.2,15C0.1,15.5,0,16.1,0,16.6c0,2.8,0,5.5,0,8.3c0,0.3,0,0.5,0,0.8c0,0.2,0.1,0.5,0.3,0.6c0.3,0.2,0.6,0.3,1,0.1
		c0.3-0.2,0.5-0.4,0.5-0.8c0-3,0-5.9,0-8.9c0-0.2,0-0.5,0-0.7c0.1-1.2,0.8-2.1,1.9-2.4c0.3-0.1,0.6-0.1,0.9-0.1c0.3,0,0.6,0,0.9,0.1
		c1.1,0.3,1.9,1.2,1.9,2.4c0,0.2,0,0.5,0,0.7c0,3,0,5.9,0,8.9c0,0.4,0.1,0.7,0.5,0.8c0.4,0.2,0.7,0.1,1-0.1c0.2-0.2,0.3-0.4,0.3-0.6
		c0-0.3,0-0.5,0-0.8C9.3,22.2,9.3,19.4,9.3,16.6"/>
	<path class="st0" d="M7,7.8c0,1.3-1,2.3-2.3,2.3c-1.3,0-2.3-1-2.3-2.3c0-1.3,1-2.3,2.3-2.3C5.9,5.5,7,6.5,7,7.8"/>
	<path class="st1" d="M22.1,7.8c0,1.3-1,2.3-2.3,2.3c-1.3,0-2.3-1-2.3-2.3c0-1.3,1-2.3,2.3-2.3C21.1,5.5,22.1,6.5,22.1,7.8"/>
	<path class="st0" d="M14.6,7.8c0,1.3-1,2.3-2.3,2.3c-1.3,0-2.3-1-2.3-2.3c0-1.3,1-2.3,2.3-2.3C13.5,5.5,14.6,6.5,14.6,7.8"/>
	<path class="st1" d="M29.7,7.8c0,1.3-1,2.3-2.3,2.3c-1.3,0-2.3-1-2.3-2.3c0-1.3,1-2.3,2.3-2.3C28.7,5.5,29.7,6.5,29.7,7.8"/>
	<path class="st0" d="M16.9,16.5c0-0.2,0-0.4,0-0.5c-0.2-1.7-1-3-2.7-3.7c-1-0.4-2.1-0.5-3.1-0.2c-0.8,0.2-1.4,0.5-1.9,1.1
		c0.3,0.4,0.6,0.9,0.7,1.4c0.3-0.5,0.8-0.8,1.4-0.9c0.3-0.1,0.7-0.1,1.1-0.1c1.7,0,2.7,1.1,2.8,2.7c0,1.8,0,3.7,0,5.5
		c0,1.3,0,2.6,0,3.9c0,0.3,0.1,0.5,0.3,0.7c0.3,0.2,0.6,0.3,1,0.1c0.4-0.2,0.5-0.4,0.5-0.8C16.9,22.5,16.9,19.5,16.9,16.5"/>
	<path class="st1" d="M32,16.5c0-0.2,0-0.4,0-0.5c-0.2-1.7-1-3-2.7-3.7c-1-0.4-2.1-0.5-3.1-0.2c-0.8,0.2-1.4,0.5-1.9,1.1
		c0.3,0.4,0.6,0.9,0.7,1.4c0.3-0.5,0.8-0.8,1.4-0.9c0.3-0.1,0.7-0.1,1.1-0.1c1.7,0,2.7,1.1,2.8,2.7c0,1.8,0,3.7,0,5.5
		c0,1.3,0,2.6,0,3.9c0,0.3,0.1,0.5,0.3,0.7c0.3,0.2,0.6,0.3,1,0.1c0.4-0.2,0.5-0.4,0.5-0.8C32,22.5,32,19.5,32,16.5"/>
	<path class="st1" d="M24.5,16.5c0-0.2,0-0.4,0-0.5c-0.2-1.7-1-3-2.7-3.7c-1-0.4-2.1-0.5-3.1-0.2c-0.8,0.2-1.4,0.5-1.9,1.1
		c0.3,0.4,0.6,0.9,0.7,1.4c0.3-0.5,0.8-0.8,1.4-0.9c0.3-0.1,0.7-0.1,1.1-0.1c1.7,0,2.7,1.1,2.8,2.7c0,1.8,0,3.7,0,5.5
		c0,1.3,0,2.6,0,3.9c0,0.3,0.1,0.5,0.3,0.7c0.3,0.2,0.6,0.3,1,0.1c0.4-0.2,0.5-0.4,0.5-0.8C24.5,22.5,24.5,19.5,24.5,16.5"/>
</g>
</svg>
