<svg id="file" xmlns="http://www.w3.org/2000/svg" width="13.915" height="17" viewBox="0 0 13.915 17">
  <path id="Path_3838" data-name="Path 3838" d="M208.709,108.4h-.5v12.211a1.473,1.473,0,0,1-1.472,1.472H197.7v.453a.939.939,0,0,0,.939.939h10.069a.939.939,0,0,0,.939-.939v-13.2A.938.938,0,0,0,208.709,108.4Z" transform="translate(-195.732 -106.475)" fill="#a3a3a3"/>
  <path id="Path_3839" data-name="Path 3839" d="M92.872,15.075h5.034a.939.939,0,0,0,.939-.939V.939A.939.939,0,0,0,97.906,0H91.2V.311a.911.911,0,0,1,.005.1V2.982A1.324,1.324,0,0,1,89.88,4.3H87.308c-.027,0-.055,0-.082,0H86.9v9.834a.939.939,0,0,0,.939.939h5.033Zm.19-3.192H89.779a.444.444,0,0,1,0-.888h3.284a.444.444,0,1,1,0,.888Zm3.284-2.265H89.779a.444.444,0,0,1,0-.888h6.566a.444.444,0,0,1,0,.888ZM89.779,6.325h6.566a.444.444,0,0,1,0,.888H89.779a.444.444,0,0,1,0-.888Z" transform="translate(-86.9)" fill="#a3a3a3"/>
  <path id="Path_3840" data-name="Path 3840" d="M87.943,4.56h2.581a.788.788,0,0,0,.781-.781V1.2a.4.4,0,0,0-.4-.4.385.385,0,0,0-.277.117L87.662,3.885A.4.4,0,0,0,87.943,4.56Z" transform="translate(-87.535 -0.786)" fill="#a3a3a3"/>
</svg>
