<?xml version="1.0" encoding="utf-8"?>
<!-- Generator: Adobe Illustrator 23.0.0, SVG Export Plug-In . SVG Version: 6.00 Build 0)  -->
<svg version="1.1" id="file" xmlns="http://www.w3.org/2000/svg" xmlns:xlink="http://www.w3.org/1999/xlink" x="0px" y="0px"
	 viewBox="0 0 13.9 17" style="enable-background:new 0 0 13.9 17;" xml:space="preserve">
<style type="text/css">
	.st0{fill:#283279;}
</style>
<path id="Path_3838" class="st0" d="M13,1.9h-0.5v12.2c0,0.8-0.7,1.5-1.5,1.5H2v0.5C2,16.6,2.4,17,2.9,17H13c0.5,0,0.9-0.4,0.9-0.9
	V2.9C13.9,2.3,13.5,1.9,13,1.9z"/>
<path id="Path_3839" class="st0" d="M6,15.1h5c0.5,0,0.9-0.4,0.9-0.9l0,0V0.9C11.9,0.4,11.5,0,11,0l0,0H4.3v0.3v0.1V3
	c0,0.7-0.6,1.3-1.3,1.3H0.4H0.3H0v9.8C0,14.6,0.4,15,0.9,15l0,0L6,15.1L6,15.1z M6.2,11.9H2.9c-0.2,0-0.4-0.2-0.4-0.4S2.6,11,2.9,11
	h3.3c0.2,0,0.4,0.2,0.4,0.4S6.4,11.9,6.2,11.9L6.2,11.9z M9.4,9.6H2.9c-0.2,0-0.4-0.2-0.4-0.4s0.2-0.4,0.4-0.4h6.6
	c0.2,0,0.4,0.2,0.4,0.4S9.7,9.6,9.4,9.6L9.4,9.6z M2.9,6.3h6.6c0.2,0,0.4,0.2,0.4,0.4c0,0.2-0.2,0.4-0.4,0.4H2.9
	C2.6,7.2,2.4,7,2.4,6.8C2.4,6.5,2.6,6.3,2.9,6.3z"/>
<path id="Path_3840" class="st0" d="M0.4,3.8H3c0.4,0,0.8-0.4,0.8-0.8V0.4C3.8,0.2,3.6,0,3.4,0l0,0C3.3,0,3.2,0,3.1,0.1l-3,3
	C0,3.3,0,3.5,0.1,3.7C0.2,3.7,0.3,3.8,0.4,3.8z"/>
</svg>
