<svg id="Group_53693" data-name="Group 53693" xmlns="http://www.w3.org/2000/svg" width="21.721" height="21.721" viewBox="0 0 21.721 21.721">
  <g id="Group_53694" data-name="Group 53694">
    <g id="Group_53693-2" data-name="Group 53693">
      <path id="Path_44162" data-name="Path 44162" d="M38.986,29.813A9.153,9.153,0,0,0,35.043,47.23l.287-5.54s-.539-.177-.657-.235c-1.144-.5-1.975-1.987-1.975-3.913,0-2.1,1.629-3.911,3.2-3.926h.006c1.576.015,3.205,1.825,3.205,3.926,0,1.925-.832,3.408-1.973,3.913l-.663.241.32,6.159a8.979,8.979,0,0,0,5.1-.206l.284-5.489A2.943,2.943,0,0,1,40.4,40.923c-.5-.742.381-7.307.381-7.307h.57v6.16h.566v-6.16h.619v6.161H43.1V33.618h.642v6.161h.565V33.618h.437s.876,6.565.381,7.307a2.951,2.951,0,0,1-1.766,1.234l-.025.009.247,4.722a9.154,9.154,0,0,0-4.593-17.076Z" transform="translate(-28.124 -28.112)" fill="#e27707"/>
      <path id="Path_44163" data-name="Path 44163" d="M91.517,142.194a2.634,2.634,0,0,1,.079-.263.12.12,0,0,0-.067-.134.109.109,0,0,0-.144.031s-.063.1-.153.247a2.654,2.654,0,0,0-.258.582,4.816,4.816,0,0,0-.177.845,4.03,4.03,0,0,0-.013.49,2.319,2.319,0,0,0,.094.519,3.362,3.362,0,0,0,.819,1.5,2.818,2.818,0,0,0,.438.355l.041.029.073.046a.84.84,0,0,0,.176.073.106.106,0,0,0,.12-.05.107.107,0,0,0-.035-.127,1.146,1.146,0,0,1-.13-.143,2.588,2.588,0,0,1-.168-.23c-.045-.065-.1-.139-.147-.21a7.412,7.412,0,0,1-.578-1.423,1.893,1.893,0,0,1-.081-.392,4,4,0,0,1-.023-.419,5.53,5.53,0,0,1,.034-.777A3.034,3.034,0,0,1,91.517,142.194Z" transform="translate(-85.602 -133.694)" fill="#e27707"/>
      <path id="Path_44164" data-name="Path 44164" d="M10.861,0a10.861,10.861,0,1,0,10.86,10.86A10.874,10.874,0,0,0,10.861,0Zm0,20.911A10.051,10.051,0,1,1,20.912,10.86,10.063,10.063,0,0,1,10.861,20.911Z" fill="#e27707"/>
    </g>
  </g>
</svg>
