<svg id="Group_53709" data-name="Group 53709" xmlns="http://www.w3.org/2000/svg" width="26.604" height="26.604" viewBox="0 0 26.604 26.604">
  <g id="Group_53694" data-name="Group 53694">
    <g id="Group_53693" data-name="Group 53693">
      <path id="Path_44162" data-name="Path 44162" d="M41.044,29.813a11.211,11.211,0,0,0-4.829,21.332l.351-6.785s-.66-.217-.805-.287c-1.4-.617-2.419-2.434-2.419-4.792,0-2.573,2-4.79,3.925-4.808h.007c1.93.018,3.925,2.235,3.925,4.808,0,2.358-1.019,4.174-2.417,4.792l-.811.3.392,7.544a11,11,0,0,0,6.248-.253l.348-6.723a3.6,3.6,0,0,1-2.186-1.516c-.606-.908.467-8.949.467-8.949h.7v7.545h.693V34.473h.758v7.546h.69V34.473h.787v7.546h.692V34.473H48.1s1.073,8.04.466,8.949A3.615,3.615,0,0,1,46.4,44.933l-.031.011.3,5.783a11.212,11.212,0,0,0-5.625-20.915Z" transform="translate(-27.742 -27.73)" fill="#fff"/>
      <path id="Path_44163" data-name="Path 44163" d="M91.682,142.286a3.226,3.226,0,0,1,.1-.322.147.147,0,0,0-.082-.164.134.134,0,0,0-.176.038s-.077.122-.188.3a3.25,3.25,0,0,0-.316.713,5.9,5.9,0,0,0-.216,1.035,4.938,4.938,0,0,0-.016.6,2.841,2.841,0,0,0,.115.636,4.118,4.118,0,0,0,1,1.831,3.451,3.451,0,0,0,.536.434l.051.036c.031.02.061.039.09.056a1.029,1.029,0,0,0,.216.089.13.13,0,0,0,.147-.062.132.132,0,0,0-.043-.156,1.4,1.4,0,0,1-.16-.175,3.173,3.173,0,0,1-.205-.282c-.055-.08-.119-.17-.179-.257a9.079,9.079,0,0,1-.708-1.742,2.318,2.318,0,0,1-.1-.48,4.9,4.9,0,0,1-.028-.513,6.774,6.774,0,0,1,.042-.952A3.716,3.716,0,0,1,91.682,142.286Z" transform="translate(-84.438 -131.876)" fill="#fff"/>
      <path id="Path_44164" data-name="Path 44164" d="M13.3,0A13.3,13.3,0,1,0,26.6,13.3,13.318,13.318,0,0,0,13.3,0Zm0,25.611A12.31,12.31,0,1,1,25.613,13.3,12.324,12.324,0,0,1,13.3,25.611Z" fill="#fff"/>
    </g>
  </g>
</svg>
