<svg xmlns="http://www.w3.org/2000/svg" width="30.926" height="27.953" viewBox="0 0 30.926 27.953">
  <g id="heart" transform="translate(0.25 0.25)">
    <path id="Path_64" data-name="Path 64" d="M40.594,262.6a.594.594,0,1,0,.594.594A.594.594,0,0,0,40.594,262.6Zm0,0" transform="translate(-37.624 -247.027)" fill="#fff" stroke="#fff" stroke-width="0.5"/>
    <path id="Path_65" data-name="Path 65" d="M27.306,227.034l-5.6,1.925a2.371,2.371,0,0,0-2.338-2.8H15.52a.6.6,0,0,1-.292-.076L12.09,224.32a4.162,4.162,0,0,0-2.039-.535H5.839a1.785,1.785,0,0,0-1.68-1.188H.594a.594.594,0,0,0-.594.594v10.693a.594.594,0,0,0,.594.594H4.159a1.786,1.786,0,0,0,1.663-1.143,5.424,5.424,0,0,1,1.94.576l3.107,1.864a7.573,7.573,0,0,0,7.031.4l11.088-4.882a2.29,2.29,0,0,0-1.682-4.261ZM4.753,232.7a.6.6,0,0,1-.594.591H1.188v-9.505h2.97a.6.6,0,0,1,.594.594Zm23.784-2.5-.019.008L17.41,235.094a6.385,6.385,0,0,1-5.931-.337l-3.107-1.864a6.551,6.551,0,0,0-2.432-.74v-7.179H10.05a2.972,2.972,0,0,1,1.457.382l3.139,1.765a1.785,1.785,0,0,0,.874.229h3.847a1.188,1.188,0,1,1,0,2.376H13.328a.594.594,0,1,0,0,1.188h6.039a2.372,2.372,0,0,0,1.114-.278l7.224-2.483a1.1,1.1,0,1,1,.832,2.042Zm0,0" transform="translate(0 -209.403)" fill="#fff" stroke="#fff" stroke-width="0.5"/>
    <path id="Path_66" data-name="Path 66" d="M167.749,14.911a.595.595,0,0,0,.778,0c4.847-4.2,7.846-6.327,7.846-9.631A4.549,4.549,0,0,0,171.924.5a4.4,4.4,0,0,0-3.856,2.461,4.32,4.32,0,0,0-8.094.825.594.594,0,1,0,1.14.334,3.224,3.224,0,0,1,3.1-2.431A3.716,3.716,0,0,1,167.495,4.6a.594.594,0,0,0,1.145,0c.008-.029.833-2.906,3.284-2.906a3.362,3.362,0,0,1,3.261,3.591c0,2.643-2.583,4.548-7.047,8.4-2.72-2.336-4.88-3.98-6.108-5.588a.594.594,0,1,0-.945.721c1.384,1.813,3.721,3.549,6.664,6.1Zm0,0" transform="translate(-150.447 -0.501)" fill="#fff" stroke="#fff" stroke-width="0.5"/>
    <path id="Path_67" data-name="Path 67" d="M159.594,88.6a.594.594,0,1,0,.594.594A.594.594,0,0,0,159.594,88.6Zm0,0" transform="translate(-149.554 -83.364)" fill="#fff" stroke="#fff" stroke-width="0.5"/>
  </g>
</svg>
