<svg xmlns="http://www.w3.org/2000/svg" width="17.25" height="17.252" viewBox="0 0 17.25 17.252">
  <path id="home-run" d="M16.786,7.5h0L9.748.465A1.588,1.588,0,0,0,7.5.465L.468,7.5l-.007.007a1.587,1.587,0,0,0,1.057,2.706l.049,0h.28v5.179a1.861,1.861,0,0,0,1.859,1.859H6.459a.505.505,0,0,0,.505-.505v-4.06a.849.849,0,0,1,.848-.848H9.437a.849.849,0,0,1,.848.848v4.06a.505.505,0,0,0,.505.505h2.753A1.861,1.861,0,0,0,15.4,15.392V10.214h.26A1.588,1.588,0,0,0,16.786,7.5Zm0,0" transform="translate(0 0.001)" fill="#c70100"/>
</svg>
