<?xml version="1.0" encoding="utf-8"?>
<!-- Generator: Adobe Illustrator 23.0.0, SVG Export Plug-In . SVG Version: 6.00 Build 0)  -->
<svg version="1.1" id="insert-picture-icon" xmlns="http://www.w3.org/2000/svg" xmlns:xlink="http://www.w3.org/1999/xlink"
	 x="0px" y="0px" viewBox="0 0 18.1 17" style="enable-background:new 0 0 18.1 17;" xml:space="preserve">
<style type="text/css">
	.st0{fill:#283279;}
</style>
<path id="Path_3837" class="st0" d="M16.1,0h-14C0.9,0,0,0.9,0,2v12.9c0,1.1,0.9,2,2.1,2h14c1.1,0,2-0.9,2-2V2
	C18.1,0.9,17.2,0,16.1,0z M11.7,3c1.1,0,2,0.9,2,2s-0.9,2-2,2s-2-0.9-2-2S10.6,3,11.7,3L11.7,3z M15.4,15.1H3
	c-0.3,0.1-0.6-0.2-0.6-0.5c0-0.1,0-0.3,0.1-0.4l3.4-6.7C5.9,7.2,6.2,7,6.6,7.1c0.1,0,0.3,0.1,0.3,0.3l3.4,4.5
	c0.3,0.4,0.8,0.5,1.2,0.2c0,0,0.1-0.1,0.1-0.1l0.8-0.8c0.3-0.3,0.8-0.3,1.1-0.1c0.1,0,0.1,0.1,0.1,0.2l2.2,3.1
	C16.2,14.7,16,15.1,15.4,15.1L15.4,15.1z"/>
</svg>
