<svg id="insert-picture-icon" xmlns="http://www.w3.org/2000/svg" width="18.135" height="17" viewBox="0 0 18.135 17">
  <path id="Path_3837" data-name="Path 3837" d="M16.085,9.35H2.051A2.053,2.053,0,0,0,0,11.4V24.3a2.052,2.052,0,0,0,2.051,2.05H16.085a2.051,2.051,0,0,0,2.05-2.05V11.4A2.052,2.052,0,0,0,16.085,9.35ZM11.727,12.4a1.981,1.981,0,1,1-1.981,1.981A1.981,1.981,0,0,1,11.727,12.4Zm3.715,12.052H2.977a.56.56,0,0,1-.544-.884l3.4-6.734a.572.572,0,0,1,1.048-.1L10.3,21.206a.838.838,0,0,0,1.3.082l.836-.847a.8.8,0,0,1,1.264.107l2.166,3.094C16.178,24.09,15.989,24.454,15.442,24.454Z" transform="translate(0 -9.35)" fill="#a3a3a3"/>
</svg>
