<svg xmlns="http://www.w3.org/2000/svg" width="8.2" height="8.2" viewBox="0 0 8.2 8.2">
  <g id="info" transform="translate(0.1 0.1)">
    <g id="Group_3576" data-name="Group 3576" transform="translate(0 0)">
      <g id="Group_3575" data-name="Group 3575">
        <path id="Path_4039" data-name="Path 4039" d="M4,0A4,4,0,1,0,8,4,4,4,0,0,0,4,0ZM4,7.467A3.467,3.467,0,1,1,7.467,4,3.471,3.471,0,0,1,4,7.467Z" transform="translate(0 0)" fill="#2866a0" stroke="#2866a0" stroke-width="0.2"/>
      </g>
    </g>
    <g id="Group_3578" data-name="Group 3578" transform="translate(3.806 3.753)">
      <g id="Group_3577" data-name="Group 3577">
        <path id="Path_4040" data-name="Path 4040" d="M239.124,209.777a.194.194,0,0,0-.194.194v1.639a.194.194,0,1,0,.389,0v-1.639A.194.194,0,0,0,239.124,209.777Z" transform="translate(-238.93 -209.777)" fill="#2866a0" stroke="#2866a0" stroke-width="0.2"/>
      </g>
    </g>
    <g id="Group_3580" data-name="Group 3580" transform="translate(3.611 2.02)">
      <g id="Group_3579" data-name="Group 3579">
        <path id="Path_4041" data-name="Path 4041" d="M222.256,124.122a.389.389,0,1,0,.388.389A.389.389,0,0,0,222.256,124.122Z" transform="translate(-221.867 -124.122)" fill="#2866a0" stroke="#2866a0" stroke-width="0.2"/>
      </g>
    </g>
  </g>
</svg>
