<svg xmlns="http://www.w3.org/2000/svg" width="20.932" height="18" viewBox="0 0 20.932 18">
  <g id="Group_14109" data-name="Group 14109" transform="translate(-19458 7798)">
    <g id="danger" transform="translate(19458 -7798)">
      <g id="Group_2375" data-name="Group 2375" transform="translate(0)">
        <g id="Group_2374" data-name="Group 2374" transform="translate(0 0)">
          <path id="Path_3797" data-name="Path 3797" d="M20.662,51.006,12.076,36.766a1.88,1.88,0,0,0-3.221,0L.269,51.006a1.88,1.88,0,0,0,1.61,2.851H19.051a1.88,1.88,0,0,0,1.61-2.851Z" transform="translate(0 -35.857)" fill="#ffa126"/>
        </g>
      </g>
    </g>
    <g id="Group_2394" data-name="Group 2394" transform="translate(19467.537 -7792.239)">
      <g id="Group_2392" data-name="Group 2392" transform="translate(0.037)">
        <g id="Group_2376" data-name="Group 2376">
          <path id="Path_3798" data-name="Path 3798" d="M234.477,173c-.505,0-.9.271-.9.752,0,1.466.172,3.573.172,5.039,0,.382.333.542.727.542.3,0,.715-.16.715-.542,0-1.466.172-3.573.172-5.039A.792.792,0,0,0,234.477,173Z" transform="translate(-233.578 -173.005)" fill="#fff"/>
        </g>
      </g>
      <g id="Group_2393" data-name="Group 2393" transform="translate(0 7.183)">
        <g id="Group_2378" data-name="Group 2378">
          <path id="Path_3799" data-name="Path 3799" d="M233.6,353.306a.949.949,0,0,0,0,1.9.949.949,0,0,0,0-1.9Z" transform="translate(-232.651 -353.306)" fill="#fff"/>
        </g>
      </g>
    </g>
  </g>
</svg>
