<?xml version="1.0" encoding="utf-8"?>
<!-- Generator: Adobe Illustrator 23.0.0, SVG Export Plug-In . SVG Version: 6.00 Build 0)  -->
<svg version="1.1" id="Layer_1" xmlns="http://www.w3.org/2000/svg" xmlns:xlink="http://www.w3.org/1999/xlink" x="0px" y="0px"
	 viewBox="0 0 512 512" style="enable-background:new 0 0 512 512;" xml:space="preserve">
<style type="text/css">
	.st0{fill:#A3A3A3;}
</style>
<path class="st0" d="M341.3,62.9c-61.8,0-112,50.2-112,112s50.2,112,112,112s112-50.2,112-112S403.1,62.9,341.3,62.9z M338.8,165.2
	l10.2,3.2c10.7,3.4,18,13.2,18,24.4v3.5c0,12.3-8.7,22.6-20.3,25v2.7c0,4.7-3.8,8.5-8.5,8.5s-8.5-3.8-8.5-8.5v-5
	c-8.2-4.3-13.9-12.9-13.9-22.7c0-4.7,3.8-8.5,8.5-8.5s8.5,3.8,8.5,8.5s3.8,8.5,8.5,8.5s8.5-3.8,8.5-8.5v-3.5c0-3.8-2.4-7-6-8.1
	l-10.2-3.2c-10.7-3.4-18-13.2-18-24.4v-3.5c0-11.1,7.1-20.6,17.1-24.1v-3.6c0-4.7,3.8-8.5,8.5-8.5s8.5,3.8,8.5,8.5v3.6
	c9.9,3.5,17.1,13,17.1,24.1c0,4.7-3.8,8.5-8.5,8.5s-8.5-3.8-8.5-8.5s-3.8-8.5-8.5-8.5s-8.5,3.8-8.5,8.5v3.5
	C332.8,160.8,335.2,164.1,338.8,165.2z M420,494.9c-23.4-0.2-42.4-19.2-42.4-42.7V309.7c0-5.4-5-9.5-10.2-8.4
	c-79.2,16.5-155.1-44.4-155.1-126.4s75.9-143,155.1-126.4c5.3,1.1,10.2-3,10.2-8.4v-6c0-18.9-15.3-34.1-34.1-34.1H66.1
	C47.3,0,32,15.3,32,34.1v418.1c0,33,26.7,59.7,59.7,59.7h328.5c4.9,0,8.9-4.2,8.5-9.2C428.4,498.3,424.5,495,420,494.9L420,494.9z
	 M115.2,124.8h72.5c4.7,0,8.5,3.8,8.5,8.5s-3.8,8.5-8.5,8.5h-72.5c-4.7,0-8.5-3.8-8.5-8.5S110.5,124.8,115.2,124.8z M115.2,220.8
	h72.5c4.7,0,8.5,3.8,8.5,8.5s-3.8,8.5-8.5,8.5h-72.5c-4.7,0-8.5-3.8-8.5-8.5S110.5,220.8,115.2,220.8z M294.4,423.5H115.2
	c-4.7,0-8.5-3.8-8.5-8.5s3.8-8.5,8.5-8.5h179.2c4.7,0,8.5,3.8,8.5,8.5C302.9,419.6,299.1,423.5,294.4,423.5z M294.4,333.9H115.2
	c-4.7,0-8.5-3.8-8.5-8.5s3.8-8.5,8.5-8.5h179.2c4.7,0,8.5,3.8,8.5,8.5S299.1,333.9,294.4,333.9z M480,439.4
	c0,23.6-19.1,42.7-42.6,42.7s-42.6-19.1-42.6-42.6c0-78.8-0.1-109.5,0-121.7c0-4.7,3.8-8.5,8.5-8.5h42.6c17.7,0,32.3,13.5,34,30.7
	L480,439.4z"/>
</svg>
