<svg xmlns="http://www.w3.org/2000/svg" width="18.178" height="18" viewBox="0 0 18.178 18">
  <g id="Group_2890" data-name="Group 2890" transform="translate(-20.911 -21)">
    <path id="Path_3941" data-name="Path 3941" d="M39.089,22.212A1.214,1.214,0,0,0,37.877,21H22.123a1.209,1.209,0,0,0-.3,2.381v14.71l.909-.909L24.547,39l1.817-1.818L28.182,39,30,37.182,31.818,39l1.818-1.818L35.453,39l1.818-1.818.909.909V23.381A1.212,1.212,0,0,0,39.089,22.212ZM37.574,36.628l-.3-.3-1.818,1.818-1.817-1.818-1.818,1.818L30,36.325l-1.818,1.818-1.818-1.818-1.817,1.818-1.818-1.818-.3.3V22.515H37.574V36.628Zm.606-13.892v-.827H21.82v.827a.605.605,0,0,1,.3-1.13H37.877a.605.605,0,0,1,.3,1.13Z" fill="#2866a0"/>
    <path id="Path_3942" data-name="Path 3942" d="M34.241,33.118H29.7a.3.3,0,1,0,0,.606h4.544a.3.3,0,0,0,0-.606Z" fill="#2866a0"/>
    <path id="Path_3943" data-name="Path 3943" d="M35.541,33.206a.314.314,0,0,0-.088.215.3.3,0,0,0,.3.3.3.3,0,0,0,.3-.3.309.309,0,0,0-.088-.215A.317.317,0,0,0,35.541,33.206Z" fill="#2866a0"/>
    <path id="Path_3944" data-name="Path 3944" d="M35.756,28.877H31.212a.3.3,0,1,0,0,.606h4.544a.3.3,0,0,0,0-.606Z" fill="#2866a0"/>
    <path id="Path_3945" data-name="Path 3945" d="M35.756,31H32.727a.3.3,0,1,0,0,.606h3.029a.3.3,0,0,0,0-.606Z" fill="#2866a0"/>
    <path id="Path_3946" data-name="Path 3946" d="M29.394,31.3a.3.3,0,0,0,.3.3H30.3a.3.3,0,1,0,0-.606H29.7A.3.3,0,0,0,29.394,31.3Z" fill="#2866a0"/>
    <path id="Path_3947" data-name="Path 3947" d="M34.544,27.059a.3.3,0,0,0-.3-.3H29.7a.3.3,0,1,0,0,.606h4.544A.3.3,0,0,0,34.544,27.059Z" fill="#2866a0"/>
    <path id="Path_3948" data-name="Path 3948" d="M35.541,26.844a.314.314,0,0,0-.088.215.3.3,0,0,0,.3.3.309.309,0,0,0,.215-.088.3.3,0,0,0-.43-.43Z" fill="#2866a0"/>
    <path id="Path_3949" data-name="Path 3949" d="M30.215,29.4a.307.307,0,0,0,0-.43.317.317,0,0,0-.43,0,.307.307,0,0,0,0,.43.307.307,0,0,0,.43,0Z" fill="#2866a0"/>
    <path id="Path_3950" data-name="Path 3950" d="M31.73,31.516a.318.318,0,0,0,.088-.215.308.308,0,0,0-.088-.215.3.3,0,0,0-.518.215.3.3,0,0,0,.518.215Z" fill="#2866a0"/>
    <path id="Path_3951" data-name="Path 3951" d="M26.062,27.393v-.334a.3.3,0,0,0-.606,0v.335a1.506,1.506,0,0,0-.854.505,1.045,1.045,0,0,0-.241.789,1.107,1.107,0,0,0,.419.754l.676.526v1.647a.907.907,0,0,1-.606-.853.3.3,0,0,0-.606,0,1.517,1.517,0,0,0,1.212,1.484v.266a.3.3,0,0,0,.606,0v-.267a1.518,1.518,0,0,0,.854-.5,1.048,1.048,0,0,0,.24-.79,1.1,1.1,0,0,0-.419-.753l-.675-.525V28.024a.909.909,0,0,1,.6.853.3.3,0,0,0,.606,0A1.518,1.518,0,0,0,26.062,27.393Zm.3,3.282a.5.5,0,0,1,.188.339.437.437,0,0,1-.1.334.909.909,0,0,1-.391.266V30.439Zm-1.213-1.711a.5.5,0,0,1-.188-.339.445.445,0,0,1,.1-.335.919.919,0,0,1,.392-.265V29.2Z" fill="#2866a0"/>
    <circle id="Ellipse_203" data-name="Ellipse 203" cx="0.303" cy="0.303" r="0.303" transform="translate(32.727 24.03)" fill="#2866a0"/>
    <circle id="Ellipse_204" data-name="Ellipse 204" cx="0.303" cy="0.303" r="0.303" transform="translate(31.515 24.03)" fill="#2866a0"/>
    <circle id="Ellipse_205" data-name="Ellipse 205" cx="0.303" cy="0.303" r="0.303" transform="translate(33.938 24.03)" fill="#2866a0"/>
    <circle id="Ellipse_206" data-name="Ellipse 206" cx="0.303" cy="0.303" r="0.303" transform="translate(30.303 24.03)" fill="#2866a0"/>
    <circle id="Ellipse_207" data-name="Ellipse 207" cx="0.303" cy="0.303" r="0.303" transform="translate(35.15 24.03)" fill="#2866a0"/>
    <circle id="Ellipse_208" data-name="Ellipse 208" cx="0.303" cy="0.303" r="0.303" transform="translate(26.667 24.03)" fill="#2866a0"/>
    <circle id="Ellipse_209" data-name="Ellipse 209" cx="0.303" cy="0.303" r="0.303" transform="translate(27.879 24.03)" fill="#2866a0"/>
    <circle id="Ellipse_210" data-name="Ellipse 210" cx="0.303" cy="0.303" r="0.303" transform="translate(29.091 24.03)" fill="#2866a0"/>
    <circle id="Ellipse_211" data-name="Ellipse 211" cx="0.303" cy="0.303" r="0.303" transform="translate(36.362 24.03)" fill="#2866a0"/>
    <circle id="Ellipse_212" data-name="Ellipse 212" cx="0.303" cy="0.303" r="0.303" transform="translate(25.456 24.03)" fill="#2866a0"/>
    <circle id="Ellipse_213" data-name="Ellipse 213" cx="0.303" cy="0.303" r="0.303" transform="translate(24.244 24.03)" fill="#2866a0"/>
    <circle id="Ellipse_214" data-name="Ellipse 214" cx="0.303" cy="0.303" r="0.303" transform="translate(23.032 24.03)" fill="#2866a0"/>
  </g>
</svg>
