<svg id="miscellaneous" xmlns="http://www.w3.org/2000/svg" width="21.573" height="21.572" viewBox="0 0 21.573 21.572">
  <path id="Path_6229" data-name="Path 6229" d="M19.251,0H11.064a.632.632,0,0,0-.447.185L.679,10.122a2.325,2.325,0,0,0,0,3.284l7.487,7.487a2.307,2.307,0,0,0,1.642.678h0a2.306,2.306,0,0,0,1.642-.678l9.938-9.938a.632.632,0,0,0,.185-.447V2.321A2.325,2.325,0,0,0,19.251,0Zm1.058,10.248L10.557,20a1.063,1.063,0,0,1-1.5,0L1.573,12.512a1.06,1.06,0,0,1,0-1.5l9.753-9.752h7.926A1.059,1.059,0,0,1,20.31,2.321Zm0,0" transform="translate(0 0.001)"/>
  <path id="Path_6230" data-name="Path 6230" d="M334.638,85.078a1.986,1.986,0,1,0,1.4.582A1.973,1.973,0,0,0,334.638,85.078Zm.51,2.5a.722.722,0,1,1,.211-.51A.717.717,0,0,1,335.149,87.574Zm0,0" transform="translate(-318.636 -81.493)"/>
</svg>
