<svg xmlns="http://www.w3.org/2000/svg" xmlns:xlink="http://www.w3.org/1999/xlink" width="50" height="50" viewBox="0 0 50 50">
  <defs>
    <linearGradient id="linear-gradient" x1="0.173" y1="1" x2="0.867" y2="1" gradientUnits="objectBoundingBox">
      <stop offset="0" stop-color="#4a80fc"/>
      <stop offset="0.997" stop-color="#25b17e"/>
      <stop offset="1" stop-color="#22b573"/>
    </linearGradient>
  </defs>
  <g id="Group_14022" data-name="Group 14022" transform="translate(-828 -526)">
    <circle id="Ellipse_1417" data-name="Ellipse 1417" cx="25" cy="25" r="25" transform="translate(828 526)" fill="url(#linear-gradient)"/>
    <g id="Group_14021" data-name="Group 14021" transform="translate(-27 -304.597)">
      <g id="Group_14002" data-name="Group 14002">
        <g id="Group_3415" data-name="Group 3415" transform="translate(866.001 843.596)">
          <g id="Group_3397" data-name="Group 3397" transform="translate(14.668 0)">
            <g id="Group_3381" data-name="Group 3381" transform="translate(1.502 21.114)">
              <path id="Path_7697" data-name="Path 7697" d="M736.219,658.832a.605.605,0,1,1-.371-.773A.606.606,0,0,1,736.219,658.832Z" transform="translate(-735.042 -658.025)" fill="#fff"/>
            </g>
            <g id="Group_3382" data-name="Group 3382" transform="translate(12.367 11.247)">
              <path id="Path_7698" data-name="Path 7698" d="M787.055,612.586a3.541,3.541,0,0,0-.753.547,2.941,2.941,0,0,0-.547.841c-.179.38-.252.791-.412,1.174a5.094,5.094,0,0,0,1.062-.723,2.333,2.333,0,0,0,.451-.444,2,2,0,0,0,.283-.617,2.212,2.212,0,0,1,.1-.3c.06-.118.182-.194.247-.315a1.516,1.516,0,0,1,.215-.4,1.069,1.069,0,0,0-.543.182c-.034.017-.066.034-.1.055Z" transform="translate(-785.343 -612.348)" fill="#fff"/>
            </g>
            <g id="Group_3383" data-name="Group 3383" transform="translate(11.236 14.212)">
              <path id="Path_7699" data-name="Path 7699" d="M782.06,627.212a1.734,1.734,0,0,1-.5.58,3.91,3.91,0,0,1-.364.241,2.162,2.162,0,0,1-.471.159,1.282,1.282,0,0,1-.343.043c-.091,0-.188.04-.274.033a1.3,1.3,0,0,0,.122-.245c.054-.113.128-.208.185-.318a2.308,2.308,0,0,1,.37-.53,3.7,3.7,0,0,1,.457-.456,3.633,3.633,0,0,1,.559-.333,1.951,1.951,0,0,1,.464-.168.889.889,0,0,0,.379-.143c-.156.106-.229.4-.3.564a6.011,6.011,0,0,1-.285.574Z" transform="translate(-780.104 -626.074)" fill="#fff"/>
            </g>
            <g id="Group_3384" data-name="Group 3384" transform="translate(5.407 18.001)">
              <path id="Path_7700" data-name="Path 7700" d="M753.559,646.514a5.5,5.5,0,0,0,.593-1.117c.121-.463-.04-.949.044-1.413a.768.768,0,0,1,.153-.369,1,1,0,0,0-.282.131,1.453,1.453,0,0,0-.262.22,2.286,2.286,0,0,0-.332.5,2.723,2.723,0,0,0-.354,1.246c0,.3.12.718.439.818.03-.081.086-.146.121-.224" transform="translate(-753.119 -643.615)" fill="#fff"/>
            </g>
            <g id="Group_3385" data-name="Group 3385" transform="translate(3.469 19.331)">
              <path id="Path_7701" data-name="Path 7701" d="M744.148,651.827a1.8,1.8,0,0,0,.145.666.378.378,0,0,1,.044.165c.039-.042.054-.109.095-.158a1.525,1.525,0,0,1,.3-.225,1.275,1.275,0,0,0,.419-.518,2.407,2.407,0,0,0,.213-.719,3.212,3.212,0,0,0-.019-.708,3.543,3.543,0,0,1,.019-.557,4.229,4.229,0,0,1-.4.4,5.082,5.082,0,0,0-.391.474,1.912,1.912,0,0,0-.427,1.186Z" transform="translate(-744.148 -649.772)" fill="#fff"/>
            </g>
            <g id="Group_3386" data-name="Group 3386">
              <path id="Path_7702" data-name="Path 7702" d="M739.184,575.4a22.355,22.355,0,0,0,.729-2.548,1.021,1.021,0,0,1-.888-.562,1.4,1.4,0,0,1-.106-.677c.009-.213.034-.429.064-.641.021-.149.012-.448.138-.556.08.119.133.257.205.381.1.165.2.324.289.489s.2.318.277.488c.048.1.125.206.178.316.1-.549.174-1.077.229-1.585a.654.654,0,0,1-.086-.041,2.174,2.174,0,0,1-.9-1.185,2.627,2.627,0,0,1-.163-.759c0-.1.006-.213.011-.317a1,1,0,0,1,.032-.3,4.739,4.739,0,0,1,.339.382,5.674,5.674,0,0,1,.457.554,4.357,4.357,0,0,1,.288.449c.022.041.07.1.111.167a17.046,17.046,0,0,0-.634-5.893c-.019-.014-.234-.375-.268-.426a5.284,5.284,0,0,0-.55-.614,1.869,1.869,0,0,1-.375-.511c-.082-.186-.119-.384-.187-.572a3.566,3.566,0,0,1-.179-1.152,4.276,4.276,0,0,0,.633.689,6.117,6.117,0,0,1,.629.607,2.952,2.952,0,0,1,.432.718,1.729,1.729,0,0,1,.147.659c0,.106.015.381.016.414a20.565,20.565,0,0,1-.443,12.052,12.264,12.264,0,0,1-2.949,4.632,2.015,2.015,0,0,1,1.069-.207c.194.007.376.037.564.052.2.013.414.023.619.051-.086-.012-.189.064-.253.105-.119.076-.236.148-.352.226-.332.229-.6.546-.954.745a1.6,1.6,0,0,1-.688.2.788.788,0,0,1-.545-.165c-.145-.152-.084-.354.04-.537a15.889,15.889,0,0,1-1.624,1.289,1.622,1.622,0,0,1,.545,0,7.393,7.393,0,0,1,.878.223c.284.079.573.112.861.17a7.22,7.22,0,0,0-.914.47,2.69,2.69,0,0,1-.591.208,1.956,1.956,0,0,1-.615.093,1.035,1.035,0,0,1-.688-.218.516.516,0,0,1-.046-.556.113.113,0,0,1,.012-.021,19.662,19.662,0,0,1-5.887,2.5l.326-.928s8.5-1.865,10.771-8.358Z" transform="translate(-728.088 -560.279)" fill="#fff"/>
            </g>
            <g id="Group_3387" data-name="Group 3387" transform="translate(12.392 2.528)">
              <path id="Path_7703" data-name="Path 7703" d="M785.742,575.017c-.121,0-.052-.3-.064-.371-.035-.2-.142-.372-.177-.562a2.864,2.864,0,0,1,.023-1.128,3.253,3.253,0,0,1,.154-.52c.064-.154.116-.385.3-.447.147-.049.143.25.151.355a5.19,5.19,0,0,0,.056.574,5.407,5.407,0,0,1,.126.577,2.581,2.581,0,0,1-.014.635,1.177,1.177,0,0,1-.195.54c-.063.09-.225.344-.355.345Z" transform="translate(-785.456 -571.985)" fill="#fff"/>
            </g>
            <g id="Group_3388" data-name="Group 3388" transform="translate(10.209 2.866)">
              <path id="Path_7704" data-name="Path 7704" d="M775.352,573.549a1.739,1.739,0,0,1,.463.308,5.585,5.585,0,0,1,.616.507,1.837,1.837,0,0,1,.383.553,1.653,1.653,0,0,1,.155.67,1.985,1.985,0,0,1-.414-.153,1.164,1.164,0,0,1-.4-.243,1.744,1.744,0,0,1-.367-.526,6.574,6.574,0,0,1-.439-1.115Z" transform="translate(-775.352 -573.549)" fill="#fff"/>
            </g>
            <g id="Group_3389" data-name="Group 3389" transform="translate(10.791 5.025)">
              <path id="Path_7705" data-name="Path 7705" d="M778.981,584.53a2.244,2.244,0,0,1,.419,1.3.926.926,0,0,1-.435-.038,1.413,1.413,0,0,1-.765-.951,4.141,4.141,0,0,1-.116-.7,4.387,4.387,0,0,1-.037-.6c.156.139.3.3.45.448a4.351,4.351,0,0,1,.485.542Z" transform="translate(-778.045 -583.541)" fill="#fff"/>
            </g>
            <g id="Group_3390" data-name="Group 3390" transform="translate(12.863 5.07)">
              <path id="Path_7706" data-name="Path 7706" d="M788.3,586.875a.886.886,0,0,1-.383.24c-.211.021-.257-.3-.272-.45a2.246,2.246,0,0,1,.063-.729,2.953,2.953,0,0,1,.219-.592,5,5,0,0,1,.305-.614c.125-.193.271-.383.411-.567.058-.075.122-.149.178-.227.046-.063.066-.141.133-.186a4.233,4.233,0,0,1,.041.591,3.816,3.816,0,0,1,.048.647,2.934,2.934,0,0,1-.34,1.345,1.82,1.82,0,0,1-.4.541Z" transform="translate(-787.638 -583.75)" fill="#fff"/>
            </g>
            <g id="Group_3391" data-name="Group 3391" transform="translate(12.881 8.18)">
              <path id="Path_7707" data-name="Path 7707" d="M788.935,600.075a4.085,4.085,0,0,1-.645.752,4.194,4.194,0,0,1-.571.379,2.709,2.709,0,0,0,.043-.486,1.738,1.738,0,0,1,.057-.272c.035-.117.07-.232.108-.348a2.952,2.952,0,0,1,.548-1.049,4.724,4.724,0,0,1,.5-.475,3.518,3.518,0,0,1,.313-.265c.048-.033.255-.171.308-.162.069.013.007.227-.006.286a5.518,5.518,0,0,1-.216.714,4.616,4.616,0,0,1-.437.925Z" transform="translate(-787.72 -598.15)" fill="#fff"/>
            </g>
            <g id="Group_3392" data-name="Group 3392" transform="translate(10.152 12.585)">
              <path id="Path_7708" data-name="Path 7708" d="M775.1,619.671a3.107,3.107,0,0,1,.168-.616,1.5,1.5,0,0,1,.237-.514,1.55,1.55,0,0,0,.01.2,2.767,2.767,0,0,0,.308.7,1.684,1.684,0,0,1,.186.655,2.489,2.489,0,0,1-.052.653,2.24,2.24,0,0,1-.174.6c-.177-.057-.292-.347-.395-.488a1.692,1.692,0,0,1-.289-1.191Z" transform="translate(-775.086 -618.541)" fill="#fff"/>
            </g>
            <g id="Group_3393" data-name="Group 3393" transform="translate(8.952 14.5)">
              <path id="Path_7709" data-name="Path 7709" d="M770.035,630.378a2.365,2.365,0,0,1-.363-.5,2.1,2.1,0,0,1-.07-1.316,3.077,3.077,0,0,1,.252-.612,3.929,3.929,0,0,1,.225-.54,2.4,2.4,0,0,0,.228.612,2.366,2.366,0,0,1,.291.748,1.843,1.843,0,0,1-.208,1.2,1.259,1.259,0,0,1-.356.414Z" transform="translate(-769.53 -627.406)" fill="#fff"/>
            </g>
            <g id="Group_3394" data-name="Group 3394" transform="translate(9.792 16.889)">
              <path id="Path_7710" data-name="Path 7710" d="M774.127,640.238c-.233.06-.476.041-.708.092a2.26,2.26,0,0,1,.528-.721c.165-.157.349-.3.532-.445a2.767,2.767,0,0,1,.646-.4c.22-.092.436-.145.654-.216a1.9,1.9,0,0,1,.483-.079c-.068.1-.182.2-.256.307a3.5,3.5,0,0,1-.272.326,3.637,3.637,0,0,1-.928.862,2.942,2.942,0,0,1-.68.274Z" transform="translate(-773.419 -638.469)" fill="#fff"/>
            </g>
            <g id="Group_3395" data-name="Group 3395" transform="translate(7.457 16.372)">
              <path id="Path_7711" data-name="Path 7711" d="M763.119,638.8c-.143.194-.276.117-.4-.058a.577.577,0,0,1-.1-.45,3.178,3.178,0,0,1,.132-.529,4.612,4.612,0,0,1,.2-.591c.086-.189.181-.375.259-.564a2.557,2.557,0,0,1,.228-.539.946.946,0,0,0,.076.3,3.644,3.644,0,0,1,.1.472,2.338,2.338,0,0,1-.077,1.234,2.015,2.015,0,0,1-.256.532c-.051.068-.11.123-.161.192Z" transform="translate(-762.61 -636.072)" fill="#fff"/>
            </g>
            <g id="Group_3396" data-name="Group 3396" transform="translate(3.727 23.155)">
              <path id="Path_7712" data-name="Path 7712" d="M746.655,667.623c.526.154,1.027.369,1.559.488-.127.03-.217.142-.346.169-.152.034-.3.09-.457.126a3.644,3.644,0,0,1-.844.121,2.457,2.457,0,0,1-.732-.136.777.777,0,0,1-.479-.424.345.345,0,0,1,.156-.375c.329-.227.793-.073,1.143.031Z" transform="translate(-745.344 -667.475)" fill="#fff"/>
            </g>
          </g>
          <g id="Group_3414" data-name="Group 3414" transform="translate(0 0)">
            <g id="Group_3398" data-name="Group 3398" transform="translate(12.075 21.114)">
              <path id="Path_7713" data-name="Path 7713" d="M677.01,658.832a.605.605,0,1,0,.371-.773A.605.605,0,0,0,677.01,658.832Z" transform="translate(-676.976 -658.025)" fill="#fff"/>
            </g>
            <g id="Group_3399" data-name="Group 3399" transform="translate(0.067 11.247)">
              <path id="Path_7714" data-name="Path 7714" d="M622.028,612.586a3.525,3.525,0,0,1,.754.547,2.944,2.944,0,0,1,.547.841c.179.38.252.791.412,1.174a5.1,5.1,0,0,1-1.061-.723,2.326,2.326,0,0,1-.452-.444,1.989,1.989,0,0,1-.282-.617,2.231,2.231,0,0,0-.1-.3c-.06-.118-.182-.194-.247-.315a1.522,1.522,0,0,0-.215-.4,1.068,1.068,0,0,1,.543.182c.034.017.066.034.1.055Z" transform="translate(-621.387 -612.348)" fill="#fff"/>
            </g>
            <g id="Group_3400" data-name="Group 3400" transform="translate(1.016 14.212)">
              <path id="Path_7715" data-name="Path 7715" d="M626.358,627.212a1.736,1.736,0,0,0,.5.58,3.927,3.927,0,0,0,.364.241,2.156,2.156,0,0,0,.471.159,1.285,1.285,0,0,0,.343.043c.091,0,.188.04.273.033a1.328,1.328,0,0,1-.122-.245c-.053-.113-.128-.208-.185-.318a2.307,2.307,0,0,0-.37-.53,3.69,3.69,0,0,0-.458-.456,3.632,3.632,0,0,0-.559-.333,1.951,1.951,0,0,0-.464-.168.887.887,0,0,1-.379-.143c.156.106.229.4.3.564a6.056,6.056,0,0,0,.285.574Z" transform="translate(-625.777 -626.074)" fill="#fff"/>
            </g>
            <g id="Group_3401" data-name="Group 3401" transform="translate(8.152 18.001)">
              <path id="Path_7716" data-name="Path 7716" d="M659.6,646.514a5.5,5.5,0,0,1-.593-1.117c-.121-.463.04-.949-.044-1.413a.767.767,0,0,0-.153-.369.991.991,0,0,1,.282.131,1.451,1.451,0,0,1,.262.22,2.286,2.286,0,0,1,.332.5,2.727,2.727,0,0,1,.354,1.246c0,.3-.12.718-.439.818-.03-.081-.086-.146-.121-.224" transform="translate(-658.813 -643.615)" fill="#fff"/>
            </g>
            <g id="Group_3402" data-name="Group 3402" transform="translate(10.088 19.331)">
              <path id="Path_7717" data-name="Path 7717" d="M669.009,651.827a1.8,1.8,0,0,1-.145.666.381.381,0,0,0-.044.165c-.039-.042-.054-.109-.1-.158a1.517,1.517,0,0,0-.3-.225,1.275,1.275,0,0,1-.419-.518,2.4,2.4,0,0,1-.213-.719,3.2,3.2,0,0,1,.019-.708,3.58,3.58,0,0,0-.019-.557,4.227,4.227,0,0,0,.4.4,5.025,5.025,0,0,1,.391.474,1.912,1.912,0,0,1,.427,1.186Z" transform="translate(-667.779 -649.772)" fill="#fff"/>
            </g>
            <g id="Group_3403" data-name="Group 3403" transform="translate(2.134)">
              <path id="Path_7718" data-name="Path 7718" d="M632.514,575.4a22.3,22.3,0,0,1-.729-2.548,1.021,1.021,0,0,0,.888-.562,1.4,1.4,0,0,0,.106-.677c-.008-.213-.034-.429-.063-.641-.021-.149-.013-.448-.138-.556-.08.119-.133.257-.205.381-.1.165-.2.324-.289.489s-.2.318-.277.488c-.048.1-.125.206-.178.316-.1-.549-.174-1.077-.228-1.585a.682.682,0,0,0,.086-.041,2.173,2.173,0,0,0,.9-1.185,2.627,2.627,0,0,0,.164-.759c0-.1-.006-.213-.012-.317a1.02,1.02,0,0,0-.032-.3,4.7,4.7,0,0,0-.339.382,5.63,5.63,0,0,0-.457.554,4.269,4.269,0,0,0-.288.449c-.022.041-.07.1-.112.167a17.05,17.05,0,0,1,.634-5.893c.019-.014.234-.375.268-.426a5.291,5.291,0,0,1,.55-.614,1.872,1.872,0,0,0,.375-.511c.082-.186.119-.384.187-.572a3.571,3.571,0,0,0,.178-1.152,4.268,4.268,0,0,1-.633.689,6.136,6.136,0,0,0-.629.607,2.96,2.96,0,0,0-.432.718,1.733,1.733,0,0,0-.147.659c0,.106-.015.381-.016.414a20.563,20.563,0,0,0,.443,12.052,12.259,12.259,0,0,0,2.949,4.632,2.015,2.015,0,0,0-1.069-.207c-.194.007-.376.037-.564.052-.2.013-.414.023-.619.051.086-.012.189.064.253.105.119.076.237.148.352.226.332.229.6.546.954.745a1.6,1.6,0,0,0,.688.2.788.788,0,0,0,.545-.165c.145-.152.084-.354-.04-.537a15.909,15.909,0,0,0,1.624,1.289,1.621,1.621,0,0,0-.545,0,7.411,7.411,0,0,0-.878.223c-.284.079-.573.112-.861.17a7.183,7.183,0,0,1,.914.47,2.693,2.693,0,0,0,.591.208,1.955,1.955,0,0,0,.615.093,1.036,1.036,0,0,0,.688-.218.518.518,0,0,0,.046-.556.117.117,0,0,0-.013-.021,19.662,19.662,0,0,0,5.887,2.5l-.326-.928s-8.5-1.865-10.771-8.358Z" transform="translate(-630.956 -560.279)" fill="#fff"/>
            </g>
            <g id="Group_3404" data-name="Group 3404" transform="translate(1.533 2.528)">
              <path id="Path_7719" data-name="Path 7719" d="M628.75,575.017c.121,0,.052-.3.064-.371.035-.2.142-.372.177-.562a2.863,2.863,0,0,0-.023-1.128,3.2,3.2,0,0,0-.154-.52c-.064-.154-.116-.385-.3-.447-.147-.049-.142.25-.151.355a5.189,5.189,0,0,1-.056.574,5.349,5.349,0,0,0-.126.577,2.593,2.593,0,0,0,.014.635,1.178,1.178,0,0,0,.195.54c.063.09.225.344.355.345Z" transform="translate(-628.173 -571.985)" fill="#fff"/>
            </g>
            <g id="Group_3405" data-name="Group 3405" transform="translate(2.959 2.866)">
              <path id="Path_7720" data-name="Path 7720" d="M636.4,573.549a1.737,1.737,0,0,0-.463.308,5.6,5.6,0,0,0-.616.507,1.839,1.839,0,0,0-.383.553,1.652,1.652,0,0,0-.156.67,1.979,1.979,0,0,0,.414-.153,1.163,1.163,0,0,0,.4-.243,1.746,1.746,0,0,0,.367-.526,6.569,6.569,0,0,0,.439-1.115Z" transform="translate(-634.776 -573.549)" fill="#fff"/>
            </g>
            <g id="Group_3406" data-name="Group 3406" transform="translate(2.642 5.025)">
              <path id="Path_7721" data-name="Path 7721" d="M633.727,584.53a2.244,2.244,0,0,0-.419,1.3.926.926,0,0,0,.435-.038,1.412,1.412,0,0,0,.765-.951,4.123,4.123,0,0,0,.117-.7,4.4,4.4,0,0,0,.037-.6c-.156.139-.3.3-.45.448a4.34,4.34,0,0,0-.485.542Z" transform="translate(-633.308 -583.541)" fill="#fff"/>
            </g>
            <g id="Group_3407" data-name="Group 3407" transform="translate(0.514 5.07)">
              <path id="Path_7722" data-name="Path 7722" d="M624.2,586.875a.885.885,0,0,0,.383.24c.211.021.257-.3.272-.45a2.247,2.247,0,0,0-.063-.729,2.956,2.956,0,0,0-.219-.592,5.066,5.066,0,0,0-.305-.614c-.126-.193-.271-.383-.412-.567-.058-.075-.122-.149-.178-.227-.047-.063-.067-.141-.133-.186a4.261,4.261,0,0,0-.041.591,3.822,3.822,0,0,0-.047.647,2.932,2.932,0,0,0,.34,1.345,1.828,1.828,0,0,0,.4.541Z" transform="translate(-623.456 -583.75)" fill="#fff"/>
            </g>
            <g id="Group_3408" data-name="Group 3408" transform="translate(0 8.18)">
              <path id="Path_7723" data-name="Path 7723" d="M621.767,600.075a4.1,4.1,0,0,0,.645.752,4.2,4.2,0,0,0,.571.379,2.715,2.715,0,0,1-.043-.486,1.773,1.773,0,0,0-.057-.272c-.035-.117-.07-.232-.108-.348a2.957,2.957,0,0,0-.549-1.049,4.722,4.722,0,0,0-.5-.475,3.547,3.547,0,0,0-.313-.265c-.048-.033-.255-.171-.308-.162-.069.013-.007.227.007.286a5.405,5.405,0,0,0,.216.714,4.608,4.608,0,0,0,.437.925Z" transform="translate(-621.075 -598.15)" fill="#fff"/>
            </g>
            <g id="Group_3409" data-name="Group 3409" transform="translate(3.708 12.585)">
              <path id="Path_7724" data-name="Path 7724" d="M639.155,619.671a3.111,3.111,0,0,0-.168-.616,1.487,1.487,0,0,0-.237-.514,1.626,1.626,0,0,1-.01.2,2.77,2.77,0,0,1-.308.7,1.693,1.693,0,0,0-.186.655,2.494,2.494,0,0,0,.052.653,2.257,2.257,0,0,0,.174.6c.177-.057.293-.347.4-.488a1.69,1.69,0,0,0,.289-1.191Z" transform="translate(-638.24 -618.541)" fill="#fff"/>
            </g>
            <g id="Group_3410" data-name="Group 3410" transform="translate(4.741 14.5)">
              <path id="Path_7725" data-name="Path 7725" d="M643.615,630.378a2.363,2.363,0,0,0,.363-.5,2.1,2.1,0,0,0,.07-1.316,3.1,3.1,0,0,0-.252-.612,3.938,3.938,0,0,0-.226-.54,2.412,2.412,0,0,1-.228.612,2.369,2.369,0,0,0-.292.748,1.845,1.845,0,0,0,.208,1.2,1.26,1.26,0,0,0,.356.414Z" transform="translate(-643.024 -627.406)" fill="#fff"/>
            </g>
            <g id="Group_3411" data-name="Group 3411" transform="translate(2.153 16.889)">
              <path id="Path_7726" data-name="Path 7726" d="M633.179,640.238c.233.06.476.041.708.092a2.254,2.254,0,0,0-.528-.721c-.165-.157-.35-.3-.533-.445a2.76,2.76,0,0,0-.646-.4c-.22-.092-.436-.145-.654-.216a1.9,1.9,0,0,0-.483-.079c.068.1.182.2.256.307a3.526,3.526,0,0,0,.272.326,3.644,3.644,0,0,0,.928.862,2.94,2.94,0,0,0,.68.274Z" transform="translate(-631.043 -638.469)" fill="#fff"/>
            </g>
            <g id="Group_3412" data-name="Group 3412" transform="translate(6.281 16.372)">
              <path id="Path_7727" data-name="Path 7727" d="M650.7,638.8c.143.194.276.117.4-.058a.575.575,0,0,0,.1-.45,3.178,3.178,0,0,0-.132-.529,4.632,4.632,0,0,0-.2-.591c-.086-.189-.181-.375-.258-.564a2.564,2.564,0,0,0-.228-.539.951.951,0,0,1-.076.3,3.565,3.565,0,0,0-.1.472,2.338,2.338,0,0,0,.076,1.234,2.016,2.016,0,0,0,.256.532c.051.068.11.123.16.192Z" transform="translate(-650.154 -636.072)" fill="#fff"/>
            </g>
            <g id="Group_3413" data-name="Group 3413" transform="translate(8.191 23.155)">
              <path id="Path_7728" data-name="Path 7728" d="M660.555,667.623c-.526.154-1.027.369-1.559.488.127.03.217.142.346.169.152.034.3.09.457.126a3.643,3.643,0,0,0,.844.121,2.455,2.455,0,0,0,.732-.136.778.778,0,0,0,.479-.424.345.345,0,0,0-.156-.375c-.329-.227-.793-.073-1.143.031Z" transform="translate(-658.996 -667.475)" fill="#fff"/>
            </g>
          </g>
        </g>
      </g>
    </g>
  </g>
</svg>
