<svg xmlns="http://www.w3.org/2000/svg" width="50" height="50" viewBox="0 0 50 50">
  <g id="Group_13971" data-name="Group 13971" transform="translate(0)">
    <circle id="Ellipse_1417" data-name="Ellipse 1417" cx="25" cy="25" r="25" transform="translate(0)" fill="#22b573" opacity="0.2"/>
    <g id="miscellaneous" transform="translate(15.179 14.783)">
      <path id="Path_14704" data-name="Path 14704" d="M19.832,6.2A4.91,4.91,0,0,0,20,4.908a4.884,4.884,0,0,0-8.338-3.454L10.419,2.7,9.173,1.455A4.887,4.887,0,0,0,1.006,6.2,2.017,2.017,0,0,0,.034,8.305l.929,5.01,4.07,3.967v3.579H15.8V17.282l4.07-3.967.929-5.01h0A2.017,2.017,0,0,0,19.832,6.2ZM14.584,19.64H11.029V15.308a4,4,0,0,1,1.117-2.781l2.157-2.17a.675.675,0,1,1,.955.953L13.5,13.059l.863.863,1.756-1.756a1.885,1.885,0,0,0,.556-1.342,1.918,1.918,0,0,0-.026-.312l1.464-2.928a.792.792,0,0,1,1.487.5h0l-.858,4.629-4.161,4.056V19.64ZM2.093,12.712,1.235,8.083a.792.792,0,0,1,1.487-.5l1.465,2.93a1.9,1.9,0,0,0,.529,1.652l1.756,1.756.863-.863L5.6,11.33a.675.675,0,1,1,.955-.953l2.133,2.149a4,4,0,0,1,1.117,2.781V19.64H6.254V16.767ZM5.719,1.247A3.652,3.652,0,0,1,8.31,2.318l2.109,2.109,2.109-2.109a3.664,3.664,0,0,1,6.108,3.614,2,2,0,0,0-1.613,1.106L15.9,9.29a1.9,1.9,0,0,0-2.459.192l-2.19,2.19.013.013a5.256,5.256,0,0,0-.842,1.165,5.256,5.256,0,0,0-.842-1.165l.013-.013L7.4,9.483A1.9,1.9,0,0,0,4.94,9.291L3.814,7.038A2,2,0,0,0,2.2,5.932a3.678,3.678,0,0,1-.145-1.024A3.66,3.66,0,0,1,5.719,1.247Z" transform="translate(0 -0.026)" fill="#22b573"/>
    </g>
  </g>
</svg>
