<?xml version="1.0" encoding="utf-8"?>
<!-- Generator: Adobe Illustrator 24.0.1, SVG Export Plug-In . SVG Version: 6.00 Build 0)  -->
<svg version="1.1" id="Capa_1" xmlns="http://www.w3.org/2000/svg" xmlns:xlink="http://www.w3.org/1999/xlink" x="0px" y="0px"
	 viewBox="0 0 512 512" style="enable-background:new 0 0 512 512;" xml:space="preserve">
<style type="text/css">
	.st0{fill:#2B659D;}
</style>
<g>
	<g>
		<path class="st0" d="M116.4,186.2H93.1V23.3C93.1,10.4,82.7,0,69.8,0S46.5,10.4,46.5,23.3v162.9H23.3C10.4,186.2,0,196.6,0,209.5
			v93.1c0,12.9,10.4,23.3,23.3,23.3h23.3v162.9c0,12.9,10.4,23.3,23.3,23.3s23.3-10.4,23.3-23.3V325.8h23.3
			c12.9,0,23.3-10.4,23.3-23.3v-93.1C139.6,196.6,129.2,186.2,116.4,186.2z"/>
	</g>
</g>
<g>
	<g>
		<path class="st0" d="M302.5,217.2h-23.3V23.3C279.3,10.4,268.9,0,256,0s-23.3,10.4-23.3,23.3v193.9h-23.3
			c-12.9,0-23.3,10.4-23.3,23.3v93.1c0,12.9,10.4,23.3,23.3,23.3h23.3v131.9c0,12.9,10.4,23.3,23.3,23.3s23.3-10.4,23.3-23.3V356.8
			h23.3c12.9,0,23.3-10.4,23.3-23.3v-93.1C325.8,227.6,315.4,217.2,302.5,217.2z"/>
	</g>
</g>
<g>
	<g>
		<path class="st0" d="M488.7,155.2h-23.3V23.3C465.5,10.4,455,0,442.2,0s-23.3,10.4-23.3,23.3v131.9h-23.3
			c-12.9,0-23.3,10.4-23.3,23.3v93.1c0,12.9,10.4,23.3,23.3,23.3h23.3v193.9c0,12.9,10.4,23.3,23.3,23.3s23.3-10.4,23.3-23.3V294.8
			h23.3c12.9,0,23.3-10.4,23.3-23.3v-93.1C512,165.6,501.6,155.2,488.7,155.2z"/>
	</g>
</g>
</svg>
