<svg xmlns="http://www.w3.org/2000/svg" width="40.925" height="29.926" viewBox="0 0 40.925 29.926">
  <g id="family" transform="translate(0 0)">
    <g id="Group_2839" data-name="Group 2839" transform="translate(0 13.983)">
      <path id="Path_3928" data-name="Path 3928" d="M14.654,235.935A9.111,9.111,0,0,0,0,243.178V248.8A1.193,1.193,0,0,0,1.194,250h9.627v-5.754A10.93,10.93,0,0,1,14.654,235.935Z" transform="translate(0 -234.055)" fill="#fff"/>
    </g>
    <g id="Group_2840" data-name="Group 2840" transform="translate(2.899)">
      <path id="Path_3929" data-name="Path 3929" d="M41.051,78.516a6.224,6.224,0,1,0-6.224-6.224A6.224,6.224,0,0,0,41.051,78.516Z" transform="translate(-34.827 -66.068)" fill="#fff"/>
    </g>
    <g id="Group_2841" data-name="Group 2841" transform="translate(13.549 15.941)">
      <path id="Path_3930" data-name="Path 3930" d="M171.007,257.581a8.232,8.232,0,0,0-8.231,8.231v4.561a1.193,1.193,0,0,0,1.194,1.194h9.455v-4.892a9.7,9.7,0,0,1,3.021-7.029A8.189,8.189,0,0,0,171.007,257.581Z" transform="translate(-162.776 -257.581)" fill="#fff"/>
    </g>
    <g id="Group_2842" data-name="Group 2842" transform="translate(16.165 3.325)">
      <path id="Path_3931" data-name="Path 3931" d="M196.776,116.343a5.609,5.609,0,1,0-2.574-4.71A5.577,5.577,0,0,0,196.776,116.343Z" transform="translate(-194.202 -106.017)" fill="#fff"/>
    </g>
    <g id="Group_2843" data-name="Group 2843" transform="translate(26.926 18.034)">
      <path id="Path_3932" data-name="Path 3932" d="M330.489,282.733a7,7,0,0,0-7,7v3.7a1.193,1.193,0,0,0,1.194,1.194h11.611a1.193,1.193,0,0,0,1.194-1.194v-3.7A7,7,0,0,0,330.489,282.733Z" transform="translate(-323.49 -282.733)" fill="#fff"/>
    </g>
    <g id="Group_2844" data-name="Group 2844" transform="translate(29.15 7.306)">
      <path id="Path_3933" data-name="Path 3933" d="M352,162.313a4.757,4.757,0,1,0-1.789-3.7A4.73,4.73,0,0,0,352,162.313Z" transform="translate(-350.21 -153.839)" fill="#fff"/>
    </g>
  </g>
</svg>
