<svg xmlns="http://www.w3.org/2000/svg" width="17.078" height="17.078" viewBox="0 0 17.078 17.078">
  <path id="link" d="M4.143,17.079a4.1,4.1,0,0,1-2.916-1.227A4.092,4.092,0,0,1,0,12.781,4.919,4.919,0,0,1,1.551,9.488L3.3,7.736a.667.667,0,1,1,.945.941L2.5,10.43C1.081,11.845.947,13.686,2.17,14.909S5.234,16,6.647,14.584l2.4-2.4a3.615,3.615,0,0,0,1.159-2.4A2.772,2.772,0,0,0,9.37,7.709a2.952,2.952,0,0,0-.625-.479.667.667,0,1,1,.66-1.159,4.287,4.287,0,0,1,.908.695,4.092,4.092,0,0,1,1.224,3.071A4.919,4.919,0,0,1,9.988,13.13l-2.4,2.4A4.92,4.92,0,0,1,4.3,17.076Zm4.438-6.319a.667.667,0,0,0-.249-.91,2.952,2.952,0,0,1-.625-.479c-1.223-1.223-1.089-3.064.325-4.477l2.4-2.4c1.414-1.414,3.255-1.547,4.477-.325S16,5.236,14.581,6.65L12.835,8.4a.667.667,0,0,0,.945.941l1.745-1.752A4.92,4.92,0,0,0,17.074,4.3,4.092,4.092,0,0,0,15.85,1.229,4.093,4.093,0,0,0,12.779,0,4.919,4.919,0,0,0,9.486,1.553l-2.4,2.4A4.92,4.92,0,0,0,5.539,7.244a4.092,4.092,0,0,0,1.224,3.071,4.288,4.288,0,0,0,.908.695.667.667,0,0,0,.91-.25Z" transform="translate(0.001 -0.002)" fill="#fff"/>
</svg>
