<svg xmlns="http://www.w3.org/2000/svg" width="12.998" height="13" viewBox="0 0 12.998 13">
  <g id="link" transform="translate(-0.039 0)">
    <g id="Group_3596" data-name="Group 3596" transform="translate(0.039 4.229)">
      <g id="Group_3595" data-name="Group 3595" transform="translate(0)">
        <path id="Path_9151" data-name="Path 9151" d="M7.925,165.5a2.933,2.933,0,0,0-.506-.407,3.016,3.016,0,0,0-3.759.407L.92,168.239a3.016,3.016,0,0,0,4.263,4.267l2.262-2.262a.215.215,0,0,0-.153-.368H7.205a3.625,3.625,0,0,1-1.379-.267.215.215,0,0,0-.235.047l-1.626,1.628a1.293,1.293,0,0,1-1.829-1.829l2.751-2.748a1.292,1.292,0,0,1,1.827,0,.883.883,0,0,0,1.211,0,.853.853,0,0,0,0-1.211Z" transform="translate(-0.039 -164.614)" fill="#757575"/>
      </g>
    </g>
    <g id="Group_3598" data-name="Group 3598" transform="translate(4.895 0)">
      <g id="Group_3597" data-name="Group 3597" transform="translate(0 0)">
        <path id="Path_9152" data-name="Path 9152" d="M196.76.884a3.016,3.016,0,0,0-4.265,0l-2.26,2.257a.216.216,0,0,0,.157.368h.08a3.619,3.619,0,0,1,1.376.269.215.215,0,0,0,.235-.047l1.622-1.62a1.293,1.293,0,1,1,1.829,1.829l-2.02,2.018-.017.019-.706.7a1.292,1.292,0,0,1-1.827,0,.883.883,0,0,0-1.211,0,.859.859,0,0,0,0,1.215,2.99,2.99,0,0,0,.862.6c.045.022.09.039.136.058s.093.034.138.052.093.032.138.045l.127.034c.086.022.172.039.261.054a3,3,0,0,0,.321.03h.164l.129-.015c.047,0,.1-.013.153-.013h.073l.149-.022.069-.013.125-.026h.024a3.015,3.015,0,0,0,1.4-.793l2.742-2.742A3.016,3.016,0,0,0,196.76.884Z" transform="translate(-189.502 0)" fill="#757575"/>
      </g>
    </g>
  </g>
</svg>
