<?xml version="1.0" encoding="utf-8"?>
<!-- Generator: Adobe Illustrator 23.0.0, SVG Export Plug-In . SVG Version: 6.00 Build 0)  -->
<svg version="1.1" id="Layer_1" xmlns="http://www.w3.org/2000/svg" xmlns:xlink="http://www.w3.org/1999/xlink" x="0px" y="0px"
	 viewBox="0 0 13 13" style="enable-background:new 0 0 13 13;" xml:space="preserve">
<style type="text/css">
	.st0{fill:#283279;}
</style>
<g id="link" transform="translate(-0.039 0)">
	<g id="Group_3596" transform="translate(0.039 4.229)">
		<g id="Group_3595" transform="translate(0)">
			<path id="Path_9151" class="st0" d="M7.9,0.9C7.7,0.7,7.6,0.6,7.4,0.5C6.2-0.3,4.6-0.1,3.6,0.9L0.9,3.6c-1.2,1.2-1.1,3.1,0,4.3
				C2.1,9,4,9,5.1,7.9l2.3-2.3c0.1-0.1,0.1-0.2,0-0.3c0,0-0.1-0.1-0.2-0.1H7.2C6.7,5.3,6.2,5.2,5.8,5C5.7,5,5.6,5,5.6,5L3.9,6.7
				c-0.5,0.5-1.3,0.5-1.8,0s-0.5-1.3,0-1.8l0,0l2.8-2.7c0.5-0.5,1.3-0.5,1.8,0c0.3,0.3,0.9,0.3,1.2,0C8.2,1.8,8.2,1.2,7.9,0.9
				C7.9,0.9,7.9,0.9,7.9,0.9L7.9,0.9z"/>
		</g>
	</g>
	<g id="Group_3598" transform="translate(4.895 0)">
		<g id="Group_3597" transform="translate(0 0)">
			<path id="Path_9152" class="st0" d="M7.3,0.9C6.1-0.3,4.2-0.3,3,0.9L0.7,3.1c-0.1,0.1-0.1,0.2,0,0.3c0,0,0.1,0.1,0.2,0.1H1
				c0.5,0,0.9,0.1,1.4,0.3c0.1,0,0.2,0,0.2,0l1.6-1.6c0.5-0.5,1.3-0.5,1.8,0s0.5,1.3,0,1.8l0,0L4,6l0,0L3.3,6.7
				C2.8,7.2,2,7.2,1.5,6.7c-0.3-0.3-0.9-0.3-1.2,0c-0.3,0.3-0.3,0.9,0,1.2c0,0,0,0,0,0c0.2,0.2,0.5,0.5,0.9,0.6c0,0,0.1,0,0.1,0.1
				s0.1,0,0.1,0.1s0.1,0,0.1,0l0.1,0c0.1,0,0.2,0,0.3,0.1c0.1,0,0.2,0,0.3,0h0.2l0.1,0c0,0,0.1,0,0.2,0h0.1l0.1,0l0.1,0l0.1,0h0
				c0.5-0.1,1-0.4,1.4-0.8l2.7-2.7C8.4,4,8.4,2.1,7.3,0.9z"/>
		</g>
	</g>
</g>
</svg>
