<svg xmlns="http://www.w3.org/2000/svg" width="30" height="30" viewBox="0 0 30 30">
  <g id="icon" transform="translate(0 -0.132)">
    <g id="Group_20" data-name="Group 20" transform="translate(19.175 9.985)">
      <g id="Group_19" data-name="Group 19">
        <path id="Path_28" data-name="Path 28" d="M328.043,168.273h-.012a.619.619,0,0,0,0,1.237h.012a.619.619,0,0,0,0-1.237Z" transform="translate(-327.412 -168.273)" fill="#a3a3a3"/>
      </g>
    </g>
    <g id="Group_22" data-name="Group 22" transform="translate(15.326 2.421)">
      <g id="Group_21" data-name="Group 21">
        <path id="Path_29" data-name="Path 29" d="M267.2,38.773a4.454,4.454,0,0,0-2.1,8.379.619.619,0,0,0,.585-1.09,3.216,3.216,0,1,1,2.958.041.619.619,0,1,0,.555,1.106,4.454,4.454,0,0,0-1.994-8.436Z" transform="translate(-262.747 -38.773)" fill="#a3a3a3"/>
      </g>
    </g>
    <g id="Group_24" data-name="Group 24" transform="translate(9.59 20.89)">
      <g id="Group_23" data-name="Group 23">
        <path id="Path_30" data-name="Path 30" d="M164.366,354.378a.619.619,0,0,0-.619.619V355a.619.619,0,0,0,1.237,0V355A.619.619,0,0,0,164.366,354.378Z" transform="translate(-163.747 -354.378)" fill="#a3a3a3"/>
      </g>
    </g>
    <g id="Group_26" data-name="Group 26" transform="translate(0 0.132)">
      <g id="Group_25" data-name="Group 25">
        <path id="Path_31" data-name="Path 31" d="M29.686,2.842a.612.612,0,0,0-.62.014l-2.41,1.492A7.706,7.706,0,0,0,12.92,4.337L10.529,2.856h0L10.5,2.842a.612.612,0,0,0-.62.014L.29,8.793A.612.612,0,0,0,0,9.314V29.52a.612.612,0,0,0,.934.521L10.2,24.3l9.269,5.74a.612.612,0,0,0,.62.014c.011-.006.021-.014.032-.021v.006L29.71,24.1a.612.612,0,0,0,.29-.521V3.377A.612.612,0,0,0,29.686,2.842Zm-10.5,25.579-8.653-5.358a.612.612,0,0,0-.322-.092H10.2a.612.612,0,0,0-.322.092L1.224,28.421V9.655l8.371-5.18V19.507a.612.612,0,1,0,1.224,0V4.476l1.628,1.008a7.688,7.688,0,0,0-.37,2.362c0,.075,0,.149,0,.218.073,3.743,2.04,7.049,3.677,9.164a24.6,24.6,0,0,0,2.463,2.73c.441.419.745.684.962.853v7.61Zm.6-8.7a22.267,22.267,0,0,1-3.228-3.462A14.745,14.745,0,0,1,13.3,8.035c0-.063,0-.126,0-.189a6.486,6.486,0,1,1,12.972,0c0,.063,0,.127,0,.2a14.746,14.746,0,0,1-3.281,8.233A23.015,23.015,0,0,1,19.78,19.716Zm9,3.526-8.363,5.179V20.785c.211-.169.5-.429.921-.827A25.131,25.131,0,0,0,23.8,17.229c1.644-2.118,3.62-5.427,3.694-9.158,0-.075,0-.15,0-.225a7.686,7.686,0,0,0-.366-2.35l1.647-1.02V23.242Z" transform="translate(0 -0.132)" fill="#a3a3a3"/>
      </g>
    </g>
  </g>
</svg>
