<?xml version="1.0" encoding="utf-8"?>
<!-- Generator: Adobe Illustrator 23.0.0, SVG Export Plug-In . SVG Version: 6.00 Build 0)  -->
<svg version="1.1" id="Layer_1" xmlns="http://www.w3.org/2000/svg" xmlns:xlink="http://www.w3.org/1999/xlink" x="0px" y="0px"
	 viewBox="0 0 24.6 18" style="enable-background:new 0 0 24.6 18;" xml:space="preserve">
<style type="text/css">
	.st0{fill:#3AAF86;}
</style>
<g id="family" transform="translate(0 -66.068)">
	<g id="Group_2839" transform="translate(0 74.48)">
		<path id="Path_3928" class="st0" d="M8.8,1.1C6.4-0.7,3-0.3,1.1,2.1C0.4,3.1,0,4.3,0,5.5v3.4c0,0.4,0.3,0.7,0.7,0.7c0,0,0,0,0,0
			h5.8V6.1C6.5,4.2,7.4,2.4,8.8,1.1z"/>
	</g>
	<g id="Group_2840" transform="translate(1.744 66.068)">
		<path id="Path_3929" class="st0" d="M3.7,7.5c2.1,0,3.7-1.7,3.7-3.7C7.5,1.7,5.8,0,3.7,0C1.7,0,0,1.7,0,3.7S1.7,7.5,3.7,7.5
			L3.7,7.5z"/>
	</g>
	<g id="Group_2841" transform="translate(8.151 75.658)">
		<path id="Path_3930" class="st0" d="M5,0C2.2,0,0,2.2,0,5v2.7c0,0.4,0.3,0.7,0.7,0.7h5.7V5.5c0-1.6,0.7-3.1,1.8-4.2
			C7.3,0.4,6.2,0,5,0z"/>
	</g>
	<g id="Group_2842" transform="translate(9.724 68.068)">
		<path id="Path_3931" class="st0" d="M1.5,6.2c1.6,1,3.7,0.6,4.7-1c1-1.6,0.6-3.7-1-4.7S1.5,0,0.5,1.5C0.2,2.1,0,2.7,0,3.4
			C0,4.5,0.6,5.6,1.5,6.2z"/>
	</g>
	<g id="Group_2843" transform="translate(16.198 76.917)">
		<path id="Path_3932" class="st0" d="M4.2,0C1.9,0,0,1.9,0,4.2v2.2c0,0.4,0.3,0.7,0.7,0.7h7c0.4,0,0.7-0.3,0.7-0.7V4.2
			C8.4,1.9,6.5,0,4.2,0z"/>
	</g>
	<g id="Group_2844" transform="translate(17.536 70.463)">
		<path id="Path_3933" class="st0" d="M1.1,5.1c1.2,1,3,0.8,4-0.5c1-1.2,0.8-3-0.5-4s-3-0.8-4,0.5C0.2,1.6,0,2.2,0,2.9
			C0,3.7,0.4,4.6,1.1,5.1z"/>
	</g>
</g>
</svg>
