<?xml version="1.0" encoding="utf-8"?>
<!-- Generator: Adobe Illustrator 23.0.0, SVG Export Plug-In . SVG Version: 6.00 Build 0)  -->
<svg version="1.1" id="Layer_1" xmlns="http://www.w3.org/2000/svg" xmlns:xlink="http://www.w3.org/1999/xlink" x="0px" y="0px"
	 viewBox="0 0 21 21.7" style="enable-background:new 0 0 21 21.7;" xml:space="preserve">
<style type="text/css">
	.st0{fill:#A2A2A2;}
</style>
<g id="Group_728" transform="translate(-106.2 -156.6)">
	<path id="Path_258" class="st0" d="M116.7,174.1c2,0,3.7-1.6,3.7-3.7s-1.6-3.7-3.7-3.7s-3.7,1.6-3.7,3.7
		C113.1,172.4,114.7,174.1,116.7,174.1z M114.5,169.8c0.3-0.2,0.6-0.2,0.8,0l0.8,0.8l1.8-1.8c0.2-0.2,0.6-0.2,0.8,0
		c0.2,0.2,0.2,0.6,0,0.8l-2.2,2.2c-0.3,0.2-0.7,0.2-1,0l-1.3-1.3C114.4,170.4,114.4,169.9,114.5,169.8z"/>
	<path id="Path_259" class="st0" d="M106.4,176.3c0,1.1,0.8,2,1.8,2c0.1,0,0.1,0,0.2,0H125c1.1,0,2-0.8,2-1.8c0-0.1,0-0.1,0-0.2
		v-12.7h-20.8v12.7H106.4z M116.7,165.3c2.8,0,5,2.2,5,5c0,2.8-2.2,5-5,5s-5-2.2-5-5C111.7,167.5,113.9,165.3,116.7,165.3
		L116.7,165.3z"/>
	<path id="Path_260" class="st0" d="M127.2,162.3v-2c0-1.1-0.8-2-1.8-2c-0.1,0-0.1,0-0.2,0H124v1.2c0,0.4-0.3,0.7-0.6,0.7
		c-0.4,0-0.7-0.3-0.7-0.6c0,0,0,0,0-0.1v-1.2h-1.2v1.2c0,0.4-0.3,0.7-0.6,0.7c-0.4,0-0.7-0.3-0.7-0.6c0,0,0,0,0-0.1v-1.2h-7v1.2
		c0,0.4-0.3,0.7-0.7,0.6c-0.3,0-0.6-0.3-0.6-0.6v-1.2h-1v1.2c0,0.4-0.3,0.7-0.6,0.7c-0.4,0-0.7-0.3-0.7-0.6c0,0,0,0,0-0.1v-1.2h-1.2
		c-1.1,0-2,0.8-2,1.8c0,0.1,0,0.1,0,0.2v2H127.2z"/>
	<path id="Path_261" class="st0" d="M124,157.3c0-0.4-0.3-0.7-0.7-0.6c-0.3,0-0.6,0.3-0.6,0.6v1.2h1.3V157.3z"/>
	<path id="Path_262" class="st0" d="M121.5,157.3c0-0.4-0.3-0.7-0.7-0.6c-0.3,0-0.6,0.3-0.6,0.6v1.2h1.3V157.3z"/>
	<path id="Path_263" class="st0" d="M113.4,157.3c0-0.4-0.3-0.7-0.7-0.6c-0.3,0-0.6,0.3-0.6,0.6v1.2h1.3V157.3z"/>
	<path id="Path_264" class="st0" d="M110.9,157.3c0-0.4-0.3-0.7-0.7-0.6c-0.3,0-0.6,0.3-0.6,0.6v1.2h1.3V157.3z"/>
</g>
</svg>
