<svg id="Group_816" data-name="Group 816" xmlns="http://www.w3.org/2000/svg" width="161.213" height="172.331" viewBox="0 0 161.213 172.331">
  <g id="Group_819" data-name="Group 819">
    <g id="Group_819-2" data-name="Group 819" transform="translate(22.41 41.693)">
      <path id="Path_530" data-name="Path 530" d="M216,177.016l5.559,8.339,5.559-8.339L224.338,152H218.78Z" transform="translate(-163.363 -140.882)" fill="#2866a0"/>
      <path id="Path_531" data-name="Path 531" d="M351.763,128.112a30.177,30.177,0,0,0-10.666-5.177l-7.748,10.84L325.567,122.9a30.176,30.176,0,0,0-10.667,5.177l9.033,16.052,9.416-11.118,9.416,11.118Z" transform="translate(-227.901 -121.892)" fill="#2866a0"/>
      <path id="Path_532" data-name="Path 532" d="M75.444,133.9c5.559,0,10.18-5.073,10.979-11.882A30.21,30.21,0,0,0,75.444,120,30.935,30.935,0,0,0,64.5,122.05C65.3,128.86,69.885,133.9,75.444,133.9Z" transform="translate(-64.5 -120)" fill="#2866a0"/>
    </g>
    <path id="Path_533" data-name="Path 533" d="M139.6,41.1a22.247,22.247,0,1,0-23.522-.035A33.447,33.447,0,0,0,98.986,55.591a33.1,33.1,0,0,0-6.636-3.37,22.236,22.236,0,1,0-23.487,0,34.025,34.025,0,0,0-6.636,3.37A33.447,33.447,0,0,0,45.133,41.068a22.226,22.226,0,1,0-23.522.035A33.357,33.357,0,0,0,0,72.268V94.5a11.151,11.151,0,0,0,11.118,11.118H13.9v44.472a11.151,11.151,0,0,0,11.118,11.118,10.984,10.984,0,0,0,8.339-3.857,11.063,11.063,0,0,0,19.457-7.261V115.211a10.76,10.76,0,0,0,5.559,1.529h2.78v44.472a11.151,11.151,0,0,0,11.118,11.118,10.984,10.984,0,0,0,8.339-3.857,11.063,11.063,0,0,0,19.457-7.262V116.74h2.78a11.1,11.1,0,0,0,5.559-1.529v34.883a11.151,11.151,0,0,0,11.118,11.118,10.984,10.984,0,0,0,8.339-3.857,11.063,11.063,0,0,0,19.457-7.261V105.622h2.78A11.151,11.151,0,0,0,161.213,94.5V72.268A33.357,33.357,0,0,0,139.6,41.1ZM111.181,22.236a16.677,16.677,0,1,1,16.677,16.677A16.681,16.681,0,0,1,111.181,22.236ZM63.929,33.354A16.677,16.677,0,1,1,80.606,50.032,16.681,16.681,0,0,1,63.929,33.354ZM16.677,22.236A16.677,16.677,0,1,1,33.354,38.913,16.681,16.681,0,0,1,16.677,22.236ZM47.252,150.095a5.559,5.559,0,0,1-11.118,0V91.724H30.575v58.37a5.559,5.559,0,0,1-11.118,0V61.15H13.9v38.913h-2.78A5.575,5.575,0,0,1,5.559,94.5V72.268a27.75,27.75,0,0,1,52.22-13.133A33.228,33.228,0,0,0,47.252,83.386v66.709Zm55.591-38.913h-2.78V72.268H94.5v88.945a5.559,5.559,0,1,1-11.118,0v-58.37H77.827v58.37a5.559,5.559,0,1,1-11.118,0V72.268H61.15v38.913H58.37a5.575,5.575,0,0,1-5.559-5.559V83.386a27.8,27.8,0,1,1,55.591,0v22.236A5.575,5.575,0,0,1,102.843,111.181ZM155.654,94.5a5.575,5.575,0,0,1-5.559,5.559h-2.78V63.929h-5.559v86.165a5.559,5.559,0,1,1-11.118,0V91.724h-5.559v58.37a5.559,5.559,0,0,1-11.118,0V83.386a33.228,33.228,0,0,0-10.527-24.251,27.75,27.75,0,0,1,52.22,13.133Z" transform="translate(0 0)" fill="#707070"/>
  </g>
</svg>
