<svg xmlns="http://www.w3.org/2000/svg" width="19" height="20.279" viewBox="0 0 19 20.279">
  <g id="Group_16075" data-name="Group 16075" transform="translate(-299 -296.492)">
    <path id="Path_3938" data-name="Path 3938" d="M42.595,6.322a3.069,3.069,0,0,0,2.961-3.161,2.968,2.968,0,1,0-5.923,0A3.069,3.069,0,0,0,42.595,6.322Zm0,0" transform="translate(260.837 296.491)" fill="#2866a0"/>
    <path id="Path_3939" data-name="Path 3939" d="M352.913,133.713a1.533,1.533,0,0,0,1.479-1.578v-1.063a14.213,14.213,0,0,1-3.06-.459v1.412A1.636,1.636,0,0,0,352.913,133.713Zm0,0" transform="translate(-39.295 171.052)" fill="#2866a0"/>
    <path id="Path_3940" data-name="Path 3940" d="M164.2,372.4a3.666,3.666,0,0,0-3.537,3.775v1.16a.576.576,0,0,0,.557.594h5.962a.576.576,0,0,0,.557-.594v-1.159A3.667,3.667,0,0,0,164.2,372.4Zm0,0" transform="translate(144.294 -61.157)" fill="#2866a0"/>
    <path id="Path_3941" data-name="Path 3941" d="M4.849,200.613a5.011,5.011,0,0,1,2.575-4.441,4.105,4.105,0,0,1-1.7-3.365,4.177,4.177,0,0,1,.89-2.6,4.191,4.191,0,0,0-2.181-.614A4.594,4.594,0,0,0,0,194.328v7.445a.576.576,0,0,0,.557.594H4.944a1.883,1.883,0,0,1-.1-.594Zm0,0" transform="translate(299 114.403)" fill="#2866a0"/>
    <path id="Path_3942" data-name="Path 3942" d="M186.9,204.552a2.848,2.848,0,1,0-2.663-2.842A2.76,2.76,0,0,0,186.9,204.552Zm0,0" transform="translate(121.602 105.501)" fill="#2866a0"/>
    <path id="Path_3943" data-name="Path 3943" d="M314.929,238.871a4.163,4.163,0,0,0-1.412.246,4.279,4.279,0,0,1,.121,1.012,4.1,4.1,0,0,1-1.7,3.365,5.012,5.012,0,0,1,2.575,4.441v1.159a1.883,1.883,0,0,1-.1.594H318.8a.576.576,0,0,0,.557-.594V243.6A4.594,4.594,0,0,0,314.929,238.871Zm0,0" transform="translate(-1.361 67.081)" fill="#2866a0"/>
    <path id="Path_3944" data-name="Path 3944" d="M277.561,0a4.594,4.594,0,0,0-4.432,4.731V6.745a3.709,3.709,0,0,1,2.117,1.217,3.011,3.011,0,0,1-.328-1.377V4.412a.609.609,0,0,1,.214-.468.529.529,0,0,1,.477-.108l.65.173a13.148,13.148,0,0,0,3.389.445.577.577,0,0,1,.557.594V6.694a2.858,2.858,0,0,1-.743,1.936,5.458,5.458,0,0,1,1.428.83h.546a.577.577,0,0,0,.557-.594V4.73A4.594,4.594,0,0,0,277.561,0Zm0,0" transform="translate(36.006 296.492)" fill="#2866a0"/>
  </g>
</svg>
