<?xml version="1.0" encoding="utf-8"?>
<!-- Generator: Adobe Illustrator 23.0.0, SVG Export Plug-In . SVG Version: 6.00 Build 0)  -->
<svg version="1.1" id="menu_3_" xmlns="http://www.w3.org/2000/svg" xmlns:xlink="http://www.w3.org/1999/xlink" x="0px" y="0px"
	 viewBox="0 0 15.1 11.5" style="enable-background:new 0 0 15.1 11.5;" xml:space="preserve">
<style type="text/css">
	.st0{fill:#283279;}
</style>
<g id="Group_4144" transform="translate(3.538)">
	<g id="Group_4143" transform="translate(0 0)">
		<path id="Path_6526" class="st0" d="M10.2,0H1.3C0.6,0,0,0.6,0,1.3c0,0.7,0.6,1.3,1.3,1.3h8.9c0.7,0,1.3-0.6,1.3-1.3
			C11.6,0.6,11,0,10.2,0C10.2,0,10.2,0,10.2,0z"/>
	</g>
</g>
<g id="Group_4146" transform="translate(3.538 4.423)">
	<g id="Group_4145" transform="translate(0 0)">
		<path id="Path_6527" class="st0" d="M10.2,0H1.3C0.6,0,0,0.6,0,1.3c0,0.7,0.6,1.3,1.3,1.3h8.9c0.7,0,1.3-0.6,1.3-1.3
			C11.6,0.6,11,0,10.2,0z"/>
	</g>
</g>
<g id="Group_4148" transform="translate(3.538 8.846)">
	<g id="Group_4147" transform="translate(0 0)">
		<path id="Path_6528" class="st0" d="M10.2,0H1.3C0.6,0,0,0.6,0,1.3c0,0.7,0.6,1.3,1.3,1.3c0,0,0,0,0,0h8.9c0.7,0,1.3-0.6,1.3-1.3
			C11.6,0.6,11,0,10.2,0C10.2,0,10.2,0,10.2,0z"/>
	</g>
</g>
<g id="Group_4150">
	<g id="Group_4149" transform="translate(0 0)">
		<path id="Path_6529" class="st0" d="M1.3,0C0.6,0,0,0.6,0,1.3c0,0.7,0.6,1.3,1.3,1.3s1.3-0.6,1.3-1.3l0,0C2.7,0.6,2.1,0,1.3,0z"/>
	</g>
</g>
<g id="Group_4152" transform="translate(0 4.423)">
	<g id="Group_4151" transform="translate(0 0)">
		<path id="Path_6530" class="st0" d="M1.3,0C0.6,0,0,0.6,0,1.3s0.6,1.3,1.3,1.3s1.3-0.6,1.3-1.3l0,0C2.7,0.6,2.1,0,1.3,0z"/>
	</g>
</g>
<g id="Group_4154" transform="translate(0 8.846)">
	<g id="Group_4153" transform="translate(0 0)">
		<path id="Path_6531" class="st0" d="M1.3,0C0.6,0,0,0.6,0,1.3s0.6,1.3,1.3,1.3s1.3-0.6,1.3-1.3l0,0C2.7,0.6,2.1,0,1.3,0z"/>
	</g>
</g>
</svg>
