<svg id="menu_3_" data-name="menu (3)" xmlns="http://www.w3.org/2000/svg" width="15.097" height="11.5" viewBox="0 0 15.097 11.5">
  <g id="Group_4144" data-name="Group 4144" transform="translate(3.538)">
    <g id="Group_4143" data-name="Group 4143" transform="translate(0 0)">
      <path id="Path_6526" data-name="Path 6526" d="M130.232,61h-8.905a1.327,1.327,0,0,0,0,2.654h8.905a1.327,1.327,0,1,0,0-2.654Z" transform="translate(-120 -61)" fill="#fff"/>
    </g>
  </g>
  <g id="Group_4146" data-name="Group 4146" transform="translate(3.538 4.423)">
    <g id="Group_4145" data-name="Group 4145" transform="translate(0 0)">
      <path id="Path_6527" data-name="Path 6527" d="M130.232,211h-8.905a1.327,1.327,0,1,0,0,2.654h8.905a1.327,1.327,0,1,0,0-2.654Z" transform="translate(-120 -211)" fill="#fff"/>
    </g>
  </g>
  <g id="Group_4148" data-name="Group 4148" transform="translate(3.538 8.846)">
    <g id="Group_4147" data-name="Group 4147" transform="translate(0 0)">
      <path id="Path_6528" data-name="Path 6528" d="M130.232,361h-8.905a1.327,1.327,0,1,0,0,2.654h8.905a1.327,1.327,0,1,0,0-2.654Z" transform="translate(-120 -361)" fill="#fff"/>
    </g>
  </g>
  <g id="Group_4150" data-name="Group 4150">
    <g id="Group_4149" data-name="Group 4149" transform="translate(0 0)">
      <path id="Path_6529" data-name="Path 6529" d="M1.327,61a1.327,1.327,0,1,0,1.327,1.327A1.328,1.328,0,0,0,1.327,61Z" transform="translate(0 -61)" fill="#fff"/>
    </g>
  </g>
  <g id="Group_4152" data-name="Group 4152" transform="translate(0 4.423)">
    <g id="Group_4151" data-name="Group 4151" transform="translate(0 0)">
      <path id="Path_6530" data-name="Path 6530" d="M1.327,211a1.327,1.327,0,1,0,1.327,1.327A1.328,1.328,0,0,0,1.327,211Z" transform="translate(0 -211)" fill="#fff"/>
    </g>
  </g>
  <g id="Group_4154" data-name="Group 4154" transform="translate(0 8.846)">
    <g id="Group_4153" data-name="Group 4153" transform="translate(0 0)">
      <path id="Path_6531" data-name="Path 6531" d="M1.327,361a1.327,1.327,0,1,0,1.327,1.327A1.328,1.328,0,0,0,1.327,361Z" transform="translate(0 -361)" fill="#fff"/>
    </g>
  </g>
</svg>
