<svg xmlns="http://www.w3.org/2000/svg" width="24.188" height="24.188" viewBox="0 0 24.188 24.188">
  <g id="minus" transform="translate(1 1)">
    <g id="Group_16765" data-name="Group 16765" transform="translate(-1 -1)">
      <g id="Group_16764" data-name="Group 16764">
        <path id="Path_14972" data-name="Path 14972" d="M11.094-1A12.094,12.094,0,1,0,23.188,11.094,12.094,12.094,0,0,0,11.094-1Zm0,22.172A10.078,10.078,0,1,1,21.172,11.094,10.078,10.078,0,0,1,11.094,21.172Z" transform="translate(1 1)" fill="#2866a0"/>
        <path id="Path_14973" data-name="Path 14973" d="M118.8,233.667H106.713a1.008,1.008,0,1,0,0,2.016H118.8a1.008,1.008,0,0,0,0-2.016Z" transform="translate(-100.664 -222.581)" fill="#2866a0"/>
      </g>
    </g>
  </g>
</svg>
