<svg id="miscellaneous" xmlns="http://www.w3.org/2000/svg" width="9.75" height="9.749" viewBox="0 0 9.75 9.749">
  <path id="Path_14704" data-name="Path 14704" d="M9.28,2.913a2.3,2.3,0,0,0,.08-.6A2.285,2.285,0,0,0,5.458.695l-.583.583L4.292.695A2.287,2.287,0,0,0,.471,2.913.944.944,0,0,0,.016,3.9L.451,6.245,2.355,8.1V9.775H7.4V8.1L9.3,6.245,9.735,3.9h0a.944.944,0,0,0-.455-.987ZM6.824,9.2H5.161V7.177a1.873,1.873,0,0,1,.523-1.3L6.693,4.86a.316.316,0,1,1,.447.446l-.821.818.4.4.822-.822a.882.882,0,0,0,.26-.628.9.9,0,0,0-.012-.146l.685-1.37a.371.371,0,0,1,.7.233h0l-.4,2.166L6.824,7.86V9.2ZM.98,5.962.578,3.8a.371.371,0,0,1,.7-.233l.685,1.371a.887.887,0,0,0,.247.773l.822.822.4-.4-.811-.809a.316.316,0,1,1,.447-.446l1,1.006a1.873,1.873,0,0,1,.523,1.3V9.2H2.927V7.86ZM2.676.6a1.709,1.709,0,0,1,1.212.5l.987.987L5.862,1.1A1.715,1.715,0,0,1,8.721,2.79a.936.936,0,0,0-.755.517L7.439,4.361a.888.888,0,0,0-1.15.09L5.264,5.476l.006.006a2.46,2.46,0,0,0-.394.545,2.46,2.46,0,0,0-.394-.545l.006-.006L3.462,4.451a.889.889,0,0,0-1.15-.09L1.785,3.307A.936.936,0,0,0,1.03,2.79a1.721,1.721,0,0,1-.068-.479A1.713,1.713,0,0,1,2.676.6Z" transform="translate(0 -0.026)" fill="#fff"/>
</svg>
