<svg xmlns="http://www.w3.org/2000/svg" width="28.679" height="34.601" viewBox="0 0 28.679 34.601">
  <g id="Group_53641" data-name="Group 53641" transform="translate(-36.55)">
    <g id="Group_53642" data-name="Group 53642" transform="translate(36.55 12.679)">
      <g id="Group_53641-2" data-name="Group 53641" transform="translate(0)">
        <path id="Path_44153" data-name="Path 44153" d="M41.168,156.5a4.618,4.618,0,1,0,4.618,4.618A4.616,4.616,0,0,0,41.168,156.5Zm0,7.615a3,3,0,1,1,3-3A3,3,0,0,1,41.168,164.115Z" transform="translate(-36.55 -156.5)" fill="#a3a3a3"/>
      </g>
    </g>
    <g id="Group_53644" data-name="Group 53644" transform="translate(47.122 13.975)">
      <g id="Group_53643" data-name="Group 53643" transform="translate(0)">
        <path id="Path_44154" data-name="Path 44154" d="M184.346,172.5H167.86a.81.81,0,1,0,0,1.62h16.486a.81.81,0,1,0,0-1.62Z" transform="translate(-167.05 -172.5)" fill="#a3a3a3"/>
      </g>
    </g>
    <g id="Group_53646" data-name="Group 53646" transform="translate(47.122 18.998)">
      <g id="Group_53645" data-name="Group 53645" transform="translate(0)">
        <path id="Path_44155" data-name="Path 44155" d="M176.739,234.5H167.86a.81.81,0,0,0,0,1.62h8.879a.81.81,0,0,0,0-1.62Z" transform="translate(-167.05 -234.5)" fill="#a3a3a3"/>
      </g>
    </g>
    <g id="Group_53648" data-name="Group 53648" transform="translate(36.55)">
      <g id="Group_53647" data-name="Group 53647" transform="translate(0)">
        <path id="Path_44156" data-name="Path 44156" d="M41.168,0a4.618,4.618,0,1,0,4.618,4.618A4.616,4.616,0,0,0,41.168,0Zm0,7.607a3,3,0,1,1,3-3A3,3,0,0,1,41.168,7.607Z" transform="translate(-36.55)" fill="#a3a3a3"/>
      </g>
    </g>
    <g id="Group_53650" data-name="Group 53650" transform="translate(47.122 1.256)">
      <g id="Group_53649" data-name="Group 53649" transform="translate(0)">
        <path id="Path_44157" data-name="Path 44157" d="M184.346,15.5H167.86a.81.81,0,0,0,0,1.62h16.486a.81.81,0,1,0,0-1.62Z" transform="translate(-167.05 -15.5)" fill="#a3a3a3"/>
      </g>
    </g>
    <g id="Group_53652" data-name="Group 53652" transform="translate(47.122 6.36)">
      <g id="Group_53651" data-name="Group 53651" transform="translate(0)">
        <path id="Path_44158" data-name="Path 44158" d="M176.739,78.5H167.86a.81.81,0,0,0,0,1.62h8.879a.81.81,0,0,0,0-1.62Z" transform="translate(-167.05 -78.5)" fill="#a3a3a3"/>
      </g>
    </g>
    <g id="Group_53654" data-name="Group 53654" transform="translate(36.55 25.365)">
      <g id="Group_53653" data-name="Group 53653" transform="translate(0)">
        <path id="Path_44159" data-name="Path 44159" d="M41.168,313.1a4.618,4.618,0,1,0,4.618,4.618A4.616,4.616,0,0,0,41.168,313.1Zm0,7.607a3,3,0,1,1,3-3A3,3,0,0,1,41.168,320.707Z" transform="translate(-36.55 -313.1)" fill="#a3a3a3"/>
      </g>
    </g>
    <g id="Group_53656" data-name="Group 53656" transform="translate(47.122 26.613)">
      <g id="Group_53655" data-name="Group 53655" transform="translate(0)">
        <path id="Path_44160" data-name="Path 44160" d="M184.346,328.5H167.86a.81.81,0,1,0,0,1.62h16.486a.81.81,0,1,0,0-1.62Z" transform="translate(-167.05 -328.5)" fill="#a3a3a3"/>
      </g>
    </g>
    <g id="Group_53658" data-name="Group 53658" transform="translate(47.122 31.717)">
      <g id="Group_53657" data-name="Group 53657" transform="translate(0)">
        <path id="Path_44161" data-name="Path 44161" d="M176.739,391.5H167.86a.81.81,0,1,0,0,1.62h8.879a.81.81,0,0,0,0-1.62Z" transform="translate(-167.05 -391.5)" fill="#a3a3a3"/>
      </g>
    </g>
  </g>
</svg>
