<svg xmlns="http://www.w3.org/2000/svg" width="18.227" height="10.936" viewBox="0 0 18.227 10.936">
  <path id="Icon_awesome-money-bill" data-name="Icon awesome-money-bill" d="M17.316,4.5H.911A.911.911,0,0,0,0,5.411v9.113a.911.911,0,0,0,.911.911h16.4a.911.911,0,0,0,.911-.911V5.411A.911.911,0,0,0,17.316,4.5ZM1.367,14.069V12.246A1.823,1.823,0,0,1,3.19,14.069Zm0-6.379V5.867H3.19A1.823,1.823,0,0,1,1.367,7.69ZM9.113,12.7A2.538,2.538,0,0,1,6.835,9.968,2.538,2.538,0,0,1,9.113,7.234a2.538,2.538,0,0,1,2.278,2.734A2.538,2.538,0,0,1,9.113,12.7Zm7.746,1.367H15.037a1.823,1.823,0,0,1,1.823-1.823Zm0-6.379a1.823,1.823,0,0,1-1.823-1.823H16.86Z" transform="translate(0 -4.5)" fill="#fff"/>
</svg>
