<svg id="money_2_" data-name="money (2)" xmlns="http://www.w3.org/2000/svg" width="28.966" height="28" viewBox="0 0 28.966 28">
  <g id="Group_2639" data-name="Group 2639" transform="translate(0 9.193)">
    <g id="Group_2638" data-name="Group 2638">
      <path id="Path_3906" data-name="Path 3906" d="M24.609,160.017H.415a.414.414,0,0,0-.415.414H0v11.62a.414.414,0,0,0,.414.415H16.866a.415.415,0,0,0,0-.83H.829v-10.79H24.194v1.038a.414.414,0,0,0,.414.415h0a.414.414,0,0,0,.415-.414h0v-1.452A.414.414,0,0,0,24.609,160.017Z" transform="translate(0 -160.017)" fill="#a3a3a3"/>
    </g>
  </g>
  <g id="Group_2641" data-name="Group 2641" transform="translate(0.968 2.907)">
    <g id="Group_2640" data-name="Group 2640">
      <path id="Path_3907" data-name="Path 3907" d="M36.836,60.387,17.47,56.029a.415.415,0,0,0-.5.315L16.005,60.7a.415.415,0,1,0,.81.18l.878-3.951L36.654,61.2a.391.391,0,0,0,.092.01.415.415,0,0,0,.091-.82Z" transform="translate(-15.995 -56.019)" fill="#a3a3a3"/>
    </g>
  </g>
  <g id="Group_2643" data-name="Group 2643" transform="translate(6.281)">
    <g id="Group_2642" data-name="Group 2642">
      <path id="Path_3908" data-name="Path 3908" d="M117.046,12.856l-11.62-4.842a.416.416,0,0,0-.533.2l-.968,1.937a.416.416,0,1,0,.733.4l.012-.024h0l.795-1.59,11.261,4.692a.416.416,0,1,0,.321-.768Z" transform="translate(-103.875 -7.982)" fill="#a3a3a3"/>
    </g>
  </g>
  <g id="Group_2645" data-name="Group 2645" transform="translate(15.484 11.132)">
    <g id="Group_2644" data-name="Group 2644" transform="translate(0 0)">
      <path id="Path_3909" data-name="Path 3909" d="M260.258,192.017h-3.843a.415.415,0,1,0,0,.83h3.843a.415.415,0,1,0,0-.83Z" transform="translate(-256 -192.017)" fill="#a3a3a3"/>
    </g>
  </g>
  <g id="Group_2647" data-name="Group 2647" transform="translate(7.769 11.157)">
    <g id="Group_2646" data-name="Group 2646" transform="translate(0 0)">
      <path id="Path_3910" data-name="Path 3910" d="M132.717,192.473a4.261,4.261,0,1,0,4.261,4.261A4.261,4.261,0,0,0,132.717,192.473Zm0,7.747a3.486,3.486,0,1,1,3.486-3.486A3.486,3.486,0,0,1,132.717,200.22Z" transform="translate(-128.456 -192.473)" fill="#a3a3a3"/>
    </g>
  </g>
  <g id="Group_2649" data-name="Group 2649" transform="translate(18.314 12.507)">
    <g id="Group_2648" data-name="Group 2648" transform="translate(0 0)">
      <path id="Path_3911" data-name="Path 3911" d="M308.182,214.873c-2.566,0-5.326.606-5.326,1.937v11.62c0,1.33,2.76,1.937,5.326,1.937s5.326-.606,5.326-1.937V216.81C313.508,215.479,310.748,214.873,308.182,214.873Zm4.357,13.549c-.073.269-1.525.976-4.357.976s-4.284-.707-4.358-.968v-.761a12.85,12.85,0,0,0,8.715,0Zm0-1.937c-.073.269-1.525.976-4.357.976s-4.284-.707-4.358-.968v-.761a12.851,12.851,0,0,0,8.715,0Zm0-1.937c-.073.269-1.525.976-4.357.976s-4.284-.707-4.358-.968V223.8a12.85,12.85,0,0,0,8.715,0Zm0-1.937c-.073.269-1.525.976-4.357.976s-4.284-.707-4.358-.968v-.761a12.85,12.85,0,0,0,8.715,0Zm0-1.937c-.073.269-1.525.976-4.357.976s-4.284-.707-4.358-.968v-.761a12.851,12.851,0,0,0,8.715,0Zm0-1.937c-.073.269-1.525.976-4.357.976s-4.284-.707-4.358-.968v-.761a12.851,12.851,0,0,0,8.715,0Zm-4.357-.961c-2.828,0-4.28-.7-4.358-.96v0c.078-.27,1.529-.974,4.358-.974,2.808,0,4.261.694,4.357.968C312.442,217.084,310.99,217.778,308.182,217.778Z" transform="translate(-302.856 -214.873)" fill="#a3a3a3"/>
    </g>
  </g>
  <g id="Group_2651" data-name="Group 2651" transform="translate(1.936 11.13)">
    <g id="Group_2650" data-name="Group 2650">
      <path id="Path_3912" data-name="Path 3912" d="M38.217,199.763h-3.66l-1.735-1.9v-3.147l1.916-1.871h3.479a.415.415,0,0,0,0-.83H34.57a.415.415,0,0,0-.29.118l-2.163,2.109a.52.52,0,0,0-.125.339v3.443a.415.415,0,0,0,.108.28l1.967,2.152a.415.415,0,0,0,.306.135h3.843a.415.415,0,1,0,0-.83Z" transform="translate(-31.992 -192.017)" fill="#a3a3a3"/>
    </g>
  </g>
  <g id="Group_2653" data-name="Group 2653" transform="translate(10.576 13.239)">
    <g id="Group_2652" data-name="Group 2652" transform="translate(0 0)">
      <path id="Path_3913" data-name="Path 3913" d="M176.551,228.568h-.484c-.151,0-.242-.084-.242-.121s.092-.121.242-.121h1.21a.484.484,0,0,0,0-.968h-.484a.484.484,0,0,0-.968,0v.022a1.127,1.127,0,0,0-.968,1.065,1.156,1.156,0,0,0,1.21,1.092h.484c.151,0,.242.084.242.121s-.092.121-.242.121h-1.21a.484.484,0,1,0,0,.968h.484a.484.484,0,0,0,.968,0v-.022a1.127,1.127,0,0,0,.968-1.065A1.156,1.156,0,0,0,176.551,228.568Z" transform="translate(-174.856 -226.873)" fill="#a3a3a3"/>
    </g>
  </g>
</svg>
