<svg id="Group_6475" data-name="Group 6475" xmlns="http://www.w3.org/2000/svg" width="394" height="215" viewBox="0 0 394 215">
  <rect id="Rectangle_2873" data-name="Rectangle 2873" width="394" height="212" fill="#0071bb" opacity="0.1"/>
  <g id="Group_6474" data-name="Group 6474" transform="translate(92.978 12.085)">
    <path id="Path_13329" data-name="Path 13329" d="M1554.148,115.426a4.615,4.615,0,0,0,4.636-4.552v-.05a9.673,9.673,0,0,0-9.328-9.666,12.864,12.864,0,0,0-15.052-6.439,12.867,12.867,0,0,0-21.062,9.209,9.676,9.676,0,0,0-6.031,8.963v.026a2.513,2.513,0,0,0,2.513,2.51Z" transform="translate(-1477.474 -45.425)" fill="#b7ded0"/>
    <g id="Group_6450" data-name="Group 6450" transform="translate(31.077 55.374)">
      <g id="Group_6448" data-name="Group 6448" transform="translate(8.526 6.049)">
        <path id="Path_13330" data-name="Path 13330" d="M1530.089,127.666a.557.557,0,0,1,.781-.791c5.573,4.866,11.584,5.515,17.4,6.143l.8.086c8.715.955,14.817,5.53,16.8,9.376a13.258,13.258,0,0,1,1.183,3.169,7.732,7.732,0,0,1,5.971,2.543l.012.014a7.121,7.121,0,0,1-.156,9.849.556.556,0,1,1-.768-.805,6,6,0,0,0,.1-8.3l-.011-.012a6.534,6.534,0,0,0-4.961-2.179,6.13,6.13,0,0,1-1.68,5.31,2.887,2.887,0,0,1-3.792-.015c-.838-.765-1.263-2.21.054-3.98a6.493,6.493,0,0,1,4.119-2.317,12.353,12.353,0,0,0-1.057-2.768c-1.907-3.7-7.992-7.909-15.93-8.779l-.794-.086c-5.706-.617-12.172-1.315-18.01-6.411A.683.683,0,0,1,1530.089,127.666Zm36.033,19.187a5.361,5.361,0,0,0-3.419,1.886c-.752,1.013-.82,1.92-.2,2.494a1.775,1.775,0,0,0,2.3.009A5.033,5.033,0,0,0,1566.122,146.853Z" transform="translate(-1529.947 -126.738)" fill="#1aa1d5"/>
      </g>
      <g id="Group_6449" data-name="Group 6449" transform="translate(0)">
        <path id="Path_13331" data-name="Path 13331" d="M1510.186,112.717l7.094,12.636,2.7-5.626,4.455-4.369Z" transform="translate(-1510.186 -112.717)" fill="#0071bb"/>
        <path id="Path_13332" data-name="Path 13332" d="M1510.186,112.717l9.793,7.009,4.455-4.369Z" transform="translate(-1510.186 -112.717)" fill="#1ca2d5" opacity="0.2"/>
      </g>
    </g>
    <rect id="Rectangle_2876" data-name="Rectangle 2876" width="118.928" height="83.988" rx="2.29" transform="translate(46.292 90.647)" fill="#0071bb"/>
    <path id="Path_13338" data-name="Path 13338" d="M1676.5,432.18h-45.811a7.635,7.635,0,0,1,7.635-7.635h30.541a7.635,7.635,0,0,1,7.635,7.635" transform="translate(-1547.625 -234.639)" fill="#26c3cf"/>
    <path id="Path_13339" data-name="Path 13339" d="M1679.537,404.42h-26.723l3.818-15.27h19.088Z" transform="translate(-1560.203 -214.514)" fill="#1aa1d5"/>
    <path id="Path_13340" data-name="Path 13340" d="M1666.188,268.224H1555.477V207a3.672,3.672,0,0,1,3.673-3.673h103.366a3.672,3.672,0,0,1,3.672,3.673v61.227Z" transform="translate(-1504.86 -108.86)" fill="#b7ded0"/>
    <g id="Group_6458" data-name="Group 6458" transform="translate(69.957 103.405)">
      <g id="Group_6457" data-name="Group 6457" transform="translate(0)">
        <path id="Path_13341" data-name="Path 13341" d="M1600.3,297.966h9.919V289.7H1600.3Z" transform="translate(-1600.305 -261.375)" fill="#1aa1d5"/>
        <path id="Path_13342" data-name="Path 13342" d="M1634.793,289.251h9.919V274.372h-9.919Z" transform="translate(-1619.913 -252.661)" fill="#1aa1d5"/>
        <path id="Path_13343" data-name="Path 13343" d="M1669.281,276.179h9.92v-24.8h-9.92Z" transform="translate(-1639.522 -239.588)" fill="#1aa1d5"/>
        <path id="Path_13344" data-name="Path 13344" d="M1703.77,266.749h9.919V234.794h-9.919Z" transform="translate(-1659.132 -230.158)" fill="#1aa1d5"/>
        <path id="Path_13345" data-name="Path 13345" d="M1738.257,260.638h9.919V224.047h-9.919Z" transform="translate(-1678.741 -224.047)" fill="#1aa1d5"/>
      </g>
      <path id="Path_13346" data-name="Path 13346" d="M1600.3,317.127h9.919V308.86H1600.3Z" transform="translate(-1600.305 -272.269)" fill="#0071bb"/>
      <path id="Path_13347" data-name="Path 13347" d="M1634.793,311.68h9.919v-12.4h-9.919Z" transform="translate(-1619.913 -266.823)" fill="#0071bb"/>
      <path id="Path_13348" data-name="Path 13348" d="M1669.281,306.233h9.92V289.7h-9.92Z" transform="translate(-1639.522 -261.375)" fill="#0071bb"/>
      <path id="Path_13349" data-name="Path 13349" d="M1703.77,311.68h9.919v-12.4h-9.919Z" transform="translate(-1659.132 -266.823)" fill="#0071bb"/>
      <path id="Path_13350" data-name="Path 13350" d="M1738.257,297.518h9.919V274.372h-9.919Z" transform="translate(-1678.741 -252.661)" fill="#0071bb"/>
    </g>
    <g id="Group_6459" data-name="Group 6459" transform="translate(94.937 171.719)">
      <path id="Path_13351" data-name="Path 13351" d="M1662.661,410.109s-7.347-11.438-3.173-27.718c0,0,12.023,2.672,16.03,27.718Z" transform="translate(-1658.205 -382.391)" fill="#71c68b"/>
      <path id="Path_13352" data-name="Path 13352" d="M1674.779,422.873s-3.138-15.028-4.892-18.034c0,0,5.276,9.518,6.061,18.034Z" transform="translate(-1664.847 -395.154)" fill="#0071bb"/>
    </g>
    <g id="Group_6460" data-name="Group 6460" transform="translate(106.847 171.936)">
      <path id="Path_13353" data-name="Path 13353" d="M1698.669,410.612s7.347-11.438,3.173-27.719c0,0-12.023,2.672-16.03,27.719Z" transform="translate(-1685.811 -382.893)" fill="#71c68b"/>
      <path id="Path_13354" data-name="Path 13354" d="M1701.379,423.375s3.139-15.028,4.892-18.034c0,0-5.275,9.518-6.061,18.034Z" transform="translate(-1693.998 -395.656)" fill="#0071bb"/>
    </g>
    <g id="Group_6461" data-name="Group 6461" transform="translate(117.025 163.923)">
      <path id="Path_13355" data-name="Path 13355" d="M1725.976,400.052s9.471-14.745,4.09-35.731c0,0-15.5,3.444-20.664,35.731Z" transform="translate(-1709.402 -364.321)" fill="#65b99a"/>
      <path id="Path_13356" data-name="Path 13356" d="M1729.469,416.5s4.047-19.372,6.306-23.247c0,0-6.8,12.269-7.813,23.247Z" transform="translate(-1719.955 -380.774)" fill="#0071bb"/>
    </g>
    <g id="Group_6462" data-name="Group 6462" transform="translate(76.939 163.923)">
      <path id="Path_13357" data-name="Path 13357" d="M1622.233,400.052s-9.471-14.745-4.089-35.731c0,0,15.5,3.444,20.663,35.731Z" transform="translate(-1616.489 -364.321)" fill="#65b99a"/>
      <path id="Path_13358" data-name="Path 13358" d="M1637.854,416.5s-4.046-19.372-6.306-23.247c0,0,6.8,12.269,7.813,23.247Z" transform="translate(-1625.051 -380.774)" fill="#0071bb"/>
    </g>
    <g id="Group_6463" data-name="Group 6463" transform="translate(141.576 149.606)">
      <path id="Path_13359" data-name="Path 13359" d="M1791,381.224h-21.754a2.941,2.941,0,0,1-2.941-2.94V334.077a2.941,2.941,0,0,1,2.941-2.941H1791a2.941,2.941,0,0,1,2.941,2.941v44.206A2.941,2.941,0,0,1,1791,381.224Z" transform="translate(-1766.308 -331.136)" fill="#71c68b"/>
      <rect id="Rectangle_2877" data-name="Rectangle 2877" width="27.635" height="34.543" transform="translate(0 5.181)" fill="#6cb1a6"/>
      <path id="Path_13360" data-name="Path 13360" d="M1796.648,336.866h-3.454a.864.864,0,0,1,0-1.727h3.454a.864.864,0,0,1,0,1.727Z" transform="translate(-1781.104 -333.412)" fill="#65b99a"/>
    </g>
    <path id="Path_13361" data-name="Path 13361" d="M1812.53,125.387a3.142,3.142,0,0,0,3.156-3.1v-.034a6.585,6.585,0,0,0-6.35-6.58,8.758,8.758,0,0,0-10.246-4.383,8.759,8.759,0,0,0-14.337,6.268,6.587,6.587,0,0,0-4.105,6.1v.018a1.71,1.71,0,0,0,1.711,1.708Z" transform="translate(-1632.886 -55.386)" fill="#b7ded0"/>
    <g id="Group_6465" data-name="Group 6465" transform="translate(3.208 104.501)">
      <path id="Path_13362" data-name="Path 13362" d="M1452.918,258.874l-6.909,6.308a.766.766,0,0,0-.05,1.091l7,7.663a.766.766,0,0,0,1.091.05l6.909-6.307a.766.766,0,0,0,.049-1.091l-6.981-7.647A.786.786,0,0,0,1452.918,258.874Z" transform="translate(-1445.683 -244.833)" fill="#0071bb"/>
      <path id="Path_13363" data-name="Path 13363" d="M1445.937,280.286a1.066,1.066,0,0,0-.068,1.507l3.231,3.539a1.066,1.066,0,0,0,1.507.069l1.107-1.01-4.67-5.115Z" transform="translate(-1445.589 -256.545)" fill="#71c68b"/>
      <path id="Path_13364" data-name="Path 13364" d="M1484.823,245.911l-12.851,4.784-6.66-7.295,5.915-12.38Z" transform="translate(-1456.803 -229.108)" fill="#1aa1d5"/>
      <path id="Path_13365" data-name="Path 13365" d="M1478.44,226.858a1.066,1.066,0,0,0-.068,1.508l13.855,15.176a1.067,1.067,0,1,0,1.576-1.439l-13.87-15.193A1.092,1.092,0,0,0,1478.44,226.858Z" transform="translate(-1464.069 -226.589)" fill="#0071bb"/>
      <path id="Path_13366" data-name="Path 13366" d="M1481.107,288.256l-3.371,3.077-11.171-4.928,5.3-4.838Z" transform="translate(-1457.515 -257.847)" fill="#65b99a"/>
      <g id="Group_6464" data-name="Group 6464" transform="translate(3.065 16.825)">
        <path id="Path_13367" data-name="Path 13367" d="M1456.811,265.71l-3.958,3.613a.592.592,0,0,0,.026.837.607.607,0,0,0,.831.1l3.958-3.613a.592.592,0,0,0-.026-.837A.606.606,0,0,0,1456.811,265.71Z" transform="translate(-1452.692 -265.587)" fill="#65b99a"/>
        <path id="Path_13368" data-name="Path 13368" d="M1461.85,271.23l-3.958,3.613a.592.592,0,0,0,.026.837.606.606,0,0,0,.831.1l3.958-3.613a.592.592,0,0,0-.026-.837A.607.607,0,0,0,1461.85,271.23Z" transform="translate(-1455.557 -268.726)" fill="#65b99a"/>
        <path id="Path_13369" data-name="Path 13369" d="M1466.924,276.781l-3.958,3.613a.592.592,0,0,0,.026.837.607.607,0,0,0,.831.1l3.958-3.613a.643.643,0,0,0-.858-.939Z" transform="translate(-1458.442 -271.879)" fill="#65b99a"/>
      </g>
      <path id="Path_13370" data-name="Path 13370" d="M1492.026,236.784l4.671,5.117a3.465,3.465,0,0,0-4.671-5.117Z" transform="translate(-1471.992 -231.894)" fill="#65b99a"/>
    </g>
    <g id="Group_6466" data-name="Group 6466" transform="translate(0 132.868)">
      <path id="Path_13371" data-name="Path 13371" d="M1497.407,340.831l-.977-1.466v-4.4h3.421v5.376l-.977,1.955Z" transform="translate(-1471.287 -316.576)" fill="#78c1a7"/>
      <path id="Path_13372" data-name="Path 13372" d="M1491.72,297.989,1490.4,308.52l-2.9,6.056a6.041,6.041,0,0,1-3.99.2,1.546,1.546,0,0,1-.63-.452l-4.068-6.328-2.369-10.795-1.843.526,1.13,10.62a8.318,8.318,0,0,0,1.068,3.282l3.067,5.318c-2.369,6.319-3.949,17.64-3.949,17.64l11.322-.527c2.195-8.047,3.854-13.651,3.493-17.046l2.2-5.537c.583-1.079.395-2.274.463-3.5l.423-12.357Z" transform="translate(-1458.879 -294.204)" fill="#71c68b"/>
      <path id="Path_13373" data-name="Path 13373" d="M1457.625,385.245l-3.082,7.349a12.235,12.235,0,0,1-1.131,2.393l-10.988,8.425,1.316,3.159,12.2-7.9a9.072,9.072,0,0,1,1.507-1.32,4.458,4.458,0,0,0,.8-.738l5.167-6.106,8.06,2.134a2.767,2.767,0,0,1,1.464.96l7.327,9.281,2.106-1.843-6.3-11.147a4.462,4.462,0,0,0-1.478-1.561l-5.649-3.616Z" transform="translate(-1440.582 -344.863)" fill="#0071bb"/>
      <path id="Path_13374" data-name="Path 13374" d="M1440.522,427.292l-1.448.644a1.552,1.552,0,0,0-.922,1.418v5.612a.54.54,0,0,0,1.011.264l2.675-4.777Z" transform="translate(-1438.153 -369.069)" fill="#1aa1d5"/>
      <path id="Path_13375" data-name="Path 13375" d="M1530.141,422.275l1.659,1.659a1.35,1.35,0,0,0,1.928-.02l3.894-4.056a.612.612,0,0,0-.59-1.017l-5.311,1.328Z" transform="translate(-1490.455 -364.253)" fill="#1aa1d5"/>
      <path id="Path_13376" data-name="Path 13376" d="M1498.17,325.1a2.463,2.463,0,0,1-1.948.566c-1.454-.2-3.849-.853-4.436-2.909-.858-3,1.716-5.577,3-6.006a3.728,3.728,0,0,1,4.72,3.432C1499.877,323.136,1499.612,323.868,1498.17,325.1Z" transform="translate(-1468.55 -306.143)" fill="#9bd1be"/>
      <path id="Path_13377" data-name="Path 13377" d="M1495.2,315.826s3.861-1.09,4.29-4.359c0,0-2.574,1.647-4.29.824s-4.719-.824-5.578,1.356a1.916,1.916,0,0,0-1.716,1.634c-.429,1.635.612,4,2.022,5.269,0,0-.521-2.416.338-3.5s1.287,1.287,1.287,1.287S1491.338,316.371,1495.2,315.826Z" transform="translate(-1466.385 -303.215)" fill="#0071bb"/>
      <path id="Path_13378" data-name="Path 13378" d="M1474.371,296.03l-.065-1.565.082-1.752a.436.436,0,0,1,.639-.329,3.005,3.005,0,0,1,1.577,1.456,2.257,2.257,0,0,1-.044,2.145Z" transform="translate(-1458.709 -292.339)" fill="#9bd1be"/>
      <path id="Path_13379" data-name="Path 13379" d="M1514.039,296.03l-.064-1.565.082-1.752a.435.435,0,0,1,.639-.329,3.008,3.008,0,0,1,1.577,1.456,2.259,2.259,0,0,1-.044,2.145Z" transform="translate(-1481.263 -292.339)" fill="#9bd1be"/>
    </g>
    <g id="Group_6468" data-name="Group 6468" transform="translate(50.582 163.653)">
      <ellipse id="Ellipse_593" data-name="Ellipse 593" cx="16.361" cy="16.361" rx="16.361" ry="16.361" transform="translate(1.259 1.987)" fill="#0071bb"/>
      <ellipse id="Ellipse_594" data-name="Ellipse 594" cx="9.439" cy="9.439" rx="9.439" ry="9.439" transform="translate(6.264 25.366) rotate(-76.717)" fill="#f5f9fc"/>
      <path id="Path_13380" data-name="Path 13380" d="M1572.07,442.142a.629.629,0,0,1-.445-1.074l2.475-2.475a.629.629,0,1,1,.89.89l-2.475,2.475A.628.628,0,0,1,1572.07,442.142Z" transform="translate(-1564.519 -406.174)" fill="#71c68b"/>
      <path id="Path_13381" data-name="Path 13381" d="M1615.458,442.117a.628.628,0,0,1-.445-.184l-2.494-2.494a.629.629,0,0,1,.89-.89l2.494,2.494a.629.629,0,0,1-.445,1.074Z" transform="translate(-1587.77 -406.15)" fill="#71c68b"/>
      <path id="Path_13382" data-name="Path 13382" d="M1621.8,376.133a.629.629,0,0,1-.445-1.074l1.888-1.888a.629.629,0,1,1,.89.89l-1.888,1.888A.627.627,0,0,1,1621.8,376.133Z" transform="translate(-1592.793 -368.977)" fill="#71c68b"/>
      <path id="Path_13383" data-name="Path 13383" d="M1566.529,376.133a.627.627,0,0,1-.445-.185l-1.888-1.888a.629.629,0,1,1,.89-.89l1.888,1.888a.629.629,0,0,1-.445,1.074Z" transform="translate(-1560.295 -368.977)" fill="#71c68b"/>
      <path id="Path_13384" data-name="Path 13384" d="M1573.016,400.621a17.62,17.62,0,1,1,17.62-17.62A17.64,17.64,0,0,1,1573.016,400.621Zm0-32.723a15.1,15.1,0,1,0,15.1,15.1A15.12,15.12,0,0,0,1573.016,367.9Z" transform="translate(-1555.396 -364.653)" fill="#1aa1d5"/>
      <g id="Group_6467" data-name="Group 6467" transform="translate(3.146 3.798)">
        <path id="Path_13385" data-name="Path 13385" d="M1595.407,372.5a.629.629,0,0,0-.63.63v.629a.629.629,0,1,0,1.259,0v-.629A.629.629,0,0,0,1595.407,372.5Z" transform="translate(-1580.934 -372.498)" fill="#1ca2d5"/>
        <path id="Path_13386" data-name="Path 13386" d="M1595.407,435.218a.629.629,0,0,0-.63.629v.629a.629.629,0,0,0,1.259,0v-.629A.629.629,0,0,0,1595.407,435.218Z" transform="translate(-1580.934 -408.159)" fill="#1ca2d5"/>
        <path id="Path_13387" data-name="Path 13387" d="M1626.667,404.587h-.63a.629.629,0,0,0,0,1.258h.63a.629.629,0,0,0,0-1.258Z" transform="translate(-1598.35 -390.743)" fill="#1ca2d5"/>
        <path id="Path_13388" data-name="Path 13388" d="M1563.947,404.587h-.629a.629.629,0,1,0,0,1.258h.629a.629.629,0,1,0,0-1.258Z" transform="translate(-1562.689 -390.743)" fill="#1ca2d5"/>
        <path id="Path_13389" data-name="Path 13389" d="M1617.066,382.08l-.445.445a.629.629,0,0,0,.89.89l.445-.445a.629.629,0,1,0-.89-.89Z" transform="translate(-1593.248 -377.841)" fill="#1ca2d5"/>
        <path id="Path_13390" data-name="Path 13390" d="M1572.717,426.43l-.445.445a.629.629,0,0,0,.89.89l.445-.445a.629.629,0,1,0-.89-.89Z" transform="translate(-1568.033 -403.057)" fill="#1ca2d5"/>
        <path id="Path_13391" data-name="Path 13391" d="M1617.511,426.43a.629.629,0,1,0-.89.89l.445.445a.629.629,0,0,0,.89-.89Z" transform="translate(-1593.248 -403.057)" fill="#1ca2d5"/>
        <path id="Path_13392" data-name="Path 13392" d="M1573.162,382.08a.629.629,0,1,0-.89.89l.445.445a.629.629,0,0,0,.89-.89Z" transform="translate(-1568.033 -377.841)" fill="#1ca2d5"/>
      </g>
      <path id="Path_13393" data-name="Path 13393" d="M1578.734,393.782a.629.629,0,0,0,.63.63h4.494a2.512,2.512,0,1,0,3.057-3.057v-6.382a.629.629,0,1,0-1.258,0v6.382a2.513,2.513,0,0,0-1.8,1.8h-4.494A.629.629,0,0,0,1578.734,393.782Zm6.293,0a1.259,1.259,0,1,1,1.258,1.258A1.26,1.26,0,0,1,1585.027,393.782Z" transform="translate(-1568.665 -375.435)" fill="#0071bb"/>
      <path id="Path_13394" data-name="Path 13394" d="M1625.683,365.006a4.481,4.481,0,0,1,0,6.338l-6.338-6.338A4.482,4.482,0,0,1,1625.683,365.006Z" transform="translate(-1591.755 -363.694)" fill="#65b99a"/>
      <path id="Path_13395" data-name="Path 13395" d="M1556.709,365.006a4.481,4.481,0,0,0,0,6.338l6.337-6.338A4.481,4.481,0,0,0,1556.709,365.006Z" transform="translate(-1555.396 -363.694)" fill="#65b99a"/>
    </g>
    <g id="Group_6470" data-name="Group 6470" transform="translate(185.479 129.443)">
      <path id="Path_13396" data-name="Path 13396" d="M1902.05,320.089a16.111,16.111,0,0,1-.475-2.365h-3.262v2.416Z" transform="translate(-1885.265 -303.347)" fill="#78c1a7"/>
      <path id="Path_13397" data-name="Path 13397" d="M1870.123,284.4a5.944,5.944,0,0,0-2.053,3.987S1870.728,288.992,1870.123,284.4Z" transform="translate(-1868.07 -284.401)" fill="#0071bb"/>
      <path id="Path_13398" data-name="Path 13398" d="M1893.773,365.889l-1.45,12.685,6.524,19.088h-3.261l-7.555-16.255a4.485,4.485,0,0,1-.419-1.893l-.6-4.927-1.329,5.557.725,17.518h-2.9l-3.5-19.1a5.15,5.15,0,0,1,.19-2.589l3.434-10.086Z" transform="translate(-1874.805 -330.733)" fill="#0071bb"/>
      <path id="Path_13399" data-name="Path 13399" d="M1893.939,339.777h-12.2l1.329-13.289-5.2-2.3,3.262-4.228,8.318,1.153a4.657,4.657,0,0,1,4.015,4.458Z" transform="translate(-1873.642 -304.621)" fill="#71c68b"/>
      <path id="Path_13400" data-name="Path 13400" d="M1897.343,308.984a9.48,9.48,0,0,1-2.3-1.57c-.6-.725.846-4.228,2.3-5.074s3.866-.966,3.866.483,1.208,3.866,0,4.47S1899.638,309.105,1897.343,308.984Z" transform="translate(-1883.329 -294.246)" fill="#9bd1be"/>
      <path id="Path_13401" data-name="Path 13401" d="M1901.034,298.474s-1.933-2.416-.725-4.832a2.916,2.916,0,0,0,2.054,1.57c1.57.362,3.366.71,3.986,2.416.967,2.658,1.024,5.687-4.228,6.4,0,0,2.174-1.933,1.691-3.262S1901.88,299.2,1901.034,298.474Z" transform="translate(-1886.175 -289.655)" fill="#0071bb"/>
      <path id="Path_13402" data-name="Path 13402" d="M1881.843,292.5l-11.719-8.094s-.6,3.262-2.053,3.987Z" transform="translate(-1868.07 -284.401)" fill="#1aa1d5"/>
      <g id="Group_6469" data-name="Group 6469" transform="translate(1.43 2.416)">
        <path id="Path_13403" data-name="Path 13403" d="M1871.388,303.856l.94-11.394,0,0,.009-.053.007-.075.006,0c.33-1.9,1.12-2.333,1.475-2.333a1.416,1.416,0,0,1,1.087,1.208c.113.679-.677,1.851-.779,2l.054,9.116,3.262.6-2.9,3.745-1.618-.539A2.258,2.258,0,0,1,1871.388,303.856Z" transform="translate(-1871.384 -290.002)" fill="#9bd1be"/>
        <path id="Path_13404" data-name="Path 13404" d="M1887.727,299.54l.542,8.971-2.837-.393.446-8.989Z" transform="translate(-1879.371 -295.191)" fill="#9bd1be"/>
      </g>
      <path id="Path_13405" data-name="Path 13405" d="M1914.966,439.536H1911.7l-3.228,2.53a.544.544,0,0,0,.336.973h5.61a.545.545,0,0,0,.544-.544Z" transform="translate(-1890.924 -372.606)" fill="#1aa1d5"/>
      <path id="Path_13406" data-name="Path 13406" d="M1886.143,439.536h-2.9l-3.555,2.514a.544.544,0,0,0,.314.989h5.595a.545.545,0,0,0,.545-.544Z" transform="translate(-1874.544 -372.606)" fill="#1aa1d5"/>
    </g>
    <g id="Group_6471" data-name="Group 6471" transform="translate(94.193 22.311)">
      <path id="Path_13407" data-name="Path 13407" d="M1674.677,122.714s-1.45,11.719-.966,17.639.966,11.357.966,11.357h2.417l.906-15.283,2.115-5.014.633,4.911a4.511,4.511,0,0,0,2.732,3.583l10.89,4.554,1.087-1.933-9.259-6.436a1.629,1.629,0,0,1-.695-1.236l-.677-11.174Z" transform="translate(-1666.221 -85.338)" fill="#0071bb"/>
      <path id="Path_13408" data-name="Path 13408" d="M1660.82,68.184l1.812-2.175s6.766,3.624,7.853,4.47,7.732,1.812,9.182,5.195,3.5,8.094,3.5,8.094l-2.779,1.691-3.08-4.772.242,10.753s-5.316,3.382-10.148-.967l-.242-14.86Z" transform="translate(-1658.947 -53.097)" fill="#71c68b"/>
      <path id="Path_13409" data-name="Path 13409" d="M1658.292,51.106l-1.812-2.174,2.537-9.3s-.121-2.054.725-2.779,1.329-.966,1.933-.6-1.329,1.208-.725,2.3c0,0,.725-.362.846-.725s.846-.121.483.483a15.042,15.042,0,0,1-1.57,1.812l-1.571,7.49.967,1.329Z" transform="translate(-1656.48 -36.08)" fill="#9bd1be"/>
      <path id="Path_13410" data-name="Path 13410" d="M1706.044,108.724l5.558,7.732a1.74,1.74,0,0,0,1.329.966,1.949,1.949,0,0,1,1.57,1.45c.241.6.966.966.725-.846a2.806,2.806,0,0,0-2.3-2.537l-4.108-8.457Z" transform="translate(-1684.66 -76.422)" fill="#9bd1be"/>
      <path id="Path_13411" data-name="Path 13411" d="M1675.043,73.565a2.054,2.054,0,0,1-2.013.1c-1.232-.59-2.83-1.527-2.83-2.419,0-1.45-.121-2.9,2.053-3.987a9.2,9.2,0,0,0,4.712-5.678c.6-2.416,1.088-4.228,2.658-4.47s4.47.242,4.591,2.779-.6,8.94-1.812,11.114-1.812,5.195-3.866,4.591-1.209-1.57-1.692-1.933A1.608,1.608,0,0,0,1675.043,73.565Z" transform="translate(-1664.28 -48.008)" fill="#0071bb"/>
      <path id="Path_13412" data-name="Path 13412" d="M1674.408,189.921l-1.182,1.267a.324.324,0,0,0,.237.545h3.037a.324.324,0,0,0,.324-.324v-1.488Z" transform="translate(-1665.951 -123.55)" fill="#d4ece3"/>
      <path id="Path_13413" data-name="Path 13413" d="M1721.726,170.572v1.492a.324.324,0,0,0,.577.2l2.049-2.561a.324.324,0,0,0-.132-.5l-1.406-.563Z" transform="translate(-1693.577 -111.449)" fill="#d4ece3"/>
    </g>
    <g id="Group_6472" data-name="Group 6472" transform="translate(156.877 0)">
      <ellipse id="Ellipse_595" data-name="Ellipse 595" cx="9.543" cy="9.543" rx="9.543" ry="9.543" transform="translate(12.269 12.269)" fill="#f5f9fc"/>
      <path id="Path_13414" data-name="Path 13414" d="M1850.995-9.5a.682.682,0,0,0,.682-.682v-4.772a.682.682,0,0,0-.682-.682c-.377,0-.682.305-1.016.682v4.772C1850.313-9.8,1850.617-9.5,1850.995-9.5Z" transform="translate(-1829.182 15.633)" fill="#1aa1d5"/>
      <path id="Path_13415" data-name="Path 13415" d="M1850.661,4.473a.681.681,0,0,0,.682-.682V2.428a.682.682,0,1,0-1.363,0V3.791A.681.681,0,0,0,1850.661,4.473Z" transform="translate(-1829.182 5.752)" fill="#1aa1d5"/>
      <path id="Path_13416" data-name="Path 13416" d="M1851.435,71.263a.681.681,0,0,0-.682.682v4.772a.682.682,0,1,0,1.363,0V71.945A.681.681,0,0,0,1851.435,71.263Z" transform="translate(-1829.622 -33.774)" fill="#1aa1d5"/>
      <path id="Path_13417" data-name="Path 13417" d="M1851.435,61.784a.681.681,0,0,0-.682.682v1.363a.682.682,0,0,0,1.363,0V62.466A.681.681,0,0,0,1851.435,61.784Z" transform="translate(-1829.622 -28.384)" fill="#1aa1d5"/>
      <path id="Path_13418" data-name="Path 13418" d="M1893.35,33.345h-4.772a.682.682,0,1,0,0,1.363h4.772a.682.682,0,0,0,0-1.363Z" transform="translate(-1850.741 -12.214)" fill="#1aa1d5"/>
      <path id="Path_13419" data-name="Path 13419" d="M1879.873,33.345a.682.682,0,0,0,0,1.363h1.363a.682.682,0,1,0,0-1.363Z" transform="translate(-1845.792 -12.214)" fill="#1aa1d5"/>
      <path id="Path_13420" data-name="Path 13420" d="M1807.91,34.027c0-.377-.3-.682-1.015-.682h-4.772a.891.891,0,0,0-.348.682.682.682,0,0,0,.682.682h4.772A.681.681,0,0,0,1807.91,34.027Z" transform="translate(-1801.775 -12.214)" fill="#1aa1d5"/>
      <path id="Path_13421" data-name="Path 13421" d="M1820.425,33.345h-1.363a.682.682,0,0,0,0,1.363h1.363a.682.682,0,0,0,0-1.363Z" transform="translate(-1811.216 -12.214)" fill="#1aa1d5"/>
      <path id="Path_13422" data-name="Path 13422" d="M1823.413,53.653l-5.639,5.639a.682.682,0,1,0,.964.964l5.639-5.639a.682.682,0,0,0-.964-.964Z" transform="translate(-1810.758 -23.647)" fill="#1aa1d5"/>
      <path id="Path_13423" data-name="Path 13423" d="M1871.543,7.168a.68.68,0,0,0,.482-.2l5.639-5.639a.681.681,0,0,0-.964-.964L1871.061,6a.682.682,0,0,0,.482,1.164Z" transform="translate(-1841.056 6.65)" fill="#1aa1d5"/>
      <path id="Path_13424" data-name="Path 13424" d="M1837.171,1.375a.682.682,0,0,0,1.259-.522l-2.087-5.038a.683.683,0,0,0-.891-.369.682.682,0,0,0-.369.89Z" transform="translate(-1820.684 9.363)" fill="#0071bb"/>
      <path id="Path_13425" data-name="Path 13425" d="M1862.948,60.04a.682.682,0,1,0-1.259.522l2.087,5.037a.682.682,0,1,0,1.259-.522Z" transform="translate(-1835.81 -27.154)" fill="#0071bb"/>
      <path id="Path_13426" data-name="Path 13426" d="M1872.025,53.653a.682.682,0,0,0-.964.964l5.639,5.639a.682.682,0,0,0,.964-.964Z" transform="translate(-1841.056 -23.647)" fill="#1aa1d5"/>
      <path id="Path_13427" data-name="Path 13427" d="M1823.413,6.968a.682.682,0,0,0,.964-.964L1818.738.366a.682.682,0,1,0-.964.964Z" transform="translate(-1810.758 6.65)" fill="#1aa1d5"/>
      <path id="Path_13428" data-name="Path 13428" d="M1862.057,1.744a.68.68,0,0,0,.89-.369l2.087-5.038a.682.682,0,0,0-.369-.89.683.683,0,0,0-.891.369L1861.689.853A.682.682,0,0,0,1862.057,1.744Z" transform="translate(-1835.81 9.363)" fill="#0071bb"/>
      <path id="Path_13429" data-name="Path 13429" d="M1838.062,59.671a.683.683,0,0,0-.891.369l-2.087,5.038a.682.682,0,0,0,1.259.522l2.087-5.038A.682.682,0,0,0,1838.062,59.671Z" transform="translate(-1820.684 -27.153)" fill="#0071bb"/>
      <path id="Path_13430" data-name="Path 13430" d="M1819.151,44.649a.682.682,0,0,0-.89-.369l-5.038,2.087a.682.682,0,1,0,.522,1.259l5.038-2.087A.681.681,0,0,0,1819.151,44.649Z" transform="translate(-1808.045 -18.403)" fill="#0071bb"/>
      <path id="Path_13431" data-name="Path 13431" d="M1877.079,20.655a.683.683,0,0,0,.891.369l5.037-2.087a.681.681,0,1,0-.521-1.259l-5.038,2.087A.682.682,0,0,0,1877.079,20.655Z" transform="translate(-1844.561 -3.277)" fill="#0071bb"/>
      <path id="Path_13432" data-name="Path 13432" d="M1813.223,18.936l5.038,2.087a.682.682,0,0,0,.522-1.259l-5.038-2.087a.682.682,0,0,0-.522,1.259Z" transform="translate(-1808.045 -3.277)" fill="#0071bb"/>
      <path id="Path_13433" data-name="Path 13433" d="M1883.007,46.367l-5.037-2.087a.682.682,0,1,0-.522,1.259l5.038,2.087a.682.682,0,1,0,.521-1.259Z" transform="translate(-1844.561 -18.403)" fill="#0071bb"/>
    </g>
    <g id="Group_6473" data-name="Group 6473" transform="translate(169.897 82.114)">
      <path id="Path_13434" data-name="Path 13434" d="M1897.915,210.258a1.116,1.116,0,1,1-1.392-.747A1.117,1.117,0,0,1,1897.915,210.258Z" transform="translate(-1868.215 -194.464)" fill="#71c68b"/>
      <path id="Path_13435" data-name="Path 13435" d="M1856.814,175.366a.941.941,0,1,1-1.172-.629A.941.941,0,0,1,1856.814,175.366Z" transform="translate(-1845.041 -174.696)" fill="#71c68b"/>
      <path id="Path_13436" data-name="Path 13436" d="M1908.987,188.88l-.359-2.4,1.772-1.655a.355.355,0,0,0-.184-.61l-2.391-.4-1.027-2.2a.356.356,0,0,0-.637-.013l-1.119,2.151-2.407.3a.356.356,0,0,0-.21.6l1.7,1.729c-.5,2.593-.487,2.435-.452,2.551a.356.356,0,0,0,.5.216l2.17-1.082,2.121,1.173A.356.356,0,0,0,1908.987,188.88Z" transform="translate(-1871.964 -178.517)" fill="#71c68b"/>
      <path id="Path_13437" data-name="Path 13437" d="M1896.667,228.058l.954-1.8,2.021-.232a.3.3,0,0,0,.18-.5l-1.414-1.463.4-1.994a.3.3,0,0,0-.423-.327l-1.829.892-1.771-1a.3.3,0,0,0-.442.3l.284,2.014-1.5,1.375a.289.289,0,0,0-.08.119.3.3,0,0,0,.229.394l2,.353.845,1.85A.3.3,0,0,0,1896.667,228.058Z" transform="translate(-1866.684 -201.361)" fill="#71c68b"/>
      <path id="Path_13438" data-name="Path 13438" d="M1839.748,190.324s9.061-3.965,13.361-8.807a1.491,1.491,0,0,0-.085-2.189h0a1.18,1.18,0,0,0-1.671.028h0A41.2,41.2,0,0,1,1839.748,190.324Z" transform="translate(-1836.386 -177.129)" fill="#65b99a"/>
      <path id="Path_13439" data-name="Path 13439" d="M1851.127,232.458h0q.155.139.3.27a1.258,1.258,0,0,0,1.884-.119c.816-.963-.226-1.891-.4-2.035-6.02-4.621-14.626-5.59-14.626-5.59a38.1,38.1,0,0,1,12.845,7.473Z" transform="translate(-1835.551 -203.289)" fill="#65b99a"/>
      <path id="Path_13440" data-name="Path 13440" d="M1839.05,179c.085-.247.46-1.5-.593-1.784a.952.952,0,0,0-1.248.82h0a30.253,30.253,0,0,1-5.255,10.709S1836.994,184.519,1839.05,179Z" transform="translate(-1831.954 -176.103)" fill="#65b99a"/>
      <path id="Path_13441" data-name="Path 13441" d="M1881.356,179.091c.147,0,.126-.027.731-1.164,1.293-.148,1.3-.117,1.351-.255s.014-.128-.881-1.054c.258-1.275.291-1.274.175-1.363s-.118-.053-1.276.512l-1.055-.6a.178.178,0,0,0-.263.179l.169,1.2c-.959.88-.984.859-.943,1s.064.112,1.333.336l.5,1.1A.178.178,0,0,0,1881.356,179.091Z" transform="translate(-1858.904 -174.953)" fill="#71c68b"/>
      <path id="Path_13442" data-name="Path 13442" d="M1867.508,194.271h0c.294-1.521.254-1.789-.891-2.954h0a1.834,1.834,0,0,0-2.089-.615c-4.046,1.969-12.3,5.872-20.428,9.016,8.484-1.867,17.486-3.175,21.962-3.773C1866.572,195.875,1867.217,195.775,1867.508,194.271Z" transform="translate(-1838.86 -183.73)" fill="#65b99a"/>
      <path id="Path_13443" data-name="Path 13443" d="M1861.852,221.938a.917.917,0,0,0,.926-.092l.61-.56a.846.846,0,0,0,.286-.7l-.009-.065h0l-.095-.674a1.051,1.051,0,0,0-.782-.83c-7.915-1.815-19.55-.52-19.55-.52a58.688,58.688,0,0,1,18.613,3.445Z" transform="translate(-1838.37 -199.343)" fill="#65b99a"/>
    </g>
  </g>
  <path id="Path_14882" data-name="Path 14882" d="M394,4h0Z" transform="translate(0 211)" fill="#0071bb"/>
</svg>
