<svg xmlns="http://www.w3.org/2000/svg" xmlns:xlink="http://www.w3.org/1999/xlink" width="227.659" height="193.405" viewBox="0 0 227.659 193.405">
  <defs>
    <linearGradient id="linear-gradient" x1="0.5" x2="0.5" y2="1" gradientUnits="objectBoundingBox">
      <stop offset="0" stop-color="#4a80fc"/>
      <stop offset="1" stop-color="#22d3bd"/>
    </linearGradient>
  </defs>
  <g id="Group_17132" data-name="Group 17132" transform="translate(0 0)">
    <g id="Group_14071" data-name="Group 14071" transform="translate(9.949 0)">
      <path id="Path_14710" data-name="Path 14710" d="M138.52,219.046l130.686-.012s33-.756,45.662-33.637c9.284-24.111-2.367-62.084-28.843-61.863-8.562.071-23.516-11.84-19.77-23.749C295.841,5.741,169.074,9.11,126.674,67.735c-40.5,56,5.077,90.166-3.8,105.969-2.112,3.762-17.691-1.694-22.2,13.592S135.29,211.279,138.52,218.6Z" transform="translate(-100.317 -26)" fill="#e0f6f8" fill-rule="evenodd"/>
    </g>
    <g id="Group_14072" data-name="Group 14072" transform="translate(81.792 23.082)">
      <path id="Path_14711" data-name="Path 14711" d="M257.492,92.075s-.8,8.994-.8,14.78c0,38.664.2,30.125.2,33.867,0,.361,2.891-1.418,3.33-1.535,2.74-.731,5.643-1.08,8.389-1.766,2.249-.562,3.512-3.189,5.717-3.741.432-.108,13.012,4.288,13.295,3.935,1.148-1.436,17.193,1.693,17.064-.1-.5-6.946,4.322-39.993.584-45.973-.309-.5-5.811-13.954-9.3-15.161-5.785-2-31.649,18.27-33.747,12.606C261.367,86.7,257.492,92.075,257.492,92.075Z" transform="translate(-256.688 -76.239)" fill-rule="evenodd" fill="url(#linear-gradient)"/>
    </g>
    <g id="Group_14073" data-name="Group 14073" transform="translate(78.341 83.089)">
      <path id="Path_14712" data-name="Path 14712" d="M256.645,209.6c-6.694,0-5.562,12.82-6.549,17.756-1.654,8.269-.708,14.888,0,24.014.411,5.3,2.879,10.614,3.784,15.864,1.221,7.082,1.488,13.339,2.183,21.1a45.348,45.348,0,0,1-.436,8.442c-.691,6.92-1.772,13.875-4.622,20.189-.021.045,63.225.141,63.219.127-.724-2.171-1.247-6.848-2.128-8.964-1.066-2.559-1.757-5.267-2.765-7.859-1.153-2.965-2.194-5.954-3.493-8.878a39.637,39.637,0,0,1-3.493-13.681c-.714-11.42,1.6-22.19,4.221-33.183,2.234-9.383,5.848-20.832-2.62-28.09-3.6-3.081-7.627-6.083-11.352-8.878-1.557-1.167-4.9-.593-6.549-.436-5.5.525-11.177.036-16.592,1.164-3.619.754-7.329,1.175-10.915,1.892-.332.067-1.339.117-1.6-.145-.161-.161-1-1.37-1.31-1.164-.559.373-.458,3.139-.291,3.638Z" transform="translate(-249.177 -206.848)" fill="#fff" fill-rule="evenodd"/>
    </g>
    <g id="Group_14077" data-name="Group 14077" transform="translate(85.065 34.591)">
      <path id="Path_14713" data-name="Path 14713" d="M263.811,104.315l.325-.434Z" transform="translate(-263.811 -102.69)" fill="#502e30" fill-rule="evenodd"/>
      <path id="Path_14714" data-name="Path 14714" d="M270.883,101.289h0Z" transform="translate(-267.634 -101.289)" fill="#502e30" fill-rule="evenodd"/>
      <g id="Group_14074" data-name="Group 14074" transform="translate(7.441 114.414)">
        <path id="Path_14715" data-name="Path 14715" d="M299.593,368.957a.518.518,0,0,1-.458-.274,29.481,29.481,0,0,0-4.562-5.954,64.9,64.9,0,0,0-8.657-7.832,48.794,48.794,0,0,0-4.541-3.015c-.026-.015-.074-.046-.137-.089a3.059,3.059,0,0,0-.768-.439.519.519,0,1,1,.108-1.031,3.1,3.1,0,0,1,1.239.611l.088.058a49.554,49.554,0,0,1,4.634,3.079,65.814,65.814,0,0,1,8.8,7.956,30.341,30.341,0,0,1,4.713,6.167.519.519,0,0,1-.456.765Z" transform="translate(-280.007 -350.319)" fill="#dbecff"/>
      </g>
      <g id="Group_14075" data-name="Group 14075" transform="translate(6.401 136.516)">
        <path id="Path_14716" data-name="Path 14716" d="M298.915,402.571a84.531,84.531,0,0,1-11.225-.841,58.373,58.373,0,0,1-6.484-1.185c-.781-.194-1.527-.451-2.249-.7l-.119-.04a1.219,1.219,0,0,0-.182-.036c-.252-.041-.918-.151-.912-.787a.567.567,0,0,1,.173-.394.741.741,0,0,1,.568-.159.523.523,0,0,1,.453.337,1.842,1.842,0,0,1,.239.059l.118.04c.733.252,1.426.491,2.163.674a57.179,57.179,0,0,0,6.371,1.163,72.737,72.737,0,0,0,14.924.7,19.679,19.679,0,0,0,2.258-.345c.543-.1,1.082-.207,1.611-.277a.511.511,0,0,1,.583.446.518.518,0,0,1-.446.582c-.51.068-1.029.167-1.552.268a20.773,20.773,0,0,1-2.378.361Q300.955,402.571,298.915,402.571Z" transform="translate(-277.743 -398.424)" fill="#dbecff"/>
      </g>
      <g id="Group_14076" data-name="Group 14076" transform="translate(10.691 141.843)">
        <path id="Path_14717" data-name="Path 14717" d="M296.589,423.3c-.726,0-1.462-.008-2.2-.028a33.084,33.084,0,0,1-3.306-.211q-.575-.072-1.149-.149l-.308-.041c-.262-.034-.523-.068-.781-.118a2.832,2.832,0,0,1-.453-.137l-.166-.058c-.753-.246-1.137-.616-1.141-1.1,0-.262-.008-1.057,2.706-1.99.218-.074.436-.145.656-.216.237-.076.474-.152.708-.234.317-.111.628-.24.94-.369l.363-.148c.351-.143.7-.285,1.05-.438l1.529-.669a90.12,90.12,0,0,0,14.3-7.285.518.518,0,1,1,.579.859,90.916,90.916,0,0,1-14.467,7.377l-1.527.668c-.357.157-.717.3-1.077.45l-.357.145c-.329.136-.658.272-.993.389-.243.085-.488.164-.732.243-.213.068-.426.136-.637.209a5.975,5.975,0,0,0-1.947.967,1.828,1.828,0,0,0,.366.155c.068.022.136.047.206.073a1.862,1.862,0,0,0,.289.092c.238.046.477.077.718.108l.317.042q.567.077,1.138.148a32.074,32.074,0,0,0,3.2.2c2.191.057,4.336.013,6.328-.041a75.438,75.438,0,0,0,8.9-.892.519.519,0,1,1,.148,1.027,76.4,76.4,0,0,1-9.023.9C299.435,423.269,298.031,423.3,296.589,423.3Z" transform="translate(-287.081 -410.02)" fill="#dbecff"/>
      </g>
    </g>
    <g id="Group_14078" data-name="Group 14078" transform="translate(0 24.942)">
      <path id="Path_14718" data-name="Path 14718" d="M264.929,101.686c-2.92-6.969-4.866-2.135-5.363-.228a5.992,5.992,0,0,0,1.39,4.83,11.934,11.934,0,0,0,1.533,1.916,10.8,10.8,0,0,1,2.683,2.3c.4.6.818,3.955,2.528,7.862a53.954,53.954,0,0,0,5.48,8.686l.275,4.353s.186,4.612.1,5.431c-.169,1.527-10.544,3.253-11.386,3.346s.406,7.991,7.607,17.387c2.4,3.126,9.406,9.951,15.46,10.956,1.945.323,10.117-6.956,10.893-7.991.643-.858,2.031-17.257,1.861-19.292a6.382,6.382,0,0,0-.153-2.147c-.328-.657-2.06-1.177-2.509-1.536-.431-.346-.4-5.657-.256-7.28.107-1.177,5.924-4.91,5.985-16.159.017-3.182-1.824-17.366-2.689-20.251-1.262-4.207-4.668-7.86-7.895-10.886-2.617-2.452-6.212-2.776-9.659-2.683a24.68,24.68,0,0,0-7.436,1.15c-6.371,2.3-9.492,9.336-9.275,15.637.055,1.58-.072,4.15.613,5.519Z" transform="translate(-176.39 -80.288)" fill="#c6e8d1" fill-rule="evenodd"/>
      <path id="Path_14719" data-name="Path 14719" d="M124.384,316.4c.028.205.049.159-.188-.252s-.469-.843-.713-1.258c-.677-1.146-1.439-2.255-2.1-3.4-.574-.993-.572-1.055-1.176-2.014a31.06,31.06,0,0,0-1.761-2.727c-.233-.3-.466-.841-.8-1.007a3.181,3.181,0,0,0-1.552,0,15.339,15.339,0,0,1-3.566-.251,27.588,27.588,0,0,0-6.21-.21,9.382,9.382,0,0,1-2.56.168c-1.992-.4-3.8-1.22-5.832-1.51-3.917-.56-7.8.915-11.622-.126a21.633,21.633,0,0,0-5.664-.839c-.492,0-1.838.08-1.972-.587-.1-.52.672-.927,1.007-1.133a5.628,5.628,0,0,1,2.908-.771c.231,0,1.623.046,1.623-.153,0-.358-1.556-1.354-2.936-2.181-.28-.168-1.13-.471-.966-.965.242-.727,1.261-.673,1.846-.713a8.923,8.923,0,0,1,5.748,2.181c.522.4.964.88,1.51,1.259.035.024.057-.123-.1-1.881s-.438-3.807-.7-5.755c-.07-.535-.723-3.315.439-3.315.628,0,1.725,2.182,1.936,2.509,2.114,3.28,2.475,6.706,3.037,7.518.165.239,1.317-.21,1.595-.251.22-.033,1.163.218,1.259.041.417-.765-.037-1.8-.21-2.559-.334-1.472-.527-3.151-.756-4.657a3.5,3.5,0,0,1,.168-2.266c.109-.17.366.188.5.335,2.913,3.112,1.962,4.187,3.09,5.766.1.144.643,1.143.728,1.2.192.128.944.618,1.193.447a26.882,26.882,0,0,1,2.027-1.966,5.486,5.486,0,0,0,1.186-1.207,4.1,4.1,0,0,1-.419-.21c-.524-.288-1.089-.6-1.595-.923a9.553,9.553,0,0,1-2.811-2.559c-.249-.382-.482-1.289.084-1.553.539-.252,1.84.214,2.308.294,1.542.262,3.107.41,4.657.545,1.59.138,3.231.084,4.825.084a8.213,8.213,0,0,1,2.517.126,11.49,11.49,0,0,1,2.549,1.772c.824.825,2.356,2.944,3.219,3.725a21.423,21.423,0,0,1,3.527,3.76,6.108,6.108,0,0,1,1.364,3.163,57.841,57.841,0,0,1,.671,7.678c0,1.7.043,3.381-.042,5.077a5.149,5.149,0,0,1-.5,2.35C124.73,317.842,124.374,316.325,124.384,316.4Z" transform="translate(-78.662 -192.866)" fill="#c6e8d1" fill-rule="evenodd"/>
      <path id="Path_14720" data-name="Path 14720" d="M448.879,312.009c.581-.99.58-1.051,1.191-2.006a30.786,30.786,0,0,1,1.786-2.716c.236-.3.472-.839.807-1a3.277,3.277,0,0,1,1.573,0,15.807,15.807,0,0,0,3.615-.25,28.475,28.475,0,0,1,6.293-.209,9.665,9.665,0,0,0,2.594.167c2.019-.4,3.846-1.214,5.909-1.5,3.971-.558,7.91.911,11.779-.125a22.256,22.256,0,0,1,5.74-.836c.5,0,1.863.079,2-.585.1-.517-.681-.923-1.021-1.129a5.791,5.791,0,0,0-2.947-.767c-.233,0-1.646.045-1.646-.152,0-.357,1.577-1.349,2.977-2.173.283-.167,1.144-.469.978-.961-.245-.724-1.277-.67-1.87-.71a9.144,9.144,0,0,0-5.826,2.173c-.529.4-.976.876-1.531,1.253-.035.024-.057-.122.1-1.873s.444-3.791.7-5.732c.072-.532.733-3.3-.444-3.3-.637,0-1.75,2.174-1.963,2.5-2.142,3.267-2.508,6.679-3.078,7.488-.167.238-1.334-.21-1.616-.251-.223-.033-1.178.217-1.276.041-.423-.762.038-1.793.213-2.549.339-1.465.534-3.137.766-4.638a3.426,3.426,0,0,0-.17-2.257c-.11-.17-.371.188-.51.335-2.953,3.1-1.989,4.169-3.132,5.743-.1.143-.652,1.137-.738,1.194-.194.127-.956.616-1.209.445a26.919,26.919,0,0,0-2.055-1.958,5.55,5.55,0,0,1-1.2-1.2,4.272,4.272,0,0,0,.425-.209c.531-.287,1.1-.6,1.615-.919a9.63,9.63,0,0,0,2.849-2.549c.253-.38.488-1.284-.085-1.547-.547-.25-1.864.214-2.339.292-1.564.261-3.148.409-4.719.544-1.611.137-3.275.083-4.89.083a8.5,8.5,0,0,0-2.552.125,11.683,11.683,0,0,0-2.582,1.765c-.836.821-2.388,2.932-3.262,3.71a21.446,21.446,0,0,0-3.573,3.744,6.01,6.01,0,0,0-1.382,3.149,56.568,56.568,0,0,0-.68,7.647c0,1.69-.044,3.368.042,5.056.035.695-.3,2.527.105,3.128C445.084,319.123,448.21,313.148,448.879,312.009Z" transform="translate(-276.389 -193.197)" fill="#c6e8d1" fill-rule="evenodd"/>
    </g>
    <g id="Group_14079" data-name="Group 14079" transform="translate(40.918 84.668)">
      <path id="Path_14721" data-name="Path 14721" d="M213.119,210.418c-.14,1.24-1.2,4.111-.239,11.548,1.923,14.911,5.674,17.648,5.99,19.228a17.752,17.752,0,0,1-.091,5.045c-.541,4.334-.557,65.172-.837,72.734,0,.005-21.742.1-21.707.015,1.66-3.79,3.043-6.959,3.2-7.6,1.684-6.734,2.458-11.252,3.245-14.136.342-1.256,4.733-15.48,4.132-16.681a43.49,43.49,0,0,0-1.832-4.01c-.136-.238-2.718,6.333-3.71,8.235-2.685,5.15-3.408,6.491-6.27,11.5-.642,1.124-3.242,4.236-3.79,4.291-3.7.369-7.255-5.348-10.065-8.728s-3.672-4.639-6.082-7.43a23.3,23.3,0,0,1-4.439-6.363,27.426,27.426,0,0,1-1.148-5.89,17.55,17.55,0,0,1-.45-1.892c.081-.326.264-1.18.45-.9.942,1.412,1.725,2.994,2.7,4.414.161.234.182.811.451.721.366-.122.519-1.558.54-1.711.222-1.557.352-3.2.45-4.775a22.367,22.367,0,0,0-2.522-11.622c-.805-1.342-1.8-2.609-2.613-3.964-.223-.372-.961-.721-.721-1.081.179-.269.619.2.9.36a27.769,27.769,0,0,1,4.5,4.08c3.91,3.91,12.29,13.26,13.072,14.211.2.246.41.708.721.63.409-.1.05-.842.09-1.261.1-1.05.17-2.1.271-3.153.547-5.749.884-11.449,1.351-17.209a161.1,161.1,0,0,1,2.613-17.659,60.416,60.416,0,0,1,3.472-11.418c2.686-5.371,12.518-8.846,16.442-9.45C212.237,210.331,213.149,210.159,213.119,210.418Z" transform="translate(-167.723 -210.285)" fill="#7ccb94" fill-rule="evenodd"/>
      <path id="Path_14722" data-name="Path 14722" d="M215.943,350.883h0Z" transform="translate(-193.789 -286.287)" fill="#7ccb94" fill-rule="evenodd"/>
      <path id="Path_14723" data-name="Path 14723" d="M351.374,211.9c.135,1.221.169,3.725-.748,11.048-1.839,14.683-8,16.988-8.612,18.963-1.176,3.823.354,47.647.08,53.857-.3,6.887.3,16.448.619,23.766,0,.073,24.947.21,24.823-.029-5.7-11.1-11.722-37.871-11.148-39.054a38.522,38.522,0,0,1,1.632-4.022c.13-.233,2.752,6.512,3.7,8.384,2.568,5.071,3.258,6.391,6,11.324.614,1.107,3.1,4.172,3.623,4.225,3.535.364,6.937-5.267,9.623-8.593s3.511-4.568,5.815-7.317c.913-1.088,2.633-3.413,4.11-5.579a29.943,29.943,0,0,0,2.554-4.222,26.857,26.857,0,0,0,1.3-7.333c-.9,1.391-4.6,7.66-5.53,9.06-.154.23-.7-3.7-.792-5.25-.212-3.494,1.529-11.36,3.333-14.458.769-1.321,2.711-3.557,1.6-2.891-1.89,1.134-5.618,5.3-6.722,6.432-3.738,3.851-9.5,10.539-10.245,11.474-.193.243-.684-.73-.979-.807-.391-.1-.048-.828-.086-1.241-.1-1.034-.163-2.071-.259-3.105-.524-5.661-.845-11.273-1.292-16.945a162.876,162.876,0,0,0-2.5-17.389,60.871,60.871,0,0,0-3.319-11.244C364.706,214.266,351.24,210.679,351.374,211.9Z" transform="translate(-261.694 -211.031)" fill="#7ccb94" fill-rule="evenodd"/>
    </g>
    <g id="Group_14083" data-name="Group 14083" transform="translate(95.856 82.288)">
      <g id="Group_14080" data-name="Group 14080" transform="translate(0 0)">
        <path id="Path_14724" data-name="Path 14724" d="M298.083,222.424a.217.217,0,0,1-.126-.04c-3.483-2.5-10.222-11.208-10.658-17.045a.216.216,0,0,1,.2-.232.213.213,0,0,1,.231.2c.428,5.719,7.053,14.27,10.479,16.726a.216.216,0,0,1-.126.392Z" transform="translate(-287.299 -205.105)" fill="#1aa1d5"/>
      </g>
      <g id="Group_14081" data-name="Group 14081" transform="translate(13.315 0.438)">
        <path id="Path_14725" data-name="Path 14725" d="M316.5,223.116a.216.216,0,0,1-.088-.413c6.447-2.883,10.013-15.3,10.013-16.428a.216.216,0,1,1,.432,0c0,1.159-3.657,13.866-10.269,16.823A.226.226,0,0,1,316.5,223.116Z" transform="translate(-316.279 -206.058)" fill="#1aa1d5"/>
      </g>
      <g id="Group_14082" data-name="Group 14082" transform="translate(10.047 16.429)">
        <path id="Path_14726" data-name="Path 14726" d="M311.267,246.311c-1.158,0-2.1-1.221-2.1-2.723s.942-2.724,2.1-2.724,2.1,1.223,2.1,2.724S312.425,246.311,311.267,246.311Zm0-5.015c-.92,0-1.668,1.028-1.668,2.292s.748,2.291,1.668,2.291,1.669-1.027,1.669-2.291S312.187,241.3,311.267,241.3Z" transform="translate(-309.167 -240.864)" fill="#1aa1d5"/>
      </g>
    </g>
    <g id="Group_14086" data-name="Group 14086" transform="translate(81.823 14.833)">
      <path id="Path_14727" data-name="Path 14727" d="M256.76,94.073c.063,7.154.679-7.571,3.059-8.823s2.794,2.784,2.794,2.784a25.278,25.278,0,0,1,7.807-6.066c7.034-3.268,16.765-5.387,19.256-6.9,1.385-.843,3.156-1.536,4.479-.709,5.08,3.175,5.4,12.074,5.206,11.684-.067-.133,2.936,17.314,0,35.778a295.593,295.593,0,0,0-3,33.181s2.823,1.241,5.232,2.293c2.382,1.039,3.434.857,3.464.648.185-1.332.387-4.629.56-7.538.187-3.161.339-5.865.394-5.09.17,2.4-.223,12.9-.223,12.9a6.458,6.458,0,0,0,1.716,1.367.964.964,0,0,0,1.118-.313s.515-15.878.5-15.258c-.063,3.146.381,15.094.381,15.094a8.955,8.955,0,0,0,1.848,1.184,3.243,3.243,0,0,0,1.583.247s-1.33-27.466-1.33-32.508c0-4.589-1.847-33.657-2.6-39.418-.962-7.374-4.945-23.795-15.82-28.374-10.584-4.457-23.718-.467-28.42,3.994S256.62,78.09,256.76,94.073Z" transform="translate(-256.756 -58.286)" fill="#61bee2" fill-rule="evenodd"/>
      <g id="Group_14084" data-name="Group 14084" transform="translate(7.993 3.641)">
        <path id="Path_14728" data-name="Path 14728" d="M274.672,87.913a.519.519,0,0,1-.453-.77c3.806-6.879,11.58-10.924,17.827-14.174.894-.465,1.641-.893,2.423-1.387,2.9-1.829,4.338-3.455,4.282-4.831a.518.518,0,0,1,.5-.539h.021a.519.519,0,0,1,.518.5c.108,2.674-3.56,4.99-4.765,5.751-.807.51-1.577.951-2.5,1.43-6.124,3.186-13.745,7.15-17.4,13.756A.519.519,0,0,1,274.672,87.913Z" transform="translate(-274.153 -66.211)" fill="#63d4dd"/>
      </g>
      <g id="Group_14085" data-name="Group 14085" transform="translate(6.2 9.591)">
        <path id="Path_14729" data-name="Path 14729" d="M270.769,93.827a.521.521,0,0,1-.515-.578c.793-6.948,7.392-12.1,10.192-14a.519.519,0,1,1,.581.859c-2.681,1.814-9,6.737-9.743,13.257A.518.518,0,0,1,270.769,93.827Z" transform="translate(-270.25 -79.162)" fill="#63d4dd"/>
      </g>
    </g>
    <g id="Group_14092" data-name="Group 14092" transform="translate(83.836 19.635)">
      <g id="Group_14087" data-name="Group 14087" transform="translate(3.71 1.936)">
        <path id="Path_14730" data-name="Path 14730" d="M269.73,96.171a.519.519,0,0,1-.394-.856c5.5-6.426,12.89-8.286,18.826-9.78,7.475-1.882,12.875-3.241,11.581-11.989a.519.519,0,1,1,1.026-.152c1.431,9.675-4.957,11.284-12.354,13.146-6.094,1.535-13,3.274-18.29,9.449A.518.518,0,0,1,269.73,96.171Z" transform="translate(-269.212 -72.951)" fill="#63d4dd"/>
      </g>
      <g id="Group_14088" data-name="Group 14088" transform="translate(2.087)">
        <path id="Path_14731" data-name="Path 14731" d="M266.2,91.042l-.046,0a.519.519,0,0,1-.472-.561c.039-.444.071-.9.1-1.368.379-5.317.851-11.934,10.727-20.252a.519.519,0,0,1,.668.793c-9.541,8.035-10,14.41-10.362,19.532-.034.473-.067.934-.105,1.384A.519.519,0,0,1,266.2,91.042Z" transform="translate(-265.679 -68.737)" fill="#63d4dd"/>
      </g>
      <g id="Group_14089" data-name="Group 14089" transform="translate(0 33.515)">
        <path id="Path_14732" data-name="Path 14732" d="M261.656,172.85a.527.527,0,0,1-.084-.007.518.518,0,0,1-.428-.6,134.832,134.832,0,0,0,.939-30,.518.518,0,1,1,1.033-.085,132.973,132.973,0,0,1-.949,30.256A.518.518,0,0,1,261.656,172.85Z" transform="translate(-261.137 -141.684)" fill="#63d4dd"/>
      </g>
      <g id="Group_14090" data-name="Group 14090" transform="translate(37.63 9.428)">
        <path id="Path_14733" data-name="Path 14733" d="M350.225,157.836h-.03a.518.518,0,0,1-.488-.547,278.429,278.429,0,0,0-.733-41.988c-.138-1.454-.248-2.934-.358-4.423-.375-5.081-.762-10.335-2.408-15.054a16.389,16.389,0,0,0-1.735-3.379A23.958,23.958,0,0,1,343.091,90a.519.519,0,0,1,.939-.443,23.111,23.111,0,0,0,1.325,2.343,17.394,17.394,0,0,1,1.833,3.584c1.692,4.848,2.084,10.172,2.464,15.32.109,1.482.218,2.954.356,4.4a279.538,279.538,0,0,1,.735,42.145A.518.518,0,0,1,350.225,157.836Z" transform="translate(-343.042 -89.257)" fill="#63d4dd"/>
      </g>
      <g id="Group_14091" data-name="Group 14091" transform="translate(33.108 10.296)">
        <path id="Path_14734" data-name="Path 14734" d="M337.66,172.872l-.051,0a.52.52,0,0,1-.467-.566l.368-3.766c2.821-28.794,6.332-64.628-4.181-76.529a.518.518,0,1,1,.776-.687c10.813,12.24,7.278,48.324,4.437,77.316l-.367,3.765A.519.519,0,0,1,337.66,172.872Z" transform="translate(-333.198 -91.147)" fill="#63d4dd"/>
      </g>
    </g>
  </g>
</svg>
