<svg xmlns="http://www.w3.org/2000/svg" width="18.2" height="18.192" viewBox="0 0 18.2 18.192">
  <g id="Group_6761" data-name="Group 6761" transform="translate(0.1 0.1)">
    <g id="Group_6547" data-name="Group 6547">
      <g id="Group_6536" data-name="Group 6536" transform="translate(7.624 6.11) rotate(8)">
        <g id="Group_6526" data-name="Group 6526" transform="translate(0 0)">
          <path id="Path_6219" data-name="Path 6219" d="M3.6,4.519A.359.359,0,0,0,3.28,4.2l-.034,0-1.973.319-.034-.212c-.05-.308.294-.643.691-1.03.55-.536,1.235-1.2,1.093-2.082A1.42,1.42,0,0,0,1.556,0a1.794,1.794,0,0,0-.285.023,1.361,1.361,0,0,0-1.255,1.5c.043.266.167.4.369.4A.536.536,0,0,0,.47,1.921c.272-.044.408-.236.382-.4a.618.618,0,0,1,.109-.509A.685.685,0,0,1,1.395.79.916.916,0,0,1,1.541.778.655.655,0,0,1,2.2,1.35c.081.5-.383.967-.874,1.464S.294,3.856.389,4.445L.5,5.112a.343.343,0,0,0,.357.235.4.4,0,0,0,.063,0l2.449-.4A.363.363,0,0,0,3.6,4.519Z" stroke="#000" stroke-width="0.2"/>
        </g>
      </g>
      <g id="Group_6537" data-name="Group 6537" transform="matrix(0.966, -0.259, 0.259, 0.966, 2.584, 7.073)">
        <g id="Group_6524" data-name="Group 6524" transform="translate(0 0)">
          <path id="Path_6218" data-name="Path 6218" d="M1.822.014A.337.337,0,0,0,1.728,0a.3.3,0,0,0-.145.039L.7.5A.414.414,0,0,0,.447.77a.389.389,0,0,0,.012.249.279.279,0,0,0,.179.171A.232.232,0,0,0,.7,1.2a.3.3,0,0,0,.142-.037h0l.2-.145L.01,4.6c-.056.194.127.343.321.4A.623.623,0,0,0,.5,5.023a.3.3,0,0,0,.314-.191L2.1.4C2.154.228,2,.065,1.822.014Z" stroke="#000" stroke-width="0.2"/>
        </g>
      </g>
      <g id="Group_6538" data-name="Group 6538" transform="translate(12.129 6.11)">
        <g id="Group_6528" data-name="Group 6528" transform="translate(0 0)">
          <path id="Path_6220" data-name="Path 6220" d="M358.961,332.351a1.337,1.337,0,0,0,.495-1.158c0-.856-.488-1.291-1.451-1.291-1.195,0-1.514.772-1.514,1.228,0,.308.093.392.434.392.265,0,.4-.118.4-.35s.117-.521.674-.521c.447,0,.646.206.646.667,0,.594-.27.716-.674.716-.177,0-.287.134-.287.35s.11.343.287.343c.538,0,.8.232.8.709v.132c0,.57-.237.814-.793.814-.533,0-.772-.279-.772-.556,0-.237-.122-.329-.434-.329-.286,0-.392.1-.392.364a1.2,1.2,0,0,0,.378.856,1.714,1.714,0,0,0,1.212.421,1.449,1.449,0,0,0,1.639-1.57v-.132A1.117,1.117,0,0,0,358.961,332.351Z" transform="translate(-356.379 -329.903)" stroke="#000" stroke-width="0.2"/>
        </g>
      </g>
      <g id="interface_5_" data-name="interface (5)" transform="translate(0 0)">
        <g id="Group_6546" data-name="Group 6546">
          <g id="Group_6545" data-name="Group 6545" transform="translate(0 0)">
            <path id="Path_6227" data-name="Path 6227" d="M15.236.106H2.772A2.764,2.764,0,0,0,0,2.862v12.48A2.764,2.764,0,0,0,2.772,18.1H15.228A2.764,2.764,0,0,0,18,15.342h0V2.869A2.764,2.764,0,0,0,15.236.106Zm1.972,2.764V15.334a1.972,1.972,0,0,1-1.98,1.964H2.772a1.972,1.972,0,0,1-1.98-1.964h0V2.869A1.972,1.972,0,0,1,2.772.906H15.228a1.972,1.972,0,0,1,1.98,1.964Z" transform="translate(0 -0.106)" stroke="#000" stroke-width="0.2"/>
          </g>
        </g>
      </g>
    </g>
  </g>
</svg>
