<svg xmlns="http://www.w3.org/2000/svg" width="17.773" height="17" viewBox="0 0 17.773 17">
  <g id="Group_4255" data-name="Group 4255" transform="translate(-896 -463.999)">
    <path id="Path_949" data-name="Path 949" d="M527.4,301.9H511.173a.73.73,0,0,0-.773.773v15.455a.73.73,0,0,0,.773.773H527.4a.73.73,0,0,0,.773-.773V302.673C528.018,302.209,527.709,301.9,527.4,301.9Z" transform="translate(385.6 162.099)" fill="#a3a3a3"/>
    <path id="Path_6571" data-name="Path 6571" d="M7.54,1.547V3.009H.982V1.547H3.576V-5.578a2.314,2.314,0,0,1-.512.466,5.549,5.549,0,0,1-.776.457A6.565,6.565,0,0,1,1.4-4.3a2.685,2.685,0,0,1-.8.146V-5.687a2.16,2.16,0,0,0,.9-.228,6.783,6.783,0,0,0,.941-.53A7.371,7.371,0,0,0,3.2-7.03a1.892,1.892,0,0,0,.375-.393H5.22v8.97Z" transform="translate(901.585 474.514)" fill="#717171" stroke="rgba(0,0,0,0)" stroke-width="1"/>
  </g>
</svg>
