<?xml version="1.0" encoding="utf-8"?>
<!-- Generator: Adobe Illustrator 23.0.0, SVG Export Plug-In . SVG Version: 6.00 Build 0)  -->
<svg version="1.1" id="Layer_1" xmlns="http://www.w3.org/2000/svg" xmlns:xlink="http://www.w3.org/1999/xlink" x="0px" y="0px"
	 viewBox="0 0 17.8 17" style="enable-background:new 0 0 17.8 17;" xml:space="preserve">
<style type="text/css">
	.st0{fill:#283279;}
	.st1{fill:#FFFFFF;}
</style>
<g id="Group_4255" transform="translate(-896 -463.999)">
	<path id="Path_949" class="st0" d="M913,464h-16.2c-0.4,0-0.7,0.3-0.8,0.7c0,0,0,0.1,0,0.1v15.5c0,0.4,0.3,0.7,0.7,0.8
		c0,0,0.1,0,0.1,0H913c0.4,0,0.7-0.3,0.8-0.7c0,0,0-0.1,0-0.1v-15.5C913.6,464.3,913.3,464,913,464z"/>
	<path id="Path_6571" class="st1" d="M909.1,476.1v1.5h-6.6v-1.5h2.6v-7.1c-0.1,0.2-0.3,0.3-0.5,0.5c-0.2,0.2-0.5,0.3-0.8,0.5
		c-0.3,0.1-0.6,0.3-0.9,0.4c-0.3,0.1-0.5,0.1-0.8,0.1v-1.5c0.3,0,0.6-0.1,0.9-0.2c0.3-0.2,0.6-0.3,0.9-0.5c0.3-0.2,0.5-0.4,0.8-0.6
		c0.1-0.1,0.3-0.2,0.4-0.4h1.6v9H909.1z"/>
</g>
</svg>
