<svg xmlns="http://www.w3.org/2000/svg" width="10.72" height="10.275" viewBox="0 0 10.72 10.275">
  <g id="outbox" transform="translate(0 -9.312)">
    <g id="Group_17514" data-name="Group 17514" transform="translate(0 9.312)">
      <g id="Group_17513" data-name="Group 17513" transform="translate(0 0)">
        <path id="Path_14767" data-name="Path 14767" d="M143.672,11.448l1.271-1.284v4.6a.249.249,0,0,0,.5,0v-4.6l1.271,1.284a.274.274,0,0,0,.349,0,.262.262,0,0,0,0-.361l-1.7-1.708a.262.262,0,0,0-.349,0l-1.7,1.708a.251.251,0,0,0,.349.362Z" transform="translate(-139.833 -9.312)" fill="#fff"/>
        <path id="Path_14768" data-name="Path 14768" d="M10.682,124.5l-1.4-3.041a.274.274,0,0,0-.237-.162h-1.2a.249.249,0,1,0,0,.5H8.887l1.159,2.618H8.626a1.633,1.633,0,0,0-1.5.96,1.159,1.159,0,0,1-1.047.661H4.637a1.159,1.159,0,0,1-1.047-.661,1.633,1.633,0,0,0-1.5-.96H.7L2.069,121.8h.8a.249.249,0,1,0,0-.5H1.92a.274.274,0,0,0-.224.15L.05,124.477A.262.262,0,0,0,0,124.6v3.116A1.231,1.231,0,0,0,1.284,128.9H9.436a1.231,1.231,0,0,0,1.284-1.184V124.6A.512.512,0,0,0,10.682,124.5Z" transform="translate(0 -118.626)" fill="#fff"/>
      </g>
    </g>
  </g>
</svg>
