<svg xmlns="http://www.w3.org/2000/svg" width="18.793" height="13.623" viewBox="0 0 18.793 13.623">
  <g id="Group_53744" data-name="Group 53744" transform="translate(0 -37.486)">
    <path id="Path_44181" data-name="Path 44181" d="M13.327,84.751a.7.7,0,0,0-.185.026l-.7.193L11.713,83.2a1.59,1.59,0,0,0-1.36-.912H3.537a1.589,1.589,0,0,0-1.36.912L1.45,84.968l-.693-.191a.7.7,0,0,0-.185-.026.568.568,0,0,0-.572.6v.413a.74.74,0,0,0,.739.739H.818L.7,86.792a5.541,5.541,0,0,0-.348,1.763v3.525a.74.74,0,0,0,.739.739h.965a.74.74,0,0,0,.739-.739V91.2h8.3v.88a.74.74,0,0,0,.739.739H12.8a.74.74,0,0,0,.739-.739V88.554a5.541,5.541,0,0,0-.348-1.762l-.118-.286h.089a.74.74,0,0,0,.739-.739v-.413A.568.568,0,0,0,13.327,84.751ZM1.979,86.1l1.1-2.684a.955.955,0,0,1,.815-.547h6.1a.955.955,0,0,1,.815.547l1.1,2.684a.369.369,0,0,1-.367.547h-9.2A.369.369,0,0,1,1.979,86.1ZM4.439,89.5a.3.3,0,0,1-.3.3H2.05a.3.3,0,0,1-.3-.3v-1a.3.3,0,0,1,.3-.3H4.143a.3.3,0,0,1,.3.3Zm7.677,0a.3.3,0,0,1-.3.3H9.727a.3.3,0,0,1-.3-.3v-1a.3.3,0,0,1,.3-.3H11.82a.3.3,0,0,1,.3.3Z" transform="translate(0 -41.709)" fill="#e27707"/>
    <g id="Group_53743" data-name="Group 53743" transform="translate(13.447 37.486)">
      <path id="Path_44182" data-name="Path 44182" d="M199.415,37.486h-3.5a.925.925,0,0,0-.924.924v3.5a.925.925,0,0,0,.924.924h1.4v7.853a.345.345,0,1,0,.69,0V42.833h1.4a.925.925,0,0,0,.924-.924v-3.5A.925.925,0,0,0,199.415,37.486Zm-.792,2.9a1.281,1.281,0,0,1-.881.273h-.507a.111.111,0,0,0-.11.11v.854a.168.168,0,0,1-.168.168h-.384a.168.168,0,0,1-.168-.168v-2.93a.169.169,0,0,1,.168-.168h.967a1.479,1.479,0,0,1,1.076.263,1,1,0,0,1,.312.8A1.023,1.023,0,0,1,198.622,40.387Z" transform="translate(-194.992 -37.486)" fill="#e27707"/>
      <path id="Path_44183" data-name="Path 44183" d="M226.862,61.387a.848.848,0,0,0-.492-.106h-.347a.11.11,0,0,0-.11.11v.7a.11.11,0,0,0,.11.11h.208c.076,0,.2-.006.275-.013a.943.943,0,0,0,.355-.094.528.528,0,0,0,0-.71Z" transform="translate(-223.781 -59.64)" fill="#e27707"/>
    </g>
  </g>
</svg>
