<svg xmlns="http://www.w3.org/2000/svg" xmlns:xlink="http://www.w3.org/1999/xlink" width="90.901" height="91" viewBox="0 0 90.901 91">
  <defs>
    <linearGradient id="linear-gradient" x1="0.103" y1="0.198" x2="0.873" y2="0.829" gradientUnits="objectBoundingBox">
      <stop offset="0" stop-color="#fb3535"/>
      <stop offset="1" stop-color="#2866a0"/>
    </linearGradient>
  </defs>
  <g id="Group_14098" data-name="Group 14098" transform="translate(-987.059 -603.422)">
    <path id="Path_14736" data-name="Path 14736" d="M986.573,648.971a45.45,45.45,0,1,0,45.45-45.45A45.45,45.45,0,0,0,986.573,648.971Z" transform="translate(0.486 -0.099)" fill="url(#linear-gradient)"/>
    <path id="Path_14738" data-name="Path 14738" d="M1135.787,603.521c10.808,0,19.569,20.348,19.569,45.45s-8.76,45.45-19.569,45.451a45.45,45.45,0,0,0,0-90.9Z" transform="translate(-103.764)" fill="#dfdfdf" opacity="0.57" style="mix-blend-mode: color-burn;isolation: isolate"/>
    <path id="Path_14741" data-name="Path 14741" d="M16.611-4.862a2,2,0,0,1,1.436.558,1.866,1.866,0,0,1,.585,1.409,1.866,1.866,0,0,1-.585,1.409,2,2,0,0,1-1.436.558H7.624V8.061A2,2,0,0,1,7.065,9.5a1.866,1.866,0,0,1-1.409.585A1.866,1.866,0,0,1,4.247,9.5a2,2,0,0,1-.558-1.436V-.926H-5.3a1.952,1.952,0,0,1-1.436-.585A1.891,1.891,0,0,1-7.32-2.894,1.866,1.866,0,0,1-6.735-4.3,2,2,0,0,1-5.3-4.862H3.688v-8.988a2,2,0,0,1,.558-1.436,1.866,1.866,0,0,1,1.409-.585,1.866,1.866,0,0,1,1.409.585,2,2,0,0,1,.558,1.436v8.988Z" transform="translate(1030.457 654.819) rotate(-45)" fill="#fff"/>
  </g>
</svg>
