<svg id="Wallet_Gray" data-name="Wallet Gray" xmlns="http://www.w3.org/2000/svg" width="17" height="17" viewBox="0 0 17 17">
  <g id="Group_2534" data-name="Group 2534">
    <g id="Group_2533" data-name="Group 2533" transform="translate(0 0)">
      <path id="Path_3845" data-name="Path 3845" d="M15.844,13.909h-2.7a3.091,3.091,0,1,1,0-6.182h2.7a.386.386,0,0,0,.386-.386V6.182a1.542,1.542,0,0,0-1.422-1.533L12.589.773a1.529,1.529,0,0,0-2.1-.565L2.884,4.637H1.548A1.547,1.547,0,0,0,0,6.182v9.273A1.547,1.547,0,0,0,1.548,17H14.685a1.547,1.547,0,0,0,1.545-1.545V14.3A.386.386,0,0,0,15.844,13.909ZM13.068,3.166l.842,1.47H10.542ZM4.42,4.637,10.88.876A.747.747,0,0,1,11.454.8a.758.758,0,0,1,.464.359h0L5.946,4.637Z" transform="translate(-0.003 0)" fill="#757575"/>
      <path id="Path_3846" data-name="Path 3846" d="M303.691,234.674h-2.7a2.317,2.317,0,1,0,0,4.635h2.7a1.16,1.16,0,0,0,1.159-1.159v-2.317A1.16,1.16,0,0,0,303.691,234.674Zm-2.7,3.09a.772.772,0,1,1,.772-.772A.773.773,0,0,1,300.987,237.764Z" transform="translate(-287.85 -226.173)" fill="#757575"/>
    </g>
  </g>
</svg>
