<svg id="Group_16607" data-name="Group 16607" xmlns="http://www.w3.org/2000/svg" width="53" height="53" viewBox="0 0 53 53">
  <rect id="Rectangle_2765" data-name="Rectangle 2765" width="53" height="53" rx="5" fill="#2866a0" opacity="0.35"/>
  <g id="pdf-file" transform="translate(17 15)">
    <path id="Path_9128" data-name="Path 9128" d="M119.658,298.024c0-.383-.266-.612-.735-.612a1.626,1.626,0,0,0-.389.037v1.23a1.471,1.471,0,0,0,.315.024C119.349,298.7,119.658,298.45,119.658,298.024Z" transform="translate(-115.003 -283.171)" fill="#fff"/>
    <path id="Path_9129" data-name="Path 9129" d="M194.23,297.681a1.941,1.941,0,0,0-.426.037v2.724a1.708,1.708,0,0,0,.328.019A1.291,1.291,0,0,0,195.54,299,1.2,1.2,0,0,0,194.23,297.681Z" transform="translate(-186.67 -283.427)" fill="#fff"/>
    <path id="Path_9130" data-name="Path 9130" d="M57.765,0H48.493a2.461,2.461,0,0,0-2.457,2.457v9.086H45.8a.99.99,0,0,0-.99.99v6a.99.99,0,0,0,.99.99h.24v1.1a2.46,2.46,0,0,0,2.457,2.457H61.145A2.46,2.46,0,0,0,63.6,20.629V5.815ZM47.4,13.617a7.761,7.761,0,0,1,1.273-.086,2,2,0,0,1,1.273.333,1.217,1.217,0,0,1,.445.964,1.331,1.331,0,0,1-.383.989,1.931,1.931,0,0,1-1.353.438,2.439,2.439,0,0,1-.321-.018v1.489H47.4Zm13.741,7.964H48.493a.953.953,0,0,1-.952-.952v-1.1H59.335a.99.99,0,0,0,.99-.99v-6a.99.99,0,0,0-.99-.99H47.542V2.457a.953.953,0,0,1,.952-.951L57.2,1.5V4.716a1.7,1.7,0,0,0,1.7,1.7l3.154-.009L62.1,20.629A.952.952,0,0,1,61.145,21.581ZM51,17.707v-4.09a8.481,8.481,0,0,1,1.273-.086,2.681,2.681,0,0,1,1.705.444,1.843,1.843,0,0,1,.7,1.57,2.111,2.111,0,0,1-.692,1.687,2.989,2.989,0,0,1-1.921.537A8.151,8.151,0,0,1,51,17.707Zm6.743-2.422v.766h-1.5v1.675H55.3V13.562h2.545v.772h-1.6v.952Z" transform="translate(-44.806)" fill="#fff"/>
  </g>
</svg>
