<svg id="picture" xmlns="http://www.w3.org/2000/svg" width="35.416" height="27.959" viewBox="0 0 35.416 27.959">
  <g id="Group_16" data-name="Group 16" transform="translate(0 0)">
    <g id="Group_15" data-name="Group 15">
      <path id="Path_26" data-name="Path 26" d="M34.026,41.178h-2.1V39.037A1.422,1.422,0,0,0,30.5,37.609H1.428A1.422,1.422,0,0,0,0,39.037V60.571A1.422,1.422,0,0,0,1.428,62h2.1V64.14a1.422,1.422,0,0,0,1.428,1.428H33.986a1.422,1.422,0,0,0,1.428-1.428V42.646A1.4,1.4,0,0,0,34.026,41.178ZM1.467,39l29.029.04V53.75l-6.5-4.521a.72.72,0,0,0-.793,0l-5.75,3.926-6.5-6.385a.725.725,0,0,0-.952-.04l-8.566,7.1ZM1.388,60.571V55.653l9-7.456,6.464,6.345a.72.72,0,0,0,.912.079l5.83-3.966,6.9,4.8v5.116a.039.039,0,0,1-.04.04Zm32.638,3.648L4.957,64.18V62.038H30.5a1.422,1.422,0,0,0,1.428-1.428v-18l2.141.04Z" transform="translate(0 -37.609)" fill="#a3a3a3"/>
    </g>
  </g>
  <g id="Group_18" data-name="Group 18" transform="translate(18.798 3.609)">
    <g id="Group_17" data-name="Group 17">
      <path id="Path_27" data-name="Path 27" d="M192.733,74.009a3.133,3.133,0,1,0,3.133,3.133A3.14,3.14,0,0,0,192.733,74.009Zm0,4.878a1.745,1.745,0,1,1,1.745-1.745A1.76,1.76,0,0,1,192.733,78.887Z" transform="translate(-189.6 -74.009)" fill="#a3a3a3"/>
    </g>
  </g>
</svg>
