<svg xmlns="http://www.w3.org/2000/svg" width="7.46" height="11" viewBox="0 0 7.46 11">
  <g id="pin_1_" data-name="pin (1)" opacity="0.68">
    <path id="Path_7588" data-name="Path 7588" d="M86.909,1.883A3.674,3.674,0,0,0,83.781,0c-.056,0-.111,0-.167,0a3.674,3.674,0,0,0-3.128,1.883,3.876,3.876,0,0,0-.049,3.784l2.69,4.993,0,.007a.649.649,0,0,0,1.134,0l0-.007,2.69-4.993A3.876,3.876,0,0,0,86.909,1.883ZM83.7,4.984a1.547,1.547,0,1,1,1.526-1.547A1.538,1.538,0,0,1,83.7,4.984Z" transform="translate(-79.968 0)" fill="#15bbd2"/>
  </g>
</svg>
