<svg xmlns="http://www.w3.org/2000/svg" width="16.479" height="10.663" viewBox="0 0 16.479 10.663"><g transform="translate(-15 -21)"><path d="M23.24,31.663c-4.481,0-8-4.843-8.149-5.05a.485.485,0,0,1,0-.564c.148-.206,3.669-5.05,8.149-5.05s8,4.843,8.149,5.05a.485.485,0,0,1,0,.564C31.241,26.82,27.72,31.663,23.24,31.663ZM16.1,26.332c.806,1.008,3.744,4.362,7.143,4.362s6.338-3.355,7.143-4.362c-.806-1.008-3.744-4.362-7.143-4.362S16.9,25.324,16.1,26.332Z" transform="translate(0)"/><path d="M28.908,31.816a2.908,2.908,0,1,1,2.908-2.908A2.908,2.908,0,0,1,28.908,31.816Zm0-4.847a1.939,1.939,0,1,0,1.939,1.939A1.939,1.939,0,0,0,28.908,26.969Z" transform="translate(-5.668 -2.577)"/></g></svg>