<?xml version="1.0" encoding="utf-8"?>
<!-- Generator: Adobe Illustrator 23.0.0, SVG Export Plug-In . SVG Version: 6.00 Build 0)  -->
<svg version="1.1" id="Wallet_Gray" xmlns="http://www.w3.org/2000/svg" xmlns:xlink="http://www.w3.org/1999/xlink" x="0px"
	 y="0px" viewBox="0 0 17 17" style="enable-background:new 0 0 17 17;" xml:space="preserve">
<style type="text/css">
	.st0{fill:#A3A3A3;}
</style>
<g id="Group_2534">
	<g id="Group_2533" transform="translate(0 0)">
		<path id="Path_3845" class="st0" d="M15.8,13.9h-2.7c-1.7,0-3.1-1.4-3.1-3.1s1.4-3.1,3.1-3.1h2.7c0.2,0,0.4-0.2,0.4-0.4V6.2
			c0-0.8-0.6-1.5-1.4-1.5l-2.2-3.9c-0.4-0.7-1.4-1-2.1-0.6c0,0,0,0,0,0L2.9,4.6H1.5C0.7,4.6,0,5.3,0,6.2v9.3C0,16.3,0.7,17,1.5,17
			h13.1c0.9,0,1.5-0.7,1.5-1.5v-1.2C16.2,14.1,16.1,13.9,15.8,13.9C15.8,13.9,15.8,13.9,15.8,13.9z M13.1,3.2l0.8,1.5h-3.4L13.1,3.2
			z M4.4,4.6l6.5-3.8c0.2-0.1,0.4-0.1,0.6-0.1c0.2,0.1,0.4,0.2,0.5,0.4l0,0l-6,3.5H4.4z"/>
		<path id="Path_3846" class="st0" d="M15.8,8.5h-2.7c-1.3,0-2.3,1-2.3,2.3c0,1.3,1,2.3,2.3,2.3h2.7c0.6,0,1.2-0.5,1.2-1.2V9.7
			C17,9,16.5,8.5,15.8,8.5z M13.1,11.6c-0.4,0-0.8-0.3-0.8-0.8s0.3-0.8,0.8-0.8c0.4,0,0.8,0.3,0.8,0.8
			C13.9,11.2,13.6,11.6,13.1,11.6C13.1,11.6,13.1,11.6,13.1,11.6L13.1,11.6z"/>
	</g>
</g>
</svg>
