<svg xmlns="http://www.w3.org/2000/svg" width="30" height="31" viewBox="0 0 30 31">
  <g id="print" transform="translate(-8)">
    <path id="Path_14926" data-name="Path 14926" d="M80,2.172A2.174,2.174,0,0,0,77.828,0H58.172A2.174,2.174,0,0,0,56,2.172V7.5H80Z" transform="translate(-45)" fill="#a2a2a2"/>
    <path id="Path_14927" data-name="Path 14927" d="M36.828,152H9.172A1.173,1.173,0,0,0,8,153.172v11.656A1.173,1.173,0,0,0,9.172,166H13.5v-3.828A3.175,3.175,0,0,1,16.672,159H29.328a3.175,3.175,0,0,1,3.172,3.172V166h4.328A1.173,1.173,0,0,0,38,164.828V153.172A1.173,1.173,0,0,0,36.828,152ZM34,156.5H32.5a1,1,0,1,1,0-2H34a1,1,0,1,1,0,2ZM29.328,161H16.672a1.173,1.173,0,0,0-1.172,1.172v10.156a1.173,1.173,0,0,0,1.172,1.172H29.328a1.173,1.173,0,0,0,1.172-1.172V162.172A1.173,1.173,0,0,0,29.328,161ZM26,170.5H20a1,1,0,1,1,0-2h6a1,1,0,0,1,0,2Zm0-4.5H20a1,1,0,1,1,0-2h6a1,1,0,0,1,0,2Z" transform="translate(0 -142.5)" fill="#a2a2a2"/>
  </g>
</svg>
