<svg id="Group_1381" data-name="Group 1381" xmlns="http://www.w3.org/2000/svg" width="19.626" height="19.9" viewBox="0 0 19.626 19.9">
  <circle id="Ellipse_115" data-name="Ellipse 115" cx="0.8" cy="0.8" r="0.8" transform="translate(6.378 7.35)" fill="#15bbd2"/>
  <circle id="Ellipse_116" data-name="Ellipse 116" cx="0.8" cy="0.8" r="0.8" transform="translate(11.678 10.75)" fill="#15bbd2"/>
  <path id="Path_860" data-name="Path 860" d="M936.8,549.9l-.3-.4a1.36,1.36,0,0,1,0-1.5l.3-.4a1.288,1.288,0,0,0-.5-1.9l-.5-.2a1.343,1.343,0,0,1-.7-1.4l.1-.5a1.248,1.248,0,0,0-1.2-1.5h-.5a1.292,1.292,0,0,1-1.2-.9l-.1-.5a1.269,1.269,0,0,0-1.8-.8l-.5.2a1.4,1.4,0,0,1-1.5-.3l-.3-.4a1.335,1.335,0,0,0-2,0l-.3.4a1.237,1.237,0,0,1-1.5.3l-.5-.2a1.377,1.377,0,0,0-1.8.9l-.1.5a1.41,1.41,0,0,1-1.2,1h-.5a1.293,1.293,0,0,0-1.2,1.5l.1.5a1.538,1.538,0,0,1-.6,1.4l-.4.3a1.262,1.262,0,0,0-.4,1.9l.3.4a1.36,1.36,0,0,1,0,1.5l-.3.4a1.288,1.288,0,0,0,.5,1.9l.5.2a1.343,1.343,0,0,1,.7,1.4l-.1.5a1.248,1.248,0,0,0,1.2,1.5h.5a1.292,1.292,0,0,1,1.2.9l.1.5a1.269,1.269,0,0,0,1.8.8l.5-.2a1.4,1.4,0,0,1,1.5.3l.3.4a1.335,1.335,0,0,0,2,0l.3-.4a1.237,1.237,0,0,1,1.5-.3l.5.2a1.377,1.377,0,0,0,1.8-.9l.1-.5a1.41,1.41,0,0,1,1.2-1h.5a1.293,1.293,0,0,0,1.2-1.5l-.1-.5a1.538,1.538,0,0,1,.6-1.4l.4-.3A1.379,1.379,0,0,0,936.8,549.9Zm-14.3-2.8a2,2,0,1,1,2,2A2.006,2.006,0,0,1,922.5,547.1Zm2.4,5.2a.616.616,0,0,1-.7.1h0a.616.616,0,0,1-.1-.7l5.3-6.4a.5.5,0,0,1,.8.6Zm5,.2a2,2,0,1,1,2-2A2.006,2.006,0,0,1,929.9,552.5Z" transform="translate(-917.422 -538.95)" fill="#15bbd2"/>
</svg>
