<svg xmlns="http://www.w3.org/2000/svg" width="20.41" height="20.814" viewBox="0 0 20.41 20.814">
  <g id="bill" transform="translate(-3.918 0)">
    <path id="Path_15046" data-name="Path 15046" d="M18.226,307.6v-1.971H3.918V307.6a3.047,3.047,0,0,0,3.051,3.051H21.088A3.049,3.049,0,0,1,18.226,307.6Z" transform="translate(0 -289.839)" fill="#00c7e2"/>
    <path id="Subtraction_5" data-name="Subtraction 5" d="M3547.047,905.538h-.189a3.035,3.035,0,0,1-2.861-3.051v-1.97h-10.744V884.75l2.807,2.484,2.808-2.511,2.807,2.511,2.808-2.511,2.807,2.511,2.808-2.484v17.736a3.033,3.033,0,0,1-.891,2.16A3.075,3.075,0,0,1,3547.047,905.538Zm-9.745-10.07a.81.81,0,0,0,0,1.62h8.773a.81.81,0,1,0,0-1.62Zm0-3.779a.81.81,0,0,0,0,1.62h4.994a.81.81,0,1,0,0-1.62Z" transform="translate(-3525.771 -884.724)" fill="#2ed8ef"/>
  </g>
</svg>
