<svg xmlns="http://www.w3.org/2000/svg" width="15.944" height="20.948" viewBox="0 0 15.944 20.948">
  <g id="invoice" transform="translate(-50.526)">
    <g id="Group_17026" data-name="Group 17026" transform="translate(50.526)">
      <path id="Path_15050" data-name="Path 15050" d="M65.95.538A.877.877,0,0,0,65,.683L63.622,1.9a.1.1,0,0,1-.131,0L61.621.227a.89.89,0,0,0-1.188,0L58.564,1.9a.1.1,0,0,1-.132,0L56.564.227a.89.89,0,0,0-1.188,0L53.505,1.9a.1.1,0,0,1-.132,0L52,.683a.884.884,0,0,0-1.472.668V19.6A.886.886,0,0,0,52,20.264l1.374-1.217a.1.1,0,0,1,.131,0l1.87,1.672a.89.89,0,0,0,1.188,0l1.868-1.671a.1.1,0,0,1,.132,0l1.868,1.671a.891.891,0,0,0,1.188,0l1.87-1.672a.1.1,0,0,1,.132,0L65,20.264A.884.884,0,0,0,66.47,19.6V1.351A.877.877,0,0,0,65.95.538ZM53.8,7.107h4.931a.4.4,0,1,1,0,.792H53.8a.4.4,0,0,1,0-.792Zm9.387,6.734H53.8a.4.4,0,0,1,0-.792h9.387a.4.4,0,1,1,0,.792Zm0-2.971H53.8a.4.4,0,0,1,0-.792h9.387a.4.4,0,1,1,0,.792Z" transform="translate(-50.526)" fill="#2ed8ef"/>
    </g>
  </g>
</svg>
