<svg xmlns="http://www.w3.org/2000/svg" width="18" height="18" viewBox="0 0 18 18">
  <g id="Group_14116" data-name="Group 14116" transform="translate(-258.869 51.13)">
    <circle id="Ellipse_1" data-name="Ellipse 1" cx="9" cy="9" r="9" transform="translate(258.869 -51.13)" fill="#e5334f"/>
    <path id="Path_3807" data-name="Path 3807" d="M155.241,149.421a.3.3,0,0,0-.424,0l-2.486,2.486-2.486-2.486a.3.3,0,1,0-.424.424l2.486,2.486-2.486,2.486a.3.3,0,1,0,.424.424l2.486-2.486,2.486,2.486a.3.3,0,1,0,.424-.424l-2.486-2.486,2.486-2.486A.3.3,0,0,0,155.241,149.421Z" transform="translate(115.386 -194.613)" fill="#fff" stroke="#fff" stroke-width="0.5"/>
  </g>
</svg>
