<svg xmlns="http://www.w3.org/2000/svg" width="17.931" height="18" viewBox="0 0 17.931 18">
  <g id="search" transform="translate(0)">
    <path id="Path_3853" data-name="Path 3853" d="M17.532,15.585l-3.7-3.7a7.38,7.38,0,0,0,1.336-4.3,7.452,7.452,0,0,0-.6-2.947A7.429,7.429,0,0,0,10.534.6,7.561,7.561,0,0,0,4.639.6,7.429,7.429,0,0,0,.6,4.642a7.56,7.56,0,0,0,0,5.894,7.431,7.431,0,0,0,4.041,4.041,7.455,7.455,0,0,0,2.947.6,7.38,7.38,0,0,0,4.3-1.336l3.7,3.685a1.28,1.28,0,0,0,.97.409,1.379,1.379,0,0,0,.981-2.349ZM11,11a4.649,4.649,0,0,1-3.411,1.417A4.649,4.649,0,0,1,4.176,11a4.649,4.649,0,0,1-1.417-3.41,4.649,4.649,0,0,1,1.417-3.41,4.649,4.649,0,0,1,3.41-1.417A4.65,4.65,0,0,1,11,4.179a4.649,4.649,0,0,1,1.417,3.41A4.649,4.649,0,0,1,11,11Z" transform="translate(0 -0.003)" fill="#a3a3a3"/>
  </g>
</svg>
