<svg xmlns="http://www.w3.org/2000/svg" width="28.196" height="23.497" viewBox="0 0 28.196 23.497">
  <g id="secure-payment" transform="translate(0 -42.5)" opacity="0.63">
    <path id="Path_10675" data-name="Path 10675" d="M300.5,161.4v-.908a4.423,4.423,0,0,0-8.846,0v.908H290v5.805a6.082,6.082,0,1,0,12.163,0V161.4Zm-7.187-.908a2.764,2.764,0,0,1,5.529,0v.908h-5.529Zm2.182,8.685-2.215-2.215,1.173-1.173,1.1,1.1,2.18-1.962,1.11,1.233Z" transform="translate(-273.967 -107.292)" fill="#505050"/>
    <g id="Group_17202" data-name="Group 17202" transform="translate(0 42.5)">
      <path id="Path_10676" data-name="Path 10676" d="M90,162.5h1.935v1.659H90Z" transform="translate(-85.024 -155.866)" fill="#505050"/>
      <path id="Path_10677" data-name="Path 10677" d="M14.375,55.769H13.269V54.11h1.106V52.452h1.7a6.083,6.083,0,0,1,7.141-5.23V44.716A2.219,2.219,0,0,0,21,42.5H2.216A2.219,2.219,0,0,0,0,44.716V56.87a2.219,2.219,0,0,0,2.216,2.216H14.375Zm-7.74,0H3.317V54.11H6.634Zm.406-3.317H4.846a1.531,1.531,0,0,1-1.529-1.529V49a1.531,1.531,0,0,1,1.529-1.529H7.041A1.531,1.531,0,0,1,8.569,49v1.918A1.531,1.531,0,0,1,7.041,52.452Zm4.57,3.317H8.293V54.11H11.61Z" transform="translate(0 -42.5)" fill="#505050"/>
    </g>
  </g>
</svg>
