<svg xmlns="http://www.w3.org/2000/svg" width="28.912" height="24.093" viewBox="0 0 28.912 24.093">
  <g id="secure-payment" transform="translate(0 -42.5)">
    <path id="Path_10675" data-name="Path 10675" d="M300.771,161.538v-.931a4.535,4.535,0,1,0-9.07,0v.931H290v5.952a6.236,6.236,0,1,0,12.472,0v-5.952Zm-7.37-.931a2.835,2.835,0,0,1,5.669,0v.931H293.4Zm2.237,8.906-2.271-2.271,1.2-1.2,1.13,1.13,2.235-2.011,1.138,1.264Z" transform="translate(-273.56 -107.133)" fill="#505050"/>
    <g id="Group_17202" data-name="Group 17202" transform="translate(0 42.5)">
      <path id="Path_10676" data-name="Path 10676" d="M90,162.5h1.984v1.7H90Z" transform="translate(-84.898 -155.697)" fill="#505050"/>
      <path id="Path_10677" data-name="Path 10677" d="M14.739,56.106H13.606V54.4h1.134V52.7h1.748a6.238,6.238,0,0,1,7.322-5.363V44.773A2.275,2.275,0,0,0,21.537,42.5H2.273A2.275,2.275,0,0,0,0,44.773V57.235a2.275,2.275,0,0,0,2.273,2.273H14.739Zm-7.937,0H3.4V54.4H6.8Zm.416-3.4H4.969A1.569,1.569,0,0,1,3.4,51.137V49.17A1.569,1.569,0,0,1,4.969,47.6h2.25A1.569,1.569,0,0,1,8.787,49.17v1.967A1.569,1.569,0,0,1,7.219,52.7Zm4.686,3.4H8.5V54.4h3.4Z" transform="translate(0 -42.5)" fill="#505050"/>
    </g>
  </g>
</svg>
