<svg xmlns="http://www.w3.org/2000/svg" width="60.963" height="50.803" viewBox="0 0 60.963 50.803">
  <g id="secure-payment" transform="translate(0 -42.5)">
    <path id="Path_10675" data-name="Path 10675" d="M312.712,167.6v-1.964a9.563,9.563,0,0,0-19.126,0V167.6H290v12.551a13.149,13.149,0,1,0,26.3,0V167.6Zm-15.54-1.964a5.977,5.977,0,0,1,11.954,0V167.6H297.172Zm4.717,18.779-4.789-4.789,2.536-2.536,2.383,2.383,4.712-4.241,2.4,2.666Z" transform="translate(-255.335 -99.995)" fill="#4caf50"/>
    <g id="Group_17202" data-name="Group 17202" transform="translate(0 42.5)">
      <path id="Path_10676" data-name="Path 10676" d="M90,162.5h4.184v3.586H90Z" transform="translate(-79.242 -148.156)" fill="#4caf50"/>
      <path id="Path_10677" data-name="Path 10677" d="M31.079,71.188H28.688V67.6h2.391V64.016h3.686A13.153,13.153,0,0,1,50.2,52.708V47.292A4.8,4.8,0,0,0,45.413,42.5H4.792A4.8,4.8,0,0,0,0,47.292V73.569a4.8,4.8,0,0,0,4.792,4.792H31.079Zm-16.735,0H7.172V67.6h7.172Zm.878-7.172H10.478a3.309,3.309,0,0,1-3.306-3.306V56.564a3.309,3.309,0,0,1,3.306-3.306h4.745a3.309,3.309,0,0,1,3.306,3.306v4.147A3.309,3.309,0,0,1,15.222,64.016Zm9.88,7.172H17.93V67.6H25.1Z" transform="translate(0 -42.5)" fill="#4caf50"/>
    </g>
  </g>
</svg>
