<svg id="Settings" xmlns="http://www.w3.org/2000/svg" width="18.205" height="17" viewBox="0 0 18.205 17">
  <g id="Group_2545" data-name="Group 2545">
    <path id="Path_3859" data-name="Path 3859" d="M18.131,24.3a1.49,1.49,0,0,0-1.991-1.2.745.745,0,0,1-.91-.409,6.741,6.741,0,0,0-.676-1.175.726.726,0,0,1,.1-1,1.458,1.458,0,0,0,.535-1.162,1.486,1.486,0,0,0-.593-1.161,9.119,9.119,0,0,0-1.962-1.133,1.509,1.509,0,0,0-.586-.119,1.469,1.469,0,0,0-1.458,1.228.727.727,0,0,1-.815.585,6.441,6.441,0,0,0-1.346,0,.728.728,0,0,1-.815-.585,1.469,1.469,0,0,0-1.458-1.228,1.5,1.5,0,0,0-.586.119,9.074,9.074,0,0,0-1.963,1.133,1.487,1.487,0,0,0-.592,1.16,1.462,1.462,0,0,0,.535,1.164.724.724,0,0,1,.1.994,6.744,6.744,0,0,0-.677,1.175.725.725,0,0,1-.919.406A1.475,1.475,0,0,0,.073,24.3,9.091,9.091,0,0,0,0,25.439,8.958,8.958,0,0,0,.074,26.58a1.49,1.49,0,0,0,1.991,1.2.746.746,0,0,1,.91.409,6.741,6.741,0,0,0,.676,1.175.726.726,0,0,1-.1,1,1.458,1.458,0,0,0-.535,1.162,1.486,1.486,0,0,0,.593,1.161A9.119,9.119,0,0,0,5.57,33.82a1.509,1.509,0,0,0,.586.119,1.469,1.469,0,0,0,1.458-1.228.731.731,0,0,1,.815-.585,6.441,6.441,0,0,0,1.346,0,.73.73,0,0,1,.815.585,1.47,1.47,0,0,0,1.458,1.228,1.5,1.5,0,0,0,.586-.119A9.068,9.068,0,0,0,14.6,32.687a1.488,1.488,0,0,0,.593-1.16,1.462,1.462,0,0,0-.535-1.164.724.724,0,0,1-.1-.994,6.744,6.744,0,0,0,.677-1.175.724.724,0,0,1,.919-.406,1.458,1.458,0,0,0,.517.095,1.489,1.489,0,0,0,1.466-1.3,9.186,9.186,0,0,0,.073-1.142A9.031,9.031,0,0,0,18.131,24.3ZM9.1,28.473a3.034,3.034,0,1,1,3.034-3.034A3.037,3.037,0,0,1,9.1,28.473Z" transform="translate(0 -16.939)" fill="#a3a3a3"/>
  </g>
</svg>
