<svg xmlns="http://www.w3.org/2000/svg" width="27.075" height="29.135" viewBox="0 0 27.075 29.135">
  <g id="settings_1_" data-name="settings (1)" transform="translate(-18.045)">
    <circle id="Ellipse_1438" data-name="Ellipse 1438" cx="1.707" cy="1.707" r="1.707" transform="translate(29.878)" fill="#a2a2a2"/>
    <circle id="Ellipse_1439" data-name="Ellipse 1439" cx="1.707" cy="1.707" r="1.707" transform="translate(29.878 25.721)" fill="#a2a2a2"/>
    <circle id="Ellipse_1440" data-name="Ellipse 1440" cx="1.707" cy="1.707" r="1.707" transform="translate(18.045 7.923) rotate(-39.85)" fill="#a2a2a2"/>
    <circle id="Ellipse_1441" data-name="Ellipse 1441" cx="1.707" cy="1.707" r="1.707" transform="translate(40.545 19.961) rotate(-19.45)" fill="#a2a2a2"/>
    <circle id="Ellipse_1442" data-name="Ellipse 1442" cx="1.707" cy="1.707" r="1.707" transform="translate(40.349 8.526) rotate(-53.989)" fill="#a2a2a2"/>
    <circle id="Ellipse_1443" data-name="Ellipse 1443" cx="1.707" cy="1.707" r="1.707" transform="translate(18.051 21.215) rotate(-50.15)" fill="#a2a2a2"/>
    <path id="Path_14903" data-name="Path 14903" d="M119.958,92.927a3.435,3.435,0,0,1-.334-.793L118,93.07l-.427-.739a.853.853,0,0,0-1.166-.312l-1.242.717a5.929,5.929,0,0,0-.831-.479V90.822a.854.854,0,0,0-.854-.854h-.854V88.1a3.416,3.416,0,0,1-1.707,0v1.872h-.854a.854.854,0,0,0-.854.854v1.435a5.928,5.928,0,0,0-.831.479l-1.242-.717a.853.853,0,0,0-1.166.312l-.427.739-1.621-.936a3.433,3.433,0,0,1-.334.793,3.393,3.393,0,0,1-.522.684l1.622.937-.427.739a.853.853,0,0,0,.312,1.166l1.24.716c-.014.162-.021.321-.021.481s.007.319.021.481l-1.24.716a.853.853,0,0,0-.312,1.166l.427.739-1.622.937a3.391,3.391,0,0,1,.522.685,3.433,3.433,0,0,1,.334.793l1.621-.936.427.739a.853.853,0,0,0,1.166.312l1.242-.717a5.921,5.921,0,0,0,.831.479v1.435a.854.854,0,0,0,.854.854h.854V107.2a3.416,3.416,0,0,1,1.707,0v-1.872h.854a.854.854,0,0,0,.854-.854v-1.435a5.922,5.922,0,0,0,.831-.479l1.242.717a.854.854,0,0,0,1.166-.312l.427-.739,1.621.936a3.433,3.433,0,0,1,.334-.793,3.394,3.394,0,0,1,.522-.685l-1.622-.937.427-.739a.853.853,0,0,0-.312-1.166l-1.24-.716c.014-.162.021-.321.021-.481s-.007-.319-.021-.481l1.24-.716a.853.853,0,0,0,.312-1.166l-.427-.739,1.622-.937A3.4,3.4,0,0,1,119.958,92.927Zm-8.181,7.284a2.561,2.561,0,1,1,2.561-2.561A2.564,2.564,0,0,1,111.777,100.211Z" transform="translate(-80.192 -83.083)" fill="#a2a2a2"/>
    <path id="Path_14904" data-name="Path 14904" d="M103.1,386.531l5.412,3.124a3.415,3.415,0,0,1,.855-1.478l-5.414-3.126a3.391,3.391,0,0,1-.853,1.479Z" transform="translate(-80.213 -363.141)" fill="#a2a2a2"/>
    <path id="Path_14905" data-name="Path 14905" d="M109.364,47.529a3.415,3.415,0,0,1-.855-1.478L103.1,49.175a3.392,3.392,0,0,1,.853,1.479Z" transform="translate(-80.213 -43.431)" fill="#a2a2a2"/>
    <path id="Path_14906" data-name="Path 14906" d="M305.045,49.175l-5.412-3.124a3.415,3.415,0,0,1-.855,1.478l5.414,3.126A3.392,3.392,0,0,1,305.045,49.175Z" transform="translate(-264.759 -43.431)" fill="#a2a2a2"/>
    <path id="Path_14907" data-name="Path 14907" d="M298.778,388.179a3.414,3.414,0,0,1,.855,1.478l5.412-3.124a3.393,3.393,0,0,1-.853-1.479Z" transform="translate(-264.759 -363.142)" fill="#a2a2a2"/>
    <path id="Path_14908" data-name="Path 14908" d="M46.13,207.216a3.4,3.4,0,0,1,.855.11v-6.251a3.385,3.385,0,0,1-1.707,0v6.249A3.4,3.4,0,0,1,46.13,207.216Z" transform="translate(-25.684 -189.633)" fill="#a2a2a2"/>
    <path id="Path_14909" data-name="Path 14909" d="M437.577,201.185a3.4,3.4,0,0,1-.855-.11v6.251a3.384,3.384,0,0,1,1.707,0v-6.249a3.405,3.405,0,0,1-.852.109h0Z" transform="translate(-394.853 -189.633)" fill="#a2a2a2"/>
  </g>
</svg>
