<?xml version="1.0" encoding="utf-8"?>
<!-- Generator: Adobe Illustrator 23.0.0, SVG Export Plug-In . SVG Version: 6.00 Build 0)  -->
<svg version="1.1" id="Settings" xmlns="http://www.w3.org/2000/svg" xmlns:xlink="http://www.w3.org/1999/xlink" x="0px" y="0px"
	 viewBox="0 0 18.2 17" style="enable-background:new 0 0 18.2 17;" xml:space="preserve">
<style type="text/css">
	.st0{fill:#283279;}
</style>
<g id="Group_2545">
	<path id="Path_3859" class="st0" d="M18.1,7.4C18,6.5,17.3,6,16.5,6.1c-0.1,0-0.2,0-0.3,0.1c-0.4,0.1-0.8-0.1-0.9-0.4
		c-0.2-0.4-0.4-0.8-0.7-1.2c-0.2-0.3-0.2-0.7,0.1-1c0.3-0.3,0.5-0.7,0.5-1.2c0-0.5-0.2-0.9-0.6-1.2c-0.6-0.5-1.3-0.8-2-1.1
		C12.4,0,12.2,0,12,0c-0.7,0-1.3,0.5-1.5,1.2c-0.1,0.4-0.4,0.6-0.8,0.6c-0.4,0-0.9,0-1.3,0C8,1.9,7.7,1.6,7.6,1.2
		C7.5,0.5,6.9,0,6.2,0C6,0,5.8,0,5.6,0.1c-0.7,0.3-1.4,0.7-2,1.1C3.2,1.5,3,2,3,2.4c0,0.4,0.2,0.9,0.5,1.2c0.3,0.3,0.3,0.7,0.1,1
		C3.4,4.9,3.2,5.3,3,5.7C2.8,6.1,2.4,6.3,2.1,6.2C1.3,5.9,0.4,6.3,0.2,7c0,0.1-0.1,0.2-0.1,0.3C0,7.7,0,8.1,0,8.5
		c0,0.4,0,0.8,0.1,1.1c0.1,0.8,0.9,1.4,1.7,1.3c0.1,0,0.2,0,0.3-0.1c0.4-0.1,0.8,0.1,0.9,0.4c0.2,0.4,0.4,0.8,0.7,1.2
		c0.2,0.3,0.2,0.7-0.1,1C3.2,13.7,3,14.1,3,14.6c0,0.5,0.2,0.9,0.6,1.2c0.6,0.5,1.3,0.8,2,1.1C5.8,17,6,17,6.2,17
		c0.7,0,1.3-0.5,1.5-1.2c0.1-0.4,0.4-0.6,0.8-0.6c0.4,0,0.9,0,1.3,0c0.4-0.1,0.7,0.2,0.8,0.6c0.1,0.7,0.7,1.2,1.5,1.2
		c0.2,0,0.4,0,0.6-0.1c0.7-0.3,1.4-0.7,2-1.1c0.4-0.3,0.6-0.7,0.6-1.2c0-0.4-0.2-0.9-0.5-1.2c-0.3-0.3-0.3-0.7-0.1-1
		c0.3-0.4,0.5-0.8,0.7-1.2c0.1-0.4,0.6-0.5,0.9-0.4c0.2,0.1,0.3,0.1,0.5,0.1c0.7,0,1.4-0.6,1.5-1.3c0-0.4,0.1-0.8,0.1-1.1
		C18.2,8.1,18.2,7.7,18.1,7.4z M9.1,11.5c-1.7,0-3-1.4-3-3s1.4-3,3-3c1.7,0,3,1.4,3,3C12.1,10.2,10.8,11.5,9.1,11.5z"/>
</g>
</svg>
