<?xml version="1.0" encoding="utf-8"?>
<!-- Generator: Adobe Illustrator 23.0.0, SVG Export Plug-In . SVG Version: 6.00 Build 0)  -->
<svg version="1.1" id="Layer_1" xmlns="http://www.w3.org/2000/svg" xmlns:xlink="http://www.w3.org/1999/xlink" x="0px" y="0px"
	 viewBox="0 0 27.1 29.1" style="enable-background:new 0 0 27.1 29.1;" xml:space="preserve">
<style type="text/css">
	.st0{fill:#283279;}
</style>
<g id="settings_1_" transform="translate(-18.045)">
	<circle id="Ellipse_1438" class="st0" cx="31.6" cy="1.7" r="1.7"/>
	<circle id="Ellipse_1439" class="st0" cx="31.6" cy="27.4" r="1.7"/>
	<circle id="Ellipse_1440" class="st0" cx="20.4" cy="8.1" r="1.7"/>
	<circle id="Ellipse_1441" class="st0" cx="42.7" cy="21" r="1.7"/>
	<circle id="Ellipse_1442" class="st0" cx="42.7" cy="8.1" r="1.7"/>
	<circle id="Ellipse_1443" class="st0" cx="20.5" cy="21" r="1.7"/>
	<path id="Path_14903" class="st0" d="M39.8,9.8c-0.1-0.2-0.3-0.5-0.3-0.8L37.8,10l-0.4-0.7c-0.2-0.4-0.8-0.5-1.2-0.3c0,0,0,0,0,0
		L35,9.7c-0.3-0.2-0.5-0.3-0.8-0.5V7.7c0-0.5-0.4-0.9-0.9-0.9h-0.9V5c-0.6,0.1-1.1,0.1-1.7,0v1.9h-0.9c-0.5,0-0.9,0.4-0.9,0.9v1.4
		c-0.3,0.1-0.6,0.3-0.8,0.5l-1.2-0.7c-0.4-0.2-0.9-0.1-1.2,0.3c0,0,0,0,0,0L25.4,10l-1.6-0.9c-0.1,0.3-0.2,0.5-0.3,0.8
		c-0.1,0.2-0.3,0.5-0.5,0.7l1.6,0.9l-0.4,0.7c-0.2,0.4-0.1,0.9,0.3,1.2c0,0,0,0,0,0l1.2,0.7c0,0.2,0,0.3,0,0.5s0,0.3,0,0.5l-1.2,0.7
		c-0.4,0.2-0.5,0.8-0.3,1.2c0,0,0,0,0,0l0.4,0.7l-1.6,0.9c0.2,0.2,0.4,0.4,0.5,0.7c0.1,0.2,0.3,0.5,0.3,0.8l1.6-0.9l0.4,0.7
		c0.2,0.4,0.8,0.5,1.2,0.3c0,0,0,0,0,0l1.2-0.7c0.3,0.2,0.5,0.3,0.8,0.5v1.4c0,0.5,0.4,0.9,0.9,0.9h0.9v1.9c0.6-0.1,1.1-0.1,1.7,0
		v-1.9h0.9c0.5,0,0.9-0.4,0.9-0.9V20c0.3-0.1,0.6-0.3,0.8-0.5l1.2,0.7c0.4,0.2,0.9,0.1,1.2-0.3l0.4-0.7l1.6,0.9
		c0.1-0.3,0.2-0.5,0.3-0.8c0.1-0.2,0.3-0.5,0.5-0.7l-1.6-0.9l0.4-0.7c0.2-0.4,0.1-0.9-0.3-1.2c0,0,0,0,0,0L37.5,15
		c0-0.2,0-0.3,0-0.5s0-0.3,0-0.5l1.2-0.7c0.4-0.2,0.5-0.8,0.3-1.2c0,0,0,0,0,0l-0.4-0.7l1.6-0.9C40.1,10.3,39.9,10.1,39.8,9.8z
		 M31.6,17.1c-1.4,0-2.6-1.1-2.6-2.6s1.1-2.6,2.6-2.6c1.4,0,2.6,1.1,2.6,2.6v0C34.1,16,33,17.1,31.6,17.1z"/>
	<path id="Path_14904" class="st0" d="M22.9,23.4l5.4,3.1c0.2-0.6,0.4-1.1,0.9-1.5l-5.4-3.1C23.6,22.5,23.3,23,22.9,23.4L22.9,23.4z
		"/>
	<path id="Path_14905" class="st0" d="M29.2,4.1c-0.4-0.4-0.7-0.9-0.9-1.5l-5.4,3.1c0.4,0.4,0.7,0.9,0.9,1.5L29.2,4.1z"/>
	<path id="Path_14906" class="st0" d="M40.3,5.7l-5.4-3.1c-0.2,0.6-0.4,1.1-0.9,1.5l5.4,3.1C39.6,6.7,39.9,6.2,40.3,5.7z"/>
	<path id="Path_14907" class="st0" d="M34,25c0.4,0.4,0.7,0.9,0.9,1.5l5.4-3.1c-0.4-0.4-0.7-0.9-0.9-1.5L34,25z"/>
	<path id="Path_14908" class="st0" d="M20.4,17.6c0.3,0,0.6,0,0.9,0.1v-6.3c-0.6,0.1-1.1,0.1-1.7,0v6.2
		C19.9,17.6,20.2,17.6,20.4,17.6z"/>
	<path id="Path_14909" class="st0" d="M42.7,11.6c-0.3,0-0.6,0-0.9-0.1v6.3c0.6-0.1,1.1-0.1,1.7,0v-6.2C43.3,11.5,43,11.6,42.7,11.6
		L42.7,11.6L42.7,11.6z"/>
</g>
</svg>
