<?xml version="1.0" encoding="utf-8"?>
<!-- Generator: Adobe Illustrator 23.0.0, SVG Export Plug-In . SVG Version: 6.00 Build 0)  -->
<svg version="1.1" id="Layer_1" xmlns="http://www.w3.org/2000/svg" xmlns:xlink="http://www.w3.org/1999/xlink" x="0px" y="0px"
	 viewBox="0 0 36.1 36.2" style="enable-background:new 0 0 36.1 36.2;" xml:space="preserve">
<style type="text/css">
	.st0{fill:#283279;}
</style>
<g transform="matrix(1, 0, 0, 1, 0, 0)">
	<path id="Shape-2" class="st0" d="M23.8,24.2L23.8,24.2c-0.6,0-1.3-0.2-1.8-0.5c-1.2-0.7-1.8-2.2-1.4-3.5l-5.6-2.7
		c-0.6,0.8-1.6,1.2-2.6,1.2c-0.4,0-0.7-0.1-1.1-0.2c-1.7-0.6-2.6-2.4-2.1-4.1c0.3-1,1-1.7,2-2.1c1.3-0.5,2.8-0.1,3.7,0.9l5.7-3
		c-0.5-1.6,0.4-3.3,1.9-3.9C22.9,6.1,23.3,6,23.8,6c1.2,0,2.3,0.6,2.9,1.7c0.8,1.5,0.4,3.3-1,4.2c-1.4,0.9-3.3,0.7-4.4-0.6l-5.7,3
		c0.2,0.6,0.2,1.1,0,1.7l5.6,2.7c0.6-0.8,1.6-1.2,2.6-1.2v0l0,0c1.4,0,2.7,0.9,3.2,2.2c0.5,1.3,0,2.8-1.1,3.6
		C25.2,24,24.5,24.2,23.8,24.2z M23.8,19.1c-1,0-1.8,0.9-1.8,1.9c0,1,0.9,1.8,1.9,1.8c1,0,1.8-0.9,1.8-1.9
		C25.7,19.9,24.8,19.1,23.8,19.1L23.8,19.1z M12.3,13.5c-1,0-1.9,0.8-1.9,1.8s0.8,1.9,1.8,1.9c0,0,0.1,0,0.1,0c1,0,1.9-0.8,1.9-1.8
		C14.3,14.3,13.5,13.5,12.3,13.5C12.4,13.5,12.4,13.5,12.3,13.5z M23.8,7.4c-1,0-1.9,0.8-1.9,1.9c0,1.1,0.9,1.9,2,1.8
		c1,0,1.8-0.8,1.8-1.8C25.7,8.2,24.8,7.4,23.8,7.4z"/>
</g>
</svg>
