<svg xmlns="http://www.w3.org/2000/svg" width="24.915" height="20.561" viewBox="0 0 24.915 20.561">
  <g id="solution" transform="translate(0 0)">
    <path id="Path_69" data-name="Path 69" d="M191.7,109.57a1.744,1.744,0,0,1-1.535-.884c-.056,0-.11-.01-.166-.01h-.085a3.119,3.119,0,0,0-2.488,1.353,3.082,3.082,0,0,0-.557,1.777,3.13,3.13,0,1,0,5.314-2.236Zm-2.149,1.789h.894a1.341,1.341,0,1,1,0,2.683v.447h-.894v-.447a1.341,1.341,0,0,1-1.341-1.341h.894a.447.447,0,0,0,.447.447h.894a.447.447,0,0,0,0-.894h-.894a1.341,1.341,0,0,1,0-2.683v-.447h.894v.447a1.342,1.342,0,0,1,1.342,1.341h-.894a.447.447,0,0,0-.447-.447h-.894a.447.447,0,1,0,0,.894Zm0,0" transform="translate(-178.5 -103.757)" fill="#fff"/>
    <path id="Path_70" data-name="Path 70" d="M516.32-1.141h1.789V5.12H516.32Zm0,0" transform="translate(-493.193 1.141)" fill="#fff"/>
    <path id="Path_71" data-name="Path 71" d="M195.367,4.225c0,.677,1.108,1.342,2.236,1.342s2.236-.665,2.236-1.342a.447.447,0,0,1,.447-.447h.535V.2h-.532a.441.441,0,0,1-.176-.036l-3.046-1.305h-4.613a2.236,2.236,0,0,0-1.578.655l-3.641,3.638a.878.878,0,0,0-.159,1.066c0,.005.008.009.012.014a4.026,4.026,0,0,1,2.907-1.348H190a1.789,1.789,0,0,1,1.789-1.789h4.919v.894H191.79a.894.894,0,0,0,0,1.789h3.13a.447.447,0,0,1,.447.447Zm0,0" transform="translate(-178.588 1.141)" fill="#fff"/>
    <path id="Path_72" data-name="Path 72" d="M71.633,347.9l2.521-.918,2.141,5.883-2.521.918Zm0,0" transform="translate(-68.424 -334.023)" fill="#fff"/>
    <path id="Path_73" data-name="Path 73" d="M0,384.586l2.521-.918,1.835,5.042-2.521.918Zm0,0" transform="translate(0 -369.067)" fill="#fff"/>
    <path id="Path_74" data-name="Path 74" d="M155.461,341.169a.448.448,0,0,1,.3,0l2.564.866,9.1-3.309a.895.895,0,0,0-.612-1.681l-2.9,1.055a1.877,1.877,0,0,1-.019.24,1.794,1.794,0,0,1-2.073,1.457l-5.034-.887.155-.881,5.034.888a.9.9,0,0,0,1.037-.728.818.818,0,0,0,0-.3,1.4,1.4,0,0,0-.038-.157.886.886,0,0,0-.685-.575l-5.959-1.051-2.808,1.022,1.529,4.2Zm0,0" transform="translate(-146.635 -323.628)" fill="#fff"/>
  </g>
</svg>
