<svg id="sports-and-competition" xmlns="http://www.w3.org/2000/svg" width="17" height="17" viewBox="0 0 17 17">
  <g id="Group_14004" data-name="Group 14004">
    <path id="Path_14707" data-name="Path 14707" d="M16.15.85H13.6V0H3.4V.85H.85A.8.8,0,0,0,0,1.7V3.74A3.856,3.856,0,0,0,3.4,7.565V7.65a5.112,5.112,0,0,0,3.995,5.015L6.8,14.45H4.845a.816.816,0,0,0-.765.6L3.4,17H13.6l-.68-1.955a.816.816,0,0,0-.765-.595H10.2l-.6-1.785A5.112,5.112,0,0,0,13.6,7.65V7.565A3.856,3.856,0,0,0,17,3.74V1.7A.8.8,0,0,0,16.15.85ZM3.4,5.865A2.27,2.27,0,0,1,1.7,3.74V2.55H3.4ZM10.2,8.5,8.5,7.565,6.8,8.5l.425-1.7L5.95,5.1H7.735L8.5,3.4l.765,1.7H11.05L9.775,6.8Zm5.1-4.76a2.193,2.193,0,0,1-1.7,2.125V2.55h1.7Z" fill="#a2a2a2"/>
  </g>
</svg>
