<svg id="squares" xmlns="http://www.w3.org/2000/svg" width="12.333" height="12.333" viewBox="0 0 12.333 12.333">
  <path id="Path_6522" data-name="Path 6522" d="M4.588,0H1.138A1.139,1.139,0,0,0,0,1.138V4.589A1.139,1.139,0,0,0,1.138,5.726H4.589A1.139,1.139,0,0,0,5.726,4.589V1.138A1.139,1.139,0,0,0,4.588,0Zm.257,4.588a.257.257,0,0,1-.257.257H1.138a.257.257,0,0,1-.257-.257V1.138A.257.257,0,0,1,1.138.881H4.589a.257.257,0,0,1,.257.257Z" transform="translate(0)" fill="#fff"/>
  <path id="Path_6523" data-name="Path 6523" d="M281.846,0H278.4a1.139,1.139,0,0,0-1.138,1.138V4.589A1.139,1.139,0,0,0,278.4,5.726h3.451a1.139,1.139,0,0,0,1.138-1.138V1.138A1.139,1.139,0,0,0,281.846,0Zm.257,4.588a.257.257,0,0,1-.257.257H278.4a.257.257,0,0,1-.257-.257V1.138A.257.257,0,0,1,278.4.881h3.451a.257.257,0,0,1,.257.257Z" transform="translate(-270.651)" fill="#fff"/>
  <path id="Path_6524" data-name="Path 6524" d="M4.588,277.258H1.138A1.139,1.139,0,0,0,0,278.4v3.451a1.139,1.139,0,0,0,1.138,1.138H4.589a1.139,1.139,0,0,0,1.138-1.138V278.4A1.139,1.139,0,0,0,4.588,277.258Zm.257,4.588a.257.257,0,0,1-.257.257H1.138a.257.257,0,0,1-.257-.257V278.4a.257.257,0,0,1,.257-.257H4.589a.257.257,0,0,1,.257.257Z" transform="translate(0 -270.651)" fill="#fff"/>
  <path id="Path_6525" data-name="Path 6525" d="M281.846,277.258H278.4a1.139,1.139,0,0,0-1.138,1.138v3.451a1.139,1.139,0,0,0,1.138,1.138h3.451a1.139,1.139,0,0,0,1.138-1.138V278.4A1.139,1.139,0,0,0,281.846,277.258Zm.257,4.588a.257.257,0,0,1-.257.257H278.4a.257.257,0,0,1-.257-.257V278.4a.257.257,0,0,1,.257-.257h3.451a.257.257,0,0,1,.257.257Z" transform="translate(-270.651 -270.651)" fill="#fff"/>
</svg>
