<?xml version="1.0" encoding="utf-8"?>
<!-- Generator: Adobe Illustrator 23.0.0, SVG Export Plug-In . SVG Version: 6.00 Build 0)  -->
<svg version="1.1" id="squares" xmlns="http://www.w3.org/2000/svg" xmlns:xlink="http://www.w3.org/1999/xlink" x="0px" y="0px"
	 viewBox="0 0 12.3 12.3" style="enable-background:new 0 0 12.3 12.3;" xml:space="preserve">
<style type="text/css">
	.st0{fill:#283279;}
</style>
<path id="Path_6522" class="st0" d="M4.6,0H1.1C0.5,0,0,0.5,0,1.1v3.5c0,0.6,0.5,1.1,1.1,1.1h3.5c0.6,0,1.1-0.5,1.1-1.1V1.1
	C5.7,0.5,5.2,0,4.6,0z M4.8,4.6c0,0.1-0.1,0.3-0.3,0.3H1.1C1,4.8,0.9,4.7,0.9,4.6V1.1C0.9,1,1,0.9,1.1,0.9h3.5
	c0.1,0,0.3,0.1,0.3,0.3L4.8,4.6z"/>
<path id="Path_6523" class="st0" d="M11.2,0H7.7C7.1,0,6.6,0.5,6.6,1.1v3.5c0,0.6,0.5,1.1,1.1,1.1h3.5c0.6,0,1.1-0.5,1.1-1.1V1.1
	C12.3,0.5,11.8,0,11.2,0C11.2,0,11.2,0,11.2,0z M11.5,4.6c0,0.1-0.1,0.3-0.3,0.3H7.7c-0.1,0-0.3-0.1-0.3-0.3V1.1
	c0-0.1,0.1-0.3,0.3-0.3h3.5c0.1,0,0.3,0.1,0.3,0.3L11.5,4.6z"/>
<path id="Path_6524" class="st0" d="M4.6,6.6H1.1C0.5,6.6,0,7.1,0,7.7c0,0,0,0,0,0v3.5c0,0.6,0.5,1.1,1.1,1.1h3.5
	c0.6,0,1.1-0.5,1.1-1.1V7.7C5.7,7.1,5.2,6.6,4.6,6.6C4.6,6.6,4.6,6.6,4.6,6.6z M4.8,11.2c0,0.1-0.1,0.3-0.3,0.3H1.1
	c-0.1,0-0.3-0.1-0.3-0.3V7.7c0-0.1,0.1-0.3,0.3-0.3h3.5c0.1,0,0.3,0.1,0.3,0.3L4.8,11.2z"/>
<path id="Path_6525" class="st0" d="M11.2,6.6H7.7c-0.6,0-1.1,0.5-1.1,1.1v3.5c0,0.6,0.5,1.1,1.1,1.1h3.5c0.6,0,1.1-0.5,1.1-1.1V7.7
	C12.3,7.1,11.8,6.6,11.2,6.6C11.2,6.6,11.2,6.6,11.2,6.6z M11.5,11.2c0,0.1-0.1,0.3-0.3,0.3H7.7c-0.1,0-0.3-0.1-0.3-0.3V7.7
	c0-0.1,0.1-0.3,0.3-0.3h3.5c0.1,0,0.3,0.1,0.3,0.3L11.5,11.2z"/>
</svg>
