<svg xmlns="http://www.w3.org/2000/svg" width="350.561" height="236.704" viewBox="0 0 350.561 236.704">
  <g id="Group_4742" data-name="Group 4742" transform="translate(-13.998 -92.631)">
    <g id="Group_4688" data-name="Group 4688" transform="translate(43.658 326.016)">
      <rect id="Rectangle_2878" data-name="Rectangle 2878" width="43.528" height="3.319" rx="1.659" fill="#adbec4"/>
      <rect id="Rectangle_2879" data-name="Rectangle 2879" width="13.801" height="3.319" rx="1.659" transform="translate(289.046)" fill="#adbec4"/>
      <rect id="Rectangle_2880" data-name="Rectangle 2880" width="43.528" height="3.319" rx="1.659" transform="translate(77.016)" fill="#adbec4"/>
      <rect id="Rectangle_2881" data-name="Rectangle 2881" width="43.528" height="3.319" rx="1.659" transform="translate(137.106)" fill="#adbec4"/>
      <rect id="Rectangle_2882" data-name="Rectangle 2882" width="58.391" height="3.319" rx="1.659" transform="translate(195.837)" fill="#adbec4"/>
    </g>
    <g id="Group_4697" data-name="Group 4697" transform="translate(13.998 141.923)">
      <path id="Path_6689" data-name="Path 6689" d="M120.95,160.531s-4.323-2.94-10.644-.675-7.742,10.779-6.185,17.688-7.147,30.5-7.147,30.5,4.524,6.362,20.335,3.927c0,0,11.789-21.424,10.913-36.8S120.95,160.531,120.95,160.531Z" transform="translate(-35.347 -158.999)" fill="#0e3944"/>
      <path id="Path_6690" data-name="Path 6690" d="M135.976,196.707c5.942-1.9,9.578,3.047,12.983,12.255s4.549,10.131,4.549,10.131l13.141,8.443-1.092,4.92s-12.506-4.9-15.53-8.012S138.3,205.554,138.3,205.554Z" transform="translate(-45.382 -168.597)" fill="#ef6e4b"/>
      <path id="Path_6691" data-name="Path 6691" d="M94.475,276.941S91.9,290,92.321,309.65c0,0-10.159,14.98-1.775,57.722h4.4s3.592-36.365,6.341-46.219,12.9-12.877,13.448-42.838Z" transform="translate(-32.84 -189.344)" fill="#ff8b66"/>
      <path id="Path_6692" data-name="Path 6692" d="M59.609,314.149c-2.555-8.422-9.123-22.526-25.972-41.645a2.5,2.5,0,0,0-2.363.312c-1.434.876-1.434,1.906-1.434,1.906s8.449,18.412,13.837,31.9a11.945,11.945,0,0,0,11.092,7.525Z" transform="translate(-18.074 -188.162)" fill="#ff8b66"/>
      <path id="Path_6693" data-name="Path 6693" d="M93.273,323.915s.057,6.284-4.066,6.391c-5.821.157-6.036-6.185-12.633-5.978s-20.2,1.855-24.532-8.453c-2.235-5.327.824-12.163-6.391-17.316s-3.711-10.926,0-14.018-1.6-6.465,2.268-8.04a3.782,3.782,0,0,1,2.672-.05,6.2,6.2,0,0,1,1.4.709,13.55,13.55,0,0,1,3.48,3.727c10.925-29.924,30.378-33.874,30.378-33.874l19.238,6.638C105.551,300.208,93.273,323.915,93.273,323.915Z" transform="translate(-21.062 -181.644)" fill="#164353"/>
      <path id="Path_6694" data-name="Path 6694" d="M126.3,195.909a25.193,25.193,0,0,1-10.873.544c-6.384-.969-8.459-4.977-12.947-2.4-6.737,3.873-3.584,17.2-1.893,24.137a34.641,34.641,0,0,1-.091,14.977s8.97,6.98,19.238,6.633l5.6-12.183S137.513,213.045,126.3,195.909Z" transform="translate(-35.702 -167.799)" fill="#cfd8dc"/>
      <path id="Path_6695" data-name="Path 6695" d="M120.078,181.449a27.537,27.537,0,0,1-1.586,12.044s3.33,4.917,6.509,1.681a31.777,31.777,0,0,1,3.861-12.319C131.254,178.476,120.078,181.449,120.078,181.449Z" transform="translate(-40.883 -164.521)" fill="#ef6e4b"/>
      <g id="Group_4692" data-name="Group 4692" transform="translate(71.573 2.448)">
        <path id="Path_6696" data-name="Path 6696" d="M112.883,181.883s-2.81-1.778-2.493.965c.368,3.177,3.466,3.8,3.8,2.686S112.883,181.883,112.883,181.883Z" transform="translate(-110.365 -167.189)" fill="#ff8b66"/>
        <path id="Path_6697" data-name="Path 6697" d="M135.422,177s1.784-2.806,2.666-.19c1.023,3.03-1.517,4.912-2.289,4.048S135.422,177,135.422,177Z" transform="translate(-116.786 -165.741)" fill="#ff8b66"/>
        <path id="Path_6698" data-name="Path 6698" d="M123.741,187.237c-5.1,1.141-8.718-1.544-10.953-11.527-1.153-5.15.76-8.9,6.467-10.174s8.819,1.342,9.972,6.492C131.63,182.757,129,186.059,123.741,187.237Z" transform="translate(-110.906 -163.046)" fill="#ff8b66"/>
        <path id="Path_6699" data-name="Path 6699" d="M133.042,179.5a1.237,1.237,0,1,1-1.484-.429A1.108,1.108,0,0,1,133.042,179.5Z" transform="translate(-115.611 -166.583)" fill="#db614d"/>
        <path id="Path_6700" data-name="Path 6700" d="M118.977,182.956a1.237,1.237,0,1,1-1.341-.766A1.105,1.105,0,0,1,118.977,182.956Z" transform="translate(-111.965 -167.409)" fill="#db614d"/>
        <g id="Group_4689" data-name="Group 4689" transform="translate(11.293 7.349)">
          <path id="Path_6701" data-name="Path 6701" d="M128.16,173.11a.258.258,0,0,1-.144-.044,3,3,0,0,0-2.12-.27.261.261,0,0,1-.13-.506,3.493,3.493,0,0,1,2.539.341.261.261,0,0,1-.146.478Z" transform="translate(-125.57 -172.189)" fill="#0e3944"/>
        </g>
        <g id="Group_4690" data-name="Group 4690" transform="translate(4.027 8.628)">
          <path id="Path_6702" data-name="Path 6702" d="M116.048,175.7a.264.264,0,0,1-.134-.038.26.26,0,0,1-.088-.358,3.487,3.487,0,0,1,2.152-1.391.265.265,0,0,1,.3.207.261.261,0,0,1-.207.305,3.018,3.018,0,0,0-1.8,1.147A.26.26,0,0,1,116.048,175.7Z" transform="translate(-115.787 -173.911)" fill="#0e3944"/>
        </g>
        <path id="Path_6703" data-name="Path 6703" d="M128.9,176.843c.141.633-.029,1.21-.38,1.288s-.752-.37-.893-1,.028-1.21.38-1.289S128.758,176.21,128.9,176.843Z" transform="translate(-114.793 -165.778)" fill="#1a4850"/>
        <path id="Path_6704" data-name="Path 6704" d="M119.367,178.894c.142.633-.029,1.21-.38,1.289s-.752-.371-.893-1,.029-1.21.38-1.289S119.225,178.262,119.367,178.894Z" transform="translate(-112.341 -166.305)" fill="#1a4850"/>
        <path id="Path_6705" data-name="Path 6705" d="M122.907,186.8s3.273-.267,4.715-1.485c0,0-.4,2.557-2.178,2.735A2.6,2.6,0,0,1,122.907,186.8Z" transform="translate(-113.592 -168.218)" fill="#1a4850"/>
        <path id="Path_6706" data-name="Path 6706" d="M126.951,176.592s.115-1.663.752-1.688,1.4,1.206,1.4,1.206l.8-.682-.878.321s-.783-1.287-1.389-1.154C126.772,174.783,126.951,176.592,126.951,176.592Z" transform="translate(-114.629 -165.457)" fill="#1a4850"/>
        <path id="Path_6707" data-name="Path 6707" d="M119.255,178.505s-.813-1.455-1.4-1.206-.752,1.688-.752,1.688l-1.012-.277.931-.085s.159-1.5.764-1.636C118.646,176.793,119.255,178.505,119.255,178.505Z" transform="translate(-111.838 -166.072)" fill="#1a4850"/>
        <g id="Group_4691" data-name="Group 4691" transform="translate(9.849 13.277)">
          <path id="Path_6708" data-name="Path 6708" d="M124.743,182.525l-.262-.5a.65.65,0,0,0,.416-.738.7.7,0,0,0-.486-.555c-.1-.005-.189.082-.258.263l-.527-.2a.811.811,0,0,1,.828-.628,1.236,1.236,0,0,1,.994,1A1.215,1.215,0,0,1,124.743,182.525Z" transform="translate(-123.626 -180.171)" fill="#db614d"/>
        </g>
        <path id="Path_6709" data-name="Path 6709" d="M113.342,178.786s-1.572-5.783-.639-9.872c0,0,4.433-6.173,12.99-3.122a34.517,34.517,0,0,1,3.8,9.805,22.385,22.385,0,0,0-.532-6.629c-.852-4.575-4.911-7.417-10.477-6.5S106.958,168.918,113.342,178.786Z" transform="translate(-110.421 -162.295)" fill="#0e3944"/>
      </g>
      <path id="Path_6710" data-name="Path 6710" d="M122.049,163.958s.339,1.51-1.129,5.4a1.6,1.6,0,0,0-2.293,0c-1.237,1.1-3.748.735-4.606,1.332a2.644,2.644,0,0,0-.857,1.96,5.405,5.405,0,0,1,0-3.734,7.481,7.481,0,0,0-1.448,4.741s-2.263-.365-2.161-4.1,5.411-9.774,11.363-9.383,7.371,9.819,7.371,9.819a1.735,1.735,0,0,0-1.393-.237,12.349,12.349,0,0,0-1.47-4.511,6.682,6.682,0,0,1,0,3.774,5.393,5.393,0,0,0-2.966-.6S123.27,166.837,122.049,163.958Z" transform="translate(-38.584 -159.296)" fill="#0e3944"/>
      <path id="Path_6711" data-name="Path 6711" d="M100.063,195.676c2.9-2.284,5.154.622,5.707,4.64s-4.686,27.726-8.727,26.852c-1.56-.337-2.2-6.547-2.2-6.547a142.6,142.6,0,0,0,2.6-16.7C97.92,199.312,98.552,196.868,100.063,195.676Z" transform="translate(-34.8 -168.229)" fill="#ff8b66"/>
      <path id="Path_6712" data-name="Path 6712" d="M86.129,225.7c-3.9-3.718-10.894-16.051-12.671-22.334l2.96-1.191s8.915,12.752,12.978,15.967,5.492,6.8,3.677,9.864S86.951,226.478,86.129,225.7Z" transform="translate(-29.297 -170.107)" fill="#ff8b66"/>
      <g id="Group_4693" data-name="Group 4693" transform="translate(35.136 23.652)">
        <path id="Path_6713" data-name="Path 6713" d="M71.547,192.221c-.2,4.033,3.083,4.989,1.624,8.084a2.112,2.112,0,0,1-1.235,1.147,2.5,2.5,0,0,1-2.58-.663,28.5,28.5,0,0,0-5.264-3.986c-1.462-.844-.634-1.073-.634-1.073-.142-.067-.279-.123-.417-.178-1.043-.437-1.877-.6-1.12-1.066.85-.529,3.868.573,3.868.573-3.927-2.615-4.993-1.978-4.276-2.533.978-.761,4.712.989,4.823,1.041-2.074-1.961-3.579-2.406-2.755-2.7s4.939,2.673,6.437,3.789c.337.25.544.411.544.411C70.511,191.77,71.547,192.221,71.547,192.221Z" transform="translate(-61.305 -190.845)" fill="#ff8b66"/>
        <path id="Path_6714" data-name="Path 6714" d="M72.941,195.975c.337.25.544.411.544.411a2.734,2.734,0,0,0,.207,2.714A2.441,2.441,0,0,1,72.941,195.975Z" transform="translate(-64.228 -192.165)" fill="#ef6e4b"/>
        <path id="Path_6715" data-name="Path 6715" d="M67.177,198.547c-.348-.191-2.328-1.306-3.116-1.24-.142-.067-.279-.123-.417-.178C64.173,196.43,66.783,198.261,67.177,198.547Z" transform="translate(-61.907 -192.421)" fill="#ef6e4b"/>
      </g>
      <g id="Group_4694" data-name="Group 4694" transform="translate(27.096 70.617)">
        <path id="Path_6716" data-name="Path 6716" d="M88.816,279.393a.793.793,0,1,1-.792-.792A.792.792,0,0,1,88.816,279.393Z" transform="translate(-59.936 -260.388)" fill="#6097b2"/>
        <path id="Path_6717" data-name="Path 6717" d="M107.856,286.738a.793.793,0,1,1-.792-.792A.793.793,0,0,1,107.856,286.738Z" transform="translate(-64.834 -262.278)" fill="#6097b2"/>
        <path id="Path_6718" data-name="Path 6718" d="M124.08,290.677a.792.792,0,1,1-.792-.792A.793.793,0,0,1,124.08,290.677Z" transform="translate(-69.009 -263.292)" fill="#6097b2"/>
        <path id="Path_6719" data-name="Path 6719" d="M99.152,265.457a.793.793,0,1,1-.792-.792A.793.793,0,0,1,99.152,265.457Z" transform="translate(-62.595 -256.803)" fill="#6097b2"/>
        <circle id="Ellipse_215" data-name="Ellipse 215" cx="0.793" cy="0.793" r="0.793" transform="translate(37.641 15.394)" fill="#6097b2"/>
        <path id="Path_6720" data-name="Path 6720" d="M119.629,281.379a.793.793,0,1,1-.792-.792A.793.793,0,0,1,119.629,281.379Z" transform="translate(-67.863 -260.899)" fill="#6097b2"/>
        <path id="Path_6721" data-name="Path 6721" d="M121.946,263.885a.793.793,0,1,1-.793-.792A.793.793,0,0,1,121.946,263.885Z" transform="translate(-68.46 -256.398)" fill="#6097b2"/>
        <circle id="Ellipse_216" data-name="Ellipse 216" cx="0.793" cy="0.793" r="0.793" transform="translate(43.684 3.991)" fill="#6097b2"/>
        <path id="Path_6722" data-name="Path 6722" d="M79.372,300.212a.793.793,0,1,1-.792-.793A.793.793,0,0,1,79.372,300.212Z" transform="translate(-57.506 -265.745)" fill="#6097b2"/>
        <path id="Path_6723" data-name="Path 6723" d="M64.162,295.674a.793.793,0,1,1-.793-.792A.793.793,0,0,1,64.162,295.674Z" transform="translate(-53.592 -264.577)" fill="#6097b2"/>
        <path id="Path_6724" data-name="Path 6724" d="M55.138,287.359a.8.8,0,0,1-1.459-.437.592.592,0,0,1,.058-.272A6.2,6.2,0,0,1,55.138,287.359Z" transform="translate(-51.303 -262.459)" fill="#6097b2"/>
        <circle id="Ellipse_217" data-name="Ellipse 217" cx="0.793" cy="0.793" r="0.793" transform="translate(24.328 44.013)" fill="#6097b2"/>
        <path id="Path_6725" data-name="Path 6725" d="M57.523,329.259a.793.793,0,1,1-.792-.793A.793.793,0,0,1,57.523,329.259Z" transform="translate(-51.884 -273.218)" fill="#6097b2"/>
        <circle id="Ellipse_218" data-name="Ellipse 218" cx="0.793" cy="0.793" r="0.793" transform="translate(12.336 48.438)" fill="#6097b2"/>
        <circle id="Ellipse_219" data-name="Ellipse 219" cx="0.793" cy="0.793" r="0.793" transform="translate(0 42.412)" fill="#6097b2"/>
        <path id="Path_6726" data-name="Path 6726" d="M65.473,343.923a.793.793,0,1,1-.792-.792A.793.793,0,0,1,65.473,343.923Z" transform="translate(-53.93 -276.991)" fill="#6097b2"/>
        <path id="Path_6727" data-name="Path 6727" d="M75.635,287.806a.793.793,0,1,1-.793-.793A.793.793,0,0,1,75.635,287.806Z" transform="translate(-56.544 -262.553)" fill="#6097b2"/>
        <path id="Path_6728" data-name="Path 6728" d="M85.889,269.831a.793.793,0,1,1-.792-.792A.793.793,0,0,1,85.889,269.831Z" transform="translate(-59.182 -257.928)" fill="#6097b2"/>
        <path id="Path_6729" data-name="Path 6729" d="M97.494,254.872a.793.793,0,1,1-.793-.793A.793.793,0,0,1,97.494,254.872Z" transform="translate(-62.168 -254.079)" fill="#6097b2"/>
        <path id="Path_6730" data-name="Path 6730" d="M73.976,276.666a.792.792,0,1,1-.792-.792A.792.792,0,0,1,73.976,276.666Z" transform="translate(-56.118 -259.687)" fill="#6097b2"/>
        <path id="Path_6731" data-name="Path 6731" d="M86.957,259.177a.793.793,0,1,1-.793-.792A.793.793,0,0,1,86.957,259.177Z" transform="translate(-59.457 -255.187)" fill="#6097b2"/>
        <path id="Path_6732" data-name="Path 6732" d="M66.541,307.235a.793.793,0,1,1-.793-.792A.793.793,0,0,1,66.541,307.235Z" transform="translate(-54.204 -267.552)" fill="#6097b2"/>
        <path id="Path_6733" data-name="Path 6733" d="M53.133,297.809a.792.792,0,1,1-.792-.792A.792.792,0,0,1,53.133,297.809Z" transform="translate(-50.755 -265.127)" fill="#6097b2"/>
        <circle id="Ellipse_220" data-name="Ellipse 220" cx="0.793" cy="0.793" r="0.793" transform="translate(29.673 29.512)" fill="#6097b2"/>
        <circle id="Ellipse_221" data-name="Ellipse 221" cx="0.793" cy="0.793" r="0.793" transform="translate(46.063 33.675)" fill="#6097b2"/>
        <path id="Path_6734" data-name="Path 6734" d="M113.018,269.831a.793.793,0,1,1-.792-.792A.793.793,0,0,1,113.018,269.831Z" transform="translate(-66.163 -257.928)" fill="#6097b2"/>
        <path id="Path_6735" data-name="Path 6735" d="M125.847,272.069a.793.793,0,1,1-.792-.792A.792.792,0,0,1,125.847,272.069Z" transform="translate(-69.463 -258.504)" fill="#6097b2"/>
        <path id="Path_6736" data-name="Path 6736" d="M100.219,308.3a.792.792,0,1,1-.792-.793A.793.793,0,0,1,100.219,308.3Z" transform="translate(-62.87 -267.826)" fill="#6097b2"/>
        <circle id="Ellipse_222" data-name="Ellipse 222" cx="0.793" cy="0.793" r="0.793" transform="translate(28.88 53.785)" fill="#6097b2"/>
        <circle id="Ellipse_223" data-name="Ellipse 223" cx="0.793" cy="0.793" r="0.793" transform="translate(16.712 56.041)" fill="#6097b2"/>
        <circle id="Ellipse_224" data-name="Ellipse 224" cx="0.793" cy="0.793" r="0.793" transform="translate(50.18 44.013)" fill="#6097b2"/>
        <path id="Path_6737" data-name="Path 6737" d="M104.881,322.224a.793.793,0,1,1-.792-.793A.793.793,0,0,1,104.881,322.224Z" transform="translate(-64.069 -271.408)" fill="#6097b2"/>
        <path id="Path_6738" data-name="Path 6738" d="M82.687,346.058a.793.793,0,1,1-.792-.792A.793.793,0,0,1,82.687,346.058Z" transform="translate(-58.359 -277.541)" fill="#6097b2"/>
        <circle id="Ellipse_225" data-name="Ellipse 225" cx="0.793" cy="0.793" r="0.793" transform="translate(34.971 63.597)" fill="#6097b2"/>
        <circle id="Ellipse_226" data-name="Ellipse 226" cx="0.793" cy="0.793" r="0.793" transform="translate(46.752 58.927)" fill="#6097b2"/>
        <path id="Path_6739" data-name="Path 6739" d="M107.856,352.574a.793.793,0,1,1-.792-.792A.793.793,0,0,1,107.856,352.574Z" transform="translate(-64.834 -279.217)" fill="#6097b2"/>
      </g>
      <g id="Group_4695" data-name="Group 4695" transform="translate(55.975 173.34)">
        <path id="Path_6740" data-name="Path 6740" d="M102.639,404.767H89.619c-.85-2.424.717-4.857.454-6.993-.454-3.612,1.649-1.616,1.649-1.616.371-3.884,5.83-4.618,5.772-2.886a8.34,8.34,0,0,0,1.13,5.178c1.468,2.119,3.875,2.1,4.288,3.62.042.149.074.3.1.429C103.414,404.4,102.639,404.767,102.639,404.767Z" transform="translate(-89.363 -392.388)" fill="#164353"/>
        <path id="Path_6741" data-name="Path 6741" d="M104.559,404.6c-2.7.627-8.913-.189-9.161-1.756-.239-1.517,3.108-2.227,4.774-2.293,1.468,2.119,3.875,2.1,4.288,3.62C104.5,404.319,104.535,404.468,104.559,404.6Z" transform="translate(-90.913 -394.488)" fill="#205260"/>
      </g>
      <g id="Group_4696" data-name="Group 4696" transform="translate(0 78.106)">
        <path id="Path_6742" data-name="Path 6742" d="M29.723,270.919c-1.385-1.261-3.636.825-3.636.825s1.212,1.8.429,2.523-1.69-.932-3.232-.207a3.029,3.029,0,0,0-.38.215,17.845,17.845,0,0,0-3.471,3.373c-.206.231-.4.446-.585.635-1.179,1.237-4.222,1.962-4.791-1.336s3.142-7.166,7.215-10.72,6.7-1.443,6.7-1.443a6.409,6.409,0,0,1,.923,2.424c0,.924.824,1.385,1.286,2.267A1.119,1.119,0,0,1,29.723,270.919Z" transform="translate(-13.998 -264.162)" fill="#164353"/>
        <path id="Path_6743" data-name="Path 6743" d="M23.7,276.413a17.844,17.844,0,0,0-3.471,3.373c-1.526.363-2.894.255-3.108-1.179-.52-3.463,6.39-7.866,5.838-5.434A4.328,4.328,0,0,0,23.7,276.413Z" transform="translate(-14.794 -266.3)" fill="#205260"/>
      </g>
    </g>
    <g id="Group_4710" data-name="Group 4710" transform="translate(217.758 92.631)">
      <path id="Path_6744" data-name="Path 6744" d="M346.258,396.6a5.042,5.042,0,0,1-1.765-2.016,20.188,20.188,0,0,1,0-5.685c.458-2.913-.81-5.292-4.933-6.185-4.008-.869-6.387,1.063-5.461,9.12v0c-.61,3.348-.736,7.17.654,10.392h12.339S349.038,398.058,346.258,396.6Z" transform="translate(-300.006 -167.218)" fill="#cfd8dc"/>
      <path id="Path_6745" data-name="Path 6745" d="M357.891,342.757a37.431,37.431,0,0,1-4.536,16.285c-4.618,8.4-10.327,19.921-10.327,19.921s-3.8,3.711-6.222-2.435c0,0,1.707-21.4,5.623-29.236S357.891,342.757,357.891,342.757Z" transform="translate(-300.814 -156.809)" fill="#ff8b66"/>
      <path id="Path_6746" data-name="Path 6746" d="M440.978,307.745s7.348,30.9,12.023,39.056c0,0-1.076,3.411-6.137,4.441,0,0-15.988-23.5-17.018-33.4S440.978,307.745,440.978,307.745Z" transform="translate(-324.737 -147.978)" fill="#ff8b66"/>
      <g id="Group_4699" data-name="Group 4699" transform="translate(38.003 108.815)">
        <path id="Path_6747" data-name="Path 6747" d="M421.306,297.358c-1.955,4.709-17.053,4.964-17.053,4.964l-1.155-1.7-.305-.446-2.358-3.48s-25.018-24.54-29.892-22.479h-.008a2.372,2.372,0,0,0-.412.239c-3.347,2.392-3.661,15.494-7.619,37.487a38.662,38.662,0,0,1-1.855,6.2c-.074.181-.14.354-.206.519-.363.932-.619,1.526-.619,1.526-15.272,6.185-20.31-6.036-20.31-6.036s.182-.354.446-.923c.058-.124.124-.264.189-.413.8-1.765,2.078-4.824,2.062-6.44q-.025-2.659-.041-5.12c0-.149,0-.289-.009-.429-.025-5.285-.016-9.878.017-13.869v-.42c.016-1.74.041-3.364.074-4.882v-.429c.131-6.952.354-11.594.593-14.686.008-.14.025-.289.033-.42.421-5.2.866-5.714.866-5.714l-3.059-21.267h33.38s5.013,5.022,11.519,11.652c.14.132.273.264.4.4,2.359,2.4,4.906,5.005,7.463,7.652.108.108.207.206.3.305l3.009,3.109c.124.123.239.256.363.379,3.348,3.472,6.6,6.894,9.376,9.887.1.1.189.2.28.3a99.2,99.2,0,0,1,7.694,8.939,61.814,61.814,0,0,1,5.846,12.576v.008c.058.149.108.28.157.42C421.009,296.353,421.306,297.358,421.306,297.358Z" transform="translate(-339.514 -239.142)" fill="#8b383e"/>
        <g id="Group_4698" data-name="Group 4698" transform="translate(0.446 7.521)">
          <path id="Path_6748" data-name="Path 6748" d="M349.9,269.736a9.032,9.032,0,0,1-5.9,2.952c.008-.14.024-.289.033-.42a8.556,8.556,0,0,0,5.549-2.8,9.313,9.313,0,0,0,1.913-6.391l.412-.049A9.632,9.632,0,0,1,349.9,269.736Z" transform="translate(-341.114 -252.807)" fill="#662c33"/>
          <path id="Path_6749" data-name="Path 6749" d="M399.257,253.8c-.131.008-.255.016-.387.016-3.711,0-7.587-4.057-7.784-4.263l.3-.288c.049.057,3.908,4.1,7.47,4.131C398.994,253.531,399.126,253.663,399.257,253.8Z" transform="translate(-353.229 -249.268)" fill="#662c33"/>
          <path id="Path_6750" data-name="Path 6750" d="M360.8,343.67c-.074.181-.14.354-.206.519a19.665,19.665,0,0,1-6.811,1.278c-6.6,0-11.165-3.818-13.672-6.712.058-.124.124-.264.189-.413C343.511,342.1,350.364,347.653,360.8,343.67Z" transform="translate(-340.114 -272.186)" fill="#662c33"/>
          <path id="Path_6751" data-name="Path 6751" d="M377.685,270.993a34.672,34.672,0,0,1,.923,7.66,2.376,2.376,0,0,0-.412.239c-.016-12.451-7.224-22.165-7.306-22.272l.33-.247a42.887,42.887,0,0,1,6.358,14.192,3.779,3.779,0,0,0,1.65-2.367c1.039-4.37-3.686-11.511-3.727-11.585l.338-.231c.2.305,4.865,7.364,3.793,11.908A4.19,4.19,0,0,1,377.685,270.993Z" transform="translate(-348.032 -251.096)" fill="#662c33"/>
          <path id="Path_6752" data-name="Path 6752" d="M424.862,279.654c-1.228,1.336-2.383,2.474-2.49,2.573l-.223.223-.107-.3c-1.616-4.23-12.006-13.4-12.114-13.491l-.123-.115,1.731-2.87c.108.108.207.206.3.305l-1.451,2.408a10.114,10.114,0,0,0,4.461.7c.124.123.239.256.363.379a6.407,6.407,0,0,1-1.081.091,11.2,11.2,0,0,1-3.191-.553c2.358,2.127,9.689,8.922,11.371,12.707.651-.643,1.477-1.493,2.276-2.359C424.681,279.456,424.771,279.555,424.862,279.654Z" transform="translate(-358.045 -253.49)" fill="#662c33"/>
          <path id="Path_6753" data-name="Path 6753" d="M350.681,315.765l-.165.033a21.068,21.068,0,0,1-4.181.429,12.268,12.268,0,0,1-3.249-.388c0-.149,0-.289-.009-.429a17.886,17.886,0,0,0,7.183.025l-.693-17.16a5.569,5.569,0,0,1-2.589,2.936,5.012,5.012,0,0,1-2.293.511,7.384,7.384,0,0,1-1.591-.181v-.42a5.359,5.359,0,0,0,3.694-.281,5.625,5.625,0,0,0,2.655-3.455c-1.378.207-4.156-.495-6.275-1.146v-.428c2.284.692,5.376,1.492,6.489,1.1l.264-.091Z" transform="translate(-340.877 -261.243)" fill="#662c33"/>
          <path id="Path_6754" data-name="Path 6754" d="M442.394,313.894a20.92,20.92,0,0,1-14.876,5.986,23.987,23.987,0,0,1-2.5-.131l-.305-.446a20.766,20.766,0,0,0,17.523-5.83C442.3,313.623,442.345,313.754,442.394,313.894Z" transform="translate(-361.881 -265.788)" fill="#662c33"/>
        </g>
      </g>
      <path id="Path_6755" data-name="Path 6755" d="M381.931,116.673s-.918-2.112-4.793-2.113c-2.986,0-4.13,1.65-4.13,1.65-1.787,5.223-3.707,25.219-4.395,25.93-.348.361-22.5,15.28-22.5,15.28,12.021.225,19.522,15.044,19.522,15.044.388-4.869,13.965-24.165,14.111-25.886C380.022,143.332,385.765,128.836,381.931,116.673Z" transform="translate(-303.209 -98.273)" fill="#ce364c"/>
      <path id="Path_6756" data-name="Path 6756" d="M342.558,254.228s-.111,4.172,1.238,4.447a37.957,37.957,0,0,0,24.988-2.223c12.644-5.748,14.843-10.009,11.132-13.169S342.558,254.228,342.558,254.228Z" transform="translate(-302.294 -131.274)" fill="#ce364c"/>
      <path id="Path_6757" data-name="Path 6757" d="M329.414,175.063s-11.5-1.363-18.1,1.492c0,0-1.84,8.164,7.223,26.434s6.961,29.777,17.182,34.108c9.061,3.84,35.776-7.587,36.616-11.378,2.112-9.541-14.224-26.286-15.255-35.988S346.565,165.442,329.414,175.063Z" transform="translate(-294.216 -113.029)" fill="#f24052"/>
      <path id="Path_6758" data-name="Path 6758" d="M305.444,178.158c-8.04,2.855-17.084,11.882-17.1,16.233s7.544,6.029,7.544,6.029l12.389-6.029s3.544-2.474,1.288-9.686S305.444,178.158,305.444,178.158Z" transform="translate(-288.346 -114.632)" fill="#ce364c"/>
      <g id="Group_4700" data-name="Group 4700" transform="translate(41.089 62.647)">
        <path id="Path_6759" data-name="Path 6759" d="M352.712,185.9a13.644,13.644,0,0,1-7.233-2.184,3.864,3.864,0,0,1-1.76-2.372c-.455-2.856,2.326-4.307,2.445-4.368l.375.734c-.1.051-2.365,1.246-2.005,3.5a3.093,3.093,0,0,0,1.424,1.829,12.228,12.228,0,0,0,7.992,1.933A2.714,2.714,0,0,0,356,183.857a1.873,1.873,0,0,0,.051-1.469l.758-.326a2.684,2.684,0,0,1-.079,2.179,3.454,3.454,0,0,1-2.631,1.552A7.966,7.966,0,0,1,352.712,185.9Z" transform="translate(-343.669 -176.98)" fill="#cfd8dc"/>
      </g>
      <g id="Group_4701" data-name="Group 4701" transform="translate(30.464 64.87)">
        <path id="Path_6760" data-name="Path 6760" d="M338.836,195.376c-1.779,0-4.733-.742-5.147-3.662a14.522,14.522,0,0,1,.045-3.819c.177-1.61.316-2.882-.622-4.406a5.187,5.187,0,0,0-3.748-2.691l.05-.823a5.987,5.987,0,0,1,4.4,3.081,6.95,6.95,0,0,1,.74,4.929,13.578,13.578,0,0,0-.047,3.613c.447,3.151,4.464,2.954,4.634,2.945l.049.823C339.078,195.372,338.96,195.376,338.836,195.376Z" transform="translate(-329.364 -179.974)" fill="#cfd8dc"/>
      </g>
      <path id="Path_6761" data-name="Path 6761" d="M337.719,176.716s6.081-4.142,4.638-8.626-21.028-4.175-26.078,1.185,10.926,8.918,10.926,8.918C328.442,175.7,336.344,175.426,337.719,176.716Z" transform="translate(-295.279 -111.243)" fill="#ce364c"/>
      <path id="Path_6762" data-name="Path 6762" d="M329.344,177.286c-2.885-.98-4.6-3.062-3.977-5.467s13.023-2.469,15.376-.547S339.782,180.83,329.344,177.286Z" transform="translate(-297.839 -112.515)" fill="#a02e44"/>
      <path id="Path_6763" data-name="Path 6763" d="M328.917,170.336s2.553,4.361,1.373,6.759c0,0,8.759,3.024,8.759-1.877,0,0-1.651-3.673-1.029-6.047Z" transform="translate(-298.785 -112.324)" fill="#ef6e4b"/>
      <g id="Group_4705" data-name="Group 4705" transform="translate(22.58 31.343)">
        <path id="Path_6764" data-name="Path 6764" d="M323.623,157.691s-4.3-6.892-3.9-13.475c.2-3.291,1.892-4.581,1.892-4.581s-1.367-1.9.1-4.8c0,0,2.027,2.345,9.141,1.606,6.86-.714,7.544,4.177,7.544,4.177,4.9.729,1.6,15.56-1.826,17.076Z" transform="translate(-318.992 -134.832)" fill="#ffb878"/>
        <path id="Path_6765" data-name="Path 6765" d="M321.555,156.7s-2.473-2.468-2.778.417c-.353,3.343,2.683,4.689,3.277,3.626S321.555,156.7,321.555,156.7Z" transform="translate(-318.749 -140.206)" fill="#ff8b66"/>
        <path id="Path_6766" data-name="Path 6766" d="M345.612,156.935s2.473-2.468,2.778.417c.353,3.343-2.683,4.689-3.277,3.626S345.612,156.935,345.612,156.935Z" transform="translate(-325.487 -140.266)" fill="#ff8b66"/>
        <path id="Path_6767" data-name="Path 6767" d="M330.861,165.279c-5.488,0-8.585-3.585-8.585-14.336,0-5.545,2.822-8.947,8.968-8.947s8.737,3.4,8.737,8.947C339.981,162.5,336.531,165.279,330.861,165.279Z" transform="translate(-319.656 -136.675)" fill="#ff8b66"/>
        <path id="Path_6768" data-name="Path 6768" d="M342.8,158.926a1.3,1.3,0,1,1-1.424-.781A1.163,1.163,0,0,1,342.8,158.926Z" transform="translate(-324.29 -140.824)" fill="#db614d"/>
        <path id="Path_6769" data-name="Path 6769" d="M327.591,159.23a1.3,1.3,0,1,1-1.2-1.094A1.162,1.162,0,0,1,327.591,159.23Z" transform="translate(-320.372 -140.827)" fill="#db614d"/>
        <g id="Group_4702" data-name="Group 4702" transform="translate(13.352 11.261)">
          <path id="Path_6770" data-name="Path 6770" d="M339.464,151.071a.271.271,0,0,1-.209-.053,3.14,3.14,0,0,0-2.205-.431.278.278,0,0,1-.319-.219.273.273,0,0,1,.219-.32,3.663,3.663,0,0,1,2.639.536.274.274,0,0,1-.125.488Z" transform="translate(-336.726 -149.994)" fill="#ffb878"/>
        </g>
        <g id="Group_4703" data-name="Group 4703" transform="translate(5.347 11.241)">
          <path id="Path_6771" data-name="Path 6771" d="M326.188,151.1a.269.269,0,0,1-.178-.1.275.275,0,0,1,.038-.386,3.664,3.664,0,0,1,2.621-.616.275.275,0,0,1,.229.313.28.28,0,0,1-.313.229,3.16,3.16,0,0,0-2.188.5A.278.278,0,0,1,326.188,151.1Z" transform="translate(-325.947 -149.967)" fill="#ffb878"/>
        </g>
        <path id="Path_6772" data-name="Path 6772" d="M339.174,155.187c0,.681-.307,1.234-.686,1.234s-.685-.553-.685-1.234.307-1.234.685-1.234S339.174,154.506,339.174,155.187Z" transform="translate(-323.651 -139.752)" fill="#1a4850"/>
        <path id="Path_6773" data-name="Path 6773" d="M329.306,155.187c0,.681-.307,1.234-.686,1.234s-.685-.553-.685-1.234.307-1.234.685-1.234S329.306,154.506,329.306,155.187Z" transform="translate(-321.112 -139.752)" fill="#1a4850"/>
        <path id="Path_6774" data-name="Path 6774" d="M323.523,142.721a37.4,37.4,0,0,0,14.233,1.539s1.788,2.228,1.571,10.091c0,0,4.909-14.163-9.423-14.163s-7.876,13.849-7.876,13.849S320.856,145.375,323.523,142.721Z" transform="translate(-319.219 -136.21)" fill="#ffb878"/>
        <g id="Group_4704" data-name="Group 4704" transform="translate(11.142 12.522)">
          <path id="Path_6775" data-name="Path 6775" d="M334.161,158.27l-.411-.414,1.085-1.078c-1.052-1.488-1.046-4.932-1.046-5.086l.583,0c0,.036-.006,3.742,1.069,4.906l.191.206Z" transform="translate(-333.75 -151.692)" fill="#db614d"/>
        </g>
        <path id="Path_6776" data-name="Path 6776" d="M329.4,162.795s5.4.228,8.128-.494a3.62,3.62,0,0,1-3.7,4.124C329.4,166.63,329.4,162.795,329.4,162.795Z" transform="translate(-321.489 -141.9)" fill="#1a4850"/>
      </g>
      <path id="Path_6777" data-name="Path 6777" d="M360.221,182.957c1.031-.192.928,2.506,0,1.724S359.191,183.148,360.221,182.957Z" transform="translate(-306.65 -115.869)" fill="#cfd8dc"/>
      <path id="Path_6778" data-name="Path 6778" d="M343.088,200.236c-.157,1.036-2.672.055-1.629-.565S343.245,199.2,343.088,200.236Z" transform="translate(-301.947 -120.077)" fill="#cfd8dc"/>
      <path id="Path_6779" data-name="Path 6779" d="M328.094,208.137s-1.637,4.2-1.543,6.569.869,2.062.869,2.062a2.561,2.561,0,0,0-1.477,1.855c-.235,1.367,3.216,2.371,3.453,2.371s2.673-.928,2.673-.928l.51-7.756-2.155-1.354Z" transform="translate(-298.016 -122.35)" fill="#ef6e4b"/>
      <path id="Path_6780" data-name="Path 6780" d="M330.145,207.4a33.9,33.9,0,0,1,4.134,2.989c1.154,1.134.5,9.9,0,10.307s-4.294,1.263-5.023.786.284-3.053.284-3.053,1.908-.412,1.633.309a1.89,1.89,0,0,0,0,1.341l.784-.31a9.1,9.1,0,0,1,0-3.4c.384-1.443-2.686-2.966-3.058-5.606S330.145,207.4,330.145,207.4Z" transform="translate(-298.765 -122.161)" fill="#ff8b66"/>
      <path id="Path_6781" data-name="Path 6781" d="M288.965,199.911c-.954-4.12,3.134-5.577,8.823-4.874,6.6.814,20.144,2.54,23.089,9.686,0,0,.962,2.819-1.528,4.173C312.391,212.68,290.756,207.649,288.965,199.911Z" transform="translate(-288.47 -118.936)" fill="#ce364c"/>
      <path id="Path_6782" data-name="Path 6782" d="M312.4,196.729s-7.862-3.266-11.779-3.6S306.033,196.224,312.4,196.729Z" transform="translate(-291.264 -118.483)" fill="#a02e44"/>
      <g id="Group_4706" data-name="Group 4706" transform="translate(66.146)">
        <path id="Path_6783" data-name="Path 6783" d="M391.327,100.1a17.674,17.674,0,0,0-1.575,3.307c-.412,2.21-.651,3.43-1.427,4.444a4,4,0,0,0-.362,2.8s-3,1.542-5.525-.363a6.419,6.419,0,0,0,0-2.276c-.519-1.006-2.185-1.542-2.754-3.57a15.908,15.908,0,0,0-2.276-4.3s.487-1.055,1.378-.412,1.468,2.276,1.954,2.441a1.249,1.249,0,0,0,.3.066.063.063,0,0,1,.025.008,1.2,1.2,0,0,0,.981-.255.154.154,0,0,0,.058-.049c.816-.948,1.006-3.736.973-4.981-.05-1.731.016-4.123,1.072-3.719s.091,1.369.908,5.187l.4.049c.074.273.8-2.316.974-4.75.123-1.673,1.22-1.055,1.459-.527s-.124,2.193-.2,3.405c-.057.8-.123,1.632-.165,2.128l.462.255c1.666-2.9,1.1-4.106,2.07-4.164s.618,2.392.1,3.323a9.172,9.172,0,0,0-.611,2.07c1.707-1.971,1.517-3,2.3-2.878C392.646,97.465,391.92,99.419,391.327,100.1Z" transform="translate(-377.407 -92.631)" fill="#ff8b66"/>
        <path id="Path_6784" data-name="Path 6784" d="M385.22,107.878c-.577-1.592-2.639-2.317-2.894-2.4a1.2,1.2,0,0,0,.981-.255A2.9,2.9,0,0,1,385.22,107.878Z" transform="translate(-378.673 -95.871)" fill="#ef6e4b"/>
      </g>
      <g id="Group_4707" data-name="Group 4707" transform="translate(36.327 219.206)">
        <path id="Path_6785" data-name="Path 6785" d="M337.8,391.486s-1.141-2.328-.123-3.329,2.215.855,3.952.443,2.14-1.647,2.592.035S344.126,395.608,337.8,391.486Z" transform="translate(-337.258 -387.775)" fill="#cfd8dc"/>
        <path id="Path_6786" data-name="Path 6786" d="M344.345,392.632s-4.667,1.653-7.087,0l.615,2.02s5.073.537,5.772-.741Z" transform="translate(-337.258 -389.025)" fill="#adbec4"/>
        <path id="Path_6787" data-name="Path 6787" d="M344.521,395.954s-4.273-.593-6.335.469v1s5.571-1.3,7.372,0Z" transform="translate(-337.497 -389.837)" fill="#adbec4"/>
        <path id="Path_6788" data-name="Path 6788" d="M337.91,400.038a3.9,3.9,0,0,1,3.428-2.164,6.781,6.781,0,0,1,4.354,1.286A8.694,8.694,0,0,0,337.91,400.038Z" transform="translate(-337.426 -390.371)" fill="#adbec4"/>
      </g>
      <g id="Group_4709" data-name="Group 4709" transform="translate(120.532 196.641)">
        <path id="Path_6789" data-name="Path 6789" d="M476.9,361.567a34.667,34.667,0,0,1-19.37,13.054,8.188,8.188,0,0,1-3.324-5.657s-3.125-2.787-3.538-4.123,2.68-5.36,4.536-4.947a3.742,3.742,0,0,1,2.358,1.9c-1.534-3.455-.305-4.659,1.872-4.362,2.268.305.124.841,1.748,2.663a2.146,2.146,0,0,0,.388.338,2.678,2.678,0,0,0,1.055.421,4.851,4.851,0,0,0,1.163.057,6.044,6.044,0,0,0,.66-.066,8.838,8.838,0,0,0,1.294-.313,11.6,11.6,0,0,0,2.086-.9c2.836-1.55,4.032-2.078,6.193-1.526s2.119,2.178,2.119,2.178Z" transform="translate(-450.634 -357.393)" fill="#cfd8dc"/>
        <path id="Path_6790" data-name="Path 6790" d="M479.292,363.006a34.667,34.667,0,0,1-19.37,13.054c5.7-2.449,10.934-5.657,14.513-9.607S479.292,363.006,479.292,363.006Z" transform="translate(-453.023 -358.831)" fill="#adbec4"/>
        <g id="Group_4708" data-name="Group 4708" transform="translate(8.746 3.045)">
          <path id="Path_6791" data-name="Path 6791" d="M464.6,361.492a2.678,2.678,0,0,0,1.055.421,2.775,2.775,0,0,0-2.325,2.374l-.923-.3A2.441,2.441,0,0,1,464.6,361.492Z" transform="translate(-462.409 -361.492)" fill="#adbec4"/>
          <path id="Path_6792" data-name="Path 6792" d="M466.948,364.664l-.965.033a2.552,2.552,0,0,1,.561-2.638,4.851,4.851,0,0,0,1.163.057A2.752,2.752,0,0,0,466.948,364.664Z" transform="translate(-463.295 -361.638)" fill="#adbec4"/>
          <path id="Path_6793" data-name="Path 6793" d="M470.121,364.025l-.957.124a2.663,2.663,0,0,1-.008-2.21,8.836,8.836,0,0,0,1.294-.313A2.8,2.8,0,0,0,470.121,364.025Z" transform="translate(-464.085 -361.526)" fill="#adbec4"/>
        </g>
      </g>
      <path id="Path_6794" data-name="Path 6794" d="M345.375,227.9s2.117,11.427-2.164,15.981-1.45.812-.172-5.059S343.343,226.765,345.375,227.9Z" transform="translate(-301.876 -127.4)" fill="#ce364c"/>
      <path id="Path_6795" data-name="Path 6795" d="M373.522,221.013a20.324,20.324,0,0,1,10.281,8.451S379.088,219.314,373.522,221.013Z" transform="translate(-310.261 -125.613)" fill="#ce364c"/>
    </g>
    <g id="Group_4719" data-name="Group 4719" transform="translate(102.511 92.789)">
      <g id="Group_4711" data-name="Group 4711" transform="translate(0 0)">
        <path id="Path_6796" data-name="Path 6796" d="M136.367,103.185a17.712,17.712,0,0,1,3.508,1.052c1.915,1.178,2.98,1.82,4.252,1.927s1.786,2.289,1.786,2.289,4.995,1.093,5.277-2.057c0,0-2.793-3.952-2.988-4.485-.4-1.061.324-2.654-.8-4.438a15.923,15.923,0,0,1-1.662-4.577s-1.109-.348-1.23.744.7,2.616.5,3.087a1.257,1.257,0,0,1-.15.264.059.059,0,0,0-.011.024,1.2,1.2,0,0,1-.848.556.152.152,0,0,1-.075.01c-1.251-.031-3.444-1.762-4.345-2.622-1.25-1.2-3.067-2.755-3.476-1.7s.954.986,3.235,4.155l-.229.327c.152.238-2.255-.963-4.174-2.468-1.323-1.032-1.6.2-1.371.728s1.709,1.381,2.657,2.14c.631.494,1.293,1,1.687,1.306l-.121.514c-3.269-.714-3.78-1.944-4.476-1.262s1.357,2.064,2.4,2.3a9.191,9.191,0,0,1,1.944.937c-2.607-.058-3.243-.891-3.678-.227C133.532,102.4,135.468,103.17,136.367,103.185Z" transform="translate(-133.174 -92.843)" fill="#ff8b66"/>
        <path id="Path_6797" data-name="Path 6797" d="M148.368,102.217c-.792-1.5.054-3.512.164-3.757a1.2,1.2,0,0,1-.848.556A2.9,2.9,0,0,0,148.368,102.217Z" transform="translate(-136.858 -94.288)" fill="#ef6e4b"/>
      </g>
      <g id="Group_4712" data-name="Group 4712" transform="translate(135.319 0)">
        <path id="Path_6798" data-name="Path 6798" d="M330.194,103.185a17.722,17.722,0,0,0-3.509,1.052c-1.915,1.178-2.98,1.82-4.251,1.927s-1.786,2.289-1.786,2.289-4.995,1.093-5.277-2.057c0,0,2.793-3.952,2.988-4.485.4-1.061-.324-2.654.8-4.438a15.922,15.922,0,0,0,1.662-4.577s1.109-.348,1.23.744-.7,2.616-.5,3.087a1.257,1.257,0,0,0,.15.264.054.054,0,0,1,.01.024,1.2,1.2,0,0,0,.848.556.156.156,0,0,0,.076.01c1.251-.031,3.444-1.762,4.345-2.622,1.25-1.2,3.067-2.755,3.476-1.7s-.954.986-3.235,4.155l.229.327c-.151.238,2.254-.963,4.173-2.468,1.324-1.032,1.6.2,1.371.728s-1.708,1.381-2.657,2.14c-.631.494-1.293,1-1.687,1.306l.12.514c3.269-.714,3.78-1.944,4.476-1.262s-1.358,2.064-2.4,2.3a9.173,9.173,0,0,0-1.944.937c2.607-.058,3.243-.891,3.677-.227C333.029,102.4,331.093,103.17,330.194,103.185Z" transform="translate(-315.371 -92.843)" fill="#ff8b66"/>
        <path id="Path_6799" data-name="Path 6799" d="M324.074,102.217c.792-1.5-.054-3.512-.165-3.757a1.2,1.2,0,0,0,.848.556A2.9,2.9,0,0,1,324.074,102.217Z" transform="translate(-317.568 -94.288)" fill="#ef6e4b"/>
      </g>
      <path id="Path_6800" data-name="Path 6800" d="M254.675,290.032l-9.6-59.41-19.213,2.146-19.212-2.146-9.6,59.41-4.609,57.62s1.465,4.774,11.05,1.476c0,0,7.11-53.444,8.21-54.62S224.1,258.422,224.1,258.422h3.532s11.291,34.908,12.391,36.085,8.21,54.62,8.21,54.62c9.585,3.3,11.049-1.476,11.049-1.476Z" transform="translate(-148.426 -128.293)" fill="#0e3944"/>
      <path id="Path_6801" data-name="Path 6801" d="M228.736,153.159c1.214,1.181,7.184,3.312,10.337,0l2.138,2.1s-2.438,5.732-6.716,5.933-7.37-5.1-7.37-5.1Z" transform="translate(-157.347 -108.362)" fill="#0c476b"/>
      <path id="Path_6802" data-name="Path 6802" d="M252.061,140.653C259.207,137.576,282.3,129.4,282.3,129.4s15.521-19.446,18.687-22.332a6.11,6.11,0,0,1,4.441,4.9s-9.994,21.4-15.427,27.527-32.948,19.377-32.948,19.377Z" transform="translate(-163.763 -96.503)" fill="#0c476b"/>
      <path id="Path_6803" data-name="Path 6803" d="M215.258,151.58c2.126-1.344,12.8,5.8,12.8,5.8s13.877-7.369,17.134-5.942c0,0,2.934,3.927,4.114,14.024s1.257,51.645,1.257,51.645a72.456,72.456,0,0,1-21.949,3.3c-14.386,0-22.126-4.126-22.126-4.126S203.92,158.751,215.258,151.58Z" transform="translate(-151.973 -107.871)" fill="#ffb878"/>
      <path id="Path_6804" data-name="Path 6804" d="M230.053,150.241s1.537,4.834,0,6.7c0,0,1.6,3.349,4.465,3.5,3.314.171,4.464-3.5,4.464-3.5s-1.753-4.669,0-6.31Z" transform="translate(-158.1 -107.611)" fill="#ef6e4b"/>
      <g id="Group_4716" data-name="Group 4716" transform="translate(64.898 17.52)">
        <path id="Path_6805" data-name="Path 6805" d="M223.966,136.784s-3.234-6.225-2.594-12.878,10.664-8.179,17.419-4.91c0,0-2.005-1.961-1.221-2.506s2.138,2.942,2.138,2.942,2.134-.654,2.461,0-2.187,1.012-2.187,1.012,4.36,2.418.287,15.283Z" transform="translate(-220.744 -116.432)" fill="#8b383e"/>
        <path id="Path_6806" data-name="Path 6806" d="M223.291,138.194s-2.412-2.406-2.709.407c-.344,3.259,2.617,4.572,3.2,3.535S223.291,138.194,223.291,138.194Z" transform="translate(-220.555 -121.785)" fill="#ff8b66"/>
        <path id="Path_6807" data-name="Path 6807" d="M246.749,138.423s2.412-2.407,2.709.406c.344,3.26-2.617,4.573-3.2,3.536S246.749,138.423,246.749,138.423Z" transform="translate(-227.125 -121.844)" fill="#ff8b66"/>
        <path id="Path_6808" data-name="Path 6808" d="M232.366,146.557c-5.351,0-8.371-3.5-8.371-13.979,0-5.408,2.751-8.725,8.745-8.725s8.519,3.317,8.519,8.725C241.258,143.843,237.894,146.557,232.366,146.557Z" transform="translate(-221.44 -118.342)" fill="#ff8b66"/>
        <path id="Path_6809" data-name="Path 6809" d="M244,140.364a1.267,1.267,0,1,1-1.387-.762A1.133,1.133,0,0,1,244,140.364Z" transform="translate(-225.958 -122.388)" fill="#db614d"/>
        <path id="Path_6810" data-name="Path 6810" d="M229.178,140.659a1.267,1.267,0,1,1-1.17-1.067A1.134,1.134,0,0,1,229.178,140.659Z" transform="translate(-222.138 -122.39)" fill="#db614d"/>
        <g id="Group_4713" data-name="Group 4713" transform="translate(13.07 11.174)">
          <path id="Path_6811" data-name="Path 6811" d="M240.681,132.839a.265.265,0,0,1-.193-.082,3.059,3.059,0,0,0-2.06-.744.272.272,0,0,1-.276-.259.266.266,0,0,1,.258-.276,3.571,3.571,0,0,1,2.463.91.267.267,0,0,1-.193.452Z" transform="translate(-238.153 -131.477)" fill="#8b383e"/>
        </g>
        <g id="Group_4714" data-name="Group 4714" transform="translate(5.256 11.174)">
          <path id="Path_6812" data-name="Path 6812" d="M227.9,132.839a.264.264,0,0,1-.184-.074.268.268,0,0,1-.01-.378,3.571,3.571,0,0,1,2.463-.91.267.267,0,0,1,.258.276.273.273,0,0,1-.276.259,3.082,3.082,0,0,0-2.058.744A.269.269,0,0,1,227.9,132.839Z" transform="translate(-227.631 -131.477)" fill="#8b383e"/>
        </g>
        <path id="Path_6813" data-name="Path 6813" d="M240.471,136.717c0,.665-.3,1.2-.668,1.2s-.669-.539-.669-1.2.3-1.2.669-1.2S240.471,136.052,240.471,136.717Z" transform="translate(-225.335 -121.342)" fill="#1a4850"/>
        <path id="Path_6814" data-name="Path 6814" d="M230.85,136.717c0,.665-.3,1.2-.668,1.2s-.668-.539-.668-1.2.3-1.2.668-1.2S230.85,136.052,230.85,136.717Z" transform="translate(-222.86 -121.342)" fill="#1a4850"/>
        <path id="Path_6815" data-name="Path 6815" d="M231.313,146.514s4.718.608,7.146-.557c0,0-1.372,3.213-3.95,2.924A3.665,3.665,0,0,1,231.313,146.514Z" transform="translate(-223.323 -124.029)" fill="#1a4850"/>
        <path id="Path_6816" data-name="Path 6816" d="M240.208,135.589a28.2,28.2,0,0,0-2.433-10.293s-3.994,1.846-4.873,1.41.838-1.41.838-1.41-6.591,2.172-6.987,1.736,2.184-1.736,2.184-1.736l-4.106,1.41s-1.266,5.237-.742,8.884a17.058,17.058,0,0,1-1.982-5.147c-.218-2.1.706-8.095,6.89-8.531s9.657.968,11.19,3.807S241.529,132.05,240.208,135.589Z" transform="translate(-220.947 -117.822)" fill="#8b383e"/>
        <g id="Group_4715" data-name="Group 4715" transform="translate(10.651 13.591)">
          <path id="Path_6817" data-name="Path 6817" d="M236.1,141.945a4.956,4.956,0,0,1-1.208-.179l.152-.547c.562.154,1.442.247,1.634.021.066-.079.04-.262-.074-.5-.773-1.645-.934-5.809-.941-5.985l.569-.022c0,.042.163,4.225.887,5.764a.987.987,0,0,1-.007,1.11A1.3,1.3,0,0,1,236.1,141.945Z" transform="translate(-234.895 -134.731)" fill="#db614d"/>
        </g>
      </g>
      <path id="Path_6818" data-name="Path 6818" d="M244.494,153.562s9.685,30.065,10.607,54.527c0,0,3.5.962,7.432-4.4s1.595-47.815-5.946-54.884C256.587,148.808,253.166,148.028,244.494,153.562Z" transform="translate(-161.816 -107.233)" fill="#105e99"/>
      <path id="Path_6819" data-name="Path 6819" d="M245.742,159.524s1.733-4.028.963-6.79-3.494,0-3.494,0A29.708,29.708,0,0,0,245.742,159.524Z" transform="translate(-161.486 -107.937)" fill="#0c476b"/>
      <path id="Path_6820" data-name="Path 6820" d="M202.035,140.456C194.889,137.38,171.8,129.2,171.8,129.2s-15.56-20.012-18.725-22.9a8.9,8.9,0,0,0-4.183,6.8s9.776,20.061,15.208,26.187,32.949,19.377,32.949,19.377Z" transform="translate(-137.218 -96.306)" fill="#0c476b"/>
      <path id="Path_6821" data-name="Path 6821" d="M221.111,153.562s-9.685,30.065-10.607,54.527c0,0-3.5.962-7.432-4.4s-1.595-47.815,5.945-54.884C209.017,148.808,212.438,148.028,221.111,153.562Z" transform="translate(-150.673 -107.233)" fill="#105e99"/>
      <path id="Path_6822" data-name="Path 6822" d="M225.485,159.524s-1.733-4.028-.963-6.79,3.494,0,3.494,0A29.669,29.669,0,0,1,225.485,159.524Z" transform="translate(-156.627 -107.937)" fill="#0c476b"/>
      <g id="Group_4717" data-name="Group 4717" transform="translate(99.728 218.049)">
        <path id="Path_6823" data-name="Path 6823" d="M287.123,403.234H267.894a39.188,39.188,0,0,1,.8-15.3l8.791-1.509c.8,4.832,1.765,6.737,3.1,7.718h.008a13.5,13.5,0,0,0,3.587,1.443,4.613,4.613,0,0,1,2.969,2.762A8.174,8.174,0,0,1,287.123,403.234Z" transform="translate(-267.451 -386.429)" fill="#662c33"/>
        <path id="Path_6824" data-name="Path 6824" d="M288.932,401.026c-4.741.593-15.156,1.608-14.521-1.138.528-2.293,4.923-2.911,7.957-3.067h.008a13.494,13.494,0,0,0,3.587,1.443A4.612,4.612,0,0,1,288.932,401.026Z" transform="translate(-269.234 -389.103)" fill="#8b383e"/>
      </g>
      <g id="Group_4718" data-name="Group 4718" transform="translate(35.367 218.049)">
        <path id="Path_6825" data-name="Path 6825" d="M200.426,403.234H181.2a8.929,8.929,0,0,1-.33-3.7,4.657,4.657,0,0,1,3.274-3.942c1.666-.578,2.944-.792,3.991-1.774,1.138-1.072,1.987-3.05,2.7-7.388l8.791,1.509A39.36,39.36,0,0,1,200.426,403.234Z" transform="translate(-180.793 -386.429)" fill="#662c33"/>
        <path id="Path_6826" data-name="Path 6826" d="M180.892,402.091a4.657,4.657,0,0,1,3.274-3.942c1.666-.578,2.944-.792,3.991-1.774,2.432.751,5.838,2.128,6.893,4.214C196.519,403.451,185.279,403,180.892,402.091Z" transform="translate(-180.818 -388.988)" fill="#8b383e"/>
      </g>
    </g>
    <g id="Group_4727" data-name="Group 4727" transform="translate(189.894 145.612)">
      <g id="Group_4720" data-name="Group 4720" transform="translate(82.227 166.734)">
        <path id="Path_6827" data-name="Path 6827" d="M384.986,402.38a10.528,10.528,0,0,1-.083,1.377h-23.36c0-.462.008-.924.033-1.377a42.911,42.911,0,0,1,2.194-11.412l5.838-2.507a9.34,9.34,0,0,0,3.422,6.184,8.3,8.3,0,0,0,1.335.858c.215.116.429.223.651.322a11.265,11.265,0,0,0,1.493.553,36.49,36.49,0,0,0,5.607.981C384.606,397.746,384.986,400.624,384.986,402.38Z" transform="translate(-361.542 -388.461)" fill="#164353"/>
        <path id="Path_6828" data-name="Path 6828" d="M384.986,407.2a10.527,10.527,0,0,1-.083,1.377h-23.36c0-.462.008-.924.033-1.377Z" transform="translate(-361.542 -393.283)" fill="#225866"/>
        <path id="Path_6829" data-name="Path 6829" d="M377.446,397.645l-3.24,1.039-.684-1.188,2.589-.709A8.3,8.3,0,0,0,377.446,397.645Z" transform="translate(-364.624 -390.603)" fill="#225866"/>
        <path id="Path_6830" data-name="Path 6830" d="M380.47,398.928l-2.185,1.451-1.344-.528,2.037-1.476A11.27,11.27,0,0,0,380.47,398.928Z" transform="translate(-365.504 -391.012)" fill="#225866"/>
      </g>
      <g id="Group_4721" data-name="Group 4721" transform="translate(0 164.096)">
        <path id="Path_6831" data-name="Path 6831" d="M267.245,401.466a5.846,5.846,0,0,1-.264,1.377h-15.56a7.01,7.01,0,0,1-.437-1.377c-1.534-7.446,8.807-16.558,8.807-16.558l3.282,4.378s-.38,7.009,2.4,8.468A3.554,3.554,0,0,1,267.245,401.466Z" transform="translate(-250.829 -384.908)" fill="#164353"/>
        <path id="Path_6832" data-name="Path 6832" d="M251.038,407.2H267.3a5.844,5.844,0,0,1-.264,1.377h-15.56A7.008,7.008,0,0,1,251.038,407.2Z" transform="translate(-250.883 -390.644)" fill="#225866"/>
        <path id="Path_6833" data-name="Path 6833" d="M266.282,400.878s-6.556-1.5-9.545.44v-1.082S262.251,397.556,266.282,400.878Z" transform="translate(-252.349 -388.589)" fill="#225866"/>
        <path id="Path_6834" data-name="Path 6834" d="M264.983,398.64a10.694,10.694,0,0,0-8.246,0l.463-1.092S262.05,395.715,264.983,398.64Z" transform="translate(-252.349 -388.014)" fill="#225866"/>
      </g>
      <path id="Path_6835" data-name="Path 6835" d="M350.715,302.662c.008,6.259-5.55,57.285-5.55,57.285a32.462,32.462,0,0,1-10.011-.561c-1.526-25.86-1.674-48.1-1.674-48.1l-26.634-19.964-.066-.049s-.1.453-.28,1.261c-1.32,5.855-6.9,30.378-9.227,35.994-2.647,6.4-31.588,33.307-31.588,33.307-5.376-.742-9.938-4.636-9.938-4.636,10.39-17.235,24.556-34.518,24.556-34.518,1.105-6.209,1.9-20.021,2.367-30.345.008-.157.016-.322.025-.478.313-6.993.47-12.27.47-12.27l-4.882-10.01,31.013-11.4,6.951,8.9s1.592,1.476,4.1,3.834l.346.322C330,280.019,350.715,299.858,350.715,302.662Z" transform="translate(-252.094 -188.207)" fill="#8bbddb"/>
      <g id="Group_4722" data-name="Group 4722" transform="translate(30.575 79.483)">
        <path id="Path_6836" data-name="Path 6836" d="M292,300.768c.008-.157.016-.322.025-.478,6.531-3.546,5.434-9.2,5.417-9.26l.4-.082C297.858,291,299.029,297.082,292,300.768Z" transform="translate(-291.996 -276.12)" fill="#6097b2"/>
        <path id="Path_6837" data-name="Path 6837" d="M322.447,292.734a35.165,35.165,0,0,1,.478,4l-.066-.049s-.1.453-.28,1.261c-.289-9.7-4.288-15.428-4.337-15.494l.338-.239a27.961,27.961,0,0,1,3.785,10.052c4.717-4.19.1-12.773.05-12.856l.362-.2C322.827,279.3,327.717,288.389,322.447,292.734Z" transform="translate(-298.749 -273.101)" fill="#6097b2"/>
        <path id="Path_6838" data-name="Path 6838" d="M340.772,274.53c-.008.008-.025.008-.033.017a1.783,1.783,0,0,1-.643.107c-2.284,0-6.118-3.2-6.3-3.356l.272-.313c1.246,1.055,4.717,3.587,6.358,3.224Z" transform="translate(-302.751 -270.984)" fill="#6097b2"/>
      </g>
      <path id="Path_6839" data-name="Path 6839" d="M289.013,201.526s9.433-1.518,14.16,1.5S314.106,213.9,314.106,213.9s-7.368.973-8.2,5.977C305.9,219.876,300.552,207.13,289.013,201.526Z" transform="translate(-260.653 -173.531)" fill="#adbec4"/>
      <path id="Path_6840" data-name="Path 6840" d="M266.1,206.561c-3.991,2.158-10.662,10.257-10.962,15.238-.294,4.858,3.3,9.326,5.731,13.124,7.57,11.853,15.541,22.326,18.928,36.228.022.088,17.316,6.951,37.614-17.447,0,0-11.469-15.431-15.431-28.569-1.613-5.348-3.254-11.028-6.352-15.742a16.86,16.86,0,0,0-15.335-7.753C275.149,202.057,270.033,204.435,266.1,206.561Z" transform="translate(-251.934 -173.646)" fill="#cfd8dc"/>
      <path id="Path_6841" data-name="Path 6841" d="M267.65,201.185s2.553,4.361,1.373,6.759c0,0,8.758,3.024,8.758-1.877,0,0-1.65-3.673-1.029-6.048Z" transform="translate(-255.157 -173.242)" fill="#ef6e4b"/>
      <path id="Path_6842" data-name="Path 6842" d="M290.936,241.8s-4.871,1.384-6.1,3.109a24.231,24.231,0,0,0-2.323,5.593h8.425l1.584-2.914,1.855-3.884Z" transform="translate(-258.981 -183.991)" fill="#ef6e4b"/>
      <g id="Group_4726" data-name="Group 4726" transform="translate(3.328 0)">
        <path id="Path_6843" data-name="Path 6843" d="M276.047,187.679s3.421-1.434,1.208-11.722c-1.466-6.817-3.578-7.833-4.943-7.893,0,0-1.67-2.516-7.46-1.312a10.759,10.759,0,0,0-8.524,7.691c-1.454,4.652,1.454,14.625,5.284,15.618Z" transform="translate(-255.474 -164.599)" fill="#164353"/>
        <path id="Path_6844" data-name="Path 6844" d="M284.018,185.215s2.156-3,2.97-.043c.943,3.426-1.993,5.353-2.794,4.346S284.018,185.215,284.018,185.215Z" transform="translate(-262.637 -169.086)" fill="#ff8b66"/>
        <path id="Path_6845" data-name="Path 6845" d="M258.833,189.684s-3.005-2.149-2.826.914c.207,3.547,3.607,4.43,4.043,3.218S258.833,189.684,258.833,189.684Z" transform="translate(-255.488 -170.394)" fill="#ff8b66"/>
        <path id="Path_6846" data-name="Path 6846" d="M270.883,196.17c5.724-.944,8.338-5.216,6.488-16.432-.954-5.785-4.483-8.847-10.895-7.79S257.949,177,258.9,182.785C260.892,194.836,264.969,197.145,270.883,196.17Z" transform="translate(-256.179 -165.966)" fill="#ff8b66"/>
        <path id="Path_6847" data-name="Path 6847" d="M262.42,191.208a1.374,1.374,0,1,0,1.35-1.059A1.229,1.229,0,0,0,262.42,191.208Z" transform="translate(-257.14 -170.702)" fill="#db614d"/>
        <path id="Path_6848" data-name="Path 6848" d="M278.336,188.9a1.374,1.374,0,1,0,1.062-1.348A1.229,1.229,0,0,0,278.336,188.9Z" transform="translate(-261.229 -170.023)" fill="#db614d"/>
        <g id="Group_4723" data-name="Group 4723" transform="translate(6.602 12.395)">
          <path id="Path_6849" data-name="Path 6849" d="M264.489,182.518a.29.29,0,0,1-.24-.453,3.882,3.882,0,0,1,2.475-1.409.288.288,0,0,1,.325.25.292.292,0,0,1-.249.326,3.337,3.337,0,0,0-2.072,1.159A.289.289,0,0,1,264.489,182.518Z" transform="translate(-264.199 -180.654)" fill="#1a4850"/>
        </g>
        <g id="Group_4724" data-name="Group 4724" transform="translate(14.816 11.358)">
          <path id="Path_6850" data-name="Path 6850" d="M278.113,180.381a.289.289,0,0,1-.174-.059,3.329,3.329,0,0,0-2.333-.433.286.286,0,0,1-.341-.228.291.291,0,0,1,.228-.341,3.878,3.878,0,0,1,2.795.539.29.29,0,0,1-.175.521Z" transform="translate(-275.259 -179.258)" fill="#1a4850"/>
        </g>
        <path id="Path_6851" data-name="Path 6851" d="M265.983,186.649c.117.712.533,1.235.927,1.17s.62-.694.5-1.406-.533-1.234-.927-1.169S265.866,185.939,265.983,186.649Z" transform="translate(-258.048 -169.439)" fill="#1a4850"/>
        <path id="Path_6852" data-name="Path 6852" d="M276.276,184.951c.117.711.533,1.234.928,1.17s.62-.694.5-1.405-.533-1.235-.928-1.17S276.159,184.241,276.276,184.951Z" transform="translate(-260.697 -169.002)" fill="#1a4850"/>
        <path id="Path_6853" data-name="Path 6853" d="M276.5,194.131s-4.966,1.332-7.72.8c0,0,1.9,2.4,4.621,1.707S276.5,194.131,276.5,194.131Z" transform="translate(-258.777 -171.727)" fill="#1a4850"/>
        <path id="Path_6854" data-name="Path 6854" d="M273.862,173.975a29.939,29.939,0,0,1-14.573,5.035l.23,7.22s-7.559-13.929,7.391-16.4,10.6,13.091,10.6,13.091S277.047,176.215,273.862,173.975Z" transform="translate(-255.902 -165.407)" fill="#0e3944"/>
        <g id="Group_4725" data-name="Group 4725" transform="translate(11.882 14.461)">
          <path id="Path_6855" data-name="Path 6855" d="M272.1,189.439l-.042-.624c.009,0,.871-.068,1.1-.6.093-.22-.275-.921-.6-1.539a11.817,11.817,0,0,1-1.248-3.116l.613-.123a11.281,11.281,0,0,0,1.188,2.949c.481.917.828,1.58.622,2.071A1.993,1.993,0,0,1,272.1,189.439Z" transform="translate(-271.309 -183.436)" fill="#db614d"/>
        </g>
        <path id="Path_6856" data-name="Path 6856" d="M276.777,172.55c-10.869-4.716-21.126,5.063-21.126,5.063s-1.2-7.924.9-9.779a12.482,12.482,0,0,1,1.74-1.295,18.35,18.35,0,0,1,14.108-1.93,3.561,3.561,0,0,1,1.328.742C275.457,167.149,276.777,172.55,276.777,172.55Z" transform="translate(-255.31 -163.966)" fill="#ce364c"/>
        <path id="Path_6857" data-name="Path 6857" d="M276.275,170.786a25.7,25.7,0,0,0-17.638,3.826s-.544-5.112.47-8.072a18.35,18.35,0,0,1,14.108-1.93C274.923,166.556,276.275,170.786,276.275,170.786Z" transform="translate(-256.129 -163.966)" fill="#cfd8dc"/>
        <path id="Path_6858" data-name="Path 6858" d="M256.978,177.321s1.447-6.146,3.4-7.877c3.243-2.879,12.356-3.869,17.145-2.138s0,6.964,0,6.964S269.886,168.8,256.978,177.321Z" transform="translate(-255.739 -164.605)" fill="#a02e44"/>
      </g>
      <path id="Path_6859" data-name="Path 6859" d="M274.11,236.073a30.422,30.422,0,0,0,10.084,9.178s7.948-6.9,18.253-6.278c0,0-8.541,15.41-15.875,17.116-3.853.9-17.789-8.332-17.789-8.332S271.564,237.95,274.11,236.073Z" transform="translate(-255.448 -182.518)" fill="#ff8b66"/>
      <path id="Path_6860" data-name="Path 6860" d="M256.84,221.33c3.413-5.558,11.29,2.658,13.97,8.526s4.636,7.112,4.636,7.112-7.869,3.287-7.813,9.186C267.633,246.153,249.39,233.457,256.84,221.33Z" transform="translate(-251.916 -178.25)" fill="#adbec4"/>
      <path id="Path_6861" data-name="Path 6861" d="M289.533,238.215s4.793-4.7,20.555-10.841l-2.036-6.4a7.027,7.027,0,0,1,5.133-2.38s8.075,11.4,6.685,14.81C319,235.53,302.158,237.762,289.533,238.215Z" transform="translate(-260.787 -178.021)" fill="#ef6e4b"/>
      <path id="Path_6862" data-name="Path 6862" d="M312.774,229.881a4.206,4.206,0,0,1,.707-1.5c.582-.822.425-2.319.634-2.783a7.958,7.958,0,0,1,2.272-2.728c.823-.369,1.9-.972,2.132.072s-1.474.749-2.239,2.251a6.633,6.633,0,0,1,3-.227c1.328.314,1.7,1.529.064,1.488a7.363,7.363,0,0,0-2.994.9s1.705.256,1.43,1.043C317.4,229.488,315.321,228.819,312.774,229.881Z" transform="translate(-266.767 -178.991)" fill="#ff8b66"/>
    </g>
    <g id="Group_4741" data-name="Group 4741" transform="translate(73.65 139.861)">
      <path id="Path_6863" data-name="Path 6863" d="M155.059,249.5c1.409,3.607,7.18,9.792,7.18,9.792s14.1-8.452,20.6-4.9,11.674,5.726,15.892,4.177-13.871-34.447-13.871-34.447l-23.454-8.95s-.512,5.932-3.191,6.986-5.537,10.847-5.345,12.7S155.059,249.5,155.059,249.5Z" transform="translate(-109.38 -171.391)" fill="#3e6575"/>
      <path id="Path_6864" data-name="Path 6864" d="M171.85,270.9s-6.047,11.855-18.534,27.038c0,0-1.28,18.054-34.3,46.461l-3.457-2.719s19.663-30.8,23.6-40.244-2.174-18.1,15.92-41.982Z" transform="translate(-99.782 -182.783)" fill="#ef6e4b"/>
      <path id="Path_6865" data-name="Path 6865" d="M162.2,246.62c-5.206,9.972-6.953,22.722-6.953,22.722l-2.371,5.981A66.7,66.7,0,0,0,171,281.507l3.895-10.308Z" transform="translate(-109.383 -179.481)" fill="#662c33"/>
      <path id="Path_6866" data-name="Path 6866" d="M194.973,273.608s2.578,13.056,2.153,32.709c0,0,10.159,14.98,1.775,57.722h-4.4s-3.592-36.364-6.341-46.219-12.9-12.877-13.448-42.838Z" transform="translate(-115.001 -186.425)" fill="#ff8b66"/>
      <g id="Group_4729" data-name="Group 4729" transform="translate(51.959 67.068)">
        <path id="Path_6867" data-name="Path 6867" d="M194.865,280.681s-8.271,1.484-22.841.8l-.231-1.641-.057-.42L170.226,268.8a28.583,28.583,0,0,1-2.845-4.552c-.173-.33-.338-.668-.5-1.022-1.962-4.181-3.7-10.258-1.748-16.6l3.076.14.429.025,10.291.47.437.025,3.381.156.528.025,2.193.1s11.149,10.035,9.161,28.589l.14,2.581.016.42Z" transform="translate(-164.274 -246.551)" fill="#8b383e"/>
        <g id="Group_4728" data-name="Group 4728" transform="translate(2.421)">
          <path id="Path_6868" data-name="Path 6868" d="M169.473,246.764c-.289.85-2.235,7.149-1.254,17.457-.173-.33-.338-.668-.5-1.022-.734-9.425.957-15.3,1.328-16.459.049-.14.074-.206.074-.215l.387.14C169.506,246.674,169.49,246.707,169.473,246.764Z" transform="translate(-167.534 -246.525)" fill="#662c33"/>
          <path id="Path_6869" data-name="Path 6869" d="M197.367,279.21c-2.927.75-7.891.957-12.608.957-4.23,0-8.246-.173-10.382-.273l-.057-.42c3.7.181,13.449.561,19.732-.123l-.4-6.638a41.823,41.823,0,0,0-4.5-18.924,9.237,9.237,0,0,1-7.636-6.473c-.05-.189-.074-.305-.074-.313l.4-.065c0,.007.033.156.107.4a8.8,8.8,0,0,0,6.96,5.978,40.972,40.972,0,0,0-3.579-5.822c-.181-.247-.3-.387-.3-.4l.313-.264c.016.016.206.247.519.685,1.913,2.6,8.37,12.369,8.2,25.175l.4,6.6a21.816,21.816,0,0,0,2.886-.511Z" transform="translate(-169.28 -246.605)" fill="#662c33"/>
        </g>
      </g>
      <path id="Path_6870" data-name="Path 6870" d="M166.949,186.3c-3.282-1.808-26.932,7.467-26.932,7.467s-3.5,6.241-1.318,8.688,9.92,1.368,12.29,0,8.65-2.4,8.65-2.4Z" transform="translate(-105.551 -163.902)" fill="#8bbddb"/>
      <path id="Path_6871" data-name="Path 6871" d="M197.973,158.936a12.361,12.361,0,0,1,6.673,7.514c1.787,5.628-3.555,19.877-1.709,26.427s1.56,18.919-4.207,21.53-17.592-2.062-20.131-9.208-1.443-34.22,3.437-43.428S196.8,157.2,197.973,158.936Z" transform="translate(-115.66 -156.223)" fill="#f24052"/>
      <path id="Path_6872" data-name="Path 6872" d="M193.656,191.721c1.289,1.389,4.6-1.087,4.6-1.087s-.068,12.281-3.637,13.223-12.667-9.675-12.293-12.561S190.8,188.64,193.656,191.721Z" transform="translate(-116.957 -164.724)" fill="#8bbddb"/>
      <path id="Path_6873" data-name="Path 6873" d="M174.955,188.436a25.194,25.194,0,0,0,9.9,4.524c6.291,1.459,9.7-1.5,12.917,2.557,4.828,6.088-3.027,17.311-7.161,23.126a34.667,34.667,0,0,0-5.449,13.952s-10.915,3.171-20.327-.945l-.7-13.39S158.2,200.214,174.955,188.436Z" transform="translate(-112.016 -164.511)" fill="#0e3944"/>
      <path id="Path_6874" data-name="Path 6874" d="M194.251,201.534s4.987-11.886,6.431-12.644,5.107,1.063,5.843,2.689,0,5.172,0,5.172S202.592,192.262,194.251,201.534Z" transform="translate(-120.028 -164.582)" fill="#8bbddb"/>
      <path id="Path_6875" data-name="Path 6875" d="M217.165,252.923c-2.267,4.642-7.834,5.978-7.834,5.978s-.42-.643-1.13-1.8c-.074-.115-.157-.247-.231-.379-4.378-7.1-17.762-29.817-17.5-41.634a30.833,30.833,0,0,1,9.516-21.868c4.675,1.113,6.152,2.392,6.152,2.392a57.774,57.774,0,0,1,.131,17.7c-1.443,9.656-4.065,12.212-2.746,12.938s0,2.161,0,2.161,7.76,10.81,9.211,14.175c.94,2.193,2.539,5.92,3.538,8.246.065.166.131.331.2.478Z" transform="translate(-119.055 -165.742)" fill="#6097b2"/>
      <path id="Path_6876" data-name="Path 6876" d="M207.112,196.439s-5.556,4.118-2.319,10.411l15.4,15.942c-8.452,9.006-9.29,12.7-15.4,16.856l2.319,3.592s21.4-16.445,21.429-20.447C228.554,221.078,215.471,200.351,207.112,196.439Z" transform="translate(-122.479 -166.57)" fill="#ff8b66"/>
      <path id="Path_6877" data-name="Path 6877" d="M201.511,254.615a46.023,46.023,0,0,0-4.784.787c-1.849.463-4.313.925-4.39,1.309s4.082,0,4.082,0-3.388,1.393-3.465,1.929,4.313-.388,4.313-.388-2.773,1.694-2.619,2.157,3.569-.694,3.569-.694a10.76,10.76,0,0,1-1.294,2.388s.662.363,2-1.127,3.486-1.012,5.183-2.335S203.055,254.416,201.511,254.615Z" transform="translate(-119.535 -181.536)" fill="#ff8b66"/>
      <path id="Path_6878" data-name="Path 6878" d="M175.083,189.886s-4.227,2.731-6.9,9.328-11.092,19.01-13.066,22.218-.6,20.661-.6,20.661-2.474-10.583-3.573-14.706,3.55-14.311,4.249-14.851,4.271.449,3.584-3.688,8.9-21.961,11.459-22.463C170.243,186.385,174.342,187.155,175.083,189.886Z" transform="translate(-108.844 -163.983)" fill="#6097b2"/>
      <path id="Path_6879" data-name="Path 6879" d="M160.582,189.7a3.131,3.131,0,0,1-.255.413,10.7,10.7,0,0,1-2.738,2.473s-3.225,4.519-3.258,5.039c-.033.446-5.6,4.486-8.072,4.4h-.008a1.223,1.223,0,0,1-.817-.281c-1.468-1.385,5-13.012,6.424-15.519.091-.165.165-.288.215-.371.033-.066.058-.108.058-.108s-1.139-4.238,3.612-3.447c3.95.651,4.733,3.794,5.145,5.9A2.246,2.246,0,0,1,160.582,189.7Z" transform="translate(-107.412 -162.909)" fill="#6097b2"/>
      <path id="Path_6880" data-name="Path 6880" d="M142.617,193c3.263-4.288,14.743-12.607,20.791-15.07l1.512,2.81S153.234,191.01,150.489,195.4s-6.146,6.213-9.395,4.749S141.931,193.9,142.617,193Z" transform="translate(-106.032 -161.807)" fill="#ff8b66"/>
      <path id="Path_6881" data-name="Path 6881" d="M157.818,188.767l-.619.709-.313.363-1.023,1.171s-2.573,3.117-2.473,4.371c.074.9-4.882,4.923-8.757,6.6-1.575.684-2.977.981-3.794.511-2.8-1.616-2.177-6.473-.585-9.763,1.385-2.87,7.512-6.572,9.087-7.479a4.065,4.065,0,0,1,.363-.215l.008-.008.585-2.276s2.136-1.286,3.818-.5c0,0-3.711.157-3.1,1.6C151.641,185.3,156.787,188.717,157.818,188.767Z" transform="translate(-105.786 -162.854)" fill="#8bbddb"/>
      <g id="Group_4730" data-name="Group 4730" transform="translate(56.484 4.966)">
        <path id="Path_6882" data-name="Path 6882" d="M179.388,171.957c-3.735,1.534-3.2,4.915-6.621,4.915-2.12,0-2.4-2.425-2.4-2.425a26.111,26.111,0,0,0,1.7-7.281c.14-1.682.7-1.031.7-1.031,0-.157-.008-.305-.016-.454-.05-1.13-.256-1.954.486-1.468.841.544,1.13,3.744,1.13,3.744.692-4.667-.338-5.36.47-4.948,1.1.561,1.113,4.684,1.113,4.808.891-2.713.652-4.263,1.27-3.644s-.313,5.607-.684,7.437c-.082.412-.14.668-.14.668C179.355,170.827,179.388,171.957,179.388,171.957Z" transform="translate(-170.367 -162.909)" fill="#ff8b66"/>
        <path id="Path_6883" data-name="Path 6883" d="M177.8,174.625c-.082.412-.14.668-.14.668a2.733,2.733,0,0,0-2.366,1.344A2.442,2.442,0,0,1,177.8,174.625Z" transform="translate(-171.635 -165.923)" fill="#ef6e4b"/>
        <path id="Path_6884" data-name="Path 6884" d="M173.8,170.444c.025-.4.19-2.663-.206-3.348,0-.157-.008-.305-.016-.454C174.433,166.824,173.889,169.966,173.8,170.444Z" transform="translate(-171.193 -163.869)" fill="#ef6e4b"/>
      </g>
      <path id="Path_6885" data-name="Path 6885" d="M177,194.954s2.524-6.842,3.327-8.37,4.986-1.266,8.151-.675,3.812,4.829,3.812,4.829S182.657,186.194,177,194.954Z" transform="translate(-115.588 -163.741)" fill="#8bbddb"/>
      <path id="Path_6886" data-name="Path 6886" d="M195.54,178.826a27.526,27.526,0,0,0-2.976,11.777s-4.912,3.338-6.67-.843a31.767,31.767,0,0,0,.964-12.873C186.254,171.934,195.54,178.826,195.54,178.826Z" transform="translate(-117.878 -161.079)" fill="#ef6e4b"/>
      <g id="Group_4734" data-name="Group 4734" transform="translate(64.735 0.952)">
        <path id="Path_6887" data-name="Path 6887" d="M184.757,169.078s-.9-3.2-2.5-.951c-1.853,2.607.036,5.141,1.024,4.536S184.757,169.078,184.757,169.078Z" transform="translate(-181.476 -160.031)" fill="#ff8b66"/>
        <path id="Path_6888" data-name="Path 6888" d="M204.323,180.714s3.2-.891,2.109,1.644c-1.269,2.936-4.415,2.635-4.41,1.477S204.323,180.714,204.323,180.714Z" transform="translate(-186.762 -163.437)" fill="#ff8b66"/>
        <path id="Path_6889" data-name="Path 6889" d="M186.336,181.351c-4.551-2.562-5.445-6.981-.425-15.9,2.589-4.6,6.517-6.1,11.614-3.232s5.655,6.9,3.065,11.5C195.2,183.3,191.037,184,186.336,181.351Z" transform="translate(-181.744 -158.342)" fill="#ff8b66"/>
        <path id="Path_6890" data-name="Path 6890" d="M201.608,180.865a1.237,1.237,0,1,1-.815-1.312A1.106,1.106,0,0,1,201.608,180.865Z" transform="translate(-186.059 -163.155)" fill="#db614d"/>
        <path id="Path_6891" data-name="Path 6891" d="M188.876,174a1.236,1.236,0,1,1-.484-1.467A1.105,1.105,0,0,1,188.876,174Z" transform="translate(-182.827 -161.31)" fill="#db614d"/>
        <g id="Group_4731" data-name="Group 4731" transform="translate(14.413 9.638)">
          <path id="Path_6892" data-name="Path 6892" d="M202.67,172.789a.261.261,0,0,1-.253-.2,2.993,2.993,0,0,0-1.394-1.619.261.261,0,1,1,.241-.463,3.489,3.489,0,0,1,1.658,1.953.261.261,0,0,1-.189.317A.24.24,0,0,1,202.67,172.789Z" transform="translate(-200.882 -170.481)" fill="#1a4850"/>
        </g>
        <g id="Group_4732" data-name="Group 4732" transform="translate(7.372 6.507)">
          <path id="Path_6893" data-name="Path 6893" d="M193.981,167.259a.263.263,0,0,1-.135-.037,3,3,0,0,0-2.108-.353.261.261,0,0,1-.152-.5,3.476,3.476,0,0,1,2.53.406.261.261,0,0,1-.135.484Z" transform="translate(-191.402 -166.265)" fill="#1a4850"/>
        </g>
        <path id="Path_6894" data-name="Path 6894" d="M200.28,176.014c-.319.564-.831.879-1.145.7s-.31-.778.007-1.344.831-.879,1.145-.7S200.6,175.449,200.28,176.014Z" transform="translate(-185.959 -161.908)" fill="#1a4850"/>
        <path id="Path_6895" data-name="Path 6895" d="M191.69,171.407c-.319.565-.831.88-1.145.7s-.31-.778.007-1.344.831-.88,1.145-.7S192.008,170.841,191.69,171.407Z" transform="translate(-183.749 -160.723)" fill="#1a4850"/>
        <path id="Path_6896" data-name="Path 6896" d="M189.174,179.7s2.611,1.992,4.5,2.053c0,0-2.006,1.634-3.448.574A2.6,2.6,0,0,1,189.174,179.7Z" transform="translate(-183.444 -163.215)" fill="#1a4850"/>
        <path id="Path_6897" data-name="Path 6897" d="M198.91,174.575s1.2-1.159,1.689-.751.234,1.834.234,1.834l1.048.027-.867-.349s.279-1.481-.26-1.788C199.987,173.111,198.91,174.575,198.91,174.575Z" transform="translate(-185.961 -161.611)" fill="#1a4850"/>
        <path id="Path_6898" data-name="Path 6898" d="M191.97,171.088s.369-1.625-.234-1.833-1.688.751-1.688.751l-.567-.883.748.561s1.121-1.007,1.663-.7C192.664,169.408,191.97,171.088,191.97,171.088Z" transform="translate(-183.535 -160.442)" fill="#1a4850"/>
        <path id="Path_6899" data-name="Path 6899" d="M199.44,163.291a2.6,2.6,0,0,0-3.881-.466c-2.251,1.8-7.329,4.678-9.827,3.726s5.465-11.594,12.379-8.477,6.291,13.263,3.416,16.488-1.515.22-1.515.22a36.181,36.181,0,0,1,1.153-7.609A2.884,2.884,0,0,0,199.44,163.291Z" transform="translate(-182.45 -157.504)" fill="#f24052"/>
        <g id="Group_4733" data-name="Group 4733" transform="translate(8.932 13.229)">
          <path id="Path_6900" data-name="Path 6900" d="M193.9,177.535a1.62,1.62,0,0,1-.394-.051l.138-.546a.65.65,0,0,0,.8-.27.7.7,0,0,0,.01-.737c-.072-.075-.195-.067-.367.023l-.261-.5a.81.81,0,0,1,1.036.088,1.238,1.238,0,0,1,.068,1.41A1.156,1.156,0,0,1,193.9,177.535Z" transform="translate(-193.502 -175.316)" fill="#db614d"/>
        </g>
      </g>
      <g id="Group_4736" data-name="Group 4736" transform="translate(80.259 29.749)">
        <path id="Path_6901" data-name="Path 6901" d="M229.505,222.119c-.272,4-10.167,17.019-11.816,17.481a4.389,4.389,0,0,0-1.278.635c-.173.124-.346.256-.511.388a12.486,12.486,0,0,0-1.65,1.632c-2.886-.189-10.991-3.942-8.386-4.766a1.994,1.994,0,0,0,.52-.273,3.016,3.016,0,0,0,.338-.264c3.067-2.573,9.037-13.012,9.079-13.8.033-.865,1.064-1.03,1.064-1.03s-5.632-8.271-8.9-9.269-4.915-4.947-4.915-4.947c-3.224-13.647,6.152-11.5,6.152-11.5C216.114,200.514,229.777,218.111,229.505,222.119Z" transform="translate(-202.377 -196.277)" fill="#8bbddb"/>
        <g id="Group_4735" data-name="Group 4735" transform="translate(4.007 40.676)">
          <path id="Path_6902" data-name="Path 6902" d="M217.8,254.326c-.173.124-.346.256-.511.388a20.639,20.639,0,0,1-9.516-3.406,3.017,3.017,0,0,0,.338-.264A20.059,20.059,0,0,0,217.8,254.326Z" transform="translate(-207.772 -251.044)" fill="#3e6575"/>
        </g>
      </g>
      <g id="Group_4737" data-name="Group 4737" transform="translate(43.555 22.177)">
        <path id="Path_6903" data-name="Path 6903" d="M162.573,190.7a3.133,3.133,0,0,1-.256.413,10.689,10.689,0,0,1-1.814-.223,13.633,13.633,0,0,1-6.655-3.662c-.338-.33-.635-.643-.891-.931a4.056,4.056,0,0,1,.363-.215c.214.239.461.5.742.775a13.125,13.125,0,0,0,6.753,3.669A10.008,10.008,0,0,0,162.573,190.7Z" transform="translate(-152.958 -186.083)" fill="#3e6575"/>
      </g>
      <g id="Group_4738" data-name="Group 4738" transform="translate(88.916 85.085)">
        <path id="Path_6904" data-name="Path 6904" d="M222.535,271.262a11.62,11.62,0,0,1-8.271,5.8c-.074-.115-.157-.247-.231-.379a11.32,11.32,0,0,0,8.3-5.9C222.4,270.95,222.469,271.115,222.535,271.262Z" transform="translate(-214.033 -270.784)" fill="#3e6575"/>
      </g>
      <g id="Group_4739" data-name="Group 4739" transform="translate(0 153.42)">
        <path id="Path_6905" data-name="Path 6905" d="M116.686,369.965a14.509,14.509,0,0,0-2.1,2.878c-1.072,1.863.107,3.579-5.08,7.9,0,0-10.464-6.127-15.188-14a3.048,3.048,0,0,1,2.366-2.779c1.228-.281,4.609,1.3,7.859,1.913a13.359,13.359,0,0,0,1.377.189,7.987,7.987,0,0,0,1.665-.008,4.926,4.926,0,0,0,1.4-.338h.008a4.165,4.165,0,0,0,2.432-2.928,2.846,2.846,0,0,1,.924,4.263S115.647,365.611,116.686,369.965Z" transform="translate(-94.315 -362.791)" fill="#cfd8dc"/>
        <path id="Path_6906" data-name="Path 6906" d="M109.5,382.1s-10.464-6.127-15.188-14c0,0,1.756-.371,3.207,2.235S110.353,378.881,109.5,382.1Z" transform="translate(-94.315 -364.153)" fill="#adbec4"/>
        <path id="Path_6907" data-name="Path 6907" d="M114.141,369.372c-.85,1.344-.833-1.139-1.963-2.3a4.926,4.926,0,0,0,1.4-.338h.008A2.166,2.166,0,0,1,114.141,369.372Z" transform="translate(-98.911 -363.805)" fill="#adbec4"/>
        <path id="Path_6908" data-name="Path 6908" d="M109.8,369.5c-.9.85-1.188-1.368-1.715-2.556a13.35,13.35,0,0,0,1.377.189C109.986,367.851,110.482,368.848,109.8,369.5Z" transform="translate(-97.857 -363.859)" fill="#adbec4"/>
      </g>
      <g id="Group_4740" data-name="Group 4740" transform="translate(71.671 172.286)">
        <path id="Path_6909" data-name="Path 6909" d="M205.89,403.688h-14.8a8.707,8.707,0,0,1,0-4.329c.264-.981,1.8-1.9,3.224-3.175a11.37,11.37,0,0,0,1.13-1.146,6.652,6.652,0,0,0,.751-1.08,5.381,5.381,0,0,0,.61-1.543,6.768,6.768,0,0,0-.495-4.023s5.039-1.056,6.836,1.69c0,0,.173-1.27,1.773-.421a23.472,23.472,0,0,0,.082,4.684C205.313,396.472,207.3,397.091,205.89,403.688Z" transform="translate(-190.814 -388.192)" fill="#cfd8dc"/>
        <path id="Path_6910" data-name="Path 6910" d="M203.9,396.154a.657.657,0,0,1-.495.223.718.718,0,0,1-.437-.149,5.4,5.4,0,0,0-4.914-.89,5.382,5.382,0,0,0,.61-1.543c.99-.362,2.853-.577,5.154,1.386A.677.677,0,0,1,203.9,396.154Z" transform="translate(-192.678 -389.572)" fill="#adbec4"/>
        <path id="Path_6911" data-name="Path 6911" d="M202.007,399.549l-.082.124a.675.675,0,0,1-.907.223,9.1,9.1,0,0,0-5.492-1.394,11.366,11.366,0,0,0,1.13-1.146,5.887,5.887,0,0,1,5.2,1.294A.69.69,0,0,1,202.007,399.549Z" transform="translate(-192.026 -390.51)" fill="#adbec4"/>
      </g>
    </g>
  </g>
</svg>
