<svg xmlns="http://www.w3.org/2000/svg" width="22.493" height="17.994" viewBox="0 0 22.493 17.994">
  <path id="Icon_awesome-user-plus" data-name="Icon awesome-user-plus" d="M21.93,7.31H19.681V5.061a.564.564,0,0,0-.562-.562H17.994a.564.564,0,0,0-.562.562V7.31H15.183a.564.564,0,0,0-.562.562V9a.564.564,0,0,0,.562.562h2.249v2.249a.564.564,0,0,0,.562.562h1.125a.564.564,0,0,0,.562-.562V9.559H21.93A.564.564,0,0,0,22.493,9V7.872A.564.564,0,0,0,21.93,7.31ZM7.872,9a4.5,4.5,0,1,0-4.5-4.5A4.5,4.5,0,0,0,7.872,9Zm3.149,1.125h-.587a6.118,6.118,0,0,1-5.124,0H4.723A4.725,4.725,0,0,0,0,14.845v1.462a1.687,1.687,0,0,0,1.687,1.687H14.058a1.687,1.687,0,0,0,1.687-1.687V14.845A4.725,4.725,0,0,0,11.021,10.122Z" fill="#a3a3a3"/>
</svg>
