<svg id="statastics" xmlns="http://www.w3.org/2000/svg" width="17.996" height="17.996" viewBox="0 0 17.996 17.996">
  <path id="Path_3926" data-name="Path 3926" d="M32.582,8.432a1.574,1.574,0,0,0,1.095-.444l1.561.78a1.548,1.548,0,0,0-.019.192,1.582,1.582,0,0,0,3.164,0,1.561,1.561,0,0,0-.159-.677L40.34,6.165a1.563,1.563,0,0,0,.678.159A1.583,1.583,0,0,0,42.6,4.743a1.556,1.556,0,0,0-.079-.468L44.361,2.9a1.58,1.58,0,1,0-.706-1.315,1.556,1.556,0,0,0,.079.468l-1.84,1.379a1.574,1.574,0,0,0-2.3,1.992L37.478,7.536a1.555,1.555,0,0,0-1.773.286l-1.561-.78a1.547,1.547,0,0,0,.019-.192,1.582,1.582,0,1,0-1.582,1.581Zm0,0" transform="translate(-29.911)" fill="#a3a3a3"/>
  <path id="Path_3927" data-name="Path 3927" d="M17.469,161.672h-.562V150.527a.527.527,0,0,0-.527-.527H14.27a.527.527,0,0,0-.527.527v11.144H12.689v-7.98a.527.527,0,0,0-.527-.527H10.052a.527.527,0,0,0-.527.527v7.98H8.471V157.91a.527.527,0,0,0-.527-.527H5.835a.527.527,0,0,0-.527.527v3.762H4.253V155.8a.527.527,0,0,0-.527-.527H1.617a.527.527,0,0,0-.527.527v5.871H.527a.527.527,0,0,0,0,1.055H17.469a.527.527,0,0,0,0-1.055Zm0,0" transform="translate(0 -144.73)" fill="#a3a3a3"/>
</svg>
