<?xml version="1.0" encoding="utf-8"?>
<!-- Generator: Adobe Illustrator 23.0.0, SVG Export Plug-In . SVG Version: 6.00 Build 0)  -->
<svg version="1.1" id="statastics" xmlns="http://www.w3.org/2000/svg" xmlns:xlink="http://www.w3.org/1999/xlink" x="0px" y="0px"
	 viewBox="0 0 18 18" style="enable-background:new 0 0 18 18;" xml:space="preserve">
<style type="text/css">
	.st0{fill:#2866A0;}
	.st1{fill:#283279;}
</style>
<path id="Path_3926" class="st0" d="M2.7,8.4c0.4,0,0.8-0.2,1.1-0.4l1.6,0.8c0,0.1,0,0.1,0,0.2c0,0.9,0.7,1.6,1.6,1.6S8.5,9.8,8.5,9
	c0-0.2-0.1-0.5-0.2-0.7l2.1-2.1c0.2,0.1,0.4,0.2,0.7,0.2c0.9,0,1.6-0.7,1.6-1.6c0-0.2,0-0.3-0.1-0.5l1.8-1.4
	c0.7,0.5,1.7,0.3,2.2-0.4s0.3-1.7-0.4-2.2S14.5,0,14,0.7c-0.2,0.3-0.3,0.6-0.3,0.9c0,0.2,0,0.3,0.1,0.5L12,3.4
	c-0.7-0.5-1.7-0.3-2.2,0.4C9.5,4.3,9.4,4.9,9.7,5.4L7.6,7.5C7,7.2,6.3,7.4,5.8,7.8L4.2,7c0-0.1,0-0.1,0-0.2c0-0.9-0.7-1.6-1.6-1.6
	C1.8,5.3,1.1,6,1.1,6.8S1.8,8.4,2.7,8.4C2.7,8.4,2.7,8.4,2.7,8.4L2.7,8.4z"/>
<path id="Path_3927" class="st1" d="M17.5,16.9h-0.6V5.8c0-0.3-0.2-0.5-0.5-0.5h-2.1c-0.3,0-0.5,0.2-0.5,0.5v11.1h-1.1V9
	c0-0.3-0.2-0.5-0.5-0.5h-2.1C9.8,8.4,9.5,8.7,9.5,9v8H8.5v-3.8c0-0.3-0.2-0.5-0.5-0.5H5.8c-0.3,0-0.5,0.2-0.5,0.5v3.8H4.3v-5.9
	c0-0.3-0.2-0.5-0.5-0.5H1.6c-0.3,0-0.5,0.2-0.5,0.5v5.9H0.5c-0.3,0-0.5,0.2-0.5,0.5S0.2,18,0.5,18h16.9c0.3,0,0.5-0.2,0.5-0.5
	S17.8,16.9,17.5,16.9L17.5,16.9L17.5,16.9z"/>
</svg>
