<?xml version="1.0" encoding="utf-8"?>
<!-- Generator: Adobe Illustrator 23.0.0, SVG Export Plug-In . SVG Version: 6.00 Build 0)  -->
<svg version="1.1" id="Layer_1" xmlns="http://www.w3.org/2000/svg" xmlns:xlink="http://www.w3.org/1999/xlink" x="0px" y="0px"
	 viewBox="0 0 22.5 18" style="enable-background:new 0 0 22.5 18;" xml:space="preserve">
<style type="text/css">
	.st0{fill:#283279;}
</style>
<path id="Icon_awesome-user-plus" class="st0" d="M21.9,7.3h-2.2V5.1c0-0.3-0.3-0.6-0.6-0.6H18c-0.3,0-0.6,0.3-0.6,0.6v2.2h-2.2
	c-0.3,0-0.6,0.3-0.6,0.6V9c0,0.3,0.3,0.6,0.6,0.6h2.2v2.2c0,0.3,0.3,0.6,0.6,0.6h1.1c0.3,0,0.6-0.3,0.6-0.6V9.6h2.2
	c0.3,0,0.6-0.2,0.6-0.6V7.9C22.5,7.6,22.2,7.3,21.9,7.3z M7.9,9c2.5,0,4.5-2,4.5-4.5S10.4,0,7.9,0S3.4,2,3.4,4.5S5.4,9,7.9,9z
	 M11,10.1h-0.6c-1.6,0.7-3.5,0.7-5.1,0H4.7c-2.6,0-4.7,2.1-4.7,4.7v1.5C0,17.2,0.8,18,1.7,18c0,0,0,0,0,0h12.4
	c0.9,0,1.7-0.8,1.7-1.7l0,0v-1.5C15.7,12.2,13.6,10.1,11,10.1L11,10.1z"/>
</svg>
