<?xml version="1.0" encoding="utf-8"?>
<!-- Generator: Adobe Illustrator 23.0.0, SVG Export Plug-In . SVG Version: 6.00 Build 0)  -->
<svg version="1.1" id="Layer_1" xmlns="http://www.w3.org/2000/svg" xmlns:xlink="http://www.w3.org/1999/xlink" x="0px" y="0px"
	 viewBox="0 0 17.8 17" style="enable-background:new 0 0 17.8 17;" xml:space="preserve">
<style type="text/css">
	.st0{fill:#283279;}
</style>
<g id="goodwill" transform="translate(-8.18 -10)">
	<circle id="Ellipse_3" class="st0" cx="17.1" cy="14" r="4"/>
	<path id="Path_453" class="st0" d="M25.5,15c-0.7-0.6-1.8-0.5-2.4,0.2l-1.8,1.9c-2.1,2.3-5.6,2.5-7.9,0.4c-0.1-0.1-0.3-0.3-0.4-0.4
		l-1.8-1.9c-0.6-0.7-1.7-0.7-2.4-0.1C8,15.7,8,16.8,8.7,17.6l4,4.7v4.3c0,0.2,0.2,0.4,0.4,0.4h8.1c0.2,0,0.4-0.2,0.4-0.4v-4.3l4-4.7
		C26.2,16.8,26.1,15.7,25.5,15z"/>
</g>
</svg>
