<svg xmlns="http://www.w3.org/2000/svg" width="17.814" height="17" viewBox="0 0 17.814 17">
  <g id="goodwill" transform="translate(-8.18 -10)">
    <circle id="Ellipse_3" data-name="Ellipse 3" cx="4.026" cy="4.026" r="4.026" transform="translate(13.061 10)" fill="#a2a2a2"/>
    <path id="Path_453" data-name="Path 453" d="M25.457,30.979a1.729,1.729,0,0,0-2.39.154l-1.833,1.935a5.579,5.579,0,0,1-8.3-.008L11.1,31.125a1.725,1.725,0,0,0-2.382-.146,1.853,1.853,0,0,0-.066,2.54l3.963,4.692v4.31a.447.447,0,0,0,.447.447h8.053a.447.447,0,0,0,.447-.447V38.21l3.958-4.687A1.854,1.854,0,0,0,25.457,30.979Z" transform="translate(0 -15.967)" fill="#a2a2a2"/>
  </g>
</svg>
