<svg xmlns="http://www.w3.org/2000/svg" width="16.25" height="16.214" viewBox="0 0 16.25 16.214">
  <g id="gallery" transform="translate(0 -0.05)">
    <g id="Group_15925" data-name="Group 15925" transform="translate(0 0.05)">
      <path id="Path_14861" data-name="Path 14861" d="M2.5,18.052v-6.99H1.429A1.434,1.434,0,0,0,0,12.5v9.451a1.428,1.428,0,0,0,1.429,1.432H10.88a1.439,1.439,0,0,0,1.441-1.432V20.919H5.366A2.881,2.881,0,0,1,2.5,18.052Z" transform="translate(0 -7.169)" fill="#a2a2a2"/>
      <path id="Path_14862" data-name="Path 14862" d="M22,.05H12.55a1.436,1.436,0,0,0-1.437,1.432v9.451a1.441,1.441,0,0,0,1.437,1.438H22a1.436,1.436,0,0,0,1.432-1.438V1.483A1.432,1.432,0,0,0,22,.05Zm-.194,10.09a.446.446,0,0,1-.4.232h-8.1a.444.444,0,0,1-.431-.574l1.159-3.832a.691.691,0,0,1,1.224-.2l1.62,2.276a.69.69,0,0,0,.951.171L19.327,7.2a.691.691,0,0,1,.966.194l1.5,2.288A.446.446,0,0,1,21.808,10.14Z" transform="translate(-7.184 -0.05)" fill="#a2a2a2"/>
    </g>
  </g>
</svg>
