<svg xmlns="http://www.w3.org/2000/svg" width="11.475" height="18" viewBox="0 0 11.475 18">
  <g id="businessman" transform="translate(-144.998)">
    <path id="Path_3862" data-name="Path 3862" d="M149.045,1.916a1.942,1.942,0,0,1,3.884,0,1.942,1.942,0,0,1-3.884,0Zm4.081,2.815a3.747,3.747,0,0,0-.582-.372,2.606,2.606,0,0,0-.377-.152,3.935,3.935,0,0,0-.939-.175l.5,5.186-.724.836-.827-.836.628-5.193a3.977,3.977,0,0,0-.654.07,2.781,2.781,0,0,0-.882.287,3.685,3.685,0,0,0-1.259,1.265c-.055.078-.108.155-.186.26-.193.265-.372.477-.479.465a3.353,3.353,0,0,1-1.209-.69.694.694,0,0,0-.971.073.672.672,0,0,0,.074.958,4.743,4.743,0,0,0,1.888,1,1.619,1.619,0,0,0,.255.02,2.039,2.039,0,0,0,1.582-1.063c.059-.081.118-.166.179-.251s.122-.174.185-.26c-.046.9-.142,2.82-.2,4.462-.018.488.337.759.865.793.325.02.744-.252,1.023-.252.462,0,.887.221,1.205.18a.742.742,0,0,0,.664-.5,43.81,43.81,0,0,0-.231-4.655,5.611,5.611,0,0,1,.8,3.2.684.684,0,0,0,.688.665h.015a.683.683,0,0,0,.674-.693C154.782,7.115,154.209,5.558,153.126,4.731Zm1.47,5.038h.319c.639,0,1.156-.38,1.156-.85s-.516-.851-1.156-.851l-6.292,0v0h-1.757c-.637,0-1.155.381-1.155.851s.518.85,1.155.85h.6v6.31h-2.042V18h11.048V16.079H154.6V9.769Z" transform="translate(0)" fill="#a2a2a2"/>
  </g>
</svg>
