<svg xmlns="http://www.w3.org/2000/svg" width="24.619" height="18.003" viewBox="0 0 24.619 18.003">
  <g id="family" transform="translate(0 -66.068)">
    <g id="Group_2839" data-name="Group 2839" transform="translate(0 74.48)">
      <path id="Path_3928" data-name="Path 3928" d="M8.815,235.186A5.481,5.481,0,0,0,0,239.543v3.385a.718.718,0,0,0,.718.718H6.509v-3.462A6.575,6.575,0,0,1,8.815,235.186Z" transform="translate(0 -234.055)" fill="#a3a3a3"/>
    </g>
    <g id="Group_2840" data-name="Group 2840" transform="translate(1.744 66.068)">
      <path id="Path_3929" data-name="Path 3929" d="M38.571,73.556a3.744,3.744,0,1,0-3.744-3.744A3.744,3.744,0,0,0,38.571,73.556Z" transform="translate(-34.827 -66.068)" fill="#a3a3a3"/>
    </g>
    <g id="Group_2841" data-name="Group 2841" transform="translate(8.151 75.658)">
      <path id="Path_3930" data-name="Path 3930" d="M167.727,257.581a4.952,4.952,0,0,0-4.951,4.952v2.744a.718.718,0,0,0,.718.718h5.688v-2.943A5.832,5.832,0,0,1,171,258.823,4.926,4.926,0,0,0,167.727,257.581Z" transform="translate(-162.776 -257.581)" fill="#a3a3a3"/>
    </g>
    <g id="Group_2842" data-name="Group 2842" transform="translate(9.724 68.068)">
      <path id="Path_3931" data-name="Path 3931" d="M195.751,112.229A3.374,3.374,0,1,0,194.2,109.4,3.355,3.355,0,0,0,195.751,112.229Z" transform="translate(-194.202 -106.017)" fill="#a3a3a3"/>
    </g>
    <g id="Group_2843" data-name="Group 2843" transform="translate(16.198 76.917)">
      <path id="Path_3932" data-name="Path 3932" d="M327.7,282.733a4.211,4.211,0,0,0-4.211,4.211v2.225a.718.718,0,0,0,.718.718h6.985a.718.718,0,0,0,.718-.718v-2.225A4.211,4.211,0,0,0,327.7,282.733Z" transform="translate(-323.49 -282.733)" fill="#a3a3a3"/>
    </g>
    <g id="Group_2844" data-name="Group 2844" transform="translate(17.536 70.463)">
      <path id="Path_3933" data-name="Path 3933" d="M351.286,158.937a2.861,2.861,0,1,0-1.076-2.225A2.846,2.846,0,0,0,351.286,158.937Z" transform="translate(-350.21 -153.839)" fill="#a3a3a3"/>
    </g>
  </g>
</svg>
