<svg xmlns="http://www.w3.org/2000/svg" width="15.25" height="14.298" viewBox="0 0 15.25 14.298">
  <g id="communication" transform="translate(-101.689 -28.446)">
    <path id="Path_10901" data-name="Path 10901" d="M115.6,28.446H103.029a1.338,1.338,0,0,0-1.34,1.337v8.939a1.338,1.338,0,0,0,1.337,1.34H104.4V42.3a.442.442,0,0,0,.76.313l2.555-2.547H115.6a1.338,1.338,0,0,0,1.34-1.337V29.786a1.339,1.339,0,0,0-1.337-1.34Z" fill="#a2a2a2"/>
    <path id="Path_10902" data-name="Path 10902" d="M122.987,38.831a.445.445,0,0,0-.366-.3l-1.93-.277-.858-1.707a.474.474,0,0,0-.8,0l-.858,1.707-1.93.277a.444.444,0,0,0-.366.3A.478.478,0,0,0,116,39.3l1.385,1.323-.331,1.858a.457.457,0,0,0,.179.438.434.434,0,0,0,.474.036l1.725-.884,1.725.884a.434.434,0,0,0,.474-.036.456.456,0,0,0,.179-.438l-.331-1.858,1.385-1.323A.478.478,0,0,0,122.987,38.831Z" transform="translate(-10.117 -5.622)" fill="#fff"/>
  </g>
</svg>
