<?xml version="1.0" encoding="utf-8"?>
<!-- Generator: Adobe Illustrator 23.0.0, SVG Export Plug-In . SVG Version: 6.00 Build 0)  -->
<svg version="1.1" id="Layer_1" xmlns="http://www.w3.org/2000/svg" xmlns:xlink="http://www.w3.org/1999/xlink" x="0px" y="0px"
	 viewBox="0 0 16.3 16.2" style="enable-background:new 0 0 16.3 16.2;" xml:space="preserve">
<style type="text/css">
	.st0{fill:#283279;}
</style>
<g id="gallery" transform="translate(0 -0.05)">
	<g id="Group_15925" transform="translate(0 0.05)">
		<path id="Path_14861" class="st0" d="M2.5,10.9v-7H1.4C0.6,3.9,0,4.5,0,5.3v9.5c0,0.8,0.6,1.4,1.4,1.4c0,0,0,0,0,0h9.5
			c0.8,0,1.4-0.6,1.4-1.4v-1h-7C3.8,13.7,2.5,12.5,2.5,10.9z"/>
		<path id="Path_14862" class="st0" d="M14.8,0H5.4C4.6,0,3.9,0.6,3.9,1.4v9.5c0,0.8,0.6,1.4,1.4,1.4h9.4c0.8,0,1.4-0.6,1.4-1.4V1.4
			C16.2,0.6,15.6,0,14.8,0C14.8,0,14.8,0,14.8,0z M14.6,10.1c-0.1,0.1-0.2,0.2-0.4,0.2H6.1c-0.2,0-0.4-0.2-0.5-0.4c0,0,0-0.1,0-0.1
			l1.2-3.8C7,5.6,7.3,5.3,7.7,5.5c0.1,0,0.3,0.1,0.4,0.3L9.7,8c0.2,0.3,0.6,0.4,1,0.2l1.5-1c0.3-0.2,0.7-0.1,1,0.2c0,0,0,0,0,0
			l1.5,2.3C14.7,9.8,14.7,9.9,14.6,10.1L14.6,10.1z"/>
	</g>
</g>
</svg>
