<?xml version="1.0" encoding="utf-8"?>
<!-- Generator: Adobe Illustrator 23.0.0, SVG Export Plug-In . SVG Version: 6.00 Build 0)  -->
<svg version="1.1" id="Layer_1" xmlns="http://www.w3.org/2000/svg" xmlns:xlink="http://www.w3.org/1999/xlink" x="0px" y="0px"
	 viewBox="0 0 15.3 14.3" style="enable-background:new 0 0 15.3 14.3;" xml:space="preserve">
<style type="text/css">
	.st0{fill:#283279;}
	.st1{fill:#FFFFFF;}
</style>
<g id="communication" transform="translate(-101.689 -28.446)">
	<path id="Path_10901" class="st0" d="M115.6,28.4H103c-0.7,0-1.3,0.6-1.3,1.3c0,0,0,0,0,0v8.9c0,0.7,0.6,1.3,1.3,1.3c0,0,0,0,0,0
		h1.4v2.2c0,0.2,0.2,0.4,0.4,0.4c0.1,0,0.2,0,0.3-0.1l2.6-2.5h7.9c0.7,0,1.3-0.6,1.3-1.3c0,0,0,0,0,0v-8.9
		C116.9,29,116.3,28.4,115.6,28.4L115.6,28.4z"/>
	<path id="Path_10902" class="st1" d="M112.9,33.2c-0.1-0.2-0.2-0.3-0.4-0.3l-1.9-0.3l-0.9-1.7c-0.1-0.2-0.4-0.3-0.7-0.1
		c-0.1,0-0.1,0.1-0.1,0.1l-0.9,1.7l-1.9,0.3c-0.2,0-0.3,0.1-0.4,0.3c0,0.2,0,0.3,0.1,0.5l1.4,1.3l-0.3,1.9c0,0.2,0,0.3,0.2,0.4
		c0.1,0.1,0.3,0.1,0.5,0l1.7-0.9l1.7,0.9c0.2,0.1,0.3,0.1,0.5,0c0.1-0.1,0.2-0.3,0.2-0.4l-0.3-1.9l1.4-1.3
		C112.9,33.6,112.9,33.4,112.9,33.2z"/>
</g>
</svg>
