<?xml version="1.0" encoding="utf-8"?>
<!-- Generator: Adobe Illustrator 23.0.0, SVG Export Plug-In . SVG Version: 6.00 Build 0)  -->
<svg version="1.1" id="Layer_1" xmlns="http://www.w3.org/2000/svg" xmlns:xlink="http://www.w3.org/1999/xlink" x="0px" y="0px"
	 viewBox="0 0 11.5 18" style="enable-background:new 0 0 11.5 18;" xml:space="preserve">
<style type="text/css">
	.st0{fill:#283279;}
</style>
<g id="businessman" transform="translate(-144.998)">
	<path id="Path_3862" class="st0" d="M149,1.9c0-1.1,0.9-1.9,1.9-1.9s1.9,0.9,1.9,1.9s-0.9,1.9-1.9,1.9S149,3,149,1.9z M153.1,4.7
		c-0.2-0.1-0.4-0.3-0.6-0.4c-0.1-0.1-0.2-0.1-0.4-0.2c-0.3-0.1-0.6-0.2-0.9-0.2l0.5,5.2l-0.7,0.8l-0.8-0.8l0.6-5.2
		c-0.2,0-0.4,0-0.7,0.1c-0.3,0-0.6,0.1-0.9,0.3c-0.5,0.3-0.9,0.7-1.3,1.3c-0.1,0.1-0.1,0.2-0.2,0.3c-0.2,0.3-0.4,0.5-0.5,0.5
		c-0.4-0.1-0.9-0.4-1.2-0.7c-0.3-0.2-0.7-0.2-1,0.1c-0.2,0.3-0.2,0.7,0.1,0.9c0,0,0,0,0,0c0.5,0.5,1.2,0.8,1.9,1c0.1,0,0.2,0,0.3,0
		c0.7-0.1,1.3-0.5,1.6-1.1c0.1-0.1,0.1-0.2,0.2-0.3s0.1-0.2,0.2-0.3c0,0.9-0.1,2.8-0.2,4.5c0,0.5,0.3,0.8,0.9,0.8
		c0.3,0,0.7-0.3,1-0.3c0.5,0,0.9,0.2,1.2,0.2c0.3,0,0.6-0.2,0.7-0.5c0-1.6-0.1-3.1-0.2-4.7c0.6,1,0.9,2.1,0.8,3.2
		c0,0.4,0.3,0.7,0.7,0.7h0c0.4,0,0.7-0.3,0.7-0.7c0,0,0,0,0,0C154.8,7.1,154.2,5.6,153.1,4.7L153.1,4.7z M154.6,9.8h0.3
		c0.6,0,1.2-0.4,1.2-0.9s-0.5-0.9-1.2-0.9h-6.3l0,0h-1.8c-0.6,0-1.2,0.4-1.2,0.9s0.5,0.9,1.2,0.9h0.6v6.3h-2V18h11v-1.9h-1.9
		L154.6,9.8L154.6,9.8z"/>
</g>
</svg>
