<?xml version="1.0" encoding="utf-8"?>
<!-- Generator: Adobe Illustrator 23.0.0, SVG Export Plug-In . SVG Version: 6.00 Build 0)  -->
<svg version="1.1" id="stall" xmlns="http://www.w3.org/2000/svg" xmlns:xlink="http://www.w3.org/1999/xlink" x="0px" y="0px"
	 viewBox="0 0 17.9 18" style="enable-background:new 0 0 17.9 18;" xml:space="preserve">
<style type="text/css">
	.st0{fill:#283279;}
</style>
<path id="Path_3934" class="st0" d="M13.7,7.5V6.2c0-0.3-0.2-0.5-0.5-0.5c-0.3,0-0.5,0.2-0.5,0.5c0,0,0,0,0,0v1.3
	C12,7.8,11.6,8.4,11.6,9v1.6h3.2V9C14.8,8.4,14.3,7.8,13.7,7.5z"/>
<path id="Path_3935" class="st0" d="M9.5,7.5V6.2c0-0.3-0.2-0.5-0.5-0.5c-0.3,0-0.5,0.2-0.5,0.5v1.3C7.8,7.8,7.4,8.4,7.4,9v1.6h3.2
	V9C10.5,8.4,10.1,7.8,9.5,7.5z"/>
<path id="Path_3936" class="st0" d="M5.3,7.5V6.2c0-0.3-0.2-0.5-0.5-0.5S4.2,5.9,4.2,6.2v1.3C3.6,7.8,3.2,8.4,3.2,9v1.6h3.2V9
	C6.3,8.4,5.9,7.8,5.3,7.5z"/>
<path id="Path_3937" class="st0" d="M11.4,11.7h2.7V18h-2.7V11.7z"/>
<path id="Path_3938" class="st0" d="M3.8,11.7h2.7V18H3.8V11.7z"/>
<path id="Path_3939" class="st0" d="M7.6,11.7h2.7V18H7.6V11.7z"/>
<path id="Path_3940" class="st0" d="M17.9,2.3V0.5c0-0.3-0.2-0.5-0.5-0.5c0,0,0,0,0,0H0.5C0.2,0,0,0.2,0,0.5c0,0,0,0,0,0v1.8
	C0,3,0.4,3.6,1.1,3.8v7.9H0.5c-0.3,0-0.5,0.2-0.5,0.5v5.3C0,17.8,0.2,18,0.5,18c0,0,0,0,0,0h2.2v-6.3H2.1V3.8
	c0.2-0.1,0.4-0.2,0.5-0.3C3.2,4,4.1,4,4.7,3.5C5.3,4,6.3,4,6.9,3.5C7.5,4,8.4,4,9,3.5c0.6,0.5,1.5,0.5,2.1,0c0.6,0.5,1.5,0.5,2.1,0
	c0.6,0.5,1.5,0.5,2.1,0c0.2,0.1,0.3,0.2,0.5,0.3v7.9h-0.6V18h2.2c0.3,0,0.5-0.2,0.5-0.5l0,0v-5.3c0-0.3-0.2-0.5-0.5-0.5l0,0h-0.5
	V3.8C17.5,3.5,17.9,3,17.9,2.3z"/>
</svg>
