<svg xmlns="http://www.w3.org/2000/svg" width="13.49" height="18.999" viewBox="0 0 13.49 18.999">
  <g id="Group_16461" data-name="Group 16461" transform="translate(-41.311 -300.54)">
    <circle id="Ellipse_1444" data-name="Ellipse 1444" cx="1.814" cy="1.814" r="1.814" transform="matrix(0.973, -0.23, 0.23, 0.973, 44.582, 301.373)" fill="#707070"/>
    <path id="Path_14925" data-name="Path 14925" d="M54.073,318.194h-2.1a.776.776,0,0,0,.127-.96h0l-3.367-5.574v-2.317a9.9,9.9,0,0,1,1.967,3.312.773.773,0,0,0,.737.536.774.774,0,0,0,.737-1.013,10.291,10.291,0,0,0-3.447-4.853,1.683,1.683,0,0,0-1.672-1.563h-.618a1.665,1.665,0,0,0-1.031.359,9.153,9.153,0,0,1-2.588-3.868.775.775,0,0,0-1.427-.114.768.768,0,0,0-.047.591,10.258,10.258,0,0,0,3.415,4.833v4.679l-1.144,2.007a.777.777,0,0,0-.033.7l1.354,3a.748.748,0,0,0,.172.24h-2.2c-.4,0-.727.543-.727,1.211s.325,1.211.727,1.211H54.073c.4,0,.727-.542.727-1.211S54.475,318.194,54.073,318.194Zm-6.807,0H46.183a.773.773,0,0,0,.17-.877l-1.192-2.642,1.056-1.852h1.413l3.149,5.213a.739.739,0,0,0,.132.158H47.266Z" transform="translate(0 -1.077)" fill="#707070"/>
  </g>
</svg>
