<svg id="stall" xmlns="http://www.w3.org/2000/svg" width="17.93" height="18" viewBox="0 0 17.93 18">
  <path id="Path_3934" data-name="Path 3934" d="M332.108,163.847v-1.32a.527.527,0,1,0-1.054,0v1.32a1.584,1.584,0,0,0-1.054,1.49v1.581h3.162v-1.581A1.584,1.584,0,0,0,332.108,163.847Zm0,0" transform="translate(-318.397 -156.303)" fill="#a3a3a3"/>
  <path id="Path_3935" data-name="Path 3935" d="M212.108,163.847v-1.32a.527.527,0,0,0-1.054,0v1.32a1.584,1.584,0,0,0-1.054,1.49v1.581h3.162v-1.581A1.584,1.584,0,0,0,212.108,163.847Zm0,0" transform="translate(-202.616 -156.303)" fill="#a3a3a3"/>
  <path id="Path_3936" data-name="Path 3936" d="M92.108,163.847v-1.32a.527.527,0,0,0-1.054,0v1.32A1.584,1.584,0,0,0,90,165.338v1.581h3.162v-1.581A1.584,1.584,0,0,0,92.108,163.847Zm0,0" transform="translate(-86.835 -156.303)" fill="#a3a3a3"/>
  <path id="Path_3937" data-name="Path 3937" d="M324,332h2.74v6.324H324Zm0,0" transform="translate(-312.608 -320.324)" fill="#a3a3a3"/>
  <path id="Path_3938" data-name="Path 3938" d="M108,332h2.74v6.324H108Zm0,0" transform="translate(-104.203 -320.324)" fill="#a3a3a3"/>
  <path id="Path_3939" data-name="Path 3939" d="M216,332h2.74v6.324H216Zm0,0" transform="translate(-208.405 -320.324)" fill="#a3a3a3"/>
  <path id="Path_3940" data-name="Path 3940" d="M17.93,2.285V.527A.527.527,0,0,0,17.4,0H.527A.527.527,0,0,0,0,.527V2.285A1.585,1.585,0,0,0,1.055,3.777v7.9H.527A.527.527,0,0,0,0,12.2v5.273A.527.527,0,0,0,.527,18H2.742V11.672H2.109v-7.9a1.583,1.583,0,0,0,.527-.313,1.579,1.579,0,0,0,2.109,0,1.579,1.579,0,0,0,2.109,0,1.579,1.579,0,0,0,2.109,0,1.579,1.579,0,0,0,2.109,0,1.579,1.579,0,0,0,2.109,0,1.579,1.579,0,0,0,2.109,0,1.585,1.585,0,0,0,.527.313v7.9h-.633V18H17.4a.527.527,0,0,0,.527-.527V12.2a.527.527,0,0,0-.527-.527h-.527v-7.9A1.585,1.585,0,0,0,17.93,2.285Zm0,0" fill="#a3a3a3"/>
</svg>
