<svg xmlns="http://www.w3.org/2000/svg" width="18" height="18" viewBox="0 0 18 18">
  <path id="Icon_awesome-donate" data-name="Icon awesome-donate" d="M9,14.625A7.313,7.313,0,1,0,1.688,7.313,7.311,7.311,0,0,0,9,14.625Zm-.78-11.2V2.834A.582.582,0,0,1,8.8,2.25h.39a.582.582,0,0,1,.584.584v.6a2.772,2.772,0,0,1,1.512.541.394.394,0,0,1,.042.6l-.573.545a.4.4,0,0,1-.492.035,1.157,1.157,0,0,0-.626-.179H8.272a.611.611,0,0,0-.573.643.635.635,0,0,0,.425.619l2.19.657a2.2,2.2,0,0,1,1.536,2.113A2.168,2.168,0,0,1,9.773,11.2v.591a.582.582,0,0,1-.584.584H8.8a.582.582,0,0,1-.584-.584v-.6A2.772,2.772,0,0,1,6.7,10.652a.394.394,0,0,1-.042-.6l.573-.545a.4.4,0,0,1,.492-.035,1.157,1.157,0,0,0,.626.179H9.721a.611.611,0,0,0,.573-.643.635.635,0,0,0-.425-.619l-2.19-.657A2.2,2.2,0,0,1,6.142,5.618,2.17,2.17,0,0,1,8.22,3.424Zm8.655,8.951H15.732a8.521,8.521,0,0,1-2.566,2.25h2.243a.314.314,0,0,1,.337.281v.563a.314.314,0,0,1-.337.281H2.588a.314.314,0,0,1-.338-.281v-.562a.314.314,0,0,1,.338-.281H4.83a8.563,8.563,0,0,1-2.566-2.25H1.125A1.124,1.124,0,0,0,0,13.5v3.375A1.124,1.124,0,0,0,1.125,18h15.75A1.124,1.124,0,0,0,18,16.875V13.5A1.124,1.124,0,0,0,16.875,12.375Z" fill="#a3a3a3"/>
</svg>
