<?xml version="1.0" encoding="utf-8"?>
<!-- Generator: Adobe Illustrator 23.0.0, SVG Export Plug-In . SVG Version: 6.00 Build 0)  -->
<svg version="1.1" id="Layer_1" xmlns="http://www.w3.org/2000/svg" xmlns:xlink="http://www.w3.org/1999/xlink" x="0px" y="0px"
	 viewBox="0 0 30 18" style="enable-background:new 0 0 30 18;" xml:space="preserve">
<style type="text/css">
	.st0{fill:#283279;}
</style>
<path id="Icon_awesome-money-bill" class="st0" d="M28.5,0h-27C0.7,0,0,0.7,0,1.5v15C0,17.3,0.7,18,1.5,18h27c0.8,0,1.5-0.7,1.5-1.5
	v-15C30,0.7,29.3,0,28.5,0z M2.3,15.7v-3c1.7,0,3,1.3,3,3H2.3z M2.3,5.2v-3h3C5.3,3.9,3.9,5.2,2.3,5.2z M15,13.5
	c-2.1,0-3.8-2-3.8-4.5s1.7-4.5,3.8-4.5s3.8,2,3.8,4.5S17.1,13.5,15,13.5z M27.8,15.7h-3c0-1.7,1.3-3,3-3V15.7z M27.8,5.2
	c-1.7,0-3-1.3-3-3h3V5.2z"/>
</svg>
