<?xml version="1.0" encoding="utf-8"?>
<!-- Generator: Adobe Illustrator 23.0.0, SVG Export Plug-In . SVG Version: 6.00 Build 0)  -->
<svg version="1.1" id="Layer_1" xmlns="http://www.w3.org/2000/svg" xmlns:xlink="http://www.w3.org/1999/xlink" x="0px" y="0px"
	 viewBox="0 0 20.5 18" style="enable-background:new 0 0 20.5 18;" xml:space="preserve">
<style type="text/css">
	.st0{fill:#283279;}
</style>
<path id="Icon_map-food" class="st0" d="M20.5,4.8L18.8,18h-5.7L11.4,4.7h6.9L19.8,0l0.8,0.2l-1.3,4.6L20.5,4.8L20.5,4.8z
	 M10.6,12.4c0,0,0.2-1.7-2.7-1.7H3.2c-2.9,0-2.7,1.7-2.7,1.7H10.6z M0.5,16.3c0,0-0.2,1.7,2.7,1.7h4.7c2.9,0,2.7-1.7,2.7-1.7H0.5z
	 M10.2,15.4c0.5-0.1,0.9-0.5,0.9-1.1c0.1-0.5-0.3-1-0.9-1.1H0.9c-0.5,0.1-0.9,0.5-0.9,1.1c0,0.5,0.3,1,0.9,1.1H10.2z"/>
</svg>
