<svg id="Acommodation" xmlns="http://www.w3.org/2000/svg" width="24.478" height="18" viewBox="0 0 24.478 18">
  <path id="Path_3961" data-name="Path 3961" d="M-3298.108-40.533h-.944c-.052,0-.068-.016-.068-.068v-7.289c0-.389.07-.854.541-.854.389,0,.539.35.539.742v3.959h10.259v-2.339c0-1,1.08-.983,1.08,0V-40.6c0,.052-.016.068-.068.068-1.064,0-1.018.076-1.012-.178v-1.532c0-.1.026-.2-.068-.2h-10.124c-.091,0-.071.084-.07.18l0,1.531C-3298.036-40.635-3298.012-40.533-3298.108-40.533Zm4.657-4.118v-2.564c0-.052.016-.068.068-.068h3.779c.7,0,1.283.113,1.283.81v1.822c0,.052-.016.068-.068.068h-4.994C-3293.435-44.583-3293.451-44.6-3293.451-44.651Zm-1.281.068h-2.318a.543.543,0,0,1-.434-.951.74.74,0,0,1,.479-.13h1.934v-1.17a.735.735,0,0,1,.13-.478.541.541,0,0,1,.951.432v1.306C-3293.99-45.134-3294.274-44.583-3294.732-44.583Zm-2.948-2.7a1.176,1.176,0,0,1,2.009-.837,1.1,1.1,0,0,1,.241.343,1.172,1.172,0,0,1-1.884,1.322A1.192,1.192,0,0,1-3297.68-47.283Zm-6.659,1.215a1.225,1.225,0,0,0,.864-.24c.356-.19.75-.505,1.1-.74.185-.123.365-.269.554-.369v7.266a5.074,5.074,0,0,0,.042,1.173c.076.241.309.6.611.6h15.95a1.15,1.15,0,0,0,.765-.471c.251-.327.18-.57.18-1.08v-7.492c.175.117.333.261.505.4.353.277.656.611.952.846a1.165,1.165,0,0,0,1.873-.859,1.087,1.087,0,0,0-.463-1L-3284.5-50.3c-.768-.539-1.581-1.176-2.339-1.709-1.807-1.32-3.62-2.635-5.423-3.96a1.669,1.669,0,0,0-.4-.277,1.388,1.388,0,0,0-1.226.026c-.114.06-.47.348-.635.467q-5.226,3.781-10.439,7.581a1.2,1.2,0,0,0,.05,1.928A1.35,1.35,0,0,0-3304.339-46.068Z" transform="translate(3305.419 56.374)" fill="#a3a3a3" fill-rule="evenodd"/>
</svg>
