<?xml version="1.0" encoding="utf-8"?>
<!-- Generator: Adobe Illustrator 23.0.0, SVG Export Plug-In . SVG Version: 6.00 Build 0)  -->
<svg version="1.1" id="Acommodation" xmlns="http://www.w3.org/2000/svg" xmlns:xlink="http://www.w3.org/1999/xlink" x="0px"
	 y="0px" viewBox="0 0 24.5 18" style="enable-background:new 0 0 24.5 18;" xml:space="preserve">
<style type="text/css">
	.st0{fill-rule:evenodd;clip-rule:evenodd;fill:#283279;}
</style>
<path id="Path_3961" class="st0" d="M7.3,15.8H6.4c-0.1,0-0.1,0-0.1-0.1V8.5c0-0.4,0.1-0.9,0.5-0.9c0.4,0,0.5,0.3,0.5,0.7v4h10.3V10
	c0-1,1.1-1,1.1,0v5.8c0,0.1,0,0.1-0.1,0.1c-1.1,0-1,0.1-1-0.2v-1.5c0-0.1,0-0.2-0.1-0.2H7.4c-0.1,0-0.1,0.1-0.1,0.2v1.5
	C7.4,15.7,7.4,15.8,7.3,15.8z M12,11.7V9.2c0-0.1,0-0.1,0.1-0.1h3.8c0.7,0,1.3,0.1,1.3,0.8v1.8c0,0.1,0,0.1-0.1,0.1L12,11.7
	C12,11.8,12,11.8,12,11.7z M10.7,11.8H8.4c-0.3,0-0.6-0.2-0.6-0.5c0-0.2,0-0.4,0.2-0.5c0.1-0.1,0.3-0.1,0.5-0.1h1.9V9.5
	c0-0.2,0-0.3,0.1-0.5C10.7,8.8,11,8.8,11.2,9c0.1,0.1,0.2,0.3,0.2,0.5v1.3C11.4,11.2,11.1,11.8,10.7,11.8z M7.7,9.1
	c0-0.6,0.5-1.2,1.2-1.2c0.3,0,0.6,0.1,0.8,0.3C9.8,8.4,9.9,8.5,10,8.6c0.3,0.6,0,1.3-0.6,1.5C9,10.3,8.4,10.3,8.1,9.9
	C7.9,9.7,7.7,9.4,7.7,9.1z M1.1,10.3c0.3,0,0.6-0.1,0.9-0.2C2.3,9.9,2.7,9.6,3,9.3C3.2,9.2,3.4,9.1,3.6,9v7.3c0,0.4,0,0.8,0,1.2
	C3.7,17.6,3.9,18,4.3,18h15.9c0.3,0,0.6-0.2,0.8-0.5c0.3-0.3,0.2-0.6,0.2-1.1V9c0.2,0.1,0.3,0.3,0.5,0.4c0.4,0.3,0.7,0.6,1,0.8
	c0.5,0.4,1.2,0.3,1.6-0.2c0.1-0.2,0.2-0.4,0.2-0.6c0-0.4-0.1-0.8-0.5-1l-3.1-2.3c-0.8-0.5-1.6-1.2-2.3-1.7c-1.8-1.3-3.6-2.6-5.4-4
	c-0.1-0.1-0.3-0.2-0.4-0.3c-0.4-0.2-0.8-0.2-1.2,0c-0.1,0.1-0.5,0.3-0.6,0.5c-3.5,2.5-7,5-10.4,7.6c-0.5,0.4-0.6,1.2-0.2,1.7
	c0.1,0.1,0.2,0.2,0.3,0.2C0.7,10.2,0.9,10.3,1.1,10.3L1.1,10.3z"/>
</svg>
