<?xml version="1.0" encoding="utf-8"?>
<!-- Generator: Adobe Illustrator 23.0.0, SVG Export Plug-In . SVG Version: 6.00 Build 0)  -->
<svg version="1.1" id="Layer_1" xmlns="http://www.w3.org/2000/svg" xmlns:xlink="http://www.w3.org/1999/xlink" x="0px" y="0px"
	 viewBox="0 0 16.5 17" style="enable-background:new 0 0 16.5 17;" xml:space="preserve">
<style type="text/css">
	.st0{fill:#283279;}
</style>
<path id="Icon_material-settings" class="st0" d="M14.6,9.3c0.1-0.6,0.1-1.1,0-1.7l1.8-1.4c0.2-0.1,0.2-0.4,0.1-0.5l-1.7-2.9
	c-0.1-0.2-0.3-0.3-0.5-0.2l-2.1,0.8c-0.4-0.3-0.9-0.6-1.4-0.8l-0.3-2.3C10.4,0.2,10.2,0,10,0H6.6C6.4,0,6.2,0.1,6.2,0.4L5.8,2.6
	c-0.5,0.2-1,0.5-1.4,0.8L2.3,2.6c-0.2-0.1-0.4,0-0.5,0.2L0.1,5.7C0,5.9,0,6.1,0.2,6.3L2,7.7c0,0.3-0.1,0.6-0.1,0.8
	c0,0.3,0,0.6,0.1,0.8l-1.8,1.4C0,10.9,0,11.1,0.1,11.3l1.7,2.9c0.1,0.2,0.3,0.3,0.5,0.2l2.1-0.9c0.4,0.3,0.9,0.6,1.4,0.8l0.3,2.3
	c0,0.2,0.2,0.4,0.4,0.4H10c0.2,0,0.4-0.2,0.4-0.4l0.3-2.3c0.5-0.2,1-0.5,1.4-0.8l2.1,0.9c0.2,0.1,0.4,0,0.5-0.2l1.7-2.9
	c0.1-0.2,0.1-0.4-0.1-0.5L14.6,9.3L14.6,9.3z M8.3,11.5c-1.6,0-3-1.3-3-3c0-1.6,1.3-3,3-3c1.6,0,3,1.3,3,3
	C11.2,10.1,9.9,11.5,8.3,11.5L8.3,11.5z"/>
</svg>
