<svg xmlns="http://www.w3.org/2000/svg" width="35.001" height="25.994" viewBox="0 0 35.001 25.994">
  <g id="writing" opacity="0.5">
    <path id="Path_40" data-name="Path 40" d="M251.232-3.9a3.576,3.576,0,0,0-5.058,0L234.362,7.913a3.58,3.58,0,0,0-.928,1.612l-1.551,5.843a.736.736,0,0,0,.888.9l5.91-1.462a3.579,3.579,0,0,0,1.67-.943l7.35-7.351A.733.733,0,0,0,248.219,6l2.028-2.028a.733.733,0,0,0,.516-.516l1.384-1.384a3.58,3.58,0,0,0,0-5.058ZM247.44,4.7,243.551.807l1.5-1.5,3.889,3.889Zm-8.129,8.129a2.1,2.1,0,0,1-.982.554l-4.7,1.163L234.857,9.9a2.11,2.11,0,0,1,.546-.948l7.106-7.106L246.4,5.737ZM251.1,1.031l-1.121,1.121-3.889-3.889,1.121-1.121a2.1,2.1,0,0,1,2.975,0l.914.914a2.106,2.106,0,0,1,0,2.975Zm0,0" transform="translate(-218.191 4.947)" fill="#707070"/>
    <path id="Path_41" data-name="Path 41" d="M.736,94.035H18.395a.736.736,0,1,0,0-1.472H.736a.736.736,0,0,0,0,1.472Zm0,0" transform="translate(0 -86.814)" fill="#707070"/>
    <path id="Path_42" data-name="Path 42" d="M.736,200.187h10.6a.736.736,0,0,0,0-1.473H.736a.736.736,0,0,0,0,1.473Zm0,0" transform="translate(0 -186.709)" fill="#707070"/>
    <path id="Path_43" data-name="Path 43" d="M.736,306.344h10.6a.736.736,0,0,0,0-1.472H.736a.736.736,0,0,0,0,1.472Zm0,0" transform="translate(0 -286.608)" fill="#707070"/>
    <path id="Path_44" data-name="Path 44" d="M21.194,411.027H.737a.736.736,0,0,0,0,1.472H21.194a.736.736,0,1,0,0-1.472Zm0,0" transform="translate(-0.001 -386.506)" fill="#707070"/>
  </g>
</svg>
