<svg id="question" xmlns="http://www.w3.org/2000/svg" width="26.005" height="26.005" viewBox="0 0 26.005 26.005">
  <g id="Group_2568" data-name="Group 2568" transform="translate(0 8.845)">
    <g id="Group_2567" data-name="Group 2567">
      <path id="Path_3865" data-name="Path 3865" d="M17.567,181.362a.508.508,0,0,0-.508.508v3.5a2.541,2.541,0,0,1-2.539,2.539H9.039a.508.508,0,0,0-.508.507v1.009l-1.212-1.212a.508.508,0,0,0-.466-.305h-3.3a2.541,2.541,0,0,1-2.539-2.539v-7.819a2.541,2.541,0,0,1,2.539-2.539H8.682a.508.508,0,1,0,0-1.015H3.554A3.558,3.558,0,0,0,0,177.554v7.819a3.558,3.558,0,0,0,3.554,3.554H6.593l2.085,2.085a.508.508,0,0,0,.867-.359v-1.727H14.52a3.558,3.558,0,0,0,3.554-3.554v-3.5A.508.508,0,0,0,17.567,181.362Z" transform="translate(0 -174)" fill="#a3a3a3"/>
    </g>
  </g>
  <g id="Group_2570" data-name="Group 2570" transform="translate(9.961)">
    <g id="Group_2569" data-name="Group 2569">
      <path id="Path_3866" data-name="Path 3866" d="M204.664,0h-1.285a7.379,7.379,0,0,0,0,14.758h1.285a7.393,7.393,0,0,0,1.873-.24l1.9,1.9a.508.508,0,0,0,.867-.359V13.119a7.45,7.45,0,0,0,1.94-2.391,7.3,7.3,0,0,0,.8-3.348A7.388,7.388,0,0,0,204.664,0Zm3.824,12.466a.508.508,0,0,0-.2.406v1.96l-1.242-1.242a.507.507,0,0,0-.508-.126,6.366,6.366,0,0,1-1.872.28h-1.285a6.364,6.364,0,1,1,0-12.728h1.285a6.364,6.364,0,0,1,3.824,11.45Z" transform="translate(-196)" fill="#a3a3a3"/>
    </g>
  </g>
  <g id="Group_2572" data-name="Group 2572" transform="translate(15.973 3.557)">
    <g id="Group_2571" data-name="Group 2571">
      <path id="Path_3867" data-name="Path 3867" d="M318.756,72.061a2.154,2.154,0,0,0-1.993-1.993,2.133,2.133,0,0,0-1.618.573,2.157,2.157,0,0,0-.683,1.572.508.508,0,0,0,1.015,0,1.134,1.134,0,0,1,1.216-1.131,1.134,1.134,0,0,1,.168,2.238.961.961,0,0,0-.757.942v1.22a.508.508,0,1,0,1.015,0V74.3A2.138,2.138,0,0,0,318.756,72.061Z" transform="translate(-314.462 -70.063)" fill="#a3a3a3"/>
    </g>
  </g>
  <g id="Group_2574" data-name="Group 2574" transform="translate(17.615 10.48)">
    <g id="Group_2573" data-name="Group 2573">
      <path id="Path_3868" data-name="Path 3868" d="M347.667,206.479a.508.508,0,1,0,.149.359A.512.512,0,0,0,347.667,206.479Z" transform="translate(-346.8 -206.33)" fill="#a3a3a3"/>
    </g>
  </g>
  <g id="Group_2576" data-name="Group 2576" transform="translate(2.742 15.745)">
    <g id="Group_2575" data-name="Group 2575">
      <path id="Path_3869" data-name="Path 3869" d="M65.22,310H54.508a.508.508,0,1,0,0,1.015H65.22a.508.508,0,1,0,0-1.015Z" transform="translate(-54 -310)" fill="#a3a3a3"/>
    </g>
  </g>
  <g id="Group_2578" data-name="Group 2578" transform="translate(13.46 18.59)">
    <g id="Group_2577" data-name="Group 2577">
      <path id="Path_3870" data-name="Path 3870" d="M265.867,366.149a.507.507,0,1,0,.149.359A.511.511,0,0,0,265.867,366.149Z" transform="translate(-265 -366)" fill="#a3a3a3"/>
    </g>
  </g>
  <g id="Group_2580" data-name="Group 2580" transform="translate(2.742 18.59)">
    <g id="Group_2579" data-name="Group 2579">
      <path id="Path_3871" data-name="Path 3871" d="M63.223,366H54.508a.508.508,0,1,0,0,1.015h8.716a.508.508,0,1,0,0-1.015Z" transform="translate(-54 -366)" fill="#a3a3a3"/>
    </g>
  </g>
  <g id="Group_2582" data-name="Group 2582" transform="translate(2.742 12.901)">
    <g id="Group_2581" data-name="Group 2581">
      <path id="Path_3872" data-name="Path 3872" d="M61.92,254H54.508a.508.508,0,0,0,0,1.015H61.92a.508.508,0,0,0,0-1.015Z" transform="translate(-54 -254)" fill="#a3a3a3"/>
    </g>
  </g>
</svg>
