<svg id="text" xmlns="http://www.w3.org/2000/svg" width="20.332" height="14.88" viewBox="0 0 20.332 14.88">
  <path id="Path_6201" data-name="Path 6201" d="M2.726,4.452h18.88a.726.726,0,1,0,0-1.452H2.726a.726.726,0,1,0,0,1.452Z" transform="translate(-2 -3)"/>
  <path id="Path_6202" data-name="Path 6202" d="M18.44,27H9.726a.726.726,0,1,0,0,1.452H18.44a.726.726,0,1,0,0-1.452Z" transform="translate(-8.917 -13.573)"/>
  <path id="Path_6203" data-name="Path 6203" d="M21.606,9H2.726a.726.726,0,1,0,0,1.452h18.88a.726.726,0,1,0,0-1.452Z" transform="translate(-2 -4.643)"/>
  <path id="Path_6205" data-name="Path 6205" d="M21.606,21H2.726a.726.726,0,1,0,0,1.452h18.88a.726.726,0,1,0,0-1.452Z" transform="translate(-2 -11.929)"/>
</svg>
