<svg xmlns="http://www.w3.org/2000/svg" width="20.205" height="16.664" viewBox="0 0 20.205 16.664"><path d="M9.374,15.166H8.54V1.834h5v.833a.833.833,0,1,0,1.666,0V1a.832.832,0,0,0-.833-.833H.833A.832.832,0,0,0,0,1V2.668a.833.833,0,0,0,1.666,0V1.834H6.874V15.166H6.041a.833.833,0,1,0,0,1.666H9.374a.833.833,0,1,0,0-1.666Zm0,0" transform="translate(0 -0.168)"/><path d="M311.5,192.168h-6.666A.832.832,0,0,0,304,193v1.458a.833.833,0,1,0,1.666,0v-.625h1.666v5.833h-.417a.833.833,0,1,0,0,1.666h2.5a.833.833,0,0,0,0-1.666H309v-5.833h1.666v.417a.833.833,0,0,0,1.666,0V193A.832.832,0,0,0,311.5,192.168Zm0,0" transform="translate(-292.127 -184.669)"/></svg>