<svg xmlns="http://www.w3.org/2000/svg" width="269.364" height="225.5" viewBox="0 0 269.364 225.5">
  <g id="Group_14015" data-name="Group 14015" transform="translate(-632 -278)">
    <g id="Group_14014" data-name="Group 14014" transform="translate(632 278)">
      <g id="Group_13197" data-name="Group 13197" transform="translate(0 0)" style="mix-blend-mode: multiply;isolation: isolate">
        <path id="Path_13346" data-name="Path 13346" d="M366.1,339.284c-4.7-2.4-10.836-1.945-16.026-2.014-6.183-.082-12.365.071-18.539.412-11.7.645-24.46.972-35.743,4.373a3.523,3.523,0,0,0-.938,6.092c1.024,4.5,7.72,4.8,11.636,4.5,5.924-.462,11.929-.99,17.877-1.753a4.661,4.661,0,0,1,1.749,2.614c1.8,7.612.843,15.5,1.7,23.223.97,8.735,1.734,17.495,2.89,26.209,1.445,10.885,2.7,21.8,4.572,32.607a61.674,61.674,0,0,0,10.735,2.182c.988-12.443-.3-25.15-.373-37.543-.093-16.518-1.318-33.049,0-49.548a4.449,4.449,0,0,1,3.487-4.054c.576-.071,1.151-.129,1.727-.183.2-.048.41-.1.6-.14s.377-.06.567-.089c4.516.216,9.439.5,13.314-1.065C367.643,344.177,368.784,340.653,366.1,339.284Z" transform="translate(-293.484 -337.248)" fill="#0071bc"/>
        <path id="Path_13347" data-name="Path 13347" d="M353.852,425.458c-.213-.173-.423-.336-.628-.5a116.6,116.6,0,0,0-1.212-13.876,66.835,66.835,0,0,0-2.626-21.2,75.978,75.978,0,0,0-1.783-8.828c-.951-3.493-4.373-8.033-8.3-5.053-2.081,1.579-3.19,4.759-4.391,6.978-.332.615-.66,1.231-.992,1.846.565-12.964.932-25.974.481-38.923-.03-.9-1.132-1.77-1.979-1.136a103.976,103.976,0,0,0-8.654,6.624,1.072,1.072,0,0,0-.039,1.54c.194,13.406.528,26.81.776,40.217.2,10.97.259,21.942.274,32.911-.033.287-.063.574-.093.86a1.611,1.611,0,0,0,2.409,1.382c2.3-1.346,3.946-2.6,4.928-5.186,1.175-3.1,1.44-6.592,1.908-9.851q.893-6.185,1.781-12.369a23.939,23.939,0,0,1,1.41-6.131,2.447,2.447,0,0,1,3.032.214c.4,2.454.58,4.953.891,7.457.55,4.414,1.177,8.818,1.815,13.219.5,3.4,1.154,7,3.528,9.656,1.77,1.975,4.744,3.5,7.235,1.947A1.153,1.153,0,0,0,353.852,425.458Z" transform="translate(-258.866 -328.808)" fill="#0071bc"/>
        <path id="Path_13348" data-name="Path 13348" d="M383.376,366.358c-.707-3.966-6.413-6.245-9.669-7.649a3.181,3.181,0,0,0-4.7,2.7c-.05.513-.106,1.026-.164,1.536-4.432-1.734-10.118-1.751-13.734-.339-10.467,4.089-16.292,14.791-17.292,25.549-1.013,10.9,4.224,21.555,15.3,24.594a18.52,18.52,0,0,0,16.425-3.6,2.3,2.3,0,0,1,.957.61,6.683,6.683,0,0,0,4.287,2.284,4.71,4.71,0,0,0,4.811-1.1,5.373,5.373,0,0,0,.455-.487,11.073,11.073,0,0,0,1.242-1.042l-.056-1.236c.794-2.642.3-5.9.237-8.434-.125-5.13-.194-10.254,0-15.382.093-1.3.172-2.592.265-3.888.263-2.361.662-4.792.884-7.2A16.542,16.542,0,0,0,383.376,366.358Zm-24.958,38.63a10.208,10.208,0,0,1-1.534-2.191c-4.009-7.959-5.576-33.765,8.833-32.07a2.314,2.314,0,0,1,2.072,2.016,2.351,2.351,0,0,1,.453,1.43c0,6.724-.075,13.45,0,20.171.026,2.333.4,4.783.354,7.168C365.474,403.416,362.067,404.936,358.418,404.988Z" transform="translate(-242.363 -312.829)" fill="#0071bc"/>
        <path id="Path_13349" data-name="Path 13349" d="M401.439,391.891c-.067-2.866.147-14.116-1.164-22.105-1.469-5.094-4.764-8.716-9.728-7.675-6.062,1.27-10.554,7.983-13.534,14.179-.362.748-.735,1.533-1.111,2.337-.211-5.311-.606-10.62-.8-15.929a36.194,36.194,0,0,0-8.356-6.04c-.9-.531-1.788-1.057-2.629-1.615-1.223-.811-2.976.186-3.1,1.956-.677,9.943-.106,20.206.082,30.216.1,5.212.153,10.424.24,15.638.065,3.769.267,7.7,2.454,10.676,1.643,2.232,4.071,3.413,6.394,2.814a4.5,4.5,0,0,0,1.111-.462c5.266-8.168,8.164-18.651,10.709-28.631.535-2.1,2.644-1.566,2.879.356.03-.073.065-.144.095-.218.2,2.012.485,4.007.751,5.883.69,4.891,1.488,10.139,3.295,14.644,3.179,7.925,9.441,10.95,16.048,11.056a2.28,2.28,0,0,0,2.01-1.089C401.815,411.8,401.636,400.18,401.439,391.891Z" transform="translate(-215.752 -317.001)" fill="#0071bc"/>
        <path id="Path_13350" data-name="Path 13350" d="M421.206,421.8c-5.109-6.825-12.039-18.127-10.137-27.134,1.4-6.64,8.792-11.3,13.346-15.9a74.084,74.084,0,0,0,6.232-6.795,10.552,10.552,0,0,0-.121-3.569c-.657-3.213-4.623-3.608-6.762-1.786-4.6,3.925-9.145,7.916-13.68,11.921-2.486,1.257-4.7,3.871-6.463,5.734-.186.177-.362.356-.546.533-1.682,1.358-4.2-.263-4.151-2.307.17-7.813,2.184-15.373,3.351-23.048a35.216,35.216,0,0,0,1.628-7.916c.313-6.323-6.8-10.521-11.375-13.739-2.169-1.527-4.884.4-5.173,2.7-.021,0-.043-.009-.062-.011-.06.056-.123.108-.177.168-1.816,5.3-2.361,11.364-2.877,16.4-.988,9.658-1.57,19.39-1.848,29.094-.317,11.054-.229,22.159.431,33.2.024.392.058.789.084,1.184q-.207,5.525-.429,11.051a4.247,4.247,0,0,0,3.107,4.082q2.5.378,5,.755c2.754.412,5.326-1.089,5.4-4.119.24-9.221,2.055-18.019,3.362-27.011a2.749,2.749,0,0,1,1.58-.1c-.323,6.922,4.233,15.739,8.031,20.7,5.109,6.666,13.2,10.413,21.342,11.791a4.555,4.555,0,0,0,5.07-4.319C429.736,431.155,424.882,426.715,421.206,421.8Z" transform="translate(-190.876 -337.248)" fill="#0071bc"/>
        <path id="Path_13351" data-name="Path 13351" d="M342.167,449.189a27.219,27.219,0,0,0,5.057-2.4,18.7,18.7,0,0,1,.843,7.064c-.291,2.178-.573,4.009-.649,4.4a92.567,92.567,0,0,1-3.5,13.027,90.167,90.167,0,0,1-4.949,11.487q-1.391,2.694-2.959,5.281c-.934,1.54-2.055,3-2.974,4.567-.41.511-.807,1.033-1.227,1.533a1.169,1.169,0,0,0,1.2,1.876c6.5-1.87,11.039-7.662,14.679-13.37.444-.416.875-.843,1.3-1.277,4.3-7.146,6.87-15.308,8.684-23.6,2.325-10.629,3.511-21.491,5.615-32.167,1.563-7.938,2.976-15.923,4.063-23.956q.035-1.368.062-2.734a2.843,2.843,0,0,0-2.165-2.625c-1.988-.326-3.9-.977-5.883-1.374a1.891,1.891,0,0,0-1.813.755,2.844,2.844,0,0,0-1.432,1.954,105.172,105.172,0,0,1-8.431,25.2c-.5,1.063-1.011,2.165-1.542,3.265-.518.884-1.046,1.764-1.606,2.62-.99,1.507-2.206,3.686-3.6,5.458a9.253,9.253,0,0,1-4.067,2.117,8.484,8.484,0,0,1-2.786-4.009c-1.7-4.429-1.723-9.577-2.3-14.262-.791-6.474-.455-15.578-6.741-19.14a2.386,2.386,0,0,0-3.427,1.719,58.246,58.246,0,0,0-.828,9.07,109.678,109.678,0,0,0-1.8,14.571c-.487,7.345.6,14.81,5.417,20.5C329.017,450.209,335.717,451.449,342.167,449.189Z" transform="translate(-264.109 -270.575)" fill="#22b573"/>
        <path id="Path_13352" data-name="Path 13352" d="M384.547,404.044a24.32,24.32,0,0,0-4.99-4.179c-5.035-4.184-12.238-4.339-18.151-1.917-15.405,6.305-22.256,22.905-19.9,38.807,1.1,7.409,6.948,13.113,12.175,18.038,5.041,4.749,11.319,9,18.566,8.268,16.488-1.669,20.184-21.376,20.063-34.744C392.235,419.732,390.5,410.59,384.547,404.044Zm-23.8,23.341c.884-7.047,2.46-17.584,9.984-20.822a6.594,6.594,0,0,1,4.664-.246,14.366,14.366,0,0,1,3.105,2.316,17.4,17.4,0,0,1,2.1,2.413l-.067.065a11.194,11.194,0,0,1,.837,2.922c2.872,5.794,1.753,14.379.231,19.99-1.589,5.859-7.494,15.921-14.733,14.974C357.4,447.754,359.962,433.653,360.749,427.385Z" transform="translate(-238.473 -268.881)" fill="#22b573"/>
        <path id="Path_13353" data-name="Path 13353" d="M418.745,443.114c-.153-2.566-.459-5.141-.507-7.707-.1-5.292.492-10.512.675-15.787a27.337,27.337,0,0,0-8.956-21.554,2.484,2.484,0,0,0-4.108,1.085c-.472,1.969-1.011,4-1.546,6.057a37.169,37.169,0,0,0-3.619,11.925c-.608,4.753-.832,9.268-1.667,13.611a1.134,1.134,0,0,1-.173.837,28.625,28.625,0,0,1-4.852,11.293,3.39,3.39,0,0,1-4.155,1.257c-.444-4.089-1.464-8.242-1.641-12.291-.255-5.861.134-11.681.125-17.536-.015-9.751-6.049-15.231-14.866-18.5a2.474,2.474,0,0,0-3.038,1.725c-.3,2.12-.662,4.376-.972,6.681l-.028.045c-.006.117-.017.233-.026.349a59.741,59.741,0,0,0-.6,8.119,181.717,181.717,0,0,0-.64,20.469c.075,1.876.214,3.772.436,5.656a30.278,30.278,0,0,0,.386,7.606c.834,4.033,3.532,7.041,6.493,9.773a17.65,17.65,0,0,0,6.7,4.134c.078.067.151.123.229.192a4.663,4.663,0,0,0,.625.52c5.988,1.825,11.621-2.536,14.64-8.121a74.289,74.289,0,0,0,5.005-6.2c.4-.55.815-1.117,1.235-1.7a.981.981,0,0,1,.22.082.844.844,0,0,1,.561.561l.647,1.13a2.914,2.914,0,0,1,.586.85c2.517,5.6,9.357,8.93,15,10.579a18.376,18.376,0,0,0,2.965.591C420.852,454.457,419.428,448.79,418.745,443.114Z" transform="translate(-207.236 -269.657)" fill="#22b573"/>
        <path id="Path_13354" data-name="Path 13354" d="M334.123,408.7c-2.79-4.988-9.223-7.793-14.172-10.239-5.589-2.765-12.807-5.684-18.953-3.649-2.633.871-5.339,4.035-3.355,6.706,3.39,4.567,12.531,5.195,17.866,6.241,5.764,1.13,11.621,3.267,17.525,2.67C333.681,410.358,334.479,409.336,334.123,408.7Z" transform="translate(-289.465 -271.472)" fill="#22b573"/>
        <path id="Path_13355" data-name="Path 13355" d="M336.278,413.787c-2.025-7.036-13.312-7.759-19.38-7.561-7.841.257-16.027,1.669-21.448,7.768-1.069,1.2-2.21,4.067-.03,4.916,5.768,2.254,13.12-.612,19.164-.645,6.549-.037,13.717,1.779,19.869-.88A3.122,3.122,0,0,0,336.278,413.787Z" transform="translate(-292.679 -257.511)" fill="#0071bc"/>
        <path id="Path_13356" data-name="Path 13356" d="M335.067,415.878c-8.175.129-16.641,5.773-23.522,9.768-5.223,3.034-12.725,6.994-13.057,13.89a2.673,2.673,0,0,0,1.456,2.92c3.013,1.466,10.5-4.474,13-5.79,7.765-4.1,16.6-7.489,23.125-13.437C338.027,421.442,339.166,415.814,335.067,415.878Z" transform="translate(-287.707 -246.319)" fill="#22b573"/>
        <path id="Path_13357" data-name="Path 13357" d="M436.869,389.744c-7.56.52-14.827,4.847-21.469,8.248-6.892,3.53-13.035,7.72-17.407,14.228-3.556,5.294,1.581,8.693,6.267,5.756a175.372,175.372,0,0,1,16.766-9.84c6.021-2.918,12.048-5.782,16.924-10.437C439.877,395.859,441.419,389.431,436.869,389.744Z" transform="translate(-173.999 -276.554)" fill="#22b573"/>
        <path id="Path_13358" data-name="Path 13358" d="M428.6,406.889c-10.31,1.186-20.279,2.474-29.655,7.151-1.119.558-2.778,3.459-.5,3.621a217.146,217.146,0,0,0,28.431.608c4.768-.281,14.053.065,15.671-6C444.64,404.411,432.555,406.434,428.6,406.889Z" transform="translate(-173.422 -257.373)" fill="#0071bc"/>
        <path id="Path_13359" data-name="Path 13359" d="M422.573,422.363c-7.153-2.553-14.2-5.911-21.885-6.277-2.765-.134-6.01,3.871-3.929,6.3,4.283,4.988,10.737,7.828,16.777,10.14,5.162,1.978,11.373,5.15,16.857,3.289,1.4-.475,3.015-1.725,3.086-3.362C433.768,425.863,427.99,424.3,422.573,422.363Z" transform="translate(-174.82 -246.083)" fill="#22b573"/>
      </g>
    </g>
  </g>
</svg>
