<svg id="tool" xmlns="http://www.w3.org/2000/svg" fill="#6e6e6e" width="18.606" height="18.606" viewBox="0 0 18.606 18.606">
  <g id="Group_6521" data-name="Group 6521">
    <g id="Group_6520" data-name="Group 6520">
      <path id="Path_6216" data-name="Path 6216" d="M9.3,0a9.3,9.3,0,1,0,9.3,9.3A9.314,9.314,0,0,0,9.3,0Zm0,17.034A7.731,7.731,0,1,1,17.034,9.3,7.739,7.739,0,0,1,9.3,17.034Z"/>
    </g>
  </g>
  <g id="Group_6523" data-name="Group 6523" transform="translate(8.281 2.745)">
    <g id="Group_6522" data-name="Group 6522">
      <path id="Path_6217" data-name="Path 6217" d="M233.117,81.812h-3.669V76.328a.786.786,0,0,0-1.572,0V82.6a.786.786,0,0,0,.786.786h4.455a.786.786,0,1,0,0-1.572Z" transform="translate(-227.876 -75.542)"/>
    </g>
  </g>
</svg>
