<svg xmlns="http://www.w3.org/2000/svg" width="16.577" height="22.906" viewBox="0 0 16.577 22.906">
  <g id="Group_53693" data-name="Group 53693" transform="translate(-2.572)">
    <g id="Group_53750" data-name="Group 53750" transform="translate(-77.753)">
      <g id="Group_53746" data-name="Group 53746" transform="translate(80.325)">
        <g id="Layer_1_117_" transform="translate(0)">
          <g id="Group_53745" data-name="Group 53745">
            <path id="Path_44184" data-name="Path 44184" d="M240.434,376.125a2.015,2.015,0,0,0-2.009,2.009V382.2a2.009,2.009,0,0,0,4.019,0v-4.069A2.015,2.015,0,0,0,240.434,376.125Z" transform="translate(-232.196 -361.306)" fill="#fff"/>
            <path id="Path_44185" data-name="Path 44185" d="M95.847,2.512H91.979a3.579,3.579,0,0,0-6.832,0H81.33a1,1,0,0,0,0,2.009H85.2A3.47,3.47,0,0,0,86.755,6.53a6.585,6.585,0,0,0-4.722,6.279v5.275a1.672,1.672,0,0,0,1.658,1.658h1.356V16.878a3.567,3.567,0,0,1,7.133,0v2.863h1.356a1.672,1.672,0,0,0,1.658-1.658V12.86a6.539,6.539,0,0,0-4.722-6.279,3.47,3.47,0,0,0,1.557-2.009H95.9a1.008,1.008,0,0,0,1-1A1.1,1.1,0,0,0,95.847,2.512ZM88.563,5.576a2.009,2.009,0,1,1,2.009-2.009A1.953,1.953,0,0,1,88.563,5.576Z" transform="translate(-80.325)" fill="#fff"/>
          </g>
        </g>
      </g>
    </g>
  </g>
</svg>
