<svg id="Group_54309" data-name="Group 54309" xmlns="http://www.w3.org/2000/svg" width="14.285" height="11.466" viewBox="0 0 14.285 11.466">
  <g id="Group_54308" data-name="Group 54308" transform="translate(0 0)">
    <path id="Path_15037" data-name="Path 15037" d="M42.317,25.26a.388.388,0,0,0-.385,0,21.6,21.6,0,0,1-9.839,2.321.388.388,0,0,0-.372.387v4.017a.388.388,0,0,0,.372.387,21.6,21.6,0,0,1,9.839,2.321.39.39,0,0,0,.188.049.388.388,0,0,0,.388-.388V25.595A.387.387,0,0,0,42.317,25.26Z" transform="translate(-28.222 -25.207)" fill="#fff"/>
    <path id="Path_15038" data-name="Path 15038" d="M16.574,37.171a2.377,2.377,0,1,0,0,4.753.388.388,0,0,0,.388-.388V37.559A.388.388,0,0,0,16.574,37.171Z" transform="translate(-14.197 -34.782)" fill="#fff"/>
    <path id="Path_15039" data-name="Path 15039" d="M33.581,64.775a.491.491,0,0,0-.44-.332l-.906-.045a.491.491,0,0,0-.491.641l.814,2.661a.491.491,0,0,0,.467.339h.942a.491.491,0,0,0,.452-.683Z" transform="translate(-28.221 -56.573)" fill="#fff"/>
  </g>
</svg>
