<svg xmlns="http://www.w3.org/2000/svg" width="19.724" height="17.994" viewBox="0 0 19.724 17.994">
  <g id="Group_4780" data-name="Group 4780" transform="translate(-27.638 -35.062)">
    <g id="Group_4779" data-name="Group 4779">
      <circle id="Ellipse_217" data-name="Ellipse 217" cx="4.5" cy="4.5" r="4.5" transform="translate(31.01 35.062)" fill="#a3a3a3"/>
      <path id="Path_10894" data-name="Path 10894" d="M39.018,48.634A4.409,4.409,0,0,1,40.323,45.5a4.689,4.689,0,0,0-1.664-.317v0h-.586a6.118,6.118,0,0,1-5.125,0h-.586a4.726,4.726,0,0,0-4.724,4.72v1.462a1.687,1.687,0,0,0,1.687,1.687H41.7a1.672,1.672,0,0,0,.678-.145A4.418,4.418,0,0,1,39.018,48.634Z" fill="#a3a3a3"/>
    </g>
    <g id="Group_13221" data-name="Group 13221">
      <g id="Group_13220" data-name="Group 13220">
        <path id="Path_13361" data-name="Path 13361" d="M43.44,44.712a3.922,3.922,0,1,0,3.922,3.922h0A3.933,3.933,0,0,0,43.44,44.712Zm1.647,5.569-2.039-1.255V46.673h.588v2.039L45.4,49.771Z" fill="#a3a3a3"/>
      </g>
    </g>
  </g>
</svg>
