<?xml version="1.0" encoding="utf-8"?>
<!-- Generator: Adobe Illustrator 23.0.0, SVG Export Plug-In . SVG Version: 6.00 Build 0)  -->
<svg version="1.1" id="Layer_1" xmlns="http://www.w3.org/2000/svg" xmlns:xlink="http://www.w3.org/1999/xlink" x="0px" y="0px"
	 viewBox="0 0 19.7 18" style="enable-background:new 0 0 19.7 18;" xml:space="preserve">
<style type="text/css">
	.st0{fill:#283279;}
</style>
<g id="Group_4780" transform="translate(-27.638 -35.062)">
	<g id="Group_4779">
		<circle id="Ellipse_217" class="st0" cx="35.5" cy="39.6" r="4.5"/>
		<path id="Path_10894" class="st0" d="M39,48.6c0-1.2,0.5-2.3,1.3-3.1c-0.5-0.2-1.1-0.3-1.7-0.3l0,0H38c-1.6,0.8-3.5,0.8-5.1,0
			h-0.6c-2.6,0-4.7,2.1-4.7,4.7v1.5c0,0.9,0.8,1.7,1.7,1.7l0,0h12.4c0.2,0,0.5,0,0.7-0.1C40.4,52.4,39,50.7,39,48.6z"/>
	</g>
	<g id="Group_13221">
		<g id="Group_13220">
			<path id="Path_13361" class="st0" d="M43.4,44.7c-2.2,0-3.9,1.8-3.9,3.9s1.8,3.9,3.9,3.9s3.9-1.8,3.9-3.9l0,0
				C47.4,46.5,45.6,44.7,43.4,44.7z M45.1,50.3L43,49v-2.4h0.6v2l1.8,1.1L45.1,50.3z"/>
		</g>
	</g>
</g>
</svg>
