<?xml version="1.0" encoding="utf-8"?>
<!-- Generator: Adobe Illustrator 23.0.0, SVG Export Plug-In . SVG Version: 6.00 Build 0)  -->
<svg version="1.1" id="Layer_1" xmlns="http://www.w3.org/2000/svg" xmlns:xlink="http://www.w3.org/1999/xlink" x="0px" y="0px"
	 viewBox="0 0 12 14" style="enable-background:new 0 0 12 14;" xml:space="preserve">
<style type="text/css">
	.st0{fill:#FFFFFF;}
</style>
<g transform="translate(0 2)">
	<g transform="translate(0)">
		<g transform="translate(0)">
			<path class="st0" d="M12,7c0-0.1,0-0.2-0.1-0.2L9.4,3.4C9.3,3.2,9.2,3.2,9,3.2H7.4c-0.1,0-0.3,0.1-0.3,0.3c0,0,0,0,0,0v0.5
				c0,0.1,0.1,0.3,0.3,0.3c0,0,0,0,0,0h1.4l1.9,2.6H9.3c-0.6,0-1.1,0.5-1.1,1c0,0.3-0.3,0.5-0.5,0.5H4.4c-0.3,0-0.5-0.2-0.5-0.5
				c0-0.6-0.5-1.1-1.1-1H1.4l1.9-2.6h1.3c0.1,0,0.3-0.1,0.3-0.3c0,0,0,0,0,0V3.4c0-0.1-0.1-0.3-0.3-0.3c0,0,0,0,0,0H3
				c-0.2,0-0.3,0.1-0.4,0.2L0.1,6.8C0,6.8,0,6.9,0,7C0,7,0,11,0,11c0,0.6,0.5,1.1,1.1,1h9.8c0.6,0,1.1-0.5,1.1-1C12,11,12,7,12,7z"
				/>
			<path class="st0" d="M3.9,1.2L3.4,0.8c-0.1-0.1-0.1-0.3,0-0.4c0,0,0,0,0,0l2.1-2.1c0.2-0.2,0.6-0.2,0.9,0c0,0,0,0,0,0l2.1,2.1
				c0.1,0.1,0.1,0.3,0,0.4c0,0,0,0,0,0L8.1,1.2C8,1.3,7.8,1.3,7.7,1.2c0,0,0,0,0,0l-1-1v6.1c0,0.2-0.1,0.3-0.3,0.3H5.7
				c-0.2,0-0.3-0.1-0.3-0.3V0.2l-1,1C4.2,1.3,4,1.3,3.9,1.2C3.9,1.2,3.9,1.2,3.9,1.2z"/>
		</g>
	</g>
</g>
</svg>
