<svg xmlns="http://www.w3.org/2000/svg" width="10.284" height="10.26" viewBox="0 0 10.284 10.26">
  <g id="url" transform="translate(0 -0.588)">
    <path id="Path_14974" data-name="Path 14974" d="M151.882,3.166a2.82,2.82,0,0,0,.441,4.256.117.117,0,0,0,.146-.014,4.681,4.681,0,0,0,.756-.914.11.11,0,0,0-.043-.154,1.411,1.411,0,0,1-.541-.557h0a1.358,1.358,0,0,1-.115-.928h0a3,3,0,0,1,.88-1.17h0l1.288-1.315a1.321,1.321,0,0,1,1.876-.01,1.337,1.337,0,0,1,.019,1.886l-.78.8a.137.137,0,0,0-.031.14,3.692,3.692,0,0,1,.1,1.81.016.016,0,0,0,.027.014l1.661-1.695a2.784,2.784,0,1,0-3.977-3.9l-1.7,1.737-.007.007Z" transform="translate(-148.073 0)" fill="#a3a3a3"/>
    <path id="Path_14975" data-name="Path 14975" d="M6.914,174.426h0a2.848,2.848,0,0,0,.247-2.023h0A2.8,2.8,0,0,0,6.035,170.8a.154.154,0,0,0-.171.008,2.7,2.7,0,0,0-.747.9.125.125,0,0,0,.05.163,1.4,1.4,0,0,1,.535.546h0a1.279,1.279,0,0,1,.135.84h0c-.06.46-.524.882-.893,1.262h0l-1.281,1.308a1.334,1.334,0,0,1-1.905-1.867l.783-.8a.137.137,0,0,0,.032-.138,3.891,3.891,0,0,1-.112-1.805.016.016,0,0,0-.027-.014L.8,172.864a2.827,2.827,0,0,0,.02,3.957,2.792,2.792,0,0,0,3.937-.04,20.744,20.744,0,0,0,2.158-2.355Z" transform="translate(0 -166.765)" fill="#a3a3a3"/>
  </g>
</svg>
