<svg xmlns="http://www.w3.org/2000/svg" width="32" height="40" viewBox="0 0 32 40">
  <g id="user" transform="translate(0 0)">
    <path id="Path_2628" data-name="Path 2628" d="M95.948,19.357a8.3,8.3,0,0,0,6.3-2.835,9.783,9.783,0,0,0,2.612-6.843,9.784,9.784,0,0,0-2.612-6.843,8.426,8.426,0,0,0-12.608,0,9.783,9.783,0,0,0-2.612,6.843,9.783,9.783,0,0,0,2.612,6.843A8.3,8.3,0,0,0,95.948,19.357Zm0,0" transform="translate(-80.201)" fill="#fff"/>
    <path id="Path_2629" data-name="Path 2629" d="M31.922,258.805a24.989,24.989,0,0,0-.311-2.539,20.8,20.8,0,0,0-.6-2.553,12.922,12.922,0,0,0-1-2.381A8.947,8.947,0,0,0,28.5,249.27a6.625,6.625,0,0,0-2.17-1.428,7.2,7.2,0,0,0-2.77-.525,2.742,2.742,0,0,0-1.5.667c-.45.307-.976.663-1.564,1.056a8.764,8.764,0,0,1-2.024.934,7.52,7.52,0,0,1-4.951,0,8.744,8.744,0,0,1-2.022-.934c-.582-.39-1.109-.745-1.566-1.057a2.738,2.738,0,0,0-1.5-.667,7.188,7.188,0,0,0-2.77.526,6.62,6.62,0,0,0-2.17,1.428,8.95,8.95,0,0,0-1.51,2.062,12.949,12.949,0,0,0-1,2.381,20.848,20.848,0,0,0-.6,2.553,24.9,24.9,0,0,0-.311,2.54c-.051.769-.077,1.567-.077,2.373a6.843,6.843,0,0,0,1.892,5.048,6.633,6.633,0,0,0,4.874,1.863H25.234a6.631,6.631,0,0,0,4.874-1.863A6.84,6.84,0,0,0,32,261.179c0-.81-.026-1.608-.078-2.374Zm0,0" transform="translate(0 -228.089)" fill="#fff"/>
  </g>
</svg>
