<svg xmlns="http://www.w3.org/2000/svg" width="15.536" height="17.356" viewBox="0 0 15.536 17.356">
  <g id="user" opacity="0.33">
    <g id="Group_2842" data-name="Group 2842" transform="translate(3.263)">
      <g id="Group_2841" data-name="Group 2841" transform="translate(0)">
        <path id="Path_2615" data-name="Path 2615" d="M115.3,0A4.506,4.506,0,1,0,119.8,4.506,4.518,4.518,0,0,0,115.3,0Z" transform="translate(-110.791)"/>
      </g>
    </g>
    <g id="Group_2844" data-name="Group 2844" transform="translate(0 9.335)">
      <g id="Group_2843" data-name="Group 2843" transform="translate(0)">
        <path id="Path_2616" data-name="Path 2616" d="M39.667,251.119a4.2,4.2,0,0,0-.453-.826,5.6,5.6,0,0,0-3.877-2.44.829.829,0,0,0-.571.138,4.8,4.8,0,0,1-5.667,0,.738.738,0,0,0-.571-.138,5.561,5.561,0,0,0-3.877,2.44,4.844,4.844,0,0,0-.453.826.418.418,0,0,0,.02.374,7.848,7.848,0,0,0,.531.787,7.479,7.479,0,0,0,.905,1.023,11.8,11.8,0,0,0,.905.787,8.974,8.974,0,0,0,10.7,0,8.654,8.654,0,0,0,.905-.787,9.085,9.085,0,0,0,.905-1.023,6.9,6.9,0,0,0,.531-.787A.336.336,0,0,0,39.667,251.119Z" transform="translate(-24.165 -247.841)"/>
      </g>
    </g>
  </g>
</svg>
