<svg xmlns="http://www.w3.org/2000/svg" width="30" height="18.906" viewBox="0 0 30 18.906">
  <g id="value" transform="translate(-70 -24.989)">
    <path id="Path_4017" data-name="Path 4017" d="M217.88,30.256V28.662a3.673,3.673,0,1,0-7.346,0v1.595a3.673,3.673,0,1,0,7.346,0Zm-6.378,0V28.662a2.705,2.705,0,1,1,5.41,0v1.595a2.705,2.705,0,1,1-5.41,0Z" transform="translate(-129.201 0)" fill="#a3a3a3"/>
    <path id="Path_4018" data-name="Path 4018" d="M79.086,148.416h11.84a.484.484,0,0,0,.484-.484v-1.111h8.106a.484.484,0,0,0,.484-.484V143.2a3.627,3.627,0,0,0-3.4-3.617.565.565,0,0,0-.5.276,2.221,2.221,0,0,1-3.5-.086.484.484,0,0,0-.4-.2,3.587,3.587,0,0,0-1.78.519,4.068,4.068,0,0,0-2.839-1.408.589.589,0,0,0-.5.29,2.605,2.605,0,0,1-4.111-.1.482.482,0,0,0-.4-.2,4.05,4.05,0,0,0-2.81,1.226c-.061.062-.119.127-.176.193a3.6,3.6,0,0,0-1.65-.518.566.566,0,0,0-.5.276,2.22,2.22,0,0,1-3.5-.086.485.485,0,0,0-.4-.2A3.625,3.625,0,0,0,70,143.2v3.141a.484.484,0,0,0,.484.484H78.6v1.111A.484.484,0,0,0,79.086,148.416Zm12.909-7.86a3.189,3.189,0,0,0,4.774.012,2.66,2.66,0,0,1,2.263,2.628v2.657H91.41v-3.1a4.048,4.048,0,0,0-.447-1.853A2.616,2.616,0,0,1,91.995,140.556Zm-9.632-.9a3.574,3.574,0,0,0,5.4.013,3.108,3.108,0,0,1,2.682,3.076v4.7H79.57v-4.7A3.126,3.126,0,0,1,82.363,139.66Zm-11.4,6.193V143.2a2.676,2.676,0,0,1,2.359-2.64,3.189,3.189,0,0,0,4.773.012,2.64,2.64,0,0,1,.944.333,4.054,4.054,0,0,0-.442,1.847v3.1Z" transform="translate(0 -104.52)" fill="#a3a3a3"/>
    <path id="Path_4019" data-name="Path 4019" d="M337.68,54.931v-1.4a3.275,3.275,0,0,0-6.55,0v1.4a3.275,3.275,0,0,0,6.55,0Zm-5.583,0v-1.4a2.307,2.307,0,0,1,4.615,0v1.4a2.307,2.307,0,0,1-4.615,0Z" transform="translate(-240.071 -23.233)" fill="#a3a3a3"/>
    <path id="Path_4020" data-name="Path 4020" d="M106.2,54.931v-1.4a3.275,3.275,0,0,0-6.55,0v1.4a3.275,3.275,0,0,0,6.55,0Zm-5.583,0v-1.4a2.307,2.307,0,0,1,4.615,0v1.4a2.307,2.307,0,0,1-4.615,0Z" transform="translate(-27.255 -23.233)" fill="#a3a3a3"/>
  </g>
</svg>
