<?xml version="1.0" encoding="utf-8"?>
<!-- Generator: Adobe Illustrator 23.0.0, SVG Export Plug-In . SVG Version: 6.00 Build 0)  -->
<svg version="1.1" id="Layer_1" xmlns="http://www.w3.org/2000/svg" xmlns:xlink="http://www.w3.org/1999/xlink" x="0px" y="0px"
	 viewBox="0 0 19.7 19.8" style="enable-background:new 0 0 19.7 19.8;" xml:space="preserve">
<style type="text/css">
	.st0{fill:#FFFFFF;}
</style>
<g id="Group_13196" transform="translate(-1068 -774)">
	<path id="Path_3934" class="st0" d="M1083.1,782.3v-1.5c0-0.3-0.3-0.6-0.6-0.6c-0.3,0-0.6,0.3-0.6,0.6c0,0,0,0,0,0v1.5
		c-0.7,0.2-1.2,0.9-1.2,1.6v1.7h3.5v-1.7C1084.2,783.2,1083.8,782.5,1083.1,782.3z"/>
	<path id="Path_3935" class="st0" d="M1078.4,782.3v-1.5c0-0.3-0.3-0.6-0.6-0.6c-0.3,0-0.6,0.3-0.6,0.6v1.5
		c-0.7,0.2-1.2,0.9-1.2,1.6v1.7h3.5v-1.7C1079.6,783.2,1079.1,782.5,1078.4,782.3z"/>
	<path id="Path_3936" class="st0" d="M1073.8,782.3v-1.5c0-0.3-0.3-0.6-0.6-0.6c-0.3,0-0.6,0.3-0.6,0.6c0,0,0,0,0,0v1.5
		c-0.7,0.2-1.2,0.9-1.2,1.6v1.7h3.5v-1.7C1074.9,783.2,1074.5,782.5,1073.8,782.3z"/>
	<path id="Path_3937" class="st0" d="M1080.5,786.8h3v6.9h-3V786.8z"/>
	<path id="Path_3938" class="st0" d="M1072.2,786.8h3v6.9h-3V786.8z"/>
	<path id="Path_3939" class="st0" d="M1076.3,786.8h3v6.9h-3V786.8z"/>
	<path id="Path_3940" class="st0" d="M1087.7,776.5v-1.9c0-0.3-0.3-0.6-0.6-0.6c0,0,0,0,0,0h-18.5c-0.3,0-0.6,0.3-0.6,0.6
		c0,0,0,0,0,0v1.9c0,0.7,0.5,1.4,1.2,1.6v8.7h-0.6c-0.3,0-0.6,0.3-0.6,0.6c0,0,0,0,0,0v5.8c0,0.3,0.3,0.6,0.6,0.6c0,0,0,0,0,0h2.4
		v-7h-0.7v-8.7c0.2-0.1,0.4-0.2,0.6-0.3c0.7,0.6,1.7,0.6,2.3,0c0.7,0.6,1.7,0.6,2.3,0c0.7,0.6,1.7,0.6,2.3,0c0.7,0.6,1.7,0.6,2.3,0
		c0.7,0.6,1.7,0.6,2.3,0c0.7,0.6,1.7,0.6,2.3,0c0.2,0.2,0.4,0.3,0.6,0.3v8.7h-0.7v7h2.4c0.3,0,0.6-0.3,0.6-0.6c0,0,0,0,0,0v-5.8
		c0-0.3-0.3-0.6-0.6-0.6c0,0,0,0,0,0h-0.6v-8.7C1087.2,777.9,1087.7,777.2,1087.7,776.5z"/>
</g>
</svg>
