<svg xmlns="http://www.w3.org/2000/svg" width="172.331" height="172.331" viewBox="0 0 172.331 172.331">
  <g id="Group_817" data-name="Group 817" opacity="0.7">
    <g id="Group_818" data-name="Group 818">
      <path id="Path_519" data-name="Path 519" d="M120.339,320.677a2.787,2.787,0,0,1-2.78-2.779v-2.78h2.78a2.788,2.788,0,0,1,2.779,2.78h5.559a8.311,8.311,0,0,0-5.559-7.818V304h-5.559v5.559H112V317.9a8.363,8.363,0,0,0,8.339,8.338,2.788,2.788,0,0,1,2.779,2.78V331.8h-2.779a2.788,2.788,0,0,1-2.78-2.779H112a8.31,8.31,0,0,0,5.559,7.817v6.08h5.559v-5.559h5.559v-8.338A8.363,8.363,0,0,0,120.339,320.677Z" transform="translate(-73.087 -198.378)" fill="#707070"/>
      <path id="Path_520" data-name="Path 520" d="M80,352h5.559v5.559H80Z" transform="translate(-52.205 -229.701)" fill="#707070"/>
      <path id="Path_521" data-name="Path 521" d="M176,352h5.559v5.559H176Z" transform="translate(-114.85 -229.701)" fill="#707070"/>
      <path id="Path_522" data-name="Path 522" d="M255.52,189.827A38.956,38.956,0,0,0,228.7,152.859a22.219,22.219,0,1,0-24.217,0,38.878,38.878,0,0,0-26.788,36.968v2.78h2.78v2.78H255.52v5.559H180.472V206.5h69.488v33.354H136v5.559H255.52V206.5a5.575,5.575,0,0,0,5.559-5.559v-5.559A5.575,5.575,0,0,0,255.52,189.827Zm-5.559,0h-8.339V178.709h-5.559v11.118H221.4l15.218-26.614A33.229,33.229,0,0,1,249.961,189.827Zm-33.354-33.354a33.862,33.862,0,0,1,6.532.66l-6.532,6.532-6.532-6.532A31.33,31.33,0,0,1,216.606,156.473Zm7.956,16.608-4.239-5.281,8.86-8.86a28.081,28.081,0,0,1,2.745,1.286ZM212.889,167.8l-4.239,5.281-7.366-12.89c.9-.452,1.807-.9,2.71-1.286Zm3.718,4.239,5,6.219-5,8.755-5-8.721Zm-16.677-37.8a16.677,16.677,0,1,1,16.677,16.677A16.681,16.681,0,0,1,199.929,134.236Zm-6.914,32a33.242,33.242,0,0,1,3.579-3.057l15.218,26.649H197.15V178.709h-5.559v11.118h-8.339A33.2,33.2,0,0,1,193.015,166.236Z" transform="translate(-88.748 -73.087)" fill="#707070"/>
      <path id="Path_523" data-name="Path 523" d="M432,448h5.559v5.559H432Z" transform="translate(-281.905 -292.347)" fill="#707070"/>
      <path id="Path_524" data-name="Path 524" d="M400,448h5.559v5.559H400Z" transform="translate(-261.024 -292.347)" fill="#707070"/>
      <path id="Path_525" data-name="Path 525" d="M368,448h5.559v5.559H368Z" transform="translate(-240.142 -292.347)" fill="#707070"/>
      <path id="Path_526" data-name="Path 526" d="M75,40.859a22.236,22.236,0,1,0-24.182,0A38.956,38.956,0,0,0,24,77.827v20.5h5.559v-20.5A33.229,33.229,0,0,1,42.9,51.213L60.481,82l2.4-1.39,2.4,1.39L82.856,51.213A33.229,33.229,0,0,1,96.2,77.827v20.5h5.559v-20.5A38.805,38.805,0,0,0,75,40.859ZM46.236,22.236A16.677,16.677,0,1,1,62.913,38.913,16.681,16.681,0,0,1,46.236,22.236Zm9.9,22.931L53.706,58.891l-6.08-10.666a32.292,32.292,0,0,1,8.512-3.057Zm1.876,21.263,3.891-21.924c.347,0,.66-.069,1.008-.069s.66.035,1.008.035L67.812,66.4l-4.9,8.617Zm14.106-7.539L69.688,45.167a32.982,32.982,0,0,1,8.547,3.057Z" transform="translate(-15.661)" fill="#707070"/>
      <path id="Path_527" data-name="Path 527" d="M192,192h5.559v22.688H192Z" transform="translate(-125.291 -125.291)" fill="#707070"/>
      <path id="Path_528" data-name="Path 528" d="M64,192h5.559v22.688H64Z" transform="translate(-41.764 -125.291)" fill="#707070"/>
      <path id="Path_529" data-name="Path 529" d="M94.5,281.671V261l-7.609-2.536a44.2,44.2,0,0,0-2.5-6.045l3.579-7.157L73.345,230.632l-7.157,3.579a44.2,44.2,0,0,0-6.045-2.5L57.606,224.1H36.933L34.4,231.709a44.2,44.2,0,0,0-6.045,2.5l-7.157-3.579L6.567,245.259l3.579,7.157a44.2,44.2,0,0,0-2.5,6.045L0,260.963v20.673l7.609,2.536a44.2,44.2,0,0,0,2.5,6.045L6.532,297.41l14.627,14.627,7.157-3.579a44.211,44.211,0,0,0,6.045,2.5l2.536,7.609H57.571l2.536-7.609a44.2,44.2,0,0,0,6.045-2.5l7.157,3.579L87.937,297.41l-3.579-7.157a44.207,44.207,0,0,0,2.5-6.045ZM47.252,299.112a27.8,27.8,0,1,1,27.8-27.8A27.788,27.788,0,0,1,47.252,299.112Z" transform="translate(0 -146.238)" fill="#2866a0"/>
    </g>
  </g>
</svg>
