<svg xmlns="http://www.w3.org/2000/svg" width="15.928" height="10.307" viewBox="0 0 15.928 10.307">
  <g id="View" transform="translate(-15 -21)">
    <path id="Path_6235" data-name="Path 6235" d="M22.964,31.307c-4.331,0-7.734-4.681-7.877-4.881a.468.468,0,0,1,0-.545c.143-.2,3.546-4.881,7.877-4.881s7.734,4.681,7.877,4.881a.468.468,0,0,1,0,.545C30.7,26.626,27.295,31.307,22.964,31.307Zm-6.9-5.153c.779.974,3.619,4.216,6.9,4.216s6.126-3.242,6.9-4.216c-.779-.974-3.619-4.216-6.9-4.216S16.838,25.179,16.06,26.153Z" transform="translate(0)" fill="#fff"/>
    <path id="Path_6236" data-name="Path 6236" d="M28.811,31.622a2.811,2.811,0,1,1,2.811-2.811A2.811,2.811,0,0,1,28.811,31.622Zm0-4.685a1.874,1.874,0,1,0,1.874,1.874A1.874,1.874,0,0,0,28.811,26.937Z" transform="translate(-5.847 -2.658)" fill="#fff"/>
  </g>
</svg>
