<svg id="wwww" xmlns="http://www.w3.org/2000/svg" width="110.771" height="110.772" viewBox="0 0 110.771 110.772">
  <g id="Group_5732" data-name="Group 5732">
    <g id="Group_5731" data-name="Group 5731">
      <path id="Path_5909" data-name="Path 5909" d="M107.526,0H3.245A3.245,3.245,0,0,0,0,3.245V107.526a3.245,3.245,0,0,0,3.245,3.245H107.526a3.245,3.245,0,0,0,3.245-3.245V3.245A3.245,3.245,0,0,0,107.526,0Zm-3.245,104.281H6.491V6.491h97.791Z" fill="#a3a3a3"/>
    </g>
  </g>
  <g id="Group_5734" data-name="Group 5734" transform="translate(12.981 12.981)">
    <g id="Group_5733" data-name="Group 5733">
      <path id="Path_5910" data-name="Path 5910" d="M141.564,60H63.245A3.245,3.245,0,0,0,60,63.245v78.319a3.245,3.245,0,0,0,3.245,3.245h78.319a3.245,3.245,0,0,0,3.245-3.245V63.245A3.245,3.245,0,0,0,141.564,60Zm-42.4,78.319H66.491V105.65H99.16Zm0-39.159H66.491V66.491H99.16Zm39.159,39.159H105.65v-13.2h32.669Zm0-19.688H105.65V105.65h32.669Zm0-19.472H105.65v-13.2h32.669Zm0-19.688H105.65V66.491h32.669Z" transform="translate(-60 -60)" fill="#a3a3a3"/>
    </g>
  </g>
</svg>
