<svg xmlns="http://www.w3.org/2000/svg" width="15" height="15" viewBox="0 0 15 15">
  <g id="Group_2215" data-name="Group 2215" transform="translate(-23289 3413)">
    <ellipse id="Ellipse_138" data-name="Ellipse 138" cx="0.728" cy="0.728" rx="0.728" ry="0.728" transform="translate(23300.121 -3408.027)" fill="#b40001"/>
    <ellipse id="Ellipse_149" data-name="Ellipse 149" cx="0.728" cy="0.728" rx="0.728" ry="0.728" transform="translate(23300.121 -3405.115)" fill="#b40001"/>
    <ellipse id="Ellipse_147" data-name="Ellipse 147" cx="0.728" cy="0.728" rx="0.728" ry="0.728" transform="translate(23300.121 -3402.204)" fill="#b40001"/>
    <ellipse id="Ellipse_141" data-name="Ellipse 141" cx="0.728" cy="0.728" rx="0.728" ry="0.728" transform="translate(23291.938 -3408.027)" fill="#b40001"/>
    <ellipse id="Ellipse_150" data-name="Ellipse 150" cx="0.728" cy="0.728" rx="0.728" ry="0.728" transform="translate(23291.938 -3405.115)" fill="#b40001"/>
    <ellipse id="Ellipse_143" data-name="Ellipse 143" cx="0.5" rx="0.5" transform="translate(23295.172 -3404.368)" fill="#b40001"/>
    <ellipse id="Ellipse_144" data-name="Ellipse 144" cx="0.728" cy="0.728" rx="0.728" ry="0.728" transform="translate(23295.793 -3408.027)" fill="#b40001"/>
    <ellipse id="Ellipse_148" data-name="Ellipse 148" cx="0.728" cy="0.728" rx="0.728" ry="0.728" transform="translate(23295.793 -3405.115)" fill="#b40001"/>
    <ellipse id="Ellipse_145" data-name="Ellipse 145" cx="0.728" cy="0.728" rx="0.728" ry="0.728" transform="translate(23295.793 -3402.244)" fill="#b40001"/>
    <path id="Path_2577" data-name="Path 2577" d="M14.414,13.27A.586.586,0,0,0,15,12.684V3.516a2.346,2.346,0,0,0-2.344-2.344h-.762V.586a.586.586,0,1,0-1.172,0v.586H8.057V.586a.586.586,0,1,0-1.172,0v.586H4.248V.586a.586.586,0,1,0-1.172,0v.586H2.344A2.346,2.346,0,0,0,0,3.516v9.141A2.346,2.346,0,0,0,2.344,15H12.656A2.346,2.346,0,0,0,15,12.656a.586.586,0,1,0-1.172,0,1.173,1.173,0,0,1-1.172,1.172H2.344a1.173,1.173,0,0,1-1.172-1.172V3.516A1.173,1.173,0,0,1,2.344,2.344h.732V2.93a.586.586,0,1,0,1.172,0V2.344H6.885V2.93a.586.586,0,1,0,1.172,0V2.344h2.666V2.93a.586.586,0,1,0,1.172,0V2.344h.762a1.173,1.173,0,0,1,1.172,1.172v9.168A.586.586,0,0,0,14.414,13.27Z" transform="translate(23289 -3413)" fill="#b40001"/>
    <ellipse id="Ellipse_140" data-name="Ellipse 140" cx="0.728" cy="0.728" rx="0.728" ry="0.728" transform="translate(23291.938 -3402.244)" fill="#b40001"/>
    <ellipse id="Ellipse_142" data-name="Ellipse 142" cx="0.5" rx="0.5" transform="translate(23292.523 -3404.368)" fill="#b40001"/>
  </g>
</svg>
