<svg id="ic-ecommerce-invoice" xmlns="http://www.w3.org/2000/svg" width="15" height="15" viewBox="0 0 15 15">
  <rect id="Rectangle_114" data-name="Rectangle 114" width="15" height="15" fill="none"/>
  <g id="Layer" transform="translate(2.188 0.629)">
    <g id="Vrstva_169" data-name="Vrstva 169">
      <path id="Path_201" data-name="Path 201" d="M12.25,1H5.375A1.875,1.875,0,0,0,3.5,2.875V14a.688.688,0,0,0,1.138.519l1.725-1.481,2.375,1.588a.688.688,0,0,0,.831-.05l1.744-1.494,1.675,1.437A.688.688,0,0,0,14.125,14V2.875A1.875,1.875,0,0,0,12.25,1Zm.625,11.769-1.113-.956a.7.7,0,0,0-.9,0L9.075,13.344,6.7,11.756a.694.694,0,0,0-.831.05l-1.119.969v-9.9a.625.625,0,0,1,.625-.625H12.25a.625.625,0,0,1,.625.625Z" transform="translate(-3.5 -1)" fill="#b40001"/>
      <path id="Path_202" data-name="Path 202" d="M7.125,6.25H11.5A.625.625,0,0,0,11.5,5H7.125a.625.625,0,0,0,0,1.25Z" transform="translate(-4.625 -2.5)" fill="#b40001"/>
      <path id="Path_203" data-name="Path 203" d="M7.125,10.25h2.5a.625.625,0,0,0,0-1.25h-2.5a.625.625,0,0,0,0,1.25Z" transform="translate(-4.625 -4)" fill="#b40001"/>
      <path id="Path_204" data-name="Path 204" d="M12.125,13h-5a.625.625,0,0,0,0,1.25h5a.625.625,0,0,0,0-1.25Z" transform="translate(-4.625 -5.5)" fill="#b40001"/>
    </g>
  </g>
</svg>
