<svg xmlns="http://www.w3.org/2000/svg" width="18.687" height="17.641" viewBox="0 0 18.687 17.641">
  <g id="calendar" transform="translate(0 -25)">
    <path id="Path_14956" data-name="Path 14956" d="M18.687,30.5V28.246a1.684,1.684,0,0,0-1.642-1.718h-.219v2.1a.548.548,0,1,1-1.095,0V25.573a.548.548,0,1,0-1.095,0v.955h-3.65v2.1a.548.548,0,1,1-1.095,0V25.573a.548.548,0,1,0-1.095,0v.955H5.146v2.1a.548.548,0,1,1-1.095,0V25.573a.548.548,0,1,0-1.095,0v.955H1.642A1.684,1.684,0,0,0,0,28.246V30.5Z" transform="translate(0 0)" fill="#a2a2a2"/>
    <path id="Path_14957" data-name="Path 14957" d="M0,199v9.279A1.684,1.684,0,0,0,1.642,210h15.4a1.684,1.684,0,0,0,1.642-1.718V199Zm5.256,7.942H4.088a.573.573,0,0,1,0-1.146H5.256a.573.573,0,0,1,0,1.146Zm0-2.444H4.088a.573.573,0,0,1,0-1.146H5.256a.573.573,0,0,1,0,1.146Zm0-2.444H4.088a.573.573,0,0,1,0-1.146H5.256a.573.573,0,0,1,0,1.146Zm4.672,4.888H8.759a.573.573,0,0,1,0-1.146H9.927a.573.573,0,0,1,0,1.146Zm0-2.444H8.759a.573.573,0,0,1,0-1.146H9.927a.573.573,0,0,1,0,1.146Zm0-2.444H8.759a.573.573,0,0,1,0-1.146H9.927a.573.573,0,0,1,0,1.146Zm4.672,4.888H13.431a.573.573,0,0,1,0-1.146H14.6a.573.573,0,0,1,0,1.146Zm0-2.444H13.431a.573.573,0,0,1,0-1.146H14.6a.573.573,0,0,1,0,1.146Zm0-2.444H13.431a.573.573,0,0,1,0-1.146H14.6a.573.573,0,0,1,0,1.146Z" transform="translate(0 -167.356)" fill="#a2a2a2"/>
  </g>
</svg>
