<svg id="color-picker" xmlns="http://www.w3.org/2000/svg" width="19.158" height="19.158" viewBox="0 0 19.158 19.158">
  <g id="Group_17079" data-name="Group 17079">
    <path id="Path_15030" data-name="Path 15030" d="M249.922,244.1a5.821,5.821,0,0,1-5.821,5.821l-.463,1.8.463,1.962a9.579,9.579,0,0,0,9.579-9.579l-1.961-.463Z" transform="translate(-234.522 -234.522)" fill="#fb3a82"/>
    <path id="Path_15031" data-name="Path 15031" d="M9.579,0A9.579,9.579,0,0,0,0,9.579l1.753.231,2-.231A5.821,5.821,0,0,1,9.579,3.758L9.81,1.826Z" fill="#27d1b3"/>
    <path id="Path_15032" data-name="Path 15032" d="M0,256a9.579,9.579,0,0,0,9.579,9.579v-3.758A5.821,5.821,0,0,1,3.758,256Z" transform="translate(0 -246.421)" fill="#31a7fb"/>
    <path id="Path_15033" data-name="Path 15033" d="M265.579,9.579A9.579,9.579,0,0,0,256,0V3.758a5.821,5.821,0,0,1,5.821,5.821Z" transform="translate(-246.421)" fill="#fc9744"/>
    <path id="Path_15034" data-name="Path 15034" d="M265.579,9.579h-1.556A9.581,9.581,0,0,0,256,.126V0A9.579,9.579,0,0,1,265.579,9.579Z" transform="translate(-246.421 0)" fill="#fb8627"/>
    <path id="Path_15035" data-name="Path 15035" d="M369.059,76.763a1.393,1.393,0,0,1-1.756,2.107l-.456.456a5.826,5.826,0,0,0-1.276-1.895l2.666-2.648a9.606,9.606,0,0,1,1.257,1.546Z" transform="translate(-351.892 -71.984)" fill="#fb8627"/>
    <path id="Path_15036" data-name="Path 15036" d="M265.579,256A9.579,9.579,0,0,1,256,265.579v-.126A9.581,9.581,0,0,0,264.023,256Z" transform="translate(-246.421 -246.421)" fill="#fb1466"/>
  </g>
  <g id="Group_17080" data-name="Group 17080" transform="translate(7.605 1.223)">
    <path id="Path_15037" data-name="Path 15037" d="M209.233,94.2l-4.975,4.975a.752.752,0,0,0,0,1.063l-.789.789a.708.708,0,0,0-.029.98.7.7,0,0,0,1,.018l.8-.8a.752.752,0,0,0,1.063,0l4.975-4.975Z" transform="translate(-203.257 -91.894)" fill="#cbe5e7"/>
    <path id="Path_15038" data-name="Path 15038" d="M340.946,97.147l.9-.9L339.8,94.2l-.9.9Z" transform="translate(-333.821 -91.894)" fill="#a9d3d8"/>
    <path id="Path_15039" data-name="Path 15039" d="M211.291,131.592l-4.975,4.975a.751.751,0,0,1-1.063,0l-.8.8a.7.7,0,0,1-1-.019.68.68,0,0,1-.182-.454.694.694,0,0,0,.51-.2l.646-.646a.249.249,0,0,1,.3-.039.752.752,0,0,0,.915-.115l4.975-4.975Z" transform="translate(-203.266 -127.24)" fill="#a9d3d8"/>
    <path id="Path_15040" data-name="Path 15040" d="M347.352,36.692a.649.649,0,0,1,0-.918l1.041-1.041a1.2,1.2,0,0,0-1.7-1.7l-1.041,1.041a.649.649,0,0,1-.918,0,.622.622,0,0,0-.88.88l2.618,2.618a.622.622,0,1,0,.88-.88Z" transform="translate(-338.418 -32.681)" fill="#3f5959"/>
    <path id="Path_15041" data-name="Path 15041" d="M399.2,37.207a.649.649,0,0,0,0,.918.622.622,0,0,1-.88.88l-.784-.784a.622.622,0,0,0,.88-.88.649.649,0,0,1,0-.918l1.042-1.042a1.2,1.2,0,0,0,.3-1.212,1.2,1.2,0,0,1,.488,2Z" transform="translate(-390.268 -34.114)" fill="#384848"/>
  </g>
</svg>
