<svg id="chat-comment-oval-speech-bubble-with-text-lines_1_" data-name="chat-comment-oval-speech-bubble-with-text-lines (1)" xmlns="http://www.w3.org/2000/svg" width="19.5" height="19.5" viewBox="0 0 19.5 19.5">
  <g id="_x32__26_">
    <g id="Group_16969" data-name="Group 16969">
      <path id="Path_15016" data-name="Path 15016" d="M12.8,10.359H6.7a.609.609,0,1,0,0,1.219H12.8a.609.609,0,1,0,0-1.219ZM14.016,6.7H5.484a.609.609,0,0,0,0,1.219h8.531a.609.609,0,0,0,0-1.219ZM9.75,0C4.366,0,0,3.82,0,8.531a8.166,8.166,0,0,0,3.656,6.654V19.5l4.271-2.592a11.181,11.181,0,0,0,1.823.154c5.385,0,9.75-3.82,9.75-8.531S15.135,0,9.75,0Zm0,15.844a9.861,9.861,0,0,1-2.06-.224L4.821,17.345l.038-2.826A7.066,7.066,0,0,1,1.219,8.531c0-4.038,3.82-7.312,8.531-7.312s8.531,3.274,8.531,7.313S14.462,15.844,9.75,15.844Z"/>
    </g>
  </g>
</svg>
