<svg xmlns="http://www.w3.org/2000/svg" width="14.02" height="15.641" viewBox="0 0 14.02 15.641">
  <g id="Trash" transform="translate(0)">
    <path id="Shape" d="M11.683,15.641H1.977A1.08,1.08,0,0,1,.9,14.563V3.419H.539a.539.539,0,1,1,0-1.078H3.624a3.62,3.62,0,0,1,6.773,0h3.085a.539.539,0,0,1,0,1.078h-.719V14.563A1.08,1.08,0,0,1,11.683,15.641ZM9.706,7.912a.54.54,0,0,1,.539.539v6.111h1.438V3.419H1.977V14.563H3.415V8.452a.539.539,0,1,1,1.078,0v6.111h1.8V6.295a.539.539,0,0,1,1.079,0v8.268h1.8V8.452A.54.54,0,0,1,9.706,7.912Zm-2.7-6.83A2.281,2.281,0,0,0,4.756,2.34H9.264A2.318,2.318,0,0,0,7.01,1.082Z" transform="translate(0 0)" fill="#fff"/>
  </g>
</svg>
