<svg id="Trash" xmlns="http://www.w3.org/2000/svg" width="16.178" height="18.049" viewBox="0 0 16.178 18.049">
  <path id="Shape" d="M13.481,18.049H2.281A1.246,1.246,0,0,1,1.037,16.8V3.945H.622a.622.622,0,1,1,0-1.244H4.181A4.177,4.177,0,0,1,12,2.7h3.559a.622.622,0,0,1,0,1.244h-.83V16.8A1.246,1.246,0,0,1,13.481,18.049ZM11.2,9.13a.623.623,0,0,1,.622.622V16.8h1.659V3.945H2.281V16.8H3.941V9.753a.622.622,0,1,1,1.244,0V16.8H7.259V7.264a.622.622,0,0,1,1.245,0V16.8h2.074V9.753A.623.623,0,0,1,11.2,9.13ZM8.089,1.249A2.632,2.632,0,0,0,5.488,2.7h5.2A2.674,2.674,0,0,0,8.089,1.249Z" fill="#afafaf"/>
</svg>
