<svg xmlns="http://www.w3.org/2000/svg" xmlns:xlink="http://www.w3.org/1999/xlink" width="137" height="137" viewBox="0 0 137 137">
  <defs>
    <filter id="Ellipse_1466" x="0" y="0" width="137" height="137" filterUnits="userSpaceOnUse">
      <feOffset dy="3" input="SourceAlpha"/>
      <feGaussianBlur stdDeviation="3" result="blur"/>
      <feFlood flood-opacity="0.161"/>
      <feComposite operator="in" in2="blur"/>
      <feComposite in="SourceGraphic"/>
    </filter>
  </defs>
  <g id="Group_17159" data-name="Group 17159" transform="translate(-621 -139.521)">
    <g transform="matrix(1, 0, 0, 1, 621, 139.52)" filter="url(#Ellipse_1466)">
      <circle id="Ellipse_1466-2" data-name="Ellipse 1466" cx="59.5" cy="59.5" r="59.5" transform="translate(9 6)" fill="#22b573"/>
    </g>
    <path id="Path_15028" data-name="Path 15028" d="M167.833,212.981a3.937,3.937,0,0,1-2.8-1.163l-17.194-17.194a3.97,3.97,0,1,1,5.614-5.614l14.39,14.391,31.586-31.585a3.969,3.969,0,1,1,5.613,5.613l-34.39,34.39a3.975,3.975,0,0,1-2.814,1.163Zm0,0" transform="translate(512.958 13.444)" fill="#fff"/>
  </g>
</svg>
