<svg id="Layer_2" data-name="Layer 2" xmlns="http://www.w3.org/2000/svg" width="13.451" height="16.465" viewBox="0 0 13.451 16.465">
  <path id="Path_6194" data-name="Path 6194" d="M4.976,15.27h.093v.1a2.039,2.039,0,0,0,1.976,2.1h7.429a2.039,2.039,0,0,0,1.976-2.1V5.292a2.039,2.039,0,0,0-1.976-2.1h-.093V3.1A2.039,2.039,0,0,0,12.405,1H4.976A2.039,2.039,0,0,0,3,3.1V13.173A2.039,2.039,0,0,0,4.976,15.27Zm9.5-10.977a.977.977,0,0,1,.942,1V15.368a.977.977,0,0,1-.942,1H7.046a.977.977,0,0,1-.942-1V5.292a.977.977,0,0,1,.942-1ZM4.035,3.1a.977.977,0,0,1,.942-1h7.429a.977.977,0,0,1,.942,1v.1h-6.3a2.039,2.039,0,0,0-1.976,2.1v8.88H4.976a.977.977,0,0,1-.942-1Z" transform="translate(-3 -1)" fill="#959191"/>
</svg>
