<svg id="Layer_2" data-name="Layer 2" xmlns="http://www.w3.org/2000/svg" width="15.801" height="15.806" viewBox="0 0 15.801 15.806">
  <g id="Layer_1" data-name="Layer 1">
    <g id="edit">
      <path id="Path_1111" data-name="Path 1111" d="M.671,15.81a.681.681,0,0,1-.474-.2.672.672,0,0,1-.174-.64l.831-3.247a.681.681,0,0,1,.174-.308L12.248.2A.675.675,0,0,1,13.2.2L15.607,2.61a.672.672,0,0,1,0,.948L4.392,14.784a.681.681,0,0,1-.308.174l-3.247.831A.707.707,0,0,1,.671,15.81Zm3.247-1.5ZM2.1,12.236l-.5,1.967,1.975-.5L14.2,3.089,12.722,1.61Z" transform="translate(-0.002 -0.004)" fill="#afafaf"/>
      <path id="Path_1112" data-name="Path 1112" d="M40.346,11.487a.678.678,0,0,1-.472-.2L37.463,8.872a.671.671,0,0,1,.948-.948l2.411,2.411a.67.67,0,0,1-.474,1.144Z" transform="translate(-27.283 -5.658)" fill="#afafaf"/>
    </g>
  </g>
</svg>
