<svg id="Group_17192" data-name="Group 17192" xmlns="http://www.w3.org/2000/svg" width="16.134" height="16.134" viewBox="0 0 16.134 16.134">
  <path id="Path_101" data-name="Path 101" d="M16.4,9.8a.733.733,0,0,0-.733.733v4.4a.733.733,0,0,1-.733.733H3.2a.733.733,0,0,1-.733-.733V3.2A.733.733,0,0,1,3.2,2.467H7.6A.733.733,0,1,0,7.6,1H3.2A2.2,2.2,0,0,0,1,3.2V14.934a2.2,2.2,0,0,0,2.2,2.2H14.934a2.2,2.2,0,0,0,2.2-2.2v-4.4A.733.733,0,0,0,16.4,9.8Z" transform="translate(-1 -1)" fill="#fff"/>
  <path id="Path_102" data-name="Path 102" d="M17.151,1H14.218a.733.733,0,0,0,0,1.467h2.427L9.6,9.515a.733.733,0,1,0,1.034,1.019L17.885,3.3V6.134a.733.733,0,1,0,1.467,0V3.2A2.2,2.2,0,0,0,17.151,1Z" transform="translate(-3.217 -1)" fill="#fff"/>
</svg>
