<svg xmlns="http://www.w3.org/2000/svg" width="18.375" height="13.831" viewBox="0 0 18.375 13.831">
  <g id="list" transform="translate(0 -7.434)">
    <path id="Path_15008" data-name="Path 15008" d="M27.124,47.727H14.837a.917.917,0,1,1,0-1.834H27.124a.917.917,0,0,1,0,1.834Z" transform="translate(-9.666 -26.705)"/>
    <path id="Path_15009" data-name="Path 15009" d="M27.124,28.9H14.837a.917.917,0,1,1,0-1.834H27.124a.917.917,0,0,1,0,1.834Z" transform="translate(-9.666 -13.629)"/>
    <path id="Path_15010" data-name="Path 15010" d="M27.124,10.065H14.837a.917.917,0,1,1,0-1.834H27.124a.917.917,0,0,1,0,1.834Z" transform="translate(-9.666 -0.553)"/>
    <circle id="Ellipse_1462" data-name="Ellipse 1462" cx="1.231" cy="1.231" r="1.231" transform="translate(0 7.434)"/>
    <circle id="Ellipse_1463" data-name="Ellipse 1463" cx="1.231" cy="1.231" r="1.231" transform="translate(0 13.118)"/>
    <circle id="Ellipse_1464" data-name="Ellipse 1464" cx="1.231" cy="1.231" r="1.231" transform="translate(0 18.802)"/>
  </g>
</svg>
