<svg xmlns="http://www.w3.org/2000/svg" width="15.908" height="11.177" viewBox="0 0 15.908 11.177">
  <g id="list" transform="translate(-3.563 -7.638)">
    <path id="Path_15008" data-name="Path 15008" d="M28.8,47.429H14.953c-.571,0-1.033-.344-1.033-.768s.462-.768,1.033-.768H28.8c.571,0,1.033.344,1.033.768S29.366,47.429,28.8,47.429Z" transform="translate(-10.357 -28.614)"/>
    <path id="Path_15009" data-name="Path 15009" d="M28.8,28.6H14.953c-.571,0-1.033-.344-1.033-.768s.462-.768,1.033-.768H28.8c.571,0,1.033.344,1.033.768S29.366,28.6,28.8,28.6Z" transform="translate(-10.357 -14.604)"/>
    <path id="Path_15010" data-name="Path 15010" d="M28.8,9.767H14.953c-.571,0-1.033-.344-1.033-.768s.462-.768,1.033-.768H28.8c.571,0,1.033.344,1.033.768S29.366,9.767,28.8,9.767Z" transform="translate(-10.357 -0.593)"/>
  </g>
</svg>
