<svg xmlns="http://www.w3.org/2000/svg" width="19.302" height="18.412" viewBox="0 0 19.302 18.412">
  <g id="star_1_" data-name="star (1)" transform="translate(0 -11.794)">
    <g id="Group_16966" data-name="Group 16966" transform="translate(0 11.794)">
      <path id="Path_15011" data-name="Path 15011" d="M19.274,18.786a.565.565,0,0,0-.456-.385l-5.984-.87-2.676-5.422a.565.565,0,0,0-1.014,0L6.468,17.531.484,18.4a.565.565,0,0,0-.313.965L4.5,23.586,3.479,29.545a.566.566,0,0,0,.821.6l5.352-2.814L15,30.141a.566.566,0,0,0,.821-.6L14.8,23.586l4.33-4.22A.565.565,0,0,0,19.274,18.786Zm-5.475,4.2a.565.565,0,0,0-.163.5l.879,5.123-4.6-2.419a.566.566,0,0,0-.526,0l-4.6,2.419.879-5.123a.566.566,0,0,0-.163-.5L1.781,19.355l5.144-.748A.566.566,0,0,0,7.35,18.3l2.3-4.661,2.3,4.661a.566.566,0,0,0,.426.309l5.144.747Z" transform="translate(0 -11.794)"/>
    </g>
  </g>
</svg>
