<svg id="interface_1_" data-name="interface (1)" xmlns="http://www.w3.org/2000/svg" width="16.366" height="13.498" viewBox="0 0 16.366 13.498">
  <path id="Path_6199" data-name="Path 6199" d="M7.593,12.316H6.918V1.518h4.049v.675a.675.675,0,0,0,1.35,0V.843a.674.674,0,0,0-.675-.675H.675A.674.674,0,0,0,0,.843v1.35a.675.675,0,0,0,1.35,0V1.518H5.568v10.8H4.893a.675.675,0,1,0,0,1.35h2.7a.675.675,0,1,0,0-1.35Zm0,0" transform="translate(0 -0.168)" fill="#404040"/>
  <path id="Path_6200" data-name="Path 6200" d="M310.074,192.168h-5.4a.674.674,0,0,0-.675.675v1.181a.675.675,0,1,0,1.35,0v-.506h1.35v4.724h-.337a.675.675,0,1,0,0,1.35h2.025a.675.675,0,0,0,0-1.35h-.337v-4.724h1.35v.337a.675.675,0,0,0,1.35,0v-1.012A.674.674,0,0,0,310.074,192.168Zm0,0" transform="translate(-294.383 -186.094)" fill="#404040"/>
</svg>
